999
gamboa valve w_v = 1.0 mm
0
SECTION
2
HEADER
9
$INSUNITS
70
4
0
ENDSEC
0
SECTION
2
ENTITIES
0
LWPOLYLINE
8
0
100
AcDbEntity
100
AcDbPolyline
90
1212
70
1
10
8.762741
20
-9.424298
10
8.742773
20
-9.401006
10
8.722949
20
-9.377591
10
8.703268
20
-9.354056
10
8.683733
20
-9.330400
10
8.664343
20
-9.306625
10
8.645099
20
-9.282731
10
8.626002
20
-9.258720
10
8.607053
20
-9.234592
10
8.588252
20
-9.210348
10
8.569600
20
-9.185989
10
8.551099
20
-9.161516
10
8.532747
20
-9.136930
10
8.514547
20
-9.112232
10
8.496499
20
-9.087423
10
8.478603
20
-9.062504
10
8.460861
20
-9.037475
10
8.443272
20
-9.012337
10
8.425838
20
-8.987093
10
8.408560
20
-8.961742
10
8.391437
20
-8.936285
10
8.374471
20
-8.910724
10
8.357661
20
-8.885059
10
8.341010
20
-8.859291
10
8.324517
20
-8.833422
10
8.308183
20
-8.807452
10
8.292009
20
-8.781382
10
8.275995
20
-8.755214
10
8.260142
20
-8.728947
10
8.244450
20
-8.702584
10
8.228921
20
-8.676126
10
8.213554
20
-8.649572
10
8.198350
20
-8.622925
10
8.183310
20
-8.596185
10
8.168434
20
-8.569353
10
8.153724
20
-8.542430
10
8.139179
20
-8.515417
10
8.124799
20
-8.488316
10
8.110587
20
-8.461127
10
8.096541
20
-8.433852
10
8.082663
20
-8.406490
10
8.068954
20
-8.379044
10
8.055413
20
-8.351515
10
8.042041
20
-8.323903
10
8.028838
20
-8.296209
10
8.015806
20
-8.268435
10
8.002945
20
-8.240582
10
7.990255
20
-8.212650
10
7.977736
20
-8.184640
10
7.965390
20
-8.156555
10
7.953216
20
-8.128394
10
7.941215
20
-8.100159
10
7.929387
20
-8.071851
10
7.917734
20
-8.043471
10
7.906254
20
-8.015020
10
7.894950
20
-7.986499
10
7.883821
20
-7.957909
10
7.872867
20
-7.929251
10
7.862090
20
-7.900527
10
7.851489
20
-7.871737
10
7.841065
20
-7.842883
10
7.830818
20
-7.813965
10
7.820748
20
-7.784985
10
7.810857
20
-7.755944
10
7.801144
20
-7.726842
10
7.791610
20
-7.697682
10
7.782255
20
-7.668463
10
7.773079
20
-7.639188
10
7.764083
20
-7.609857
10
7.755268
20
-7.580471
10
7.746632
20
-7.551032
10
7.738178
20
-7.521541
10
7.729905
20
-7.491998
10
7.721813
20
-7.462404
10
7.713903
20
-7.432762
10
7.706174
20
-7.403072
10
7.698629
20
-7.373335
10
7.691265
20
-7.343552
10
7.684085
20
-7.313724
10
7.677088
20
-7.283853
10
7.670274
20
-7.253940
10
7.663644
20
-7.223985
10
7.657198
20
-7.193991
10
7.650936
20
-7.163957
10
7.644858
20
-7.133885
10
7.638966
20
-7.103777
10
7.633257
20
-7.073633
10
7.627734
20
-7.043455
10
7.622397
20
-7.013243
10
7.617244
20
-6.982999
10
7.612278
20
-6.952724
10
7.607497
20
-6.922420
10
7.602902
20
-6.892086
10
7.598494
20
-6.861725
10
7.594272
20
-6.831337
10
7.590236
20
-6.800924
10
7.586387
20
-6.770487
10
7.582725
20
-6.740027
10
7.579250
20
-6.709545
10
7.575962
20
-6.679042
10
7.572861
20
-6.648519
10
7.569948
20
-6.617979
10
7.567222
20
-6.587420
10
7.564683
20
-6.556846
10
7.562333
20
-6.526257
10
7.560170
20
-6.495653
10
7.558194
20
-6.465037
10
7.556407
20
-6.434410
10
7.554808
20
-6.403772
10
7.553396
20
-6.373125
10
7.552173
20
-6.342470
10
7.551138
20
-6.311808
10
7.550291
20
-6.281140
10
7.549632
20
-6.250467
10
7.549161
20
-6.219791
10
7.548879
20
-6.189113
10
7.548785
20
-6.158434
10
7.548879
20
-6.127754
10
7.549161
20
-6.097076
10
7.549632
20
-6.066400
10
7.550291
20
-6.035728
10
7.551138
20
-6.005060
10
7.552173
20
-5.974398
10
7.553396
20
-5.943742
10
7.554808
20
-5.913095
10
7.556407
20
-5.882458
10
7.558194
20
-5.851830
10
7.560170
20
-5.821214
10
7.562333
20
-5.790611
10
7.564683
20
-5.760022
10
7.567222
20
-5.729447
10
7.569948
20
-5.698889
10
7.572861
20
-5.668348
10
7.575962
20
-5.637826
10
7.579250
20
-5.607323
10
7.582725
20
-5.576841
10
7.586387
20
-5.546380
10
7.590236
20
-5.515943
10
7.594272
20
-5.485530
10
7.598494
20
-5.455143
10
7.602902
20
-5.424781
10
7.607497
20
-5.394448
10
7.612278
20
-5.364143
10
7.617244
20
-5.333868
10
7.622397
20
-5.303624
10
7.627734
20
-5.273413
10
7.633257
20
-5.243234
10
7.638966
20
-5.213090
10
7.644858
20
-5.182982
10
7.650936
20
-5.152911
10
7.657198
20
-5.122877
10
7.663644
20
-5.092882
10
7.670274
20
-5.062928
10
7.677088
20
-5.033014
10
7.684085
20
-5.003143
10
7.691265
20
-4.973316
10
7.698629
20
-4.943533
10
7.706174
20
-4.913796
10
7.713903
20
-4.884105
10
7.721813
20
-4.854463
10
7.729905
20
-4.824870
10
7.738178
20
-4.795327
10
7.746632
20
-4.765835
10
7.755268
20
-4.736396
10
7.764083
20
-4.707010
10
7.773079
20
-4.677679
10
7.782255
20
-4.648404
10
7.791610
20
-4.619186
10
7.801144
20
-4.590025
10
7.810857
20
-4.560924
10
7.820748
20
-4.531882
10
7.830818
20
-4.502902
10
7.841065
20
-4.473984
10
7.851489
20
-4.445130
10
7.862090
20
-4.416340
10
7.872867
20
-4.387616
10
7.883821
20
-4.358959
10
7.894950
20
-4.330369
10
7.906254
20
-4.301848
10
7.917734
20
-4.273397
10
7.929387
20
-4.245017
10
7.941215
20
-4.216709
10
7.953216
20
-4.188474
10
7.965390
20
-4.160313
10
7.977736
20
-4.132227
10
7.990255
20
-4.104218
10
8.002945
20
-4.076286
10
8.015806
20
-4.048432
10
8.028838
20
-4.020658
10
8.042041
20
-3.992965
10
8.055413
20
-3.965353
10
8.068954
20
-3.937823
10
8.082663
20
-3.910377
10
8.096541
20
-3.883016
10
8.110587
20
-3.855740
10
8.124799
20
-3.828551
10
8.139179
20
-3.801450
10
8.153724
20
-3.774438
10
8.168434
20
-3.747515
10
8.183310
20
-3.720683
10
8.198350
20
-3.693943
10
8.213554
20
-3.667295
10
8.228921
20
-3.640742
10
8.244450
20
-3.614283
10
8.260142
20
-3.587920
10
8.275995
20
-3.561654
10
8.292009
20
-3.535485
10
8.308183
20
-3.509416
10
8.324517
20
-3.483446
10
8.341010
20
-3.457576
10
8.357661
20
-3.431809
10
8.374471
20
-3.406144
10
8.391437
20
-3.380583
10
8.408560
20
-3.355126
10
8.425838
20
-3.329775
10
8.443272
20
-3.304530
10
8.460861
20
-3.279393
10
8.478603
20
-3.254364
10
8.496499
20
-3.229444
10
8.514547
20
-3.204635
10
8.532747
20
-3.179937
10
8.551099
20
-3.155351
10
8.569600
20
-3.130879
10
8.588252
20
-3.106520
10
8.607053
20
-3.082276
10
8.626002
20
-3.058148
10
8.645099
20
-3.034136
10
8.664343
20
-3.010243
10
8.683733
20
-2.986467
10
8.703268
20
-2.962812
10
8.722949
20
-2.939276
10
8.742773
20
-2.915862
10
8.762741
20
-2.892570
10
8.782851
20
-2.869400
10
8.803103
20
-2.846355
10
8.823496
20
-2.823434
10
8.844029
20
-2.800639
10
8.854220
20
-2.789464
10
6.800001
20
-0.500000
10
-0.500021
20
-0.500000
10
-0.502114
20
-0.520608
10
-0.505402
20
-0.551111
10
-0.508877
20
-0.581593
10
-0.512540
20
-0.612053
10
-0.516388
20
-0.642491
10
-0.520424
20
-0.672904
10
-0.524646
20
-0.703291
10
-0.529055
20
-0.733652
10
-0.533649
20
-0.763986
10
-0.538430
20
-0.794291
10
-0.543397
20
-0.824566
10
-0.548549
20
-0.854809
10
-0.553887
20
-0.885021
10
-0.559410
20
-0.915199
10
-0.565118
20
-0.945343
10
-0.571011
20
-0.975452
10
-0.577088
20
-1.005523
10
-0.583350
20
-1.035557
10
-0.589796
20
-1.065552
10
-0.596427
20
-1.095506
10
-0.603240
20
-1.125420
10
-0.610237
20
-1.155291
10
-0.617418
20
-1.185118
10
-0.624781
20
-1.214901
10
-0.632327
20
-1.244638
10
-0.640055
20
-1.274328
10
-0.647965
20
-1.303971
10
-0.656057
20
-1.333564
10
-0.664330
20
-1.363107
10
-0.672785
20
-1.392598
10
-0.681420
20
-1.422038
10
-0.690236
20
-1.451423
10
-0.699231
20
-1.480754
10
-0.708407
20
-1.510030
10
-0.717762
20
-1.539248
10
-0.727296
20
-1.568409
10
-0.737009
20
-1.597510
10
-0.746901
20
-1.626551
10
-0.756970
20
-1.655532
10
-0.767217
20
-1.684449
10
-0.777641
20
-1.713304
10
-0.788242
20
-1.742093
10
-0.799020
20
-1.770818
10
-0.809973
20
-1.799475
10
-0.821102
20
-1.828065
10
-0.832407
20
-1.856586
10
-0.843886
20
-1.885037
10
-0.855540
20
-1.913417
10
-0.867367
20
-1.941725
10
-0.879368
20
-1.969960
10
-0.891542
20
-1.998121
10
-0.903888
20
-2.026207
10
-0.916407
20
-2.054216
10
-0.929097
20
-2.082148
10
-0.941959
20
-2.110001
10
-0.954991
20
-2.137775
10
-0.968193
20
-2.165469
10
-0.981565
20
-2.193081
10
-0.995106
20
-2.220611
10
-1.008816
20
-2.248057
10
-1.022694
20
-2.275418
10
-1.036739
20
-2.302694
10
-1.050952
20
-2.329882
10
-1.065331
20
-2.356984
10
-1.079876
20
-2.383996
10
-1.094587
20
-2.410919
10
-1.109462
20
-2.437751
10
-1.124502
20
-2.464491
10
-1.139706
20
-2.491138
10
-1.155073
20
-2.517692
10
-1.170602
20
-2.544151
10
-1.186294
20
-2.570514
10
-1.202147
20
-2.596780
10
-1.218161
20
-2.622948
10
-1.234335
20
-2.649018
10
-1.250669
20
-2.674988
10
-1.267162
20
-2.700857
10
-1.283814
20
-2.726625
10
-1.300623
20
-2.752290
10
-1.317589
20
-2.777851
10
-1.334712
20
-2.803308
10
-1.351991
20
-2.828659
10
-1.369425
20
-2.853904
10
-1.387013
20
-2.879041
10
-1.404756
20
-2.904070
10
-1.422651
20
-2.928989
10
-1.440699
20
-2.953799
10
-1.458900
20
-2.978497
10
-1.477251
20
-3.003082
10
-1.495753
20
-3.027555
10
-1.514404
20
-3.051914
10
-1.533205
20
-3.076158
10
-1.552154
20
-3.100286
10
-1.571251
20
-3.124297
10
-1.590495
20
-3.148191
10
-1.609885
20
-3.171966
10
-1.629420
20
-3.195622
10
-1.649101
20
-3.219158
10
-1.668925
20
-3.242572
10
-1.688893
20
-3.265864
10
-1.709003
20
-3.289033
10
-1.729255
20
-3.312079
10
-1.749648
20
-3.335000
10
-1.770182
20
-3.357795
10
-1.790854
20
-3.380464
10
-1.811666
20
-3.403005
10
-1.832615
20
-3.425418
10
-1.853702
20
-3.447703
10
-1.874925
20
-3.469857
10
-1.896283
20
-3.491881
10
-1.917776
20
-3.513774
10
-1.939403
20
-3.535534
10
-1.961163
20
-3.557161
10
-1.983056
20
-3.578654
10
-2.005080
20
-3.600013
10
-2.027234
20
-3.621235
10
-2.049519
20
-3.642322
10
-2.071932
20
-3.663271
10
-2.094474
20
-3.684083
10
-2.117142
20
-3.704756
10
-2.139938
20
-3.725289
10
-2.162858
20
-3.745682
10
-2.185904
20
-3.765934
10
-2.209073
20
-3.786044
10
-2.232365
20
-3.806012
10
-2.255779
20
-3.825836
10
-2.279315
20
-3.845517
10
-2.302971
20
-3.865052
10
-2.326746
20
-3.884442
10
-2.350640
20
-3.903686
10
-2.374651
20
-3.922783
10
-2.398779
20
-3.941732
10
-2.423023
20
-3.960533
10
-2.447382
20
-3.979185
10
-2.471855
20
-3.997686
10
-2.496441
20
-4.016038
10
-2.521139
20
-4.034238
10
-2.545948
20
-4.052286
10
-2.570867
20
-4.070182
10
-2.595896
20
-4.087924
10
-2.621033
20
-4.105513
10
-2.646278
20
-4.122947
10
-2.671629
20
-4.140225
10
-2.697086
20
-4.157348
10
-2.722647
20
-4.174314
10
-2.748312
20
-4.191124
10
-2.774080
20
-4.207775
10
-2.799949
20
-4.224268
10
-2.825919
20
-4.240602
10
-2.851989
20
-4.256776
10
-2.878157
20
-4.272790
10
-2.904423
20
-4.288643
10
-2.930786
20
-4.304335
10
-2.957245
20
-4.319864
10
-2.983799
20
-4.335231
10
-3.010446
20
-4.350435
10
-3.037186
20
-4.365475
10
-3.064018
20
-4.380350
10
-3.090941
20
-4.395061
10
-3.117954
20
-4.409606
10
-3.145055
20
-4.423985
10
-3.172244
20
-4.438198
10
-3.199519
20
-4.452244
10
-3.226881
20
-4.466122
10
-3.254326
20
-4.479831
10
-3.281856
20
-4.493372
10
-3.309468
20
-4.506744
10
-3.337162
20
-4.519946
10
-3.364936
20
-4.532979
10
-3.392789
20
-4.545840
10
-3.420721
20
-4.558530
10
-3.448731
20
-4.571049
10
-3.476816
20
-4.583395
10
-3.504977
20
-4.595569
10
-3.533212
20
-4.607570
10
-3.561520
20
-4.619398
10
-3.589900
20
-4.631051
10
-3.618351
20
-4.642530
10
-3.646872
20
-4.653835
10
-3.675462
20
-4.664964
10
-3.704120
20
-4.675918
10
-3.732844
20
-4.686695
10
-3.761634
20
-4.697296
10
-3.790488
20
-4.707720
10
-3.819406
20
-4.717967
10
-3.848386
20
-4.728037
10
-3.877427
20
-4.737928
10
-3.906528
20
-4.747641
10
-3.935689
20
-4.757175
10
-3.964907
20
-4.766530
10
-3.994183
20
-4.775706
10
-4.023514
20
-4.784702
10
-4.052899
20
-4.793517
10
-4.082339
20
-4.802153
10
-4.111830
20
-4.810607
10
-4.141373
20
-4.818880
10
-4.170967
20
-4.826972
10
-4.200609
20
-4.834882
10
-4.230299
20
-4.842610
10
-4.260036
20
-4.850156
10
-4.289819
20
-4.857519
10
-4.319647
20
-4.864700
10
-4.349518
20
-4.871697
10
-4.379431
20
-4.878511
10
-4.409386
20
-4.885141
10
-4.439380
20
-4.891587
10
-4.469414
20
-4.897849
10
-4.499486
20
-4.903926
10
-4.529594
20
-4.909819
10
-4.559738
20
-4.915527
10
-4.589916
20
-4.921050
10
-4.620128
20
-4.926388
10
-4.650372
20
-4.931540
10
-4.680646
20
-4.936507
10
-4.710951
20
-4.941288
10
-4.741285
20
-4.945883
10
-4.771646
20
-4.950291
10
-4.802034
20
-4.954513
10
-4.832447
20
-4.958549
10
-4.862884
20
-4.962398
10
-4.893344
20
-4.966060
10
-4.923826
20
-4.969535
10
-4.954329
20
-4.972823
10
-4.984851
20
-4.975924
10
-5.015392
20
-4.978837
10
-5.045951
20
-4.981563
10
-5.076525
20
-4.984101
10
-5.107114
20
-4.986452
10
-5.137718
20
-4.988615
10
-5.168334
20
-4.990591
10
-5.198961
20
-4.992378
10
-5.229599
20
-4.993977
10
-5.260246
20
-4.995389
10
-5.290901
20
-4.996612
10
-5.321563
20
-4.997647
10
-5.352231
20
-4.998494
10
-5.382904
20
-4.999153
10
-5.413579
20
-4.999624
10
-5.444258
20
-4.999906
10
-5.474937
20
-5.000000
10
-5.474937
20
-0.500000
10
-5.474937
20
0.500000
10
-5.474937
20
5.000000
10
-5.444258
20
4.999906
10
-5.413579
20
4.999624
10
-5.382904
20
4.999153
10
-5.352231
20
4.998494
10
-5.321563
20
4.997647
10
-5.290901
20
4.996612
10
-5.260246
20
4.995389
10
-5.229599
20
4.993977
10
-5.198961
20
4.992378
10
-5.168334
20
4.990591
10
-5.137718
20
4.988615
10
-5.107114
20
4.986452
10
-5.076525
20
4.984101
10
-5.045951
20
4.981563
10
-5.015392
20
4.978837
10
-4.984851
20
4.975924
10
-4.954329
20
4.972823
10
-4.923826
20
4.969535
10
-4.893344
20
4.966060
10
-4.862884
20
4.962398
10
-4.832447
20
4.958549
10
-4.802034
20
4.954513
10
-4.771646
20
4.950291
10
-4.741285
20
4.945883
10
-4.710951
20
4.941288
10
-4.680646
20
4.936507
10
-4.650372
20
4.931540
10
-4.620128
20
4.926388
10
-4.589916
20
4.921050
10
-4.559738
20
4.915527
10
-4.529594
20
4.909819
10
-4.499486
20
4.903926
10
-4.469414
20
4.897849
10
-4.439380
20
4.891587
10
-4.409386
20
4.885141
10
-4.379431
20
4.878511
10
-4.349518
20
4.871697
10
-4.319647
20
4.864700
10
-4.289819
20
4.857519
10
-4.260036
20
4.850156
10
-4.230299
20
4.842610
10
-4.200609
20
4.834882
10
-4.170967
20
4.826972
10
-4.141373
20
4.818880
10
-4.111830
20
4.810607
10
-4.082339
20
4.802153
10
-4.052899
20
4.793517
10
-4.023514
20
4.784702
10
-3.994183
20
4.775706
10
-3.964907
20
4.766530
10
-3.935689
20
4.757175
10
-3.906528
20
4.747641
10
-3.877427
20
4.737928
10
-3.848386
20
4.728037
10
-3.819406
20
4.717967
10
-3.790488
20
4.707720
10
-3.761634
20
4.697296
10
-3.732844
20
4.686695
10
-3.704120
20
4.675918
10
-3.675462
20
4.664964
10
-3.646872
20
4.653835
10
-3.618351
20
4.642530
10
-3.589900
20
4.631051
10
-3.561520
20
4.619398
10
-3.533212
20
4.607570
10
-3.504977
20
4.595569
10
-3.476816
20
4.583395
10
-3.448731
20
4.571049
10
-3.420721
20
4.558530
10
-3.392789
20
4.545840
10
-3.364936
20
4.532979
10
-3.337162
20
4.519946
10
-3.309468
20
4.506744
10
-3.281856
20
4.493372
10
-3.254326
20
4.479831
10
-3.226881
20
4.466122
10
-3.199519
20
4.452244
10
-3.172244
20
4.438198
10
-3.145055
20
4.423985
10
-3.117954
20
4.409606
10
-3.090941
20
4.395061
10
-3.064018
20
4.380350
10
-3.037186
20
4.365475
10
-3.010446
20
4.350435
10
-2.983799
20
4.335231
10
-2.957245
20
4.319864
10
-2.930786
20
4.304335
10
-2.904423
20
4.288643
10
-2.878157
20
4.272790
10
-2.851989
20
4.256776
10
-2.825919
20
4.240602
10
-2.799949
20
4.224268
10
-2.774080
20
4.207775
10
-2.748312
20
4.191124
10
-2.722647
20
4.174314
10
-2.697086
20
4.157348
10
-2.671629
20
4.140225
10
-2.646278
20
4.122947
10
-2.621033
20
4.105513
10
-2.595896
20
4.087924
10
-2.570867
20
4.070182
10
-2.545948
20
4.052286
10
-2.521139
20
4.034238
10
-2.496441
20
4.016038
10
-2.471855
20
3.997686
10
-2.447382
20
3.979185
10
-2.423023
20
3.960533
10
-2.398779
20
3.941732
10
-2.374651
20
3.922783
10
-2.350640
20
3.903686
10
-2.326746
20
3.884442
10
-2.302971
20
3.865052
10
-2.279315
20
3.845517
10
-2.255779
20
3.825836
10
-2.232365
20
3.806012
10
-2.209073
20
3.786044
10
-2.185904
20
3.765934
10
-2.162858
20
3.745682
10
-2.139938
20
3.725289
10
-2.117142
20
3.704756
10
-2.094474
20
3.684083
10
-2.071932
20
3.663271
10
-2.049519
20
3.642322
10
-2.027234
20
3.621235
10
-2.005080
20
3.600013
10
-1.983056
20
3.578654
10
-1.961163
20
3.557161
10
-1.939403
20
3.535534
10
-1.917776
20
3.513774
10
-1.896283
20
3.491881
10
-1.874925
20
3.469857
10
-1.853702
20
3.447703
10
-1.832615
20
3.425418
10
-1.811666
20
3.403005
10
-1.790854
20
3.380464
10
-1.770182
20
3.357795
10
-1.749648
20
3.335000
10
-1.729255
20
3.312079
10
-1.709003
20
3.289033
10
-1.688893
20
3.265864
10
-1.668925
20
3.242572
10
-1.649101
20
3.219158
10
-1.629420
20
3.195622
10
-1.609885
20
3.171966
10
-1.590495
20
3.148191
10
-1.571251
20
3.124297
10
-1.552154
20
3.100286
10
-1.533205
20
3.076158
10
-1.514404
20
3.051914
10
-1.495753
20
3.027555
10
-1.477251
20
3.003082
10
-1.458900
20
2.978497
10
-1.440699
20
2.953799
10
-1.422651
20
2.928989
10
-1.404756
20
2.904070
10
-1.387013
20
2.879041
10
-1.369425
20
2.853904
10
-1.351991
20
2.828659
10
-1.334712
20
2.803308
10
-1.317589
20
2.777851
10
-1.300623
20
2.752290
10
-1.283814
20
2.726625
10
-1.267162
20
2.700857
10
-1.250669
20
2.674988
10
-1.234335
20
2.649018
10
-1.218161
20
2.622948
10
-1.202147
20
2.596780
10
-1.186294
20
2.570514
10
-1.170602
20
2.544151
10
-1.155073
20
2.517692
10
-1.139706
20
2.491138
10
-1.124502
20
2.464491
10
-1.109462
20
2.437751
10
-1.094587
20
2.410919
10
-1.079876
20
2.383996
10
-1.065331
20
2.356984
10
-1.050952
20
2.329882
10
-1.036739
20
2.302694
10
-1.022694
20
2.275418
10
-1.008816
20
2.248057
10
-0.995106
20
2.220611
10
-0.981565
20
2.193081
10
-0.968193
20
2.165469
10
-0.954991
20
2.137775
10
-0.941959
20
2.110001
10
-0.929097
20
2.082148
10
-0.916407
20
2.054216
10
-0.903888
20
2.026207
10
-0.891542
20
1.998121
10
-0.879368
20
1.969960
10
-0.867367
20
1.941725
10
-0.855540
20
1.913417
10
-0.843886
20
1.885037
10
-0.832407
20
1.856586
10
-0.821102
20
1.828065
10
-0.809973
20
1.799475
10
-0.799020
20
1.770818
10
-0.788242
20
1.742093
10
-0.777641
20
1.713304
10
-0.767217
20
1.684449
10
-0.756970
20
1.655532
10
-0.746901
20
1.626551
10
-0.737009
20
1.597510
10
-0.727296
20
1.568409
10
-0.717762
20
1.539248
10
-0.708407
20
1.510030
10
-0.699231
20
1.480754
10
-0.690236
20
1.451423
10
-0.681420
20
1.422038
10
-0.672785
20
1.392598
10
-0.664330
20
1.363107
10
-0.656057
20
1.333564
10
-0.647965
20
1.303971
10
-0.640055
20
1.274328
10
-0.632327
20
1.244638
10
-0.624781
20
1.214901
10
-0.617418
20
1.185118
10
-0.610237
20
1.155291
10
-0.603240
20
1.125420
10
-0.596427
20
1.095506
10
-0.589796
20
1.065552
10
-0.583350
20
1.035557
10
-0.577088
20
1.005523
10
-0.571011
20
0.975452
10
-0.565118
20
0.945343
10
-0.559410
20
0.915199
10
-0.553887
20
0.885021
10
-0.548549
20
0.854809
10
-0.543397
20
0.824566
10
-0.538430
20
0.794291
10
-0.533649
20
0.763986
10
-0.529055
20
0.733652
10
-0.524646
20
0.703291
10
-0.520424
20
0.672904
10
-0.516388
20
0.642491
10
-0.512540
20
0.612053
10
-0.508877
20
0.581593
10
-0.505402
20
0.551111
10
-0.502114
20
0.520608
10
-0.500021
20
0.500000
10
1.600000
20
0.500000
10
1.238974
20
0.620046
10
1.204912
20
0.631662
10
1.171033
20
0.643798
10
1.137343
20
0.656452
10
1.103851
20
0.669621
10
1.070564
20
0.683300
10
1.037491
20
0.697488
10
1.004639
20
0.712181
10
0.972016
20
0.727375
10
0.939629
20
0.743067
10
0.907486
20
0.759253
10
0.875595
20
0.775929
10
0.843963
20
0.793091
10
0.812598
20
0.810737
10
0.781507
20
0.828860
10
0.750696
20
0.847457
10
0.720174
20
0.866524
10
0.689948
20
0.886056
10
0.660025
20
0.906049
10
0.630411
20
0.926497
10
0.601113
20
0.947397
10
0.572139
20
0.968743
10
0.543496
20
0.990530
10
0.515189
20
1.012753
10
0.487226
20
1.035407
10
0.459613
20
1.058486
10
0.432357
20
1.081986
10
0.405464
20
1.105900
10
0.378940
20
1.130224
10
0.352792
20
1.154950
10
0.327026
20
1.180074
10
0.301647
20
1.205590
10
0.276662
20
1.231492
10
0.252077
20
1.257773
10
0.227897
20
1.284427
10
0.204128
20
1.311449
10
0.180776
20
1.338831
10
0.157845
20
1.366568
10
0.135342
20
1.394653
10
0.113272
20
1.423079
10
0.091640
20
1.451839
10
0.070450
20
1.480928
10
0.049709
20
1.510337
10
0.029420
20
1.540061
10
0.009589
20
1.570092
10
-0.009779
20
1.600423
10
-0.028682
20
1.631047
10
-0.047112
20
1.661958
10
-0.065068
20
1.693146
10
-0.082544
20
1.724606
10
-0.099535
20
1.756330
10
-0.116040
20
1.788311
10
-0.132052
20
1.820540
10
-0.147569
20
1.853011
10
-0.162587
20
1.885715
10
-0.177102
20
1.918646
10
-0.191112
20
1.951795
10
-0.204612
20
1.985155
10
-0.217599
20
2.018718
10
-0.230071
20
2.052475
10
-0.242025
20
2.086420
10
-0.253458
20
2.120544
10
-0.264366
20
2.154839
10
-0.274748
20
2.189296
10
-0.284602
20
2.223909
10
-0.293924
20
2.258669
10
-0.302713
20
2.293567
10
-0.310966
20
2.328596
10
-0.318682
20
2.363747
10
-0.325858
20
2.399012
10
-0.332494
20
2.434383
10
-0.338587
20
2.469851
10
-0.344137
20
2.505409
10
-0.349141
20
2.541047
10
-0.353599
20
2.576758
10
-0.357510
20
2.612532
10
-0.360872
20
2.648363
10
-0.363685
20
2.684241
10
-0.365949
20
2.720157
10
-0.367662
20
2.756105
10
-0.368825
20
2.792074
10
-0.369436
20
2.828056
10
-0.369497
20
2.864044
10
-0.369006
20
2.900029
10
-0.367965
20
2.936002
10
-0.366372
20
2.971954
10
-0.364229
20
3.007879
10
-0.361537
20
3.043766
10
-0.358295
20
3.079607
10
-0.354505
20
3.115395
10
-0.350167
20
3.151121
10
-0.345282
20
3.186775
10
-0.339852
20
3.222351
10
-0.333878
20
3.257840
10
-0.327361
20
3.293233
10
-0.320303
20
3.328522
10
-0.312705
20
3.363699
10
-0.304570
20
3.398755
10
-0.295899
20
3.433683
10
-0.286694
20
3.468473
10
-0.276957
20
3.503119
10
-0.266690
20
3.537612
10
-0.255897
20
3.571943
10
-0.244579
20
3.606105
10
-0.232740
20
3.640089
10
-0.220381
20
3.673889
10
-0.207506
20
3.707495
10
-0.194119
20
3.740900
10
-0.180221
20
3.774096
10
-0.165816
20
3.807075
10
-0.150908
20
3.839830
10
-0.135500
20
3.872353
10
-0.119596
20
3.904636
10
-0.103200
20
3.936672
10
-0.086315
20
3.968453
10
-0.068945
20
3.999971
10
-0.051095
20
4.031220
10
-0.032768
20
4.062192
10
-0.013969
20
4.092880
10
0.005298
20
4.123276
10
0.025028
20
4.153373
10
0.045217
20
4.183165
10
0.065859
20
4.212644
10
0.086951
20
4.241804
10
0.108486
20
4.270637
10
0.130461
20
4.299137
10
0.152869
20
4.327297
10
0.175706
20
4.355111
10
0.198966
20
4.382572
10
0.222644
20
4.409673
10
0.246735
20
4.436408
10
0.271231
20
4.462772
10
0.296129
20
4.488757
10
0.321422
20
4.514358
10
0.347104
20
4.539569
10
0.373169
20
4.564383
10
0.399610
20
4.588796
10
0.426423
20
4.612800
10
0.453600
20
4.636391
10
0.481135
20
4.659564
10
0.509022
20
4.682311
10
0.537253
20
4.704630
10
0.565824
20
4.726513
10
0.594725
20
4.747956
10
0.623952
20
4.768954
10
0.653498
20
4.789502
10
0.683354
20
4.809595
10
0.713514
20
4.829228
10
0.743972
20
4.848398
10
0.774719
20
4.867099
10
0.805750
20
4.885326
10
0.837056
20
4.903077
10
0.868630
20
4.920346
10
0.900464
20
4.937129
10
0.932552
20
4.953423
10
0.964886
20
4.969223
10
0.997458
20
4.984527
10
1.030261
20
4.999330
10
1.063286
20
5.013629
10
1.096526
20
5.027420
10
1.129974
20
5.040701
10
1.163621
20
5.053468
10
1.197460
20
5.065719
10
1.231482
20
5.077449
10
1.265680
20
5.088658
10
1.300046
20
5.099341
10
1.334571
20
5.109497
10
1.369248
20
5.119123
10
1.404068
20
5.128217
10
1.439023
20
5.136776
10
1.474105
20
5.144799
10
1.509306
20
5.152284
10
1.544618
20
5.159229
10
1.580031
20
5.165633
10
1.615539
20
5.171493
10
1.651132
20
5.176809
10
1.686802
20
5.181580
10
1.722541
20
5.185803
10
1.758341
20
5.189479
10
1.794193
20
5.192606
10
1.830088
20
5.195184
10
1.866019
20
5.197212
10
1.901977
20
5.198689
10
1.937953
20
5.199616
10
1.973939
20
5.199991
10
2.009926
20
5.199815
10
2.045907
20
5.199089
10
2.081872
20
5.197811
10
2.117814
20
5.195983
10
2.153723
20
5.193604
10
2.189591
20
5.190676
10
2.225411
20
5.187199
10
2.261173
20
5.183174
10
2.296869
20
5.178602
10
2.332492
20
5.173483
10
2.368031
20
5.167820
10
2.403480
20
5.161613
10
2.438829
20
5.154864
10
2.474071
20
5.147575
10
2.509197
20
5.139746
10
2.544199
20
5.131381
10
2.579069
20
5.122481
10
2.613799
20
5.113047
10
2.648380
20
5.103083
10
2.682804
20
5.092591
10
2.717064
20
5.081573
10
2.751151
20
5.070031
10
2.785057
20
5.057969
10
2.818775
20
5.045388
10
2.852296
20
5.032293
10
2.885612
20
5.018687
10
2.918716
20
5.004571
10
2.951601
20
4.989951
10
2.984257
20
4.974828
10
3.016678
20
4.959207
10
3.048856
20
4.943092
10
3.080783
20
4.926485
10
3.112453
20
4.909392
10
3.143857
20
4.891816
10
3.174988
20
4.873761
10
3.205838
20
4.855231
10
3.236402
20
4.836231
10
3.266671
20
4.816765
10
3.296638
20
4.796838
10
3.326297
20
4.776454
10
3.355640
20
4.755619
10
3.384661
20
4.734336
10
3.413352
20
4.712612
10
3.441707
20
4.690451
10
3.469720
20
4.667858
10
3.497383
20
4.644839
10
3.524690
20
4.621399
10
3.551636
20
4.597544
10
3.578213
20
4.573279
10
3.604415
20
4.548610
10
3.630236
20
4.523542
10
3.655671
20
4.498082
10
3.680712
20
4.472235
10
3.705355
20
4.446008
10
3.729593
20
4.419407
10
7.246276
20
0.500000
10
8.143524
20
-0.500000
10
9.598523
20
-2.121623
10
9.619796
20
-2.106148
10
9.644715
20
-2.088252
10
9.669744
20
-2.070510
10
9.694881
20
-2.052921
10
9.720126
20
-2.035487
10
9.745477
20
-2.018209
10
9.770934
20
-2.001086
10
9.796495
20
-1.984119
10
9.822160
20
-1.967310
10
9.847928
20
-1.950659
10
9.873797
20
-1.934166
10
9.899767
20
-1.917832
10
9.925836
20
-1.901658
10
9.952005
20
-1.885644
10
9.978271
20
-1.869791
10
10.004634
20
-1.854099
10
10.031093
20
-1.838569
10
10.057647
20
-1.823203
10
10.084294
20
-1.807999
10
10.111034
20
-1.792959
10
10.137866
20
-1.778083
10
10.164789
20
-1.763373
10
10.191801
20
-1.748827
10
10.218902
20
-1.734448
10
10.246091
20
-1.720236
10
10.273367
20
-1.706190
10
10.300728
20
-1.692312
10
10.328174
20
-1.678602
10
10.355704
20
-1.665061
10
10.383316
20
-1.651689
10
10.411009
20
-1.638487
10
10.438784
20
-1.625455
10
10.466637
20
-1.612594
10
10.494569
20
-1.599904
10
10.522578
20
-1.587385
10
10.550664
20
-1.575038
10
10.578825
20
-1.562864
10
10.607060
20
-1.550864
10
10.635368
20
-1.539036
10
10.663748
20
-1.527383
10
10.692199
20
-1.515903
10
10.720720
20
-1.504599
10
10.749310
20
-1.493470
10
10.777967
20
-1.482516
10
10.806691
20
-1.471739
10
10.835481
20
-1.461138
10
10.864336
20
-1.450713
10
10.893253
20
-1.440466
10
10.922233
20
-1.430397
10
10.951275
20
-1.420506
10
10.980376
20
-1.410793
10
11.009537
20
-1.401259
10
11.038755
20
-1.391904
10
11.068030
20
-1.382728
10
11.097362
20
-1.373732
10
11.126747
20
-1.364916
10
11.156186
20
-1.356281
10
11.185678
20
-1.347827
10
11.215221
20
-1.339553
10
11.244814
20
-1.331462
10
11.274457
20
-1.323551
10
11.304147
20
-1.315823
10
11.333884
20
-1.308277
10
11.363667
20
-1.300914
10
11.393494
20
-1.293734
10
11.423365
20
-1.286737
10
11.453279
20
-1.279923
10
11.483233
20
-1.273293
10
11.513228
20
-1.266847
10
11.543262
20
-1.260585
10
11.573333
20
-1.254507
10
11.603442
20
-1.248614
10
11.633585
20
-1.242906
10
11.663764
20
-1.237383
10
11.693975
20
-1.232046
10
11.724219
20
-1.226893
10
11.754494
20
-1.221927
10
11.784799
20
-1.217146
10
11.815133
20
-1.212551
10
11.845494
20
-1.208143
10
11.875881
20
-1.203921
10
11.906294
20
-1.199885
10
11.936732
20
-1.196036
10
11.967192
20
-1.192374
10
11.997674
20
-1.188899
10
12.028177
20
-1.185611
10
12.058699
20
-1.182510
10
12.089240
20
-1.179597
10
12.119798
20
-1.176871
10
12.150373
20
-1.174332
10
12.180962
20
-1.171981
10
12.211565
20
-1.169818
10
12.242181
20
-1.167843
10
12.272809
20
-1.166056
10
12.303447
20
-1.164456
10
12.334094
20
-1.163045
10
12.364749
20
-1.161822
10
12.395411
20
-1.160787
10
12.426079
20
-1.159940
10
12.456751
20
-1.159281
10
12.487427
20
-1.158810
10
12.518105
20
-1.158528
10
12.548785
20
-1.158434
10
12.579464
20
-1.158528
10
12.610143
20
-1.158810
10
12.640819
20
-1.159281
10
12.671491
20
-1.159940
10
12.702159
20
-1.160787
10
12.732821
20
-1.161822
10
12.763476
20
-1.163045
10
12.794123
20
-1.164456
10
12.824761
20
-1.166056
10
12.855389
20
-1.167843
10
12.886004
20
-1.169818
10
12.916608
20
-1.171981
10
12.947197
20
-1.174332
10
12.977771
20
-1.176871
10
13.008330
20
-1.179597
10
13.038871
20
-1.182510
10
13.069393
20
-1.185611
10
13.099896
20
-1.188899
10
13.130378
20
-1.192374
10
13.160838
20
-1.196036
10
13.191275
20
-1.199885
10
13.221688
20
-1.203921
10
13.252076
20
-1.208143
10
13.282437
20
-1.212551
10
13.312771
20
-1.217146
10
13.343076
20
-1.221927
10
13.373351
20
-1.226893
10
13.403594
20
-1.232046
10
13.433806
20
-1.237383
10
13.463984
20
-1.242906
10
13.494128
20
-1.248614
10
13.524237
20
-1.254507
10
13.554308
20
-1.260585
10
13.584342
20
-1.266847
10
13.614336
20
-1.273293
10
13.644291
20
-1.279923
10
13.674204
20
-1.286737
10
13.704075
20
-1.293734
10
13.733903
20
-1.300914
10
13.763686
20
-1.308277
10
13.793423
20
-1.315823
10
13.823113
20
-1.323551
10
13.852755
20
-1.331462
10
13.882349
20
-1.339553
10
13.911892
20
-1.347827
10
13.941383
20
-1.356281
10
13.970823
20
-1.364916
10
14.000208
20
-1.373732
10
14.029539
20
-1.382728
10
14.058815
20
-1.391904
10
14.088033
20
-1.401259
10
14.117194
20
-1.410793
10
14.146295
20
-1.420506
10
14.175336
20
-1.430397
10
14.204316
20
-1.440466
10
14.233234
20
-1.450713
10
14.262088
20
-1.461138
10
14.290878
20
-1.471739
10
14.319603
20
-1.482516
10
14.348260
20
-1.493470
10
14.376850
20
-1.504599
10
14.405371
20
-1.515903
10
14.433822
20
-1.527383
10
14.462202
20
-1.539036
10
14.490510
20
-1.550864
10
14.518745
20
-1.562864
10
14.546906
20
-1.575038
10
14.574991
20
-1.587385
10
14.603001
20
-1.599904
10
14.630933
20
-1.612594
10
14.658786
20
-1.625455
10
14.686560
20
-1.638487
10
14.714254
20
-1.651689
10
14.741866
20
-1.665061
10
14.769396
20
-1.678602
10
14.796842
20
-1.692312
10
14.824203
20
-1.706190
10
14.851478
20
-1.720236
10
14.878667
20
-1.734448
10
14.905769
20
-1.748827
10
14.932781
20
-1.763373
10
14.959704
20
-1.778083
10
14.986536
20
-1.792959
10
15.013276
20
-1.807999
10
15.039923
20
-1.823203
10
15.066477
20
-1.838569
10
15.092936
20
-1.854099
10
15.119299
20
-1.869791
10
15.145565
20
-1.885644
10
15.171733
20
-1.901658
10
15.197803
20
-1.917832
10
15.223773
20
-1.934166
10
15.249642
20
-1.950659
10
15.275410
20
-1.967310
10
15.301075
20
-1.984119
10
15.326636
20
-2.001086
10
15.352093
20
-2.018209
10
15.377444
20
-2.035487
10
15.402689
20
-2.052921
10
15.427826
20
-2.070510
10
15.452855
20
-2.088252
10
15.477774
20
-2.106148
10
15.502583
20
-2.124196
10
15.527281
20
-2.142396
10
15.551867
20
-2.160747
10
15.576340
20
-2.179249
10
15.600699
20
-2.197901
10
15.624943
20
-2.216702
10
15.649071
20
-2.235651
10
15.673082
20
-2.254748
10
15.696976
20
-2.273991
10
15.720751
20
-2.293381
10
15.744407
20
-2.312917
10
15.767943
20
-2.332597
10
15.791357
20
-2.352422
10
15.814649
20
-2.372390
10
15.837818
20
-2.392500
10
15.860864
20
-2.412752
10
15.883785
20
-2.433145
10
15.906580
20
-2.453678
10
15.929248
20
-2.474351
10
15.951790
20
-2.495162
10
15.974203
20
-2.516112
10
15.996488
20
-2.537198
10
16.018642
20
-2.558421
10
16.040666
20
-2.579780
10
16.062559
20
-2.601273
10
16.084319
20
-2.622900
10
16.105946
20
-2.644660
10
16.127439
20
-2.666552
10
16.148797
20
-2.688576
10
16.170020
20
-2.710731
10
16.191107
20
-2.733015
10
16.212056
20
-2.755429
10
16.232868
20
-2.777970
10
16.253541
20
-2.800639
10
16.270332
20
-2.819280
10
8.827238
20
-9.497587
10
8.823496
20
-9.493433
10
8.803103
20
-9.470513
10
8.782851
20
-9.447467
10
8.762741
20
-9.424298
0
LWPOLYLINE
8
0
100
AcDbEntity
100
AcDbPolyline
90
243
70
1
10
5.902752
20
0.500000
10
2.985282
20
3.751574
10
2.971358
20
3.766856
10
2.957201
20
3.781922
10
2.942816
20
3.796770
10
2.928204
20
3.811396
10
2.913371
20
3.825797
10
2.898318
20
3.839969
10
2.883051
20
3.853908
10
2.867572
20
3.867612
10
2.851884
20
3.881078
10
2.835993
20
3.894302
10
2.819900
20
3.907280
10
2.803611
20
3.920011
10
2.787129
20
3.932491
10
2.770458
20
3.944717
10
2.753601
20
3.956686
10
2.736563
20
3.968396
10
2.719348
20
3.979844
10
2.701959
20
3.991026
10
2.684401
20
4.001941
10
2.666678
20
4.012586
10
2.648795
20
4.022958
10
2.630754
20
4.033055
10
2.612561
20
4.042875
10
2.594220
20
4.052414
10
2.575735
20
4.061672
10
2.557110
20
4.070646
10
2.538350
20
4.079333
10
2.519459
20
4.087732
10
2.500442
20
4.095841
10
2.481302
20
4.103658
10
2.462046
20
4.111181
10
2.442676
20
4.118407
10
2.423198
20
4.125337
10
2.403616
20
4.131967
10
2.383935
20
4.138297
10
2.364159
20
4.144324
10
2.344294
20
4.150048
10
2.324343
20
4.155468
10
2.304311
20
4.160581
10
2.284203
20
4.165386
10
2.264024
20
4.169883
10
2.243779
20
4.174071
10
2.223472
20
4.177948
10
2.203108
20
4.181514
10
2.182691
20
4.184767
10
2.162228
20
4.187707
10
2.141721
20
4.190334
10
2.121177
20
4.192646
10
2.100600
20
4.194644
10
2.079995
20
4.196326
10
2.059366
20
4.197692
10
2.038719
20
4.198742
10
2.018058
20
4.199476
10
1.997388
20
4.199894
10
1.976714
20
4.199995
10
1.956042
20
4.199779
10
1.935374
20
4.199247
10
1.914718
20
4.198398
10
1.894077
20
4.197233
10
1.873456
20
4.195753
10
1.852860
20
4.193956
10
1.832295
20
4.191844
10
1.811764
20
4.189418
10
1.791272
20
4.186678
10
1.770825
20
4.183624
10
1.750427
20
4.180257
10
1.730083
20
4.176579
10
1.709798
20
4.172589
10
1.689576
20
4.168289
10
1.669422
20
4.163680
10
1.649342
20
4.158763
10
1.629339
20
4.153539
10
1.609418
20
4.148009
10
1.589584
20
4.142175
10
1.569842
20
4.136037
10
1.550197
20
4.129599
10
1.530652
20
4.122860
10
1.511213
20
4.115822
10
1.491883
20
4.108488
10
1.472669
20
4.100858
10
1.453573
20
4.092936
10
1.434601
20
4.084721
10
1.415757
20
4.076218
10
1.397046
20
4.067426
10
1.378471
20
4.058349
10
1.360038
20
4.048989
10
1.341749
20
4.039347
10
1.323611
20
4.029427
10
1.305627
20
4.019230
10
1.287801
20
4.008759
10
1.270138
20
3.998016
10
1.252641
20
3.987004
10
1.235314
20
3.975725
10
1.218163
20
3.964182
10
1.201190
20
3.952378
10
1.184400
20
3.940315
10
1.167797
20
3.927997
10
1.151384
20
3.915425
10
1.135166
20
3.902604
10
1.119146
20
3.889537
10
1.103328
20
3.876225
10
1.087716
20
3.862672
10
1.072313
20
3.848883
10
1.057123
20
3.834858
10
1.042149
20
3.820603
10
1.027396
20
3.806121
10
1.012866
20
3.791414
10
0.998563
20
3.776486
10
0.984491
20
3.761341
10
0.970652
20
3.745982
10
0.957049
20
3.730413
10
0.943687
20
3.714638
10
0.930568
20
3.698660
10
0.917695
20
3.682483
10
0.905071
20
3.666111
10
0.892700
20
3.649547
10
0.880583
20
3.632796
10
0.868725
20
3.615861
10
0.857127
20
3.598746
10
0.845793
20
3.581456
10
0.834725
20
3.563995
10
0.823926
20
3.546366
10
0.813397
20
3.528573
10
0.803143
20
3.510622
10
0.793164
20
3.492515
10
0.783464
20
3.474258
10
0.774045
20
3.455855
10
0.764909
20
3.437309
10
0.756058
20
3.418626
10
0.747493
20
3.399809
10
0.739218
20
3.380864
10
0.731235
20
3.361794
10
0.723544
20
3.342603
10
0.716148
20
3.323298
10
0.709048
20
3.303881
10
0.702246
20
3.284358
10
0.695745
20
3.264733
10
0.689544
20
3.245011
10
0.683647
20
3.225196
10
0.678053
20
3.205293
10
0.672765
20
3.185307
10
0.667784
20
3.165242
10
0.663110
20
3.145104
10
0.658746
20
3.124896
10
0.654691
20
3.104623
10
0.650947
20
3.084291
10
0.647515
20
3.063904
10
0.644396
20
3.043467
10
0.641590
20
3.022984
10
0.639098
20
3.002461
10
0.636920
20
2.981902
10
0.635058
20
2.961312
10
0.633511
20
2.940696
10
0.632280
20
2.920059
10
0.631366
20
2.899405
10
0.630767
20
2.878740
10
0.630485
20
2.858068
10
0.630520
20
2.837394
10
0.630871
20
2.816723
10
0.631539
20
2.796060
10
0.632523
20
2.775410
10
0.633824
20
2.754777
10
0.635440
20
2.734166
10
0.637371
20
2.713582
10
0.639618
20
2.693031
10
0.642179
20
2.672516
10
0.645054
20
2.652043
10
0.648242
20
2.631617
10
0.651742
20
2.611241
10
0.655554
20
2.590922
10
0.659677
20
2.570663
10
0.664110
20
2.550470
10
0.668851
20
2.530347
10
0.673900
20
2.510299
10
0.679255
20
2.490331
10
0.684915
20
2.470447
10
0.690879
20
2.450652
10
0.697146
20
2.430951
10
0.703714
20
2.411348
10
0.710581
20
2.391848
10
0.717746
20
2.372455
10
0.725207
20
2.353174
10
0.732962
20
2.334010
10
0.741010
20
2.314967
10
0.749349
20
2.296049
10
0.757976
20
2.277261
10
0.766890
20
2.258608
10
0.776088
20
2.240093
10
0.785570
20
2.221722
10
0.795331
20
2.203497
10
0.805370
20
2.185424
10
0.815685
20
2.167508
10
0.826273
20
2.149751
10
0.837131
20
2.132158
10
0.848258
20
2.114734
10
0.859651
20
2.097482
10
0.871306
20
2.080407
10
0.883221
20
2.063512
10
0.895394
20
2.046801
10
0.907821
20
2.030279
10
0.920499
20
2.013949
10
0.933427
20
1.997816
10
0.946599
20
1.981882
10
0.960014
20
1.966151
10
0.973669
20
1.950628
10
0.987560
20
1.935316
10
1.001683
20
1.920219
10
1.016036
20
1.905339
10
1.030615
20
1.890681
10
1.045417
20
1.876248
10
1.060439
20
1.862043
10
1.075676
20
1.848070
10
1.091125
20
1.834332
10
1.106783
20
1.820833
10
1.122645
20
1.807574
10
1.138709
20
1.794560
10
1.154970
20
1.781794
10
1.171425
20
1.769278
10
1.188070
20
1.757015
10
1.204900
20
1.745009
10
1.221912
20
1.733262
10
1.239103
20
1.721777
10
1.256467
20
1.710556
10
1.274001
20
1.699603
10
1.291700
20
1.688919
10
1.309561
20
1.678508
10
1.327579
20
1.668372
10
1.345751
20
1.658512
10
1.364071
20
1.648932
10
1.382536
20
1.639634
10
1.401141
20
1.630620
10
1.419882
20
1.621891
10
1.438755
20
1.613451
10
1.457754
20
1.605300
10
1.476876
20
1.597442
10
1.496117
20
1.589877
10
1.515470
20
1.582608
10
1.534933
20
1.575636
10
1.554500
20
1.568962
10
4.769306
20
0.500000
10
5.902752
20
0.500000
0
ENDSEC
0
EOF
