999
gamboa 4-stage, w_v=1.0mm
0
SECTION
2
HEADER
9
$INSUNITS
70
4
0
ENDSEC
0
SECTION
2
ENTITIES
0
LWPOLYLINE
8
0
100
AcDbEntity
100
AcDbPolyline
90
1038
70
1
10
39.807953
20
-0.378377
10
39.805384
20
-0.430672
10
39.801106
20
-0.482854
10
39.795122
20
-0.534869
10
39.787439
20
-0.586660
10
39.778066
20
-0.638171
10
39.767013
20
-0.689349
10
39.754291
20
-0.740137
10
39.739915
20
-0.790482
10
39.723898
20
-0.840330
10
39.706260
20
-0.889627
10
39.687017
20
-0.938320
10
39.666192
20
-0.986358
10
39.643806
20
-1.033689
10
39.619884
20
-1.080262
10
39.594451
20
-1.126027
10
39.567534
20
-1.170936
10
39.539161
20
-1.214939
10
39.509365
20
-1.257991
10
39.478175
20
-1.300045
10
39.445627
20
-1.341056
10
39.411754
20
-1.380980
10
39.376593
20
-1.419775
10
39.340181
20
-1.457398
10
39.302558
20
-1.493809
10
39.263763
20
-1.528971
10
39.223839
20
-1.562844
10
39.182828
20
-1.595392
10
39.140774
20
-1.626582
10
39.097722
20
-1.656378
10
39.053719
20
-1.684750
10
39.008810
20
-1.711668
10
38.963045
20
-1.737101
10
38.916472
20
-1.761023
10
38.869141
20
-1.783409
10
38.821104
20
-1.804234
10
38.772410
20
-1.823476
10
38.723113
20
-1.841115
10
38.673266
20
-1.857132
10
38.622921
20
-1.871508
10
38.572132
20
-1.884230
10
38.520955
20
-1.895283
10
38.469443
20
-1.904656
10
38.417652
20
-1.912339
10
38.365637
20
-1.918323
10
38.313455
20
-1.922601
10
38.261161
20
-1.925170
10
38.208810
20
-1.926027
10
38.156459
20
-1.925170
10
38.104165
20
-1.922601
10
38.051983
20
-1.918323
10
37.999968
20
-1.912339
10
37.948177
20
-1.904656
10
37.896666
20
-1.895283
10
37.845488
20
-1.884230
10
37.794700
20
-1.871508
10
37.744355
20
-1.857132
10
37.694507
20
-1.841115
10
37.645210
20
-1.823476
10
37.596517
20
-1.804234
10
37.548479
20
-1.783409
10
37.501148
20
-1.761023
10
37.454575
20
-1.737101
10
37.408810
20
-1.711668
10
37.363901
20
-1.684750
10
37.319898
20
-1.656378
10
37.276846
20
-1.626582
10
37.234792
20
-1.595392
10
37.193781
20
-1.562844
10
37.153857
20
-1.528971
10
37.115062
20
-1.493809
10
37.077439
20
-1.457398
10
37.041028
20
-1.419775
10
37.024853
20
-1.401928
10
36.762712
20
-1.518915
10
35.949578
20
-1.881796
10
35.130219
20
-2.247456
10
31.140888
20
-4.027793
10
31.096810
20
-4.046926
10
31.052351
20
-4.065153
10
31.007529
20
-4.082468
10
30.962361
20
-4.098862
10
30.916869
20
-4.114330
10
30.871069
20
-4.128864
10
30.824982
20
-4.142459
10
30.778626
20
-4.155109
10
30.732021
20
-4.166808
10
30.685187
20
-4.177552
10
30.638143
20
-4.187336
10
30.590909
20
-4.196156
10
30.543505
20
-4.204008
10
30.495950
20
-4.210890
10
30.448264
20
-4.216798
10
30.400467
20
-4.221730
10
30.352579
20
-4.225683
10
30.304621
20
-4.228657
10
30.256611
20
-4.230649
10
30.208572
20
-4.231659
10
30.160521
20
-4.231687
10
30.112480
20
-4.230733
10
30.064468
20
-4.228796
10
30.016507
20
-4.225878
10
29.968614
20
-4.221980
10
29.920812
20
-4.217104
10
29.873119
20
-4.211251
10
29.825556
20
-4.204425
10
29.778142
20
-4.196627
10
29.730898
20
-4.187862
10
29.683843
20
-4.178132
10
29.636996
20
-4.167443
10
29.590378
20
-4.155798
10
29.544008
20
-4.143202
10
29.497905
20
-4.129661
10
29.452088
20
-4.115180
10
29.406578
20
-4.099765
10
29.361391
20
-4.083423
10
29.316549
20
-4.066160
10
29.272068
20
-4.047984
10
29.227969
20
-4.028903
10
29.184269
20
-4.008924
10
29.140987
20
-3.988055
10
29.098140
20
-3.966306
10
29.055747
20
-3.943686
10
29.013825
20
-3.920203
10
28.972393
20
-3.895868
10
28.931466
20
-3.870692
10
28.891063
20
-3.844683
10
28.851200
20
-3.817854
10
28.811894
20
-3.790216
10
28.773161
20
-3.761780
10
28.735017
20
-3.732557
10
28.697480
20
-3.702561
10
28.660563
20
-3.671804
10
28.624283
20
-3.640298
10
28.588654
20
-3.608057
10
28.553693
20
-3.575095
10
28.519412
20
-3.541424
10
28.485827
20
-3.507060
10
28.452952
20
-3.472016
10
28.420800
20
-3.436307
10
28.389385
20
-3.399949
10
28.358720
20
-3.362956
10
28.328817
20
-3.325343
10
28.299690
20
-3.287127
10
28.271351
20
-3.248323
10
28.243810
20
-3.208948
10
28.217081
20
-3.169019
10
28.191173
20
-3.128551
10
28.166099
20
-3.087561
10
28.141867
20
-3.046068
10
28.118489
20
-3.004088
10
28.095975
20
-2.961639
10
28.074332
20
-2.918738
10
28.053572
20
-2.875404
10
28.033702
20
-2.831654
10
28.014730
20
-2.787507
10
27.996666
20
-2.742982
10
27.979515
20
-2.698096
10
27.963286
20
-2.652869
10
27.947984
20
-2.607320
10
27.933617
20
-2.561468
10
27.920191
20
-2.515331
10
27.907711
20
-2.468930
10
27.896182
20
-2.422283
10
27.885609
20
-2.375410
10
27.875997
20
-2.328330
10
27.867350
20
-2.281064
10
27.859670
20
-2.233631
10
27.852963
20
-2.186051
10
27.847229
20
-2.138344
10
27.842472
20
-2.090530
10
27.838693
20
-2.042628
10
27.835895
20
-1.994659
10
27.834078
20
-1.946643
10
27.833243
20
-1.898599
10
27.833391
20
-1.850549
10
27.834521
20
-1.802512
10
27.836633
20
-1.754508
10
27.839726
20
-1.706557
10
27.843799
20
-1.658679
10
27.848850
20
-1.610895
10
27.854877
20
-1.563224
10
27.861877
20
-1.515686
10
27.869848
20
-1.468301
10
27.878786
20
-1.421089
10
27.888687
20
-1.374070
10
27.899548
20
-1.327263
10
27.911363
20
-1.280687
10
27.924128
20
-1.234363
10
27.937838
20
-1.188310
10
27.952486
20
-1.142547
10
27.968067
20
-1.097093
10
27.984574
20
-1.051966
10
28.002001
20
-1.007187
10
28.020339
20
-0.962774
10
28.039581
20
-0.918744
10
28.059720
20
-0.875117
10
28.080746
20
-0.831912
10
28.102652
20
-0.789145
10
28.125427
20
-0.746835
10
28.149062
20
-0.704999
10
28.173548
20
-0.663655
10
28.198875
20
-0.622821
10
28.225030
20
-0.582513
10
28.252005
20
-0.542748
10
28.279787
20
-0.503544
10
28.308364
20
-0.464915
10
28.337726
20
-0.426879
10
28.367859
20
-0.389451
10
28.398751
20
-0.352646
10
28.430389
20
-0.316482
10
28.462759
20
-0.280971
10
28.495850
20
-0.246130
10
28.529645
20
-0.211973
10
28.564132
20
-0.178514
10
28.599296
20
-0.145767
10
28.635121
20
-0.113745
10
28.671595
20
-0.082463
10
28.708700
20
-0.051934
10
28.746421
20
-0.022169
10
28.784744
20
0.006818
10
28.823650
20
0.035016
10
28.863126
20
0.062412
10
28.903153
20
0.088996
10
28.943715
20
0.114755
10
28.984796
20
0.139680
10
29.026377
20
0.163760
10
29.068443
20
0.186984
10
29.110974
20
0.209344
10
29.153953
20
0.230829
10
29.197363
20
0.251431
10
29.241185
20
0.271141
10
29.285401
20
0.289951
10
29.329992
20
0.307853
10
29.374940
20
0.324840
10
29.420226
20
0.340904
10
29.465831
20
0.356038
10
29.511735
20
0.370238
10
29.557921
20
0.383495
10
29.604367
20
0.395806
10
29.651056
20
0.407164
10
29.697968
20
0.417566
10
29.745082
20
0.427006
10
29.792379
20
0.435480
10
29.839840
20
0.442986
10
29.887444
20
0.449520
10
29.935172
20
0.455080
10
29.983003
20
0.459662
10
30.030919
20
0.463265
10
30.078897
20
0.465888
10
30.126920
20
0.467530
10
30.174966
20
0.468189
10
30.223015
20
0.467866
10
30.271048
20
0.466560
10
30.319044
20
0.464273
10
30.366984
20
0.461005
10
30.414846
20
0.456757
10
30.793454
20
0.419251
10
28.875756
20
1.275072
10
28.875756
20
1.275072
10
28.875754
20
1.275072
10
28.875754
20
1.275072
10
26.089737
20
2.518401
10
19.423448
20
-0.456595
10
19.423448
20
-0.456595
10
19.423447
20
-0.456595
10
19.423447
20
-0.456595
10
19.423447
20
-0.456595
10
17.456789
20
-1.334265
10
17.043031
20
-1.518915
10
16.229896
20
-1.881796
10
15.410538
20
-2.247456
10
11.421207
20
-4.027793
10
11.377129
20
-4.046926
10
11.332670
20
-4.065153
10
11.287848
20
-4.082468
10
11.242680
20
-4.098862
10
11.197187
20
-4.114330
10
11.151388
20
-4.128864
10
11.105300
20
-4.142459
10
11.058945
20
-4.155109
10
11.012340
20
-4.166808
10
10.965506
20
-4.177552
10
10.918462
20
-4.187336
10
10.871228
20
-4.196156
10
10.823824
20
-4.204008
10
10.776268
20
-4.210890
10
10.728583
20
-4.216798
10
10.680786
20
-4.221730
10
10.632898
20
-4.225683
10
10.584940
20
-4.228657
10
10.536930
20
-4.230649
10
10.488890
20
-4.231659
10
10.440840
20
-4.231687
10
10.392799
20
-4.230733
10
10.344787
20
-4.228796
10
10.296825
20
-4.225878
10
10.248933
20
-4.221980
10
10.201131
20
-4.217104
10
10.153438
20
-4.211251
10
10.105875
20
-4.204425
10
10.058461
20
-4.196627
10
10.011217
20
-4.187862
10
9.964162
20
-4.178132
10
9.917315
20
-4.167443
10
9.870697
20
-4.155798
10
9.824327
20
-4.143202
10
9.778224
20
-4.129661
10
9.732407
20
-4.115180
10
9.686896
20
-4.099765
10
9.641710
20
-4.083423
10
9.596868
20
-4.066160
10
9.552387
20
-4.047984
10
9.508288
20
-4.028903
10
9.464588
20
-4.008924
10
9.421306
20
-3.988055
10
9.378459
20
-3.966306
10
9.336066
20
-3.943686
10
9.294144
20
-3.920203
10
9.252712
20
-3.895868
10
9.211785
20
-3.870692
10
9.171382
20
-3.844683
10
9.131519
20
-3.817854
10
9.092213
20
-3.790216
10
9.053480
20
-3.761780
10
9.015336
20
-3.732557
10
8.977799
20
-3.702561
10
8.940882
20
-3.671804
10
8.904602
20
-3.640298
10
8.868973
20
-3.608057
10
8.834011
20
-3.575095
10
8.799731
20
-3.541424
10
8.766146
20
-3.507060
10
8.733271
20
-3.472016
10
8.701119
20
-3.436307
10
8.669704
20
-3.399949
10
8.639039
20
-3.362956
10
8.609136
20
-3.325343
10
8.580009
20
-3.287127
10
8.551670
20
-3.248323
10
8.524129
20
-3.208948
10
8.497400
20
-3.169019
10
8.471492
20
-3.128551
10
8.446418
20
-3.087561
10
8.422186
20
-3.046068
10
8.398808
20
-3.004088
10
8.376293
20
-2.961639
10
8.354651
20
-2.918738
10
8.333891
20
-2.875404
10
8.314021
20
-2.831654
10
8.295049
20
-2.787507
10
8.276985
20
-2.742982
10
8.259834
20
-2.698096
10
8.243604
20
-2.652869
10
8.228303
20
-2.607320
10
8.213936
20
-2.561468
10
8.200510
20
-2.515331
10
8.188030
20
-2.468930
10
8.176501
20
-2.422283
10
8.165928
20
-2.375410
10
8.156316
20
-2.328330
10
8.147669
20
-2.281064
10
8.139989
20
-2.233631
10
8.133281
20
-2.186051
10
8.127548
20
-2.138344
10
8.122791
20
-2.090530
10
8.119012
20
-2.042628
10
8.116214
20
-1.994659
10
8.114397
20
-1.946643
10
8.113562
20
-1.898599
10
8.113710
20
-1.850549
10
8.114840
20
-1.802512
10
8.116952
20
-1.754508
10
8.120045
20
-1.706557
10
8.124118
20
-1.658679
10
8.129169
20
-1.610895
10
8.135196
20
-1.563224
10
8.142196
20
-1.515686
10
8.150167
20
-1.468301
10
8.159105
20
-1.421089
10
8.169006
20
-1.374070
10
8.179867
20
-1.327263
10
8.191682
20
-1.280687
10
8.204447
20
-1.234363
10
8.218157
20
-1.188310
10
8.232805
20
-1.142547
10
8.248386
20
-1.097093
10
8.264893
20
-1.051966
10
8.282319
20
-1.007187
10
8.300658
20
-0.962774
10
8.319900
20
-0.918744
10
8.340039
20
-0.875117
10
8.361065
20
-0.831912
10
8.382971
20
-0.789145
10
8.405746
20
-0.746835
10
8.429381
20
-0.704999
10
8.453867
20
-0.663655
10
8.479194
20
-0.622821
10
8.505349
20
-0.582513
10
8.532324
20
-0.542748
10
8.560106
20
-0.503544
10
8.588683
20
-0.464915
10
8.618045
20
-0.426879
10
8.648178
20
-0.389451
10
8.679070
20
-0.352646
10
8.710708
20
-0.316482
10
8.743078
20
-0.280971
10
8.776168
20
-0.246130
10
8.809964
20
-0.211973
10
8.844451
20
-0.178514
10
8.879614
20
-0.145767
10
8.915440
20
-0.113745
10
8.951914
20
-0.082463
10
8.989019
20
-0.051934
10
9.026740
20
-0.022169
10
9.065062
20
0.006818
10
9.103969
20
0.035016
10
9.143445
20
0.062412
10
9.183472
20
0.088996
10
9.224034
20
0.114755
10
9.265115
20
0.139680
10
9.306696
20
0.163760
10
9.348762
20
0.186984
10
9.391293
20
0.209344
10
9.434272
20
0.230829
10
9.477682
20
0.251431
10
9.521504
20
0.271141
10
9.565720
20
0.289951
10
9.610311
20
0.307853
10
9.655259
20
0.324840
10
9.700545
20
0.340904
10
9.746150
20
0.356038
10
9.792054
20
0.370238
10
9.838240
20
0.383495
10
9.884686
20
0.395806
10
9.931375
20
0.407164
10
9.978286
20
0.417566
10
10.025401
20
0.427006
10
10.072698
20
0.435480
10
10.120159
20
0.442986
10
10.167763
20
0.449520
10
10.215491
20
0.455080
10
10.263322
20
0.459662
10
10.311237
20
0.463265
10
10.359216
20
0.465888
10
10.407239
20
0.467530
10
10.455285
20
0.468189
10
10.503334
20
0.467866
10
10.551367
20
0.466560
10
10.599363
20
0.464273
10
10.647303
20
0.461005
10
10.695165
20
0.456757
10
11.073773
20
0.419251
10
9.156075
20
1.275072
10
9.156075
20
1.275072
10
9.156073
20
1.275072
10
9.156073
20
1.275072
10
6.370056
20
2.518401
10
1.822165
20
0.488792
10
1.822848
20
0.482854
10
1.827126
20
0.430672
10
1.829695
20
0.378377
10
1.830552
20
0.326027
10
1.829695
20
0.273676
10
1.827126
20
0.221382
10
1.822848
20
0.169200
10
1.816864
20
0.117185
10
1.809181
20
0.065394
10
1.799809
20
0.013882
10
1.788755
20
-0.037295
10
1.776033
20
-0.088084
10
1.761657
20
-0.138429
10
1.745640
20
-0.188276
10
1.728002
20
-0.237573
10
1.708759
20
-0.286267
10
1.687934
20
-0.334304
10
1.665549
20
-0.381635
10
1.641626
20
-0.428208
10
1.616193
20
-0.473973
10
1.589276
20
-0.518882
10
1.560904
20
-0.562885
10
1.531107
20
-0.605937
10
1.499917
20
-0.647991
10
1.467369
20
-0.689002
10
1.433496
20
-0.728926
10
1.398335
20
-0.767721
10
1.361923
20
-0.805344
10
1.324300
20
-0.841756
10
1.285505
20
-0.876917
10
1.245581
20
-0.910790
10
1.204570
20
-0.943338
10
1.162516
20
-0.974528
10
1.119465
20
-1.004324
10
1.075461
20
-1.032697
10
1.030552
20
-1.059614
10
0.984787
20
-1.085047
10
0.938214
20
-1.108969
10
0.890883
20
-1.131355
10
0.842846
20
-1.152180
10
0.794152
20
-1.171423
10
0.744855
20
-1.189061
10
0.695008
20
-1.205078
10
0.644663
20
-1.219454
10
0.593874
20
-1.232176
10
0.542697
20
-1.243229
10
0.491185
20
-1.252602
10
0.439394
20
-1.260285
10
0.387380
20
-1.266269
10
0.335197
20
-1.270547
10
0.282903
20
-1.273116
10
0.230552
20
-1.273973
10
0.178202
20
-1.273116
10
0.125907
20
-1.270547
10
0.073725
20
-1.266269
10
0.021710
20
-1.260285
10
-0.030081
20
-1.252602
10
-0.081592
20
-1.243229
10
-0.132770
20
-1.232176
10
-0.183558
20
-1.219454
10
-0.233903
20
-1.205078
10
-0.283751
20
-1.189061
10
-0.333048
20
-1.171423
10
-0.381741
20
-1.152180
10
-0.429779
20
-1.131355
10
-0.477110
20
-1.108969
10
-0.523683
20
-1.085047
10
-0.569448
20
-1.059614
10
-0.614356
20
-1.032697
10
-0.658360
20
-1.004324
10
-0.701412
20
-0.974528
10
-0.743466
20
-0.943338
10
-0.784477
20
-0.910790
10
-0.824401
20
-0.876917
10
-0.863196
20
-0.841756
10
-0.900819
20
-0.805344
10
-0.937230
20
-0.767721
10
-0.972392
20
-0.728926
10
-1.006265
20
-0.689002
10
-1.038813
20
-0.647991
10
-1.070003
20
-0.605937
10
-1.099799
20
-0.562885
10
-1.128171
20
-0.518882
10
-1.155089
20
-0.473973
10
-1.180522
20
-0.428208
10
-1.204444
20
-0.381635
10
-1.226830
20
-0.334304
10
-1.247655
20
-0.286267
10
-1.266897
20
-0.237573
10
-1.284536
20
-0.188276
10
-1.300552
20
-0.138429
10
-1.314929
20
-0.088084
10
-1.327651
20
-0.037295
10
-1.338704
20
0.013882
10
-1.348077
20
0.065394
10
-1.355760
20
0.117185
10
-1.361743
20
0.169200
10
-1.366022
20
0.221382
10
-1.368591
20
0.273676
10
-1.369448
20
0.326027
10
-1.368591
20
0.378377
10
-1.366022
20
0.430672
10
-1.361743
20
0.482854
10
-1.355760
20
0.534869
10
-1.348077
20
0.586660
10
-1.338704
20
0.638171
10
-1.327651
20
0.689349
10
-1.314929
20
0.740137
10
-1.300552
20
0.790482
10
-1.284536
20
0.840330
10
-1.266897
20
0.889627
10
-1.247655
20
0.938320
10
-1.226830
20
0.986358
10
-1.204444
20
1.033689
10
-1.180522
20
1.080262
10
-1.155089
20
1.126027
10
-1.128171
20
1.170936
10
-1.099799
20
1.214939
10
-1.070003
20
1.257991
10
-1.038813
20
1.300045
10
-1.006265
20
1.341056
10
-0.972392
20
1.380980
10
-0.937230
20
1.419775
10
-0.900819
20
1.457398
10
-0.863196
20
1.493809
10
-0.824401
20
1.528971
10
-0.784477
20
1.562844
10
-0.743466
20
1.595392
10
-0.701412
20
1.626582
10
-0.677285
20
1.643280
10
-0.716396
20
1.669255
10
-0.755871
20
1.696651
10
-0.794778
20
1.724849
10
-0.833100
20
1.753836
10
-0.870822
20
1.783601
10
-0.907927
20
1.814130
10
-0.944400
20
1.845413
10
-0.980226
20
1.877434
10
-1.015390
20
1.910181
10
-1.049877
20
1.943640
10
-1.083672
20
1.977797
10
-1.116762
20
2.012638
10
-1.149133
20
2.048149
10
-1.180771
20
2.084313
10
-1.211663
20
2.121118
10
-1.241796
20
2.158546
10
-1.271157
20
2.196582
10
-1.299735
20
2.235211
10
-1.327517
20
2.274416
10
-1.354491
20
2.314180
10
-1.380647
20
2.354488
10
-1.405973
20
2.395323
10
-1.430459
20
2.436666
10
-1.454095
20
2.478502
10
-1.476870
20
2.520812
10
-1.498775
20
2.563579
10
-1.519802
20
2.606785
10
-1.539940
20
2.650411
10
-1.559183
20
2.694441
10
-1.577521
20
2.738854
10
-1.594947
20
2.783633
10
-1.611454
20
2.828760
10
-1.627035
20
2.874214
10
-1.641684
20
2.919977
10
-1.655393
20
2.966030
10
-1.668159
20
3.012354
10
-1.679974
20
3.058930
10
-1.690835
20
3.105737
10
-1.700736
20
3.152756
10
-1.709674
20
3.199968
10
-1.717645
20
3.247353
10
-1.724645
20
3.294891
10
-1.730672
20
3.342562
10
-1.735722
20
3.390346
10
-1.739795
20
3.438224
10
-1.742888
20
3.486175
10
-1.745000
20
3.534179
10
-1.746130
20
3.582216
10
-1.746278
20
3.630266
10
-1.745443
20
3.678310
10
-1.743626
20
3.726326
10
-1.740828
20
3.774295
10
-1.737050
20
3.822197
10
-1.732293
20
3.870011
10
-1.726559
20
3.917718
10
-1.719851
20
3.965298
10
-1.712172
20
4.012731
10
-1.703524
20
4.059997
10
-1.693912
20
4.107077
10
-1.683340
20
4.153950
10
-1.671811
20
4.200597
10
-1.659330
20
4.246998
10
-1.645904
20
4.293135
10
-1.631537
20
4.338987
10
-1.616236
20
4.384536
10
-1.600007
20
4.429763
10
-1.582856
20
4.474649
10
-1.564791
20
4.519174
10
-1.545820
20
4.563321
10
-1.525950
20
4.607071
10
-1.505189
20
4.650405
10
-1.483547
20
4.693306
10
-1.461032
20
4.735755
10
-1.437654
20
4.777735
10
-1.413423
20
4.819228
10
-1.388348
20
4.860218
10
-1.362441
20
4.900686
10
-1.335711
20
4.940615
10
-1.308171
20
4.979990
10
-1.279831
20
5.018794
10
-1.250704
20
5.057010
10
-1.220802
20
5.094623
10
-1.190137
20
5.131616
10
-1.158722
20
5.167975
10
-1.126570
20
5.203683
10
-1.093695
20
5.238727
10
-1.060110
20
5.273091
10
-1.025829
20
5.306762
10
-0.990867
20
5.339725
10
-0.955239
20
5.371965
10
-0.918959
20
5.403471
10
-0.882042
20
5.434228
10
-0.844504
20
5.464224
10
-0.806361
20
5.493447
10
-0.767628
20
5.521883
10
-0.728322
20
5.549521
10
-0.688459
20
5.576350
10
-0.648056
20
5.602359
10
-0.607129
20
5.627535
10
-0.565696
20
5.651870
10
-0.523775
20
5.675353
10
-0.481382
20
5.697973
10
-0.438535
20
5.719722
10
-0.395253
20
5.740591
10
-0.351553
20
5.760570
10
-0.307453
20
5.779651
10
-0.262973
20
5.797827
10
-0.218130
20
5.815090
10
-0.172944
20
5.831432
10
-0.127433
20
5.846847
10
-0.081617
20
5.861328
10
-0.035514
20
5.874869
10
0.010857
20
5.887465
10
0.057475
20
5.899110
10
0.104321
20
5.909800
10
0.151376
20
5.919529
10
0.198621
20
5.928294
10
0.246034
20
5.936092
10
0.293597
20
5.942918
10
0.341290
20
5.948771
10
0.389093
20
5.953647
10
0.436985
20
5.957545
10
0.484947
20
5.960463
10
0.532958
20
5.962400
10
0.580999
20
5.963354
10
0.629050
20
5.963326
10
0.677090
20
5.962316
10
0.725099
20
5.960324
10
0.773058
20
5.957350
10
0.820945
20
5.953397
10
0.868742
20
5.948465
10
0.916428
20
5.942557
10
0.963983
20
5.935676
10
1.011388
20
5.927823
10
1.058622
20
5.919003
10
1.105666
20
5.909219
10
1.152500
20
5.898475
10
1.199104
20
5.886776
10
1.245460
20
5.874126
10
1.291547
20
5.860531
10
1.337347
20
5.845997
10
1.382840
20
5.830530
10
1.428007
20
5.814135
10
1.472830
20
5.796820
10
1.517289
20
5.778593
10
1.561366
20
5.759460
10
5.550697
20
3.979123
10
6.370056
20
3.613464
10
7.183190
20
3.250582
10
7.596948
20
3.065932
10
9.563607
20
2.188262
10
9.563607
20
2.188262
10
16.229896
20
-0.786734
10
19.015914
20
0.456595
10
19.015915
20
0.456595
10
19.015915
20
0.456595
10
20.933614
20
1.312416
10
20.555006
20
1.274910
10
20.507143
20
1.270662
10
20.459204
20
1.267394
10
20.411208
20
1.265107
10
20.363175
20
1.263801
10
20.315125
20
1.263478
10
20.267079
20
1.264137
10
20.219057
20
1.265779
10
20.171078
20
1.268402
10
20.123163
20
1.272005
10
20.075331
20
1.276587
10
20.027603
20
1.282147
10
19.979999
20
1.288681
10
19.932538
20
1.296187
10
19.885241
20
1.304661
10
19.838127
20
1.314102
10
19.791216
20
1.324503
10
19.744527
20
1.335861
10
19.698080
20
1.348172
10
19.651895
20
1.361429
10
19.605990
20
1.375629
10
19.560385
20
1.390763
10
19.515100
20
1.406827
10
19.470152
20
1.423814
10
19.425560
20
1.441716
10
19.381345
20
1.460526
10
19.337523
20
1.480236
10
19.294113
20
1.500838
10
19.251133
20
1.522323
10
19.208602
20
1.544683
10
19.166537
20
1.567907
10
19.124955
20
1.591987
10
19.083875
20
1.616912
10
19.043312
20
1.642671
10
19.003285
20
1.669255
10
18.963810
20
1.696651
10
18.924903
20
1.724849
10
18.886581
20
1.753836
10
18.848859
20
1.783601
10
18.811754
20
1.814130
10
18.775281
20
1.845413
10
18.739455
20
1.877434
10
18.704291
20
1.910181
10
18.669804
20
1.943640
10
18.636009
20
1.977797
10
18.602919
20
2.012638
10
18.570548
20
2.048149
10
18.538910
20
2.084313
10
18.508018
20
2.121118
10
18.477885
20
2.158546
10
18.448524
20
2.196582
10
18.419946
20
2.235211
10
18.392164
20
2.274416
10
18.365190
20
2.314180
10
18.339034
20
2.354488
10
18.313708
20
2.395323
10
18.289222
20
2.436666
10
18.265586
20
2.478502
10
18.242811
20
2.520812
10
18.220906
20
2.563579
10
18.199879
20
2.606785
10
18.179741
20
2.650411
10
18.160498
20
2.694441
10
18.142160
20
2.738854
10
18.124734
20
2.783633
10
18.108227
20
2.828760
10
18.092646
20
2.874214
10
18.077997
20
2.919977
10
18.064288
20
2.966030
10
18.051522
20
3.012354
10
18.039707
20
3.058930
10
18.028846
20
3.105737
10
18.018945
20
3.152756
10
18.010007
20
3.199968
10
18.002037
20
3.247353
10
17.995036
20
3.294891
10
17.989009
20
3.342562
10
17.983959
20
3.390346
10
17.979886
20
3.438224
10
17.976793
20
3.486175
10
17.974681
20
3.534179
10
17.973551
20
3.582216
10
17.973403
20
3.630266
10
17.974238
20
3.678310
10
17.976055
20
3.726326
10
17.978853
20
3.774295
10
17.982631
20
3.822197
10
17.987388
20
3.870011
10
17.993122
20
3.917718
10
17.999830
20
3.965298
10
18.007509
20
4.012731
10
18.016157
20
4.059997
10
18.025769
20
4.107077
10
18.036342
20
4.153950
10
18.047870
20
4.200597
10
18.060351
20
4.246998
10
18.073777
20
4.293135
10
18.088144
20
4.338987
10
18.103445
20
4.384536
10
18.119674
20
4.429763
10
18.136825
20
4.474649
10
18.154890
20
4.519174
10
18.173861
20
4.563321
10
18.193731
20
4.607071
10
18.214492
20
4.650405
10
18.236134
20
4.693306
10
18.258649
20
4.735755
10
18.282027
20
4.777735
10
18.306258
20
4.819228
10
18.331333
20
4.860218
10
18.357240
20
4.900686
10
18.383970
20
4.940615
10
18.411510
20
4.979990
10
18.439850
20
5.018794
10
18.468977
20
5.057010
10
18.498879
20
5.094623
10
18.529544
20
5.131616
10
18.560959
20
5.167975
10
18.593111
20
5.203683
10
18.625987
20
5.238727
10
18.659571
20
5.273091
10
18.693852
20
5.306762
10
18.728814
20
5.339725
10
18.764442
20
5.371965
10
18.800722
20
5.403471
10
18.837639
20
5.434228
10
18.875177
20
5.464224
10
18.913320
20
5.493447
10
18.952053
20
5.521883
10
18.991359
20
5.549521
10
19.031222
20
5.576350
10
19.071626
20
5.602359
10
19.112552
20
5.627535
10
19.153985
20
5.651870
10
19.195907
20
5.675353
10
19.238300
20
5.697973
10
19.281146
20
5.719722
10
19.324429
20
5.740591
10
19.368129
20
5.760570
10
19.412228
20
5.779651
10
19.456708
20
5.797827
10
19.501551
20
5.815090
10
19.546737
20
5.831432
10
19.592248
20
5.846847
10
19.638064
20
5.861328
10
19.684167
20
5.874869
10
19.730538
20
5.887465
10
19.777156
20
5.899110
10
19.824002
20
5.909800
10
19.871057
20
5.919529
10
19.918302
20
5.928294
10
19.965715
20
5.936092
10
20.013279
20
5.942918
10
20.060971
20
5.948771
10
20.108774
20
5.953647
10
20.156666
20
5.957545
10
20.204628
20
5.960463
10
20.252639
20
5.962400
10
20.300680
20
5.963354
10
20.348731
20
5.963326
10
20.396771
20
5.962316
10
20.444780
20
5.960324
10
20.492739
20
5.957350
10
20.540626
20
5.953397
10
20.588423
20
5.948465
10
20.636109
20
5.942557
10
20.683664
20
5.935676
10
20.731069
20
5.927823
10
20.778303
20
5.919003
10
20.825347
20
5.909219
10
20.872181
20
5.898475
10
20.918785
20
5.886776
10
20.965141
20
5.874126
10
21.011228
20
5.860531
10
21.057028
20
5.845997
10
21.102521
20
5.830530
10
21.147688
20
5.814135
10
21.192511
20
5.796820
10
21.236970
20
5.778593
10
21.281047
20
5.759460
10
25.270378
20
3.979123
10
26.089737
20
3.613464
10
26.902871
20
3.250582
10
27.316629
20
3.065932
10
29.283288
20
2.188263
10
29.283288
20
2.188263
10
29.283288
20
2.188262
10
29.283288
20
2.188262
10
29.283289
20
2.188262
10
35.949578
20
-0.786734
10
36.617198
20
-0.488792
10
36.616514
20
-0.482854
10
36.612236
20
-0.430672
10
36.609667
20
-0.378377
10
36.608810
20
-0.326027
10
36.609667
20
-0.273676
10
36.612236
20
-0.221382
10
36.616514
20
-0.169200
10
36.622498
20
-0.117185
10
36.630181
20
-0.065394
10
36.639554
20
-0.013882
10
36.650607
20
0.037295
10
36.663329
20
0.088084
10
36.677705
20
0.138429
10
36.693722
20
0.188276
10
36.711361
20
0.237573
10
36.730603
20
0.286267
10
36.751428
20
0.334304
10
36.773814
20
0.381635
10
36.797736
20
0.428208
10
36.823169
20
0.473973
10
36.850087
20
0.518882
10
36.878459
20
0.562885
10
36.908255
20
0.605937
10
36.939445
20
0.647991
10
36.971993
20
0.689002
10
37.005866
20
0.728926
10
37.041028
20
0.767721
10
37.077439
20
0.805344
10
37.115062
20
0.841756
10
37.153857
20
0.876917
10
37.193781
20
0.910790
10
37.234792
20
0.943338
10
37.276846
20
0.974528
10
37.319898
20
1.004324
10
37.363901
20
1.032697
10
37.408810
20
1.059614
10
37.454575
20
1.085047
10
37.501148
20
1.108969
10
37.548479
20
1.131355
10
37.596517
20
1.152180
10
37.645210
20
1.171423
10
37.694507
20
1.189061
10
37.744355
20
1.205078
10
37.794700
20
1.219454
10
37.845488
20
1.232176
10
37.896666
20
1.243229
10
37.948177
20
1.252602
10
37.999968
20
1.260285
10
38.051983
20
1.266269
10
38.104165
20
1.270547
10
38.156459
20
1.273116
10
38.208810
20
1.273973
10
38.261161
20
1.273116
10
38.313455
20
1.270547
10
38.365637
20
1.266269
10
38.417652
20
1.260285
10
38.469443
20
1.252602
10
38.520955
20
1.243229
10
38.572132
20
1.232176
10
38.622921
20
1.219454
10
38.673266
20
1.205078
10
38.723113
20
1.189061
10
38.772410
20
1.171423
10
38.821104
20
1.152180
10
38.869141
20
1.131355
10
38.916472
20
1.108969
10
38.963045
20
1.085047
10
39.008810
20
1.059614
10
39.053719
20
1.032697
10
39.097722
20
1.004324
10
39.140774
20
0.974528
10
39.182828
20
0.943338
10
39.223839
20
0.910790
10
39.263763
20
0.876917
10
39.302558
20
0.841756
10
39.340181
20
0.805344
10
39.376593
20
0.767721
10
39.411754
20
0.728926
10
39.445627
20
0.689002
10
39.478175
20
0.647991
10
39.509365
20
0.605937
10
39.539161
20
0.562885
10
39.567534
20
0.518882
10
39.594451
20
0.473973
10
39.619884
20
0.428208
10
39.643806
20
0.381635
10
39.666192
20
0.334304
10
39.687017
20
0.286267
10
39.706260
20
0.237573
10
39.723898
20
0.188276
10
39.739915
20
0.138429
10
39.754291
20
0.088084
10
39.767013
20
0.037295
10
39.778066
20
-0.013882
10
39.787439
20
-0.065394
10
39.795122
20
-0.117185
10
39.801106
20
-0.169200
10
39.805384
20
-0.221382
10
39.807953
20
-0.273676
10
39.808810
20
-0.326027
10
39.807953
20
-0.378377
0
LWPOLYLINE
8
0
100
AcDbEntity
100
AcDbPolyline
90
183
70
1
10
30.261231
20
-0.534054
10
30.233659
20
-0.532740
10
30.206066
20
-0.531990
10
30.178463
20
-0.531805
10
30.150862
20
-0.532183
10
30.123274
20
-0.533126
10
30.095712
20
-0.534633
10
30.068186
20
-0.536703
10
30.040709
20
-0.539336
10
30.013290
20
-0.542529
10
29.985943
20
-0.546283
10
29.958679
20
-0.550595
10
29.931508
20
-0.555463
10
29.904442
20
-0.560886
10
29.877493
20
-0.566862
10
29.850672
20
-0.573387
10
29.823990
20
-0.580459
10
29.797458
20
-0.588075
10
29.771087
20
-0.596232
10
29.744889
20
-0.604926
10
29.718873
20
-0.614154
10
29.693052
20
-0.623913
10
29.667436
20
-0.634197
10
29.642035
20
-0.645003
10
29.616861
20
-0.656325
10
29.591924
20
-0.668161
10
29.567233
20
-0.680503
10
29.542800
20
-0.693348
10
29.518635
20
-0.706690
10
29.494748
20
-0.720523
10
29.471149
20
-0.734841
10
29.447847
20
-0.749639
10
29.424852
20
-0.764911
10
29.402175
20
-0.780649
10
29.379824
20
-0.796847
10
29.357809
20
-0.813500
10
29.336140
20
-0.830599
10
29.314824
20
-0.848137
10
29.293871
20
-0.866108
10
29.273290
20
-0.884503
10
29.253090
20
-0.903315
10
29.233278
20
-0.922536
10
29.213864
20
-0.942158
10
29.194855
20
-0.962173
10
29.176259
20
-0.982573
10
29.158084
20
-1.003349
10
29.140337
20
-1.024491
10
29.123027
20
-1.045993
10
29.106160
20
-1.067843
10
29.089743
20
-1.090034
10
29.073783
20
-1.112556
10
29.058287
20
-1.135400
10
29.043261
20
-1.158555
10
29.028712
20
-1.182013
10
29.014646
20
-1.205764
10
29.001068
20
-1.229797
10
28.987984
20
-1.254103
10
28.975400
20
-1.278671
10
28.963321
20
-1.303492
10
28.951752
20
-1.328554
10
28.940698
20
-1.353847
10
28.930163
20
-1.379361
10
28.920153
20
-1.405086
10
28.910670
20
-1.431009
10
28.901719
20
-1.457121
10
28.893304
20
-1.483411
10
28.885428
20
-1.509867
10
28.878095
20
-1.536478
10
28.871308
20
-1.563234
10
28.865068
20
-1.590124
10
28.859380
20
-1.617135
10
28.854246
20
-1.644256
10
28.849667
20
-1.671478
10
28.845646
20
-1.698787
10
28.842183
20
-1.726172
10
28.839282
20
-1.753623
10
28.836942
20
-1.781127
10
28.835165
20
-1.808673
10
28.833952
20
-1.836250
10
28.833303
20
-1.863846
10
28.833218
20
-1.891449
10
28.833697
20
-1.919049
10
28.834741
20
-1.946632
10
28.836349
20
-1.974189
10
28.838519
20
-2.001707
10
28.841252
20
-2.029175
10
28.844546
20
-2.056581
10
28.848399
20
-2.083914
10
28.852811
20
-2.111163
10
28.857779
20
-2.138316
10
28.863300
20
-2.165361
10
28.869374
20
-2.192288
10
28.875997
20
-2.219086
10
28.883167
20
-2.245742
10
28.890880
20
-2.272246
10
28.899133
20
-2.298587
10
28.907923
20
-2.324753
10
28.917246
20
-2.350735
10
28.927099
20
-2.376520
10
28.937476
20
-2.402098
10
28.948375
20
-2.427459
10
28.959790
20
-2.452592
10
28.971716
20
-2.477486
10
28.984149
20
-2.502131
10
28.997083
20
-2.526517
10
29.010512
20
-2.550633
10
29.024433
20
-2.574470
10
29.038837
20
-2.598017
10
29.053720
20
-2.621264
10
29.069075
20
-2.644203
10
29.084896
20
-2.666823
10
29.101177
20
-2.689114
10
29.117909
20
-2.711068
10
29.135087
20
-2.732675
10
29.152703
20
-2.753927
10
29.170750
20
-2.774813
10
29.189221
20
-2.795327
10
29.208106
20
-2.815458
10
29.227400
20
-2.835200
10
29.247093
20
-2.854542
10
29.267177
20
-2.873478
10
29.287645
20
-2.892000
10
29.308486
20
-2.910099
10
29.329694
20
-2.927768
10
29.351258
20
-2.944999
10
29.373170
20
-2.961787
10
29.395421
20
-2.978122
10
29.418001
20
-2.994000
10
29.440901
20
-3.009412
10
29.464112
20
-3.024353
10
29.487623
20
-3.038816
10
29.511425
20
-3.052796
10
29.535507
20
-3.066286
10
29.559861
20
-3.079281
10
29.584475
20
-3.091775
10
29.609339
20
-3.103763
10
29.634443
20
-3.115241
10
29.659777
20
-3.126202
10
29.685329
20
-3.136644
10
29.711090
20
-3.146560
10
29.737048
20
-3.155948
10
29.763193
20
-3.164804
10
29.789513
20
-3.173123
10
29.815997
20
-3.180902
10
29.842636
20
-3.188138
10
29.869416
20
-3.194827
10
29.896328
20
-3.200968
10
29.923360
20
-3.206557
10
29.950500
20
-3.211593
10
29.977738
20
-3.216072
10
30.005061
20
-3.219994
10
30.032459
20
-3.223356
10
30.059920
20
-3.226157
10
30.087433
20
-3.228397
10
30.114985
20
-3.230073
10
30.142567
20
-3.231185
10
30.170165
20
-3.231734
10
30.197768
20
-3.231718
10
30.225365
20
-3.231137
10
30.252945
20
-3.229993
10
30.280496
20
-3.228285
10
30.308006
20
-3.226013
10
30.335464
20
-3.223180
10
30.362858
20
-3.219786
10
30.390177
20
-3.215833
10
30.417409
20
-3.211322
10
30.444543
20
-3.206255
10
30.471569
20
-3.200635
10
30.498473
20
-3.194463
10
30.525246
20
-3.187742
10
30.551876
20
-3.180475
10
30.578352
20
-3.172665
10
30.604662
20
-3.164316
10
30.630796
20
-3.155430
10
30.656743
20
-3.146012
10
30.682493
20
-3.136065
10
30.708033
20
-3.125594
10
30.733354
20
-3.114603
10
34.722685
20
-1.334265
10
33.687633
20
-0.872348
10
30.316266
20
-0.538372
10
30.288771
20
-0.535932
10
30.261231
20
-0.534054
0
LWPOLYLINE
8
0
100
AcDbEntity
100
AcDbPolyline
90
183
70
1
10
20.770956
20
4.887097
10
20.744822
20
4.895983
10
20.718511
20
4.904332
10
20.692035
20
4.912142
10
20.665406
20
4.919409
10
20.638633
20
4.926130
10
20.611728
20
4.932302
10
20.584703
20
4.937922
10
20.557568
20
4.942989
10
20.530336
20
4.947500
10
20.503017
20
4.951454
10
20.475623
20
4.954847
10
20.448165
20
4.957681
10
20.420655
20
4.959952
10
20.393105
20
4.961660
10
20.365525
20
4.962804
10
20.337928
20
4.963385
10
20.310324
20
4.963401
10
20.282726
20
4.962852
10
20.255145
20
4.961740
10
20.227592
20
4.960064
10
20.200080
20
4.957824
10
20.172619
20
4.955023
10
20.145221
20
4.951661
10
20.117897
20
4.947739
10
20.090660
20
4.943260
10
20.063519
20
4.938225
10
20.036488
20
4.932635
10
20.009576
20
4.926494
10
19.982795
20
4.919805
10
19.956157
20
4.912569
10
19.929672
20
4.904790
10
19.903352
20
4.896471
10
19.877208
20
4.887616
10
19.851250
20
4.878228
10
19.825489
20
4.868311
10
19.799936
20
4.857869
10
19.774603
20
4.846908
10
19.749498
20
4.835430
10
19.724634
20
4.823442
10
19.700020
20
4.810948
10
19.675667
20
4.797953
10
19.651584
20
4.784463
10
19.627782
20
4.770484
10
19.604271
20
4.756020
10
19.581061
20
4.741079
10
19.558161
20
4.725667
10
19.535581
20
4.709790
10
19.513330
20
4.693454
10
19.491418
20
4.676667
10
19.469853
20
4.659435
10
19.448646
20
4.641766
10
19.427804
20
4.623667
10
19.407337
20
4.605145
10
19.387252
20
4.586209
10
19.367559
20
4.566867
10
19.348266
20
4.547126
10
19.329380
20
4.526994
10
19.310910
20
4.506481
10
19.292863
20
4.485594
10
19.275247
20
4.464342
10
19.258069
20
4.442735
10
19.241336
20
4.420781
10
19.225056
20
4.398490
10
19.209235
20
4.375870
10
19.193880
20
4.352932
10
19.178997
20
4.329684
10
19.164592
20
4.306137
10
19.150672
20
4.282300
10
19.137242
20
4.258184
10
19.124308
20
4.233798
10
19.111875
20
4.209153
10
19.099949
20
4.184259
10
19.088534
20
4.159126
10
19.077636
20
4.133765
10
19.067258
20
4.108187
10
19.057406
20
4.082402
10
19.048082
20
4.056420
10
19.039292
20
4.030254
10
19.031039
20
4.003913
10
19.023326
20
3.977409
10
19.016157
20
3.950753
10
19.009534
20
3.923956
10
19.003460
20
3.897029
10
18.997938
20
3.869983
10
18.992970
20
3.842830
10
18.988559
20
3.815581
10
18.984705
20
3.788248
10
18.981412
20
3.760842
10
18.978679
20
3.733374
10
18.976508
20
3.705856
10
18.974901
20
3.678299
10
18.973857
20
3.650716
10
18.973377
20
3.623116
10
18.973462
20
3.595513
10
18.974111
20
3.567917
10
18.975325
20
3.540340
10
18.977102
20
3.512794
10
18.979441
20
3.485290
10
18.982343
20
3.457839
10
18.985805
20
3.430454
10
18.989826
20
3.403145
10
18.994405
20
3.375924
10
18.999540
20
3.348802
10
19.005228
20
3.321791
10
19.011467
20
3.294902
10
19.018255
20
3.268146
10
19.025588
20
3.241534
10
19.033463
20
3.215078
10
19.041878
20
3.188788
10
19.050829
20
3.162676
10
19.060312
20
3.136753
10
19.070323
20
3.111028
10
19.080858
20
3.085514
10
19.091912
20
3.060221
10
19.103481
20
3.035159
10
19.115560
20
3.010338
10
19.128144
20
2.985770
10
19.141227
20
2.961464
10
19.154805
20
2.937431
10
19.168872
20
2.913680
10
19.183421
20
2.890222
10
19.198446
20
2.867067
10
19.213942
20
2.844223
10
19.229902
20
2.821701
10
19.246319
20
2.799510
10
19.263186
20
2.777660
10
19.280497
20
2.756158
10
19.298243
20
2.735016
10
19.316418
20
2.714240
10
19.335014
20
2.693841
10
19.354023
20
2.673825
10
19.373438
20
2.654203
10
19.393249
20
2.634982
10
19.413450
20
2.616170
10
19.434031
20
2.597775
10
19.454983
20
2.579804
10
19.476299
20
2.562266
10
19.497969
20
2.545167
10
19.519984
20
2.528515
10
19.542335
20
2.512316
10
19.565012
20
2.496578
10
19.588006
20
2.481306
10
19.611308
20
2.466508
10
19.634907
20
2.452190
10
19.658795
20
2.438357
10
19.682960
20
2.425015
10
19.707393
20
2.412170
10
19.732083
20
2.399828
10
19.757021
20
2.387993
10
19.782195
20
2.376670
10
19.807596
20
2.365864
10
19.833212
20
2.355580
10
19.859033
20
2.345822
10
19.885048
20
2.336593
10
19.911247
20
2.327899
10
19.937617
20
2.319742
10
19.964149
20
2.312126
10
19.990832
20
2.305054
10
20.017653
20
2.298529
10
20.044602
20
2.292553
10
20.071667
20
2.287130
10
20.098838
20
2.282262
10
20.126103
20
2.277950
10
20.153450
20
2.274196
10
20.180868
20
2.271003
10
20.208346
20
2.268370
10
20.235872
20
2.266300
10
20.263434
20
2.264793
10
20.291021
20
2.263851
10
20.318622
20
2.263472
10
20.346225
20
2.263657
10
20.373818
20
2.264407
10
20.401391
20
2.265722
10
20.428930
20
2.267599
10
20.456426
20
2.270039
10
23.827792
20
2.604015
10
24.862845
20
3.065932
10
20.873513
20
4.846270
10
20.848192
20
4.857261
10
20.822652
20
4.867732
10
20.796903
20
4.877679
10
20.770956
20
4.887097
0
LWPOLYLINE
8
0
100
AcDbEntity
100
AcDbPolyline
90
183
70
1
10
10.513978
20
-0.532740
10
10.486385
20
-0.531990
10
10.458782
20
-0.531805
10
10.431181
20
-0.532183
10
10.403593
20
-0.533126
10
10.376031
20
-0.534633
10
10.348505
20
-0.536703
10
10.321028
20
-0.539336
10
10.293609
20
-0.542529
10
10.266262
20
-0.546283
10
10.238998
20
-0.550595
10
10.211827
20
-0.555463
10
10.184761
20
-0.560886
10
10.157812
20
-0.566862
10
10.130991
20
-0.573387
10
10.104309
20
-0.580459
10
10.077777
20
-0.588075
10
10.051406
20
-0.596232
10
10.025208
20
-0.604926
10
9.999192
20
-0.614154
10
9.973371
20
-0.623913
10
9.947755
20
-0.634197
10
9.922354
20
-0.645003
10
9.897180
20
-0.656325
10
9.872243
20
-0.668161
10
9.847552
20
-0.680503
10
9.823119
20
-0.693348
10
9.798954
20
-0.706690
10
9.775067
20
-0.720523
10
9.751467
20
-0.734841
10
9.728166
20
-0.749639
10
9.705171
20
-0.764911
10
9.682494
20
-0.780649
10
9.660143
20
-0.796847
10
9.638128
20
-0.813500
10
9.616458
20
-0.830599
10
9.595143
20
-0.848137
10
9.574190
20
-0.866108
10
9.553609
20
-0.884503
10
9.533409
20
-0.903315
10
9.513597
20
-0.922536
10
9.494183
20
-0.942158
10
9.475174
20
-0.962173
10
9.456578
20
-0.982573
10
9.438403
20
-1.003349
10
9.420656
20
-1.024491
10
9.403346
20
-1.045993
10
9.386479
20
-1.067843
10
9.370062
20
-1.090034
10
9.354102
20
-1.112556
10
9.338606
20
-1.135400
10
9.323580
20
-1.158555
10
9.309031
20
-1.182013
10
9.294965
20
-1.205764
10
9.281387
20
-1.229797
10
9.268303
20
-1.254103
10
9.255719
20
-1.278671
10
9.243640
20
-1.303492
10
9.232071
20
-1.328554
10
9.221017
20
-1.353847
10
9.210482
20
-1.379361
10
9.200472
20
-1.405086
10
9.190989
20
-1.431009
10
9.182038
20
-1.457121
10
9.173623
20
-1.483411
10
9.165747
20
-1.509867
10
9.158414
20
-1.536478
10
9.151626
20
-1.563234
10
9.145387
20
-1.590124
10
9.139699
20
-1.617135
10
9.134565
20
-1.644256
10
9.129986
20
-1.671478
10
9.125964
20
-1.698787
10
9.122502
20
-1.726172
10
9.119601
20
-1.753623
10
9.117261
20
-1.781127
10
9.115484
20
-1.808673
10
9.114271
20
-1.836250
10
9.113622
20
-1.863846
10
9.113537
20
-1.891449
10
9.114016
20
-1.919049
10
9.115060
20
-1.946632
10
9.116668
20
-1.974189
10
9.118838
20
-2.001707
10
9.121571
20
-2.029175
10
9.124865
20
-2.056581
10
9.128718
20
-2.083914
10
9.133130
20
-2.111163
10
9.138098
20
-2.138316
10
9.143619
20
-2.165361
10
9.149693
20
-2.192288
10
9.156316
20
-2.219086
10
9.163485
20
-2.245742
10
9.171198
20
-2.272246
10
9.179452
20
-2.298587
10
9.188242
20
-2.324753
10
9.197565
20
-2.350735
10
9.207418
20
-2.376520
10
9.217795
20
-2.402098
10
9.228694
20
-2.427459
10
9.240109
20
-2.452592
10
9.252035
20
-2.477486
10
9.264467
20
-2.502131
10
9.277401
20
-2.526517
10
9.290831
20
-2.550633
10
9.304751
20
-2.574470
10
9.319156
20
-2.598017
10
9.334039
20
-2.621264
10
9.349394
20
-2.644203
10
9.365215
20
-2.666823
10
9.381496
20
-2.689114
10
9.398228
20
-2.711068
10
9.415406
20
-2.732675
10
9.433022
20
-2.753927
10
9.451069
20
-2.774813
10
9.469539
20
-2.795327
10
9.488425
20
-2.815458
10
9.507719
20
-2.835200
10
9.527412
20
-2.854542
10
9.547496
20
-2.873478
10
9.567964
20
-2.892000
10
9.588805
20
-2.910099
10
9.610013
20
-2.927768
10
9.631577
20
-2.944999
10
9.653489
20
-2.961787
10
9.675740
20
-2.978122
10
9.698320
20
-2.994000
10
9.721220
20
-3.009412
10
9.744431
20
-3.024353
10
9.767942
20
-3.038816
10
9.791743
20
-3.052796
10
9.815826
20
-3.066286
10
9.840180
20
-3.079281
10
9.864794
20
-3.091775
10
9.889658
20
-3.103763
10
9.914762
20
-3.115241
10
9.940096
20
-3.126202
10
9.965648
20
-3.136644
10
9.991409
20
-3.146560
10
10.017367
20
-3.155948
10
10.043512
20
-3.164804
10
10.069832
20
-3.173123
10
10.096316
20
-3.180902
10
10.122955
20
-3.188138
10
10.149735
20
-3.194827
10
10.176647
20
-3.200968
10
10.203679
20
-3.206557
10
10.230819
20
-3.211593
10
10.258057
20
-3.216072
10
10.285380
20
-3.219994
10
10.312778
20
-3.223356
10
10.340239
20
-3.226157
10
10.367752
20
-3.228397
10
10.395304
20
-3.230073
10
10.422885
20
-3.231185
10
10.450483
20
-3.231734
10
10.478087
20
-3.231718
10
10.505684
20
-3.231137
10
10.533264
20
-3.229993
10
10.560815
20
-3.228285
10
10.588325
20
-3.226013
10
10.615782
20
-3.223180
10
10.643176
20
-3.219786
10
10.670495
20
-3.215833
10
10.697728
20
-3.211322
10
10.724862
20
-3.206255
10
10.751888
20
-3.200635
10
10.778792
20
-3.194463
10
10.805565
20
-3.187742
10
10.832195
20
-3.180475
10
10.858671
20
-3.172665
10
10.884981
20
-3.164316
10
10.911115
20
-3.155430
10
10.937062
20
-3.146012
10
10.962811
20
-3.136065
10
10.988352
20
-3.125594
10
11.013673
20
-3.114603
10
15.003004
20
-1.334265
10
13.967952
20
-0.872348
10
10.596585
20
-0.538372
10
10.569090
20
-0.535932
10
10.541550
20
-0.534054
10
10.513978
20
-0.532740
0
LWPOLYLINE
8
0
100
AcDbEntity
100
AcDbPolyline
90
183
70
1
10
1.051275
20
4.887097
10
1.025140
20
4.895983
10
0.998830
20
4.904332
10
0.972354
20
4.912142
10
0.945724
20
4.919409
10
0.918952
20
4.926130
10
0.892047
20
4.932302
10
0.865022
20
4.937922
10
0.837887
20
4.942989
10
0.810655
20
4.947500
10
0.783336
20
4.951454
10
0.755942
20
4.954847
10
0.728484
20
4.957681
10
0.700974
20
4.959952
10
0.673424
20
4.961660
10
0.645844
20
4.962804
10
0.618246
20
4.963385
10
0.590643
20
4.963401
10
0.563045
20
4.962852
10
0.535464
20
4.961740
10
0.507911
20
4.960064
10
0.480399
20
4.957824
10
0.452938
20
4.955023
10
0.425540
20
4.951661
10
0.398216
20
4.947739
10
0.370979
20
4.943260
10
0.343838
20
4.938225
10
0.316807
20
4.932635
10
0.289895
20
4.926494
10
0.263114
20
4.919805
10
0.236476
20
4.912569
10
0.209991
20
4.904790
10
0.183671
20
4.896471
10
0.157526
20
4.887616
10
0.131568
20
4.878228
10
0.105808
20
4.868311
10
0.080255
20
4.857869
10
0.054922
20
4.846908
10
0.029817
20
4.835430
10
0.004953
20
4.823442
10
-0.019661
20
4.810948
10
-0.044014
20
4.797953
10
-0.068097
20
4.784463
10
-0.091899
20
4.770484
10
-0.115410
20
4.756020
10
-0.138620
20
4.741079
10
-0.161520
20
4.725667
10
-0.184100
20
4.709790
10
-0.206351
20
4.693454
10
-0.228263
20
4.676667
10
-0.249828
20
4.659435
10
-0.271035
20
4.641766
10
-0.291877
20
4.623667
10
-0.312344
20
4.605145
10
-0.332429
20
4.586209
10
-0.352122
20
4.566867
10
-0.371415
20
4.547126
10
-0.390301
20
4.526994
10
-0.408771
20
4.506481
10
-0.426818
20
4.485594
10
-0.444434
20
4.464342
10
-0.461612
20
4.442735
10
-0.478345
20
4.420781
10
-0.494625
20
4.398490
10
-0.510446
20
4.375870
10
-0.525801
20
4.352932
10
-0.540684
20
4.329684
10
-0.555089
20
4.306137
10
-0.569009
20
4.282300
10
-0.582439
20
4.258184
10
-0.595373
20
4.233798
10
-0.607806
20
4.209153
10
-0.619732
20
4.184259
10
-0.631147
20
4.159126
10
-0.642045
20
4.133765
10
-0.652423
20
4.108187
10
-0.662275
20
4.082402
10
-0.671599
20
4.056420
10
-0.680389
20
4.030254
10
-0.688642
20
4.003913
10
-0.696355
20
3.977409
10
-0.703525
20
3.950753
10
-0.710147
20
3.923956
10
-0.716221
20
3.897029
10
-0.721743
20
3.869983
10
-0.726711
20
3.842830
10
-0.731122
20
3.815581
10
-0.734976
20
3.788248
10
-0.738270
20
3.760842
10
-0.741002
20
3.733374
10
-0.743173
20
3.705856
10
-0.744780
20
3.678299
10
-0.745824
20
3.650716
10
-0.746304
20
3.623116
10
-0.746219
20
3.595513
10
-0.745570
20
3.567917
10
-0.744356
20
3.540340
10
-0.742580
20
3.512794
10
-0.740240
20
3.485290
10
-0.737338
20
3.457839
10
-0.733876
20
3.430454
10
-0.729855
20
3.403145
10
-0.725276
20
3.375924
10
-0.720141
20
3.348802
10
-0.714453
20
3.321791
10
-0.708214
20
3.294902
10
-0.701427
20
3.268146
10
-0.694093
20
3.241534
10
-0.686218
20
3.215078
10
-0.677803
20
3.188788
10
-0.668852
20
3.162676
10
-0.659369
20
3.136753
10
-0.649358
20
3.111028
10
-0.638823
20
3.085514
10
-0.627769
20
3.060221
10
-0.616200
20
3.035159
10
-0.604121
20
3.010338
10
-0.591537
20
2.985770
10
-0.578454
20
2.961464
10
-0.564876
20
2.937431
10
-0.550809
20
2.913680
10
-0.536260
20
2.890222
10
-0.521235
20
2.867067
10
-0.505739
20
2.844223
10
-0.489779
20
2.821701
10
-0.473362
20
2.799510
10
-0.456495
20
2.777660
10
-0.439184
20
2.756158
10
-0.421438
20
2.735016
10
-0.403263
20
2.714240
10
-0.384667
20
2.693841
10
-0.365658
20
2.673825
10
-0.346243
20
2.654203
10
-0.326432
20
2.634982
10
-0.306231
20
2.616170
10
-0.285650
20
2.597775
10
-0.264698
20
2.579804
10
-0.243382
20
2.562266
10
-0.221712
20
2.545167
10
-0.199697
20
2.528515
10
-0.177347
20
2.512316
10
-0.154669
20
2.496578
10
-0.131675
20
2.481306
10
-0.108373
20
2.466508
10
-0.084774
20
2.452190
10
-0.060886
20
2.438357
10
-0.036721
20
2.425015
10
-0.012288
20
2.412170
10
0.012402
20
2.399828
10
0.037340
20
2.387993
10
0.062514
20
2.376670
10
0.087914
20
2.365864
10
0.113531
20
2.355580
10
0.139352
20
2.345822
10
0.165367
20
2.336593
10
0.191565
20
2.327899
10
0.217936
20
2.319742
10
0.244468
20
2.312126
10
0.271150
20
2.305054
10
0.297972
20
2.298529
10
0.324921
20
2.292553
10
0.351986
20
2.287130
10
0.379157
20
2.282262
10
0.406422
20
2.277950
10
0.433769
20
2.274196
10
0.461187
20
2.271003
10
0.488665
20
2.268370
10
0.516190
20
2.266300
10
0.543753
20
2.264793
10
0.571340
20
2.263851
10
0.598941
20
2.263472
10
0.626544
20
2.263657
10
0.654137
20
2.264407
10
0.681710
20
2.265722
10
0.709249
20
2.267599
10
0.736745
20
2.270039
10
4.108111
20
2.604015
10
5.143164
20
3.065932
10
1.153832
20
4.846270
10
1.128511
20
4.857261
10
1.102971
20
4.867732
10
1.077222
20
4.877679
10
1.051275
20
4.887097
0
ENDSEC
0
EOF
