999
gamboa 2-stage, w_v=1.0mm
0
SECTION
2
HEADER
9
$INSUNITS
70
4
0
ENDSEC
0
SECTION
2
ENTITIES
0
LWPOLYLINE
8
0
100
AcDbEntity
100
AcDbPolyline
90
649
70
1
10
20.088272
20
-0.378377
10
20.085703
20
-0.430672
10
20.081425
20
-0.482854
10
20.075441
20
-0.534869
10
20.067758
20
-0.586660
10
20.058385
20
-0.638171
10
20.047332
20
-0.689349
10
20.034610
20
-0.740137
10
20.020233
20
-0.790482
10
20.004217
20
-0.840330
10
19.986578
20
-0.889627
10
19.967336
20
-0.938320
10
19.946511
20
-0.986358
10
19.924125
20
-1.033689
10
19.900203
20
-1.080262
10
19.874770
20
-1.126027
10
19.847852
20
-1.170936
10
19.819480
20
-1.214939
10
19.789684
20
-1.257991
10
19.758494
20
-1.300045
10
19.725946
20
-1.341056
10
19.692073
20
-1.380980
10
19.656911
20
-1.419775
10
19.620500
20
-1.457398
10
19.582877
20
-1.493809
10
19.544082
20
-1.528971
10
19.504158
20
-1.562844
10
19.463147
20
-1.595392
10
19.421093
20
-1.626582
10
19.378041
20
-1.656378
10
19.334038
20
-1.684750
10
19.289129
20
-1.711668
10
19.243364
20
-1.737101
10
19.196791
20
-1.761023
10
19.149460
20
-1.783409
10
19.101422
20
-1.804234
10
19.052729
20
-1.823476
10
19.003432
20
-1.841115
10
18.953584
20
-1.857132
10
18.903239
20
-1.871508
10
18.852451
20
-1.884230
10
18.801273
20
-1.895283
10
18.749762
20
-1.904656
10
18.697971
20
-1.912339
10
18.645956
20
-1.918323
10
18.593774
20
-1.922601
10
18.541479
20
-1.925170
10
18.489129
20
-1.926027
10
18.436778
20
-1.925170
10
18.384484
20
-1.922601
10
18.332302
20
-1.918323
10
18.280287
20
-1.912339
10
18.228496
20
-1.904656
10
18.176984
20
-1.895283
10
18.125807
20
-1.884230
10
18.075018
20
-1.871508
10
18.024673
20
-1.857132
10
17.974826
20
-1.841115
10
17.925529
20
-1.823476
10
17.876835
20
-1.804234
10
17.828798
20
-1.783409
10
17.781467
20
-1.761023
10
17.734894
20
-1.737101
10
17.689129
20
-1.711668
10
17.644220
20
-1.684750
10
17.600217
20
-1.656378
10
17.557165
20
-1.626582
10
17.515111
20
-1.595392
10
17.474100
20
-1.562844
10
17.434176
20
-1.528971
10
17.395381
20
-1.493809
10
17.357758
20
-1.457398
10
17.321346
20
-1.419775
10
17.305171
20
-1.401928
10
17.043031
20
-1.518915
10
16.229896
20
-1.881796
10
15.410538
20
-2.247456
10
11.421207
20
-4.027793
10
11.377129
20
-4.046926
10
11.332670
20
-4.065153
10
11.287848
20
-4.082468
10
11.242680
20
-4.098862
10
11.197187
20
-4.114330
10
11.151388
20
-4.128864
10
11.105300
20
-4.142459
10
11.058945
20
-4.155109
10
11.012340
20
-4.166808
10
10.965506
20
-4.177552
10
10.918462
20
-4.187336
10
10.871228
20
-4.196156
10
10.823824
20
-4.204008
10
10.776268
20
-4.210890
10
10.728583
20
-4.216798
10
10.680786
20
-4.221730
10
10.632898
20
-4.225683
10
10.584940
20
-4.228657
10
10.536930
20
-4.230649
10
10.488890
20
-4.231659
10
10.440840
20
-4.231687
10
10.392799
20
-4.230733
10
10.344787
20
-4.228796
10
10.296825
20
-4.225878
10
10.248933
20
-4.221980
10
10.201131
20
-4.217104
10
10.153438
20
-4.211251
10
10.105875
20
-4.204425
10
10.058461
20
-4.196627
10
10.011217
20
-4.187862
10
9.964162
20
-4.178132
10
9.917315
20
-4.167443
10
9.870697
20
-4.155798
10
9.824327
20
-4.143202
10
9.778224
20
-4.129661
10
9.732407
20
-4.115180
10
9.686896
20
-4.099765
10
9.641710
20
-4.083423
10
9.596868
20
-4.066160
10
9.552387
20
-4.047984
10
9.508288
20
-4.028903
10
9.464588
20
-4.008924
10
9.421306
20
-3.988055
10
9.378459
20
-3.966306
10
9.336066
20
-3.943686
10
9.294144
20
-3.920203
10
9.252712
20
-3.895868
10
9.211785
20
-3.870692
10
9.171382
20
-3.844683
10
9.131519
20
-3.817854
10
9.092213
20
-3.790216
10
9.053480
20
-3.761780
10
9.015336
20
-3.732557
10
8.977799
20
-3.702561
10
8.940882
20
-3.671804
10
8.904602
20
-3.640298
10
8.868973
20
-3.608057
10
8.834011
20
-3.575095
10
8.799731
20
-3.541424
10
8.766146
20
-3.507060
10
8.733271
20
-3.472016
10
8.701119
20
-3.436307
10
8.669704
20
-3.399949
10
8.639039
20
-3.362956
10
8.609136
20
-3.325343
10
8.580009
20
-3.287127
10
8.551670
20
-3.248323
10
8.524129
20
-3.208948
10
8.497400
20
-3.169019
10
8.471492
20
-3.128551
10
8.446418
20
-3.087561
10
8.422186
20
-3.046068
10
8.398808
20
-3.004088
10
8.376293
20
-2.961639
10
8.354651
20
-2.918738
10
8.333891
20
-2.875404
10
8.314021
20
-2.831654
10
8.295049
20
-2.787507
10
8.276985
20
-2.742982
10
8.259834
20
-2.698096
10
8.243604
20
-2.652869
10
8.228303
20
-2.607320
10
8.213936
20
-2.561468
10
8.200510
20
-2.515331
10
8.188030
20
-2.468930
10
8.176501
20
-2.422283
10
8.165928
20
-2.375410
10
8.156316
20
-2.328330
10
8.147669
20
-2.281064
10
8.139989
20
-2.233631
10
8.133281
20
-2.186051
10
8.127548
20
-2.138344
10
8.122791
20
-2.090530
10
8.119012
20
-2.042628
10
8.116214
20
-1.994659
10
8.114397
20
-1.946643
10
8.113562
20
-1.898599
10
8.113710
20
-1.850549
10
8.114840
20
-1.802512
10
8.116952
20
-1.754508
10
8.120045
20
-1.706557
10
8.124118
20
-1.658679
10
8.129169
20
-1.610895
10
8.135196
20
-1.563224
10
8.142196
20
-1.515686
10
8.150167
20
-1.468301
10
8.159105
20
-1.421089
10
8.169006
20
-1.374070
10
8.179867
20
-1.327263
10
8.191682
20
-1.280687
10
8.204447
20
-1.234363
10
8.218157
20
-1.188310
10
8.232805
20
-1.142547
10
8.248386
20
-1.097093
10
8.264893
20
-1.051966
10
8.282319
20
-1.007187
10
8.300658
20
-0.962774
10
8.319900
20
-0.918744
10
8.340039
20
-0.875117
10
8.361065
20
-0.831912
10
8.382971
20
-0.789145
10
8.405746
20
-0.746835
10
8.429381
20
-0.704999
10
8.453867
20
-0.663655
10
8.479194
20
-0.622821
10
8.505349
20
-0.582513
10
8.532324
20
-0.542748
10
8.560106
20
-0.503544
10
8.588683
20
-0.464915
10
8.618045
20
-0.426879
10
8.648178
20
-0.389451
10
8.679070
20
-0.352646
10
8.710708
20
-0.316482
10
8.743078
20
-0.280971
10
8.776168
20
-0.246130
10
8.809964
20
-0.211973
10
8.844451
20
-0.178514
10
8.879614
20
-0.145767
10
8.915440
20
-0.113745
10
8.951914
20
-0.082463
10
8.989019
20
-0.051934
10
9.026740
20
-0.022169
10
9.065062
20
0.006818
10
9.103969
20
0.035016
10
9.143445
20
0.062412
10
9.183472
20
0.088996
10
9.224034
20
0.114755
10
9.265115
20
0.139680
10
9.306696
20
0.163760
10
9.348762
20
0.186984
10
9.391293
20
0.209344
10
9.434272
20
0.230829
10
9.477682
20
0.251431
10
9.521504
20
0.271141
10
9.565720
20
0.289951
10
9.610311
20
0.307853
10
9.655259
20
0.324840
10
9.700545
20
0.340904
10
9.746150
20
0.356038
10
9.792054
20
0.370238
10
9.838240
20
0.383495
10
9.884686
20
0.395806
10
9.931375
20
0.407164
10
9.978286
20
0.417566
10
10.025401
20
0.427006
10
10.072698
20
0.435480
10
10.120159
20
0.442986
10
10.167763
20
0.449520
10
10.215491
20
0.455080
10
10.263322
20
0.459662
10
10.311237
20
0.463265
10
10.359216
20
0.465888
10
10.407239
20
0.467530
10
10.455285
20
0.468189
10
10.503334
20
0.467866
10
10.551367
20
0.466560
10
10.599363
20
0.464273
10
10.647303
20
0.461005
10
10.695165
20
0.456757
10
11.073773
20
0.419251
10
9.156075
20
1.275072
10
9.156075
20
1.275072
10
9.156073
20
1.275072
10
9.156073
20
1.275072
10
6.370056
20
2.518401
10
1.822165
20
0.488792
10
1.822848
20
0.482854
10
1.827126
20
0.430672
10
1.829695
20
0.378377
10
1.830552
20
0.326027
10
1.829695
20
0.273676
10
1.827126
20
0.221382
10
1.822848
20
0.169200
10
1.816864
20
0.117185
10
1.809181
20
0.065394
10
1.799809
20
0.013882
10
1.788755
20
-0.037295
10
1.776033
20
-0.088084
10
1.761657
20
-0.138429
10
1.745640
20
-0.188276
10
1.728002
20
-0.237573
10
1.708759
20
-0.286267
10
1.687934
20
-0.334304
10
1.665549
20
-0.381635
10
1.641626
20
-0.428208
10
1.616193
20
-0.473973
10
1.589276
20
-0.518882
10
1.560904
20
-0.562885
10
1.531107
20
-0.605937
10
1.499917
20
-0.647991
10
1.467369
20
-0.689002
10
1.433496
20
-0.728926
10
1.398335
20
-0.767721
10
1.361923
20
-0.805344
10
1.324300
20
-0.841756
10
1.285505
20
-0.876917
10
1.245581
20
-0.910790
10
1.204570
20
-0.943338
10
1.162516
20
-0.974528
10
1.119465
20
-1.004324
10
1.075461
20
-1.032697
10
1.030552
20
-1.059614
10
0.984787
20
-1.085047
10
0.938214
20
-1.108969
10
0.890883
20
-1.131355
10
0.842846
20
-1.152180
10
0.794152
20
-1.171423
10
0.744855
20
-1.189061
10
0.695008
20
-1.205078
10
0.644663
20
-1.219454
10
0.593874
20
-1.232176
10
0.542697
20
-1.243229
10
0.491185
20
-1.252602
10
0.439394
20
-1.260285
10
0.387380
20
-1.266269
10
0.335197
20
-1.270547
10
0.282903
20
-1.273116
10
0.230552
20
-1.273973
10
0.178202
20
-1.273116
10
0.125907
20
-1.270547
10
0.073725
20
-1.266269
10
0.021710
20
-1.260285
10
-0.030081
20
-1.252602
10
-0.081592
20
-1.243229
10
-0.132770
20
-1.232176
10
-0.183558
20
-1.219454
10
-0.233903
20
-1.205078
10
-0.283751
20
-1.189061
10
-0.333048
20
-1.171423
10
-0.381741
20
-1.152180
10
-0.429779
20
-1.131355
10
-0.477110
20
-1.108969
10
-0.523683
20
-1.085047
10
-0.569448
20
-1.059614
10
-0.614356
20
-1.032697
10
-0.658360
20
-1.004324
10
-0.701412
20
-0.974528
10
-0.743466
20
-0.943338
10
-0.784477
20
-0.910790
10
-0.824401
20
-0.876917
10
-0.863196
20
-0.841756
10
-0.900819
20
-0.805344
10
-0.937230
20
-0.767721
10
-0.972392
20
-0.728926
10
-1.006265
20
-0.689002
10
-1.038813
20
-0.647991
10
-1.070003
20
-0.605937
10
-1.099799
20
-0.562885
10
-1.128171
20
-0.518882
10
-1.155089
20
-0.473973
10
-1.180522
20
-0.428208
10
-1.204444
20
-0.381635
10
-1.226830
20
-0.334304
10
-1.247655
20
-0.286267
10
-1.266897
20
-0.237573
10
-1.284536
20
-0.188276
10
-1.300552
20
-0.138429
10
-1.314929
20
-0.088084
10
-1.327651
20
-0.037295
10
-1.338704
20
0.013882
10
-1.348077
20
0.065394
10
-1.355760
20
0.117185
10
-1.361743
20
0.169200
10
-1.366022
20
0.221382
10
-1.368591
20
0.273676
10
-1.369448
20
0.326027
10
-1.368591
20
0.378377
10
-1.366022
20
0.430672
10
-1.361743
20
0.482854
10
-1.355760
20
0.534869
10
-1.348077
20
0.586660
10
-1.338704
20
0.638171
10
-1.327651
20
0.689349
10
-1.314929
20
0.740137
10
-1.300552
20
0.790482
10
-1.284536
20
0.840330
10
-1.266897
20
0.889627
10
-1.247655
20
0.938320
10
-1.226830
20
0.986358
10
-1.204444
20
1.033689
10
-1.180522
20
1.080262
10
-1.155089
20
1.126027
10
-1.128171
20
1.170936
10
-1.099799
20
1.214939
10
-1.070003
20
1.257991
10
-1.038813
20
1.300045
10
-1.006265
20
1.341056
10
-0.972392
20
1.380980
10
-0.937230
20
1.419775
10
-0.900819
20
1.457398
10
-0.863196
20
1.493809
10
-0.824401
20
1.528971
10
-0.784477
20
1.562844
10
-0.743466
20
1.595392
10
-0.701412
20
1.626582
10
-0.677285
20
1.643280
10
-0.716396
20
1.669255
10
-0.755871
20
1.696651
10
-0.794778
20
1.724849
10
-0.833100
20
1.753836
10
-0.870822
20
1.783601
10
-0.907927
20
1.814130
10
-0.944400
20
1.845413
10
-0.980226
20
1.877434
10
-1.015390
20
1.910181
10
-1.049877
20
1.943640
10
-1.083672
20
1.977797
10
-1.116762
20
2.012638
10
-1.149133
20
2.048149
10
-1.180771
20
2.084313
10
-1.211663
20
2.121118
10
-1.241796
20
2.158546
10
-1.271157
20
2.196582
10
-1.299735
20
2.235211
10
-1.327517
20
2.274416
10
-1.354491
20
2.314180
10
-1.380647
20
2.354488
10
-1.405973
20
2.395323
10
-1.430459
20
2.436666
10
-1.454095
20
2.478502
10
-1.476870
20
2.520812
10
-1.498775
20
2.563579
10
-1.519802
20
2.606785
10
-1.539940
20
2.650411
10
-1.559183
20
2.694441
10
-1.577521
20
2.738854
10
-1.594947
20
2.783633
10
-1.611454
20
2.828760
10
-1.627035
20
2.874214
10
-1.641684
20
2.919977
10
-1.655393
20
2.966030
10
-1.668159
20
3.012354
10
-1.679974
20
3.058930
10
-1.690835
20
3.105737
10
-1.700736
20
3.152756
10
-1.709674
20
3.199968
10
-1.717645
20
3.247353
10
-1.724645
20
3.294891
10
-1.730672
20
3.342562
10
-1.735722
20
3.390346
10
-1.739795
20
3.438224
10
-1.742888
20
3.486175
10
-1.745000
20
3.534179
10
-1.746130
20
3.582216
10
-1.746278
20
3.630266
10
-1.745443
20
3.678310
10
-1.743626
20
3.726326
10
-1.740828
20
3.774295
10
-1.737050
20
3.822197
10
-1.732293
20
3.870011
10
-1.726559
20
3.917718
10
-1.719851
20
3.965298
10
-1.712172
20
4.012731
10
-1.703524
20
4.059997
10
-1.693912
20
4.107077
10
-1.683340
20
4.153950
10
-1.671811
20
4.200597
10
-1.659330
20
4.246998
10
-1.645904
20
4.293135
10
-1.631537
20
4.338987
10
-1.616236
20
4.384536
10
-1.600007
20
4.429763
10
-1.582856
20
4.474649
10
-1.564791
20
4.519174
10
-1.545820
20
4.563321
10
-1.525950
20
4.607071
10
-1.505189
20
4.650405
10
-1.483547
20
4.693306
10
-1.461032
20
4.735755
10
-1.437654
20
4.777735
10
-1.413423
20
4.819228
10
-1.388348
20
4.860218
10
-1.362441
20
4.900686
10
-1.335711
20
4.940615
10
-1.308171
20
4.979990
10
-1.279831
20
5.018794
10
-1.250704
20
5.057010
10
-1.220802
20
5.094623
10
-1.190137
20
5.131616
10
-1.158722
20
5.167975
10
-1.126570
20
5.203683
10
-1.093695
20
5.238727
10
-1.060110
20
5.273091
10
-1.025829
20
5.306762
10
-0.990867
20
5.339725
10
-0.955239
20
5.371965
10
-0.918959
20
5.403471
10
-0.882042
20
5.434228
10
-0.844504
20
5.464224
10
-0.806361
20
5.493447
10
-0.767628
20
5.521883
10
-0.728322
20
5.549521
10
-0.688459
20
5.576350
10
-0.648056
20
5.602359
10
-0.607129
20
5.627535
10
-0.565696
20
5.651870
10
-0.523775
20
5.675353
10
-0.481382
20
5.697973
10
-0.438535
20
5.719722
10
-0.395253
20
5.740591
10
-0.351553
20
5.760570
10
-0.307453
20
5.779651
10
-0.262973
20
5.797827
10
-0.218130
20
5.815090
10
-0.172944
20
5.831432
10
-0.127433
20
5.846847
10
-0.081617
20
5.861328
10
-0.035514
20
5.874869
10
0.010857
20
5.887465
10
0.057475
20
5.899110
10
0.104321
20
5.909800
10
0.151376
20
5.919529
10
0.198621
20
5.928294
10
0.246034
20
5.936092
10
0.293597
20
5.942918
10
0.341290
20
5.948771
10
0.389093
20
5.953647
10
0.436985
20
5.957545
10
0.484947
20
5.960463
10
0.532958
20
5.962400
10
0.580999
20
5.963354
10
0.629050
20
5.963326
10
0.677090
20
5.962316
10
0.725099
20
5.960324
10
0.773058
20
5.957350
10
0.820945
20
5.953397
10
0.868742
20
5.948465
10
0.916428
20
5.942557
10
0.963983
20
5.935676
10
1.011388
20
5.927823
10
1.058622
20
5.919003
10
1.105666
20
5.909219
10
1.152500
20
5.898475
10
1.199104
20
5.886776
10
1.245460
20
5.874126
10
1.291547
20
5.860531
10
1.337347
20
5.845997
10
1.382840
20
5.830530
10
1.428007
20
5.814135
10
1.472830
20
5.796820
10
1.517289
20
5.778593
10
1.561366
20
5.759460
10
5.550697
20
3.979123
10
6.370056
20
3.613464
10
7.183190
20
3.250582
10
7.596948
20
3.065932
10
9.563607
20
2.188262
10
9.563607
20
2.188262
10
16.229896
20
-0.786734
10
16.897516
20
-0.488792
10
16.896833
20
-0.482854
10
16.892555
20
-0.430672
10
16.889986
20
-0.378377
10
16.889129
20
-0.326027
10
16.889986
20
-0.273676
10
16.892555
20
-0.221382
10
16.896833
20
-0.169200
10
16.902817
20
-0.117185
10
16.910500
20
-0.065394
10
16.919873
20
-0.013882
10
16.930926
20
0.037295
10
16.943648
20
0.088084
10
16.958024
20
0.138429
10
16.974041
20
0.188276
10
16.991679
20
0.237573
10
17.010922
20
0.286267
10
17.031747
20
0.334304
10
17.054133
20
0.381635
10
17.078055
20
0.428208
10
17.103488
20
0.473973
10
17.130405
20
0.518882
10
17.158778
20
0.562885
10
17.188574
20
0.605937
10
17.219764
20
0.647991
10
17.252312
20
0.689002
10
17.286185
20
0.728926
10
17.321346
20
0.767721
10
17.357758
20
0.805344
10
17.395381
20
0.841756
10
17.434176
20
0.876917
10
17.474100
20
0.910790
10
17.515111
20
0.943338
10
17.557165
20
0.974528
10
17.600217
20
1.004324
10
17.644220
20
1.032697
10
17.689129
20
1.059614
10
17.734894
20
1.085047
10
17.781467
20
1.108969
10
17.828798
20
1.131355
10
17.876835
20
1.152180
10
17.925529
20
1.171423
10
17.974826
20
1.189061
10
18.024673
20
1.205078
10
18.075018
20
1.219454
10
18.125807
20
1.232176
10
18.176984
20
1.243229
10
18.228496
20
1.252602
10
18.280287
20
1.260285
10
18.332302
20
1.266269
10
18.384484
20
1.270547
10
18.436778
20
1.273116
10
18.489129
20
1.273973
10
18.541479
20
1.273116
10
18.593774
20
1.270547
10
18.645956
20
1.266269
10
18.697971
20
1.260285
10
18.749762
20
1.252602
10
18.801273
20
1.243229
10
18.852451
20
1.232176
10
18.903239
20
1.219454
10
18.953584
20
1.205078
10
19.003432
20
1.189061
10
19.052729
20
1.171423
10
19.101422
20
1.152180
10
19.149460
20
1.131355
10
19.196791
20
1.108969
10
19.243364
20
1.085047
10
19.289129
20
1.059614
10
19.334038
20
1.032697
10
19.378041
20
1.004324
10
19.421093
20
0.974528
10
19.463147
20
0.943338
10
19.504158
20
0.910790
10
19.544082
20
0.876917
10
19.582877
20
0.841756
10
19.620500
20
0.805344
10
19.656911
20
0.767721
10
19.692073
20
0.728926
10
19.725946
20
0.689002
10
19.758494
20
0.647991
10
19.789684
20
0.605937
10
19.819480
20
0.562885
10
19.847852
20
0.518882
10
19.874770
20
0.473973
10
19.900203
20
0.428208
10
19.924125
20
0.381635
10
19.946511
20
0.334304
10
19.967336
20
0.286267
10
19.986578
20
0.237573
10
20.004217
20
0.188276
10
20.020233
20
0.138429
10
20.034610
20
0.088084
10
20.047332
20
0.037295
10
20.058385
20
-0.013882
10
20.067758
20
-0.065394
10
20.075441
20
-0.117185
10
20.081425
20
-0.169200
10
20.085703
20
-0.221382
10
20.088272
20
-0.273676
10
20.089129
20
-0.326027
10
20.088272
20
-0.378377
0
LWPOLYLINE
8
0
100
AcDbEntity
100
AcDbPolyline
90
183
70
1
10
10.569090
20
-0.535932
10
10.541550
20
-0.534054
10
10.513978
20
-0.532740
10
10.486385
20
-0.531990
10
10.458782
20
-0.531805
10
10.431181
20
-0.532183
10
10.403593
20
-0.533126
10
10.376031
20
-0.534633
10
10.348505
20
-0.536703
10
10.321028
20
-0.539336
10
10.293609
20
-0.542529
10
10.266262
20
-0.546283
10
10.238998
20
-0.550595
10
10.211827
20
-0.555463
10
10.184761
20
-0.560886
10
10.157812
20
-0.566862
10
10.130991
20
-0.573387
10
10.104309
20
-0.580459
10
10.077777
20
-0.588075
10
10.051406
20
-0.596232
10
10.025208
20
-0.604926
10
9.999192
20
-0.614154
10
9.973371
20
-0.623913
10
9.947755
20
-0.634197
10
9.922354
20
-0.645003
10
9.897180
20
-0.656325
10
9.872243
20
-0.668161
10
9.847552
20
-0.680503
10
9.823119
20
-0.693348
10
9.798954
20
-0.706690
10
9.775067
20
-0.720523
10
9.751467
20
-0.734841
10
9.728166
20
-0.749639
10
9.705171
20
-0.764911
10
9.682494
20
-0.780649
10
9.660143
20
-0.796847
10
9.638128
20
-0.813500
10
9.616458
20
-0.830599
10
9.595143
20
-0.848137
10
9.574190
20
-0.866108
10
9.553609
20
-0.884503
10
9.533409
20
-0.903315
10
9.513597
20
-0.922536
10
9.494183
20
-0.942158
10
9.475174
20
-0.962173
10
9.456578
20
-0.982573
10
9.438403
20
-1.003349
10
9.420656
20
-1.024491
10
9.403346
20
-1.045993
10
9.386479
20
-1.067843
10
9.370062
20
-1.090034
10
9.354102
20
-1.112556
10
9.338606
20
-1.135400
10
9.323580
20
-1.158555
10
9.309031
20
-1.182013
10
9.294965
20
-1.205764
10
9.281387
20
-1.229797
10
9.268303
20
-1.254103
10
9.255719
20
-1.278671
10
9.243640
20
-1.303492
10
9.232071
20
-1.328554
10
9.221017
20
-1.353847
10
9.210482
20
-1.379361
10
9.200472
20
-1.405086
10
9.190989
20
-1.431009
10
9.182038
20
-1.457121
10
9.173623
20
-1.483411
10
9.165747
20
-1.509867
10
9.158414
20
-1.536478
10
9.151626
20
-1.563234
10
9.145387
20
-1.590124
10
9.139699
20
-1.617135
10
9.134565
20
-1.644256
10
9.129986
20
-1.671478
10
9.125964
20
-1.698787
10
9.122502
20
-1.726172
10
9.119601
20
-1.753623
10
9.117261
20
-1.781127
10
9.115484
20
-1.808673
10
9.114271
20
-1.836250
10
9.113622
20
-1.863846
10
9.113537
20
-1.891449
10
9.114016
20
-1.919049
10
9.115060
20
-1.946632
10
9.116668
20
-1.974189
10
9.118838
20
-2.001707
10
9.121571
20
-2.029175
10
9.124865
20
-2.056581
10
9.128718
20
-2.083914
10
9.133130
20
-2.111163
10
9.138098
20
-2.138316
10
9.143619
20
-2.165361
10
9.149693
20
-2.192288
10
9.156316
20
-2.219086
10
9.163485
20
-2.245742
10
9.171198
20
-2.272246
10
9.179452
20
-2.298587
10
9.188242
20
-2.324753
10
9.197565
20
-2.350735
10
9.207418
20
-2.376520
10
9.217795
20
-2.402098
10
9.228694
20
-2.427459
10
9.240109
20
-2.452592
10
9.252035
20
-2.477486
10
9.264467
20
-2.502131
10
9.277401
20
-2.526517
10
9.290831
20
-2.550633
10
9.304751
20
-2.574470
10
9.319156
20
-2.598017
10
9.334039
20
-2.621264
10
9.349394
20
-2.644203
10
9.365215
20
-2.666823
10
9.381496
20
-2.689114
10
9.398228
20
-2.711068
10
9.415406
20
-2.732675
10
9.433022
20
-2.753927
10
9.451069
20
-2.774813
10
9.469539
20
-2.795327
10
9.488425
20
-2.815458
10
9.507719
20
-2.835200
10
9.527412
20
-2.854542
10
9.547496
20
-2.873478
10
9.567964
20
-2.892000
10
9.588805
20
-2.910099
10
9.610013
20
-2.927768
10
9.631577
20
-2.944999
10
9.653489
20
-2.961787
10
9.675740
20
-2.978122
10
9.698320
20
-2.994000
10
9.721220
20
-3.009412
10
9.744431
20
-3.024353
10
9.767942
20
-3.038816
10
9.791743
20
-3.052796
10
9.815826
20
-3.066286
10
9.840180
20
-3.079281
10
9.864794
20
-3.091775
10
9.889658
20
-3.103763
10
9.914762
20
-3.115241
10
9.940096
20
-3.126202
10
9.965648
20
-3.136644
10
9.991409
20
-3.146560
10
10.017367
20
-3.155948
10
10.043512
20
-3.164804
10
10.069832
20
-3.173123
10
10.096316
20
-3.180902
10
10.122955
20
-3.188138
10
10.149735
20
-3.194827
10
10.176647
20
-3.200968
10
10.203679
20
-3.206557
10
10.230819
20
-3.211593
10
10.258057
20
-3.216072
10
10.285380
20
-3.219994
10
10.312778
20
-3.223356
10
10.340239
20
-3.226157
10
10.367752
20
-3.228397
10
10.395304
20
-3.230073
10
10.422885
20
-3.231185
10
10.450483
20
-3.231734
10
10.478087
20
-3.231718
10
10.505684
20
-3.231137
10
10.533264
20
-3.229993
10
10.560815
20
-3.228285
10
10.588325
20
-3.226013
10
10.615782
20
-3.223180
10
10.643176
20
-3.219786
10
10.670495
20
-3.215833
10
10.697728
20
-3.211322
10
10.724862
20
-3.206255
10
10.751888
20
-3.200635
10
10.778792
20
-3.194463
10
10.805565
20
-3.187742
10
10.832195
20
-3.180475
10
10.858671
20
-3.172665
10
10.884981
20
-3.164316
10
10.911115
20
-3.155430
10
10.937062
20
-3.146012
10
10.962811
20
-3.136065
10
10.988352
20
-3.125594
10
11.013673
20
-3.114603
10
15.003004
20
-1.334265
10
13.967952
20
-0.872348
10
10.596585
20
-0.538372
10
10.569090
20
-0.535932
0
LWPOLYLINE
8
0
100
AcDbEntity
100
AcDbPolyline
90
183
70
1
10
1.077222
20
4.877679
10
1.051275
20
4.887097
10
1.025140
20
4.895983
10
0.998830
20
4.904332
10
0.972354
20
4.912142
10
0.945724
20
4.919409
10
0.918952
20
4.926130
10
0.892047
20
4.932302
10
0.865022
20
4.937922
10
0.837887
20
4.942989
10
0.810655
20
4.947500
10
0.783336
20
4.951454
10
0.755942
20
4.954847
10
0.728484
20
4.957681
10
0.700974
20
4.959952
10
0.673424
20
4.961660
10
0.645844
20
4.962804
10
0.618246
20
4.963385
10
0.590643
20
4.963401
10
0.563045
20
4.962852
10
0.535464
20
4.961740
10
0.507911
20
4.960064
10
0.480399
20
4.957824
10
0.452938
20
4.955023
10
0.425540
20
4.951661
10
0.398216
20
4.947739
10
0.370979
20
4.943260
10
0.343838
20
4.938225
10
0.316807
20
4.932635
10
0.289895
20
4.926494
10
0.263114
20
4.919805
10
0.236476
20
4.912569
10
0.209991
20
4.904790
10
0.183671
20
4.896471
10
0.157526
20
4.887616
10
0.131568
20
4.878228
10
0.105808
20
4.868311
10
0.080255
20
4.857869
10
0.054922
20
4.846908
10
0.029817
20
4.835430
10
0.004953
20
4.823442
10
-0.019661
20
4.810948
10
-0.044014
20
4.797953
10
-0.068097
20
4.784463
10
-0.091899
20
4.770484
10
-0.115410
20
4.756020
10
-0.138620
20
4.741079
10
-0.161520
20
4.725667
10
-0.184100
20
4.709790
10
-0.206351
20
4.693454
10
-0.228263
20
4.676667
10
-0.249828
20
4.659435
10
-0.271035
20
4.641766
10
-0.291877
20
4.623667
10
-0.312344
20
4.605145
10
-0.332429
20
4.586209
10
-0.352122
20
4.566867
10
-0.371415
20
4.547126
10
-0.390301
20
4.526994
10
-0.408771
20
4.506481
10
-0.426818
20
4.485594
10
-0.444434
20
4.464342
10
-0.461612
20
4.442735
10
-0.478345
20
4.420781
10
-0.494625
20
4.398490
10
-0.510446
20
4.375870
10
-0.525801
20
4.352932
10
-0.540684
20
4.329684
10
-0.555089
20
4.306137
10
-0.569009
20
4.282300
10
-0.582439
20
4.258184
10
-0.595373
20
4.233798
10
-0.607806
20
4.209153
10
-0.619732
20
4.184259
10
-0.631147
20
4.159126
10
-0.642045
20
4.133765
10
-0.652423
20
4.108187
10
-0.662275
20
4.082402
10
-0.671599
20
4.056420
10
-0.680389
20
4.030254
10
-0.688642
20
4.003913
10
-0.696355
20
3.977409
10
-0.703525
20
3.950753
10
-0.710147
20
3.923956
10
-0.716221
20
3.897029
10
-0.721743
20
3.869983
10
-0.726711
20
3.842830
10
-0.731122
20
3.815581
10
-0.734976
20
3.788248
10
-0.738270
20
3.760842
10
-0.741002
20
3.733374
10
-0.743173
20
3.705856
10
-0.744780
20
3.678299
10
-0.745824
20
3.650716
10
-0.746304
20
3.623116
10
-0.746219
20
3.595513
10
-0.745570
20
3.567917
10
-0.744356
20
3.540340
10
-0.742580
20
3.512794
10
-0.740240
20
3.485290
10
-0.737338
20
3.457839
10
-0.733876
20
3.430454
10
-0.729855
20
3.403145
10
-0.725276
20
3.375924
10
-0.720141
20
3.348802
10
-0.714453
20
3.321791
10
-0.708214
20
3.294902
10
-0.701427
20
3.268146
10
-0.694093
20
3.241534
10
-0.686218
20
3.215078
10
-0.677803
20
3.188788
10
-0.668852
20
3.162676
10
-0.659369
20
3.136753
10
-0.649358
20
3.111028
10
-0.638823
20
3.085514
10
-0.627769
20
3.060221
10
-0.616200
20
3.035159
10
-0.604121
20
3.010338
10
-0.591537
20
2.985770
10
-0.578454
20
2.961464
10
-0.564876
20
2.937431
10
-0.550809
20
2.913680
10
-0.536260
20
2.890222
10
-0.521235
20
2.867067
10
-0.505739
20
2.844223
10
-0.489779
20
2.821701
10
-0.473362
20
2.799510
10
-0.456495
20
2.777660
10
-0.439184
20
2.756158
10
-0.421438
20
2.735016
10
-0.403263
20
2.714240
10
-0.384667
20
2.693841
10
-0.365658
20
2.673825
10
-0.346243
20
2.654203
10
-0.326432
20
2.634982
10
-0.306231
20
2.616170
10
-0.285650
20
2.597775
10
-0.264698
20
2.579804
10
-0.243382
20
2.562266
10
-0.221712
20
2.545167
10
-0.199697
20
2.528515
10
-0.177347
20
2.512316
10
-0.154669
20
2.496578
10
-0.131675
20
2.481306
10
-0.108373
20
2.466508
10
-0.084774
20
2.452190
10
-0.060886
20
2.438357
10
-0.036721
20
2.425015
10
-0.012288
20
2.412170
10
0.012402
20
2.399828
10
0.037340
20
2.387993
10
0.062514
20
2.376670
10
0.087914
20
2.365864
10
0.113531
20
2.355580
10
0.139352
20
2.345822
10
0.165367
20
2.336593
10
0.191565
20
2.327899
10
0.217936
20
2.319742
10
0.244468
20
2.312126
10
0.271150
20
2.305054
10
0.297972
20
2.298529
10
0.324921
20
2.292553
10
0.351986
20
2.287130
10
0.379157
20
2.282262
10
0.406422
20
2.277950
10
0.433769
20
2.274196
10
0.461187
20
2.271003
10
0.488665
20
2.268370
10
0.516190
20
2.266300
10
0.543753
20
2.264793
10
0.571340
20
2.263851
10
0.598941
20
2.263472
10
0.626544
20
2.263657
10
0.654137
20
2.264407
10
0.681710
20
2.265722
10
0.709249
20
2.267599
10
0.736745
20
2.270039
10
4.108111
20
2.604015
10
5.143164
20
3.065932
10
1.153832
20
4.846270
10
1.128511
20
4.857261
10
1.102971
20
4.867732
10
1.077222
20
4.877679
0
ENDSEC
0
EOF
