999
side4_fwd_small (straight+4 loops, fwd, R=1.9 w_v)
0
SECTION
2
HEADER
9
$INSUNITS
70
4
0
ENDSEC
0
SECTION
2
ENTITIES
0
LWPOLYLINE
8
0
100
AcDbEntity
100
AcDbPolyline
90
3009
70
1
10
1.822695
20
-0.514303
10
1.805056
20
-0.563600
10
1.785814
20
-0.612293
10
1.764989
20
-0.660331
10
1.742603
20
-0.707662
10
1.718681
20
-0.754235
10
1.693248
20
-0.800000
10
1.666330
20
-0.844909
10
1.637958
20
-0.888912
10
1.608162
20
-0.931964
10
1.576972
20
-0.974018
10
1.544424
20
-1.015029
10
1.510551
20
-1.054953
10
1.475389
20
-1.093748
10
1.438978
20
-1.131371
10
1.401355
20
-1.167783
10
1.362560
20
-1.202944
10
1.322636
20
-1.236817
10
1.281625
20
-1.269365
10
1.239571
20
-1.300555
10
1.196519
20
-1.330351
10
1.152516
20
-1.358723
10
1.107607
20
-1.385641
10
1.061842
20
-1.411074
10
1.015269
20
-1.434996
10
0.967938
20
-1.457382
10
0.919900
20
-1.478207
10
0.871207
20
-1.497449
10
0.821910
20
-1.515088
10
0.772062
20
-1.531105
10
0.721717
20
-1.545481
10
0.670929
20
-1.558203
10
0.619751
20
-1.569256
10
0.568240
20
-1.578629
10
0.516449
20
-1.586312
10
0.464434
20
-1.592296
10
0.412252
20
-1.596574
10
0.359957
20
-1.599143
10
0.307607
20
-1.600000
10
0.255256
20
-1.599143
10
0.202962
20
-1.596574
10
0.150780
20
-1.592296
10
0.098765
20
-1.586312
10
0.046974
20
-1.578629
10
-0.004538
20
-1.569256
10
-0.055715
20
-1.558203
10
-0.106504
20
-1.545481
10
-0.156849
20
-1.531105
10
-0.206696
20
-1.515088
10
-0.255993
20
-1.497449
10
-0.304687
20
-1.478207
10
-0.352724
20
-1.457382
10
-0.400055
20
-1.434996
10
-0.446628
20
-1.411074
10
-0.492393
20
-1.385641
10
-0.537302
20
-1.358723
10
-0.581305
20
-1.330351
10
-0.624357
20
-1.300555
10
-0.666411
20
-1.269365
10
-0.707422
20
-1.236817
10
-0.747346
20
-1.202944
10
-0.786141
20
-1.167783
10
-0.823764
20
-1.131371
10
-0.860176
20
-1.093748
10
-0.895337
20
-1.054953
10
-0.929210
20
-1.015029
10
-0.961758
20
-0.974018
10
-0.992948
20
-0.931964
10
-1.022744
20
-0.888912
10
-1.051117
20
-0.844909
10
-1.078034
20
-0.800000
10
-1.103467
20
-0.754235
10
-1.127389
20
-0.707662
10
-1.149775
20
-0.660331
10
-1.170600
20
-0.612293
10
-1.189843
20
-0.563600
10
-1.207481
20
-0.514303
10
-1.223498
20
-0.464455
10
-1.237874
20
-0.414110
10
-1.250596
20
-0.363322
10
-1.261649
20
-0.312145
10
-1.271022
20
-0.260633
10
-1.278705
20
-0.208842
10
-1.284689
20
-0.156827
10
-1.288967
20
-0.104645
10
-1.291536
20
-0.052351
10
-1.292393
20
0.000000
10
-1.291536
20
0.052351
10
-1.288967
20
0.104645
10
-1.284689
20
0.156827
10
-1.278705
20
0.208842
10
-1.271022
20
0.260633
10
-1.261649
20
0.312145
10
-1.250596
20
0.363322
10
-1.237874
20
0.414110
10
-1.223498
20
0.464455
10
-1.207481
20
0.514303
10
-1.189843
20
0.563600
10
-1.170600
20
0.612293
10
-1.149775
20
0.660331
10
-1.127389
20
0.707662
10
-1.103467
20
0.754235
10
-1.078034
20
0.800000
10
-1.051117
20
0.844909
10
-1.022744
20
0.888912
10
-0.992948
20
0.931964
10
-0.961758
20
0.974018
10
-0.929210
20
1.015029
10
-0.895337
20
1.054953
10
-0.860176
20
1.093748
10
-0.823764
20
1.131371
10
-0.786141
20
1.167783
10
-0.747346
20
1.202944
10
-0.707422
20
1.236817
10
-0.666411
20
1.269365
10
-0.624357
20
1.300555
10
-0.581305
20
1.330351
10
-0.537302
20
1.358723
10
-0.492393
20
1.385641
10
-0.446628
20
1.411074
10
-0.400055
20
1.434996
10
-0.352724
20
1.457382
10
-0.304687
20
1.478207
10
-0.255993
20
1.497449
10
-0.206696
20
1.515088
10
-0.156849
20
1.531105
10
-0.106504
20
1.545481
10
-0.055715
20
1.558203
10
-0.004538
20
1.569256
10
0.046974
20
1.578629
10
0.098765
20
1.586312
10
0.150780
20
1.592296
10
0.186471
20
1.595222
10
0.184795
20
1.598801
10
0.180739
20
1.607581
10
0.176728
20
1.616382
10
0.172761
20
1.625203
10
0.168840
20
1.634044
10
0.164963
20
1.642906
10
0.161132
20
1.651786
10
0.157345
20
1.660686
10
0.153605
20
1.669606
10
0.149909
20
1.678544
10
0.146259
20
1.687501
10
0.142655
20
1.696476
10
0.139097
20
1.705470
10
0.135584
20
1.714481
10
0.132118
20
1.723511
10
0.128697
20
1.732558
10
0.125322
20
1.741622
10
0.121994
20
1.750703
10
0.118712
20
1.759801
10
0.115476
20
1.768916
10
0.112287
20
1.778047
10
0.109144
20
1.787194
10
0.106048
20
1.796357
10
0.102998
20
1.805536
10
0.099996
20
1.814730
10
0.097040
20
1.823939
10
0.094131
20
1.833163
10
0.091269
20
1.842402
10
0.088454
20
1.851655
10
0.085686
20
1.860923
10
0.082966
20
1.870204
10
0.080292
20
1.879499
10
0.077666
20
1.888808
10
0.075088
20
1.898130
10
0.072557
20
1.907465
10
0.070073
20
1.916813
10
0.067637
20
1.926173
10
0.065249
20
1.935545
10
0.062909
20
1.944930
10
0.060616
20
1.954326
10
0.058371
20
1.963734
10
0.056175
20
1.973153
10
0.054026
20
1.982584
10
0.051925
20
1.992025
10
0.049872
20
2.001476
10
0.047867
20
2.010938
10
0.045911
20
2.020410
10
0.044003
20
2.029892
10
0.042143
20
2.039384
10
0.040331
20
2.048884
10
0.038568
20
2.058394
10
0.036854
20
2.067913
10
0.035187
20
2.077440
10
0.033570
20
2.086976
10
0.032000
20
2.096520
10
0.030480
20
2.106072
10
0.029008
20
2.115631
10
0.027585
20
2.125198
10
0.026210
20
2.134772
10
0.024884
20
2.144352
10
0.023607
20
2.153940
10
0.022379
20
2.163533
10
0.021200
20
2.173133
10
0.020070
20
2.182739
10
0.018988
20
2.192350
10
0.017955
20
2.201967
10
0.016972
20
2.211589
10
0.016037
20
2.221215
10
0.015152
20
2.230847
10
0.014315
20
2.240482
10
0.013528
20
2.250122
10
0.012789
20
2.259766
10
0.012100
20
2.269413
10
0.011460
20
2.279064
10
0.010869
20
2.288718
10
0.010327
20
2.298375
10
0.009834
20
2.308034
10
0.009390
20
2.317696
10
0.008996
20
2.327360
10
0.008651
20
2.337026
10
0.008355
20
2.346693
10
0.008108
20
2.356362
10
0.007911
20
2.366032
10
0.007762
20
2.375703
10
0.007663
20
2.385374
10
0.007613
20
2.395046
10
0.007613
20
2.404718
10
0.007661
20
2.414390
10
0.007759
20
2.424062
10
0.007906
20
2.433732
10
0.008103
20
2.443402
10
0.008348
20
2.453071
10
0.008643
20
2.462739
10
0.008987
20
2.472405
10
0.009380
20
2.482069
10
0.009823
20
2.491730
10
0.010314
20
2.501390
10
0.010855
20
2.511047
10
0.011445
20
2.520701
10
0.012084
20
2.530352
10
0.012772
20
2.539999
10
0.013509
20
2.549643
10
0.014295
20
2.559283
10
0.015131
20
2.568919
10
0.016015
20
2.578550
10
0.016949
20
2.588177
10
0.017931
20
2.597799
10
0.018962
20
2.607416
10
0.020043
20
2.617027
10
0.021172
20
2.626633
10
0.022350
20
2.636233
10
0.023577
20
2.645827
10
0.024853
20
2.655414
10
0.026177
20
2.664995
10
0.027551
20
2.674569
10
0.028973
20
2.684136
10
0.030443
20
2.693696
10
0.031963
20
2.703247
10
0.033531
20
2.712792
10
0.035147
20
2.722327
10
0.036812
20
2.731855
10
0.038526
20
2.741374
10
0.040288
20
2.750884
10
0.042098
20
2.760385
10
0.043957
20
2.769877
10
0.045864
20
2.779359
10
0.047819
20
2.788831
10
0.049823
20
2.798293
10
0.051874
20
2.807745
10
0.053974
20
2.817187
10
0.056122
20
2.826617
10
0.058317
20
2.836037
10
0.060561
20
2.845445
10
0.062852
20
2.854841
10
0.065192
20
2.864226
10
0.067579
20
2.873599
10
0.070013
20
2.882960
10
0.072496
20
2.892308
10
0.075026
20
2.901643
10
0.077603
20
2.910965
10
0.080228
20
2.920274
10
0.082900
20
2.929570
10
0.085619
20
2.938851
10
0.088386
20
2.948119
10
0.091200
20
2.957373
10
0.094061
20
2.966612
10
0.096968
20
2.975837
10
0.099923
20
2.985046
10
0.102925
20
2.994241
10
0.105973
20
3.003420
10
0.109068
20
3.012583
10
0.112210
20
3.021731
10
0.115398
20
3.030862
10
0.118633
20
3.039977
10
0.121914
20
3.049076
10
0.125241
20
3.058157
10
0.128614
20
3.067222
10
0.132034
20
3.076269
10
0.135499
20
3.085299
10
0.139011
20
3.094311
10
0.142568
20
3.103305
10
0.146171
20
3.112281
10
0.149820
20
3.121238
10
0.153514
20
3.130177
10
0.157254
20
3.139097
10
0.161039
20
3.147997
10
0.164869
20
3.156878
10
0.168745
20
3.165740
10
0.172665
20
3.174582
10
0.176631
20
3.183403
10
0.180641
20
3.192205
10
0.184696
20
3.200986
10
0.188796
20
3.209746
10
0.192940
20
3.218485
10
0.197129
20
3.227203
10
0.201362
20
3.235899
10
0.205639
20
3.244574
10
0.209960
20
3.253227
10
0.214326
20
3.261858
10
0.218735
20
3.270466
10
0.223188
20
3.279052
10
0.227685
20
3.287615
10
0.232225
20
3.296156
10
0.236808
20
3.304672
10
0.241435
20
3.313166
10
0.246105
20
3.321636
10
0.250818
20
3.330082
10
0.255575
20
3.338503
10
0.260373
20
3.346901
10
0.265215
20
3.355274
10
0.270099
20
3.363622
10
0.275026
20
3.371945
10
0.279994
20
3.380244
10
0.285005
20
3.388516
10
0.290058
20
3.396763
10
0.295153
20
3.404984
10
0.300290
20
3.413180
10
0.305469
20
3.421349
10
0.310689
20
3.429491
10
0.315950
20
3.437607
10
0.321252
20
3.445696
10
0.326596
20
3.453757
10
0.331981
20
3.461792
10
0.337406
20
3.469799
10
0.342872
20
3.477778
10
0.348379
20
3.485729
10
0.353926
20
3.493653
10
0.359514
20
3.501547
10
0.365141
20
3.509414
10
0.370808
20
3.517251
10
0.376516
20
3.525060
10
0.382263
20
3.532839
10
0.388049
20
3.540589
10
0.393875
20
3.548310
10
0.399740
20
3.556001
10
0.405644
20
3.563662
10
0.411587
20
3.571292
10
0.417569
20
3.578892
10
0.423590
20
3.586462
10
0.429649
20
3.594001
10
0.435746
20
3.601509
10
0.441881
20
3.608986
10
0.448054
20
3.616432
10
0.454266
20
3.623846
10
0.460514
20
3.631228
10
0.466801
20
3.638579
10
0.473124
20
3.645897
10
0.479485
20
3.653183
10
0.485883
20
3.660437
10
0.492318
20
3.667658
10
0.498789
20
3.674846
10
0.505297
20
3.682001
10
0.511841
20
3.689123
10
0.518422
20
3.696211
10
0.525038
20
3.703266
10
0.531690
20
3.710287
10
0.538378
20
3.717274
10
0.545101
20
3.724227
10
0.551860
20
3.731146
10
0.558654
20
3.738030
10
0.565482
20
3.744880
10
0.572346
20
3.751694
10
0.579244
20
3.758474
10
0.586176
20
3.765218
10
0.593143
20
3.771928
10
0.600144
20
3.778601
10
0.607179
20
3.785239
10
0.614247
20
3.791841
10
0.621349
20
3.798406
10
0.628484
20
3.804936
10
0.635653
20
3.811429
10
0.642854
20
3.817886
10
0.650088
20
3.824306
10
0.657355
20
3.830689
10
0.664654
20
3.837034
10
0.671985
20
3.843343
10
0.679349
20
3.849614
10
0.686744
20
3.855848
10
0.694171
20
3.862044
10
0.701629
20
3.868202
10
0.709118
20
3.874322
10
0.716639
20
3.880404
10
0.724190
20
3.886447
10
0.731773
20
3.892452
10
0.739385
20
3.898418
10
0.747028
20
3.904346
10
0.754701
20
3.910234
10
0.762404
20
3.916084
10
0.770136
20
3.921894
10
0.777898
20
3.927664
10
0.785689
20
3.933395
10
0.793510
20
3.939086
10
0.801359
20
3.944738
10
0.809237
20
3.950349
10
0.817143
20
3.955920
10
0.825077
20
3.961451
10
0.833040
20
3.966942
10
0.841030
20
3.972391
10
0.849048
20
3.977800
10
0.857094
20
3.983168
10
0.865167
20
3.988496
10
0.873266
20
3.993782
10
0.881393
20
3.999026
10
0.889546
20
4.004229
10
0.897726
20
4.009391
10
0.905931
20
4.014511
10
0.914163
20
4.019589
10
0.922420
20
4.024625
10
0.930703
20
4.029619
10
0.939011
20
4.034571
10
0.947345
20
4.039481
10
0.955703
20
4.044348
10
0.964086
20
4.049172
10
0.972493
20
4.053954
10
0.980925
20
4.058692
10
0.989380
20
4.063388
10
0.997860
20
4.068041
10
1.006363
20
4.072650
10
1.014889
20
4.077216
10
1.023438
20
4.081739
10
1.032011
20
4.086218
10
1.040606
20
4.090653
10
1.049223
20
4.095045
10
1.057863
20
4.099393
10
1.066525
20
4.103696
10
1.075208
20
4.107956
10
1.083914
20
4.112171
10
1.092640
20
4.116342
10
1.101388
20
4.120468
10
1.110156
20
4.124550
10
1.118945
20
4.128587
10
1.127755
20
4.132579
10
1.136585
20
4.136527
10
1.145434
20
4.140429
10
1.154304
20
4.144286
10
1.163193
20
4.148098
10
1.172101
20
4.151865
10
1.181029
20
4.155587
10
1.189975
20
4.159262
10
1.198940
20
4.162893
10
1.207923
20
4.166477
10
1.216924
20
4.170016
10
1.225943
20
4.173509
10
1.234980
20
4.176956
10
1.244035
20
4.180357
10
1.253106
20
4.183712
10
1.262195
20
4.187021
10
1.271300
20
4.190283
10
1.280422
20
4.193499
10
1.289559
20
4.196668
10
1.298713
20
4.199791
10
1.307883
20
4.202868
10
1.317068
20
4.205897
10
1.326269
20
4.208880
10
1.335485
20
4.211816
10
1.344715
20
4.214705
10
1.353960
20
4.217546
10
1.363219
20
4.220341
10
1.372493
20
4.223089
10
1.381780
20
4.225789
10
1.391081
20
4.228442
10
1.400396
20
4.231048
10
1.409723
20
4.233606
10
1.419064
20
4.236117
10
1.428417
20
4.238580
10
1.437782
20
4.240996
10
1.447160
20
4.243363
10
1.456550
20
4.245683
10
1.465951
20
4.247956
10
1.475364
20
4.250180
10
1.484787
20
4.252356
10
1.494222
20
4.254485
10
1.503668
20
4.256565
10
1.513124
20
4.258597
10
1.522590
20
4.260581
10
1.532067
20
4.262517
10
1.541553
20
4.264405
10
1.551048
20
4.266244
10
1.560553
20
4.268035
10
1.570067
20
4.269777
10
1.579589
20
4.271471
10
1.589120
20
4.273117
10
1.598659
20
4.274714
10
1.608206
20
4.276262
10
1.617761
20
4.277762
10
1.627324
20
4.279213
10
1.636894
20
4.280615
10
1.646471
20
4.281969
10
1.656054
20
4.283274
10
1.665644
20
4.284530
10
1.675240
20
4.285737
10
1.684843
20
4.286896
10
1.694451
20
4.288005
10
1.704065
20
4.289066
10
1.713684
20
4.290078
10
1.723307
20
4.291040
10
1.732936
20
4.291954
10
1.742569
20
4.292819
10
1.752207
20
4.293634
10
1.761849
20
4.294401
10
1.771494
20
4.295118
10
1.781143
20
4.295787
10
1.790795
20
4.296406
10
1.800450
20
4.296976
10
1.810108
20
4.297497
10
1.819768
20
4.297968
10
1.829431
20
4.298391
10
1.839096
20
4.298764
10
1.848763
20
4.299089
10
1.858431
20
4.299363
10
1.868100
20
4.299589
10
1.877770
20
4.299766
10
1.887441
20
4.299893
10
1.897113
20
4.299971
10
1.906785
20
4.300000
10
1.916457
20
4.299979
10
1.926129
20
4.299910
10
1.935800
20
4.299791
10
1.945471
20
4.299623
10
1.955140
20
4.299405
10
1.964808
20
4.299139
10
1.974475
20
4.298823
10
1.984140
20
4.298458
10
1.993803
20
4.298044
10
2.003464
20
4.297580
10
2.013123
20
4.297068
10
2.022778
20
4.296506
10
2.032431
20
4.295895
10
2.042080
20
4.295235
10
2.051726
20
4.294526
10
2.061369
20
4.293768
10
2.071007
20
4.292961
10
2.080641
20
4.292104
10
2.090270
20
4.291199
10
2.099895
20
4.290245
10
2.109515
20
4.289241
10
2.119129
20
4.288189
10
2.128739
20
4.287088
10
2.138342
20
4.285938
10
2.147939
20
4.284739
10
2.157530
20
4.283491
10
2.167115
20
4.282194
10
2.176693
20
4.280849
10
2.186264
20
4.279455
10
2.195828
20
4.278012
10
2.205384
20
4.276520
10
2.214933
20
4.274980
10
2.224473
20
4.273392
10
2.234006
20
4.271754
10
2.243530
20
4.270068
10
2.253045
20
4.268334
10
2.262551
20
4.266552
10
2.272048
20
4.264721
10
2.281536
20
4.262841
10
2.291014
20
4.260914
10
2.300482
20
4.258938
10
2.309940
20
4.256914
10
2.319387
20
4.254842
10
2.328824
20
4.252721
10
2.338249
20
4.250553
10
2.347664
20
4.248337
10
2.357067
20
4.246073
10
2.366459
20
4.243761
10
2.375839
20
4.241401
10
2.385206
20
4.238994
10
2.394562
20
4.236539
10
2.403904
20
4.234036
10
2.413234
20
4.231486
10
2.422550
20
4.228889
10
2.431854
20
4.226243
10
2.441143
20
4.223551
10
2.450419
20
4.220812
10
2.459681
20
4.218025
10
2.468929
20
4.215191
10
2.478162
20
4.212310
10
2.487380
20
4.209382
10
2.496583
20
4.206407
10
2.505771
20
4.203386
10
2.514943
20
4.200317
10
2.524100
20
4.197202
10
2.533240
20
4.194041
10
2.542365
20
4.190833
10
2.551473
20
4.187578
10
2.560564
20
4.184278
10
2.569639
20
4.180931
10
2.578696
20
4.177538
10
2.587736
20
4.174098
10
2.596758
20
4.170613
10
2.605762
20
4.167082
10
2.614749
20
4.163505
10
2.623717
20
4.159883
10
2.632666
20
4.156214
10
2.641597
20
4.152501
10
2.650508
20
4.148742
10
2.659401
20
4.144937
10
2.668273
20
4.141088
10
2.677127
20
4.137193
10
2.685960
20
4.133253
10
2.694773
20
4.129269
10
2.703565
20
4.125239
10
2.712337
20
4.121165
10
2.721089
20
4.117046
10
2.729819
20
4.112883
10
2.738528
20
4.108675
10
2.747215
20
4.104423
10
2.755880
20
4.100127
10
2.764524
20
4.095787
10
2.773145
20
4.091403
10
2.781744
20
4.086975
10
2.790320
20
4.082503
10
2.798873
20
4.077988
10
2.807404
20
4.073429
10
2.815911
20
4.068827
10
2.824394
20
4.064182
10
2.832854
20
4.059493
10
2.841289
20
4.054762
10
2.849701
20
4.049988
10
2.858088
20
4.045171
10
2.866450
20
4.040311
10
2.874788
20
4.035409
10
2.883100
20
4.030464
10
2.891388
20
4.025477
10
2.899649
20
4.020448
10
2.907885
20
4.015377
10
2.916096
20
4.010264
10
2.924280
20
4.005110
10
2.932437
20
3.999913
10
2.940568
20
3.994676
10
2.948673
20
3.989397
10
2.956750
20
3.984077
10
2.964800
20
3.978716
10
2.972823
20
3.973313
10
2.980818
20
3.967871
10
2.988785
20
3.962387
10
2.996725
20
3.956863
10
3.004636
20
3.951299
10
3.012518
20
3.945694
10
3.020372
20
3.940050
10
3.028198
20
3.934365
10
3.035994
20
3.928641
10
3.043761
20
3.922877
10
3.051498
20
3.917074
10
3.059206
20
3.911231
10
3.066884
20
3.905349
10
3.074532
20
3.899429
10
3.082150
20
3.893469
10
3.089737
20
3.887471
10
3.097294
20
3.881434
10
3.104819
20
3.875358
10
3.112314
20
3.869245
10
3.119778
20
3.863093
10
3.127210
20
3.856904
10
3.134611
20
3.850676
10
3.141979
20
3.844412
10
3.149316
20
3.838109
10
3.156621
20
3.831770
10
3.163893
20
3.825393
10
3.171133
20
3.818980
10
3.178340
20
3.812529
10
3.185514
20
3.806042
10
3.192654
20
3.799519
10
3.199762
20
3.792959
10
3.206836
20
3.786363
10
3.213877
20
3.779732
10
3.220883
20
3.773064
10
3.227856
20
3.766361
10
3.234794
20
3.759623
10
3.241698
20
3.752849
10
3.248568
20
3.746040
10
3.255402
20
3.739197
10
3.262202
20
3.732319
10
3.268966
20
3.725406
10
3.275696
20
3.718459
10
3.282390
20
3.711477
10
3.289048
20
3.704462
10
3.295670
20
3.697413
10
3.302257
20
3.690330
10
3.308807
20
3.683214
10
3.315321
20
3.676064
10
3.321799
20
3.668882
10
6.165074
20
0.500000
10
8.757467
20
0.500000
10
8.465574
20
0.597058
10
8.456404
20
0.600133
10
8.447249
20
0.603255
10
8.438111
20
0.606423
10
8.428989
20
0.609638
10
8.419883
20
0.612899
10
8.410794
20
0.616207
10
8.401722
20
0.619561
10
8.392668
20
0.622960
10
8.383630
20
0.626406
10
8.374611
20
0.629898
10
8.365609
20
0.633436
10
8.356625
20
0.637019
10
8.347660
20
0.640649
10
8.338713
20
0.644323
10
8.329785
20
0.648044
10
8.320877
20
0.651809
10
8.311987
20
0.655620
10
8.303117
20
0.659477
10
8.294267
20
0.663378
10
8.285437
20
0.667324
10
8.276627
20
0.671315
10
8.267837
20
0.675351
10
8.259068
20
0.679432
10
8.250320
20
0.683557
10
8.241593
20
0.687727
10
8.232887
20
0.691941
10
8.224203
20
0.696200
10
8.215541
20
0.700502
10
8.206900
20
0.704849
10
8.198282
20
0.709239
10
8.189687
20
0.713673
10
8.181114
20
0.718151
10
8.172564
20
0.722673
10
8.164037
20
0.727238
10
8.155534
20
0.731846
10
8.147054
20
0.736498
10
8.138597
20
0.741193
10
8.130165
20
0.745931
10
8.121757
20
0.750711
10
8.113374
20
0.755534
10
8.105015
20
0.760400
10
8.096681
20
0.765309
10
8.088372
20
0.770260
10
8.080089
20
0.775253
10
8.071831
20
0.780288
10
8.063598
20
0.785365
10
8.055392
20
0.790484
10
8.047212
20
0.795644
10
8.039058
20
0.800847
10
8.030931
20
0.806090
10
8.022831
20
0.811375
10
8.014757
20
0.816701
10
8.006711
20
0.822068
10
7.998692
20
0.827477
10
7.990701
20
0.832925
10
7.982738
20
0.838415
10
7.974803
20
0.843945
10
7.966896
20
0.849515
10
7.959017
20
0.855125
10
7.951167
20
0.860776
10
7.943346
20
0.866466
10
7.935554
20
0.872196
10
7.927792
20
0.877965
10
7.920059
20
0.883774
10
7.912355
20
0.889623
10
7.904681
20
0.895510
10
7.897038
20
0.901437
10
7.889425
20
0.907402
10
7.881842
20
0.913406
10
7.874290
20
0.919449
10
7.866768
20
0.925529
10
7.859278
20
0.931649
10
7.851819
20
0.937806
10
7.844391
20
0.944001
10
7.836995
20
0.950233
10
7.829631
20
0.956504
10
7.822299
20
0.962811
10
7.814999
20
0.969156
10
7.807732
20
0.975538
10
7.800497
20
0.981957
10
7.793295
20
0.988413
10
7.786126
20
0.994905
10
7.778989
20
1.001434
10
7.771887
20
1.007999
10
7.764817
20
1.014600
10
7.757782
20
1.021237
10
7.750780
20
1.027910
10
7.743813
20
1.034618
10
7.736879
20
1.041361
10
7.729980
20
1.048140
10
7.723116
20
1.054954
10
7.716286
20
1.061803
10
7.709492
20
1.068686
10
7.702732
20
1.075604
10
7.696008
20
1.082556
10
7.689319
20
1.089542
10
7.682666
20
1.096562
10
7.676049
20
1.103617
10
7.669468
20
1.110704
10
7.662923
20
1.117825
10
7.656414
20
1.124979
10
7.649942
20
1.132167
10
7.643506
20
1.139387
10
7.637108
20
1.146640
10
7.630746
20
1.153925
10
7.624421
20
1.161243
10
7.618134
20
1.168592
10
7.611884
20
1.175974
10
7.605672
20
1.183387
10
7.599498
20
1.190832
10
7.593362
20
1.198308
10
7.587264
20
1.205816
10
7.581204
20
1.213354
10
7.575182
20
1.220923
10
7.569200
20
1.228522
10
7.563256
20
1.236152
10
7.557350
20
1.243812
10
7.551484
20
1.251502
10
7.545658
20
1.259222
10
7.539870
20
1.266972
10
7.534122
20
1.274750
10
7.528414
20
1.282558
10
7.522746
20
1.290395
10
7.517117
20
1.298261
10
7.511529
20
1.306155
10
7.505981
20
1.314077
10
7.500473
20
1.322028
10
7.495006
20
1.330007
10
7.489579
20
1.338013
10
7.484194
20
1.346047
10
7.478849
20
1.354108
10
7.473546
20
1.362196
10
7.468283
20
1.370311
10
7.463062
20
1.378453
10
7.457883
20
1.386621
10
7.452745
20
1.394816
10
7.447649
20
1.403036
10
7.442595
20
1.411283
10
7.437583
20
1.419555
10
7.432613
20
1.427852
10
7.427685
20
1.436175
10
7.422800
20
1.444522
10
7.417958
20
1.452895
10
7.413158
20
1.461292
10
7.408401
20
1.469713
10
7.403687
20
1.478158
10
7.399016
20
1.486628
10
7.394388
20
1.495120
10
7.389803
20
1.503637
10
7.385262
20
1.512176
10
7.380764
20
1.520739
10
7.376310
20
1.529324
10
7.371900
20
1.537932
10
7.367533
20
1.546563
10
7.363211
20
1.555215
10
7.358932
20
1.563889
10
7.354698
20
1.572585
10
7.350509
20
1.581303
10
7.346363
20
1.590041
10
7.342262
20
1.598801
10
7.338206
20
1.607581
10
7.334195
20
1.616382
10
7.330228
20
1.625203
10
7.326307
20
1.634044
10
7.322430
20
1.642906
10
7.318599
20
1.651786
10
7.314812
20
1.660686
10
7.311072
20
1.669606
10
7.307376
20
1.678544
10
7.303727
20
1.687501
10
7.300122
20
1.696476
10
7.296564
20
1.705470
10
7.293051
20
1.714481
10
7.289585
20
1.723511
10
7.286164
20
1.732558
10
7.282789
20
1.741622
10
7.279461
20
1.750703
10
7.276179
20
1.759801
10
7.272943
20
1.768916
10
7.269754
20
1.778047
10
7.266611
20
1.787194
10
7.263515
20
1.796357
10
7.260465
20
1.805536
10
7.257463
20
1.814730
10
7.254507
20
1.823939
10
7.251598
20
1.833163
10
7.248736
20
1.842402
10
7.245921
20
1.851655
10
7.243153
20
1.860923
10
7.240433
20
1.870204
10
7.237759
20
1.879499
10
7.235133
20
1.888808
10
7.232555
20
1.898130
10
7.230024
20
1.907465
10
7.227540
20
1.916813
10
7.225104
20
1.926173
10
7.222716
20
1.935545
10
7.220376
20
1.944930
10
7.218083
20
1.954326
10
7.215838
20
1.963734
10
7.213642
20
1.973153
10
7.211493
20
1.982584
10
7.209392
20
1.992025
10
7.207339
20
2.001476
10
7.205335
20
2.010938
10
7.203378
20
2.020410
10
7.201470
20
2.029892
10
7.199610
20
2.039384
10
7.197798
20
2.048884
10
7.196035
20
2.058394
10
7.194321
20
2.067913
10
7.192654
20
2.077440
10
7.191037
20
2.086976
10
7.189467
20
2.096520
10
7.187947
20
2.106072
10
7.186475
20
2.115631
10
7.185052
20
2.125198
10
7.183677
20
2.134772
10
7.182351
20
2.144352
10
7.181074
20
2.153940
10
7.179846
20
2.163533
10
7.178667
20
2.173133
10
7.177537
20
2.182739
10
7.176455
20
2.192350
10
7.175422
20
2.201967
10
7.174439
20
2.211589
10
7.173504
20
2.221215
10
7.172619
20
2.230847
10
7.171782
20
2.240482
10
7.170995
20
2.250122
10
7.170256
20
2.259766
10
7.169567
20
2.269413
10
7.168927
20
2.279064
10
7.168336
20
2.288718
10
7.167794
20
2.298375
10
7.167301
20
2.308034
10
7.166857
20
2.317696
10
7.166463
20
2.327360
10
7.166118
20
2.337026
10
7.165822
20
2.346693
10
7.165575
20
2.356362
10
7.165378
20
2.366032
10
7.165229
20
2.375703
10
7.165130
20
2.385374
10
7.165080
20
2.395046
10
7.165080
20
2.404718
10
7.165128
20
2.414390
10
7.165226
20
2.424062
10
7.165373
20
2.433732
10
7.165570
20
2.443402
10
7.165815
20
2.453071
10
7.166110
20
2.462739
10
7.166454
20
2.472405
10
7.166847
20
2.482069
10
7.167290
20
2.491730
10
7.167781
20
2.501390
10
7.168322
20
2.511047
10
7.168912
20
2.520701
10
7.169551
20
2.530352
10
7.170239
20
2.539999
10
7.170976
20
2.549643
10
7.171762
20
2.559283
10
7.172598
20
2.568919
10
7.173482
20
2.578550
10
7.174416
20
2.588177
10
7.175398
20
2.597799
10
7.176429
20
2.607416
10
7.177510
20
2.617027
10
7.178639
20
2.626633
10
7.179817
20
2.636233
10
7.181044
20
2.645827
10
7.182320
20
2.655414
10
7.183644
20
2.664995
10
7.185018
20
2.674569
10
7.186440
20
2.684136
10
7.187910
20
2.693696
10
7.189430
20
2.703247
10
7.190998
20
2.712792
10
7.192614
20
2.722327
10
7.194279
20
2.731855
10
7.195993
20
2.741374
10
7.197755
20
2.750884
10
7.199565
20
2.760385
10
7.201424
20
2.769877
10
7.203331
20
2.779359
10
7.205286
20
2.788831
10
7.207290
20
2.798293
10
7.209341
20
2.807745
10
7.211441
20
2.817187
10
7.213589
20
2.826617
10
7.215784
20
2.836037
10
7.218028
20
2.845445
10
7.220319
20
2.854841
10
7.222659
20
2.864226
10
7.225046
20
2.873599
10
7.227480
20
2.882960
10
7.229963
20
2.892308
10
7.232493
20
2.901643
10
7.235070
20
2.910965
10
7.237695
20
2.920274
10
7.240367
20
2.929570
10
7.243086
20
2.938851
10
7.245853
20
2.948119
10
7.248667
20
2.957373
10
7.251528
20
2.966612
10
7.254435
20
2.975837
10
7.257390
20
2.985046
10
7.260392
20
2.994241
10
7.263440
20
3.003420
10
7.266535
20
3.012583
10
7.269677
20
3.021731
10
7.272865
20
3.030862
10
7.276100
20
3.039977
10
7.279381
20
3.049076
10
7.282708
20
3.058157
10
7.286081
20
3.067222
10
7.289501
20
3.076269
10
7.292966
20
3.085299
10
7.296478
20
3.094311
10
7.300035
20
3.103305
10
7.303638
20
3.112281
10
7.307287
20
3.121238
10
7.310981
20
3.130177
10
7.314721
20
3.139097
10
7.318506
20
3.147997
10
7.322336
20
3.156878
10
7.326212
20
3.165740
10
7.330132
20
3.174582
10
7.334098
20
3.183403
10
7.338108
20
3.192205
10
7.342163
20
3.200986
10
7.346263
20
3.209746
10
7.350407
20
3.218485
10
7.354596
20
3.227203
10
7.358829
20
3.235899
10
7.363106
20
3.244574
10
7.367427
20
3.253227
10
7.371793
20
3.261858
10
7.376202
20
3.270466
10
7.380655
20
3.279052
10
7.385152
20
3.287615
10
7.389692
20
3.296156
10
7.394275
20
3.304672
10
7.398902
20
3.313166
10
7.403572
20
3.321636
10
7.408285
20
3.330082
10
7.413042
20
3.338503
10
7.417840
20
3.346901
10
7.422682
20
3.355274
10
7.427566
20
3.363622
10
7.432493
20
3.371945
10
7.437461
20
3.380244
10
7.442472
20
3.388516
10
7.447525
20
3.396763
10
7.452620
20
3.404984
10
7.457757
20
3.413180
10
7.462936
20
3.421349
10
7.468156
20
3.429491
10
7.473417
20
3.437607
10
7.478719
20
3.445696
10
7.484063
20
3.453757
10
7.489448
20
3.461792
10
7.494873
20
3.469799
10
7.500339
20
3.477778
10
7.505846
20
3.485729
10
7.511393
20
3.493653
10
7.516981
20
3.501547
10
7.522608
20
3.509414
10
7.528275
20
3.517251
10
7.533983
20
3.525060
10
7.539730
20
3.532839
10
7.545516
20
3.540589
10
7.551342
20
3.548310
10
7.557207
20
3.556001
10
7.563111
20
3.563662
10
7.569054
20
3.571292
10
7.575036
20
3.578892
10
7.581057
20
3.586462
10
7.587116
20
3.594001
10
7.593213
20
3.601509
10
7.599348
20
3.608986
10
7.605521
20
3.616432
10
7.611733
20
3.623846
10
7.617981
20
3.631228
10
7.624268
20
3.638579
10
7.630591
20
3.645897
10
7.636952
20
3.653183
10
7.643350
20
3.660437
10
7.649785
20
3.667658
10
7.656256
20
3.674846
10
7.662764
20
3.682001
10
7.669308
20
3.689123
10
7.675889
20
3.696211
10
7.682505
20
3.703266
10
7.689157
20
3.710287
10
7.695845
20
3.717274
10
7.702568
20
3.724227
10
7.709327
20
3.731146
10
7.716121
20
3.738030
10
7.722949
20
3.744880
10
7.729813
20
3.751694
10
7.736711
20
3.758474
10
7.743643
20
3.765218
10
7.750610
20
3.771928
10
7.757611
20
3.778601
10
7.764646
20
3.785239
10
7.771714
20
3.791841
10
7.778816
20
3.798406
10
7.785951
20
3.804936
10
7.793120
20
3.811429
10
7.800321
20
3.817886
10
7.807555
20
3.824306
10
7.814822
20
3.830689
10
7.822121
20
3.837034
10
7.829452
20
3.843343
10
7.836816
20
3.849614
10
7.844211
20
3.855848
10
7.851638
20
3.862044
10
7.859096
20
3.868202
10
7.866586
20
3.874322
10
7.874106
20
3.880404
10
7.881657
20
3.886447
10
7.889240
20
3.892452
10
7.896852
20
3.898418
10
7.904495
20
3.904346
10
7.912168
20
3.910234
10
7.919871
20
3.916084
10
7.927603
20
3.921894
10
7.935365
20
3.927664
10
7.943156
20
3.933395
10
7.950977
20
3.939086
10
7.958826
20
3.944738
10
7.966704
20
3.950349
10
7.974610
20
3.955920
10
7.982544
20
3.961451
10
7.990507
20
3.966942
10
7.998497
20
3.972391
10
8.006515
20
3.977800
10
8.014561
20
3.983168
10
8.022634
20
3.988496
10
8.030733
20
3.993782
10
8.038860
20
3.999026
10
8.047013
20
4.004229
10
8.055193
20
4.009391
10
8.063398
20
4.014511
10
8.071630
20
4.019589
10
8.079887
20
4.024625
10
8.088170
20
4.029619
10
8.096479
20
4.034571
10
8.104812
20
4.039481
10
8.113170
20
4.044348
10
8.121553
20
4.049172
10
8.129960
20
4.053954
10
8.138392
20
4.058692
10
8.146847
20
4.063388
10
8.155327
20
4.068041
10
8.163830
20
4.072650
10
8.172356
20
4.077216
10
8.180905
20
4.081739
10
8.189478
20
4.086218
10
8.198073
20
4.090653
10
8.206690
20
4.095045
10
8.215330
20
4.099393
10
8.223992
20
4.103696
10
8.232675
20
4.107956
10
8.241381
20
4.112171
10
8.250107
20
4.116342
10
8.258855
20
4.120468
10
8.267623
20
4.124550
10
8.276412
20
4.128587
10
8.285222
20
4.132579
10
8.294052
20
4.136527
10
8.302901
20
4.140429
10
8.311771
20
4.144286
10
8.320660
20
4.148098
10
8.329568
20
4.151865
10
8.338496
20
4.155587
10
8.347442
20
4.159262
10
8.356407
20
4.162893
10
8.365390
20
4.166477
10
8.374391
20
4.170016
10
8.383411
20
4.173509
10
8.392447
20
4.176956
10
8.401502
20
4.180357
10
8.410573
20
4.183712
10
8.419662
20
4.187021
10
8.428767
20
4.190283
10
8.437889
20
4.193499
10
8.447026
20
4.196668
10
8.456180
20
4.199791
10
8.465350
20
4.202868
10
8.474535
20
4.205897
10
8.483736
20
4.208880
10
8.492952
20
4.211816
10
8.502182
20
4.214705
10
8.511427
20
4.217546
10
8.520686
20
4.220341
10
8.529960
20
4.223089
10
8.539247
20
4.225789
10
8.548548
20
4.228442
10
8.557863
20
4.231048
10
8.567190
20
4.233606
10
8.576531
20
4.236117
10
8.585884
20
4.238580
10
8.595249
20
4.240996
10
8.604627
20
4.243363
10
8.614017
20
4.245683
10
8.623418
20
4.247956
10
8.632831
20
4.250180
10
8.642255
20
4.252356
10
8.651689
20
4.254485
10
8.661135
20
4.256565
10
8.670591
20
4.258597
10
8.680057
20
4.260581
10
8.689534
20
4.262517
10
8.699020
20
4.264405
10
8.708515
20
4.266244
10
8.718020
20
4.268035
10
8.727534
20
4.269777
10
8.737056
20
4.271471
10
8.746587
20
4.273117
10
8.756126
20
4.274714
10
8.765674
20
4.276262
10
8.775228
20
4.277762
10
8.784791
20
4.279213
10
8.794361
20
4.280615
10
8.803938
20
4.281969
10
8.813521
20
4.283274
10
8.823111
20
4.284530
10
8.832707
20
4.285737
10
8.842310
20
4.286896
10
8.851918
20
4.288005
10
8.861532
20
4.289066
10
8.871151
20
4.290078
10
8.880774
20
4.291040
10
8.890403
20
4.291954
10
8.900036
20
4.292819
10
8.909674
20
4.293634
10
8.919316
20
4.294401
10
8.928961
20
4.295118
10
8.938610
20
4.295787
10
8.948262
20
4.296406
10
8.957917
20
4.296976
10
8.967575
20
4.297497
10
8.977235
20
4.297968
10
8.986898
20
4.298391
10
8.996563
20
4.298764
10
9.006230
20
4.299089
10
9.015898
20
4.299363
10
9.025567
20
4.299589
10
9.035237
20
4.299766
10
9.044908
20
4.299893
10
9.054580
20
4.299971
10
9.064252
20
4.300000
10
9.073924
20
4.299979
10
9.083596
20
4.299910
10
9.093267
20
4.299791
10
9.102938
20
4.299623
10
9.112607
20
4.299405
10
9.122275
20
4.299139
10
9.131942
20
4.298823
10
9.141607
20
4.298458
10
9.151270
20
4.298044
10
9.160931
20
4.297580
10
9.170590
20
4.297068
10
9.180245
20
4.296506
10
9.189898
20
4.295895
10
9.199547
20
4.295235
10
9.209193
20
4.294526
10
9.218836
20
4.293768
10
9.228474
20
4.292961
10
9.238108
20
4.292104
10
9.247737
20
4.291199
10
9.257362
20
4.290245
10
9.266982
20
4.289241
10
9.276596
20
4.288189
10
9.286206
20
4.287088
10
9.295809
20
4.285938
10
9.305406
20
4.284739
10
9.314997
20
4.283491
10
9.324582
20
4.282194
10
9.334160
20
4.280849
10
9.343731
20
4.279455
10
9.353295
20
4.278012
10
9.362851
20
4.276520
10
9.372400
20
4.274980
10
9.381940
20
4.273392
10
9.391473
20
4.271754
10
9.400997
20
4.270068
10
9.410512
20
4.268334
10
9.420018
20
4.266552
10
9.429515
20
4.264721
10
9.439003
20
4.262841
10
9.448481
20
4.260914
10
9.457949
20
4.258938
10
9.467407
20
4.256914
10
9.476854
20
4.254842
10
9.486291
20
4.252721
10
9.495717
20
4.250553
10
9.505131
20
4.248337
10
9.514534
20
4.246073
10
9.523926
20
4.243761
10
9.533306
20
4.241401
10
9.542673
20
4.238994
10
9.552029
20
4.236539
10
9.561371
20
4.234036
10
9.570701
20
4.231486
10
9.580017
20
4.228889
10
9.589321
20
4.226243
10
9.598610
20
4.223551
10
9.607886
20
4.220812
10
9.617148
20
4.218025
10
9.626396
20
4.215191
10
9.635629
20
4.212310
10
9.644847
20
4.209382
10
9.654050
20
4.206407
10
9.663238
20
4.203386
10
9.672410
20
4.200317
10
9.681567
20
4.197202
10
9.690707
20
4.194041
10
9.699832
20
4.190833
10
9.708940
20
4.187578
10
9.718031
20
4.184278
10
9.727106
20
4.180931
10
9.736163
20
4.177538
10
9.745203
20
4.174098
10
9.754225
20
4.170613
10
9.763229
20
4.167082
10
9.772216
20
4.163505
10
9.781184
20
4.159883
10
9.790133
20
4.156214
10
9.799064
20
4.152501
10
9.807975
20
4.148742
10
9.816868
20
4.144937
10
9.825740
20
4.141088
10
9.834594
20
4.137193
10
9.843427
20
4.133253
10
9.852240
20
4.129269
10
9.861032
20
4.125239
10
9.869805
20
4.121165
10
9.878556
20
4.117046
10
9.887286
20
4.112883
10
9.895995
20
4.108675
10
9.904682
20
4.104423
10
9.913347
20
4.100127
10
9.921991
20
4.095787
10
9.930612
20
4.091403
10
9.939211
20
4.086975
10
9.947787
20
4.082503
10
9.956340
20
4.077988
10
9.964871
20
4.073429
10
9.973378
20
4.068827
10
9.981861
20
4.064182
10
9.990321
20
4.059493
10
9.998756
20
4.054762
10
10.007168
20
4.049988
10
10.015555
20
4.045171
10
10.023917
20
4.040311
10
10.032255
20
4.035409
10
10.040567
20
4.030464
10
10.048855
20
4.025477
10
10.057116
20
4.020448
10
10.065352
20
4.015377
10
10.073563
20
4.010264
10
10.081747
20
4.005110
10
10.089904
20
3.999913
10
10.098035
20
3.994676
10
10.106140
20
3.989397
10
10.114217
20
3.984077
10
10.122267
20
3.978716
10
10.130290
20
3.973313
10
10.138285
20
3.967871
10
10.146252
20
3.962387
10
10.154192
20
3.956863
10
10.162103
20
3.951299
10
10.169985
20
3.945694
10
10.177839
20
3.940050
10
10.185665
20
3.934365
10
10.193461
20
3.928641
10
10.201228
20
3.922877
10
10.208965
20
3.917074
10
10.216673
20
3.911231
10
10.224351
20
3.905349
10
10.231999
20
3.899429
10
10.239617
20
3.893469
10
10.247204
20
3.887471
10
10.254761
20
3.881434
10
10.262286
20
3.875358
10
10.269781
20
3.869245
10
10.277245
20
3.863093
10
10.284677
20
3.856904
10
10.292078
20
3.850676
10
10.299446
20
3.844412
10
10.306783
20
3.838109
10
10.314088
20
3.831770
10
10.321360
20
3.825393
10
10.328600
20
3.818980
10
10.335807
20
3.812529
10
10.342981
20
3.806042
10
10.350122
20
3.799519
10
10.357229
20
3.792959
10
10.364303
20
3.786363
10
10.371344
20
3.779732
10
10.378350
20
3.773064
10
10.385323
20
3.766361
10
10.392261
20
3.759623
10
10.399165
20
3.752849
10
10.406035
20
3.746040
10
10.412869
20
3.739197
10
10.419669
20
3.732319
10
10.426434
20
3.725406
10
10.433163
20
3.718459
10
10.439857
20
3.711477
10
10.446515
20
3.704462
10
10.453137
20
3.697413
10
10.459724
20
3.690330
10
10.466274
20
3.683214
10
10.472788
20
3.676064
10
10.479266
20
3.668882
10
13.322541
20
0.500000
10
15.914934
20
0.500000
10
15.623041
20
0.597058
10
15.613871
20
0.600133
10
15.604716
20
0.603255
10
15.595578
20
0.606423
10
15.586456
20
0.609638
10
15.577350
20
0.612899
10
15.568261
20
0.616207
10
15.559189
20
0.619561
10
15.550135
20
0.622960
10
15.541097
20
0.626406
10
15.532078
20
0.629898
10
15.523076
20
0.633436
10
15.514092
20
0.637019
10
15.505127
20
0.640649
10
15.496180
20
0.644323
10
15.487253
20
0.648044
10
15.478344
20
0.651809
10
15.469454
20
0.655620
10
15.460584
20
0.659477
10
15.451734
20
0.663378
10
15.442904
20
0.667324
10
15.434094
20
0.671315
10
15.425304
20
0.675351
10
15.416535
20
0.679432
10
15.407787
20
0.683557
10
15.399060
20
0.687727
10
15.390354
20
0.691941
10
15.381670
20
0.696200
10
15.373008
20
0.700502
10
15.364367
20
0.704849
10
15.355749
20
0.709239
10
15.347154
20
0.713673
10
15.338581
20
0.718151
10
15.330031
20
0.722673
10
15.321504
20
0.727238
10
15.313001
20
0.731846
10
15.304521
20
0.736498
10
15.296064
20
0.741193
10
15.287632
20
0.745931
10
15.279224
20
0.750711
10
15.270841
20
0.755534
10
15.262482
20
0.760400
10
15.254148
20
0.765309
10
15.245839
20
0.770260
10
15.237556
20
0.775253
10
15.229298
20
0.780288
10
15.221065
20
0.785365
10
15.212859
20
0.790484
10
15.204679
20
0.795644
10
15.196525
20
0.800847
10
15.188398
20
0.806090
10
15.180298
20
0.811375
10
15.172224
20
0.816701
10
15.164178
20
0.822068
10
15.156159
20
0.827477
10
15.148168
20
0.832925
10
15.140205
20
0.838415
10
15.132270
20
0.843945
10
15.124363
20
0.849515
10
15.116484
20
0.855125
10
15.108634
20
0.860776
10
15.100813
20
0.866466
10
15.093021
20
0.872196
10
15.085259
20
0.877965
10
15.077526
20
0.883774
10
15.069822
20
0.889623
10
15.062148
20
0.895510
10
15.054505
20
0.901437
10
15.046892
20
0.907402
10
15.039309
20
0.913406
10
15.031757
20
0.919449
10
15.024235
20
0.925529
10
15.016745
20
0.931649
10
15.009286
20
0.937806
10
15.001858
20
0.944001
10
14.994462
20
0.950233
10
14.987098
20
0.956504
10
14.979766
20
0.962811
10
14.972466
20
0.969156
10
14.965199
20
0.975538
10
14.957964
20
0.981957
10
14.950762
20
0.988413
10
14.943593
20
0.994905
10
14.936456
20
1.001434
10
14.929354
20
1.007999
10
14.922285
20
1.014600
10
14.915249
20
1.021237
10
14.908247
20
1.027910
10
14.901280
20
1.034618
10
14.894346
20
1.041361
10
14.887447
20
1.048140
10
14.880583
20
1.054954
10
14.873754
20
1.061803
10
14.866959
20
1.068686
10
14.860199
20
1.075604
10
14.853475
20
1.082556
10
14.846787
20
1.089542
10
14.840133
20
1.096562
10
14.833516
20
1.103617
10
14.826935
20
1.110704
10
14.820390
20
1.117825
10
14.813881
20
1.124979
10
14.807409
20
1.132167
10
14.800973
20
1.139387
10
14.794575
20
1.146640
10
14.788213
20
1.153925
10
14.781888
20
1.161243
10
14.775601
20
1.168592
10
14.769351
20
1.175974
10
14.763139
20
1.183387
10
14.756965
20
1.190832
10
14.750829
20
1.198308
10
14.744731
20
1.205816
10
14.738671
20
1.213354
10
14.732649
20
1.220923
10
14.726667
20
1.228522
10
14.720723
20
1.236152
10
14.714817
20
1.243812
10
14.708951
20
1.251502
10
14.703125
20
1.259222
10
14.697337
20
1.266972
10
14.691589
20
1.274750
10
14.685881
20
1.282558
10
14.680213
20
1.290395
10
14.674584
20
1.298261
10
14.668996
20
1.306155
10
14.663448
20
1.314077
10
14.657940
20
1.322028
10
14.652473
20
1.330007
10
14.647046
20
1.338013
10
14.641661
20
1.346047
10
14.636316
20
1.354108
10
14.631013
20
1.362196
10
14.625750
20
1.370311
10
14.620529
20
1.378453
10
14.615350
20
1.386621
10
14.610212
20
1.394816
10
14.605116
20
1.403036
10
14.600062
20
1.411283
10
14.595050
20
1.419555
10
14.590080
20
1.427852
10
14.585153
20
1.436175
10
14.580267
20
1.444522
10
14.575425
20
1.452895
10
14.570625
20
1.461292
10
14.565868
20
1.469713
10
14.561154
20
1.478158
10
14.556483
20
1.486628
10
14.551855
20
1.495120
10
14.547270
20
1.503637
10
14.542729
20
1.512176
10
14.538231
20
1.520739
10
14.533777
20
1.529324
10
14.529367
20
1.537932
10
14.525000
20
1.546563
10
14.520678
20
1.555215
10
14.516400
20
1.563889
10
14.512165
20
1.572585
10
14.507976
20
1.581303
10
14.503830
20
1.590041
10
14.499729
20
1.598801
10
14.495673
20
1.607581
10
14.491662
20
1.616382
10
14.487695
20
1.625203
10
14.483774
20
1.634044
10
14.479897
20
1.642906
10
14.476066
20
1.651786
10
14.472279
20
1.660686
10
14.468539
20
1.669606
10
14.464843
20
1.678544
10
14.461194
20
1.687501
10
14.457589
20
1.696476
10
14.454031
20
1.705470
10
14.450518
20
1.714481
10
14.447052
20
1.723511
10
14.443631
20
1.732558
10
14.440256
20
1.741622
10
14.436928
20
1.750703
10
14.433646
20
1.759801
10
14.430410
20
1.768916
10
14.427221
20
1.778047
10
14.424078
20
1.787194
10
14.420982
20
1.796357
10
14.417932
20
1.805536
10
14.414930
20
1.814730
10
14.411974
20
1.823939
10
14.409065
20
1.833163
10
14.406203
20
1.842402
10
14.403388
20
1.851655
10
14.400620
20
1.860923
10
14.397900
20
1.870204
10
14.395226
20
1.879499
10
14.392600
20
1.888808
10
14.390022
20
1.898130
10
14.387491
20
1.907465
10
14.385007
20
1.916813
10
14.382571
20
1.926173
10
14.380183
20
1.935545
10
14.377843
20
1.944930
10
14.375550
20
1.954326
10
14.373305
20
1.963734
10
14.371109
20
1.973153
10
14.368960
20
1.982584
10
14.366859
20
1.992025
10
14.364806
20
2.001476
10
14.362802
20
2.010938
10
14.360845
20
2.020410
10
14.358937
20
2.029892
10
14.357077
20
2.039384
10
14.355265
20
2.048884
10
14.353502
20
2.058394
10
14.351788
20
2.067913
10
14.350121
20
2.077440
10
14.348504
20
2.086976
10
14.346934
20
2.096520
10
14.345414
20
2.106072
10
14.343942
20
2.115631
10
14.342519
20
2.125198
10
14.341144
20
2.134772
10
14.339818
20
2.144352
10
14.338541
20
2.153940
10
14.337313
20
2.163533
10
14.336134
20
2.173133
10
14.335004
20
2.182739
10
14.333922
20
2.192350
10
14.332889
20
2.201967
10
14.331906
20
2.211589
10
14.330971
20
2.221215
10
14.330086
20
2.230847
10
14.329249
20
2.240482
10
14.328462
20
2.250122
10
14.327723
20
2.259766
10
14.327034
20
2.269413
10
14.326394
20
2.279064
10
14.325803
20
2.288718
10
14.325261
20
2.298375
10
14.324768
20
2.308034
10
14.324324
20
2.317696
10
14.323930
20
2.327360
10
14.323585
20
2.337026
10
14.323289
20
2.346693
10
14.323042
20
2.356362
10
14.322845
20
2.366032
10
14.322696
20
2.375703
10
14.322597
20
2.385374
10
14.322547
20
2.395046
10
14.322547
20
2.404718
10
14.322595
20
2.414390
10
14.322693
20
2.424062
10
14.322840
20
2.433732
10
14.323037
20
2.443402
10
14.323282
20
2.453071
10
14.323577
20
2.462739
10
14.323921
20
2.472405
10
14.324314
20
2.482069
10
14.324757
20
2.491730
10
14.325248
20
2.501390
10
14.325789
20
2.511047
10
14.326379
20
2.520701
10
14.327018
20
2.530352
10
14.327706
20
2.539999
10
14.328443
20
2.549643
10
14.329229
20
2.559283
10
14.330065
20
2.568919
10
14.330949
20
2.578550
10
14.331883
20
2.588177
10
14.332865
20
2.597799
10
14.333896
20
2.607416
10
14.334977
20
2.617027
10
14.336106
20
2.626633
10
14.337284
20
2.636233
10
14.338511
20
2.645827
10
14.339787
20
2.655414
10
14.341111
20
2.664995
10
14.342485
20
2.674569
10
14.343907
20
2.684136
10
14.345377
20
2.693696
10
14.346897
20
2.703247
10
14.348465
20
2.712792
10
14.350081
20
2.722327
10
14.351746
20
2.731855
10
14.353460
20
2.741374
10
14.355222
20
2.750884
10
14.357032
20
2.760385
10
14.358891
20
2.769877
10
14.360798
20
2.779359
10
14.362753
20
2.788831
10
14.364757
20
2.798293
10
14.366808
20
2.807745
10
14.368908
20
2.817187
10
14.371056
20
2.826617
10
14.373251
20
2.836037
10
14.375495
20
2.845445
10
14.377786
20
2.854841
10
14.380126
20
2.864226
10
14.382513
20
2.873599
10
14.384947
20
2.882960
10
14.387430
20
2.892308
10
14.389960
20
2.901643
10
14.392537
20
2.910965
10
14.395162
20
2.920274
10
14.397834
20
2.929570
10
14.400553
20
2.938851
10
14.403320
20
2.948119
10
14.406134
20
2.957373
10
14.408995
20
2.966612
10
14.411902
20
2.975837
10
14.414857
20
2.985046
10
14.417859
20
2.994241
10
14.420907
20
3.003420
10
14.424002
20
3.012583
10
14.427144
20
3.021731
10
14.430332
20
3.030862
10
14.433567
20
3.039977
10
14.436848
20
3.049076
10
14.440175
20
3.058157
10
14.443548
20
3.067222
10
14.446968
20
3.076269
10
14.450433
20
3.085299
10
14.453945
20
3.094311
10
14.457502
20
3.103305
10
14.461105
20
3.112281
10
14.464754
20
3.121238
10
14.468448
20
3.130177
10
14.472188
20
3.139097
10
14.475973
20
3.147997
10
14.479803
20
3.156878
10
14.483679
20
3.165740
10
14.487599
20
3.174582
10
14.491565
20
3.183403
10
14.495575
20
3.192205
10
14.499630
20
3.200986
10
14.503730
20
3.209746
10
14.507874
20
3.218485
10
14.512063
20
3.227203
10
14.516296
20
3.235899
10
14.520573
20
3.244574
10
14.524894
20
3.253227
10
14.529260
20
3.261858
10
14.533669
20
3.270466
10
14.538122
20
3.279052
10
14.542619
20
3.287615
10
14.547159
20
3.296156
10
14.551742
20
3.304672
10
14.556369
20
3.313166
10
14.561039
20
3.321636
10
14.565753
20
3.330082
10
14.570509
20
3.338503
10
14.575307
20
3.346901
10
14.580149
20
3.355274
10
14.585033
20
3.363622
10
14.589960
20
3.371945
10
14.594928
20
3.380244
10
14.599939
20
3.388516
10
14.604993
20
3.396763
10
14.610087
20
3.404984
10
14.615224
20
3.413180
10
14.620403
20
3.421349
10
14.625623
20
3.429491
10
14.630884
20
3.437607
10
14.636186
20
3.445696
10
14.641530
20
3.453757
10
14.646915
20
3.461792
10
14.652340
20
3.469799
10
14.657806
20
3.477778
10
14.663313
20
3.485729
10
14.668860
20
3.493653
10
14.674448
20
3.501547
10
14.680075
20
3.509414
10
14.685743
20
3.517251
10
14.691450
20
3.525060
10
14.697197
20
3.532839
10
14.702983
20
3.540589
10
14.708809
20
3.548310
10
14.714674
20
3.556001
10
14.720578
20
3.563662
10
14.726521
20
3.571292
10
14.732503
20
3.578892
10
14.738524
20
3.586462
10
14.744583
20
3.594001
10
14.750680
20
3.601509
10
14.756815
20
3.608986
10
14.762989
20
3.616432
10
14.769200
20
3.623846
10
14.775448
20
3.631228
10
14.781735
20
3.638579
10
14.788058
20
3.645897
10
14.794419
20
3.653183
10
14.800817
20
3.660437
10
14.807252
20
3.667658
10
14.813723
20
3.674846
10
14.820231
20
3.682001
10
14.826775
20
3.689123
10
14.833356
20
3.696211
10
14.839972
20
3.703266
10
14.846624
20
3.710287
10
14.853312
20
3.717274
10
14.860035
20
3.724227
10
14.866794
20
3.731146
10
14.873588
20
3.738030
10
14.880416
20
3.744880
10
14.887280
20
3.751694
10
14.894178
20
3.758474
10
14.901110
20
3.765218
10
14.908077
20
3.771928
10
14.915078
20
3.778601
10
14.922113
20
3.785239
10
14.929181
20
3.791841
10
14.936283
20
3.798406
10
14.943418
20
3.804936
10
14.950587
20
3.811429
10
14.957788
20
3.817886
10
14.965022
20
3.824306
10
14.972289
20
3.830689
10
14.979588
20
3.837034
10
14.986919
20
3.843343
10
14.994283
20
3.849614
10
15.001678
20
3.855848
10
15.009105
20
3.862044
10
15.016563
20
3.868202
10
15.024053
20
3.874322
10
15.031573
20
3.880404
10
15.039125
20
3.886447
10
15.046707
20
3.892452
10
15.054319
20
3.898418
10
15.061962
20
3.904346
10
15.069635
20
3.910234
10
15.077338
20
3.916084
10
15.085070
20
3.921894
10
15.092832
20
3.927664
10
15.100623
20
3.933395
10
15.108444
20
3.939086
10
15.116293
20
3.944738
10
15.124171
20
3.950349
10
15.132077
20
3.955920
10
15.140011
20
3.961451
10
15.147974
20
3.966942
10
15.155964
20
3.972391
10
15.163982
20
3.977800
10
15.172028
20
3.983168
10
15.180101
20
3.988496
10
15.188200
20
3.993782
10
15.196327
20
3.999026
10
15.204480
20
4.004229
10
15.212660
20
4.009391
10
15.220865
20
4.014511
10
15.229097
20
4.019589
10
15.237354
20
4.024625
10
15.245637
20
4.029619
10
15.253946
20
4.034571
10
15.262279
20
4.039481
10
15.270637
20
4.044348
10
15.279020
20
4.049172
10
15.287427
20
4.053954
10
15.295859
20
4.058692
10
15.304314
20
4.063388
10
15.312794
20
4.068041
10
15.321297
20
4.072650
10
15.329823
20
4.077216
10
15.338372
20
4.081739
10
15.346945
20
4.086218
10
15.355540
20
4.090653
10
15.364157
20
4.095045
10
15.372797
20
4.099393
10
15.381459
20
4.103696
10
15.390142
20
4.107956
10
15.398848
20
4.112171
10
15.407574
20
4.116342
10
15.416322
20
4.120468
10
15.425090
20
4.124550
10
15.433879
20
4.128587
10
15.442689
20
4.132579
10
15.451519
20
4.136527
10
15.460368
20
4.140429
10
15.469238
20
4.144286
10
15.478127
20
4.148098
10
15.487035
20
4.151865
10
15.495963
20
4.155587
10
15.504909
20
4.159262
10
15.513874
20
4.162893
10
15.522857
20
4.166477
10
15.531858
20
4.170016
10
15.540878
20
4.173509
10
15.549914
20
4.176956
10
15.558969
20
4.180357
10
15.568040
20
4.183712
10
15.577129
20
4.187021
10
15.586234
20
4.190283
10
15.595356
20
4.193499
10
15.604493
20
4.196668
10
15.613647
20
4.199791
10
15.622817
20
4.202868
10
15.632002
20
4.205897
10
15.641203
20
4.208880
10
15.650419
20
4.211816
10
15.659649
20
4.214705
10
15.668894
20
4.217546
10
15.678154
20
4.220341
10
15.687427
20
4.223089
10
15.696714
20
4.225789
10
15.706015
20
4.228442
10
15.715330
20
4.231048
10
15.724657
20
4.233606
10
15.733998
20
4.236117
10
15.743351
20
4.238580
10
15.752716
20
4.240996
10
15.762094
20
4.243363
10
15.771484
20
4.245683
10
15.780885
20
4.247956
10
15.790298
20
4.250180
10
15.799722
20
4.252356
10
15.809156
20
4.254485
10
15.818602
20
4.256565
10
15.828058
20
4.258597
10
15.837524
20
4.260581
10
15.847001
20
4.262517
10
15.856487
20
4.264405
10
15.865982
20
4.266244
10
15.875487
20
4.268035
10
15.885001
20
4.269777
10
15.894523
20
4.271471
10
15.904054
20
4.273117
10
15.913593
20
4.274714
10
15.923141
20
4.276262
10
15.932696
20
4.277762
10
15.942258
20
4.279213
10
15.951828
20
4.280615
10
15.961405
20
4.281969
10
15.970988
20
4.283274
10
15.980578
20
4.284530
10
15.990174
20
4.285737
10
15.999777
20
4.286896
10
16.009385
20
4.288005
10
16.018999
20
4.289066
10
16.028618
20
4.290078
10
16.038242
20
4.291040
10
16.047870
20
4.291954
10
16.057503
20
4.292819
10
16.067141
20
4.293634
10
16.076783
20
4.294401
10
16.086428
20
4.295118
10
16.096077
20
4.295787
10
16.105729
20
4.296406
10
16.115384
20
4.296976
10
16.125042
20
4.297497
10
16.134702
20
4.297968
10
16.144365
20
4.298391
10
16.154030
20
4.298764
10
16.163697
20
4.299089
10
16.173365
20
4.299363
10
16.183034
20
4.299589
10
16.192704
20
4.299766
10
16.202375
20
4.299893
10
16.212047
20
4.299971
10
16.221719
20
4.300000
10
16.231391
20
4.299979
10
16.241063
20
4.299910
10
16.250734
20
4.299791
10
16.260405
20
4.299623
10
16.270074
20
4.299405
10
16.279742
20
4.299139
10
16.289409
20
4.298823
10
16.299074
20
4.298458
10
16.308737
20
4.298044
10
16.318398
20
4.297580
10
16.328057
20
4.297068
10
16.337712
20
4.296506
10
16.347365
20
4.295895
10
16.357014
20
4.295235
10
16.366660
20
4.294526
10
16.376303
20
4.293768
10
16.385941
20
4.292961
10
16.395575
20
4.292104
10
16.405204
20
4.291199
10
16.414829
20
4.290245
10
16.424449
20
4.289241
10
16.434063
20
4.288189
10
16.443673
20
4.287088
10
16.453276
20
4.285938
10
16.462873
20
4.284739
10
16.472464
20
4.283491
10
16.482049
20
4.282194
10
16.491627
20
4.280849
10
16.501198
20
4.279455
10
16.510762
20
4.278012
10
16.520318
20
4.276520
10
16.529867
20
4.274980
10
16.539407
20
4.273392
10
16.548940
20
4.271754
10
16.558464
20
4.270068
10
16.567979
20
4.268334
10
16.577485
20
4.266552
10
16.586982
20
4.264721
10
16.596470
20
4.262841
10
16.605948
20
4.260914
10
16.615416
20
4.258938
10
16.624874
20
4.256914
10
16.634321
20
4.254842
10
16.643758
20
4.252721
10
16.653184
20
4.250553
10
16.662598
20
4.248337
10
16.672001
20
4.246073
10
16.681393
20
4.243761
10
16.690773
20
4.241401
10
16.700140
20
4.238994
10
16.709496
20
4.236539
10
16.718838
20
4.234036
10
16.728168
20
4.231486
10
16.737484
20
4.228889
10
16.746788
20
4.226243
10
16.756077
20
4.223551
10
16.765353
20
4.220812
10
16.774615
20
4.218025
10
16.783863
20
4.215191
10
16.793096
20
4.212310
10
16.802314
20
4.209382
10
16.811517
20
4.206407
10
16.820705
20
4.203386
10
16.829877
20
4.200317
10
16.839034
20
4.197202
10
16.848175
20
4.194041
10
16.857299
20
4.190833
10
16.866407
20
4.187578
10
16.875498
20
4.184278
10
16.884573
20
4.180931
10
16.893630
20
4.177538
10
16.902670
20
4.174098
10
16.911692
20
4.170613
10
16.920696
20
4.167082
10
16.929683
20
4.163505
10
16.938651
20
4.159883
10
16.947600
20
4.156214
10
16.956531
20
4.152501
10
16.965442
20
4.148742
10
16.974335
20
4.144937
10
16.983207
20
4.141088
10
16.992061
20
4.137193
10
17.000894
20
4.133253
10
17.009707
20
4.129269
10
17.018500
20
4.125239
10
17.027272
20
4.121165
10
17.036023
20
4.117046
10
17.044753
20
4.112883
10
17.053462
20
4.108675
10
17.062149
20
4.104423
10
17.070814
20
4.100127
10
17.079458
20
4.095787
10
17.088079
20
4.091403
10
17.096678
20
4.086975
10
17.105254
20
4.082503
10
17.113808
20
4.077988
10
17.122338
20
4.073429
10
17.130845
20
4.068827
10
17.139328
20
4.064182
10
17.147788
20
4.059493
10
17.156223
20
4.054762
10
17.164635
20
4.049988
10
17.173022
20
4.045171
10
17.181384
20
4.040311
10
17.189722
20
4.035409
10
17.198034
20
4.030464
10
17.206322
20
4.025477
10
17.214583
20
4.020448
10
17.222819
20
4.015377
10
17.231030
20
4.010264
10
17.239214
20
4.005110
10
17.247371
20
3.999913
10
17.255502
20
3.994676
10
17.263607
20
3.989397
10
17.271684
20
3.984077
10
17.279734
20
3.978716
10
17.287757
20
3.973313
10
17.295752
20
3.967871
10
17.303719
20
3.962387
10
17.311659
20
3.956863
10
17.319570
20
3.951299
10
17.327452
20
3.945694
10
17.335306
20
3.940050
10
17.343132
20
3.934365
10
17.350928
20
3.928641
10
17.358695
20
3.922877
10
17.366432
20
3.917074
10
17.374140
20
3.911231
10
17.381818
20
3.905349
10
17.389466
20
3.899429
10
17.397084
20
3.893469
10
17.404671
20
3.887471
10
17.412228
20
3.881434
10
17.419753
20
3.875358
10
17.427248
20
3.869245
10
17.434712
20
3.863093
10
17.442144
20
3.856904
10
17.449545
20
3.850676
10
17.456913
20
3.844412
10
17.464250
20
3.838109
10
17.471555
20
3.831770
10
17.478827
20
3.825393
10
17.486067
20
3.818980
10
17.493274
20
3.812529
10
17.500448
20
3.806042
10
17.507589
20
3.799519
10
17.514696
20
3.792959
10
17.521770
20
3.786363
10
17.528811
20
3.779732
10
17.535817
20
3.773064
10
17.542790
20
3.766361
10
17.549728
20
3.759623
10
17.556632
20
3.752849
10
17.563502
20
3.746040
10
17.570336
20
3.739197
10
17.577136
20
3.732319
10
17.583901
20
3.725406
10
17.590630
20
3.718459
10
17.597324
20
3.711477
10
17.603982
20
3.704462
10
17.610604
20
3.697413
10
17.617191
20
3.690330
10
17.623741
20
3.683214
10
17.630255
20
3.676064
10
17.636733
20
3.668882
10
20.480008
20
0.500000
10
23.072401
20
0.500000
10
22.780508
20
0.597058
10
22.771338
20
0.600133
10
22.762183
20
0.603255
10
22.753045
20
0.606423
10
22.743923
20
0.609638
10
22.734817
20
0.612899
10
22.725728
20
0.616207
10
22.716656
20
0.619561
10
22.707602
20
0.622960
10
22.698564
20
0.626406
10
22.689545
20
0.629898
10
22.680543
20
0.633436
10
22.671559
20
0.637019
10
22.662594
20
0.640649
10
22.653647
20
0.644323
10
22.644720
20
0.648044
10
22.635811
20
0.651809
10
22.626921
20
0.655620
10
22.618051
20
0.659477
10
22.609201
20
0.663378
10
22.600371
20
0.667324
10
22.591561
20
0.671315
10
22.582771
20
0.675351
10
22.574002
20
0.679432
10
22.565254
20
0.683557
10
22.556527
20
0.687727
10
22.547821
20
0.691941
10
22.539137
20
0.696200
10
22.530475
20
0.700502
10
22.521834
20
0.704849
10
22.513216
20
0.709239
10
22.504621
20
0.713673
10
22.496048
20
0.718151
10
22.487498
20
0.722673
10
22.478971
20
0.727238
10
22.470468
20
0.731846
10
22.461988
20
0.736498
10
22.453531
20
0.741193
10
22.445099
20
0.745931
10
22.436691
20
0.750711
10
22.428308
20
0.755534
10
22.419949
20
0.760400
10
22.411615
20
0.765309
10
22.403306
20
0.770260
10
22.395023
20
0.775253
10
22.386765
20
0.780288
10
22.378532
20
0.785365
10
22.370326
20
0.790484
10
22.362146
20
0.795644
10
22.353992
20
0.800847
10
22.345865
20
0.806090
10
22.337765
20
0.811375
10
22.329691
20
0.816701
10
22.321645
20
0.822068
10
22.313626
20
0.827477
10
22.305635
20
0.832925
10
22.297672
20
0.838415
10
22.289737
20
0.843945
10
22.281830
20
0.849515
10
22.273951
20
0.855125
10
22.266101
20
0.860776
10
22.258280
20
0.866466
10
22.250488
20
0.872196
10
22.242726
20
0.877965
10
22.234993
20
0.883774
10
22.227289
20
0.889623
10
22.219615
20
0.895510
10
22.211972
20
0.901437
10
22.204359
20
0.907402
10
22.196776
20
0.913406
10
22.189224
20
0.919449
10
22.181702
20
0.925529
10
22.174212
20
0.931649
10
22.166753
20
0.937806
10
22.159325
20
0.944001
10
22.151929
20
0.950233
10
22.144565
20
0.956504
10
22.137233
20
0.962811
10
22.129933
20
0.969156
10
22.122666
20
0.975538
10
22.115431
20
0.981957
10
22.108229
20
0.988413
10
22.101060
20
0.994905
10
22.093923
20
1.001434
10
22.086821
20
1.007999
10
22.079752
20
1.014600
10
22.072716
20
1.021237
10
22.065714
20
1.027910
10
22.058747
20
1.034618
10
22.051813
20
1.041361
10
22.044914
20
1.048140
10
22.038050
20
1.054954
10
22.031221
20
1.061803
10
22.024426
20
1.068686
10
22.017666
20
1.075604
10
22.010942
20
1.082556
10
22.004254
20
1.089542
10
21.997600
20
1.096562
10
21.990983
20
1.103617
10
21.984402
20
1.110704
10
21.977857
20
1.117825
10
21.971348
20
1.124979
10
21.964876
20
1.132167
10
21.958440
20
1.139387
10
21.952042
20
1.146640
10
21.945680
20
1.153925
10
21.939355
20
1.161243
10
21.933068
20
1.168592
10
21.926818
20
1.175974
10
21.920606
20
1.183387
10
21.914432
20
1.190832
10
21.908296
20
1.198308
10
21.902198
20
1.205816
10
21.896138
20
1.213354
10
21.890116
20
1.220923
10
21.884134
20
1.228522
10
21.878190
20
1.236152
10
21.872284
20
1.243812
10
21.866418
20
1.251502
10
21.860592
20
1.259222
10
21.854804
20
1.266972
10
21.849056
20
1.274750
10
21.843348
20
1.282558
10
21.837680
20
1.290395
10
21.832051
20
1.298261
10
21.826463
20
1.306155
10
21.820915
20
1.314077
10
21.815407
20
1.322028
10
21.809940
20
1.330007
10
21.804513
20
1.338013
10
21.799128
20
1.346047
10
21.793783
20
1.354108
10
21.788480
20
1.362196
10
21.783217
20
1.370311
10
21.777996
20
1.378453
10
21.772817
20
1.386621
10
21.767679
20
1.394816
10
21.762583
20
1.403036
10
21.757529
20
1.411283
10
21.752517
20
1.419555
10
21.747547
20
1.427852
10
21.742620
20
1.436175
10
21.737734
20
1.444522
10
21.732892
20
1.452895
10
21.728092
20
1.461292
10
21.723335
20
1.469713
10
21.718621
20
1.478158
10
21.713950
20
1.486628
10
21.709322
20
1.495120
10
21.704737
20
1.503637
10
21.700196
20
1.512176
10
21.695698
20
1.520739
10
21.691244
20
1.529324
10
21.686834
20
1.537932
10
21.682467
20
1.546563
10
21.678145
20
1.555215
10
21.673867
20
1.563889
10
21.669632
20
1.572585
10
21.665443
20
1.581303
10
21.661297
20
1.590041
10
21.657196
20
1.598801
10
21.653140
20
1.607581
10
21.649129
20
1.616382
10
21.645162
20
1.625203
10
21.641241
20
1.634044
10
21.637364
20
1.642906
10
21.633533
20
1.651786
10
21.629746
20
1.660686
10
21.626006
20
1.669606
10
21.622310
20
1.678544
10
21.618661
20
1.687501
10
21.615056
20
1.696476
10
21.611498
20
1.705470
10
21.607985
20
1.714481
10
21.604519
20
1.723511
10
21.601098
20
1.732558
10
21.597723
20
1.741622
10
21.594395
20
1.750703
10
21.591113
20
1.759801
10
21.587877
20
1.768916
10
21.584688
20
1.778047
10
21.581545
20
1.787194
10
21.578449
20
1.796357
10
21.575399
20
1.805536
10
21.572397
20
1.814730
10
21.569441
20
1.823939
10
21.566532
20
1.833163
10
21.563670
20
1.842402
10
21.560855
20
1.851655
10
21.558087
20
1.860923
10
21.555367
20
1.870204
10
21.552693
20
1.879499
10
21.550067
20
1.888808
10
21.547489
20
1.898130
10
21.544958
20
1.907465
10
21.542474
20
1.916813
10
21.540038
20
1.926173
10
21.537650
20
1.935545
10
21.535310
20
1.944930
10
21.533017
20
1.954326
10
21.530772
20
1.963734
10
21.528576
20
1.973153
10
21.526427
20
1.982584
10
21.524326
20
1.992025
10
21.522273
20
2.001476
10
21.520269
20
2.010938
10
21.518312
20
2.020410
10
21.516404
20
2.029892
10
21.514544
20
2.039384
10
21.512732
20
2.048884
10
21.510969
20
2.058394
10
21.509255
20
2.067913
10
21.507588
20
2.077440
10
21.505971
20
2.086976
10
21.504401
20
2.096520
10
21.502881
20
2.106072
10
21.501409
20
2.115631
10
21.499986
20
2.125198
10
21.498611
20
2.134772
10
21.497285
20
2.144352
10
21.496008
20
2.153940
10
21.494780
20
2.163533
10
21.493601
20
2.173133
10
21.492471
20
2.182739
10
21.491389
20
2.192350
10
21.490356
20
2.201967
10
21.489373
20
2.211589
10
21.488438
20
2.221215
10
21.487553
20
2.230847
10
21.486716
20
2.240482
10
21.485929
20
2.250122
10
21.485190
20
2.259766
10
21.484501
20
2.269413
10
21.483861
20
2.279064
10
21.483270
20
2.288718
10
21.482728
20
2.298375
10
21.482235
20
2.308034
10
21.481791
20
2.317696
10
21.481397
20
2.327360
10
21.481052
20
2.337026
10
21.480756
20
2.346693
10
21.480509
20
2.356362
10
21.480312
20
2.366032
10
21.480163
20
2.375703
10
21.480064
20
2.385374
10
21.480014
20
2.395046
10
21.480014
20
2.404718
10
21.480062
20
2.414390
10
21.480160
20
2.424062
10
21.480307
20
2.433732
10
21.480504
20
2.443402
10
21.480749
20
2.453071
10
21.481044
20
2.462739
10
21.481388
20
2.472405
10
21.481781
20
2.482069
10
21.482224
20
2.491730
10
21.482715
20
2.501390
10
21.483256
20
2.511047
10
21.483846
20
2.520701
10
21.484485
20
2.530352
10
21.485173
20
2.539999
10
21.485910
20
2.549643
10
21.486696
20
2.559283
10
21.487532
20
2.568919
10
21.488416
20
2.578550
10
21.489350
20
2.588177
10
21.490332
20
2.597799
10
21.491363
20
2.607416
10
21.492444
20
2.617027
10
21.493573
20
2.626633
10
21.494751
20
2.636233
10
21.495978
20
2.645827
10
21.497254
20
2.655414
10
21.498578
20
2.664995
10
21.499952
20
2.674569
10
21.501374
20
2.684136
10
21.502844
20
2.693696
10
21.504364
20
2.703247
10
21.505932
20
2.712792
10
21.507548
20
2.722327
10
21.509213
20
2.731855
10
21.510927
20
2.741374
10
21.512689
20
2.750884
10
21.514499
20
2.760385
10
21.516358
20
2.769877
10
21.518265
20
2.779359
10
21.520220
20
2.788831
10
21.522224
20
2.798293
10
21.524275
20
2.807745
10
21.526375
20
2.817187
10
21.528523
20
2.826617
10
21.530718
20
2.836037
10
21.532962
20
2.845445
10
21.535253
20
2.854841
10
21.537593
20
2.864226
10
21.539980
20
2.873599
10
21.542414
20
2.882960
10
21.544897
20
2.892308
10
21.547427
20
2.901643
10
21.550004
20
2.910965
10
21.552629
20
2.920274
10
21.555301
20
2.929570
10
21.558020
20
2.938851
10
21.560787
20
2.948119
10
21.563601
20
2.957373
10
21.566462
20
2.966612
10
21.569369
20
2.975837
10
21.572324
20
2.985046
10
21.575326
20
2.994241
10
21.578374
20
3.003420
10
21.581469
20
3.012583
10
21.584611
20
3.021731
10
21.587799
20
3.030862
10
21.591034
20
3.039977
10
21.594315
20
3.049076
10
21.597642
20
3.058157
10
21.601015
20
3.067222
10
21.604435
20
3.076269
10
21.607900
20
3.085299
10
21.611412
20
3.094311
10
21.614969
20
3.103305
10
21.618572
20
3.112281
10
21.622221
20
3.121238
10
21.625915
20
3.130177
10
21.629655
20
3.139097
10
21.633440
20
3.147997
10
21.637270
20
3.156878
10
21.641146
20
3.165740
10
21.645066
20
3.174582
10
21.649032
20
3.183403
10
21.653042
20
3.192205
10
21.657097
20
3.200986
10
21.661197
20
3.209746
10
21.665341
20
3.218485
10
21.669530
20
3.227203
10
21.673763
20
3.235899
10
21.678040
20
3.244574
10
21.682362
20
3.253227
10
21.686727
20
3.261858
10
21.691136
20
3.270466
10
21.695589
20
3.279052
10
21.700086
20
3.287615
10
21.704626
20
3.296156
10
21.709209
20
3.304672
10
21.713836
20
3.313166
10
21.718506
20
3.321636
10
21.723220
20
3.330082
10
21.727976
20
3.338503
10
21.732774
20
3.346901
10
21.737616
20
3.355274
10
21.742500
20
3.363622
10
21.747427
20
3.371945
10
21.752395
20
3.380244
10
21.757406
20
3.388516
10
21.762460
20
3.396763
10
21.767554
20
3.404984
10
21.772691
20
3.413180
10
21.777870
20
3.421349
10
21.783090
20
3.429491
10
21.788351
20
3.437607
10
21.793653
20
3.445696
10
21.798997
20
3.453757
10
21.804382
20
3.461792
10
21.809807
20
3.469799
10
21.815273
20
3.477778
10
21.820780
20
3.485729
10
21.826327
20
3.493653
10
21.831915
20
3.501547
10
21.837542
20
3.509414
10
21.843210
20
3.517251
10
21.848917
20
3.525060
10
21.854664
20
3.532839
10
21.860450
20
3.540589
10
21.866276
20
3.548310
10
21.872141
20
3.556001
10
21.878045
20
3.563662
10
21.883988
20
3.571292
10
21.889970
20
3.578892
10
21.895991
20
3.586462
10
21.902050
20
3.594001
10
21.908147
20
3.601509
10
21.914282
20
3.608986
10
21.920456
20
3.616432
10
21.926667
20
3.623846
10
21.932915
20
3.631228
10
21.939202
20
3.638579
10
21.945525
20
3.645897
10
21.951886
20
3.653183
10
21.958284
20
3.660437
10
21.964719
20
3.667658
10
21.971190
20
3.674846
10
21.977698
20
3.682001
10
21.984242
20
3.689123
10
21.990823
20
3.696211
10
21.997439
20
3.703266
10
22.004091
20
3.710287
10
22.010779
20
3.717274
10
22.017502
20
3.724227
10
22.024261
20
3.731146
10
22.031055
20
3.738030
10
22.037883
20
3.744880
10
22.044747
20
3.751694
10
22.051645
20
3.758474
10
22.058578
20
3.765218
10
22.065544
20
3.771928
10
22.072545
20
3.778601
10
22.079580
20
3.785239
10
22.086648
20
3.791841
10
22.093750
20
3.798406
10
22.100885
20
3.804936
10
22.108054
20
3.811429
10
22.115255
20
3.817886
10
22.122489
20
3.824306
10
22.129756
20
3.830689
10
22.137055
20
3.837034
10
22.144386
20
3.843343
10
22.151750
20
3.849614
10
22.159145
20
3.855848
10
22.166572
20
3.862044
10
22.174030
20
3.868202
10
22.181520
20
3.874322
10
22.189040
20
3.880404
10
22.196592
20
3.886447
10
22.204174
20
3.892452
10
22.211786
20
3.898418
10
22.219429
20
3.904346
10
22.227102
20
3.910234
10
22.234805
20
3.916084
10
22.242537
20
3.921894
10
22.250299
20
3.927664
10
22.258090
20
3.933395
10
22.265911
20
3.939086
10
22.273760
20
3.944738
10
22.281638
20
3.950349
10
22.289544
20
3.955920
10
22.297478
20
3.961451
10
22.305441
20
3.966942
10
22.313431
20
3.972391
10
22.321449
20
3.977800
10
22.329495
20
3.983168
10
22.337568
20
3.988496
10
22.345667
20
3.993782
10
22.353794
20
3.999026
10
22.361947
20
4.004229
10
22.370127
20
4.009391
10
22.378332
20
4.014511
10
22.386564
20
4.019589
10
22.394821
20
4.024625
10
22.403104
20
4.029619
10
22.411413
20
4.034571
10
22.419746
20
4.039481
10
22.428104
20
4.044348
10
22.436487
20
4.049172
10
22.444894
20
4.053954
10
22.453326
20
4.058692
10
22.461781
20
4.063388
10
22.470261
20
4.068041
10
22.478764
20
4.072650
10
22.487290
20
4.077216
10
22.495839
20
4.081739
10
22.504412
20
4.086218
10
22.513007
20
4.090653
10
22.521624
20
4.095045
10
22.530264
20
4.099393
10
22.538926
20
4.103696
10
22.547609
20
4.107956
10
22.556315
20
4.112171
10
22.565041
20
4.116342
10
22.573789
20
4.120468
10
22.582557
20
4.124550
10
22.591346
20
4.128587
10
22.600156
20
4.132579
10
22.608986
20
4.136527
10
22.617835
20
4.140429
10
22.626705
20
4.144286
10
22.635594
20
4.148098
10
22.644502
20
4.151865
10
22.653430
20
4.155587
10
22.662376
20
4.159262
10
22.671341
20
4.162893
10
22.680324
20
4.166477
10
22.689325
20
4.170016
10
22.698345
20
4.173509
10
22.707381
20
4.176956
10
22.716436
20
4.180357
10
22.725507
20
4.183712
10
22.734596
20
4.187021
10
22.743701
20
4.190283
10
22.752823
20
4.193499
10
22.761960
20
4.196668
10
22.771114
20
4.199791
10
22.780284
20
4.202868
10
22.789469
20
4.205897
10
22.798670
20
4.208880
10
22.807886
20
4.211816
10
22.817116
20
4.214705
10
22.826361
20
4.217546
10
22.835621
20
4.220341
10
22.844894
20
4.223089
10
22.854181
20
4.225789
10
22.863482
20
4.228442
10
22.872797
20
4.231048
10
22.882124
20
4.233606
10
22.891465
20
4.236117
10
22.900818
20
4.238580
10
22.910183
20
4.240996
10
22.919561
20
4.243363
10
22.928951
20
4.245683
10
22.938352
20
4.247956
10
22.947765
20
4.250180
10
22.957189
20
4.252356
10
22.966623
20
4.254485
10
22.976069
20
4.256565
10
22.985525
20
4.258597
10
22.994991
20
4.260581
10
23.004468
20
4.262517
10
23.013954
20
4.264405
10
23.023449
20
4.266244
10
23.032954
20
4.268035
10
23.042468
20
4.269777
10
23.051990
20
4.271471
10
23.061521
20
4.273117
10
23.071060
20
4.274714
10
23.080608
20
4.276262
10
23.090163
20
4.277762
10
23.099725
20
4.279213
10
23.109295
20
4.280615
10
23.118872
20
4.281969
10
23.128455
20
4.283274
10
23.138045
20
4.284530
10
23.147642
20
4.285737
10
23.157244
20
4.286896
10
23.166852
20
4.288005
10
23.176466
20
4.289066
10
23.186085
20
4.290078
10
23.195709
20
4.291040
10
23.205337
20
4.291954
10
23.214971
20
4.292819
10
23.224608
20
4.293634
10
23.234250
20
4.294401
10
23.243895
20
4.295118
10
23.253544
20
4.295787
10
23.263196
20
4.296406
10
23.272851
20
4.296976
10
23.282509
20
4.297497
10
23.292169
20
4.297968
10
23.301832
20
4.298391
10
23.311497
20
4.298764
10
23.321164
20
4.299089
10
23.330832
20
4.299363
10
23.340501
20
4.299589
10
23.350171
20
4.299766
10
23.359842
20
4.299893
10
23.369514
20
4.299971
10
23.379186
20
4.300000
10
23.388858
20
4.299979
10
23.398530
20
4.299910
10
23.408201
20
4.299791
10
23.417872
20
4.299623
10
23.427541
20
4.299405
10
23.437209
20
4.299139
10
23.446876
20
4.298823
10
23.456541
20
4.298458
10
23.466204
20
4.298044
10
23.475865
20
4.297580
10
23.485524
20
4.297068
10
23.495179
20
4.296506
10
23.504832
20
4.295895
10
23.514481
20
4.295235
10
23.524127
20
4.294526
10
23.533770
20
4.293768
10
23.543408
20
4.292961
10
23.553042
20
4.292104
10
23.562671
20
4.291199
10
23.572296
20
4.290245
10
23.581916
20
4.289241
10
23.591530
20
4.288189
10
23.601140
20
4.287088
10
23.610743
20
4.285938
10
23.620340
20
4.284739
10
23.629931
20
4.283491
10
23.639516
20
4.282194
10
23.649094
20
4.280849
10
23.658665
20
4.279455
10
23.668229
20
4.278012
10
23.677785
20
4.276520
10
23.687334
20
4.274980
10
23.696874
20
4.273392
10
23.706407
20
4.271754
10
23.715931
20
4.270068
10
23.725446
20
4.268334
10
23.734952
20
4.266552
10
23.744449
20
4.264721
10
23.753937
20
4.262841
10
23.763415
20
4.260914
10
23.772883
20
4.258938
10
23.782341
20
4.256914
10
23.791788
20
4.254842
10
23.801225
20
4.252721
10
23.810651
20
4.250553
10
23.820065
20
4.248337
10
23.829468
20
4.246073
10
23.838860
20
4.243761
10
23.848240
20
4.241401
10
23.857607
20
4.238994
10
23.866963
20
4.236539
10
23.876305
20
4.234036
10
23.885635
20
4.231486
10
23.894952
20
4.228889
10
23.904255
20
4.226243
10
23.913544
20
4.223551
10
23.922820
20
4.220812
10
23.932082
20
4.218025
10
23.941330
20
4.215191
10
23.950563
20
4.212310
10
23.959781
20
4.209382
10
23.968984
20
4.206407
10
23.978172
20
4.203386
10
23.987344
20
4.200317
10
23.996501
20
4.197202
10
24.005642
20
4.194041
10
24.014766
20
4.190833
10
24.023874
20
4.187578
10
24.032965
20
4.184278
10
24.042040
20
4.180931
10
24.051097
20
4.177538
10
24.060137
20
4.174098
10
24.069159
20
4.170613
10
24.078163
20
4.167082
10
24.087150
20
4.163505
10
24.096118
20
4.159883
10
24.105067
20
4.156214
10
24.113998
20
4.152501
10
24.122909
20
4.148742
10
24.131802
20
4.144937
10
24.140674
20
4.141088
10
24.149528
20
4.137193
10
24.158361
20
4.133253
10
24.167174
20
4.129269
10
24.175967
20
4.125239
10
24.184739
20
4.121165
10
24.193490
20
4.117046
10
24.202220
20
4.112883
10
24.210929
20
4.108675
10
24.219616
20
4.104423
10
24.228281
20
4.100127
10
24.236925
20
4.095787
10
24.245546
20
4.091403
10
24.254145
20
4.086975
10
24.262721
20
4.082503
10
24.271275
20
4.077988
10
24.279805
20
4.073429
10
24.288312
20
4.068827
10
24.296795
20
4.064182
10
24.305255
20
4.059493
10
24.313690
20
4.054762
10
24.322102
20
4.049988
10
24.330489
20
4.045171
10
24.338851
20
4.040311
10
24.347189
20
4.035409
10
24.355501
20
4.030464
10
24.363789
20
4.025477
10
24.372050
20
4.020448
10
24.380286
20
4.015377
10
24.388497
20
4.010264
10
24.396681
20
4.005110
10
24.404838
20
3.999913
10
24.412969
20
3.994676
10
24.421074
20
3.989397
10
24.429151
20
3.984077
10
24.437201
20
3.978716
10
24.445224
20
3.973313
10
24.453219
20
3.967871
10
24.461186
20
3.962387
10
24.469126
20
3.956863
10
24.477037
20
3.951299
10
24.484919
20
3.945694
10
24.492773
20
3.940050
10
24.500599
20
3.934365
10
24.508395
20
3.928641
10
24.516162
20
3.922877
10
24.523899
20
3.917074
10
24.531607
20
3.911231
10
24.539285
20
3.905349
10
24.546933
20
3.899429
10
24.554551
20
3.893469
10
24.562138
20
3.887471
10
24.569695
20
3.881434
10
24.577220
20
3.875358
10
24.584715
20
3.869245
10
24.592179
20
3.863093
10
24.599611
20
3.856904
10
24.607012
20
3.850676
10
24.614380
20
3.844412
10
24.621717
20
3.838109
10
24.629022
20
3.831770
10
24.636294
20
3.825393
10
24.643534
20
3.818980
10
24.650741
20
3.812529
10
24.657915
20
3.806042
10
24.665056
20
3.799519
10
24.672163
20
3.792959
10
24.679237
20
3.786363
10
24.686278
20
3.779732
10
24.693284
20
3.773064
10
24.700257
20
3.766361
10
24.707195
20
3.759623
10
24.714099
20
3.752849
10
24.720969
20
3.746040
10
24.727803
20
3.739197
10
24.734603
20
3.732319
10
24.741368
20
3.725406
10
24.748097
20
3.718459
10
24.754791
20
3.711477
10
24.761449
20
3.704462
10
24.768071
20
3.697413
10
24.774658
20
3.690330
10
24.781208
20
3.683214
10
24.787722
20
3.676064
10
24.794200
20
3.668882
10
26.750724
20
1.488301
10
26.773875
20
1.497449
10
26.823172
20
1.515088
10
26.873020
20
1.531105
10
26.923365
20
1.545481
10
26.974153
20
1.558203
10
27.025331
20
1.569256
10
27.076842
20
1.578629
10
27.128633
20
1.586312
10
27.180648
20
1.592296
10
27.232830
20
1.596574
10
27.285124
20
1.599143
10
27.337475
20
1.600000
10
27.389826
20
1.599143
10
27.442120
20
1.596574
10
27.494302
20
1.592296
10
27.546317
20
1.586312
10
27.598108
20
1.578629
10
27.649620
20
1.569256
10
27.700797
20
1.558203
10
27.751585
20
1.545481
10
27.801930
20
1.531105
10
27.851778
20
1.515088
10
27.901075
20
1.497449
10
27.949769
20
1.478207
10
27.997806
20
1.457382
10
28.045137
20
1.434996
10
28.091710
20
1.411074
10
28.137475
20
1.385641
10
28.182384
20
1.358723
10
28.226387
20
1.330351
10
28.269439
20
1.300555
10
28.311493
20
1.269365
10
28.352504
20
1.236817
10
28.392428
20
1.202944
10
28.431223
20
1.167783
10
28.468846
20
1.131371
10
28.505258
20
1.093748
10
28.540419
20
1.054953
10
28.574292
20
1.015029
10
28.606840
20
0.974018
10
28.638030
20
0.931964
10
28.667826
20
0.888912
10
28.696199
20
0.844909
10
28.723116
20
0.800000
10
28.748549
20
0.754235
10
28.772471
20
0.707662
10
28.794857
20
0.660331
10
28.815682
20
0.612293
10
28.834924
20
0.563600
10
28.852563
20
0.514303
10
28.868580
20
0.464455
10
28.882956
20
0.414110
10
28.895678
20
0.363322
10
28.906731
20
0.312145
10
28.916104
20
0.260633
10
28.923787
20
0.208842
10
28.929771
20
0.156827
10
28.934049
20
0.104645
10
28.936618
20
0.052351
10
28.937475
20
0.000000
10
28.936618
20
-0.052351
10
28.934049
20
-0.104645
10
28.929771
20
-0.156827
10
28.923787
20
-0.208842
10
28.916104
20
-0.260633
10
28.906731
20
-0.312145
10
28.895678
20
-0.363322
10
28.882956
20
-0.414110
10
28.868580
20
-0.464455
10
28.852563
20
-0.514303
10
28.834924
20
-0.563600
10
28.815682
20
-0.612293
10
28.794857
20
-0.660331
10
28.772471
20
-0.707662
10
28.748549
20
-0.754235
10
28.723116
20
-0.800000
10
28.696199
20
-0.844909
10
28.667826
20
-0.888912
10
28.638030
20
-0.931964
10
28.606840
20
-0.974018
10
28.574292
20
-1.015029
10
28.540419
20
-1.054953
10
28.505258
20
-1.093748
10
28.468846
20
-1.131371
10
28.431223
20
-1.167783
10
28.392428
20
-1.202944
10
28.352504
20
-1.236817
10
28.311493
20
-1.269365
10
28.269439
20
-1.300555
10
28.226387
20
-1.330351
10
28.182384
20
-1.358723
10
28.137475
20
-1.385641
10
28.091710
20
-1.411074
10
28.045137
20
-1.434996
10
27.997806
20
-1.457382
10
27.949769
20
-1.478207
10
27.901075
20
-1.497449
10
27.851778
20
-1.515088
10
27.801930
20
-1.531105
10
27.751585
20
-1.545481
10
27.700797
20
-1.558203
10
27.649620
20
-1.569256
10
27.598108
20
-1.578629
10
27.546317
20
-1.586312
10
27.494302
20
-1.592296
10
27.442120
20
-1.596574
10
27.389826
20
-1.599143
10
27.337475
20
-1.600000
10
27.285124
20
-1.599143
10
27.232830
20
-1.596574
10
27.180648
20
-1.592296
10
27.128633
20
-1.586312
10
27.076842
20
-1.578629
10
27.025331
20
-1.569256
10
26.974153
20
-1.558203
10
26.923365
20
-1.545481
10
26.873020
20
-1.531105
10
26.823172
20
-1.515088
10
26.773875
20
-1.497449
10
26.725182
20
-1.478207
10
26.677144
20
-1.457382
10
26.629813
20
-1.434996
10
26.583240
20
-1.411074
10
26.537475
20
-1.385641
10
26.492566
20
-1.358723
10
26.448563
20
-1.330351
10
26.405511
20
-1.300555
10
26.363457
20
-1.269365
10
26.322446
20
-1.236817
10
26.282522
20
-1.202944
10
26.243727
20
-1.167783
10
26.206104
20
-1.131371
10
26.169692
20
-1.093748
10
26.134531
20
-1.054953
10
26.100658
20
-1.015029
10
26.068110
20
-0.974018
10
26.036920
20
-0.931964
10
26.007124
20
-0.888912
10
25.978752
20
-0.844909
10
25.951834
20
-0.800000
10
25.926401
20
-0.754235
10
25.902479
20
-0.707662
10
25.880093
20
-0.660331
10
25.859268
20
-0.612293
10
25.840026
20
-0.563600
10
25.822387
20
-0.514303
10
25.817791
20
-0.500000
10
1.827291
20
-0.500000
10
1.822695
20
-0.514303
0
LWPOLYLINE
8
0
100
AcDbEntity
100
AcDbPolyline
90
728
70
1
10
25.902479
20
0.707662
10
25.926401
20
0.754235
10
25.951834
20
0.800000
10
25.978752
20
0.844909
10
25.981148
20
0.848625
10
24.049888
20
3.001049
10
24.046820
20
3.004452
10
24.043734
20
3.007838
10
24.040632
20
3.011209
10
24.037512
20
3.014564
10
24.034375
20
3.017903
10
24.031221
20
3.021226
10
24.028050
20
3.024533
10
24.024863
20
3.027824
10
24.021658
20
3.031098
10
24.018437
20
3.034356
10
24.015200
20
3.037598
10
24.011946
20
3.040823
10
24.008676
20
3.044032
10
24.005389
20
3.047224
10
24.002086
20
3.050399
10
23.998767
20
3.053557
10
23.995432
20
3.056698
10
23.992081
20
3.059823
10
23.988715
20
3.062930
10
23.985332
20
3.066020
10
23.981934
20
3.069093
10
23.978520
20
3.072148
10
23.975091
20
3.075186
10
23.971646
20
3.078207
10
23.968186
20
3.081210
10
23.964711
20
3.084195
10
23.961220
20
3.087163
10
23.957715
20
3.090112
10
23.954194
20
3.093044
10
23.950659
20
3.095958
10
23.947109
20
3.098854
10
23.943544
20
3.101732
10
23.939964
20
3.104591
10
23.936370
20
3.107433
10
23.932762
20
3.110256
10
23.929139
20
3.113060
10
23.925502
20
3.115846
10
23.921851
20
3.118614
10
23.918186
20
3.121363
10
23.914507
20
3.124093
10
23.910814
20
3.126805
10
23.907107
20
3.129497
10
23.903387
20
3.132171
10
23.899653
20
3.134826
10
23.895906
20
3.137461
10
23.892145
20
3.140078
10
23.888371
20
3.142676
10
23.884584
20
3.145254
10
23.880784
20
3.147813
10
23.876970
20
3.150352
10
23.873144
20
3.152872
10
23.869305
20
3.155373
10
23.865454
20
3.157854
10
23.861590
20
3.160315
10
23.857713
20
3.162757
10
23.853824
20
3.165179
10
23.849923
20
3.167581
10
23.846009
20
3.169963
10
23.842084
20
3.172325
10
23.838146
20
3.174667
10
23.834197
20
3.176989
10
23.830236
20
3.179291
10
23.826263
20
3.181573
10
23.822279
20
3.183835
10
23.818283
20
3.186076
10
23.814276
20
3.188297
10
23.810257
20
3.190497
10
23.806228
20
3.192677
10
23.802187
20
3.194836
10
23.798135
20
3.196975
10
23.794073
20
3.199093
10
23.790000
20
3.201191
10
23.785916
20
3.203268
10
23.781822
20
3.205323
10
23.777717
20
3.207358
10
23.773602
20
3.209372
10
23.769477
20
3.211366
10
23.765341
20
3.213338
10
23.761196
20
3.215289
10
23.757041
20
3.217219
10
23.752876
20
3.219127
10
23.748701
20
3.221015
10
23.744517
20
3.222881
10
23.740324
20
3.224726
10
23.736121
20
3.226549
10
23.731909
20
3.228351
10
23.727687
20
3.230132
10
23.723457
20
3.231891
10
23.719218
20
3.233629
10
23.714970
20
3.235345
10
23.710713
20
3.237039
10
23.706448
20
3.238711
10
23.702174
20
3.240362
10
23.697892
20
3.241991
10
23.693602
20
3.243599
10
23.689304
20
3.245184
10
23.684997
20
3.246748
10
23.680683
20
3.248289
10
23.676361
20
3.249809
10
23.672031
20
3.251306
10
23.667694
20
3.252782
10
23.663349
20
3.254235
10
23.658997
20
3.255667
10
23.654637
20
3.257076
10
23.650271
20
3.258463
10
23.645897
20
3.259827
10
23.641517
20
3.261170
10
23.637130
20
3.262490
10
23.632736
20
3.263787
10
23.628335
20
3.265063
10
23.623929
20
3.266316
10
23.619515
20
3.267546
10
23.615096
20
3.268754
10
23.610671
20
3.269939
10
23.606239
20
3.271102
10
23.601802
20
3.272243
10
23.597359
20
3.273360
10
23.592910
20
3.274456
10
23.588456
20
3.275528
10
23.583997
20
3.276578
10
23.579532
20
3.277605
10
23.575062
20
3.278609
10
23.570587
20
3.279591
10
23.566107
20
3.280549
10
23.561622
20
3.281485
10
23.557132
20
3.282398
10
23.552638
20
3.283289
10
23.548139
20
3.284156
10
23.543636
20
3.285000
10
23.539129
20
3.285822
10
23.534618
20
3.286620
10
23.530103
20
3.287396
10
23.525583
20
3.288149
10
23.521060
20
3.288878
10
23.516534
20
3.289585
10
23.512003
20
3.290268
10
23.507470
20
3.290928
10
23.502933
20
3.291566
10
23.498393
20
3.292180
10
23.493850
20
3.292771
10
23.489303
20
3.293339
10
23.484755
20
3.293884
10
23.480203
20
3.294405
10
23.475649
20
3.294904
10
23.471092
20
3.295379
10
23.466533
20
3.295831
10
23.461971
20
3.296260
10
23.457408
20
3.296666
10
23.452842
20
3.297048
10
23.448275
20
3.297407
10
23.443706
20
3.297743
10
23.439135
20
3.298056
10
23.434563
20
3.298345
10
23.429989
20
3.298611
10
23.425414
20
3.298854
10
23.420838
20
3.299073
10
23.416261
20
3.299270
10
23.411682
20
3.299442
10
23.407103
20
3.299592
10
23.402524
20
3.299718
10
23.397943
20
3.299821
10
23.393363
20
3.299901
10
23.388781
20
3.299957
10
23.384200
20
3.299990
10
23.379619
20
3.300000
10
23.375037
20
3.299986
10
23.370456
20
3.299949
10
23.365875
20
3.299889
10
23.361294
20
3.299805
10
23.356714
20
3.299698
10
23.352134
20
3.299568
10
23.347555
20
3.299415
10
23.342977
20
3.299238
10
23.338400
20
3.299038
10
23.333824
20
3.298814
10
23.329249
20
3.298568
10
23.324676
20
3.298297
10
23.320104
20
3.298004
10
23.315533
20
3.297688
10
23.310965
20
3.297348
10
23.306397
20
3.296985
10
23.301832
20
3.296598
10
23.297269
20
3.296189
10
23.292708
20
3.295756
10
23.288150
20
3.295300
10
23.283593
20
3.294821
10
23.279039
20
3.294318
10
23.274488
20
3.293793
10
23.269940
20
3.293244
10
23.265394
20
3.292672
10
23.260851
20
3.292077
10
23.256312
20
3.291459
10
23.251775
20
3.290818
10
23.247242
20
3.290154
10
23.242713
20
3.289466
10
23.238187
20
3.288756
10
23.233664
20
3.288022
10
23.229146
20
3.287266
10
23.224631
20
3.286486
10
23.220120
20
3.285684
10
23.215614
20
3.284859
10
23.211112
20
3.284010
10
23.206614
20
3.283139
10
23.202120
20
3.282245
10
23.197632
20
3.281328
10
23.193148
20
3.280388
10
23.188668
20
3.279425
10
23.184194
20
3.278440
10
23.179725
20
3.277432
10
23.175261
20
3.276401
10
23.170802
20
3.275347
10
23.166349
20
3.274271
10
23.161902
20
3.273172
10
23.157459
20
3.272051
10
23.153023
20
3.270906
10
23.148593
20
3.269740
10
23.144168
20
3.268550
10
23.139750
20
3.267339
10
23.135338
20
3.266104
10
23.130932
20
3.264848
10
23.126533
20
3.263568
10
23.122140
20
3.262267
10
23.117754
20
3.260943
10
23.113375
20
3.259597
10
23.109003
20
3.258228
10
23.104637
20
3.256838
10
23.100279
20
3.255425
10
23.095928
20
3.253990
10
23.091585
20
3.252533
10
23.087249
20
3.251053
10
23.082920
20
3.249552
10
23.078599
20
3.248029
10
23.074286
20
3.246483
10
23.069981
20
3.244916
10
23.065684
20
3.243327
10
23.061395
20
3.241716
10
23.057115
20
3.240083
10
23.052843
20
3.238429
10
23.048579
20
3.236752
10
23.044324
20
3.235054
10
23.040077
20
3.233335
10
23.035839
20
3.231594
10
23.031611
20
3.229831
10
23.027391
20
3.228047
10
23.023180
20
3.226241
10
23.018979
20
3.224414
10
23.014787
20
3.222565
10
23.010604
20
3.220695
10
23.006431
20
3.218804
10
23.002268
20
3.216892
10
22.998115
20
3.214959
10
22.993971
20
3.213004
10
22.989837
20
3.211028
10
22.985714
20
3.209032
10
22.981601
20
3.207014
10
22.977498
20
3.204975
10
22.973405
20
3.202916
10
22.969323
20
3.200836
10
22.965252
20
3.198735
10
22.961191
20
3.196613
10
22.957142
20
3.194471
10
22.953103
20
3.192308
10
22.949075
20
3.190125
10
22.945059
20
3.187921
10
22.941053
20
3.185696
10
22.937059
20
3.183452
10
22.933077
20
3.181187
10
22.929106
20
3.178901
10
22.925147
20
3.176596
10
22.921200
20
3.174271
10
22.917264
20
3.171925
10
22.913341
20
3.169559
10
22.909429
20
3.167174
10
22.905530
20
3.164768
10
22.901643
20
3.162343
10
22.897769
20
3.159898
10
22.893907
20
3.157433
10
22.890057
20
3.154949
10
22.886220
20
3.152445
10
22.882397
20
3.149922
10
22.878586
20
3.147379
10
22.874788
20
3.144817
10
22.871003
20
3.142235
10
22.867231
20
3.139635
10
22.863472
20
3.137015
10
22.859727
20
3.134376
10
22.855996
20
3.131718
10
22.852278
20
3.129041
10
22.848573
20
3.126345
10
22.844883
20
3.123630
10
22.841206
20
3.120897
10
22.837543
20
3.118145
10
22.833895
20
3.115374
10
22.830260
20
3.112585
10
22.826640
20
3.109777
10
22.823034
20
3.106951
10
22.819442
20
3.104107
10
22.815865
20
3.101244
10
22.812303
20
3.098363
10
22.808755
20
3.095464
10
22.805222
20
3.092547
10
22.801704
20
3.089612
10
22.798201
20
3.086659
10
22.794714
20
3.083689
10
22.791241
20
3.080701
10
22.787783
20
3.077695
10
22.784341
20
3.074671
10
22.780915
20
3.071630
10
22.777503
20
3.068572
10
22.774108
20
3.065496
10
22.770728
20
3.062403
10
22.767364
20
3.059293
10
22.764016
20
3.056166
10
22.760683
20
3.053022
10
22.757367
20
3.049860
10
22.754067
20
3.046682
10
22.750783
20
3.043488
10
22.747516
20
3.040276
10
22.744265
20
3.037048
10
22.741030
20
3.033804
10
22.737812
20
3.030543
10
22.734611
20
3.027266
10
22.731426
20
3.023972
10
22.728258
20
3.020662
10
22.725107
20
3.017337
10
22.721973
20
3.013995
10
22.718856
20
3.010637
10
22.715756
20
3.007264
10
22.712673
20
3.003874
10
22.709608
20
3.000470
10
22.706560
20
2.997049
10
22.703529
20
2.993613
10
22.700516
20
2.990162
10
22.697521
20
2.986695
10
22.694543
20
2.983213
10
22.691583
20
2.979717
10
22.688641
20
2.976205
10
22.685717
20
2.972678
10
22.682811
20
2.969136
10
22.679922
20
2.965580
10
22.677052
20
2.962008
10
22.674201
20
2.958423
10
22.671367
20
2.954823
10
22.668552
20
2.951208
10
22.665755
20
2.947579
10
22.662977
20
2.943936
10
22.660217
20
2.940279
10
22.657477
20
2.936608
10
22.654754
20
2.932923
10
22.652051
20
2.929224
10
22.649366
20
2.925512
10
22.646701
20
2.921786
10
22.644054
20
2.918046
10
22.641426
20
2.914293
10
22.638818
20
2.910526
10
22.636229
20
2.906747
10
22.633659
20
2.902954
10
22.631108
20
2.899148
10
22.628577
20
2.895330
10
22.626065
20
2.891498
10
22.623573
20
2.887654
10
22.621100
20
2.883797
10
22.618647
20
2.879927
10
22.616214
20
2.876045
10
22.613801
20
2.872151
10
22.611407
20
2.868244
10
22.609034
20
2.864326
10
22.606680
20
2.860395
10
22.604346
20
2.856453
10
22.602033
20
2.852498
10
22.599739
20
2.848532
10
22.597466
20
2.844554
10
22.595213
20
2.840565
10
22.592981
20
2.836564
10
22.590769
20
2.832552
10
22.588577
20
2.828529
10
22.586406
20
2.824495
10
22.584255
20
2.820449
10
22.582125
20
2.816393
10
22.580016
20
2.812326
10
22.577927
20
2.808248
10
22.575860
20
2.804160
10
22.573813
20
2.800061
10
22.571787
20
2.795952
10
22.569782
20
2.791833
10
22.567797
20
2.787703
10
22.565834
20
2.783564
10
22.563892
20
2.779414
10
22.561971
20
2.775255
10
22.560072
20
2.771086
10
22.558193
20
2.766907
10
22.556336
20
2.762719
10
22.554501
20
2.758521
10
22.552686
20
2.754314
10
22.550893
20
2.750098
10
22.549122
20
2.745873
10
22.547372
20
2.741639
10
22.545644
20
2.737396
10
22.543937
20
2.733144
10
22.542252
20
2.728884
10
22.540589
20
2.724615
10
22.538947
20
2.720338
10
22.537327
20
2.716052
10
22.535729
20
2.711759
10
22.534153
20
2.707457
10
22.532599
20
2.703147
10
22.531067
20
2.698829
10
22.529557
20
2.694504
10
22.528069
20
2.690171
10
22.526602
20
2.685830
10
22.525159
20
2.681482
10
22.523737
20
2.677127
10
22.522337
20
2.672765
10
22.520960
20
2.668395
10
22.519605
20
2.664019
10
22.518272
20
2.659635
10
22.516961
20
2.655245
10
22.515673
20
2.650849
10
22.514407
20
2.646446
10
22.513164
20
2.642036
10
22.511943
20
2.637620
10
22.510745
20
2.633198
10
22.509569
20
2.628770
10
22.508416
20
2.624336
10
22.507285
20
2.619897
10
22.506177
20
2.615451
10
22.505091
20
2.611000
10
22.504029
20
2.606544
10
22.502989
20
2.602082
10
22.501971
20
2.597615
10
22.500977
20
2.593143
10
22.500005
20
2.588665
10
22.499056
20
2.584183
10
22.498130
20
2.579696
10
22.497226
20
2.575205
10
22.496346
20
2.570709
10
22.495488
20
2.566208
10
22.494654
20
2.561703
10
22.493842
20
2.557194
10
22.493053
20
2.552681
10
22.492288
20
2.548164
10
22.491545
20
2.543644
10
22.490825
20
2.539119
10
22.490129
20
2.534591
10
22.489455
20
2.530059
10
22.488804
20
2.525524
10
22.488177
20
2.520986
10
22.487573
20
2.516444
10
22.486992
20
2.511900
10
22.486433
20
2.507353
10
22.485899
20
2.502802
10
22.485387
20
2.498250
10
22.484898
20
2.493694
10
22.484433
20
2.489136
10
22.483991
20
2.484576
10
22.483572
20
2.480014
10
22.483176
20
2.475450
10
22.482804
20
2.470884
10
22.482455
20
2.466315
10
22.482129
20
2.461746
10
22.481826
20
2.457174
10
22.481546
20
2.452601
10
22.481290
20
2.448027
10
22.481058
20
2.443451
10
22.480848
20
2.438875
10
22.480662
20
2.434297
10
22.480499
20
2.429718
10
22.480359
20
2.425139
10
22.480243
20
2.420559
10
22.480150
20
2.415979
10
22.480080
20
2.411398
10
22.480034
20
2.406816
10
22.480011
20
2.402235
10
22.480011
20
2.397653
10
22.480035
20
2.393072
10
22.480082
20
2.388491
10
22.480152
20
2.383910
10
22.480245
20
2.379329
10
22.480362
20
2.374749
10
22.480502
20
2.370170
10
22.480666
20
2.365592
10
22.480853
20
2.361014
10
22.481063
20
2.356437
10
22.481296
20
2.351862
10
22.481553
20
2.347288
10
22.481833
20
2.342715
10
22.482136
20
2.338143
10
22.482463
20
2.333573
10
22.482813
20
2.329005
10
22.483186
20
2.324439
10
22.483582
20
2.319875
10
22.484001
20
2.315313
10
22.484444
20
2.310752
10
22.484910
20
2.306195
10
22.485399
20
2.301640
10
22.485911
20
2.297087
10
22.486447
20
2.292537
10
22.487005
20
2.287989
10
22.487587
20
2.283445
10
22.488192
20
2.278904
10
22.488820
20
2.274365
10
22.489471
20
2.269831
10
22.490145
20
2.265299
10
22.490843
20
2.260771
10
22.491563
20
2.256246
10
22.492306
20
2.251726
10
22.493072
20
2.247209
10
22.493862
20
2.242696
10
22.494674
20
2.238187
10
22.495509
20
2.233682
10
22.496367
20
2.229182
10
22.497248
20
2.224686
10
22.498152
20
2.220194
10
22.499079
20
2.215708
10
22.500028
20
2.211226
10
22.501001
20
2.206748
10
22.501996
20
2.202276
10
22.503014
20
2.197809
10
22.504054
20
2.193348
10
22.505118
20
2.188891
10
22.506204
20
2.184440
10
22.507312
20
2.179995
10
22.508443
20
2.175556
10
22.509597
20
2.171122
10
22.510774
20
2.166694
10
22.511973
20
2.162272
10
22.513194
20
2.157856
10
22.514438
20
2.153447
10
22.515704
20
2.149044
10
22.516993
20
2.144648
10
22.518304
20
2.140258
10
22.519637
20
2.135875
10
22.520993
20
2.131498
10
22.522371
20
2.127129
10
22.523771
20
2.122767
10
22.525193
20
2.118412
10
22.526638
20
2.114064
10
22.528105
20
2.109723
10
22.529593
20
2.105391
10
22.531104
20
2.101065
10
22.532637
20
2.096748
10
22.534191
20
2.092438
10
22.535768
20
2.088137
10
22.537366
20
2.083843
10
22.538987
20
2.079558
10
22.540629
20
2.075281
10
22.542293
20
2.071012
10
22.543978
20
2.066752
10
22.545686
20
2.062500
10
22.547414
20
2.058258
10
22.549165
20
2.054024
10
22.550937
20
2.049799
10
22.552730
20
2.045583
10
22.554545
20
2.041376
10
22.556381
20
2.037179
10
22.558239
20
2.032991
10
22.560118
20
2.028813
10
22.562018
20
2.024644
10
22.563939
20
2.020485
10
22.565882
20
2.016335
10
22.567845
20
2.012196
10
22.569830
20
2.008067
10
22.571836
20
2.003948
10
22.573862
20
1.999839
10
22.575910
20
1.995740
10
22.577978
20
1.991652
10
22.580067
20
1.987575
10
22.582177
20
1.983508
10
22.584307
20
1.979452
10
22.586459
20
1.975407
10
22.588630
20
1.971373
10
22.590822
20
1.967350
10
22.593035
20
1.963338
10
22.595268
20
1.959338
10
22.597521
20
1.955349
10
22.599795
20
1.951371
10
22.602089
20
1.947405
10
22.604403
20
1.943451
10
22.606737
20
1.939509
10
22.609091
20
1.935579
10
22.611465
20
1.931660
10
22.613859
20
1.927754
10
22.616273
20
1.923860
10
22.618707
20
1.919978
10
22.621160
20
1.916109
10
22.623633
20
1.912253
10
22.626126
20
1.908409
10
22.628638
20
1.904577
10
22.631170
20
1.900759
10
22.633721
20
1.896953
10
22.636292
20
1.893161
10
22.638881
20
1.889382
10
22.641490
20
1.885616
10
22.644118
20
1.881863
10
22.646765
20
1.878123
10
22.649431
20
1.874398
10
22.652116
20
1.870685
10
22.654820
20
1.866987
10
22.657543
20
1.863302
10
22.660284
20
1.859632
10
22.663045
20
1.855975
10
22.665823
20
1.852332
10
22.668620
20
1.848704
10
22.671436
20
1.845090
10
22.674270
20
1.841490
10
22.677122
20
1.837904
10
22.679993
20
1.834334
10
22.682881
20
1.830778
10
22.685788
20
1.827236
10
22.688712
20
1.823710
10
22.691655
20
1.820198
10
22.694615
20
1.816702
10
22.697594
20
1.813220
10
22.700589
20
1.809754
10
22.703603
20
1.806303
10
22.706634
20
1.802867
10
22.709682
20
1.799447
10
22.712748
20
1.796043
10
22.715831
20
1.792654
10
22.718931
20
1.789281
10
22.722049
20
1.785924
10
22.725183
20
1.782582
10
22.728335
20
1.779257
10
22.731503
20
1.775948
10
22.734688
20
1.772654
10
22.737890
20
1.769378
10
22.741109
20
1.766117
10
22.744344
20
1.762873
10
22.747595
20
1.759645
10
22.750863
20
1.756434
10
22.754147
20
1.753240
10
22.757448
20
1.750062
10
22.760764
20
1.746902
10
22.764097
20
1.743758
10
22.767446
20
1.740631
10
22.770810
20
1.737521
10
22.774190
20
1.734429
10
22.777586
20
1.731354
10
22.780998
20
1.728296
10
22.784425
20
1.725255
10
22.787867
20
1.722232
10
22.791325
20
1.719226
10
22.794798
20
1.716239
10
22.798287
20
1.713268
10
22.801790
20
1.710316
10
22.805308
20
1.707382
10
22.808841
20
1.704465
10
22.812390
20
1.701567
10
22.815952
20
1.698686
10
22.819530
20
1.695824
10
22.823121
20
1.692980
10
22.826728
20
1.690154
10
22.830348
20
1.687347
10
22.833983
20
1.684558
10
22.837632
20
1.681788
10
22.841295
20
1.679036
10
22.844972
20
1.676303
10
22.848663
20
1.673589
10
22.852368
20
1.670894
10
22.856086
20
1.668217
10
22.859818
20
1.665560
10
22.863564
20
1.662921
10
22.867322
20
1.660302
10
22.871095
20
1.657701
10
22.874880
20
1.655120
10
22.878678
20
1.652559
10
22.882490
20
1.650016
10
22.886314
20
1.647494
10
22.890151
20
1.644990
10
22.894001
20
1.642506
10
22.897863
20
1.640042
10
22.901738
20
1.637598
10
22.905625
20
1.635173
10
22.909524
20
1.632768
10
22.913436
20
1.630383
10
22.917360
20
1.628018
10
22.921296
20
1.625673
10
22.925243
20
1.623348
10
22.929203
20
1.621043
10
22.933174
20
1.618758
10
22.937157
20
1.616493
10
22.941151
20
1.614249
10
22.945156
20
1.612025
10
22.949173
20
1.609822
10
22.953201
20
1.607639
10
22.957240
20
1.605477
10
22.961290
20
1.603335
10
22.965351
20
1.601214
10
22.969423
20
1.599113
10
22.973505
20
1.597034
10
22.977598
20
1.594975
10
22.981701
20
1.592937
10
22.985814
20
1.590919
10
22.989938
20
1.588923
10
22.994072
20
1.586948
10
22.998216
20
1.584994
10
23.002369
20
1.583061
10
23.006533
20
1.581149
10
23.010706
20
1.579259
10
23.014889
20
1.577390
10
23.019081
20
1.575542
10
23.023283
20
1.573715
10
23.027494
20
1.571910
10
23.031713
20
1.570126
10
23.035942
20
1.568364
10
23.040180
20
1.566623
10
23.044427
20
1.564904
10
23.048682
20
1.563206
10
23.052946
20
1.561531
10
23.057219
20
1.559877
10
23.061500
20
1.558244
10
23.065789
20
1.556634
10
23.070086
20
1.555045
10
23.074391
20
1.553479
10
23.078704
20
1.551934
10
23.083025
20
1.550411
10
23.087354
20
1.548910
10
23.091690
20
1.547432
10
23.096034
20
1.545975
10
25.864903
20
0.625292
10
25.880093
20
0.660331
10
25.902479
20
0.707662
0
LWPOLYLINE
8
0
100
AcDbEntity
100
AcDbPolyline
90
723
70
1
10
4.821551
20
0.500000
10
2.577487
20
3.001049
10
2.574419
20
3.004452
10
2.571333
20
3.007838
10
2.568231
20
3.011209
10
2.565111
20
3.014564
10
2.561974
20
3.017903
10
2.558820
20
3.021226
10
2.555649
20
3.024533
10
2.552461
20
3.027824
10
2.549257
20
3.031098
10
2.546036
20
3.034356
10
2.542799
20
3.037598
10
2.539545
20
3.040823
10
2.536275
20
3.044032
10
2.532988
20
3.047224
10
2.529685
20
3.050399
10
2.526366
20
3.053557
10
2.523031
20
3.056698
10
2.519680
20
3.059823
10
2.516314
20
3.062930
10
2.512931
20
3.066020
10
2.509533
20
3.069093
10
2.506119
20
3.072148
10
2.502690
20
3.075186
10
2.499245
20
3.078207
10
2.495785
20
3.081210
10
2.492310
20
3.084195
10
2.488819
20
3.087163
10
2.485314
20
3.090112
10
2.481793
20
3.093044
10
2.478258
20
3.095958
10
2.474708
20
3.098854
10
2.471143
20
3.101732
10
2.467563
20
3.104591
10
2.463969
20
3.107433
10
2.460361
20
3.110256
10
2.456738
20
3.113060
10
2.453101
20
3.115846
10
2.449450
20
3.118614
10
2.445785
20
3.121363
10
2.442106
20
3.124093
10
2.438413
20
3.126805
10
2.434706
20
3.129497
10
2.430986
20
3.132171
10
2.427252
20
3.134826
10
2.423505
20
3.137461
10
2.419744
20
3.140078
10
2.415970
20
3.142676
10
2.412183
20
3.145254
10
2.408383
20
3.147813
10
2.404569
20
3.150352
10
2.400743
20
3.152872
10
2.396904
20
3.155373
10
2.393053
20
3.157854
10
2.389189
20
3.160315
10
2.385312
20
3.162757
10
2.381423
20
3.165179
10
2.377522
20
3.167581
10
2.373608
20
3.169963
10
2.369683
20
3.172325
10
2.365745
20
3.174667
10
2.361796
20
3.176989
10
2.357835
20
3.179291
10
2.353862
20
3.181573
10
2.349878
20
3.183835
10
2.345882
20
3.186076
10
2.341875
20
3.188297
10
2.337856
20
3.190497
10
2.333826
20
3.192677
10
2.329786
20
3.194836
10
2.325734
20
3.196975
10
2.321672
20
3.199093
10
2.317599
20
3.201191
10
2.313515
20
3.203268
10
2.309421
20
3.205323
10
2.305316
20
3.207358
10
2.301201
20
3.209372
10
2.297076
20
3.211366
10
2.292940
20
3.213338
10
2.288795
20
3.215289
10
2.284640
20
3.217219
10
2.280475
20
3.219127
10
2.276300
20
3.221015
10
2.272116
20
3.222881
10
2.267923
20
3.224726
10
2.263720
20
3.226549
10
2.259508
20
3.228351
10
2.255286
20
3.230132
10
2.251056
20
3.231891
10
2.246817
20
3.233629
10
2.242569
20
3.235345
10
2.238312
20
3.237039
10
2.234047
20
3.238711
10
2.229773
20
3.240362
10
2.225491
20
3.241991
10
2.221201
20
3.243599
10
2.216903
20
3.245184
10
2.212596
20
3.246748
10
2.208282
20
3.248289
10
2.203960
20
3.249809
10
2.199630
20
3.251306
10
2.195293
20
3.252782
10
2.190948
20
3.254235
10
2.186596
20
3.255667
10
2.182236
20
3.257076
10
2.177870
20
3.258463
10
2.173496
20
3.259827
10
2.169116
20
3.261170
10
2.164729
20
3.262490
10
2.160335
20
3.263787
10
2.155934
20
3.265063
10
2.151528
20
3.266316
10
2.147114
20
3.267546
10
2.142695
20
3.268754
10
2.138270
20
3.269939
10
2.133838
20
3.271102
10
2.129401
20
3.272243
10
2.124958
20
3.273360
10
2.120509
20
3.274456
10
2.116055
20
3.275528
10
2.111596
20
3.276578
10
2.107131
20
3.277605
10
2.102661
20
3.278609
10
2.098186
20
3.279591
10
2.093706
20
3.280549
10
2.089221
20
3.281485
10
2.084731
20
3.282398
10
2.080237
20
3.283289
10
2.075738
20
3.284156
10
2.071235
20
3.285000
10
2.066728
20
3.285822
10
2.062217
20
3.286620
10
2.057701
20
3.287396
10
2.053182
20
3.288149
10
2.048659
20
3.288878
10
2.044133
20
3.289585
10
2.039602
20
3.290268
10
2.035069
20
3.290928
10
2.030532
20
3.291566
10
2.025992
20
3.292180
10
2.021449
20
3.292771
10
2.016902
20
3.293339
10
2.012353
20
3.293884
10
2.007802
20
3.294405
10
2.003248
20
3.294904
10
1.998691
20
3.295379
10
1.994132
20
3.295831
10
1.989570
20
3.296260
10
1.985007
20
3.296666
10
1.980441
20
3.297048
10
1.975874
20
3.297407
10
1.971305
20
3.297743
10
1.966734
20
3.298056
10
1.962162
20
3.298345
10
1.957588
20
3.298611
10
1.953013
20
3.298854
10
1.948437
20
3.299073
10
1.943860
20
3.299270
10
1.939281
20
3.299442
10
1.934702
20
3.299592
10
1.930123
20
3.299718
10
1.925542
20
3.299821
10
1.920962
20
3.299901
10
1.916380
20
3.299957
10
1.911799
20
3.299990
10
1.907218
20
3.300000
10
1.902636
20
3.299986
10
1.898055
20
3.299949
10
1.893474
20
3.299889
10
1.888893
20
3.299805
10
1.884313
20
3.299698
10
1.879733
20
3.299568
10
1.875154
20
3.299415
10
1.870576
20
3.299238
10
1.865999
20
3.299038
10
1.861423
20
3.298814
10
1.856848
20
3.298568
10
1.852275
20
3.298297
10
1.847703
20
3.298004
10
1.843132
20
3.297688
10
1.838564
20
3.297348
10
1.833996
20
3.296985
10
1.829431
20
3.296598
10
1.824868
20
3.296189
10
1.820307
20
3.295756
10
1.815748
20
3.295300
10
1.811192
20
3.294821
10
1.806638
20
3.294318
10
1.802087
20
3.293793
10
1.797539
20
3.293244
10
1.792993
20
3.292672
10
1.788450
20
3.292077
10
1.783911
20
3.291459
10
1.779374
20
3.290818
10
1.774841
20
3.290154
10
1.770312
20
3.289466
10
1.765786
20
3.288756
10
1.761263
20
3.288022
10
1.756745
20
3.287266
10
1.752230
20
3.286486
10
1.747719
20
3.285684
10
1.743213
20
3.284859
10
1.738711
20
3.284010
10
1.734213
20
3.283139
10
1.729719
20
3.282245
10
1.725231
20
3.281328
10
1.720747
20
3.280388
10
1.716267
20
3.279425
10
1.711793
20
3.278440
10
1.707324
20
3.277432
10
1.702860
20
3.276401
10
1.698401
20
3.275347
10
1.693948
20
3.274271
10
1.689500
20
3.273172
10
1.685058
20
3.272051
10
1.680622
20
3.270906
10
1.676192
20
3.269740
10
1.671767
20
3.268550
10
1.667349
20
3.267339
10
1.662937
20
3.266104
10
1.658531
20
3.264848
10
1.654132
20
3.263568
10
1.649739
20
3.262267
10
1.645353
20
3.260943
10
1.640974
20
3.259597
10
1.636602
20
3.258228
10
1.632236
20
3.256838
10
1.627878
20
3.255425
10
1.623527
20
3.253990
10
1.619184
20
3.252533
10
1.614848
20
3.251053
10
1.610519
20
3.249552
10
1.606198
20
3.248029
10
1.601885
20
3.246483
10
1.597580
20
3.244916
10
1.593283
20
3.243327
10
1.588994
20
3.241716
10
1.584714
20
3.240083
10
1.580441
20
3.238429
10
1.576178
20
3.236752
10
1.571923
20
3.235054
10
1.567676
20
3.233335
10
1.563438
20
3.231594
10
1.559210
20
3.229831
10
1.554990
20
3.228047
10
1.550779
20
3.226241
10
1.546578
20
3.224414
10
1.542386
20
3.222565
10
1.538203
20
3.220695
10
1.534030
20
3.218804
10
1.529867
20
3.216892
10
1.525714
20
3.214959
10
1.521570
20
3.213004
10
1.517436
20
3.211028
10
1.513313
20
3.209032
10
1.509200
20
3.207014
10
1.505097
20
3.204975
10
1.501004
20
3.202916
10
1.496922
20
3.200836
10
1.492851
20
3.198735
10
1.488790
20
3.196613
10
1.484741
20
3.194471
10
1.480702
20
3.192308
10
1.476674
20
3.190125
10
1.472658
20
3.187921
10
1.468652
20
3.185696
10
1.464658
20
3.183452
10
1.460676
20
3.181187
10
1.456705
20
3.178901
10
1.452746
20
3.176596
10
1.448799
20
3.174271
10
1.444863
20
3.171925
10
1.440940
20
3.169559
10
1.437028
20
3.167174
10
1.433129
20
3.164768
10
1.429242
20
3.162343
10
1.425368
20
3.159898
10
1.421506
20
3.157433
10
1.417656
20
3.154949
10
1.413819
20
3.152445
10
1.409996
20
3.149922
10
1.406185
20
3.147379
10
1.402386
20
3.144817
10
1.398602
20
3.142235
10
1.394830
20
3.139635
10
1.391071
20
3.137015
10
1.387326
20
3.134376
10
1.383595
20
3.131718
10
1.379877
20
3.129041
10
1.376172
20
3.126345
10
1.372482
20
3.123630
10
1.368805
20
3.120897
10
1.365142
20
3.118145
10
1.361494
20
3.115374
10
1.357859
20
3.112585
10
1.354239
20
3.109777
10
1.350633
20
3.106951
10
1.347041
20
3.104107
10
1.343464
20
3.101244
10
1.339902
20
3.098363
10
1.336354
20
3.095464
10
1.332821
20
3.092547
10
1.329303
20
3.089612
10
1.325800
20
3.086659
10
1.322313
20
3.083689
10
1.318840
20
3.080701
10
1.315382
20
3.077695
10
1.311940
20
3.074671
10
1.308514
20
3.071630
10
1.305102
20
3.068572
10
1.301707
20
3.065496
10
1.298327
20
3.062403
10
1.294963
20
3.059293
10
1.291615
20
3.056166
10
1.288282
20
3.053022
10
1.284966
20
3.049860
10
1.281666
20
3.046682
10
1.278382
20
3.043488
10
1.275115
20
3.040276
10
1.271864
20
3.037048
10
1.268629
20
3.033804
10
1.265411
20
3.030543
10
1.262210
20
3.027266
10
1.259025
20
3.023972
10
1.255857
20
3.020662
10
1.252706
20
3.017337
10
1.249572
20
3.013995
10
1.246455
20
3.010637
10
1.243355
20
3.007264
10
1.240272
20
3.003874
10
1.237207
20
3.000470
10
1.234159
20
2.997049
10
1.231128
20
2.993613
10
1.228115
20
2.990162
10
1.225120
20
2.986695
10
1.222142
20
2.983213
10
1.219182
20
2.979717
10
1.216240
20
2.976205
10
1.213316
20
2.972678
10
1.210410
20
2.969136
10
1.207521
20
2.965580
10
1.204651
20
2.962008
10
1.201800
20
2.958423
10
1.198966
20
2.954823
10
1.196151
20
2.951208
10
1.193354
20
2.947579
10
1.190576
20
2.943936
10
1.187816
20
2.940279
10
1.185075
20
2.936608
10
1.182353
20
2.932923
10
1.179650
20
2.929224
10
1.176965
20
2.925512
10
1.174300
20
2.921786
10
1.171653
20
2.918046
10
1.169025
20
2.914293
10
1.166417
20
2.910526
10
1.163828
20
2.906747
10
1.161258
20
2.902954
10
1.158707
20
2.899148
10
1.156176
20
2.895330
10
1.153664
20
2.891498
10
1.151172
20
2.887654
10
1.148699
20
2.883797
10
1.146246
20
2.879927
10
1.143813
20
2.876045
10
1.141400
20
2.872151
10
1.139006
20
2.868244
10
1.136633
20
2.864326
10
1.134279
20
2.860395
10
1.131945
20
2.856453
10
1.129632
20
2.852498
10
1.127338
20
2.848532
10
1.125065
20
2.844554
10
1.122812
20
2.840565
10
1.120580
20
2.836564
10
1.118368
20
2.832552
10
1.116176
20
2.828529
10
1.114005
20
2.824495
10
1.111854
20
2.820449
10
1.109724
20
2.816393
10
1.107615
20
2.812326
10
1.105526
20
2.808248
10
1.103459
20
2.804160
10
1.101412
20
2.800061
10
1.099386
20
2.795952
10
1.097380
20
2.791833
10
1.095396
20
2.787703
10
1.093433
20
2.783564
10
1.091491
20
2.779414
10
1.089570
20
2.775255
10
1.087671
20
2.771086
10
1.085792
20
2.766907
10
1.083935
20
2.762719
10
1.082100
20
2.758521
10
1.080285
20
2.754314
10
1.078492
20
2.750098
10
1.076721
20
2.745873
10
1.074971
20
2.741639
10
1.073243
20
2.737396
10
1.071536
20
2.733144
10
1.069851
20
2.728884
10
1.068188
20
2.724615
10
1.066546
20
2.720338
10
1.064926
20
2.716052
10
1.063328
20
2.711759
10
1.061752
20
2.707457
10
1.060198
20
2.703147
10
1.058666
20
2.698829
10
1.057156
20
2.694504
10
1.055668
20
2.690171
10
1.054201
20
2.685830
10
1.052757
20
2.681482
10
1.051336
20
2.677127
10
1.049936
20
2.672765
10
1.048559
20
2.668395
10
1.047204
20
2.664019
10
1.045871
20
2.659635
10
1.044560
20
2.655245
10
1.043272
20
2.650849
10
1.042006
20
2.646446
10
1.040763
20
2.642036
10
1.039542
20
2.637620
10
1.038344
20
2.633198
10
1.037168
20
2.628770
10
1.036015
20
2.624336
10
1.034884
20
2.619897
10
1.033776
20
2.615451
10
1.032690
20
2.611000
10
1.031628
20
2.606544
10
1.030588
20
2.602082
10
1.029570
20
2.597615
10
1.028576
20
2.593143
10
1.027604
20
2.588665
10
1.026655
20
2.584183
10
1.025729
20
2.579696
10
1.024825
20
2.575205
10
1.023945
20
2.570709
10
1.023087
20
2.566208
10
1.022253
20
2.561703
10
1.021441
20
2.557194
10
1.020652
20
2.552681
10
1.019887
20
2.548164
10
1.019144
20
2.543644
10
1.018424
20
2.539119
10
1.017728
20
2.534591
10
1.017054
20
2.530059
10
1.016403
20
2.525524
10
1.015776
20
2.520986
10
1.015172
20
2.516444
10
1.014590
20
2.511900
10
1.014032
20
2.507353
10
1.013498
20
2.502802
10
1.012986
20
2.498250
10
1.012497
20
2.493694
10
1.012032
20
2.489136
10
1.011590
20
2.484576
10
1.011171
20
2.480014
10
1.010775
20
2.475450
10
1.010403
20
2.470884
10
1.010053
20
2.466315
10
1.009728
20
2.461746
10
1.009425
20
2.457174
10
1.009145
20
2.452601
10
1.008889
20
2.448027
10
1.008656
20
2.443451
10
1.008447
20
2.438875
10
1.008261
20
2.434297
10
1.008098
20
2.429718
10
1.007958
20
2.425139
10
1.007842
20
2.420559
10
1.007749
20
2.415979
10
1.007679
20
2.411398
10
1.007633
20
2.406816
10
1.007610
20
2.402235
10
1.007610
20
2.397653
10
1.007634
20
2.393072
10
1.007681
20
2.388491
10
1.007751
20
2.383910
10
1.007844
20
2.379329
10
1.007961
20
2.374749
10
1.008101
20
2.370170
10
1.008265
20
2.365592
10
1.008452
20
2.361014
10
1.008662
20
2.356437
10
1.008895
20
2.351862
10
1.009152
20
2.347288
10
1.009432
20
2.342715
10
1.009735
20
2.338143
10
1.010062
20
2.333573
10
1.010411
20
2.329005
10
1.010784
20
2.324439
10
1.011181
20
2.319875
10
1.011600
20
2.315313
10
1.012043
20
2.310752
10
1.012509
20
2.306195
10
1.012998
20
2.301640
10
1.013510
20
2.297087
10
1.014046
20
2.292537
10
1.014604
20
2.287989
10
1.015186
20
2.283445
10
1.015791
20
2.278904
10
1.016419
20
2.274365
10
1.017070
20
2.269831
10
1.017744
20
2.265299
10
1.018441
20
2.260771
10
1.019162
20
2.256246
10
1.019905
20
2.251726
10
1.020671
20
2.247209
10
1.021461
20
2.242696
10
1.022273
20
2.238187
10
1.023108
20
2.233682
10
1.023966
20
2.229182
10
1.024847
20
2.224686
10
1.025751
20
2.220194
10
1.026678
20
2.215708
10
1.027627
20
2.211226
10
1.028600
20
2.206748
10
1.029595
20
2.202276
10
1.030613
20
2.197809
10
1.031653
20
2.193348
10
1.032717
20
2.188891
10
1.033803
20
2.184440
10
1.034911
20
2.179995
10
1.036042
20
2.175556
10
1.037196
20
2.171122
10
1.038373
20
2.166694
10
1.039572
20
2.162272
10
1.040793
20
2.157856
10
1.042037
20
2.153447
10
1.043303
20
2.149044
10
1.044592
20
2.144648
10
1.045903
20
2.140258
10
1.047236
20
2.135875
10
1.048592
20
2.131498
10
1.049970
20
2.127129
10
1.051370
20
2.122767
10
1.052792
20
2.118412
10
1.054237
20
2.114064
10
1.055703
20
2.109723
10
1.057192
20
2.105391
10
1.058703
20
2.101065
10
1.060236
20
2.096748
10
1.061790
20
2.092438
10
1.063367
20
2.088137
10
1.064965
20
2.083843
10
1.066586
20
2.079558
10
1.068228
20
2.075281
10
1.069892
20
2.071012
10
1.071577
20
2.066752
10
1.073284
20
2.062500
10
1.075013
20
2.058258
10
1.076764
20
2.054024
10
1.078536
20
2.049799
10
1.080329
20
2.045583
10
1.082144
20
2.041376
10
1.083980
20
2.037179
10
1.085838
20
2.032991
10
1.087717
20
2.028813
10
1.089617
20
2.024644
10
1.091538
20
2.020485
10
1.093481
20
2.016335
10
1.095444
20
2.012196
10
1.097429
20
2.008067
10
1.099435
20
2.003948
10
1.101461
20
1.999839
10
1.103509
20
1.995740
10
1.105577
20
1.991652
10
1.107666
20
1.987575
10
1.109776
20
1.983508
10
1.111906
20
1.979452
10
1.114058
20
1.975407
10
1.116229
20
1.971373
10
1.118421
20
1.967350
10
1.120634
20
1.963338
10
1.122867
20
1.959338
10
1.125120
20
1.955349
10
1.127394
20
1.951371
10
1.129688
20
1.947405
10
1.132002
20
1.943451
10
1.134336
20
1.939509
10
1.136690
20
1.935579
10
1.139064
20
1.931660
10
1.141458
20
1.927754
10
1.143872
20
1.923860
10
1.146306
20
1.919978
10
1.148759
20
1.916109
10
1.151232
20
1.912253
10
1.153725
20
1.908409
10
1.156237
20
1.904577
10
1.158769
20
1.900759
10
1.161320
20
1.896953
10
1.163890
20
1.893161
10
1.166480
20
1.889382
10
1.169089
20
1.885616
10
1.171717
20
1.881863
10
1.174364
20
1.878123
10
1.177030
20
1.874398
10
1.179715
20
1.870685
10
1.182419
20
1.866987
10
1.185142
20
1.863302
10
1.187883
20
1.859632
10
1.190643
20
1.855975
10
1.193422
20
1.852332
10
1.196219
20
1.848704
10
1.199035
20
1.845090
10
1.201869
20
1.841490
10
1.204721
20
1.837904
10
1.207592
20
1.834334
10
1.210480
20
1.830778
10
1.213387
20
1.827236
10
1.216311
20
1.823710
10
1.219254
20
1.820198
10
1.222214
20
1.816702
10
1.225193
20
1.813220
10
1.228188
20
1.809754
10
1.231202
20
1.806303
10
1.234233
20
1.802867
10
1.237281
20
1.799447
10
1.240347
20
1.796043
10
1.243430
20
1.792654
10
1.246530
20
1.789281
10
1.249648
20
1.785924
10
1.252782
20
1.782582
10
1.255934
20
1.779257
10
1.259102
20
1.775948
10
1.262287
20
1.772654
10
1.265489
20
1.769378
10
1.268708
20
1.766117
10
1.271943
20
1.762873
10
1.275194
20
1.759645
10
1.278462
20
1.756434
10
1.281746
20
1.753240
10
1.285047
20
1.750062
10
1.288363
20
1.746902
10
1.291696
20
1.743758
10
1.295045
20
1.740631
10
1.298409
20
1.737521
10
1.301789
20
1.734429
10
1.305185
20
1.731354
10
1.308597
20
1.728296
10
1.312024
20
1.725255
10
1.315466
20
1.722232
10
1.318924
20
1.719226
10
1.322397
20
1.716239
10
1.325886
20
1.713268
10
1.329389
20
1.710316
10
1.332907
20
1.707382
10
1.336440
20
1.704465
10
1.339988
20
1.701567
10
1.343551
20
1.698686
10
1.347129
20
1.695824
10
1.350720
20
1.692980
10
1.354327
20
1.690154
10
1.357947
20
1.687347
10
1.361582
20
1.684558
10
1.365231
20
1.681788
10
1.368894
20
1.679036
10
1.372571
20
1.676303
10
1.376262
20
1.673589
10
1.379967
20
1.670894
10
1.383685
20
1.668217
10
1.387417
20
1.665560
10
1.391163
20
1.662921
10
1.394921
20
1.660302
10
1.398694
20
1.657701
10
1.402479
20
1.655120
10
1.406277
20
1.652559
10
1.410088
20
1.650016
10
1.413913
20
1.647494
10
1.417750
20
1.644990
10
1.421599
20
1.642506
10
1.425462
20
1.640042
10
1.429337
20
1.637598
10
1.433224
20
1.635173
10
1.437123
20
1.632768
10
1.441035
20
1.630383
10
1.444959
20
1.628018
10
1.448895
20
1.625673
10
1.452842
20
1.623348
10
1.456802
20
1.621043
10
1.460773
20
1.618758
10
1.464755
20
1.616493
10
1.468750
20
1.614249
10
1.472755
20
1.612025
10
1.476772
20
1.609822
10
1.480800
20
1.607639
10
1.484839
20
1.605477
10
1.488889
20
1.603335
10
1.492950
20
1.601214
10
1.497021
20
1.599113
10
1.501104
20
1.597034
10
1.505196
20
1.594975
10
1.509300
20
1.592937
10
1.513413
20
1.590919
10
1.517537
20
1.588923
10
1.521671
20
1.586948
10
1.525815
20
1.584994
10
1.529968
20
1.583061
10
1.534132
20
1.581149
10
1.538305
20
1.579259
10
1.542488
20
1.577390
10
1.546680
20
1.575542
10
1.550882
20
1.573715
10
1.555092
20
1.571910
10
1.559312
20
1.570126
10
1.563541
20
1.568364
10
1.567779
20
1.566623
10
1.572026
20
1.564904
10
1.576281
20
1.563206
10
1.580545
20
1.561531
10
1.584818
20
1.559877
10
1.589099
20
1.558244
10
1.593388
20
1.556634
10
1.597685
20
1.555045
10
1.601990
20
1.553479
10
1.606303
20
1.551934
10
1.610624
20
1.550411
10
1.614953
20
1.548910
10
1.619289
20
1.547432
10
1.623633
20
1.545975
10
4.769306
20
0.500000
10
4.821551
20
0.500000
0
LWPOLYLINE
8
0
100
AcDbEntity
100
AcDbPolyline
90
723
70
1
10
11.979018
20
0.500000
10
9.734954
20
3.001049
10
9.731886
20
3.004452
10
9.728800
20
3.007838
10
9.725698
20
3.011209
10
9.722578
20
3.014564
10
9.719441
20
3.017903
10
9.716287
20
3.021226
10
9.713116
20
3.024533
10
9.709928
20
3.027824
10
9.706724
20
3.031098
10
9.703503
20
3.034356
10
9.700266
20
3.037598
10
9.697012
20
3.040823
10
9.693742
20
3.044032
10
9.690455
20
3.047224
10
9.687152
20
3.050399
10
9.683833
20
3.053557
10
9.680498
20
3.056698
10
9.677147
20
3.059823
10
9.673781
20
3.062930
10
9.670398
20
3.066020
10
9.667000
20
3.069093
10
9.663586
20
3.072148
10
9.660157
20
3.075186
10
9.656712
20
3.078207
10
9.653252
20
3.081210
10
9.649777
20
3.084195
10
9.646286
20
3.087163
10
9.642781
20
3.090112
10
9.639260
20
3.093044
10
9.635725
20
3.095958
10
9.632175
20
3.098854
10
9.628610
20
3.101732
10
9.625030
20
3.104591
10
9.621436
20
3.107433
10
9.617828
20
3.110256
10
9.614205
20
3.113060
10
9.610568
20
3.115846
10
9.606917
20
3.118614
10
9.603252
20
3.121363
10
9.599573
20
3.124093
10
9.595880
20
3.126805
10
9.592173
20
3.129497
10
9.588453
20
3.132171
10
9.584719
20
3.134826
10
9.580972
20
3.137461
10
9.577211
20
3.140078
10
9.573437
20
3.142676
10
9.569650
20
3.145254
10
9.565850
20
3.147813
10
9.562036
20
3.150352
10
9.558210
20
3.152872
10
9.554371
20
3.155373
10
9.550520
20
3.157854
10
9.546656
20
3.160315
10
9.542779
20
3.162757
10
9.538890
20
3.165179
10
9.534989
20
3.167581
10
9.531075
20
3.169963
10
9.527150
20
3.172325
10
9.523212
20
3.174667
10
9.519263
20
3.176989
10
9.515302
20
3.179291
10
9.511329
20
3.181573
10
9.507345
20
3.183835
10
9.503349
20
3.186076
10
9.499342
20
3.188297
10
9.495323
20
3.190497
10
9.491293
20
3.192677
10
9.487253
20
3.194836
10
9.483201
20
3.196975
10
9.479139
20
3.199093
10
9.475066
20
3.201191
10
9.470982
20
3.203268
10
9.466888
20
3.205323
10
9.462783
20
3.207358
10
9.458668
20
3.209372
10
9.454543
20
3.211366
10
9.450407
20
3.213338
10
9.446262
20
3.215289
10
9.442107
20
3.217219
10
9.437942
20
3.219127
10
9.433767
20
3.221015
10
9.429583
20
3.222881
10
9.425390
20
3.224726
10
9.421187
20
3.226549
10
9.416975
20
3.228351
10
9.412753
20
3.230132
10
9.408523
20
3.231891
10
9.404284
20
3.233629
10
9.400036
20
3.235345
10
9.395779
20
3.237039
10
9.391514
20
3.238711
10
9.387240
20
3.240362
10
9.382958
20
3.241991
10
9.378668
20
3.243599
10
9.374370
20
3.245184
10
9.370063
20
3.246748
10
9.365749
20
3.248289
10
9.361427
20
3.249809
10
9.357097
20
3.251306
10
9.352760
20
3.252782
10
9.348415
20
3.254235
10
9.344063
20
3.255667
10
9.339703
20
3.257076
10
9.335337
20
3.258463
10
9.330963
20
3.259827
10
9.326583
20
3.261170
10
9.322196
20
3.262490
10
9.317802
20
3.263787
10
9.313401
20
3.265063
10
9.308995
20
3.266316
10
9.304581
20
3.267546
10
9.300162
20
3.268754
10
9.295737
20
3.269939
10
9.291305
20
3.271102
10
9.286868
20
3.272243
10
9.282425
20
3.273360
10
9.277976
20
3.274456
10
9.273522
20
3.275528
10
9.269063
20
3.276578
10
9.264598
20
3.277605
10
9.260128
20
3.278609
10
9.255653
20
3.279591
10
9.251173
20
3.280549
10
9.246688
20
3.281485
10
9.242198
20
3.282398
10
9.237704
20
3.283289
10
9.233205
20
3.284156
10
9.228702
20
3.285000
10
9.224195
20
3.285822
10
9.219684
20
3.286620
10
9.215169
20
3.287396
10
9.210649
20
3.288149
10
9.206126
20
3.288878
10
9.201600
20
3.289585
10
9.197069
20
3.290268
10
9.192536
20
3.290928
10
9.187999
20
3.291566
10
9.183459
20
3.292180
10
9.178916
20
3.292771
10
9.174369
20
3.293339
10
9.169821
20
3.293884
10
9.165269
20
3.294405
10
9.160715
20
3.294904
10
9.156158
20
3.295379
10
9.151599
20
3.295831
10
9.147037
20
3.296260
10
9.142474
20
3.296666
10
9.137908
20
3.297048
10
9.133341
20
3.297407
10
9.128772
20
3.297743
10
9.124201
20
3.298056
10
9.119629
20
3.298345
10
9.115055
20
3.298611
10
9.110480
20
3.298854
10
9.105904
20
3.299073
10
9.101327
20
3.299270
10
9.096748
20
3.299442
10
9.092169
20
3.299592
10
9.087590
20
3.299718
10
9.083009
20
3.299821
10
9.078429
20
3.299901
10
9.073847
20
3.299957
10
9.069266
20
3.299990
10
9.064685
20
3.300000
10
9.060103
20
3.299986
10
9.055522
20
3.299949
10
9.050941
20
3.299889
10
9.046360
20
3.299805
10
9.041780
20
3.299698
10
9.037200
20
3.299568
10
9.032621
20
3.299415
10
9.028043
20
3.299238
10
9.023466
20
3.299038
10
9.018890
20
3.298814
10
9.014315
20
3.298568
10
9.009742
20
3.298297
10
9.005170
20
3.298004
10
9.000599
20
3.297688
10
8.996031
20
3.297348
10
8.991463
20
3.296985
10
8.986898
20
3.296598
10
8.982335
20
3.296189
10
8.977774
20
3.295756
10
8.973216
20
3.295300
10
8.968659
20
3.294821
10
8.964105
20
3.294318
10
8.959554
20
3.293793
10
8.955006
20
3.293244
10
8.950460
20
3.292672
10
8.945917
20
3.292077
10
8.941378
20
3.291459
10
8.936841
20
3.290818
10
8.932308
20
3.290154
10
8.927779
20
3.289466
10
8.923253
20
3.288756
10
8.918730
20
3.288022
10
8.914212
20
3.287266
10
8.909697
20
3.286486
10
8.905186
20
3.285684
10
8.900680
20
3.284859
10
8.896178
20
3.284010
10
8.891680
20
3.283139
10
8.887186
20
3.282245
10
8.882698
20
3.281328
10
8.878214
20
3.280388
10
8.873734
20
3.279425
10
8.869260
20
3.278440
10
8.864791
20
3.277432
10
8.860327
20
3.276401
10
8.855868
20
3.275347
10
8.851415
20
3.274271
10
8.846967
20
3.273172
10
8.842525
20
3.272051
10
8.838089
20
3.270906
10
8.833659
20
3.269740
10
8.829234
20
3.268550
10
8.824816
20
3.267339
10
8.820404
20
3.266104
10
8.815998
20
3.264848
10
8.811599
20
3.263568
10
8.807206
20
3.262267
10
8.802820
20
3.260943
10
8.798441
20
3.259597
10
8.794069
20
3.258228
10
8.789703
20
3.256838
10
8.785345
20
3.255425
10
8.780994
20
3.253990
10
8.776651
20
3.252533
10
8.772315
20
3.251053
10
8.767986
20
3.249552
10
8.763665
20
3.248029
10
8.759352
20
3.246483
10
8.755047
20
3.244916
10
8.750750
20
3.243327
10
8.746461
20
3.241716
10
8.742181
20
3.240083
10
8.737908
20
3.238429
10
8.733645
20
3.236752
10
8.729390
20
3.235054
10
8.725143
20
3.233335
10
8.720905
20
3.231594
10
8.716677
20
3.229831
10
8.712457
20
3.228047
10
8.708246
20
3.226241
10
8.704045
20
3.224414
10
8.699853
20
3.222565
10
8.695670
20
3.220695
10
8.691497
20
3.218804
10
8.687334
20
3.216892
10
8.683181
20
3.214959
10
8.679037
20
3.213004
10
8.674903
20
3.211028
10
8.670780
20
3.209032
10
8.666667
20
3.207014
10
8.662564
20
3.204975
10
8.658471
20
3.202916
10
8.654389
20
3.200836
10
8.650318
20
3.198735
10
8.646257
20
3.196613
10
8.642208
20
3.194471
10
8.638169
20
3.192308
10
8.634141
20
3.190125
10
8.630125
20
3.187921
10
8.626119
20
3.185696
10
8.622125
20
3.183452
10
8.618143
20
3.181187
10
8.614172
20
3.178901
10
8.610213
20
3.176596
10
8.606266
20
3.174271
10
8.602330
20
3.171925
10
8.598407
20
3.169559
10
8.594495
20
3.167174
10
8.590596
20
3.164768
10
8.586709
20
3.162343
10
8.582835
20
3.159898
10
8.578973
20
3.157433
10
8.575123
20
3.154949
10
8.571286
20
3.152445
10
8.567463
20
3.149922
10
8.563652
20
3.147379
10
8.559853
20
3.144817
10
8.556069
20
3.142235
10
8.552297
20
3.139635
10
8.548538
20
3.137015
10
8.544793
20
3.134376
10
8.541062
20
3.131718
10
8.537344
20
3.129041
10
8.533639
20
3.126345
10
8.529949
20
3.123630
10
8.526272
20
3.120897
10
8.522609
20
3.118145
10
8.518961
20
3.115374
10
8.515326
20
3.112585
10
8.511706
20
3.109777
10
8.508100
20
3.106951
10
8.504508
20
3.104107
10
8.500931
20
3.101244
10
8.497369
20
3.098363
10
8.493821
20
3.095464
10
8.490288
20
3.092547
10
8.486770
20
3.089612
10
8.483267
20
3.086659
10
8.479780
20
3.083689
10
8.476307
20
3.080701
10
8.472849
20
3.077695
10
8.469407
20
3.074671
10
8.465981
20
3.071630
10
8.462569
20
3.068572
10
8.459174
20
3.065496
10
8.455794
20
3.062403
10
8.452430
20
3.059293
10
8.449082
20
3.056166
10
8.445749
20
3.053022
10
8.442433
20
3.049860
10
8.439133
20
3.046682
10
8.435849
20
3.043488
10
8.432582
20
3.040276
10
8.429331
20
3.037048
10
8.426096
20
3.033804
10
8.422878
20
3.030543
10
8.419677
20
3.027266
10
8.416492
20
3.023972
10
8.413324
20
3.020662
10
8.410173
20
3.017337
10
8.407039
20
3.013995
10
8.403922
20
3.010637
10
8.400822
20
3.007264
10
8.397739
20
3.003874
10
8.394674
20
3.000470
10
8.391626
20
2.997049
10
8.388595
20
2.993613
10
8.385582
20
2.990162
10
8.382587
20
2.986695
10
8.379609
20
2.983213
10
8.376649
20
2.979717
10
8.373707
20
2.976205
10
8.370783
20
2.972678
10
8.367877
20
2.969136
10
8.364988
20
2.965580
10
8.362118
20
2.962008
10
8.359267
20
2.958423
10
8.356433
20
2.954823
10
8.353618
20
2.951208
10
8.350821
20
2.947579
10
8.348043
20
2.943936
10
8.345283
20
2.940279
10
8.342542
20
2.936608
10
8.339820
20
2.932923
10
8.337117
20
2.929224
10
8.334432
20
2.925512
10
8.331767
20
2.921786
10
8.329120
20
2.918046
10
8.326492
20
2.914293
10
8.323884
20
2.910526
10
8.321295
20
2.906747
10
8.318725
20
2.902954
10
8.316174
20
2.899148
10
8.313643
20
2.895330
10
8.311131
20
2.891498
10
8.308639
20
2.887654
10
8.306166
20
2.883797
10
8.303713
20
2.879927
10
8.301280
20
2.876045
10
8.298867
20
2.872151
10
8.296473
20
2.868244
10
8.294100
20
2.864326
10
8.291746
20
2.860395
10
8.289412
20
2.856453
10
8.287099
20
2.852498
10
8.284805
20
2.848532
10
8.282532
20
2.844554
10
8.280279
20
2.840565
10
8.278047
20
2.836564
10
8.275835
20
2.832552
10
8.273643
20
2.828529
10
8.271472
20
2.824495
10
8.269321
20
2.820449
10
8.267191
20
2.816393
10
8.265082
20
2.812326
10
8.262993
20
2.808248
10
8.260926
20
2.804160
10
8.258879
20
2.800061
10
8.256853
20
2.795952
10
8.254847
20
2.791833
10
8.252863
20
2.787703
10
8.250900
20
2.783564
10
8.248958
20
2.779414
10
8.247037
20
2.775255
10
8.245138
20
2.771086
10
8.243259
20
2.766907
10
8.241402
20
2.762719
10
8.239567
20
2.758521
10
8.237752
20
2.754314
10
8.235959
20
2.750098
10
8.234188
20
2.745873
10
8.232438
20
2.741639
10
8.230710
20
2.737396
10
8.229003
20
2.733144
10
8.227318
20
2.728884
10
8.225655
20
2.724615
10
8.224013
20
2.720338
10
8.222393
20
2.716052
10
8.220795
20
2.711759
10
8.219219
20
2.707457
10
8.217665
20
2.703147
10
8.216133
20
2.698829
10
8.214623
20
2.694504
10
8.213135
20
2.690171
10
8.211668
20
2.685830
10
8.210224
20
2.681482
10
8.208803
20
2.677127
10
8.207403
20
2.672765
10
8.206026
20
2.668395
10
8.204671
20
2.664019
10
8.203338
20
2.659635
10
8.202027
20
2.655245
10
8.200739
20
2.650849
10
8.199473
20
2.646446
10
8.198230
20
2.642036
10
8.197009
20
2.637620
10
8.195811
20
2.633198
10
8.194635
20
2.628770
10
8.193482
20
2.624336
10
8.192351
20
2.619897
10
8.191243
20
2.615451
10
8.190157
20
2.611000
10
8.189095
20
2.606544
10
8.188055
20
2.602082
10
8.187037
20
2.597615
10
8.186043
20
2.593143
10
8.185071
20
2.588665
10
8.184122
20
2.584183
10
8.183196
20
2.579696
10
8.182292
20
2.575205
10
8.181412
20
2.570709
10
8.180554
20
2.566208
10
8.179720
20
2.561703
10
8.178908
20
2.557194
10
8.178119
20
2.552681
10
8.177354
20
2.548164
10
8.176611
20
2.543644
10
8.175891
20
2.539119
10
8.175195
20
2.534591
10
8.174521
20
2.530059
10
8.173870
20
2.525524
10
8.173243
20
2.520986
10
8.172639
20
2.516444
10
8.172058
20
2.511900
10
8.171499
20
2.507353
10
8.170965
20
2.502802
10
8.170453
20
2.498250
10
8.169964
20
2.493694
10
8.169499
20
2.489136
10
8.169057
20
2.484576
10
8.168638
20
2.480014
10
8.168242
20
2.475450
10
8.167870
20
2.470884
10
8.167520
20
2.466315
10
8.167195
20
2.461746
10
8.166892
20
2.457174
10
8.166612
20
2.452601
10
8.166356
20
2.448027
10
8.166123
20
2.443451
10
8.165914
20
2.438875
10
8.165728
20
2.434297
10
8.165565
20
2.429718
10
8.165425
20
2.425139
10
8.165309
20
2.420559
10
8.165216
20
2.415979
10
8.165146
20
2.411398
10
8.165100
20
2.406816
10
8.165077
20
2.402235
10
8.165077
20
2.397653
10
8.165101
20
2.393072
10
8.165148
20
2.388491
10
8.165218
20
2.383910
10
8.165311
20
2.379329
10
8.165428
20
2.374749
10
8.165568
20
2.370170
10
8.165732
20
2.365592
10
8.165919
20
2.361014
10
8.166129
20
2.356437
10
8.166362
20
2.351862
10
8.166619
20
2.347288
10
8.166899
20
2.342715
10
8.167202
20
2.338143
10
8.167529
20
2.333573
10
8.167878
20
2.329005
10
8.168252
20
2.324439
10
8.168648
20
2.319875
10
8.169067
20
2.315313
10
8.169510
20
2.310752
10
8.169976
20
2.306195
10
8.170465
20
2.301640
10
8.170977
20
2.297087
10
8.171513
20
2.292537
10
8.172071
20
2.287989
10
8.172653
20
2.283445
10
8.173258
20
2.278904
10
8.173886
20
2.274365
10
8.174537
20
2.269831
10
8.175211
20
2.265299
10
8.175909
20
2.260771
10
8.176629
20
2.256246
10
8.177372
20
2.251726
10
8.178138
20
2.247209
10
8.178928
20
2.242696
10
8.179740
20
2.238187
10
8.180575
20
2.233682
10
8.181433
20
2.229182
10
8.182314
20
2.224686
10
8.183218
20
2.220194
10
8.184145
20
2.215708
10
8.185094
20
2.211226
10
8.186067
20
2.206748
10
8.187062
20
2.202276
10
8.188080
20
2.197809
10
8.189120
20
2.193348
10
8.190184
20
2.188891
10
8.191270
20
2.184440
10
8.192378
20
2.179995
10
8.193509
20
2.175556
10
8.194663
20
2.171122
10
8.195840
20
2.166694
10
8.197039
20
2.162272
10
8.198260
20
2.157856
10
8.199504
20
2.153447
10
8.200770
20
2.149044
10
8.202059
20
2.144648
10
8.203370
20
2.140258
10
8.204703
20
2.135875
10
8.206059
20
2.131498
10
8.207437
20
2.127129
10
8.208837
20
2.122767
10
8.210259
20
2.118412
10
8.211704
20
2.114064
10
8.213171
20
2.109723
10
8.214659
20
2.105391
10
8.216170
20
2.101065
10
8.217703
20
2.096748
10
8.219257
20
2.092438
10
8.220834
20
2.088137
10
8.222432
20
2.083843
10
8.224053
20
2.079558
10
8.225695
20
2.075281
10
8.227359
20
2.071012
10
8.229044
20
2.066752
10
8.230751
20
2.062500
10
8.232480
20
2.058258
10
8.234231
20
2.054024
10
8.236003
20
2.049799
10
8.237796
20
2.045583
10
8.239611
20
2.041376
10
8.241447
20
2.037179
10
8.243305
20
2.032991
10
8.245184
20
2.028813
10
8.247084
20
2.024644
10
8.249005
20
2.020485
10
8.250948
20
2.016335
10
8.252911
20
2.012196
10
8.254896
20
2.008067
10
8.256902
20
2.003948
10
8.258928
20
1.999839
10
8.260976
20
1.995740
10
8.263044
20
1.991652
10
8.265133
20
1.987575
10
8.267243
20
1.983508
10
8.269373
20
1.979452
10
8.271525
20
1.975407
10
8.273696
20
1.971373
10
8.275888
20
1.967350
10
8.278101
20
1.963338
10
8.280334
20
1.959338
10
8.282587
20
1.955349
10
8.284861
20
1.951371
10
8.287155
20
1.947405
10
8.289469
20
1.943451
10
8.291803
20
1.939509
10
8.294157
20
1.935579
10
8.296531
20
1.931660
10
8.298925
20
1.927754
10
8.301339
20
1.923860
10
8.303773
20
1.919978
10
8.306226
20
1.916109
10
8.308699
20
1.912253
10
8.311192
20
1.908409
10
8.313704
20
1.904577
10
8.316236
20
1.900759
10
8.318787
20
1.896953
10
8.321357
20
1.893161
10
8.323947
20
1.889382
10
8.326556
20
1.885616
10
8.329184
20
1.881863
10
8.331831
20
1.878123
10
8.334497
20
1.874398
10
8.337182
20
1.870685
10
8.339886
20
1.866987
10
8.342609
20
1.863302
10
8.345350
20
1.859632
10
8.348110
20
1.855975
10
8.350889
20
1.852332
10
8.353686
20
1.848704
10
8.356502
20
1.845090
10
8.359336
20
1.841490
10
8.362188
20
1.837904
10
8.365059
20
1.834334
10
8.367947
20
1.830778
10
8.370854
20
1.827236
10
8.373778
20
1.823710
10
8.376721
20
1.820198
10
8.379681
20
1.816702
10
8.382660
20
1.813220
10
8.385655
20
1.809754
10
8.388669
20
1.806303
10
8.391700
20
1.802867
10
8.394748
20
1.799447
10
8.397814
20
1.796043
10
8.400897
20
1.792654
10
8.403997
20
1.789281
10
8.407115
20
1.785924
10
8.410249
20
1.782582
10
8.413401
20
1.779257
10
8.416569
20
1.775948
10
8.419754
20
1.772654
10
8.422956
20
1.769378
10
8.426175
20
1.766117
10
8.429410
20
1.762873
10
8.432661
20
1.759645
10
8.435929
20
1.756434
10
8.439213
20
1.753240
10
8.442514
20
1.750062
10
8.445830
20
1.746902
10
8.449163
20
1.743758
10
8.452512
20
1.740631
10
8.455876
20
1.737521
10
8.459256
20
1.734429
10
8.462652
20
1.731354
10
8.466064
20
1.728296
10
8.469491
20
1.725255
10
8.472933
20
1.722232
10
8.476391
20
1.719226
10
8.479864
20
1.716239
10
8.483353
20
1.713268
10
8.486856
20
1.710316
10
8.490374
20
1.707382
10
8.493907
20
1.704465
10
8.497455
20
1.701567
10
8.501018
20
1.698686
10
8.504596
20
1.695824
10
8.508187
20
1.692980
10
8.511794
20
1.690154
10
8.515414
20
1.687347
10
8.519049
20
1.684558
10
8.522698
20
1.681788
10
8.526361
20
1.679036
10
8.530038
20
1.676303
10
8.533729
20
1.673589
10
8.537434
20
1.670894
10
8.541152
20
1.668217
10
8.544884
20
1.665560
10
8.548630
20
1.662921
10
8.552388
20
1.660302
10
8.556161
20
1.657701
10
8.559946
20
1.655120
10
8.563744
20
1.652559
10
8.567556
20
1.650016
10
8.571380
20
1.647494
10
8.575217
20
1.644990
10
8.579066
20
1.642506
10
8.582929
20
1.640042
10
8.586804
20
1.637598
10
8.590691
20
1.635173
10
8.594590
20
1.632768
10
8.598502
20
1.630383
10
8.602426
20
1.628018
10
8.606362
20
1.625673
10
8.610309
20
1.623348
10
8.614269
20
1.621043
10
8.618240
20
1.618758
10
8.622222
20
1.616493
10
8.626217
20
1.614249
10
8.630222
20
1.612025
10
8.634239
20
1.609822
10
8.638267
20
1.607639
10
8.642306
20
1.605477
10
8.646356
20
1.603335
10
8.650417
20
1.601214
10
8.654489
20
1.599113
10
8.658571
20
1.597034
10
8.662664
20
1.594975
10
8.666767
20
1.592937
10
8.670880
20
1.590919
10
8.675004
20
1.588923
10
8.679138
20
1.586948
10
8.683282
20
1.584994
10
8.687435
20
1.583061
10
8.691599
20
1.581149
10
8.695772
20
1.579259
10
8.699955
20
1.577390
10
8.704147
20
1.575542
10
8.708349
20
1.573715
10
8.712559
20
1.571910
10
8.716779
20
1.570126
10
8.721008
20
1.568364
10
8.725246
20
1.566623
10
8.729493
20
1.564904
10
8.733748
20
1.563206
10
8.738012
20
1.561531
10
8.742285
20
1.559877
10
8.746566
20
1.558244
10
8.750855
20
1.556634
10
8.755152
20
1.555045
10
8.759457
20
1.553479
10
8.763770
20
1.551934
10
8.768091
20
1.550411
10
8.772420
20
1.548910
10
8.776756
20
1.547432
10
8.781100
20
1.545975
10
11.926773
20
0.500000
10
11.979018
20
0.500000
0
LWPOLYLINE
8
0
100
AcDbEntity
100
AcDbPolyline
90
723
70
1
10
19.136485
20
0.500000
10
16.892421
20
3.001049
10
16.889353
20
3.004452
10
16.886267
20
3.007838
10
16.883165
20
3.011209
10
16.880045
20
3.014564
10
16.876908
20
3.017903
10
16.873754
20
3.021226
10
16.870583
20
3.024533
10
16.867396
20
3.027824
10
16.864191
20
3.031098
10
16.860970
20
3.034356
10
16.857733
20
3.037598
10
16.854479
20
3.040823
10
16.851209
20
3.044032
10
16.847922
20
3.047224
10
16.844619
20
3.050399
10
16.841300
20
3.053557
10
16.837965
20
3.056698
10
16.834614
20
3.059823
10
16.831248
20
3.062930
10
16.827865
20
3.066020
10
16.824467
20
3.069093
10
16.821053
20
3.072148
10
16.817624
20
3.075186
10
16.814179
20
3.078207
10
16.810719
20
3.081210
10
16.807244
20
3.084195
10
16.803753
20
3.087163
10
16.800248
20
3.090112
10
16.796727
20
3.093044
10
16.793192
20
3.095958
10
16.789642
20
3.098854
10
16.786077
20
3.101732
10
16.782497
20
3.104591
10
16.778903
20
3.107433
10
16.775295
20
3.110256
10
16.771672
20
3.113060
10
16.768035
20
3.115846
10
16.764384
20
3.118614
10
16.760719
20
3.121363
10
16.757040
20
3.124093
10
16.753347
20
3.126805
10
16.749640
20
3.129497
10
16.745920
20
3.132171
10
16.742186
20
3.134826
10
16.738439
20
3.137461
10
16.734678
20
3.140078
10
16.730904
20
3.142676
10
16.727117
20
3.145254
10
16.723317
20
3.147813
10
16.719503
20
3.150352
10
16.715677
20
3.152872
10
16.711838
20
3.155373
10
16.707987
20
3.157854
10
16.704123
20
3.160315
10
16.700246
20
3.162757
10
16.696357
20
3.165179
10
16.692456
20
3.167581
10
16.688542
20
3.169963
10
16.684617
20
3.172325
10
16.680679
20
3.174667
10
16.676730
20
3.176989
10
16.672769
20
3.179291
10
16.668796
20
3.181573
10
16.664812
20
3.183835
10
16.660816
20
3.186076
10
16.656809
20
3.188297
10
16.652790
20
3.190497
10
16.648761
20
3.192677
10
16.644720
20
3.194836
10
16.640668
20
3.196975
10
16.636606
20
3.199093
10
16.632533
20
3.201191
10
16.628449
20
3.203268
10
16.624355
20
3.205323
10
16.620250
20
3.207358
10
16.616135
20
3.209372
10
16.612010
20
3.211366
10
16.607874
20
3.213338
10
16.603729
20
3.215289
10
16.599574
20
3.217219
10
16.595409
20
3.219127
10
16.591234
20
3.221015
10
16.587050
20
3.222881
10
16.582857
20
3.224726
10
16.578654
20
3.226549
10
16.574442
20
3.228351
10
16.570220
20
3.230132
10
16.565990
20
3.231891
10
16.561751
20
3.233629
10
16.557503
20
3.235345
10
16.553246
20
3.237039
10
16.548981
20
3.238711
10
16.544707
20
3.240362
10
16.540425
20
3.241991
10
16.536135
20
3.243599
10
16.531837
20
3.245184
10
16.527530
20
3.246748
10
16.523216
20
3.248289
10
16.518894
20
3.249809
10
16.514564
20
3.251306
10
16.510227
20
3.252782
10
16.505882
20
3.254235
10
16.501530
20
3.255667
10
16.497170
20
3.257076
10
16.492804
20
3.258463
10
16.488430
20
3.259827
10
16.484050
20
3.261170
10
16.479663
20
3.262490
10
16.475269
20
3.263787
10
16.470868
20
3.265063
10
16.466462
20
3.266316
10
16.462048
20
3.267546
10
16.457629
20
3.268754
10
16.453204
20
3.269939
10
16.448772
20
3.271102
10
16.444335
20
3.272243
10
16.439892
20
3.273360
10
16.435443
20
3.274456
10
16.430989
20
3.275528
10
16.426530
20
3.276578
10
16.422065
20
3.277605
10
16.417595
20
3.278609
10
16.413120
20
3.279591
10
16.408640
20
3.280549
10
16.404155
20
3.281485
10
16.399665
20
3.282398
10
16.395171
20
3.283289
10
16.390672
20
3.284156
10
16.386169
20
3.285000
10
16.381662
20
3.285822
10
16.377151
20
3.286620
10
16.372636
20
3.287396
10
16.368116
20
3.288149
10
16.363593
20
3.288878
10
16.359067
20
3.289585
10
16.354536
20
3.290268
10
16.350003
20
3.290928
10
16.345466
20
3.291566
10
16.340926
20
3.292180
10
16.336383
20
3.292771
10
16.331836
20
3.293339
10
16.327288
20
3.293884
10
16.322736
20
3.294405
10
16.318182
20
3.294904
10
16.313625
20
3.295379
10
16.309066
20
3.295831
10
16.304504
20
3.296260
10
16.299941
20
3.296666
10
16.295375
20
3.297048
10
16.290808
20
3.297407
10
16.286239
20
3.297743
10
16.281668
20
3.298056
10
16.277096
20
3.298345
10
16.272522
20
3.298611
10
16.267947
20
3.298854
10
16.263371
20
3.299073
10
16.258794
20
3.299270
10
16.254215
20
3.299442
10
16.249636
20
3.299592
10
16.245057
20
3.299718
10
16.240476
20
3.299821
10
16.235896
20
3.299901
10
16.231314
20
3.299957
10
16.226733
20
3.299990
10
16.222152
20
3.300000
10
16.217570
20
3.299986
10
16.212989
20
3.299949
10
16.208408
20
3.299889
10
16.203827
20
3.299805
10
16.199247
20
3.299698
10
16.194667
20
3.299568
10
16.190088
20
3.299415
10
16.185510
20
3.299238
10
16.180933
20
3.299038
10
16.176357
20
3.298814
10
16.171782
20
3.298568
10
16.167209
20
3.298297
10
16.162637
20
3.298004
10
16.158066
20
3.297688
10
16.153498
20
3.297348
10
16.148930
20
3.296985
10
16.144365
20
3.296598
10
16.139802
20
3.296189
10
16.135241
20
3.295756
10
16.130683
20
3.295300
10
16.126126
20
3.294821
10
16.121572
20
3.294318
10
16.117021
20
3.293793
10
16.112473
20
3.293244
10
16.107927
20
3.292672
10
16.103384
20
3.292077
10
16.098845
20
3.291459
10
16.094308
20
3.290818
10
16.089775
20
3.290154
10
16.085246
20
3.289466
10
16.080720
20
3.288756
10
16.076197
20
3.288022
10
16.071679
20
3.287266
10
16.067164
20
3.286486
10
16.062653
20
3.285684
10
16.058147
20
3.284859
10
16.053645
20
3.284010
10
16.049147
20
3.283139
10
16.044653
20
3.282245
10
16.040165
20
3.281328
10
16.035681
20
3.280388
10
16.031201
20
3.279425
10
16.026727
20
3.278440
10
16.022258
20
3.277432
10
16.017794
20
3.276401
10
16.013335
20
3.275347
10
16.008882
20
3.274271
10
16.004434
20
3.273172
10
15.999992
20
3.272051
10
15.995556
20
3.270906
10
15.991126
20
3.269740
10
15.986701
20
3.268550
10
15.982283
20
3.267339
10
15.977871
20
3.266104
10
15.973465
20
3.264848
10
15.969066
20
3.263568
10
15.964673
20
3.262267
10
15.960287
20
3.260943
10
15.955908
20
3.259597
10
15.951536
20
3.258228
10
15.947170
20
3.256838
10
15.942812
20
3.255425
10
15.938461
20
3.253990
10
15.934118
20
3.252533
10
15.929782
20
3.251053
10
15.925453
20
3.249552
10
15.921132
20
3.248029
10
15.916819
20
3.246483
10
15.912514
20
3.244916
10
15.908217
20
3.243327
10
15.903928
20
3.241716
10
15.899648
20
3.240083
10
15.895376
20
3.238429
10
15.891112
20
3.236752
10
15.886857
20
3.235054
10
15.882610
20
3.233335
10
15.878372
20
3.231594
10
15.874144
20
3.229831
10
15.869924
20
3.228047
10
15.865713
20
3.226241
10
15.861512
20
3.224414
10
15.857320
20
3.222565
10
15.853137
20
3.220695
10
15.848964
20
3.218804
10
15.844801
20
3.216892
10
15.840648
20
3.214959
10
15.836504
20
3.213004
10
15.832370
20
3.211028
10
15.828247
20
3.209032
10
15.824134
20
3.207014
10
15.820031
20
3.204975
10
15.815938
20
3.202916
10
15.811856
20
3.200836
10
15.807785
20
3.198735
10
15.803724
20
3.196613
10
15.799675
20
3.194471
10
15.795636
20
3.192308
10
15.791608
20
3.190125
10
15.787592
20
3.187921
10
15.783586
20
3.185696
10
15.779592
20
3.183452
10
15.775610
20
3.181187
10
15.771639
20
3.178901
10
15.767680
20
3.176596
10
15.763733
20
3.174271
10
15.759797
20
3.171925
10
15.755874
20
3.169559
10
15.751962
20
3.167174
10
15.748063
20
3.164768
10
15.744176
20
3.162343
10
15.740302
20
3.159898
10
15.736440
20
3.157433
10
15.732590
20
3.154949
10
15.728753
20
3.152445
10
15.724930
20
3.149922
10
15.721119
20
3.147379
10
15.717320
20
3.144817
10
15.713536
20
3.142235
10
15.709764
20
3.139635
10
15.706005
20
3.137015
10
15.702260
20
3.134376
10
15.698529
20
3.131718
10
15.694811
20
3.129041
10
15.691106
20
3.126345
10
15.687416
20
3.123630
10
15.683739
20
3.120897
10
15.680076
20
3.118145
10
15.676428
20
3.115374
10
15.672793
20
3.112585
10
15.669173
20
3.109777
10
15.665567
20
3.106951
10
15.661975
20
3.104107
10
15.658398
20
3.101244
10
15.654836
20
3.098363
10
15.651288
20
3.095464
10
15.647755
20
3.092547
10
15.644237
20
3.089612
10
15.640734
20
3.086659
10
15.637247
20
3.083689
10
15.633774
20
3.080701
10
15.630316
20
3.077695
10
15.626874
20
3.074671
10
15.623448
20
3.071630
10
15.620036
20
3.068572
10
15.616641
20
3.065496
10
15.613261
20
3.062403
10
15.609897
20
3.059293
10
15.606549
20
3.056166
10
15.603216
20
3.053022
10
15.599900
20
3.049860
10
15.596600
20
3.046682
10
15.593316
20
3.043488
10
15.590049
20
3.040276
10
15.586798
20
3.037048
10
15.583563
20
3.033804
10
15.580345
20
3.030543
10
15.577144
20
3.027266
10
15.573959
20
3.023972
10
15.570791
20
3.020662
10
15.567640
20
3.017337
10
15.564506
20
3.013995
10
15.561389
20
3.010637
10
15.558289
20
3.007264
10
15.555206
20
3.003874
10
15.552141
20
3.000470
10
15.549093
20
2.997049
10
15.546062
20
2.993613
10
15.543049
20
2.990162
10
15.540054
20
2.986695
10
15.537076
20
2.983213
10
15.534116
20
2.979717
10
15.531174
20
2.976205
10
15.528250
20
2.972678
10
15.525344
20
2.969136
10
15.522455
20
2.965580
10
15.519585
20
2.962008
10
15.516734
20
2.958423
10
15.513900
20
2.954823
10
15.511085
20
2.951208
10
15.508288
20
2.947579
10
15.505510
20
2.943936
10
15.502750
20
2.940279
10
15.500010
20
2.936608
10
15.497287
20
2.932923
10
15.494584
20
2.929224
10
15.491899
20
2.925512
10
15.489234
20
2.921786
10
15.486587
20
2.918046
10
15.483959
20
2.914293
10
15.481351
20
2.910526
10
15.478762
20
2.906747
10
15.476192
20
2.902954
10
15.473641
20
2.899148
10
15.471110
20
2.895330
10
15.468598
20
2.891498
10
15.466106
20
2.887654
10
15.463633
20
2.883797
10
15.461180
20
2.879927
10
15.458747
20
2.876045
10
15.456334
20
2.872151
10
15.453940
20
2.868244
10
15.451567
20
2.864326
10
15.449213
20
2.860395
10
15.446879
20
2.856453
10
15.444566
20
2.852498
10
15.442272
20
2.848532
10
15.439999
20
2.844554
10
15.437746
20
2.840565
10
15.435514
20
2.836564
10
15.433302
20
2.832552
10
15.431110
20
2.828529
10
15.428939
20
2.824495
10
15.426788
20
2.820449
10
15.424658
20
2.816393
10
15.422549
20
2.812326
10
15.420460
20
2.808248
10
15.418393
20
2.804160
10
15.416346
20
2.800061
10
15.414320
20
2.795952
10
15.412314
20
2.791833
10
15.410330
20
2.787703
10
15.408367
20
2.783564
10
15.406425
20
2.779414
10
15.404504
20
2.775255
10
15.402605
20
2.771086
10
15.400726
20
2.766907
10
15.398869
20
2.762719
10
15.397034
20
2.758521
10
15.395219
20
2.754314
10
15.393426
20
2.750098
10
15.391655
20
2.745873
10
15.389905
20
2.741639
10
15.388177
20
2.737396
10
15.386470
20
2.733144
10
15.384785
20
2.728884
10
15.383122
20
2.724615
10
15.381480
20
2.720338
10
15.379860
20
2.716052
10
15.378262
20
2.711759
10
15.376686
20
2.707457
10
15.375132
20
2.703147
10
15.373600
20
2.698829
10
15.372090
20
2.694504
10
15.370602
20
2.690171
10
15.369135
20
2.685830
10
15.367692
20
2.681482
10
15.366270
20
2.677127
10
15.364870
20
2.672765
10
15.363493
20
2.668395
10
15.362138
20
2.664019
10
15.360805
20
2.659635
10
15.359494
20
2.655245
10
15.358206
20
2.650849
10
15.356940
20
2.646446
10
15.355697
20
2.642036
10
15.354476
20
2.637620
10
15.353278
20
2.633198
10
15.352102
20
2.628770
10
15.350949
20
2.624336
10
15.349818
20
2.619897
10
15.348710
20
2.615451
10
15.347624
20
2.611000
10
15.346562
20
2.606544
10
15.345522
20
2.602082
10
15.344504
20
2.597615
10
15.343510
20
2.593143
10
15.342538
20
2.588665
10
15.341589
20
2.584183
10
15.340663
20
2.579696
10
15.339759
20
2.575205
10
15.338879
20
2.570709
10
15.338021
20
2.566208
10
15.337187
20
2.561703
10
15.336375
20
2.557194
10
15.335586
20
2.552681
10
15.334821
20
2.548164
10
15.334078
20
2.543644
10
15.333358
20
2.539119
10
15.332662
20
2.534591
10
15.331988
20
2.530059
10
15.331337
20
2.525524
10
15.330710
20
2.520986
10
15.330106
20
2.516444
10
15.329525
20
2.511900
10
15.328966
20
2.507353
10
15.328432
20
2.502802
10
15.327920
20
2.498250
10
15.327431
20
2.493694
10
15.326966
20
2.489136
10
15.326524
20
2.484576
10
15.326105
20
2.480014
10
15.325709
20
2.475450
10
15.325337
20
2.470884
10
15.324987
20
2.466315
10
15.324662
20
2.461746
10
15.324359
20
2.457174
10
15.324079
20
2.452601
10
15.323823
20
2.448027
10
15.323590
20
2.443451
10
15.323381
20
2.438875
10
15.323195
20
2.434297
10
15.323032
20
2.429718
10
15.322892
20
2.425139
10
15.322776
20
2.420559
10
15.322683
20
2.415979
10
15.322613
20
2.411398
10
15.322567
20
2.406816
10
15.322544
20
2.402235
10
15.322544
20
2.397653
10
15.322568
20
2.393072
10
15.322615
20
2.388491
10
15.322685
20
2.383910
10
15.322778
20
2.379329
10
15.322895
20
2.374749
10
15.323035
20
2.370170
10
15.323199
20
2.365592
10
15.323386
20
2.361014
10
15.323596
20
2.356437
10
15.323829
20
2.351862
10
15.324086
20
2.347288
10
15.324366
20
2.342715
10
15.324669
20
2.338143
10
15.324996
20
2.333573
10
15.325345
20
2.329005
10
15.325719
20
2.324439
10
15.326115
20
2.319875
10
15.326534
20
2.315313
10
15.326977
20
2.310752
10
15.327443
20
2.306195
10
15.327932
20
2.301640
10
15.328444
20
2.297087
10
15.328980
20
2.292537
10
15.329538
20
2.287989
10
15.330120
20
2.283445
10
15.330725
20
2.278904
10
15.331353
20
2.274365
10
15.332004
20
2.269831
10
15.332678
20
2.265299
10
15.333376
20
2.260771
10
15.334096
20
2.256246
10
15.334839
20
2.251726
10
15.335605
20
2.247209
10
15.336395
20
2.242696
10
15.337207
20
2.238187
10
15.338042
20
2.233682
10
15.338900
20
2.229182
10
15.339781
20
2.224686
10
15.340685
20
2.220194
10
15.341612
20
2.215708
10
15.342561
20
2.211226
10
15.343534
20
2.206748
10
15.344529
20
2.202276
10
15.345547
20
2.197809
10
15.346587
20
2.193348
10
15.347651
20
2.188891
10
15.348737
20
2.184440
10
15.349845
20
2.179995
10
15.350976
20
2.175556
10
15.352130
20
2.171122
10
15.353307
20
2.166694
10
15.354506
20
2.162272
10
15.355727
20
2.157856
10
15.356971
20
2.153447
10
15.358237
20
2.149044
10
15.359526
20
2.144648
10
15.360837
20
2.140258
10
15.362170
20
2.135875
10
15.363526
20
2.131498
10
15.364904
20
2.127129
10
15.366304
20
2.122767
10
15.367726
20
2.118412
10
15.369171
20
2.114064
10
15.370638
20
2.109723
10
15.372126
20
2.105391
10
15.373637
20
2.101065
10
15.375170
20
2.096748
10
15.376724
20
2.092438
10
15.378301
20
2.088137
10
15.379899
20
2.083843
10
15.381520
20
2.079558
10
15.383162
20
2.075281
10
15.384826
20
2.071012
10
15.386511
20
2.066752
10
15.388219
20
2.062500
10
15.389947
20
2.058258
10
15.391698
20
2.054024
10
15.393470
20
2.049799
10
15.395263
20
2.045583
10
15.397078
20
2.041376
10
15.398914
20
2.037179
10
15.400772
20
2.032991
10
15.402651
20
2.028813
10
15.404551
20
2.024644
10
15.406472
20
2.020485
10
15.408415
20
2.016335
10
15.410378
20
2.012196
10
15.412363
20
2.008067
10
15.414369
20
2.003948
10
15.416395
20
1.999839
10
15.418443
20
1.995740
10
15.420511
20
1.991652
10
15.422600
20
1.987575
10
15.424710
20
1.983508
10
15.426840
20
1.979452
10
15.428992
20
1.975407
10
15.431163
20
1.971373
10
15.433355
20
1.967350
10
15.435568
20
1.963338
10
15.437801
20
1.959338
10
15.440054
20
1.955349
10
15.442328
20
1.951371
10
15.444622
20
1.947405
10
15.446936
20
1.943451
10
15.449270
20
1.939509
10
15.451624
20
1.935579
10
15.453998
20
1.931660
10
15.456392
20
1.927754
10
15.458806
20
1.923860
10
15.461240
20
1.919978
10
15.463693
20
1.916109
10
15.466166
20
1.912253
10
15.468659
20
1.908409
10
15.471171
20
1.904577
10
15.473703
20
1.900759
10
15.476254
20
1.896953
10
15.478825
20
1.893161
10
15.481414
20
1.889382
10
15.484023
20
1.885616
10
15.486651
20
1.881863
10
15.489298
20
1.878123
10
15.491964
20
1.874398
10
15.494649
20
1.870685
10
15.497353
20
1.866987
10
15.500076
20
1.863302
10
15.502817
20
1.859632
10
15.505578
20
1.855975
10
15.508356
20
1.852332
10
15.511153
20
1.848704
10
15.513969
20
1.845090
10
15.516803
20
1.841490
10
15.519655
20
1.837904
10
15.522526
20
1.834334
10
15.525414
20
1.830778
10
15.528321
20
1.827236
10
15.531245
20
1.823710
10
15.534188
20
1.820198
10
15.537148
20
1.816702
10
15.540127
20
1.813220
10
15.543122
20
1.809754
10
15.546136
20
1.806303
10
15.549167
20
1.802867
10
15.552215
20
1.799447
10
15.555281
20
1.796043
10
15.558364
20
1.792654
10
15.561464
20
1.789281
10
15.564582
20
1.785924
10
15.567716
20
1.782582
10
15.570868
20
1.779257
10
15.574036
20
1.775948
10
15.577221
20
1.772654
10
15.580423
20
1.769378
10
15.583642
20
1.766117
10
15.586877
20
1.762873
10
15.590128
20
1.759645
10
15.593396
20
1.756434
10
15.596680
20
1.753240
10
15.599981
20
1.750062
10
15.603297
20
1.746902
10
15.606630
20
1.743758
10
15.609979
20
1.740631
10
15.613343
20
1.737521
10
15.616723
20
1.734429
10
15.620119
20
1.731354
10
15.623531
20
1.728296
10
15.626958
20
1.725255
10
15.630400
20
1.722232
10
15.633858
20
1.719226
10
15.637331
20
1.716239
10
15.640820
20
1.713268
10
15.644323
20
1.710316
10
15.647841
20
1.707382
10
15.651374
20
1.704465
10
15.654922
20
1.701567
10
15.658485
20
1.698686
10
15.662063
20
1.695824
10
15.665654
20
1.692980
10
15.669261
20
1.690154
10
15.672881
20
1.687347
10
15.676516
20
1.684558
10
15.680165
20
1.681788
10
15.683828
20
1.679036
10
15.687505
20
1.676303
10
15.691196
20
1.673589
10
15.694901
20
1.670894
10
15.698619
20
1.668217
10
15.702351
20
1.665560
10
15.706097
20
1.662921
10
15.709855
20
1.660302
10
15.713628
20
1.657701
10
15.717413
20
1.655120
10
15.721211
20
1.652559
10
15.725023
20
1.650016
10
15.728847
20
1.647494
10
15.732684
20
1.644990
10
15.736534
20
1.642506
10
15.740396
20
1.640042
10
15.744271
20
1.637598
10
15.748158
20
1.635173
10
15.752057
20
1.632768
10
15.755969
20
1.630383
10
15.759893
20
1.628018
10
15.763829
20
1.625673
10
15.767776
20
1.623348
10
15.771736
20
1.621043
10
15.775707
20
1.618758
10
15.779690
20
1.616493
10
15.783684
20
1.614249
10
15.787689
20
1.612025
10
15.791706
20
1.609822
10
15.795734
20
1.607639
10
15.799773
20
1.605477
10
15.803823
20
1.603335
10
15.807884
20
1.601214
10
15.811956
20
1.599113
10
15.816038
20
1.597034
10
15.820131
20
1.594975
10
15.824234
20
1.592937
10
15.828347
20
1.590919
10
15.832471
20
1.588923
10
15.836605
20
1.586948
10
15.840749
20
1.584994
10
15.844902
20
1.583061
10
15.849066
20
1.581149
10
15.853239
20
1.579259
10
15.857422
20
1.577390
10
15.861614
20
1.575542
10
15.865816
20
1.573715
10
15.870026
20
1.571910
10
15.874246
20
1.570126
10
15.878475
20
1.568364
10
15.882713
20
1.566623
10
15.886960
20
1.564904
10
15.891215
20
1.563206
10
15.895479
20
1.561531
10
15.899752
20
1.559877
10
15.904033
20
1.558244
10
15.908322
20
1.556634
10
15.912619
20
1.555045
10
15.916924
20
1.553479
10
15.921237
20
1.551934
10
15.925558
20
1.550411
10
15.929887
20
1.548910
10
15.934223
20
1.547432
10
15.938567
20
1.545975
10
19.084240
20
0.500000
10
19.136485
20
0.500000
0
ENDSEC
0
EOF
