999
side4_rev_std (straight+4 loops, rev, R=2.35 w_v)
0
SECTION
2
HEADER
9
$INSUNITS
70
4
0
ENDSEC
0
SECTION
2
ENTITIES
0
LWPOLYLINE
8
0
100
AcDbEntity
100
AcDbPolyline
90
3037
70
1
10
1.445549
20
-0.514303
10
1.427911
20
-0.563600
10
1.408668
20
-0.612293
10
1.387843
20
-0.660331
10
1.365458
20
-0.707662
10
1.341535
20
-0.754235
10
1.316102
20
-0.800000
10
1.289185
20
-0.844909
10
1.260813
20
-0.888912
10
1.231016
20
-0.931964
10
1.199827
20
-0.974018
10
1.167278
20
-1.015029
10
1.133405
20
-1.054953
10
1.098244
20
-1.093748
10
1.061832
20
-1.131371
10
1.024209
20
-1.167783
10
0.985415
20
-1.202944
10
0.945490
20
-1.236817
10
0.904480
20
-1.269365
10
0.862426
20
-1.300555
10
0.819374
20
-1.330351
10
0.775370
20
-1.358723
10
0.730461
20
-1.385641
10
0.684696
20
-1.411074
10
0.638123
20
-1.434996
10
0.590792
20
-1.457382
10
0.542755
20
-1.478207
10
0.494061
20
-1.497449
10
0.444764
20
-1.515088
10
0.394917
20
-1.531105
10
0.344572
20
-1.545481
10
0.293783
20
-1.558203
10
0.242606
20
-1.569256
10
0.191094
20
-1.578629
10
0.139303
20
-1.586312
10
0.087289
20
-1.592296
10
0.035106
20
-1.596574
10
-0.017188
20
-1.599143
10
-0.069539
20
-1.600000
10
-0.121889
20
-1.599143
10
-0.174184
20
-1.596574
10
-0.226366
20
-1.592296
10
-0.278381
20
-1.586312
10
-0.330172
20
-1.578629
10
-0.381683
20
-1.569256
10
-0.432861
20
-1.558203
10
-0.483649
20
-1.545481
10
-0.533994
20
-1.531105
10
-0.583842
20
-1.515088
10
-0.633139
20
-1.497449
10
-0.681832
20
-1.478207
10
-0.729870
20
-1.457382
10
-0.777201
20
-1.434996
10
-0.823774
20
-1.411074
10
-0.869539
20
-1.385641
10
-0.914447
20
-1.358723
10
-0.958451
20
-1.330351
10
-1.001503
20
-1.300555
10
-1.043557
20
-1.269365
10
-1.084568
20
-1.236817
10
-1.124492
20
-1.202944
10
-1.163286
20
-1.167783
10
-1.200910
20
-1.131371
10
-1.237321
20
-1.093748
10
-1.272482
20
-1.054953
10
-1.306355
20
-1.015029
10
-1.338904
20
-0.974018
10
-1.370093
20
-0.931964
10
-1.399890
20
-0.888912
10
-1.428262
20
-0.844909
10
-1.455179
20
-0.800000
10
-1.480613
20
-0.754235
10
-1.504535
20
-0.707662
10
-1.526921
20
-0.660331
10
-1.547746
20
-0.612293
10
-1.566988
20
-0.563600
10
-1.584627
20
-0.514303
10
-1.600643
20
-0.464455
10
-1.615020
20
-0.414110
10
-1.627742
20
-0.363322
10
-1.638795
20
-0.312145
10
-1.648168
20
-0.260633
10
-1.655851
20
-0.208842
10
-1.661834
20
-0.156827
10
-1.666113
20
-0.104645
10
-1.668682
20
-0.052351
10
-1.669539
20
0.000000
10
-1.668682
20
0.052351
10
-1.666113
20
0.104645
10
-1.661834
20
0.156827
10
-1.655851
20
0.208842
10
-1.648168
20
0.260633
10
-1.638795
20
0.312145
10
-1.627742
20
0.363322
10
-1.615020
20
0.414110
10
-1.600643
20
0.464455
10
-1.584627
20
0.514303
10
-1.566988
20
0.563600
10
-1.547746
20
0.612293
10
-1.526921
20
0.660331
10
-1.504535
20
0.707662
10
-1.480613
20
0.754235
10
-1.455179
20
0.800000
10
-1.428262
20
0.844909
10
-1.399890
20
0.888912
10
-1.370093
20
0.931964
10
-1.338904
20
0.974018
10
-1.306355
20
1.015029
10
-1.272482
20
1.054953
10
-1.237321
20
1.093748
10
-1.200910
20
1.131371
10
-1.163286
20
1.167783
10
-1.124492
20
1.202944
10
-1.084568
20
1.236817
10
-1.043557
20
1.269365
10
-1.001503
20
1.300555
10
-0.958451
20
1.330351
10
-0.914447
20
1.358723
10
-0.869539
20
1.385641
10
-0.823774
20
1.411074
10
-0.777201
20
1.434996
10
-0.729870
20
1.457382
10
-0.681832
20
1.478207
10
-0.633139
20
1.497449
10
-0.583842
20
1.515088
10
-0.533994
20
1.531105
10
-0.483649
20
1.545481
10
-0.432861
20
1.558203
10
-0.381683
20
1.569256
10
-0.330172
20
1.578629
10
-0.278381
20
1.586312
10
-0.226366
20
1.592296
10
-0.174184
20
1.596574
10
-0.121889
20
1.599143
10
-0.069539
20
1.600000
10
-0.017188
20
1.599143
10
0.035106
20
1.596574
10
0.087289
20
1.592296
10
0.139303
20
1.586312
10
0.191094
20
1.578629
10
0.242606
20
1.569256
10
0.293783
20
1.558203
10
0.344572
20
1.545481
10
0.394917
20
1.531105
10
0.444764
20
1.515088
10
0.494061
20
1.497449
10
0.517213
20
1.488301
10
3.147144
20
4.419407
10
3.155155
20
4.428290
10
3.163212
20
4.437133
10
3.171314
20
4.445934
10
3.179460
20
4.454695
10
3.187651
20
4.463413
10
3.195887
20
4.472090
10
3.204166
20
4.480725
10
3.212489
20
4.489318
10
3.220856
20
4.497868
10
3.229266
20
4.506375
10
3.237719
20
4.514839
10
3.246216
20
4.523261
10
3.254755
20
4.531639
10
3.263336
20
4.539973
10
3.271960
20
4.548264
10
3.280626
20
4.556510
10
3.289334
20
4.564713
10
3.298084
20
4.572870
10
3.306875
20
4.580984
10
3.315707
20
4.589052
10
3.324580
20
4.597076
10
3.333494
20
4.605054
10
3.342448
20
4.612986
10
3.351443
20
4.620873
10
3.360478
20
4.628714
10
3.369552
20
4.636509
10
3.378666
20
4.644258
10
3.387819
20
4.651960
10
3.397012
20
4.659615
10
3.406243
20
4.667224
10
3.415513
20
4.674785
10
3.424821
20
4.682300
10
3.434168
20
4.689766
10
3.443552
20
4.697185
10
3.452974
20
4.704556
10
3.462433
20
4.711879
10
3.471930
20
4.719154
10
3.481463
20
4.726381
10
3.491033
20
4.733559
10
3.500639
20
4.740688
10
3.510282
20
4.747768
10
3.519961
20
4.754798
10
3.529675
20
4.761780
10
3.539424
20
4.768712
10
3.549209
20
4.775594
10
3.559029
20
4.782426
10
3.568883
20
4.789208
10
3.578772
20
4.795940
10
3.588695
20
4.802622
10
3.598652
20
4.809253
10
3.608642
20
4.815833
10
3.618666
20
4.822362
10
3.628723
20
4.828840
10
3.638812
20
4.835267
10
3.648935
20
4.841643
10
3.659089
20
4.847966
10
3.669276
20
4.854238
10
3.679494
20
4.860458
10
3.689744
20
4.866626
10
3.700026
20
4.872742
10
3.710338
20
4.878805
10
3.720681
20
4.884816
10
3.731054
20
4.890774
10
3.741458
20
4.896679
10
3.751892
20
4.902531
10
3.762355
20
4.908330
10
3.772847
20
4.914076
10
3.783369
20
4.919768
10
3.793920
20
4.925406
10
3.804499
20
4.930991
10
3.815106
20
4.936522
10
3.825742
20
4.941998
10
3.836405
20
4.947421
10
3.847096
20
4.952789
10
3.857813
20
4.958102
10
3.868558
20
4.963361
10
3.879330
20
4.968566
10
3.890127
20
4.973715
10
3.900951
20
4.978809
10
3.911801
20
4.983848
10
3.922676
20
4.988832
10
3.933576
20
4.993761
10
3.944501
20
4.998633
10
3.955451
20
5.003451
10
3.966426
20
5.008212
10
3.977424
20
5.012917
10
3.988446
20
5.017567
10
3.999492
20
5.022160
10
4.010561
20
5.026697
10
4.021653
20
5.031177
10
4.032768
20
5.035601
10
4.043905
20
5.039969
10
4.055064
20
5.044279
10
4.066245
20
5.048533
10
4.077447
20
5.052730
10
4.088671
20
5.056870
10
4.099915
20
5.060952
10
4.111180
20
5.064977
10
4.122466
20
5.068945
10
4.133771
20
5.072856
10
4.145097
20
5.076708
10
4.156442
20
5.080503
10
4.167805
20
5.084241
10
4.179188
20
5.087920
10
4.190590
20
5.091541
10
4.202009
20
5.095105
10
4.213447
20
5.098610
10
4.224903
20
5.102056
10
4.236375
20
5.105445
10
4.247865
20
5.108775
10
4.259372
20
5.112046
10
4.270895
20
5.115259
10
4.282434
20
5.118413
10
4.293990
20
5.121509
10
4.305561
20
5.124545
10
4.317147
20
5.127523
10
4.328748
20
5.130441
10
4.340364
20
5.133301
10
4.351994
20
5.136101
10
4.363639
20
5.138842
10
4.375297
20
5.141524
10
4.386969
20
5.144146
10
4.398654
20
5.146709
10
4.410352
20
5.149212
10
4.422062
20
5.151656
10
4.433785
20
5.154040
10
4.445520
20
5.156365
10
4.457266
20
5.158630
10
4.469024
20
5.160834
10
4.480793
20
5.162979
10
4.492572
20
5.165064
10
4.504362
20
5.167090
10
4.516162
20
5.169055
10
4.527973
20
5.170959
10
4.539792
20
5.172804
10
4.551621
20
5.174589
10
4.563459
20
5.176313
10
4.575305
20
5.177977
10
4.587160
20
5.179581
10
4.599023
20
5.181124
10
4.610893
20
5.182607
10
4.622771
20
5.184030
10
4.634656
20
5.185392
10
4.646548
20
5.186693
10
4.658446
20
5.187934
10
4.670350
20
5.189115
10
4.682260
20
5.190234
10
4.694176
20
5.191294
10
4.706097
20
5.192292
10
4.718023
20
5.193230
10
4.729953
20
5.194107
10
4.741888
20
5.194923
10
4.753827
20
5.195679
10
4.765769
20
5.196373
10
4.777715
20
5.197007
10
4.789664
20
5.197580
10
4.801616
20
5.198093
10
4.813570
20
5.198544
10
4.825527
20
5.198935
10
4.837485
20
5.199264
10
4.849444
20
5.199533
10
4.861405
20
5.199741
10
4.873367
20
5.199888
10
4.885330
20
5.199975
10
4.897292
20
5.200000
10
4.909255
20
5.199964
10
4.921217
20
5.199868
10
4.933179
20
5.199710
10
4.945140
20
5.199492
10
4.957099
20
5.199213
10
4.969057
20
5.198873
10
4.981013
20
5.198472
10
4.992967
20
5.198010
10
5.004918
20
5.197487
10
5.016867
20
5.196904
10
5.028812
20
5.196260
10
5.040754
20
5.195555
10
5.052692
20
5.194789
10
5.064626
20
5.193962
10
5.076556
20
5.193075
10
5.088481
20
5.192127
10
5.100401
20
5.191118
10
5.112316
20
5.190048
10
5.124225
20
5.188918
10
5.136128
20
5.187728
10
5.148025
20
5.186476
10
5.159916
20
5.185165
10
5.171800
20
5.183792
10
5.183676
20
5.182360
10
5.195546
20
5.180866
10
5.207407
20
5.179313
10
5.219260
20
5.177699
10
5.231105
20
5.176024
10
5.242941
20
5.174290
10
5.254769
20
5.172495
10
5.266587
20
5.170640
10
5.278395
20
5.168725
10
5.290194
20
5.166750
10
5.301982
20
5.164714
10
5.313760
20
5.162619
10
5.325527
20
5.160464
10
5.337283
20
5.158249
10
5.349027
20
5.155974
10
5.360760
20
5.153639
10
5.372480
20
5.151245
10
5.384189
20
5.148791
10
5.395884
20
5.146278
10
5.407567
20
5.143705
10
5.419237
20
5.141072
10
5.430893
20
5.138380
10
5.442535
20
5.135629
10
5.454163
20
5.132819
10
5.465776
20
5.129949
10
5.477375
20
5.127021
10
5.488958
20
5.124033
10
5.500527
20
5.120987
10
5.512079
20
5.117881
10
5.523616
20
5.114717
10
5.535136
20
5.111494
10
5.546640
20
5.108213
10
5.558127
20
5.104873
10
5.569597
20
5.101475
10
5.581049
20
5.098018
10
5.592484
20
5.094503
10
5.603901
20
5.090930
10
5.615299
20
5.087299
10
5.626679
20
5.083610
10
5.638039
20
5.079862
10
5.649381
20
5.076058
10
5.660703
20
5.072195
10
5.672005
20
5.068275
10
5.683287
20
5.064297
10
5.694549
20
5.060262
10
5.705790
20
5.056170
10
5.717010
20
5.052021
10
5.728209
20
5.047814
10
5.739386
20
5.043551
10
5.750541
20
5.039231
10
5.761674
20
5.034854
10
5.772785
20
5.030420
10
5.783873
20
5.025930
10
5.794938
20
5.021383
10
5.805980
20
5.016781
10
5.816998
20
5.012122
10
5.827993
20
5.007407
10
5.838963
20
5.002636
10
5.849909
20
4.997809
10
5.860830
20
4.992927
10
5.871726
20
4.987989
10
5.882597
20
4.982996
10
5.893442
20
4.977947
10
5.904261
20
4.972844
10
5.915054
20
4.967685
10
5.925821
20
4.962472
10
5.936561
20
4.957203
10
5.947275
20
4.951880
10
5.957961
20
4.946503
10
5.968619
20
4.941071
10
5.979250
20
4.935586
10
5.989853
20
4.930046
10
6.000427
20
4.924452
10
6.010973
20
4.918804
10
6.021489
20
4.913103
10
6.031977
20
4.907348
10
6.042435
20
4.901541
10
6.052864
20
4.895679
10
6.063262
20
4.889765
10
6.073631
20
4.883798
10
6.083968
20
4.877779
10
6.094275
20
4.871706
10
6.104551
20
4.865582
10
6.114796
20
4.859405
10
6.125009
20
4.853176
10
6.135190
20
4.846895
10
6.145339
20
4.840563
10
6.155456
20
4.834179
10
6.165540
20
4.827743
10
6.175592
20
4.821256
10
6.185610
20
4.814718
10
6.195594
20
4.808129
10
6.205545
20
4.801490
10
6.215463
20
4.794800
10
6.225345
20
4.788059
10
6.235194
20
4.781268
10
6.245008
20
4.774428
10
6.254787
20
4.767537
10
6.264530
20
4.760597
10
6.274238
20
4.753607
10
6.283911
20
4.746568
10
6.293547
20
4.739479
10
6.303148
20
4.732342
10
6.312711
20
4.725156
10
6.322239
20
4.717921
10
6.331729
20
4.710638
10
6.341182
20
4.703307
10
6.350597
20
4.695928
10
6.359975
20
4.688501
10
6.369315
20
4.681026
10
6.378617
20
4.673504
10
6.387880
20
4.665934
10
6.397105
20
4.658318
10
6.406291
20
4.650654
10
6.415437
20
4.642944
10
6.424544
20
4.635188
10
6.433612
20
4.627385
10
6.442640
20
4.619536
10
6.451628
20
4.611641
10
6.460575
20
4.603701
10
6.469482
20
4.595715
10
6.478348
20
4.587684
10
6.487174
20
4.579608
10
6.495958
20
4.571487
10
6.504700
20
4.563322
10
6.513401
20
4.555112
10
6.522060
20
4.546858
10
6.530677
20
4.538560
10
6.539251
20
4.530218
10
6.547783
20
4.521833
10
6.556272
20
4.513404
10
6.564718
20
4.504932
10
6.573121
20
4.496417
10
6.581480
20
4.487860
10
6.589796
20
4.479260
10
6.598068
20
4.470618
10
6.606295
20
4.461934
10
6.614479
20
4.453209
10
6.622618
20
4.444441
10
6.630712
20
4.435633
10
6.638761
20
4.426783
10
6.646765
20
4.417893
10
6.654724
20
4.408961
10
6.662637
20
4.399990
10
6.670504
20
4.390978
10
6.678325
20
4.381926
10
6.686101
20
4.372835
10
6.693829
20
4.363704
10
6.701512
20
4.354534
10
6.709147
20
4.345325
10
6.716736
20
4.336077
10
6.724277
20
4.326791
10
6.731771
20
4.317466
10
6.739217
20
4.308104
10
6.746616
20
4.298703
10
6.753966
20
4.289266
10
6.761269
20
4.279790
10
6.768523
20
4.270278
10
6.775729
20
4.260729
10
6.782886
20
4.251143
10
6.789994
20
4.241521
10
6.797053
20
4.231863
10
6.804063
20
4.222170
10
6.811023
20
4.212440
10
6.817934
20
4.202676
10
6.824794
20
4.192876
10
6.831605
20
4.183041
10
6.838366
20
4.173172
10
6.845077
20
4.163269
10
6.851737
20
4.153332
10
6.858346
20
4.143360
10
6.864904
20
4.133356
10
6.871412
20
4.123318
10
6.877868
20
4.113247
10
6.884273
20
4.103143
10
6.890626
20
4.093007
10
6.896928
20
4.082839
10
6.903178
20
4.072638
10
6.909375
20
4.062406
10
6.915521
20
4.052143
10
6.921614
20
4.041849
10
6.927655
20
4.031523
10
6.933644
20
4.021167
10
6.939579
20
4.010781
10
6.945461
20
4.000364
10
6.951291
20
3.989918
10
6.957067
20
3.979442
10
6.962790
20
3.968937
10
6.968459
20
3.958403
10
6.974074
20
3.947840
10
6.979636
20
3.937249
10
6.985144
20
3.926629
10
6.990597
20
3.915982
10
6.995996
20
3.905307
10
7.001341
20
3.894605
10
7.006632
20
3.883875
10
7.011867
20
3.873119
10
7.017048
20
3.862337
10
7.022174
20
3.851528
10
7.027244
20
3.840693
10
7.032260
20
3.829832
10
7.037220
20
3.818946
10
7.042125
20
3.808035
10
7.046974
20
3.797100
10
7.051767
20
3.786139
10
7.056505
20
3.775154
10
7.061186
20
3.764146
10
7.065812
20
3.753114
10
7.070381
20
3.742058
10
7.074894
20
3.730979
10
7.079350
20
3.719877
10
7.083750
20
3.708753
10
7.088093
20
3.697607
10
7.092379
20
3.686438
10
7.096609
20
3.675248
10
7.100781
20
3.664037
10
7.104896
20
3.652804
10
7.108955
20
3.641551
10
7.112955
20
3.630277
10
7.116899
20
3.618983
10
7.120784
20
3.607669
10
7.124612
20
3.596335
10
7.128383
20
3.584982
10
7.132095
20
3.573610
10
7.135750
20
3.562219
10
7.139346
20
3.550810
10
7.142885
20
3.539382
10
7.146365
20
3.527937
10
7.149787
20
3.516474
10
7.153150
20
3.504994
10
7.156455
20
3.493497
10
7.159702
20
3.481983
10
7.162889
20
3.470453
10
7.166019
20
3.458907
10
7.169089
20
3.447345
10
7.172100
20
3.435767
10
7.175052
20
3.424175
10
7.177946
20
3.412567
10
7.180780
20
3.400945
10
7.183555
20
3.389309
10
7.186271
20
3.377658
10
7.188927
20
3.365994
10
7.191524
20
3.354317
10
7.194061
20
3.342626
10
7.196539
20
3.330923
10
7.198958
20
3.319207
10
7.201316
20
3.307479
10
7.203615
20
3.295740
10
7.205854
20
3.283988
10
7.208034
20
3.272226
10
7.210153
20
3.260452
10
7.212213
20
3.248668
10
7.214212
20
3.236874
10
7.216151
20
3.225069
10
7.218031
20
3.213255
10
7.219850
20
3.201431
10
7.221609
20
3.189599
10
7.223307
20
3.177757
10
7.224945
20
3.165907
10
7.226523
20
3.154049
10
7.228041
20
3.142183
10
7.229498
20
3.130309
10
7.230895
20
3.118428
10
7.232231
20
3.106541
10
7.233507
20
3.094646
10
7.234722
20
3.082745
10
7.235876
20
3.070838
10
7.236970
20
3.058926
10
7.238003
20
3.047008
10
7.238976
20
3.035085
10
7.239888
20
3.023157
10
7.240739
20
3.011224
10
7.241529
20
2.999288
10
7.242259
20
2.987347
10
7.242927
20
2.975403
10
7.243535
20
2.963456
10
7.244082
20
2.951506
10
7.244569
20
2.939553
10
7.244994
20
2.927598
10
7.245359
20
2.915641
10
7.245662
20
2.903682
10
7.245905
20
2.891722
10
7.246087
20
2.879760
10
7.246208
20
2.867798
10
7.246268
20
2.855836
10
7.246268
20
2.843873
10
7.246206
20
2.831910
10
7.246084
20
2.819948
10
7.245900
20
2.807987
10
7.245656
20
2.796027
10
7.245351
20
2.784068
10
7.244985
20
2.772111
10
7.244558
20
2.760156
10
7.244070
20
2.748203
10
7.243521
20
2.736253
10
7.242912
20
2.724306
10
7.242242
20
2.712362
10
7.241511
20
2.700421
10
7.240719
20
2.688485
10
7.239866
20
2.676553
10
7.238953
20
2.664625
10
7.237979
20
2.652702
10
7.236944
20
2.640784
10
7.235849
20
2.628872
10
7.234693
20
2.616965
10
7.233476
20
2.605064
10
7.232199
20
2.593170
10
7.230861
20
2.581282
10
7.229463
20
2.569401
10
7.228005
20
2.557528
10
7.226486
20
2.545662
10
7.224906
20
2.533804
10
7.223266
20
2.521954
10
7.221566
20
2.510113
10
7.219806
20
2.498281
10
7.217986
20
2.486457
10
7.216105
20
2.474643
10
7.214164
20
2.462839
10
7.212163
20
2.451045
10
7.210102
20
2.439261
10
7.207981
20
2.427488
10
7.205801
20
2.415725
10
7.203560
20
2.403974
10
7.201260
20
2.392235
10
7.198900
20
2.380507
10
7.196480
20
2.368792
10
7.194000
20
2.357089
10
7.191461
20
2.345399
10
7.188863
20
2.333722
10
7.186205
20
2.322058
10
7.183488
20
2.310408
10
7.180712
20
2.298772
10
7.177876
20
2.287150
10
7.174981
20
2.275543
10
7.172027
20
2.263951
10
7.169015
20
2.252374
10
7.165943
20
2.240812
10
7.162813
20
2.229266
10
7.159623
20
2.217736
10
7.156376
20
2.206223
10
7.153069
20
2.194726
10
7.149704
20
2.183247
10
7.146281
20
2.171784
10
7.142799
20
2.160339
10
7.139259
20
2.148912
10
7.135661
20
2.137503
10
7.132005
20
2.126113
10
7.128292
20
2.114741
10
7.124520
20
2.103389
10
7.120690
20
2.092056
10
7.116803
20
2.080742
10
7.112859
20
2.069449
10
7.108856
20
2.058175
10
7.104797
20
2.046922
10
7.100680
20
2.035690
10
7.096506
20
2.024479
10
7.092276
20
2.013290
10
7.087988
20
2.002122
10
7.083643
20
1.990976
10
7.079242
20
1.979852
10
7.074784
20
1.968751
10
7.070270
20
1.957673
10
7.065700
20
1.946618
10
7.061073
20
1.935586
10
7.056390
20
1.924578
10
7.051651
20
1.913594
10
7.046856
20
1.902634
10
7.042006
20
1.891699
10
7.037100
20
1.880788
10
7.032138
20
1.869903
10
7.027122
20
1.859043
10
7.022050
20
1.848209
10
7.016922
20
1.837401
10
7.011740
20
1.826618
10
7.006503
20
1.815863
10
7.001212
20
1.805134
10
6.995866
20
1.794433
10
6.990465
20
1.783758
10
6.985010
20
1.773112
10
6.979501
20
1.762493
10
6.973938
20
1.751902
10
6.968321
20
1.741340
10
6.962651
20
1.730807
10
6.956927
20
1.720303
10
6.951150
20
1.709827
10
6.945319
20
1.699382
10
6.939435
20
1.688966
10
6.933498
20
1.678580
10
6.927509
20
1.668225
10
6.921467
20
1.657900
10
6.915372
20
1.647607
10
6.909225
20
1.637344
10
6.903026
20
1.627113
10
6.896775
20
1.616913
10
6.890472
20
1.606746
10
6.884117
20
1.596610
10
6.877711
20
1.586508
10
6.871254
20
1.576437
10
6.864745
20
1.566400
10
6.858185
20
1.556396
10
6.851575
20
1.546426
10
6.844914
20
1.536490
10
6.838202
20
1.526587
10
6.831440
20
1.516719
10
6.824628
20
1.506885
10
6.817766
20
1.497086
10
6.810854
20
1.487322
10
6.803892
20
1.477594
10
6.796881
20
1.467901
10
6.789821
20
1.458244
10
6.782712
20
1.448623
10
6.775554
20
1.439038
10
6.768347
20
1.429490
10
6.761092
20
1.419979
10
6.753788
20
1.410504
10
6.746436
20
1.401067
10
6.739036
20
1.391668
10
6.731589
20
1.382306
10
6.724094
20
1.372982
10
6.716551
20
1.363697
10
6.708962
20
1.354450
10
6.701325
20
1.345242
10
6.693642
20
1.336073
10
6.685912
20
1.326943
10
6.678136
20
1.317853
10
6.670313
20
1.308802
10
6.662445
20
1.299791
10
6.654530
20
1.290821
10
6.646571
20
1.281890
10
6.638566
20
1.273001
10
6.630515
20
1.264152
10
6.622420
20
1.255345
10
6.614280
20
1.246578
10
6.606096
20
1.237854
10
6.597867
20
1.229171
10
6.589594
20
1.220530
10
6.581277
20
1.211931
10
6.572917
20
1.203375
10
6.564513
20
1.194861
10
6.556066
20
1.186390
10
6.547576
20
1.177963
10
6.539043
20
1.169578
10
6.530467
20
1.161238
10
6.521849
20
1.152941
10
6.513190
20
1.144688
10
6.504488
20
1.136479
10
6.495744
20
1.128315
10
6.486959
20
1.120195
10
6.478133
20
1.112120
10
6.469266
20
1.104090
10
6.460358
20
1.096105
10
6.451409
20
1.088166
10
6.442421
20
1.080272
10
6.433392
20
1.072425
10
6.424323
20
1.064623
10
6.415215
20
1.056868
10
6.406067
20
1.049159
10
6.396881
20
1.041496
10
6.387655
20
1.033881
10
6.378391
20
1.026313
10
6.369088
20
1.018792
10
6.359747
20
1.011318
10
6.350368
20
1.003892
10
6.340952
20
0.996514
10
6.331498
20
0.989184
10
6.322007
20
0.981902
10
6.312479
20
0.974668
10
6.302914
20
0.967484
10
6.293313
20
0.960347
10
6.283676
20
0.953260
10
6.274002
20
0.946222
10
6.264293
20
0.939234
10
6.254549
20
0.932295
10
6.244769
20
0.925405
10
6.234955
20
0.918566
10
6.225105
20
0.911776
10
6.215221
20
0.905037
10
6.205304
20
0.898348
10
6.195352
20
0.891710
10
6.185366
20
0.885122
10
6.175347
20
0.878585
10
6.165295
20
0.872100
10
6.155210
20
0.865665
10
6.145093
20
0.859283
10
6.134943
20
0.852951
10
6.124761
20
0.846672
10
6.114547
20
0.840444
10
6.104301
20
0.834268
10
6.094025
20
0.828145
10
6.083717
20
0.822074
10
6.073378
20
0.816056
10
6.063009
20
0.810090
10
6.052610
20
0.804177
10
6.042181
20
0.798317
10
6.031722
20
0.792511
10
6.021234
20
0.786757
10
6.010716
20
0.781058
10
6.000170
20
0.775411
10
5.989595
20
0.769819
10
5.978991
20
0.764280
10
5.968360
20
0.758796
10
5.957701
20
0.753365
10
5.947014
20
0.747989
10
5.936300
20
0.742668
10
5.925559
20
0.737401
10
5.914792
20
0.732189
10
5.903998
20
0.727031
10
5.893178
20
0.721929
10
5.882332
20
0.716882
10
5.871461
20
0.711890
10
5.860564
20
0.706954
10
5.849642
20
0.702073
10
5.838696
20
0.697247
10
5.827725
20
0.692478
10
5.816730
20
0.687764
10
5.805711
20
0.683107
10
5.794669
20
0.678505
10
5.783603
20
0.673960
10
5.772515
20
0.669471
10
5.761404
20
0.665039
10
5.750270
20
0.660664
10
5.739114
20
0.656345
10
5.727936
20
0.652083
10
5.716737
20
0.647878
10
5.705516
20
0.643729
10
5.694275
20
0.639639
10
5.683013
20
0.635605
10
5.671730
20
0.631629
10
5.660427
20
0.627710
10
5.649105
20
0.623849
10
5.637763
20
0.620046
10
5.276737
20
0.500000
10
8.246276
20
0.500000
10
11.762958
20
4.419407
10
11.770970
20
4.428290
10
11.779027
20
4.437133
10
11.787128
20
4.445934
10
11.795275
20
4.454695
10
11.803466
20
4.463413
10
11.811701
20
4.472090
10
11.819980
20
4.480725
10
11.828303
20
4.489318
10
11.836670
20
4.497868
10
11.845080
20
4.506375
10
11.853534
20
4.514839
10
11.862030
20
4.523261
10
11.870569
20
4.531639
10
11.879151
20
4.539973
10
11.887775
20
4.548264
10
11.896441
20
4.556510
10
11.905149
20
4.564713
10
11.913898
20
4.572870
10
11.922689
20
4.580984
10
11.931521
20
4.589052
10
11.940395
20
4.597076
10
11.949308
20
4.605054
10
11.958263
20
4.612986
10
11.967257
20
4.620873
10
11.976292
20
4.628714
10
11.985366
20
4.636509
10
11.994480
20
4.644258
10
12.003634
20
4.651960
10
12.012826
20
4.659615
10
12.022057
20
4.667224
10
12.031327
20
4.674785
10
12.040636
20
4.682300
10
12.049982
20
4.689766
10
12.059366
20
4.697185
10
12.068788
20
4.704556
10
12.078248
20
4.711879
10
12.087744
20
4.719154
10
12.097277
20
4.726381
10
12.106847
20
4.733559
10
12.116454
20
4.740688
10
12.126097
20
4.747768
10
12.135775
20
4.754798
10
12.145489
20
4.761780
10
12.155239
20
4.768712
10
12.165024
20
4.775594
10
12.174843
20
4.782426
10
12.184698
20
4.789208
10
12.194586
20
4.795940
10
12.204509
20
4.802622
10
12.214466
20
4.809253
10
12.224456
20
4.815833
10
12.234480
20
4.822362
10
12.244537
20
4.828840
10
12.254627
20
4.835267
10
12.264749
20
4.841643
10
12.274904
20
4.847966
10
12.285090
20
4.854238
10
12.295309
20
4.860458
10
12.305559
20
4.866626
10
12.315840
20
4.872742
10
12.326152
20
4.878805
10
12.336495
20
4.884816
10
12.346869
20
4.890774
10
12.357272
20
4.896679
10
12.367706
20
4.902531
10
12.378169
20
4.908330
10
12.388662
20
4.914076
10
12.399184
20
4.919768
10
12.409734
20
4.925406
10
12.420313
20
4.930991
10
12.430921
20
4.936522
10
12.441556
20
4.941998
10
12.452219
20
4.947421
10
12.462910
20
4.952789
10
12.473628
20
4.958102
10
12.484373
20
4.963361
10
12.495144
20
4.968566
10
12.505942
20
4.973715
10
12.516766
20
4.978809
10
12.527615
20
4.983848
10
12.538490
20
4.988832
10
12.549391
20
4.993761
10
12.560316
20
4.998633
10
12.571266
20
5.003451
10
12.582240
20
5.008212
10
12.593239
20
5.012917
10
12.604261
20
5.017567
10
12.615307
20
5.022160
10
12.626376
20
5.026697
10
12.637468
20
5.031177
10
12.648582
20
5.035601
10
12.659719
20
5.039969
10
12.670878
20
5.044279
10
12.682059
20
5.048533
10
12.693261
20
5.052730
10
12.704485
20
5.056870
10
12.715730
20
5.060952
10
12.726995
20
5.064977
10
12.738280
20
5.068945
10
12.749586
20
5.072856
10
12.760911
20
5.076708
10
12.772256
20
5.080503
10
12.783620
20
5.084241
10
12.795003
20
5.087920
10
12.806404
20
5.091541
10
12.817824
20
5.095105
10
12.829262
20
5.098610
10
12.840717
20
5.102056
10
12.852190
20
5.105445
10
12.863680
20
5.108775
10
12.875186
20
5.112046
10
12.886710
20
5.115259
10
12.898249
20
5.118413
10
12.909804
20
5.121509
10
12.921375
20
5.124545
10
12.932961
20
5.127523
10
12.944563
20
5.130441
10
12.956179
20
5.133301
10
12.967809
20
5.136101
10
12.979453
20
5.138842
10
12.991112
20
5.141524
10
13.002783
20
5.144146
10
13.014468
20
5.146709
10
13.026166
20
5.149212
10
13.037877
20
5.151656
10
13.049599
20
5.154040
10
13.061334
20
5.156365
10
13.073080
20
5.158630
10
13.084838
20
5.160834
10
13.096607
20
5.162979
10
13.108387
20
5.165064
10
13.120177
20
5.167090
10
13.131977
20
5.169055
10
13.143787
20
5.170959
10
13.155607
20
5.172804
10
13.167435
20
5.174589
10
13.179273
20
5.176313
10
13.191120
20
5.177977
10
13.202974
20
5.179581
10
13.214837
20
5.181124
10
13.226708
20
5.182607
10
13.238585
20
5.184030
10
13.250470
20
5.185392
10
13.262362
20
5.186693
10
13.274260
20
5.187934
10
13.286164
20
5.189115
10
13.298075
20
5.190234
10
13.309990
20
5.191294
10
13.321911
20
5.192292
10
13.333837
20
5.193230
10
13.345768
20
5.194107
10
13.357703
20
5.194923
10
13.369641
20
5.195679
10
13.381584
20
5.196373
10
13.393530
20
5.197007
10
13.405479
20
5.197580
10
13.417431
20
5.198093
10
13.429385
20
5.198544
10
13.441341
20
5.198935
10
13.453299
20
5.199264
10
13.465259
20
5.199533
10
13.477220
20
5.199741
10
13.489182
20
5.199888
10
13.501144
20
5.199975
10
13.513107
20
5.200000
10
13.525069
20
5.199964
10
13.537032
20
5.199868
10
13.548993
20
5.199710
10
13.560954
20
5.199492
10
13.572914
20
5.199213
10
13.584871
20
5.198873
10
13.596827
20
5.198472
10
13.608781
20
5.198010
10
13.620733
20
5.197487
10
13.632681
20
5.196904
10
13.644626
20
5.196260
10
13.656568
20
5.195555
10
13.668506
20
5.194789
10
13.680441
20
5.193962
10
13.692370
20
5.193075
10
13.704295
20
5.192127
10
13.716216
20
5.191118
10
13.728130
20
5.190048
10
13.740040
20
5.188918
10
13.751943
20
5.187728
10
13.763840
20
5.186476
10
13.775731
20
5.185165
10
13.787614
20
5.183792
10
13.799491
20
5.182360
10
13.811360
20
5.180866
10
13.823221
20
5.179313
10
13.835075
20
5.177699
10
13.846920
20
5.176024
10
13.858756
20
5.174290
10
13.870583
20
5.172495
10
13.882401
20
5.170640
10
13.894210
20
5.168725
10
13.906008
20
5.166750
10
13.917797
20
5.164714
10
13.929574
20
5.162619
10
13.941341
20
5.160464
10
13.953097
20
5.158249
10
13.964842
20
5.155974
10
13.976574
20
5.153639
10
13.988295
20
5.151245
10
14.000003
20
5.148791
10
14.011699
20
5.146278
10
14.023382
20
5.143705
10
14.035051
20
5.141072
10
14.046707
20
5.138380
10
14.058349
20
5.135629
10
14.069977
20
5.132819
10
14.081590
20
5.129949
10
14.093189
20
5.127021
10
14.104773
20
5.124033
10
14.116341
20
5.120987
10
14.127894
20
5.117881
10
14.139430
20
5.114717
10
14.150951
20
5.111494
10
14.162455
20
5.108213
10
14.173942
20
5.104873
10
14.185412
20
5.101475
10
14.196864
20
5.098018
10
14.208299
20
5.094503
10
14.219715
20
5.090930
10
14.231113
20
5.087299
10
14.242493
20
5.083610
10
14.253854
20
5.079862
10
14.265195
20
5.076058
10
14.276517
20
5.072195
10
14.287820
20
5.068275
10
14.299102
20
5.064297
10
14.310363
20
5.060262
10
14.321604
20
5.056170
10
14.332824
20
5.052021
10
14.344023
20
5.047814
10
14.355200
20
5.043551
10
14.366356
20
5.039231
10
14.377489
20
5.034854
10
14.388600
20
5.030420
10
14.399688
20
5.025930
10
14.410753
20
5.021383
10
14.421795
20
5.016781
10
14.432813
20
5.012122
10
14.443807
20
5.007407
10
14.454777
20
5.002636
10
14.465723
20
4.997809
10
14.476644
20
4.992927
10
14.487540
20
4.987989
10
14.498411
20
4.982996
10
14.509256
20
4.977947
10
14.520076
20
4.972844
10
14.530869
20
4.967685
10
14.541636
20
4.962472
10
14.552376
20
4.957203
10
14.563089
20
4.951880
10
14.573775
20
4.946503
10
14.584434
20
4.941071
10
14.595064
20
4.935586
10
14.605667
20
4.930046
10
14.616241
20
4.924452
10
14.626787
20
4.918804
10
14.637304
20
4.913103
10
14.647791
20
4.907348
10
14.658250
20
4.901541
10
14.668678
20
4.895679
10
14.679077
20
4.889765
10
14.689445
20
4.883798
10
14.699783
20
4.877779
10
14.710090
20
4.871706
10
14.720366
20
4.865582
10
14.730610
20
4.859405
10
14.740824
20
4.853176
10
14.751005
20
4.846895
10
14.761154
20
4.840563
10
14.771271
20
4.834179
10
14.781355
20
4.827743
10
14.791406
20
4.821256
10
14.801424
20
4.814718
10
14.811409
20
4.808129
10
14.821360
20
4.801490
10
14.831277
20
4.794800
10
14.841160
20
4.788059
10
14.851008
20
4.781268
10
14.860822
20
4.774428
10
14.870601
20
4.767537
10
14.880345
20
4.760597
10
14.890053
20
4.753607
10
14.899725
20
4.746568
10
14.909362
20
4.739479
10
14.918962
20
4.732342
10
14.928526
20
4.725156
10
14.938053
20
4.717921
10
14.947543
20
4.710638
10
14.956996
20
4.703307
10
14.966412
20
4.695928
10
14.975790
20
4.688501
10
14.985129
20
4.681026
10
14.994431
20
4.673504
10
15.003695
20
4.665934
10
15.012919
20
4.658318
10
15.022105
20
4.650654
10
15.031252
20
4.642944
10
15.040359
20
4.635188
10
15.049427
20
4.627385
10
15.058455
20
4.619536
10
15.067442
20
4.611641
10
15.076390
20
4.603701
10
15.085297
20
4.595715
10
15.094163
20
4.587684
10
15.102988
20
4.579608
10
15.111772
20
4.571487
10
15.120515
20
4.563322
10
15.129215
20
4.555112
10
15.137874
20
4.546858
10
15.146491
20
4.538560
10
15.155065
20
4.530218
10
15.163597
20
4.521833
10
15.172086
20
4.513404
10
15.180532
20
4.504932
10
15.188935
20
4.496417
10
15.197295
20
4.487860
10
15.205610
20
4.479260
10
15.213882
20
4.470618
10
15.222110
20
4.461934
10
15.230293
20
4.453209
10
15.238432
20
4.444441
10
15.246526
20
4.435633
10
15.254575
20
4.426783
10
15.262579
20
4.417893
10
15.270538
20
4.408961
10
15.278451
20
4.399990
10
15.286319
20
4.390978
10
15.294140
20
4.381926
10
15.301915
20
4.372835
10
15.309644
20
4.363704
10
15.317326
20
4.354534
10
15.324962
20
4.345325
10
15.332550
20
4.336077
10
15.340091
20
4.326791
10
15.347585
20
4.317466
10
15.355032
20
4.308104
10
15.362430
20
4.298703
10
15.369781
20
4.289266
10
15.377083
20
4.279790
10
15.384338
20
4.270278
10
15.391543
20
4.260729
10
15.398700
20
4.251143
10
15.405808
20
4.241521
10
15.412867
20
4.231863
10
15.419877
20
4.222170
10
15.426837
20
4.212440
10
15.433748
20
4.202676
10
15.440609
20
4.192876
10
15.447420
20
4.183041
10
15.454181
20
4.173172
10
15.460891
20
4.163269
10
15.467551
20
4.153332
10
15.474160
20
4.143360
10
15.480719
20
4.133356
10
15.487226
20
4.123318
10
15.493682
20
4.113247
10
15.500087
20
4.103143
10
15.506441
20
4.093007
10
15.512742
20
4.082839
10
15.518992
20
4.072638
10
15.525190
20
4.062406
10
15.531336
20
4.052143
10
15.537429
20
4.041849
10
15.543470
20
4.031523
10
15.549458
20
4.021167
10
15.555393
20
4.010781
10
15.561276
20
4.000364
10
15.567105
20
3.989918
10
15.572881
20
3.979442
10
15.578604
20
3.968937
10
15.584273
20
3.958403
10
15.589889
20
3.947840
10
15.595450
20
3.937249
10
15.600958
20
3.926629
10
15.606412
20
3.915982
10
15.611811
20
3.905307
10
15.617156
20
3.894605
10
15.622446
20
3.883875
10
15.627682
20
3.873119
10
15.632862
20
3.862337
10
15.637988
20
3.851528
10
15.643059
20
3.840693
10
15.648074
20
3.829832
10
15.653035
20
3.818946
10
15.657939
20
3.808035
10
15.662788
20
3.797100
10
15.667582
20
3.786139
10
15.672319
20
3.775154
10
15.677001
20
3.764146
10
15.681626
20
3.753114
10
15.686195
20
3.742058
10
15.690708
20
3.730979
10
15.695164
20
3.719877
10
15.699564
20
3.708753
10
15.703907
20
3.697607
10
15.708194
20
3.686438
10
15.712423
20
3.675248
10
15.716596
20
3.664037
10
15.720711
20
3.652804
10
15.724769
20
3.641551
10
15.728770
20
3.630277
10
15.732713
20
3.618983
10
15.736599
20
3.607669
10
15.740427
20
3.596335
10
15.744197
20
3.584982
10
15.747910
20
3.573610
10
15.751564
20
3.562219
10
15.755161
20
3.550810
10
15.758699
20
3.539382
10
15.762179
20
3.527937
10
15.765601
20
3.516474
10
15.768965
20
3.504994
10
15.772270
20
3.493497
10
15.775516
20
3.481983
10
15.778704
20
3.470453
10
15.781833
20
3.458907
10
15.784903
20
3.447345
10
15.787915
20
3.435767
10
15.790867
20
3.424175
10
15.793760
20
3.412567
10
15.796594
20
3.400945
10
15.799369
20
3.389309
10
15.802085
20
3.377658
10
15.804742
20
3.365994
10
15.807338
20
3.354317
10
15.809876
20
3.342626
10
15.812354
20
3.330923
10
15.814772
20
3.319207
10
15.817131
20
3.307479
10
15.819430
20
3.295740
10
15.821669
20
3.283988
10
15.823848
20
3.272226
10
15.825968
20
3.260452
10
15.828027
20
3.248668
10
15.830026
20
3.236874
10
15.831966
20
3.225069
10
15.833845
20
3.213255
10
15.835664
20
3.201431
10
15.837423
20
3.189599
10
15.839122
20
3.177757
10
15.840760
20
3.165907
10
15.842338
20
3.154049
10
15.843855
20
3.142183
10
15.845313
20
3.130309
10
15.846709
20
3.118428
10
15.848045
20
3.106541
10
15.849321
20
3.094646
10
15.850536
20
3.082745
10
15.851691
20
3.070838
10
15.852785
20
3.058926
10
15.853818
20
3.047008
10
15.854790
20
3.035085
10
15.855702
20
3.023157
10
15.856553
20
3.011224
10
15.857343
20
2.999288
10
15.858073
20
2.987347
10
15.858742
20
2.975403
10
15.859350
20
2.963456
10
15.859897
20
2.951506
10
15.860383
20
2.939553
10
15.860809
20
2.927598
10
15.861173
20
2.915641
10
15.861477
20
2.903682
10
15.861720
20
2.891722
10
15.861902
20
2.879760
10
15.862023
20
2.867798
10
15.862083
20
2.855836
10
15.862082
20
2.843873
10
15.862021
20
2.831910
10
15.861898
20
2.819948
10
15.861715
20
2.807987
10
15.861470
20
2.796027
10
15.861165
20
2.784068
10
15.860799
20
2.772111
10
15.860372
20
2.760156
10
15.859884
20
2.748203
10
15.859336
20
2.736253
10
15.858726
20
2.724306
10
15.858056
20
2.712362
10
15.857325
20
2.700421
10
15.856533
20
2.688485
10
15.855681
20
2.676553
10
15.854767
20
2.664625
10
15.853793
20
2.652702
10
15.852759
20
2.640784
10
15.851663
20
2.628872
10
15.850507
20
2.616965
10
15.849291
20
2.605064
10
15.848014
20
2.593170
10
15.846676
20
2.581282
10
15.845278
20
2.569401
10
15.843819
20
2.557528
10
15.842300
20
2.545662
10
15.840721
20
2.533804
10
15.839081
20
2.521954
10
15.837381
20
2.510113
10
15.835621
20
2.498281
10
15.833800
20
2.486457
10
15.831919
20
2.474643
10
15.829979
20
2.462839
10
15.827978
20
2.451045
10
15.825917
20
2.439261
10
15.823796
20
2.427488
10
15.821615
20
2.415725
10
15.819375
20
2.403974
10
15.817074
20
2.392235
10
15.814714
20
2.380507
10
15.812294
20
2.368792
10
15.809815
20
2.357089
10
15.807276
20
2.345399
10
15.804678
20
2.333722
10
15.802020
20
2.322058
10
15.799303
20
2.310408
10
15.796526
20
2.298772
10
15.793690
20
2.287150
10
15.790796
20
2.275543
10
15.787842
20
2.263951
10
15.784829
20
2.252374
10
15.781758
20
2.240812
10
15.778627
20
2.229266
10
15.775438
20
2.217736
10
15.772190
20
2.206223
10
15.768884
20
2.194726
10
15.765519
20
2.183247
10
15.762095
20
2.171784
10
15.758614
20
2.160339
10
15.755074
20
2.148912
10
15.751476
20
2.137503
10
15.747820
20
2.126113
10
15.744106
20
2.114741
10
15.740334
20
2.103389
10
15.736505
20
2.092056
10
15.732618
20
2.080742
10
15.728673
20
2.069449
10
15.724671
20
2.058175
10
15.720611
20
2.046922
10
15.716495
20
2.035690
10
15.712321
20
2.024479
10
15.708090
20
2.013290
10
15.703802
20
2.002122
10
15.699458
20
1.990976
10
15.695057
20
1.979852
10
15.690599
20
1.968751
10
15.686085
20
1.957673
10
15.681514
20
1.946618
10
15.676887
20
1.935586
10
15.672204
20
1.924578
10
15.667466
20
1.913594
10
15.662671
20
1.902634
10
15.657820
20
1.891699
10
15.652914
20
1.880788
10
15.647953
20
1.869903
10
15.642936
20
1.859043
10
15.637864
20
1.848209
10
15.632737
20
1.837401
10
15.627555
20
1.826618
10
15.622318
20
1.815863
10
15.617026
20
1.805134
10
15.611680
20
1.794433
10
15.606279
20
1.783758
10
15.600825
20
1.773112
10
15.595316
20
1.762493
10
15.589753
20
1.751902
10
15.584136
20
1.741340
10
15.578465
20
1.730807
10
15.572741
20
1.720303
10
15.566964
20
1.709827
10
15.561133
20
1.699382
10
15.555250
20
1.688966
10
15.549313
20
1.678580
10
15.543323
20
1.668225
10
15.537281
20
1.657900
10
15.531187
20
1.647607
10
15.525040
20
1.637344
10
15.518841
20
1.627113
10
15.512589
20
1.616913
10
15.506286
20
1.606746
10
15.499932
20
1.596610
10
15.493526
20
1.586508
10
15.487068
20
1.576437
10
15.480560
20
1.566400
10
15.474000
20
1.556396
10
15.467389
20
1.546426
10
15.460728
20
1.536490
10
15.454017
20
1.526587
10
15.447255
20
1.516719
10
15.440442
20
1.506885
10
15.433580
20
1.497086
10
15.426668
20
1.487322
10
15.419707
20
1.477594
10
15.412696
20
1.467901
10
15.405636
20
1.458244
10
15.398526
20
1.448623
10
15.391368
20
1.439038
10
15.384161
20
1.429490
10
15.376906
20
1.419979
10
15.369602
20
1.410504
10
15.362251
20
1.401067
10
15.354851
20
1.391668
10
15.347403
20
1.382306
10
15.339908
20
1.372982
10
15.332366
20
1.363697
10
15.324776
20
1.354450
10
15.317140
20
1.345242
10
15.309456
20
1.336073
10
15.301726
20
1.326943
10
15.293950
20
1.317853
10
15.286128
20
1.308802
10
15.278259
20
1.299791
10
15.270345
20
1.290821
10
15.262385
20
1.281890
10
15.254380
20
1.273001
10
15.246330
20
1.264152
10
15.238234
20
1.255345
10
15.230094
20
1.246578
10
15.221910
20
1.237854
10
15.213681
20
1.229171
10
15.205408
20
1.220530
10
15.197092
20
1.211931
10
15.188731
20
1.203375
10
15.180327
20
1.194861
10
15.171880
20
1.186390
10
15.163390
20
1.177963
10
15.154857
20
1.169578
10
15.146282
20
1.161238
10
15.137664
20
1.152941
10
15.129004
20
1.144688
10
15.120302
20
1.136479
10
15.111559
20
1.128315
10
15.102774
20
1.120195
10
15.093947
20
1.112120
10
15.085080
20
1.104090
10
15.076172
20
1.096105
10
15.067224
20
1.088166
10
15.058235
20
1.080272
10
15.049206
20
1.072425
10
15.040138
20
1.064623
10
15.031029
20
1.056868
10
15.021882
20
1.049159
10
15.012695
20
1.041496
10
15.003469
20
1.033881
10
14.994205
20
1.026313
10
14.984902
20
1.018792
10
14.975562
20
1.011318
10
14.966183
20
1.003892
10
14.956766
20
0.996514
10
14.947313
20
0.989184
10
14.937821
20
0.981902
10
14.928293
20
0.974668
10
14.918729
20
0.967484
10
14.909128
20
0.960347
10
14.899490
20
0.953260
10
14.889817
20
0.946222
10
14.880108
20
0.939234
10
14.870363
20
0.932295
10
14.860584
20
0.925405
10
14.850769
20
0.918566
10
14.840920
20
0.911776
10
14.831036
20
0.905037
10
14.821118
20
0.898348
10
14.811166
20
0.891710
10
14.801181
20
0.885122
10
14.791162
20
0.878585
10
14.781110
20
0.872100
10
14.771025
20
0.865665
10
14.760907
20
0.859283
10
14.750757
20
0.852951
10
14.740575
20
0.846672
10
14.730361
20
0.840444
10
14.720116
20
0.834268
10
14.709839
20
0.828145
10
14.699531
20
0.822074
10
14.689193
20
0.816056
10
14.678824
20
0.810090
10
14.668425
20
0.804177
10
14.657995
20
0.798317
10
14.647536
20
0.792511
10
14.637048
20
0.786757
10
14.626531
20
0.781058
10
14.615984
20
0.775411
10
14.605409
20
0.769819
10
14.594806
20
0.764280
10
14.584174
20
0.758796
10
14.573515
20
0.753365
10
14.562829
20
0.747989
10
14.552115
20
0.742668
10
14.541374
20
0.737401
10
14.530606
20
0.732189
10
14.519812
20
0.727031
10
14.508992
20
0.721929
10
14.498147
20
0.716882
10
14.487275
20
0.711890
10
14.476378
20
0.706954
10
14.465457
20
0.702073
10
14.454510
20
0.697247
10
14.443540
20
0.692478
10
14.432545
20
0.687764
10
14.421526
20
0.683107
10
14.410484
20
0.678505
10
14.399418
20
0.673960
10
14.388329
20
0.669471
10
14.377218
20
0.665039
10
14.366084
20
0.660664
10
14.354928
20
0.656345
10
14.343751
20
0.652083
10
14.332551
20
0.647878
10
14.321331
20
0.643729
10
14.310089
20
0.639639
10
14.298827
20
0.635605
10
14.287545
20
0.631629
10
14.276242
20
0.627710
10
14.264919
20
0.623849
10
14.253577
20
0.620046
10
13.892551
20
0.500000
10
16.862090
20
0.500000
10
20.378773
20
4.419407
10
20.386784
20
4.428290
10
20.394841
20
4.437133
10
20.402943
20
4.445934
10
20.411089
20
4.454695
10
20.419280
20
4.463413
10
20.427515
20
4.472090
10
20.435795
20
4.480725
10
20.444118
20
4.489318
10
20.452485
20
4.497868
10
20.460895
20
4.506375
10
20.469348
20
4.514839
10
20.477845
20
4.523261
10
20.486384
20
4.531639
10
20.494965
20
4.539973
10
20.503589
20
4.548264
10
20.512255
20
4.556510
10
20.520963
20
4.564713
10
20.529713
20
4.572870
10
20.538504
20
4.580984
10
20.547336
20
4.589052
10
20.556209
20
4.597076
10
20.565123
20
4.605054
10
20.574077
20
4.612986
10
20.583072
20
4.620873
10
20.592106
20
4.628714
10
20.601181
20
4.636509
10
20.610295
20
4.644258
10
20.619448
20
4.651960
10
20.628641
20
4.659615
10
20.637872
20
4.667224
10
20.647142
20
4.674785
10
20.656450
20
4.682300
10
20.665796
20
4.689766
10
20.675181
20
4.697185
10
20.684603
20
4.704556
10
20.694062
20
4.711879
10
20.703558
20
4.719154
10
20.713092
20
4.726381
10
20.722662
20
4.733559
10
20.732268
20
4.740688
10
20.741911
20
4.747768
10
20.751590
20
4.754798
10
20.761304
20
4.761780
10
20.771053
20
4.768712
10
20.780838
20
4.775594
10
20.790658
20
4.782426
10
20.800512
20
4.789208
10
20.810401
20
4.795940
10
20.820324
20
4.802622
10
20.830281
20
4.809253
10
20.840271
20
4.815833
10
20.850295
20
4.822362
10
20.860352
20
4.828840
10
20.870441
20
4.835267
10
20.880564
20
4.841643
10
20.890718
20
4.847966
10
20.900905
20
4.854238
10
20.911123
20
4.860458
10
20.921373
20
4.866626
10
20.931655
20
4.872742
10
20.941967
20
4.878805
10
20.952310
20
4.884816
10
20.962683
20
4.890774
10
20.973087
20
4.896679
10
20.983521
20
4.902531
10
20.993984
20
4.908330
10
21.004476
20
4.914076
10
21.014998
20
4.919768
10
21.025549
20
4.925406
10
21.036128
20
4.930991
10
21.046735
20
4.936522
10
21.057371
20
4.941998
10
21.068034
20
4.947421
10
21.078725
20
4.952789
10
21.089442
20
4.958102
10
21.100187
20
4.963361
10
21.110958
20
4.968566
10
21.121756
20
4.973715
10
21.132580
20
4.978809
10
21.143430
20
4.983848
10
21.154305
20
4.988832
10
21.165205
20
4.993761
10
21.176130
20
4.998633
10
21.187080
20
5.003451
10
21.198055
20
5.008212
10
21.209053
20
5.012917
10
21.220075
20
5.017567
10
21.231121
20
5.022160
10
21.242190
20
5.026697
10
21.253282
20
5.031177
10
21.264397
20
5.035601
10
21.275534
20
5.039969
10
21.286693
20
5.044279
10
21.297874
20
5.048533
10
21.309076
20
5.052730
10
21.320300
20
5.056870
10
21.331544
20
5.060952
10
21.342809
20
5.064977
10
21.354095
20
5.068945
10
21.365400
20
5.072856
10
21.376726
20
5.076708
10
21.388070
20
5.080503
10
21.399434
20
5.084241
10
21.410817
20
5.087920
10
21.422219
20
5.091541
10
21.433638
20
5.095105
10
21.445076
20
5.098610
10
21.456531
20
5.102056
10
21.468004
20
5.105445
10
21.479494
20
5.108775
10
21.491001
20
5.112046
10
21.502524
20
5.115259
10
21.514063
20
5.118413
10
21.525619
20
5.121509
10
21.537190
20
5.124545
10
21.548776
20
5.127523
10
21.560377
20
5.130441
10
21.571993
20
5.133301
10
21.583623
20
5.136101
10
21.595268
20
5.138842
10
21.606926
20
5.141524
10
21.618598
20
5.144146
10
21.630283
20
5.146709
10
21.641981
20
5.149212
10
21.653691
20
5.151656
10
21.665414
20
5.154040
10
21.677148
20
5.156365
10
21.688895
20
5.158630
10
21.700653
20
5.160834
10
21.712421
20
5.162979
10
21.724201
20
5.165064
10
21.735991
20
5.167090
10
21.747791
20
5.169055
10
21.759601
20
5.170959
10
21.771421
20
5.172804
10
21.783250
20
5.174589
10
21.795088
20
5.176313
10
21.806934
20
5.177977
10
21.818789
20
5.179581
10
21.830652
20
5.181124
10
21.842522
20
5.182607
10
21.854400
20
5.184030
10
21.866285
20
5.185392
10
21.878176
20
5.186693
10
21.890075
20
5.187934
10
21.901979
20
5.189115
10
21.913889
20
5.190234
10
21.925805
20
5.191294
10
21.937726
20
5.192292
10
21.949652
20
5.193230
10
21.961582
20
5.194107
10
21.973517
20
5.194923
10
21.985456
20
5.195679
10
21.997398
20
5.196373
10
22.009344
20
5.197007
10
22.021293
20
5.197580
10
22.033245
20
5.198093
10
22.045199
20
5.198544
10
22.057156
20
5.198935
10
22.069114
20
5.199264
10
22.081073
20
5.199533
10
22.093034
20
5.199741
10
22.104996
20
5.199888
10
22.116959
20
5.199975
10
22.128921
20
5.200000
10
22.140884
20
5.199964
10
22.152846
20
5.199868
10
22.164808
20
5.199710
10
22.176769
20
5.199492
10
22.188728
20
5.199213
10
22.200686
20
5.198873
10
22.212642
20
5.198472
10
22.224596
20
5.198010
10
22.236547
20
5.197487
10
22.248495
20
5.196904
10
22.260441
20
5.196260
10
22.272383
20
5.195555
10
22.284321
20
5.194789
10
22.296255
20
5.193962
10
22.308185
20
5.193075
10
22.320110
20
5.192127
10
22.332030
20
5.191118
10
22.343945
20
5.190048
10
22.355854
20
5.188918
10
22.367757
20
5.187728
10
22.379654
20
5.186476
10
22.391545
20
5.185165
10
22.403429
20
5.183792
10
22.415305
20
5.182360
10
22.427174
20
5.180866
10
22.439036
20
5.179313
10
22.450889
20
5.177699
10
22.462734
20
5.176024
10
22.474570
20
5.174290
10
22.486398
20
5.172495
10
22.498216
20
5.170640
10
22.510024
20
5.168725
10
22.521823
20
5.166750
10
22.533611
20
5.164714
10
22.545389
20
5.162619
10
22.557156
20
5.160464
10
22.568912
20
5.158249
10
22.580656
20
5.155974
10
22.592389
20
5.153639
10
22.604109
20
5.151245
10
22.615818
20
5.148791
10
22.627513
20
5.146278
10
22.639196
20
5.143705
10
22.650866
20
5.141072
10
22.662521
20
5.138380
10
22.674164
20
5.135629
10
22.685791
20
5.132819
10
22.697405
20
5.129949
10
22.709004
20
5.127021
10
22.720587
20
5.124033
10
22.732156
20
5.120987
10
22.743708
20
5.117881
10
22.755245
20
5.114717
10
22.766765
20
5.111494
10
22.778269
20
5.108213
10
22.789756
20
5.104873
10
22.801226
20
5.101475
10
22.812678
20
5.098018
10
22.824113
20
5.094503
10
22.835530
20
5.090930
10
22.846928
20
5.087299
10
22.858308
20
5.083610
10
22.869668
20
5.079862
10
22.881010
20
5.076058
10
22.892332
20
5.072195
10
22.903634
20
5.068275
10
22.914916
20
5.064297
10
22.926178
20
5.060262
10
22.937419
20
5.056170
10
22.948639
20
5.052021
10
22.959838
20
5.047814
10
22.971015
20
5.043551
10
22.982170
20
5.039231
10
22.993303
20
5.034854
10
23.004414
20
5.030420
10
23.015502
20
5.025930
10
23.026567
20
5.021383
10
23.037609
20
5.016781
10
23.048627
20
5.012122
10
23.059622
20
5.007407
10
23.070592
20
5.002636
10
23.081538
20
4.997809
10
23.092459
20
4.992927
10
23.103355
20
4.987989
10
23.114225
20
4.982996
10
23.125071
20
4.977947
10
23.135890
20
4.972844
10
23.146683
20
4.967685
10
23.157450
20
4.962472
10
23.168190
20
4.957203
10
23.178904
20
4.951880
10
23.189590
20
4.946503
10
23.200248
20
4.941071
10
23.210879
20
4.935586
10
23.221481
20
4.930046
10
23.232056
20
4.924452
10
23.242601
20
4.918804
10
23.253118
20
4.913103
10
23.263606
20
4.907348
10
23.274064
20
4.901541
10
23.284493
20
4.895679
10
23.294891
20
4.889765
10
23.305259
20
4.883798
10
23.315597
20
4.877779
10
23.325904
20
4.871706
10
23.336180
20
4.865582
10
23.346425
20
4.859405
10
23.356638
20
4.853176
10
23.366819
20
4.846895
10
23.376968
20
4.840563
10
23.387085
20
4.834179
10
23.397169
20
4.827743
10
23.407221
20
4.821256
10
23.417239
20
4.814718
10
23.427223
20
4.808129
10
23.437174
20
4.801490
10
23.447091
20
4.794800
10
23.456974
20
4.788059
10
23.466823
20
4.781268
10
23.476637
20
4.774428
10
23.486415
20
4.767537
10
23.496159
20
4.760597
10
23.505867
20
4.753607
10
23.515540
20
4.746568
10
23.525176
20
4.739479
10
23.534776
20
4.732342
10
23.544340
20
4.725156
10
23.553867
20
4.717921
10
23.563358
20
4.710638
10
23.572811
20
4.703307
10
23.582226
20
4.695928
10
23.591604
20
4.688501
10
23.600944
20
4.681026
10
23.610246
20
4.673504
10
23.619509
20
4.665934
10
23.628734
20
4.658318
10
23.637919
20
4.650654
10
23.647066
20
4.642944
10
23.656173
20
4.635188
10
23.665241
20
4.627385
10
23.674269
20
4.619536
10
23.683257
20
4.611641
10
23.692204
20
4.603701
10
23.701111
20
4.595715
10
23.709977
20
4.587684
10
23.718803
20
4.579608
10
23.727586
20
4.571487
10
23.736329
20
4.563322
10
23.745030
20
4.555112
10
23.753689
20
4.546858
10
23.762306
20
4.538560
10
23.770880
20
4.530218
10
23.779412
20
4.521833
10
23.787901
20
4.513404
10
23.796347
20
4.504932
10
23.804750
20
4.496417
10
23.813109
20
4.487860
10
23.821425
20
4.479260
10
23.829697
20
4.470618
10
23.837924
20
4.461934
10
23.846108
20
4.453209
10
23.854247
20
4.444441
10
23.862341
20
4.435633
10
23.870390
20
4.426783
10
23.878394
20
4.417893
10
23.886353
20
4.408961
10
23.894266
20
4.399990
10
23.902133
20
4.390978
10
23.909954
20
4.381926
10
23.917730
20
4.372835
10
23.925458
20
4.363704
10
23.933141
20
4.354534
10
23.940776
20
4.345325
10
23.948365
20
4.336077
10
23.955906
20
4.326791
10
23.963400
20
4.317466
10
23.970846
20
4.308104
10
23.978245
20
4.298703
10
23.985595
20
4.289266
10
23.992898
20
4.279790
10
24.000152
20
4.270278
10
24.007358
20
4.260729
10
24.014515
20
4.251143
10
24.021623
20
4.241521
10
24.028682
20
4.231863
10
24.035691
20
4.222170
10
24.042652
20
4.212440
10
24.049562
20
4.202676
10
24.056423
20
4.192876
10
24.063234
20
4.183041
10
24.069995
20
4.173172
10
24.076705
20
4.163269
10
24.083365
20
4.153332
10
24.089975
20
4.143360
10
24.096533
20
4.133356
10
24.103041
20
4.123318
10
24.109497
20
4.113247
10
24.115902
20
4.103143
10
24.122255
20
4.093007
10
24.128557
20
4.082839
10
24.134807
20
4.072638
10
24.141004
20
4.062406
10
24.147150
20
4.052143
10
24.153243
20
4.041849
10
24.159284
20
4.031523
10
24.165272
20
4.021167
10
24.171208
20
4.010781
10
24.177090
20
4.000364
10
24.182920
20
3.989918
10
24.188696
20
3.979442
10
24.194419
20
3.968937
10
24.200088
20
3.958403
10
24.205703
20
3.947840
10
24.211265
20
3.937249
10
24.216773
20
3.926629
10
24.222226
20
3.915982
10
24.227625
20
3.905307
10
24.232970
20
3.894605
10
24.238260
20
3.883875
10
24.243496
20
3.873119
10
24.248677
20
3.862337
10
24.253803
20
3.851528
10
24.258873
20
3.840693
10
24.263889
20
3.829832
10
24.268849
20
3.818946
10
24.273754
20
3.808035
10
24.278603
20
3.797100
10
24.283396
20
3.786139
10
24.288134
20
3.775154
10
24.292815
20
3.764146
10
24.297441
20
3.753114
10
24.302010
20
3.742058
10
24.306523
20
3.730979
10
24.310979
20
3.719877
10
24.315379
20
3.708753
10
24.319722
20
3.697607
10
24.324008
20
3.686438
10
24.328238
20
3.675248
10
24.332410
20
3.664037
10
24.336525
20
3.652804
10
24.340583
20
3.641551
10
24.344584
20
3.630277
10
24.348527
20
3.618983
10
24.352413
20
3.607669
10
24.356241
20
3.596335
10
24.360012
20
3.584982
10
24.363724
20
3.573610
10
24.367379
20
3.562219
10
24.370975
20
3.550810
10
24.374514
20
3.539382
10
24.377994
20
3.527937
10
24.381416
20
3.516474
10
24.384779
20
3.504994
10
24.388084
20
3.493497
10
24.391331
20
3.481983
10
24.394518
20
3.470453
10
24.397647
20
3.458907
10
24.400718
20
3.447345
10
24.403729
20
3.435767
10
24.406681
20
3.424175
10
24.409575
20
3.412567
10
24.412409
20
3.400945
10
24.415184
20
3.389309
10
24.417900
20
3.377658
10
24.420556
20
3.365994
10
24.423153
20
3.354317
10
24.425690
20
3.342626
10
24.428168
20
3.330923
10
24.430587
20
3.319207
10
24.432945
20
3.307479
10
24.435244
20
3.295740
10
24.437483
20
3.283988
10
24.439663
20
3.272226
10
24.441782
20
3.260452
10
24.443842
20
3.248668
10
24.445841
20
3.236874
10
24.447780
20
3.225069
10
24.449660
20
3.213255
10
24.451479
20
3.201431
10
24.453237
20
3.189599
10
24.454936
20
3.177757
10
24.456574
20
3.165907
10
24.458152
20
3.154049
10
24.459670
20
3.142183
10
24.461127
20
3.130309
10
24.462524
20
3.118428
10
24.463860
20
3.106541
10
24.465136
20
3.094646
10
24.466351
20
3.082745
10
24.467505
20
3.070838
10
24.468599
20
3.058926
10
24.469632
20
3.047008
10
24.470605
20
3.035085
10
24.471517
20
3.023157
10
24.472368
20
3.011224
10
24.473158
20
2.999288
10
24.473888
20
2.987347
10
24.474556
20
2.975403
10
24.475164
20
2.963456
10
24.475711
20
2.951506
10
24.476198
20
2.939553
10
24.476623
20
2.927598
10
24.476988
20
2.915641
10
24.477291
20
2.903682
10
24.477534
20
2.891722
10
24.477716
20
2.879760
10
24.477837
20
2.867798
10
24.477897
20
2.855836
10
24.477897
20
2.843873
10
24.477835
20
2.831910
10
24.477712
20
2.819948
10
24.477529
20
2.807987
10
24.477285
20
2.796027
10
24.476980
20
2.784068
10
24.476613
20
2.772111
10
24.476187
20
2.760156
10
24.475699
20
2.748203
10
24.475150
20
2.736253
10
24.474541
20
2.724306
10
24.473870
20
2.712362
10
24.473139
20
2.700421
10
24.472348
20
2.688485
10
24.471495
20
2.676553
10
24.470582
20
2.664625
10
24.469608
20
2.652702
10
24.468573
20
2.640784
10
24.467478
20
2.628872
10
24.466322
20
2.616965
10
24.465105
20
2.605064
10
24.463828
20
2.593170
10
24.462490
20
2.581282
10
24.461092
20
2.569401
10
24.459634
20
2.557528
10
24.458115
20
2.545662
10
24.456535
20
2.533804
10
24.454895
20
2.521954
10
24.453195
20
2.510113
10
24.451435
20
2.498281
10
24.449614
20
2.486457
10
24.447734
20
2.474643
10
24.445793
20
2.462839
10
24.443792
20
2.451045
10
24.441731
20
2.439261
10
24.439610
20
2.427488
10
24.437430
20
2.415725
10
24.435189
20
2.403974
10
24.432889
20
2.392235
10
24.430529
20
2.380507
10
24.428109
20
2.368792
10
24.425629
20
2.357089
10
24.423090
20
2.345399
10
24.420492
20
2.333722
10
24.417834
20
2.322058
10
24.415117
20
2.310408
10
24.412341
20
2.298772
10
24.409505
20
2.287150
10
24.406610
20
2.275543
10
24.403656
20
2.263951
10
24.400644
20
2.252374
10
24.397572
20
2.240812
10
24.394442
20
2.229266
10
24.391252
20
2.217736
10
24.388004
20
2.206223
10
24.384698
20
2.194726
10
24.381333
20
2.183247
10
24.377910
20
2.171784
10
24.374428
20
2.160339
10
24.370888
20
2.148912
10
24.367290
20
2.137503
10
24.363634
20
2.126113
10
24.359921
20
2.114741
10
24.356149
20
2.103389
10
24.352319
20
2.092056
10
24.348432
20
2.080742
10
24.344487
20
2.069449
10
24.340485
20
2.058175
10
24.336426
20
2.046922
10
24.332309
20
2.035690
10
24.328135
20
2.024479
10
24.323905
20
2.013290
10
24.319617
20
2.002122
10
24.315272
20
1.990976
10
24.310871
20
1.979852
10
24.306413
20
1.968751
10
24.301899
20
1.957673
10
24.297329
20
1.946618
10
24.292702
20
1.935586
10
24.288019
20
1.924578
10
24.283280
20
1.913594
10
24.278485
20
1.902634
10
24.273635
20
1.891699
10
24.268729
20
1.880788
10
24.263767
20
1.869903
10
24.258751
20
1.859043
10
24.253678
20
1.848209
10
24.248551
20
1.837401
10
24.243369
20
1.826618
10
24.238132
20
1.815863
10
24.232841
20
1.805134
10
24.227494
20
1.794433
10
24.222094
20
1.783758
10
24.216639
20
1.773112
10
24.211130
20
1.762493
10
24.205567
20
1.751902
10
24.199950
20
1.741340
10
24.194280
20
1.730807
10
24.188556
20
1.720303
10
24.182778
20
1.709827
10
24.176948
20
1.699382
10
24.171064
20
1.688966
10
24.165127
20
1.678580
10
24.159138
20
1.668225
10
24.153096
20
1.657900
10
24.147001
20
1.647607
10
24.140854
20
1.637344
10
24.134655
20
1.627113
10
24.128404
20
1.616913
10
24.122101
20
1.606746
10
24.115746
20
1.596610
10
24.109340
20
1.586508
10
24.102883
20
1.576437
10
24.096374
20
1.566400
10
24.089814
20
1.556396
10
24.083204
20
1.546426
10
24.076543
20
1.536490
10
24.069831
20
1.526587
10
24.063069
20
1.516719
10
24.056257
20
1.506885
10
24.049395
20
1.497086
10
24.042483
20
1.487322
10
24.035521
20
1.477594
10
24.028510
20
1.467901
10
24.021450
20
1.458244
10
24.014341
20
1.448623
10
24.007183
20
1.439038
10
23.999976
20
1.429490
10
23.992721
20
1.419979
10
23.985417
20
1.410504
10
23.978065
20
1.401067
10
23.970665
20
1.391668
10
23.963218
20
1.382306
10
23.955723
20
1.372982
10
23.948180
20
1.363697
10
23.940591
20
1.354450
10
23.932954
20
1.345242
10
23.925271
20
1.336073
10
23.917541
20
1.326943
10
23.909765
20
1.317853
10
23.901942
20
1.308802
10
23.894074
20
1.299791
10
23.886159
20
1.290821
10
23.878200
20
1.281890
10
23.870194
20
1.273001
10
23.862144
20
1.264152
10
23.854049
20
1.255345
10
23.845909
20
1.246578
10
23.837724
20
1.237854
10
23.829496
20
1.229171
10
23.821223
20
1.220530
10
23.812906
20
1.211931
10
23.804546
20
1.203375
10
23.796142
20
1.194861
10
23.787695
20
1.186390
10
23.779205
20
1.177963
10
23.770672
20
1.169578
10
23.762096
20
1.161238
10
23.753478
20
1.152941
10
23.744818
20
1.144688
10
23.736117
20
1.136479
10
23.727373
20
1.128315
10
23.718588
20
1.120195
10
23.709762
20
1.112120
10
23.700895
20
1.104090
10
23.691987
20
1.096105
10
23.683038
20
1.088166
10
23.674050
20
1.080272
10
23.665021
20
1.072425
10
23.655952
20
1.064623
10
23.646844
20
1.056868
10
23.637696
20
1.049159
10
23.628510
20
1.041496
10
23.619284
20
1.033881
10
23.610020
20
1.026313
10
23.600717
20
1.018792
10
23.591376
20
1.011318
10
23.581997
20
1.003892
10
23.572581
20
0.996514
10
23.563127
20
0.989184
10
23.553636
20
0.981902
10
23.544108
20
0.974668
10
23.534543
20
0.967484
10
23.524942
20
0.960347
10
23.515305
20
0.953260
10
23.505631
20
0.946222
10
23.495922
20
0.939234
10
23.486178
20
0.932295
10
23.476398
20
0.925405
10
23.466583
20
0.918566
10
23.456734
20
0.911776
10
23.446850
20
0.905037
10
23.436932
20
0.898348
10
23.426981
20
0.891710
10
23.416995
20
0.885122
10
23.406976
20
0.878585
10
23.396924
20
0.872100
10
23.386839
20
0.865665
10
23.376722
20
0.859283
10
23.366572
20
0.852951
10
23.356390
20
0.846672
10
23.346176
20
0.840444
10
23.335930
20
0.834268
10
23.325654
20
0.828145
10
23.315346
20
0.822074
10
23.305007
20
0.816056
10
23.294638
20
0.810090
10
23.284239
20
0.804177
10
23.273810
20
0.798317
10
23.263351
20
0.792511
10
23.252863
20
0.786757
10
23.242345
20
0.781058
10
23.231799
20
0.775411
10
23.221224
20
0.769819
10
23.210620
20
0.764280
10
23.199989
20
0.758796
10
23.189330
20
0.753365
10
23.178643
20
0.747989
10
23.167929
20
0.742668
10
23.157188
20
0.737401
10
23.146421
20
0.732189
10
23.135627
20
0.727031
10
23.124807
20
0.721929
10
23.113961
20
0.716882
10
23.103090
20
0.711890
10
23.092193
20
0.706954
10
23.081271
20
0.702073
10
23.070325
20
0.697247
10
23.059354
20
0.692478
10
23.048359
20
0.687764
10
23.037340
20
0.683107
10
23.026298
20
0.678505
10
23.015232
20
0.673960
10
23.004144
20
0.669471
10
22.993032
20
0.665039
10
22.981899
20
0.660664
10
22.970743
20
0.656345
10
22.959565
20
0.652083
10
22.948366
20
0.647878
10
22.937145
20
0.643729
10
22.925904
20
0.639639
10
22.914642
20
0.635605
10
22.903359
20
0.631629
10
22.892056
20
0.627710
10
22.880734
20
0.623849
10
22.869392
20
0.620046
10
22.508366
20
0.500000
10
25.477905
20
0.500000
10
28.994587
20
4.419407
10
29.002599
20
4.428290
10
29.010656
20
4.437133
10
29.018757
20
4.445934
10
29.026904
20
4.454695
10
29.035095
20
4.463413
10
29.043330
20
4.472090
10
29.051609
20
4.480725
10
29.059932
20
4.489318
10
29.068299
20
4.497868
10
29.076709
20
4.506375
10
29.085163
20
4.514839
10
29.093659
20
4.523261
10
29.102198
20
4.531639
10
29.110780
20
4.539973
10
29.119404
20
4.548264
10
29.128070
20
4.556510
10
29.136778
20
4.564713
10
29.145527
20
4.572870
10
29.154318
20
4.580984
10
29.163150
20
4.589052
10
29.172023
20
4.597076
10
29.180937
20
4.605054
10
29.189892
20
4.612986
10
29.198886
20
4.620873
10
29.207921
20
4.628714
10
29.216995
20
4.636509
10
29.226109
20
4.644258
10
29.235263
20
4.651960
10
29.244455
20
4.659615
10
29.253686
20
4.667224
10
29.262956
20
4.674785
10
29.272265
20
4.682300
10
29.281611
20
4.689766
10
29.290995
20
4.697185
10
29.300417
20
4.704556
10
29.309876
20
4.711879
10
29.319373
20
4.719154
10
29.328906
20
4.726381
10
29.338476
20
4.733559
10
29.348083
20
4.740688
10
29.357725
20
4.747768
10
29.367404
20
4.754798
10
29.377118
20
4.761780
10
29.386868
20
4.768712
10
29.396653
20
4.775594
10
29.406472
20
4.782426
10
29.416327
20
4.789208
10
29.426215
20
4.795940
10
29.436138
20
4.802622
10
29.446095
20
4.809253
10
29.456085
20
4.815833
10
29.466109
20
4.822362
10
29.476166
20
4.828840
10
29.486256
20
4.835267
10
29.496378
20
4.841643
10
29.506533
20
4.847966
10
29.516719
20
4.854238
10
29.526938
20
4.860458
10
29.537188
20
4.866626
10
29.547469
20
4.872742
10
29.557781
20
4.878805
10
29.568124
20
4.884816
10
29.578498
20
4.890774
10
29.588901
20
4.896679
10
29.599335
20
4.902531
10
29.609798
20
4.908330
10
29.620291
20
4.914076
10
29.630813
20
4.919768
10
29.641363
20
4.925406
10
29.651942
20
4.930991
10
29.662550
20
4.936522
10
29.673185
20
4.941998
10
29.683848
20
4.947421
10
29.694539
20
4.952789
10
29.705257
20
4.958102
10
29.716002
20
4.963361
10
29.726773
20
4.968566
10
29.737571
20
4.973715
10
29.748394
20
4.978809
10
29.759244
20
4.983848
10
29.770119
20
4.988832
10
29.781020
20
4.993761
10
29.791945
20
4.998633
10
29.802895
20
5.003451
10
29.813869
20
5.008212
10
29.824868
20
5.012917
10
29.835890
20
5.017567
10
29.846936
20
5.022160
10
29.858005
20
5.026697
10
29.869096
20
5.031177
10
29.880211
20
5.035601
10
29.891348
20
5.039969
10
29.902507
20
5.044279
10
29.913688
20
5.048533
10
29.924890
20
5.052730
10
29.936114
20
5.056870
10
29.947359
20
5.060952
10
29.958624
20
5.064977
10
29.969909
20
5.068945
10
29.981215
20
5.072856
10
29.992540
20
5.076708
10
30.003885
20
5.080503
10
30.015249
20
5.084241
10
30.026632
20
5.087920
10
30.038033
20
5.091541
10
30.049453
20
5.095105
10
30.060891
20
5.098610
10
30.072346
20
5.102056
10
30.083819
20
5.105445
10
30.095309
20
5.108775
10
30.106815
20
5.112046
10
30.118338
20
5.115259
10
30.129878
20
5.118413
10
30.141433
20
5.121509
10
30.153004
20
5.124545
10
30.164590
20
5.127523
10
30.176192
20
5.130441
10
30.187808
20
5.133301
10
30.199438
20
5.136101
10
30.211082
20
5.138842
10
30.222741
20
5.141524
10
30.234412
20
5.144146
10
30.246097
20
5.146709
10
30.257795
20
5.149212
10
30.269506
20
5.151656
10
30.281228
20
5.154040
10
30.292963
20
5.156365
10
30.304709
20
5.158630
10
30.316467
20
5.160834
10
30.328236
20
5.162979
10
30.340016
20
5.165064
10
30.351806
20
5.167090
10
30.363606
20
5.169055
10
30.375416
20
5.170959
10
30.387236
20
5.172804
10
30.399064
20
5.174589
10
30.410902
20
5.176313
10
30.422749
20
5.177977
10
30.434603
20
5.179581
10
30.446466
20
5.181124
10
30.458336
20
5.182607
10
30.470214
20
5.184030
10
30.482099
20
5.185392
10
30.493991
20
5.186693
10
30.505889
20
5.187934
10
30.517793
20
5.189115
10
30.529704
20
5.190234
10
30.541619
20
5.191294
10
30.553540
20
5.192292
10
30.565466
20
5.193230
10
30.577397
20
5.194107
10
30.589332
20
5.194923
10
30.601270
20
5.195679
10
30.613213
20
5.196373
10
30.625159
20
5.197007
10
30.637108
20
5.197580
10
30.649060
20
5.198093
10
30.661014
20
5.198544
10
30.672970
20
5.198935
10
30.684928
20
5.199264
10
30.696888
20
5.199533
10
30.708849
20
5.199741
10
30.720811
20
5.199888
10
30.732773
20
5.199975
10
30.744736
20
5.200000
10
30.756698
20
5.199964
10
30.768661
20
5.199868
10
30.780622
20
5.199710
10
30.792583
20
5.199492
10
30.804543
20
5.199213
10
30.816500
20
5.198873
10
30.828456
20
5.198472
10
30.840410
20
5.198010
10
30.852361
20
5.197487
10
30.864310
20
5.196904
10
30.876255
20
5.196260
10
30.888197
20
5.195555
10
30.900135
20
5.194789
10
30.912069
20
5.193962
10
30.923999
20
5.193075
10
30.935924
20
5.192127
10
30.947844
20
5.191118
10
30.959759
20
5.190048
10
30.971668
20
5.188918
10
30.983572
20
5.187728
10
30.995469
20
5.186476
10
31.007359
20
5.185165
10
31.019243
20
5.183792
10
31.031120
20
5.182360
10
31.042989
20
5.180866
10
31.054850
20
5.179313
10
31.066704
20
5.177699
10
31.078549
20
5.176024
10
31.090385
20
5.174290
10
31.102212
20
5.172495
10
31.114030
20
5.170640
10
31.125839
20
5.168725
10
31.137637
20
5.166750
10
31.149425
20
5.164714
10
31.161203
20
5.162619
10
31.172970
20
5.160464
10
31.184726
20
5.158249
10
31.196470
20
5.155974
10
31.208203
20
5.153639
10
31.219924
20
5.151245
10
31.231632
20
5.148791
10
31.243328
20
5.146278
10
31.255011
20
5.143705
10
31.266680
20
5.141072
10
31.278336
20
5.138380
10
31.289978
20
5.135629
10
31.301606
20
5.132819
10
31.313219
20
5.129949
10
31.324818
20
5.127021
10
31.336402
20
5.124033
10
31.347970
20
5.120987
10
31.359523
20
5.117881
10
31.371059
20
5.114717
10
31.382580
20
5.111494
10
31.394084
20
5.108213
10
31.405571
20
5.104873
10
31.417040
20
5.101475
10
31.428493
20
5.098018
10
31.439928
20
5.094503
10
31.451344
20
5.090930
10
31.462742
20
5.087299
10
31.474122
20
5.083610
10
31.485483
20
5.079862
10
31.496824
20
5.076058
10
31.508146
20
5.072195
10
31.519448
20
5.068275
10
31.530731
20
5.064297
10
31.541992
20
5.060262
10
31.553233
20
5.056170
10
31.564453
20
5.052021
10
31.575652
20
5.047814
10
31.586829
20
5.043551
10
31.597985
20
5.039231
10
31.609118
20
5.034854
10
31.620229
20
5.030420
10
31.631317
20
5.025930
10
31.642382
20
5.021383
10
31.653423
20
5.016781
10
31.664442
20
5.012122
10
31.675436
20
5.007407
10
31.686406
20
5.002636
10
31.697352
20
4.997809
10
31.708273
20
4.992927
10
31.719169
20
4.987989
10
31.730040
20
4.982996
10
31.740885
20
4.977947
10
31.751705
20
4.972844
10
31.762498
20
4.967685
10
31.773265
20
4.962472
10
31.784005
20
4.957203
10
31.794718
20
4.951880
10
31.805404
20
4.946503
10
31.816063
20
4.941071
10
31.826693
20
4.935586
10
31.837296
20
4.930046
10
31.847870
20
4.924452
10
31.858416
20
4.918804
10
31.868933
20
4.913103
10
31.879420
20
4.907348
10
31.889879
20
4.901541
10
31.900307
20
4.895679
10
31.910706
20
4.889765
10
31.921074
20
4.883798
10
31.931412
20
4.877779
10
31.941719
20
4.871706
10
31.951995
20
4.865582
10
31.962239
20
4.859405
10
31.972452
20
4.853176
10
31.982634
20
4.846895
10
31.992783
20
4.840563
10
32.002900
20
4.834179
10
32.012984
20
4.827743
10
32.023035
20
4.821256
10
32.033053
20
4.814718
10
32.043038
20
4.808129
10
32.052989
20
4.801490
10
32.062906
20
4.794800
10
32.072789
20
4.788059
10
32.082637
20
4.781268
10
32.092451
20
4.774428
10
32.102230
20
4.767537
10
32.111974
20
4.760597
10
32.121682
20
4.753607
10
32.131354
20
4.746568
10
32.140991
20
4.739479
10
32.150591
20
4.732342
10
32.160155
20
4.725156
10
32.169682
20
4.717921
10
32.179172
20
4.710638
10
32.188625
20
4.703307
10
32.198041
20
4.695928
10
32.207418
20
4.688501
10
32.216758
20
4.681026
10
32.226060
20
4.673504
10
32.235323
20
4.665934
10
32.244548
20
4.658318
10
32.253734
20
4.650654
10
32.262881
20
4.642944
10
32.271988
20
4.635188
10
32.281056
20
4.627385
10
32.290083
20
4.619536
10
32.299071
20
4.611641
10
32.308019
20
4.603701
10
32.316926
20
4.595715
10
32.325792
20
4.587684
10
32.334617
20
4.579608
10
32.343401
20
4.571487
10
32.352143
20
4.563322
10
32.360844
20
4.555112
10
32.369503
20
4.546858
10
32.378120
20
4.538560
10
32.386694
20
4.530218
10
32.395226
20
4.521833
10
32.403715
20
4.513404
10
32.412161
20
4.504932
10
32.420564
20
4.496417
10
32.428924
20
4.487860
10
32.437239
20
4.479260
10
32.445511
20
4.470618
10
32.453739
20
4.461934
10
32.461922
20
4.453209
10
32.470061
20
4.444441
10
32.478155
20
4.435633
10
32.486204
20
4.426783
10
32.494208
20
4.417893
10
32.502167
20
4.408961
10
32.510080
20
4.399990
10
32.517948
20
4.390978
10
32.525769
20
4.381926
10
32.533544
20
4.372835
10
32.541273
20
4.363704
10
32.548955
20
4.354534
10
32.556591
20
4.345325
10
32.564179
20
4.336077
10
32.571720
20
4.326791
10
32.579214
20
4.317466
10
32.586661
20
4.308104
10
32.594059
20
4.298703
10
32.601410
20
4.289266
10
32.608712
20
4.279790
10
32.615966
20
4.270278
10
32.623172
20
4.260729
10
32.630329
20
4.251143
10
32.637437
20
4.241521
10
32.644496
20
4.231863
10
32.651506
20
4.222170
10
32.658466
20
4.212440
10
32.665377
20
4.202676
10
32.672238
20
4.192876
10
32.679049
20
4.183041
10
32.685810
20
4.173172
10
32.692520
20
4.163269
10
32.699180
20
4.153332
10
32.705789
20
4.143360
10
32.712348
20
4.133356
10
32.718855
20
4.123318
10
32.725311
20
4.113247
10
32.731716
20
4.103143
10
32.738069
20
4.093007
10
32.744371
20
4.082839
10
32.750621
20
4.072638
10
32.756819
20
4.062406
10
32.762965
20
4.052143
10
32.769058
20
4.041849
10
32.775099
20
4.031523
10
32.781087
20
4.021167
10
32.787022
20
4.010781
10
32.792905
20
4.000364
10
32.798734
20
3.989918
10
32.804510
20
3.979442
10
32.810233
20
3.968937
10
32.815902
20
3.958403
10
32.821518
20
3.947840
10
32.827079
20
3.937249
10
32.832587
20
3.926629
10
32.838041
20
3.915982
10
32.843440
20
3.905307
10
32.848785
20
3.894605
10
32.854075
20
3.883875
10
32.859310
20
3.873119
10
32.864491
20
3.862337
10
32.869617
20
3.851528
10
32.874688
20
3.840693
10
32.879703
20
3.829832
10
32.884663
20
3.818946
10
32.889568
20
3.808035
10
32.894417
20
3.797100
10
32.899211
20
3.786139
10
32.903948
20
3.775154
10
32.908630
20
3.764146
10
32.913255
20
3.753114
10
32.917824
20
3.742058
10
32.922337
20
3.730979
10
32.926793
20
3.719877
10
32.931193
20
3.708753
10
32.935536
20
3.697607
10
32.939823
20
3.686438
10
32.944052
20
3.675248
10
32.948225
20
3.664037
10
32.952340
20
3.652804
10
32.956398
20
3.641551
10
32.960399
20
3.630277
10
32.964342
20
3.618983
10
32.968228
20
3.607669
10
32.972056
20
3.596335
10
32.975826
20
3.584982
10
32.979539
20
3.573610
10
32.983193
20
3.562219
10
32.986790
20
3.550810
10
32.990328
20
3.539382
10
32.993808
20
3.527937
10
32.997230
20
3.516474
10
33.000594
20
3.504994
10
33.003899
20
3.493497
10
33.007145
20
3.481983
10
33.010333
20
3.470453
10
33.013462
20
3.458907
10
33.016532
20
3.447345
10
33.019544
20
3.435767
10
33.022496
20
3.424175
10
33.025389
20
3.412567
10
33.028223
20
3.400945
10
33.030998
20
3.389309
10
33.033714
20
3.377658
10
33.036370
20
3.365994
10
33.038967
20
3.354317
10
33.041505
20
3.342626
10
33.043983
20
3.330923
10
33.046401
20
3.319207
10
33.048760
20
3.307479
10
33.051059
20
3.295740
10
33.053298
20
3.283988
10
33.055477
20
3.272226
10
33.057597
20
3.260452
10
33.059656
20
3.248668
10
33.061655
20
3.236874
10
33.063595
20
3.225069
10
33.065474
20
3.213255
10
33.067293
20
3.201431
10
33.069052
20
3.189599
10
33.070751
20
3.177757
10
33.072389
20
3.165907
10
33.073967
20
3.154049
10
33.075484
20
3.142183
10
33.076941
20
3.130309
10
33.078338
20
3.118428
10
33.079674
20
3.106541
10
33.080950
20
3.094646
10
33.082165
20
3.082745
10
33.083320
20
3.070838
10
33.084413
20
3.058926
10
33.085447
20
3.047008
10
33.086419
20
3.035085
10
33.087331
20
3.023157
10
33.088182
20
3.011224
10
33.088972
20
2.999288
10
33.089702
20
2.987347
10
33.090371
20
2.975403
10
33.090979
20
2.963456
10
33.091526
20
2.951506
10
33.092012
20
2.939553
10
33.092438
20
2.927598
10
33.092802
20
2.915641
10
33.093106
20
2.903682
10
33.093349
20
2.891722
10
33.093531
20
2.879760
10
33.093652
20
2.867798
10
33.093712
20
2.855836
10
33.093711
20
2.843873
10
33.093649
20
2.831910
10
33.093527
20
2.819948
10
33.093344
20
2.807987
10
33.093099
20
2.796027
10
33.092794
20
2.784068
10
33.092428
20
2.772111
10
33.092001
20
2.760156
10
33.091513
20
2.748203
10
33.090965
20
2.736253
10
33.090355
20
2.724306
10
33.089685
20
2.712362
10
33.088954
20
2.700421
10
33.088162
20
2.688485
10
33.087310
20
2.676553
10
33.086396
20
2.664625
10
33.085422
20
2.652702
10
33.084388
20
2.640784
10
33.083292
20
2.628872
10
33.082136
20
2.616965
10
33.080920
20
2.605064
10
33.079643
20
2.593170
10
33.078305
20
2.581282
10
33.076907
20
2.569401
10
33.075448
20
2.557528
10
33.073929
20
2.545662
10
33.072350
20
2.533804
10
33.070710
20
2.521954
10
33.069010
20
2.510113
10
33.067249
20
2.498281
10
33.065429
20
2.486457
10
33.063548
20
2.474643
10
33.061607
20
2.462839
10
33.059607
20
2.451045
10
33.057546
20
2.439261
10
33.055425
20
2.427488
10
33.053244
20
2.415725
10
33.051003
20
2.403974
10
33.048703
20
2.392235
10
33.046343
20
2.380507
10
33.043923
20
2.368792
10
33.041444
20
2.357089
10
33.038905
20
2.345399
10
33.036306
20
2.333722
10
33.033649
20
2.322058
10
33.030931
20
2.310408
10
33.028155
20
2.298772
10
33.025319
20
2.287150
10
33.022425
20
2.275543
10
33.019471
20
2.263951
10
33.016458
20
2.252374
10
33.013386
20
2.240812
10
33.010256
20
2.229266
10
33.007067
20
2.217736
10
33.003819
20
2.206223
10
33.000512
20
2.194726
10
32.997148
20
2.183247
10
32.993724
20
2.171784
10
32.990243
20
2.160339
10
32.986703
20
2.148912
10
32.983105
20
2.137503
10
32.979449
20
2.126113
10
32.975735
20
2.114741
10
32.971963
20
2.103389
10
32.968134
20
2.092056
10
32.964247
20
2.080742
10
32.960302
20
2.069449
10
32.956300
20
2.058175
10
32.952240
20
2.046922
10
32.948124
20
2.035690
10
32.943950
20
2.024479
10
32.939719
20
2.013290
10
32.935431
20
2.002122
10
32.931087
20
1.990976
10
32.926686
20
1.979852
10
32.922228
20
1.968751
10
32.917714
20
1.957673
10
32.913143
20
1.946618
10
32.908516
20
1.935586
10
32.903833
20
1.924578
10
32.899095
20
1.913594
10
32.894300
20
1.902634
10
32.889449
20
1.891699
10
32.884543
20
1.880788
10
32.879582
20
1.869903
10
32.874565
20
1.859043
10
32.869493
20
1.848209
10
32.864366
20
1.837401
10
32.859184
20
1.826618
10
32.853947
20
1.815863
10
32.848655
20
1.805134
10
32.843309
20
1.794433
10
32.837908
20
1.783758
10
32.832454
20
1.773112
10
32.826945
20
1.762493
10
32.821382
20
1.751902
10
32.815765
20
1.741340
10
32.810094
20
1.730807
10
32.804370
20
1.720303
10
32.798593
20
1.709827
10
32.792762
20
1.699382
10
32.786878
20
1.688966
10
32.780942
20
1.678580
10
32.774952
20
1.668225
10
32.768910
20
1.657900
10
32.762816
20
1.647607
10
32.756669
20
1.637344
10
32.750469
20
1.627113
10
32.744218
20
1.616913
10
32.737915
20
1.606746
10
32.732888
20
1.598727
10
32.741369
20
1.599143
10
32.793719
20
1.600000
10
32.846070
20
1.599143
10
32.898364
20
1.596574
10
32.950547
20
1.592296
10
33.002561
20
1.586312
10
33.054352
20
1.578629
10
33.105864
20
1.569256
10
33.157041
20
1.558203
10
33.207830
20
1.545481
10
33.258175
20
1.531105
10
33.308022
20
1.515088
10
33.357319
20
1.497449
10
33.406013
20
1.478207
10
33.454050
20
1.457382
10
33.501381
20
1.434996
10
33.547954
20
1.411074
10
33.593719
20
1.385641
10
33.638628
20
1.358723
10
33.682631
20
1.330351
10
33.725683
20
1.300555
10
33.767737
20
1.269365
10
33.808748
20
1.236817
10
33.848672
20
1.202944
10
33.887467
20
1.167783
10
33.925090
20
1.131371
10
33.961502
20
1.093748
10
33.996663
20
1.054953
10
34.030536
20
1.015029
10
34.063084
20
0.974018
10
34.094274
20
0.931964
10
34.124070
20
0.888912
10
34.152443
20
0.844909
10
34.179360
20
0.800000
10
34.204793
20
0.754235
10
34.228715
20
0.707662
10
34.251101
20
0.660331
10
34.271926
20
0.612293
10
34.291169
20
0.563600
10
34.308807
20
0.514303
10
34.324824
20
0.464455
10
34.339200
20
0.414110
10
34.351922
20
0.363322
10
34.362976
20
0.312145
10
34.372348
20
0.260633
10
34.380031
20
0.208842
10
34.386015
20
0.156827
10
34.390293
20
0.104645
10
34.392862
20
0.052351
10
34.393719
20
0.000000
10
34.392862
20
-0.052351
10
34.390293
20
-0.104645
10
34.386015
20
-0.156827
10
34.380031
20
-0.208842
10
34.372348
20
-0.260633
10
34.362976
20
-0.312145
10
34.351922
20
-0.363322
10
34.339200
20
-0.414110
10
34.324824
20
-0.464455
10
34.308807
20
-0.514303
10
34.291169
20
-0.563600
10
34.271926
20
-0.612293
10
34.251101
20
-0.660331
10
34.228715
20
-0.707662
10
34.204793
20
-0.754235
10
34.179360
20
-0.800000
10
34.152443
20
-0.844909
10
34.124070
20
-0.888912
10
34.094274
20
-0.931964
10
34.063084
20
-0.974018
10
34.030536
20
-1.015029
10
33.996663
20
-1.054953
10
33.961502
20
-1.093748
10
33.925090
20
-1.131371
10
33.887467
20
-1.167783
10
33.848672
20
-1.202944
10
33.808748
20
-1.236817
10
33.767737
20
-1.269365
10
33.725683
20
-1.300555
10
33.682631
20
-1.330351
10
33.638628
20
-1.358723
10
33.593719
20
-1.385641
10
33.547954
20
-1.411074
10
33.501381
20
-1.434996
10
33.454050
20
-1.457382
10
33.406013
20
-1.478207
10
33.357319
20
-1.497449
10
33.308022
20
-1.515088
10
33.258175
20
-1.531105
10
33.207830
20
-1.545481
10
33.157041
20
-1.558203
10
33.105864
20
-1.569256
10
33.054352
20
-1.578629
10
33.002561
20
-1.586312
10
32.950547
20
-1.592296
10
32.898364
20
-1.596574
10
32.846070
20
-1.599143
10
32.793719
20
-1.600000
10
32.741369
20
-1.599143
10
32.689074
20
-1.596574
10
32.636892
20
-1.592296
10
32.584877
20
-1.586312
10
32.533086
20
-1.578629
10
32.481575
20
-1.569256
10
32.430397
20
-1.558203
10
32.379609
20
-1.545481
10
32.329264
20
-1.531105
10
32.279416
20
-1.515088
10
32.230119
20
-1.497449
10
32.181426
20
-1.478207
10
32.133388
20
-1.457382
10
32.086057
20
-1.434996
10
32.039484
20
-1.411074
10
31.993719
20
-1.385641
10
31.948811
20
-1.358723
10
31.904807
20
-1.330351
10
31.861755
20
-1.300555
10
31.819701
20
-1.269365
10
31.778690
20
-1.236817
10
31.738766
20
-1.202944
10
31.699971
20
-1.167783
10
31.662348
20
-1.131371
10
31.625937
20
-1.093748
10
31.590775
20
-1.054953
10
31.556902
20
-1.015029
10
31.524354
20
-0.974018
10
31.493164
20
-0.931964
10
31.463368
20
-0.888912
10
31.434996
20
-0.844909
10
31.408078
20
-0.800000
10
31.382645
20
-0.754235
10
31.358723
20
-0.707662
10
31.336337
20
-0.660331
10
31.315512
20
-0.612293
10
31.296270
20
-0.563600
10
31.278631
20
-0.514303
10
31.274035
20
-0.500000
10
1.450145
20
-0.500000
10
1.445549
20
-0.514303
0
LWPOLYLINE
8
0
100
AcDbEntity
100
AcDbPolyline
90
732
70
1
10
1.289185
20
0.844909
10
1.316102
20
0.800000
10
1.341535
20
0.754235
10
1.365458
20
0.707662
10
1.387843
20
0.660331
10
1.408668
20
0.612293
10
1.427911
20
0.563600
10
1.445549
20
0.514303
10
1.450145
20
0.500000
10
2.107431
20
0.500000
10
5.322236
20
1.568962
10
5.328752
20
1.571147
10
5.335256
20
1.573365
10
5.341750
20
1.575617
10
5.348231
20
1.577901
10
5.354701
20
1.580218
10
5.361159
20
1.582568
10
5.367604
20
1.584951
10
5.374038
20
1.587367
10
5.380459
20
1.589815
10
5.386868
20
1.592296
10
5.393264
20
1.594810
10
5.399647
20
1.597356
10
5.406017
20
1.599935
10
5.412374
20
1.602546
10
5.418718
20
1.605189
10
5.425047
20
1.607865
10
5.431364
20
1.610572
10
5.437666
20
1.613312
10
5.443954
20
1.616084
10
5.450229
20
1.618888
10
5.456488
20
1.621724
10
5.462734
20
1.624592
10
5.468964
20
1.627491
10
5.475180
20
1.630422
10
5.481381
20
1.633385
10
5.487566
20
1.636379
10
5.493737
20
1.639405
10
5.499891
20
1.642462
10
5.506031
20
1.645550
10
5.512154
20
1.648670
10
5.518261
20
1.651821
10
5.524353
20
1.655002
10
5.530428
20
1.658215
10
5.536486
20
1.661459
10
5.542528
20
1.664733
10
5.548553
20
1.668038
10
5.554562
20
1.671374
10
5.560553
20
1.674740
10
5.566527
20
1.678137
10
5.572484
20
1.681564
10
5.578423
20
1.685021
10
5.584344
20
1.688509
10
5.590248
20
1.692027
10
5.596134
20
1.695574
10
5.602001
20
1.699152
10
5.607850
20
1.702759
10
5.613681
20
1.706396
10
5.619493
20
1.710063
10
5.625287
20
1.713759
10
5.631062
20
1.717485
10
5.636817
20
1.721240
10
5.642553
20
1.725025
10
5.648270
20
1.728838
10
5.653968
20
1.732681
10
5.659646
20
1.736552
10
5.665304
20
1.740453
10
5.670942
20
1.744382
10
5.676560
20
1.748339
10
5.682158
20
1.752326
10
5.687736
20
1.756341
10
5.693293
20
1.760384
10
5.698829
20
1.764455
10
5.704345
20
1.768554
10
5.709839
20
1.772682
10
5.715313
20
1.776837
10
5.720765
20
1.781020
10
5.726196
20
1.785231
10
5.731606
20
1.789470
10
5.736993
20
1.793736
10
5.742359
20
1.798029
10
5.747703
20
1.802350
10
5.753025
20
1.806698
10
5.758325
20
1.811072
10
5.763603
20
1.815474
10
5.768858
20
1.819903
10
5.774090
20
1.824358
10
5.779300
20
1.828840
10
5.784487
20
1.833348
10
5.789650
20
1.837883
10
5.794791
20
1.842443
10
5.799908
20
1.847030
10
5.805002
20
1.851643
10
5.810073
20
1.856282
10
5.815119
20
1.860947
10
5.820142
20
1.865637
10
5.825141
20
1.870353
10
5.830116
20
1.875094
10
5.835067
20
1.879860
10
5.839993
20
1.884651
10
5.844895
20
1.889468
10
5.849772
20
1.894309
10
5.854625
20
1.899176
10
5.859452
20
1.904066
10
5.864255
20
1.908982
10
5.869033
20
1.913921
10
5.873785
20
1.918885
10
5.878513
20
1.923873
10
5.883214
20
1.928885
10
5.887891
20
1.933921
10
5.892541
20
1.938981
10
5.897166
20
1.944064
10
5.901764
20
1.949171
10
5.906337
20
1.954301
10
5.910883
20
1.959455
10
5.915404
20
1.964631
10
5.919897
20
1.969830
10
5.924365
20
1.975052
10
5.928805
20
1.980297
10
5.933219
20
1.985565
10
5.937606
20
1.990854
10
5.941966
20
1.996166
10
5.946299
20
2.001501
10
5.950605
20
2.006857
10
5.954883
20
2.012235
10
5.959134
20
2.017634
10
5.963357
20
2.023056
10
5.967553
20
2.028498
10
5.971721
20
2.033962
10
5.975861
20
2.039447
10
5.979973
20
2.044954
10
5.984057
20
2.050481
10
5.988113
20
2.056028
10
5.992141
20
2.061597
10
5.996140
20
2.067185
10
6.000110
20
2.072794
10
6.004053
20
2.078423
10
6.007966
20
2.084072
10
6.011850
20
2.089741
10
6.015706
20
2.095430
10
6.019533
20
2.101138
10
6.023330
20
2.106866
10
6.027099
20
2.112613
10
6.030838
20
2.118379
10
6.034547
20
2.124164
10
6.038227
20
2.129968
10
6.041878
20
2.135790
10
6.045499
20
2.141631
10
6.049090
20
2.147490
10
6.052651
20
2.153368
10
6.056182
20
2.159263
10
6.059683
20
2.165177
10
6.063154
20
2.171108
10
6.066595
20
2.177057
10
6.070006
20
2.183023
10
6.073386
20
2.189007
10
6.076735
20
2.195007
10
6.080054
20
2.201025
10
6.083342
20
2.207059
10
6.086600
20
2.213110
10
6.089827
20
2.219178
10
6.093022
20
2.225262
10
6.096187
20
2.231362
10
6.099321
20
2.237478
10
6.102423
20
2.243610
10
6.105494
20
2.249758
10
6.108534
20
2.255921
10
6.111543
20
2.262100
10
6.114520
20
2.268294
10
6.117465
20
2.274503
10
6.120379
20
2.280727
10
6.123261
20
2.286966
10
6.126111
20
2.293219
10
6.128929
20
2.299486
10
6.131716
20
2.305768
10
6.134470
20
2.312064
10
6.137192
20
2.318374
10
6.139883
20
2.324698
10
6.142541
20
2.331036
10
6.145166
20
2.337386
10
6.147759
20
2.343751
10
6.150320
20
2.350128
10
6.152849
20
2.356518
10
6.155344
20
2.362921
10
6.157808
20
2.369337
10
6.160238
20
2.375765
10
6.162636
20
2.382205
10
6.165001
20
2.388657
10
6.167333
20
2.395122
10
6.169632
20
2.401598
10
6.171898
20
2.408086
10
6.174131
20
2.414585
10
6.176331
20
2.421096
10
6.178498
20
2.427617
10
6.180631
20
2.434150
10
6.182731
20
2.440693
10
6.184798
20
2.447247
10
6.186832
20
2.453812
10
6.188832
20
2.460387
10
6.190798
20
2.466971
10
6.192731
20
2.473566
10
6.194631
20
2.480171
10
6.196497
20
2.486785
10
6.198329
20
2.493408
10
6.200127
20
2.500041
10
6.201892
20
2.506683
10
6.203622
20
2.513333
10
6.205319
20
2.519993
10
6.206982
20
2.526661
10
6.208611
20
2.533337
10
6.210206
20
2.540022
10
6.211767
20
2.546714
10
6.213294
20
2.553415
10
6.214787
20
2.560123
10
6.216245
20
2.566838
10
6.217670
20
2.573561
10
6.219060
20
2.580291
10
6.220415
20
2.587029
10
6.221737
20
2.593773
10
6.223024
20
2.600523
10
6.224277
20
2.607280
10
6.225495
20
2.614044
10
6.226679
20
2.620813
10
6.227829
20
2.627588
10
6.228944
20
2.634369
10
6.230024
20
2.641156
10
6.231070
20
2.647948
10
6.232081
20
2.654746
10
6.233058
20
2.661548
10
6.234000
20
2.668356
10
6.234907
20
2.675168
10
6.235780
20
2.681984
10
6.236618
20
2.688805
10
6.237421
20
2.695630
10
6.238189
20
2.702459
10
6.238923
20
2.709292
10
6.239622
20
2.716129
10
6.240286
20
2.722969
10
6.240915
20
2.729812
10
6.241509
20
2.736659
10
6.242069
20
2.743508
10
6.242594
20
2.750360
10
6.243083
20
2.757215
10
6.243538
20
2.764072
10
6.243958
20
2.770931
10
6.244343
20
2.777793
10
6.244693
20
2.784656
10
6.245009
20
2.791521
10
6.245289
20
2.798387
10
6.245534
20
2.805255
10
6.245744
20
2.812124
10
6.245920
20
2.818994
10
6.246060
20
2.825865
10
6.246165
20
2.832736
10
6.246236
20
2.839608
10
6.246271
20
2.846480
10
6.246272
20
2.853352
10
6.246237
20
2.860225
10
6.246167
20
2.867096
10
6.246063
20
2.873968
10
6.245923
20
2.880839
10
6.245749
20
2.887709
10
6.245540
20
2.894578
10
6.245295
20
2.901445
10
6.245016
20
2.908312
10
6.244701
20
2.915177
10
6.244352
20
2.922040
10
6.243968
20
2.928902
10
6.243549
20
2.935761
10
6.243095
20
2.942618
10
6.242606
20
2.949473
10
6.242082
20
2.956325
10
6.241523
20
2.963175
10
6.240930
20
2.970021
10
6.240302
20
2.976865
10
6.239638
20
2.983705
10
6.238940
20
2.990541
10
6.238207
20
2.997374
10
6.237440
20
3.004204
10
6.236637
20
3.011029
10
6.235800
20
3.017850
10
6.234929
20
3.024666
10
6.234022
20
3.031479
10
6.233081
20
3.038286
10
6.232105
20
3.045089
10
6.231095
20
3.051886
10
6.230050
20
3.058678
10
6.228970
20
3.065465
10
6.227856
20
3.072247
10
6.226708
20
3.079022
10
6.225524
20
3.085792
10
6.224307
20
3.092555
10
6.223055
20
3.099312
10
6.221769
20
3.106063
10
6.220448
20
3.112807
10
6.219093
20
3.119545
10
6.217704
20
3.126275
10
6.216280
20
3.132998
10
6.214823
20
3.139714
10
6.213331
20
3.146422
10
6.211805
20
3.153123
10
6.210245
20
3.159816
10
6.208650
20
3.166500
10
6.207022
20
3.173177
10
6.205360
20
3.179845
10
6.203664
20
3.186505
10
6.201934
20
3.193155
10
6.200171
20
3.199798
10
6.198373
20
3.206430
10
6.196542
20
3.213054
10
6.194677
20
3.219668
10
6.192778
20
3.226273
10
6.190846
20
3.232868
10
6.188880
20
3.239453
10
6.186881
20
3.246028
10
6.184848
20
3.252593
10
6.182782
20
3.259147
10
6.180683
20
3.265691
10
6.178550
20
3.272224
10
6.176384
20
3.278746
10
6.174185
20
3.285256
10
6.171953
20
3.291756
10
6.169687
20
3.298244
10
6.167389
20
3.304721
10
6.165058
20
3.311185
10
6.162694
20
3.317638
10
6.160297
20
3.324079
10
6.157867
20
3.330507
10
6.155405
20
3.336923
10
6.152910
20
3.343326
10
6.150382
20
3.349717
10
6.147822
20
3.356094
10
6.145230
20
3.362459
10
6.142605
20
3.368810
10
6.139948
20
3.375148
10
6.137258
20
3.381472
10
6.134537
20
3.387782
10
6.131783
20
3.394078
10
6.128998
20
3.400361
10
6.126180
20
3.406629
10
6.123330
20
3.412882
10
6.120449
20
3.419121
10
6.117536
20
3.425346
10
6.114592
20
3.431555
10
6.111615
20
3.437749
10
6.108608
20
3.443928
10
6.105569
20
3.450092
10
6.102498
20
3.456240
10
6.099397
20
3.462373
10
6.096264
20
3.468489
10
6.093100
20
3.474590
10
6.089905
20
3.480674
10
6.086679
20
3.486742
10
6.083422
20
3.492794
10
6.080135
20
3.498828
10
6.076816
20
3.504846
10
6.073468
20
3.510847
10
6.070088
20
3.516831
10
6.066679
20
3.522798
10
6.063238
20
3.528747
10
6.059768
20
3.534679
10
6.056268
20
3.540593
10
6.052737
20
3.546489
10
6.049177
20
3.552367
10
6.045586
20
3.558226
10
6.041966
20
3.564068
10
6.038317
20
3.569891
10
6.034637
20
3.575695
10
6.030928
20
3.581480
10
6.027190
20
3.587247
10
6.023422
20
3.592994
10
6.019626
20
3.598722
10
6.015800
20
3.604431
10
6.011945
20
3.610120
10
6.008061
20
3.615790
10
6.004148
20
3.621439
10
6.000207
20
3.627069
10
5.996237
20
3.632678
10
5.992238
20
3.638268
10
5.988211
20
3.643836
10
5.984156
20
3.649385
10
5.980073
20
3.654912
10
5.975961
20
3.660419
10
5.971822
20
3.665904
10
5.967655
20
3.671369
10
5.963460
20
3.676812
10
5.959237
20
3.682234
10
5.954987
20
3.687634
10
5.950709
20
3.693013
10
5.946404
20
3.698369
10
5.942072
20
3.703704
10
5.937712
20
3.709017
10
5.933326
20
3.714307
10
5.928913
20
3.719575
10
5.924473
20
3.724820
10
5.920006
20
3.730043
10
5.915513
20
3.735243
10
5.910994
20
3.740420
10
5.906448
20
3.745574
10
5.901876
20
3.750704
10
5.897278
20
3.755812
10
5.892654
20
3.760895
10
5.888004
20
3.765956
10
5.883329
20
3.770992
10
5.878627
20
3.776005
10
5.873901
20
3.780994
10
5.869149
20
3.785958
10
5.864372
20
3.790898
10
5.859570
20
3.795814
10
5.854743
20
3.800706
10
5.849891
20
3.805572
10
5.845014
20
3.810414
10
5.840113
20
3.815232
10
5.835187
20
3.820024
10
5.830237
20
3.824791
10
5.825263
20
3.829532
10
5.820264
20
3.834249
10
5.815242
20
3.838939
10
5.810196
20
3.843605
10
5.805126
20
3.848244
10
5.800033
20
3.852858
10
5.794916
20
3.857445
10
5.789776
20
3.862007
10
5.784613
20
3.866542
10
5.779426
20
3.871051
10
5.774217
20
3.875533
10
5.768985
20
3.879989
10
5.763731
20
3.884418
10
5.758454
20
3.888821
10
5.753155
20
3.893196
10
5.747833
20
3.897545
10
5.742490
20
3.901866
10
5.737124
20
3.906160
10
5.731737
20
3.910427
10
5.726328
20
3.914666
10
5.720898
20
3.918877
10
5.715446
20
3.923061
10
5.709973
20
3.927217
10
5.704479
20
3.931345
10
5.698964
20
3.935446
10
5.693428
20
3.939518
10
5.687871
20
3.943561
10
5.682294
20
3.947577
10
5.676697
20
3.951564
10
5.671079
20
3.955522
10
5.665441
20
3.959452
10
5.659784
20
3.963353
10
5.654106
20
3.967225
10
5.648409
20
3.971069
10
5.642693
20
3.974883
10
5.636957
20
3.978668
10
5.631202
20
3.982424
10
5.625428
20
3.986150
10
5.619635
20
3.989847
10
5.613823
20
3.993515
10
5.607993
20
3.997153
10
5.602144
20
4.000761
10
5.596277
20
4.004339
10
5.590391
20
4.007887
10
5.584488
20
4.011406
10
5.578567
20
4.014894
10
5.572628
20
4.018352
10
5.566672
20
4.021780
10
5.560699
20
4.025178
10
5.554708
20
4.028545
10
5.548700
20
4.031881
10
5.542675
20
4.035187
10
5.536633
20
4.038462
10
5.530575
20
4.041706
10
5.524501
20
4.044920
10
5.518410
20
4.048102
10
5.512303
20
4.051254
10
5.506180
20
4.054374
10
5.500041
20
4.057463
10
5.493887
20
4.060521
10
5.487717
20
4.063547
10
5.481532
20
4.066542
10
5.475331
20
4.069506
10
5.469116
20
4.072438
10
5.462886
20
4.075338
10
5.456641
20
4.078206
10
5.450381
20
4.081043
10
5.444107
20
4.083848
10
5.437819
20
4.086621
10
5.431517
20
4.089361
10
5.425201
20
4.092070
10
5.418872
20
4.094746
10
5.412529
20
4.097390
10
5.406172
20
4.100002
10
5.399802
20
4.102582
10
5.393420
20
4.105129
10
5.387024
20
4.107643
10
5.380616
20
4.110125
10
5.374195
20
4.112574
10
5.367761
20
4.114991
10
5.361316
20
4.117374
10
5.354858
20
4.119725
10
5.348389
20
4.122043
10
5.341907
20
4.124328
10
5.335415
20
4.126580
10
5.328911
20
4.128799
10
5.322395
20
4.130985
10
5.315869
20
4.133137
10
5.309332
20
4.135257
10
5.302784
20
4.137343
10
5.296225
20
4.139395
10
5.289656
20
4.141415
10
5.283077
20
4.143400
10
5.276488
20
4.145353
10
5.269889
20
4.147271
10
5.263281
20
4.149156
10
5.256663
20
4.151008
10
5.250035
20
4.152825
10
5.243399
20
4.154609
10
5.236753
20
4.156360
10
5.230099
20
4.158076
10
5.223435
20
4.159758
10
5.216764
20
4.161407
10
5.210084
20
4.163021
10
5.203396
20
4.164602
10
5.196700
20
4.166148
10
5.189996
20
4.167660
10
5.183285
20
4.169138
10
5.176566
20
4.170582
10
5.169840
20
4.171992
10
5.163107
20
4.173367
10
5.156367
20
4.174708
10
5.149620
20
4.176015
10
5.142867
20
4.177288
10
5.136107
20
4.178526
10
5.129341
20
4.179730
10
5.122569
20
4.180899
10
5.115791
20
4.182033
10
5.109008
20
4.183134
10
5.102219
20
4.184199
10
5.095424
20
4.185230
10
5.088625
20
4.186227
10
5.081820
20
4.187189
10
5.075011
20
4.188116
10
5.068197
20
4.189008
10
5.061378
20
4.189866
10
5.054555
20
4.190689
10
5.047729
20
4.191478
10
5.040898
20
4.192231
10
5.034063
20
4.192950
10
5.027225
20
4.193634
10
5.020384
20
4.194283
10
5.013539
20
4.194897
10
5.006691
20
4.195477
10
4.999841
20
4.196022
10
4.992988
20
4.196531
10
4.986132
20
4.197006
10
4.979274
20
4.197446
10
4.972414
20
4.197851
10
4.965551
20
4.198221
10
4.958687
20
4.198557
10
4.951822
20
4.198857
10
4.944955
20
4.199122
10
4.938086
20
4.199352
10
4.931217
20
4.199548
10
4.924346
20
4.199708
10
4.917475
20
4.199834
10
4.910604
20
4.199924
10
4.903732
20
4.199979
10
4.896860
20
4.200000
10
4.889988
20
4.199985
10
4.883116
20
4.199936
10
4.876244
20
4.199851
10
4.869373
20
4.199732
10
4.862502
20
4.199577
10
4.855633
20
4.199388
10
4.848764
20
4.199164
10
4.841897
20
4.198904
10
4.835031
20
4.198610
10
4.828167
20
4.198281
10
4.821304
20
4.197917
10
4.814443
20
4.197518
10
4.807585
20
4.197083
10
4.800729
20
4.196615
10
4.793875
20
4.196111
10
4.787024
20
4.195572
10
4.780176
20
4.194998
10
4.773331
20
4.194390
10
4.766489
20
4.193747
10
4.759650
20
4.193069
10
4.752815
20
4.192356
10
4.745983
20
4.191608
10
4.739156
20
4.190826
10
4.732332
20
4.190008
10
4.725513
20
4.189157
10
4.718699
20
4.188270
10
4.711888
20
4.187349
10
4.705083
20
4.186393
10
4.698283
20
4.185402
10
4.691487
20
4.184377
10
4.684697
20
4.183317
10
4.677913
20
4.182223
10
4.671134
20
4.181094
10
4.664361
20
4.179931
10
4.657594
20
4.178733
10
4.650833
20
4.177501
10
4.644079
20
4.176234
10
4.637331
20
4.174933
10
4.630589
20
4.173598
10
4.623855
20
4.172228
10
4.617128
20
4.170824
10
4.610408
20
4.169386
10
4.603695
20
4.167914
10
4.596990
20
4.166407
10
4.590293
20
4.164867
10
4.583603
20
4.163292
10
4.576922
20
4.161683
10
4.570249
20
4.160041
10
4.563585
20
4.158364
10
4.556929
20
4.156654
10
4.550282
20
4.154909
10
4.543644
20
4.153131
10
4.537015
20
4.151319
10
4.530395
20
4.149473
10
4.523785
20
4.147594
10
4.517184
20
4.145681
10
4.510593
20
4.143735
10
4.504012
20
4.141754
10
4.497442
20
4.139741
10
4.490882
20
4.137694
10
4.484332
20
4.135614
10
4.477793
20
4.133500
10
4.471265
20
4.131353
10
4.464747
20
4.129173
10
4.458241
20
4.126960
10
4.451747
20
4.124713
10
4.445263
20
4.122434
10
4.438792
20
4.120122
10
4.432332
20
4.117776
10
4.425885
20
4.115398
10
4.419449
20
4.112987
10
4.413026
20
4.110544
10
4.406616
20
4.108067
10
4.400218
20
4.105558
10
4.393833
20
4.103017
10
4.387461
20
4.100443
10
4.381102
20
4.097837
10
4.374757
20
4.095198
10
4.368425
20
4.092527
10
4.362107
20
4.089824
10
4.355802
20
4.087089
10
4.349512
20
4.084321
10
4.343236
20
4.081522
10
4.336974
20
4.078691
10
4.330726
20
4.075828
10
4.324493
20
4.072933
10
4.318276
20
4.070006
10
4.312073
20
4.067048
10
4.305885
20
4.064059
10
4.299712
20
4.061038
10
4.293555
20
4.057985
10
4.287414
20
4.054901
10
4.281288
20
4.051786
10
4.275178
20
4.048640
10
4.269085
20
4.045463
10
4.263007
20
4.042255
10
4.256946
20
4.039016
10
4.250902
20
4.035746
10
4.244874
20
4.032445
10
4.238864
20
4.029114
10
4.232870
20
4.025752
10
4.226893
20
4.022360
10
4.220934
20
4.018937
10
4.214992
20
4.015484
10
4.209068
20
4.012001
10
4.203162
20
4.008488
10
4.197274
20
4.004944
10
4.191403
20
4.001371
10
4.185552
20
3.997768
10
4.179718
20
3.994135
10
4.173903
20
3.990473
10
4.168107
20
3.986781
10
4.162330
20
3.983059
10
4.156571
20
3.979308
10
4.150832
20
3.975528
10
4.145112
20
3.971719
10
4.139412
20
3.967881
10
4.133731
20
3.964013
10
4.128070
20
3.960117
10
4.122429
20
3.956192
10
4.116808
20
3.952239
10
4.111207
20
3.948256
10
4.105627
20
3.944246
10
4.100067
20
3.940207
10
4.094527
20
3.936140
10
4.089009
20
3.932044
10
4.083511
20
3.927921
10
4.078034
20
3.923770
10
4.072579
20
3.919590
10
4.067145
20
3.915383
10
4.061732
20
3.911149
10
4.056341
20
3.906887
10
4.050972
20
3.902598
10
4.045625
20
3.898281
10
4.040299
20
3.893937
10
4.034996
20
3.889566
10
4.029716
20
3.885168
10
4.024457
20
3.880744
10
4.019222
20
3.876292
10
4.014009
20
3.871815
10
4.008819
20
3.867310
10
4.003651
20
3.862779
10
3.998507
20
3.858222
10
3.993387
20
3.853639
10
3.988289
20
3.849030
10
3.983216
20
3.844395
10
3.978165
20
3.839734
10
3.973139
20
3.835048
10
3.968137
20
3.830336
10
3.963158
20
3.825598
10
3.958204
20
3.820836
10
3.953274
20
3.816048
10
3.948369
20
3.811235
10
3.943488
20
3.806397
10
3.938632
20
3.801535
10
3.933800
20
3.796647
10
3.928994
20
3.791736
10
3.924213
20
3.786799
10
3.919456
20
3.781839
10
3.914726
20
3.776854
10
3.910020
20
3.771846
10
3.905340
20
3.766813
10
3.900686
20
3.761757
10
3.896058
20
3.756677
10
3.891455
20
3.751574
10
1.286788
20
0.848625
10
1.289185
20
0.844909
0
LWPOLYLINE
8
0
100
AcDbEntity
100
AcDbPolyline
90
5
70
1
10
31.293679
20
0.556360
10
31.124180
20
0.500000
10
31.274035
20
0.500000
10
31.278631
20
0.514303
10
31.293679
20
0.556360
0
LWPOLYLINE
8
0
100
AcDbEntity
100
AcDbPolyline
90
723
70
1
10
31.182700
20
1.573365
10
31.189193
20
1.575617
10
31.195674
20
1.577901
10
31.202144
20
1.580218
10
31.208602
20
1.582568
10
31.215048
20
1.584951
10
31.221481
20
1.587367
10
31.227903
20
1.589815
10
31.234311
20
1.592296
10
31.240707
20
1.594810
10
31.247091
20
1.597356
10
31.253461
20
1.599935
10
31.259817
20
1.602546
10
31.266161
20
1.605189
10
31.272491
20
1.607865
10
31.278807
20
1.610572
10
31.285109
20
1.613312
10
31.291398
20
1.616084
10
31.297672
20
1.618888
10
31.303932
20
1.621724
10
31.310177
20
1.624592
10
31.316408
20
1.627491
10
31.322623
20
1.630422
10
31.328824
20
1.633385
10
31.335010
20
1.636379
10
31.341180
20
1.639405
10
31.347335
20
1.642462
10
31.353474
20
1.645550
10
31.359597
20
1.648670
10
31.365705
20
1.651821
10
31.371796
20
1.655002
10
31.377871
20
1.658215
10
31.383930
20
1.661459
10
31.389972
20
1.664733
10
31.395997
20
1.668038
10
31.402005
20
1.671374
10
31.407996
20
1.674740
10
31.413970
20
1.678137
10
31.419927
20
1.681564
10
31.425866
20
1.685021
10
31.431788
20
1.688509
10
31.437691
20
1.692027
10
31.443577
20
1.695574
10
31.449445
20
1.699152
10
31.455294
20
1.702759
10
31.461125
20
1.706396
10
31.466937
20
1.710063
10
31.472730
20
1.713759
10
31.478505
20
1.717485
10
31.484260
20
1.721240
10
31.489997
20
1.725025
10
31.495714
20
1.728838
10
31.501411
20
1.732681
10
31.507089
20
1.736552
10
31.512747
20
1.740453
10
31.518386
20
1.744382
10
31.524004
20
1.748339
10
31.529602
20
1.752326
10
31.535179
20
1.756341
10
31.540736
20
1.760384
10
31.546272
20
1.764455
10
31.551788
20
1.768554
10
31.557283
20
1.772682
10
31.562756
20
1.776837
10
31.568209
20
1.781020
10
31.573639
20
1.785231
10
31.579049
20
1.789470
10
31.584437
20
1.793736
10
31.589803
20
1.798029
10
31.595147
20
1.802350
10
31.600469
20
1.806698
10
31.605769
20
1.811072
10
31.611046
20
1.815474
10
31.616301
20
1.819903
10
31.621534
20
1.824358
10
31.626743
20
1.828840
10
31.631930
20
1.833348
10
31.637094
20
1.837883
10
31.642234
20
1.842443
10
31.647352
20
1.847030
10
31.652446
20
1.851643
10
31.657516
20
1.856282
10
31.662563
20
1.860947
10
31.667586
20
1.865637
10
31.672584
20
1.870353
10
31.677559
20
1.875094
10
31.682510
20
1.879860
10
31.687436
20
1.884651
10
31.692338
20
1.889468
10
31.697216
20
1.894309
10
31.702068
20
1.899176
10
31.706896
20
1.904066
10
31.711699
20
1.908982
10
31.716476
20
1.913921
10
31.721229
20
1.918885
10
31.725956
20
1.923873
10
31.730658
20
1.928885
10
31.735334
20
1.933921
10
31.739984
20
1.938981
10
31.744609
20
1.944064
10
31.749208
20
1.949171
10
31.753780
20
1.954301
10
31.758327
20
1.959455
10
31.762847
20
1.964631
10
31.767341
20
1.969830
10
31.771808
20
1.975052
10
31.776249
20
1.980297
10
31.780662
20
1.985565
10
31.785049
20
1.990854
10
31.789409
20
1.996166
10
31.793742
20
2.001501
10
31.798048
20
2.006857
10
31.802326
20
2.012235
10
31.806577
20
2.017634
10
31.810801
20
2.023056
10
31.814996
20
2.028498
10
31.819164
20
2.033962
10
31.823304
20
2.039447
10
31.827417
20
2.044954
10
31.831501
20
2.050481
10
31.835556
20
2.056028
10
31.839584
20
2.061597
10
31.843583
20
2.067185
10
31.847554
20
2.072794
10
31.851496
20
2.078423
10
31.855409
20
2.084072
10
31.859294
20
2.089741
10
31.863149
20
2.095430
10
31.866976
20
2.101138
10
31.870774
20
2.106866
10
31.874542
20
2.112613
10
31.878281
20
2.118379
10
31.881991
20
2.124164
10
31.885671
20
2.129968
10
31.889321
20
2.135790
10
31.892942
20
2.141631
10
31.896533
20
2.147490
10
31.900094
20
2.153368
10
31.903626
20
2.159263
10
31.907127
20
2.165177
10
31.910598
20
2.171108
10
31.914039
20
2.177057
10
31.917449
20
2.183023
10
31.920829
20
2.189007
10
31.924179
20
2.195007
10
31.927497
20
2.201025
10
31.930786
20
2.207059
10
31.934043
20
2.213110
10
31.937270
20
2.219178
10
31.940466
20
2.225262
10
31.943630
20
2.231362
10
31.946764
20
2.237478
10
31.949866
20
2.243610
10
31.952938
20
2.249758
10
31.955978
20
2.255921
10
31.958986
20
2.262100
10
31.961963
20
2.268294
10
31.964908
20
2.274503
10
31.967822
20
2.280727
10
31.970704
20
2.286966
10
31.973554
20
2.293219
10
31.976373
20
2.299486
10
31.979159
20
2.305768
10
31.981913
20
2.312064
10
31.984636
20
2.318374
10
31.987326
20
2.324698
10
31.989984
20
2.331036
10
31.992610
20
2.337386
10
31.995203
20
2.343751
10
31.997764
20
2.350128
10
32.000292
20
2.356518
10
32.002788
20
2.362921
10
32.005251
20
2.369337
10
32.007681
20
2.375765
10
32.010079
20
2.382205
10
32.012444
20
2.388657
10
32.014776
20
2.395122
10
32.017075
20
2.401598
10
32.019341
20
2.408086
10
32.021574
20
2.414585
10
32.023774
20
2.421096
10
32.025941
20
2.427617
10
32.028075
20
2.434150
10
32.030175
20
2.440693
10
32.032242
20
2.447247
10
32.034275
20
2.453812
10
32.036275
20
2.460387
10
32.038242
20
2.466971
10
32.040175
20
2.473566
10
32.042074
20
2.480171
10
32.043940
20
2.486785
10
32.045772
20
2.493408
10
32.047571
20
2.500041
10
32.049335
20
2.506683
10
32.051066
20
2.513333
10
32.052763
20
2.519993
10
32.054426
20
2.526661
10
32.056055
20
2.533337
10
32.057650
20
2.540022
10
32.059211
20
2.546714
10
32.060737
20
2.553415
10
32.062230
20
2.560123
10
32.063689
20
2.566838
10
32.065113
20
2.573561
10
32.066503
20
2.580291
10
32.067859
20
2.587029
10
32.069180
20
2.593773
10
32.070467
20
2.600523
10
32.071720
20
2.607280
10
32.072939
20
2.614044
10
32.074123
20
2.620813
10
32.075272
20
2.627588
10
32.076387
20
2.634369
10
32.077467
20
2.641156
10
32.078513
20
2.647948
10
32.079524
20
2.654746
10
32.080501
20
2.661548
10
32.081443
20
2.668356
10
32.082350
20
2.675168
10
32.083223
20
2.681984
10
32.084061
20
2.688805
10
32.084864
20
2.695630
10
32.085633
20
2.702459
10
32.086366
20
2.709292
10
32.087065
20
2.716129
10
32.087729
20
2.722969
10
32.088358
20
2.729812
10
32.088953
20
2.736659
10
32.089512
20
2.743508
10
32.090037
20
2.750360
10
32.090527
20
2.757215
10
32.090982
20
2.764072
10
32.091402
20
2.770931
10
32.091787
20
2.777793
10
32.092137
20
2.784656
10
32.092452
20
2.791521
10
32.092732
20
2.798387
10
32.092977
20
2.805255
10
32.093188
20
2.812124
10
32.093363
20
2.818994
10
32.093503
20
2.825865
10
32.093609
20
2.832736
10
32.093679
20
2.839608
10
32.093715
20
2.846480
10
32.093715
20
2.853352
10
32.093680
20
2.860225
10
32.093611
20
2.867096
10
32.093506
20
2.873968
10
32.093367
20
2.880839
10
32.093192
20
2.887709
10
32.092983
20
2.894578
10
32.092739
20
2.901445
10
32.092459
20
2.908312
10
32.092145
20
2.915177
10
32.091796
20
2.922040
10
32.091411
20
2.928902
10
32.090992
20
2.935761
10
32.090538
20
2.942618
10
32.090049
20
2.949473
10
32.089526
20
2.956325
10
32.088967
20
2.963175
10
32.088373
20
2.970021
10
32.087745
20
2.976865
10
32.087082
20
2.983705
10
32.086384
20
2.990541
10
32.085651
20
2.997374
10
32.084883
20
3.004204
10
32.084081
20
3.011029
10
32.083244
20
3.017850
10
32.082372
20
3.024666
10
32.081466
20
3.031479
10
32.080524
20
3.038286
10
32.079549
20
3.045089
10
32.078538
20
3.051886
10
32.077493
20
3.058678
10
32.076414
20
3.065465
10
32.075300
20
3.072247
10
32.074151
20
3.079022
10
32.072968
20
3.085792
10
32.071750
20
3.092555
10
32.070498
20
3.099312
10
32.069212
20
3.106063
10
32.067891
20
3.112807
10
32.066536
20
3.119545
10
32.065147
20
3.126275
10
32.063724
20
3.132998
10
32.062266
20
3.139714
10
32.060774
20
3.146422
10
32.059248
20
3.153123
10
32.057688
20
3.159816
10
32.056094
20
3.166500
10
32.054466
20
3.173177
10
32.052804
20
3.179845
10
32.051108
20
3.186505
10
32.049378
20
3.193155
10
32.047614
20
3.199798
10
32.045816
20
3.206430
10
32.043985
20
3.213054
10
32.042120
20
3.219668
10
32.040222
20
3.226273
10
32.038289
20
3.232868
10
32.036324
20
3.239453
10
32.034324
20
3.246028
10
32.032292
20
3.252593
10
32.030225
20
3.259147
10
32.028126
20
3.265691
10
32.025993
20
3.272224
10
32.023827
20
3.278746
10
32.021628
20
3.285256
10
32.019396
20
3.291756
10
32.017131
20
3.298244
10
32.014832
20
3.304721
10
32.012501
20
3.311185
10
32.010137
20
3.317638
10
32.007740
20
3.324079
10
32.005311
20
3.330507
10
32.002848
20
3.336923
10
32.000353
20
3.343326
10
31.997826
20
3.349717
10
31.995266
20
3.356094
10
31.992673
20
3.362459
10
31.990048
20
3.368810
10
31.987391
20
3.375148
10
31.984702
20
3.381472
10
31.981980
20
3.387782
10
31.979227
20
3.394078
10
31.976441
20
3.400361
10
31.973623
20
3.406629
10
31.970774
20
3.412882
10
31.967893
20
3.419121
10
31.964980
20
3.425346
10
31.962035
20
3.431555
10
31.959059
20
3.437749
10
31.956051
20
3.443928
10
31.953012
20
3.450092
10
31.949942
20
3.456240
10
31.946840
20
3.462373
10
31.943707
20
3.468489
10
31.940543
20
3.474590
10
31.937348
20
3.480674
10
31.934122
20
3.486742
10
31.930865
20
3.492794
10
31.927578
20
3.498828
10
31.924260
20
3.504846
10
31.920911
20
3.510847
10
31.917532
20
3.516831
10
31.914122
20
3.522798
10
31.910682
20
3.528747
10
31.907212
20
3.534679
10
31.903711
20
3.540593
10
31.900181
20
3.546489
10
31.896620
20
3.552367
10
31.893030
20
3.558226
10
31.889410
20
3.564068
10
31.885760
20
3.569891
10
31.882081
20
3.575695
10
31.878372
20
3.581480
10
31.874633
20
3.587247
10
31.870866
20
3.592994
10
31.867069
20
3.598722
10
31.863243
20
3.604431
10
31.859388
20
3.610120
10
31.855504
20
3.615790
10
31.851592
20
3.621439
10
31.847650
20
3.627069
10
31.843680
20
3.632678
10
31.839682
20
3.638268
10
31.835655
20
3.643836
10
31.831600
20
3.649385
10
31.827516
20
3.654912
10
31.823405
20
3.660419
10
31.819265
20
3.665904
10
31.815098
20
3.671369
10
31.810903
20
3.676812
10
31.806680
20
3.682234
10
31.802430
20
3.687634
10
31.798152
20
3.693013
10
31.793847
20
3.698369
10
31.789515
20
3.703704
10
31.785156
20
3.709017
10
31.780770
20
3.714307
10
31.776356
20
3.719575
10
31.771916
20
3.724820
10
31.767450
20
3.730043
10
31.762957
20
3.735243
10
31.758437
20
3.740420
10
31.753891
20
3.745574
10
31.749319
20
3.750704
10
31.744721
20
3.755812
10
31.740097
20
3.760895
10
31.735447
20
3.765956
10
31.730772
20
3.770992
10
31.726071
20
3.776005
10
31.721344
20
3.780994
10
31.716592
20
3.785958
10
31.711815
20
3.790898
10
31.707013
20
3.795814
10
31.702186
20
3.800706
10
31.697334
20
3.805572
10
31.692457
20
3.810414
10
31.687556
20
3.815232
10
31.682630
20
3.820024
10
31.677680
20
3.824791
10
31.672706
20
3.829532
10
31.667708
20
3.834249
10
31.662685
20
3.838939
10
31.657639
20
3.843605
10
31.652569
20
3.848244
10
31.647476
20
3.852858
10
31.642359
20
3.857445
10
31.637219
20
3.862007
10
31.632056
20
3.866542
10
31.626870
20
3.871051
10
31.621661
20
3.875533
10
31.616429
20
3.879989
10
31.611174
20
3.884418
10
31.605897
20
3.888821
10
31.600598
20
3.893196
10
31.595277
20
3.897545
10
31.589933
20
3.901866
10
31.584568
20
3.906160
10
31.579180
20
3.910427
10
31.573771
20
3.914666
10
31.568341
20
3.918877
10
31.562889
20
3.923061
10
31.557416
20
3.927217
10
31.551922
20
3.931345
10
31.546407
20
3.935446
10
31.540871
20
3.939518
10
31.535315
20
3.943561
10
31.529738
20
3.947577
10
31.524140
20
3.951564
10
31.518523
20
3.955522
10
31.512885
20
3.959452
10
31.507227
20
3.963353
10
31.501550
20
3.967225
10
31.495853
20
3.971069
10
31.490136
20
3.974883
10
31.484400
20
3.978668
10
31.478645
20
3.982424
10
31.472871
20
3.986150
10
31.467078
20
3.989847
10
31.461266
20
3.993515
10
31.455436
20
3.997153
10
31.449587
20
4.000761
10
31.443720
20
4.004339
10
31.437835
20
4.007887
10
31.431932
20
4.011406
10
31.426011
20
4.014894
10
31.420072
20
4.018352
10
31.414116
20
4.021780
10
31.408142
20
4.025178
10
31.402151
20
4.028545
10
31.396143
20
4.031881
10
31.390118
20
4.035187
10
31.384077
20
4.038462
10
31.378019
20
4.041706
10
31.371944
20
4.044920
10
31.365853
20
4.048102
10
31.359746
20
4.051254
10
31.353623
20
4.054374
10
31.347484
20
4.057463
10
31.341330
20
4.060521
10
31.335160
20
4.063547
10
31.328975
20
4.066542
10
31.322775
20
4.069506
10
31.316559
20
4.072438
10
31.310329
20
4.075338
10
31.304084
20
4.078206
10
31.297825
20
4.081043
10
31.291551
20
4.083848
10
31.285263
20
4.086621
10
31.278961
20
4.089361
10
31.272645
20
4.092070
10
31.266315
20
4.094746
10
31.259972
20
4.097390
10
31.253616
20
4.100002
10
31.247246
20
4.102582
10
31.240863
20
4.105129
10
31.234467
20
4.107643
10
31.228059
20
4.110125
10
31.221638
20
4.112574
10
31.215205
20
4.114991
10
31.208759
20
4.117374
10
31.202302
20
4.119725
10
31.195832
20
4.122043
10
31.189351
20
4.124328
10
31.182858
20
4.126580
10
31.176354
20
4.128799
10
31.169839
20
4.130985
10
31.163312
20
4.133137
10
31.156775
20
4.135257
10
31.150227
20
4.137343
10
31.143669
20
4.139395
10
31.137100
20
4.141415
10
31.130521
20
4.143400
10
31.123932
20
4.145353
10
31.117333
20
4.147271
10
31.110724
20
4.149156
10
31.104106
20
4.151008
10
31.097479
20
4.152825
10
31.090842
20
4.154609
10
31.084196
20
4.156360
10
31.077542
20
4.158076
10
31.070879
20
4.159758
10
31.064207
20
4.161407
10
31.057527
20
4.163021
10
31.050839
20
4.164602
10
31.044143
20
4.166148
10
31.037440
20
4.167660
10
31.030728
20
4.169138
10
31.024010
20
4.170582
10
31.017284
20
4.171992
10
31.010550
20
4.173367
10
31.003810
20
4.174708
10
30.997064
20
4.176015
10
30.990310
20
4.177288
10
30.983550
20
4.178526
10
30.976784
20
4.179730
10
30.970012
20
4.180899
10
30.963235
20
4.182033
10
30.956451
20
4.183134
10
30.949662
20
4.184199
10
30.942868
20
4.185230
10
30.936068
20
4.186227
10
30.929263
20
4.187189
10
30.922454
20
4.188116
10
30.915640
20
4.189008
10
30.908822
20
4.189866
10
30.901999
20
4.190689
10
30.895172
20
4.191478
10
30.888341
20
4.192231
10
30.881507
20
4.192950
10
30.874669
20
4.193634
10
30.867827
20
4.194283
10
30.860983
20
4.194897
10
30.854135
20
4.195477
10
30.847284
20
4.196022
10
30.840431
20
4.196531
10
30.833575
20
4.197006
10
30.826717
20
4.197446
10
30.819857
20
4.197851
10
30.812995
20
4.198221
10
30.806131
20
4.198557
10
30.799265
20
4.198857
10
30.792398
20
4.199122
10
30.785530
20
4.199352
10
30.778660
20
4.199548
10
30.771790
20
4.199708
10
30.764919
20
4.199834
10
30.758047
20
4.199924
10
30.751175
20
4.199979
10
30.744303
20
4.200000
10
30.737431
20
4.199985
10
30.730559
20
4.199936
10
30.723687
20
4.199851
10
30.716816
20
4.199732
10
30.709946
20
4.199577
10
30.703076
20
4.199388
10
30.696207
20
4.199164
10
30.689340
20
4.198904
10
30.682474
20
4.198610
10
30.675610
20
4.198281
10
30.668747
20
4.197917
10
30.661887
20
4.197518
10
30.655028
20
4.197083
10
30.648172
20
4.196615
10
30.641318
20
4.196111
10
30.634467
20
4.195572
10
30.627619
20
4.194998
10
30.620774
20
4.194390
10
30.613932
20
4.193747
10
30.607093
20
4.193069
10
30.600258
20
4.192356
10
30.593427
20
4.191608
10
30.586599
20
4.190826
10
30.579776
20
4.190008
10
30.572957
20
4.189157
10
30.566142
20
4.188270
10
30.559332
20
4.187349
10
30.552526
20
4.186393
10
30.545726
20
4.185402
10
30.538931
20
4.184377
10
30.532141
20
4.183317
10
30.525356
20
4.182223
10
30.518577
20
4.181094
10
30.511804
20
4.179931
10
30.505037
20
4.178733
10
30.498276
20
4.177501
10
30.491522
20
4.176234
10
30.484774
20
4.174933
10
30.478033
20
4.173598
10
30.471299
20
4.172228
10
30.464571
20
4.170824
10
30.457851
20
4.169386
10
30.451139
20
4.167914
10
30.444434
20
4.166407
10
30.437736
20
4.164867
10
30.431047
20
4.163292
10
30.424366
20
4.161683
10
30.417693
20
4.160041
10
30.411028
20
4.158364
10
30.404372
20
4.156654
10
30.397725
20
4.154909
10
30.391087
20
4.153131
10
30.384458
20
4.151319
10
30.377838
20
4.149473
10
30.371228
20
4.147594
10
30.364627
20
4.145681
10
30.358037
20
4.143735
10
30.351456
20
4.141754
10
30.344885
20
4.139741
10
30.338325
20
4.137694
10
30.331775
20
4.135614
10
30.325236
20
4.133500
10
30.318708
20
4.131353
10
30.312191
20
4.129173
10
30.305685
20
4.126960
10
30.299190
20
4.124713
10
30.292707
20
4.122434
10
30.286235
20
4.120122
10
30.279776
20
4.117776
10
30.273328
20
4.115398
10
30.266893
20
4.112987
10
30.260470
20
4.110544
10
30.254059
20
4.108067
10
30.247661
20
4.105558
10
30.241276
20
4.103017
10
30.234904
20
4.100443
10
30.228546
20
4.097837
10
30.222200
20
4.095198
10
30.215868
20
4.092527
10
30.209550
20
4.089824
10
30.203246
20
4.087089
10
30.196955
20
4.084321
10
30.190679
20
4.081522
10
30.184417
20
4.078691
10
30.178170
20
4.075828
10
30.171937
20
4.072933
10
30.165719
20
4.070006
10
30.159516
20
4.067048
10
30.153328
20
4.064059
10
30.147156
20
4.061038
10
30.140999
20
4.057985
10
30.134857
20
4.054901
10
30.128732
20
4.051786
10
30.122622
20
4.048640
10
30.116528
20
4.045463
10
30.110451
20
4.042255
10
30.104390
20
4.039016
10
30.098345
20
4.035746
10
30.092318
20
4.032445
10
30.086307
20
4.029114
10
30.080313
20
4.025752
10
30.074337
20
4.022360
10
30.068377
20
4.018937
10
30.062436
20
4.015484
10
30.056512
20
4.012001
10
30.050605
20
4.008488
10
30.044717
20
4.004944
10
30.038847
20
4.001371
10
30.032995
20
3.997768
10
30.027161
20
3.994135
10
30.021347
20
3.990473
10
30.015550
20
3.986781
10
30.009773
20
3.983059
10
30.004015
20
3.979308
10
29.998275
20
3.975528
10
29.992556
20
3.971719
10
29.986855
20
3.967881
10
29.981174
20
3.964013
10
29.975513
20
3.960117
10
29.969872
20
3.956192
10
29.964251
20
3.952239
10
29.958650
20
3.948256
10
29.953070
20
3.944246
10
29.947510
20
3.940207
10
29.941971
20
3.936140
10
29.936452
20
3.932044
10
29.930954
20
3.927921
10
29.925478
20
3.923770
10
29.920022
20
3.919590
10
29.914588
20
3.915383
10
29.909176
20
3.911149
10
29.903785
20
3.906887
10
29.898415
20
3.902598
10
29.893068
20
3.898281
10
29.887743
20
3.893937
10
29.882440
20
3.889566
10
29.877159
20
3.885168
10
29.871901
20
3.880744
10
29.866665
20
3.876292
10
29.861452
20
3.871815
10
29.856262
20
3.867310
10
29.851095
20
3.862779
10
29.845951
20
3.858222
10
29.840830
20
3.853639
10
29.835733
20
3.849030
10
29.830659
20
3.844395
10
29.825609
20
3.839734
10
29.820583
20
3.835048
10
29.815580
20
3.830336
10
29.810602
20
3.825598
10
29.805648
20
3.820836
10
29.800718
20
3.816048
10
29.795812
20
3.811235
10
29.790931
20
3.806397
10
29.786075
20
3.801535
10
29.781244
20
3.796647
10
29.776437
20
3.791736
10
29.771656
20
3.786799
10
29.766900
20
3.781839
10
29.762169
20
3.776854
10
29.757463
20
3.771846
10
29.752784
20
3.766813
10
29.748129
20
3.761757
10
29.743501
20
3.756677
10
29.738899
20
3.751574
10
26.821428
20
0.500000
10
27.954875
20
0.500000
10
31.169680
20
1.568962
10
31.176195
20
1.571147
10
31.182700
20
1.573365
0
LWPOLYLINE
8
0
100
AcDbEntity
100
AcDbPolyline
90
723
70
1
10
22.566885
20
1.573365
10
22.573378
20
1.575617
10
22.579860
20
1.577901
10
22.586330
20
1.580218
10
22.592788
20
1.582568
10
22.599233
20
1.584951
10
22.605667
20
1.587367
10
22.612088
20
1.589815
10
22.618497
20
1.592296
10
22.624893
20
1.594810
10
22.631276
20
1.597356
10
22.637646
20
1.599935
10
22.644003
20
1.602546
10
22.650346
20
1.605189
10
22.656676
20
1.607865
10
22.662993
20
1.610572
10
22.669295
20
1.613312
10
22.675583
20
1.616084
10
22.681857
20
1.618888
10
22.688117
20
1.621724
10
22.694363
20
1.624592
10
22.700593
20
1.627491
10
22.706809
20
1.630422
10
22.713010
20
1.633385
10
22.719195
20
1.636379
10
22.725366
20
1.639405
10
22.731520
20
1.642462
10
22.737659
20
1.645550
10
22.743783
20
1.648670
10
22.749890
20
1.651821
10
22.755982
20
1.655002
10
22.762057
20
1.658215
10
22.768115
20
1.661459
10
22.774157
20
1.664733
10
22.780182
20
1.668038
10
22.786191
20
1.671374
10
22.792182
20
1.674740
10
22.798156
20
1.678137
10
22.804113
20
1.681564
10
22.810052
20
1.685021
10
22.815973
20
1.688509
10
22.821877
20
1.692027
10
22.827763
20
1.695574
10
22.833630
20
1.699152
10
22.839479
20
1.702759
10
22.845310
20
1.706396
10
22.851122
20
1.710063
10
22.856916
20
1.713759
10
22.862690
20
1.717485
10
22.868446
20
1.721240
10
22.874182
20
1.725025
10
22.879899
20
1.728838
10
22.885597
20
1.732681
10
22.891275
20
1.736552
10
22.896933
20
1.740453
10
22.902571
20
1.744382
10
22.908189
20
1.748339
10
22.913787
20
1.752326
10
22.919365
20
1.756341
10
22.924922
20
1.760384
10
22.930458
20
1.764455
10
22.935974
20
1.768554
10
22.941468
20
1.772682
10
22.946942
20
1.776837
10
22.952394
20
1.781020
10
22.957825
20
1.785231
10
22.963234
20
1.789470
10
22.968622
20
1.793736
10
22.973988
20
1.798029
10
22.979332
20
1.802350
10
22.984654
20
1.806698
10
22.989954
20
1.811072
10
22.995232
20
1.815474
10
23.000487
20
1.819903
10
23.005719
20
1.824358
10
23.010929
20
1.828840
10
23.016116
20
1.833348
10
23.021279
20
1.837883
10
23.026420
20
1.842443
10
23.031537
20
1.847030
10
23.036631
20
1.851643
10
23.041702
20
1.856282
10
23.046748
20
1.860947
10
23.051771
20
1.865637
10
23.056770
20
1.870353
10
23.061745
20
1.875094
10
23.066696
20
1.879860
10
23.071622
20
1.884651
10
23.076524
20
1.889468
10
23.081401
20
1.894309
10
23.086254
20
1.899176
10
23.091081
20
1.904066
10
23.095884
20
1.908982
10
23.100662
20
1.913921
10
23.105414
20
1.918885
10
23.110142
20
1.923873
10
23.114843
20
1.928885
10
23.119519
20
1.933921
10
23.124170
20
1.938981
10
23.128795
20
1.944064
10
23.133393
20
1.949171
10
23.137966
20
1.954301
10
23.142512
20
1.959455
10
23.147032
20
1.964631
10
23.151526
20
1.969830
10
23.155994
20
1.975052
10
23.160434
20
1.980297
10
23.164848
20
1.985565
10
23.169235
20
1.990854
10
23.173595
20
1.996166
10
23.177928
20
2.001501
10
23.182233
20
2.006857
10
23.186512
20
2.012235
10
23.190763
20
2.017634
10
23.194986
20
2.023056
10
23.199182
20
2.028498
10
23.203350
20
2.033962
10
23.207490
20
2.039447
10
23.211602
20
2.044954
10
23.215686
20
2.050481
10
23.219742
20
2.056028
10
23.223770
20
2.061597
10
23.227769
20
2.067185
10
23.231739
20
2.072794
10
23.235681
20
2.078423
10
23.239595
20
2.084072
10
23.243479
20
2.089741
10
23.247335
20
2.095430
10
23.251162
20
2.101138
10
23.254959
20
2.106866
10
23.258727
20
2.112613
10
23.262467
20
2.118379
10
23.266176
20
2.124164
10
23.269856
20
2.129968
10
23.273507
20
2.135790
10
23.277128
20
2.141631
10
23.280719
20
2.147490
10
23.284280
20
2.153368
10
23.287811
20
2.159263
10
23.291312
20
2.165177
10
23.294783
20
2.171108
10
23.298224
20
2.177057
10
23.301634
20
2.183023
10
23.305015
20
2.189007
10
23.308364
20
2.195007
10
23.311683
20
2.201025
10
23.314971
20
2.207059
10
23.318229
20
2.213110
10
23.321455
20
2.219178
10
23.324651
20
2.225262
10
23.327816
20
2.231362
10
23.330950
20
2.237478
10
23.334052
20
2.243610
10
23.337123
20
2.249758
10
23.340163
20
2.255921
10
23.343172
20
2.262100
10
23.346148
20
2.268294
10
23.349094
20
2.274503
10
23.352008
20
2.280727
10
23.354890
20
2.286966
10
23.357740
20
2.293219
10
23.360558
20
2.299486
10
23.363345
20
2.305768
10
23.366099
20
2.312064
10
23.368821
20
2.318374
10
23.371512
20
2.324698
10
23.374169
20
2.331036
10
23.376795
20
2.337386
10
23.379388
20
2.343751
10
23.381949
20
2.350128
10
23.384478
20
2.356518
10
23.386973
20
2.362921
10
23.389437
20
2.369337
10
23.391867
20
2.375765
10
23.394265
20
2.382205
10
23.396630
20
2.388657
10
23.398962
20
2.395122
10
23.401261
20
2.401598
10
23.403527
20
2.408086
10
23.405760
20
2.414585
10
23.407960
20
2.421096
10
23.410127
20
2.427617
10
23.412260
20
2.434150
10
23.414360
20
2.440693
10
23.416427
20
2.447247
10
23.418461
20
2.453812
10
23.420461
20
2.460387
10
23.422427
20
2.466971
10
23.424360
20
2.473566
10
23.426260
20
2.480171
10
23.428126
20
2.486785
10
23.429958
20
2.493408
10
23.431756
20
2.500041
10
23.433521
20
2.506683
10
23.435251
20
2.513333
10
23.436948
20
2.519993
10
23.438611
20
2.526661
10
23.440240
20
2.533337
10
23.441835
20
2.540022
10
23.443396
20
2.546714
10
23.444923
20
2.553415
10
23.446416
20
2.560123
10
23.447874
20
2.566838
10
23.449298
20
2.573561
10
23.450689
20
2.580291
10
23.452044
20
2.587029
10
23.453366
20
2.593773
10
23.454653
20
2.600523
10
23.455906
20
2.607280
10
23.457124
20
2.614044
10
23.458308
20
2.620813
10
23.459458
20
2.627588
10
23.460572
20
2.634369
10
23.461653
20
2.641156
10
23.462699
20
2.647948
10
23.463710
20
2.654746
10
23.464687
20
2.661548
10
23.465629
20
2.668356
10
23.466536
20
2.675168
10
23.467409
20
2.681984
10
23.468246
20
2.688805
10
23.469050
20
2.695630
10
23.469818
20
2.702459
10
23.470552
20
2.709292
10
23.471251
20
2.716129
10
23.471915
20
2.722969
10
23.472544
20
2.729812
10
23.473138
20
2.736659
10
23.473698
20
2.743508
10
23.474223
20
2.750360
10
23.474712
20
2.757215
10
23.475167
20
2.764072
10
23.475587
20
2.770931
10
23.475972
20
2.777793
10
23.476322
20
2.784656
10
23.476637
20
2.791521
10
23.476918
20
2.798387
10
23.477163
20
2.805255
10
23.477373
20
2.812124
10
23.477549
20
2.818994
10
23.477689
20
2.825865
10
23.477794
20
2.832736
10
23.477865
20
2.839608
10
23.477900
20
2.846480
10
23.477900
20
2.853352
10
23.477866
20
2.860225
10
23.477796
20
2.867096
10
23.477692
20
2.873968
10
23.477552
20
2.880839
10
23.477378
20
2.887709
10
23.477168
20
2.894578
10
23.476924
20
2.901445
10
23.476645
20
2.908312
10
23.476330
20
2.915177
10
23.475981
20
2.922040
10
23.475597
20
2.928902
10
23.475178
20
2.935761
10
23.474724
20
2.942618
10
23.474235
20
2.949473
10
23.473711
20
2.956325
10
23.473152
20
2.963175
10
23.472559
20
2.970021
10
23.471930
20
2.976865
10
23.471267
20
2.983705
10
23.470569
20
2.990541
10
23.469836
20
2.997374
10
23.469069
20
3.004204
10
23.468266
20
3.011029
10
23.467429
20
3.017850
10
23.466558
20
3.024666
10
23.465651
20
3.031479
10
23.464710
20
3.038286
10
23.463734
20
3.045089
10
23.462724
20
3.051886
10
23.461679
20
3.058678
10
23.460599
20
3.065465
10
23.459485
20
3.072247
10
23.458336
20
3.079022
10
23.457153
20
3.085792
10
23.455936
20
3.092555
10
23.454684
20
3.099312
10
23.453398
20
3.106063
10
23.452077
20
3.112807
10
23.450722
20
3.119545
10
23.449333
20
3.126275
10
23.447909
20
3.132998
10
23.446452
20
3.139714
10
23.444960
20
3.146422
10
23.443434
20
3.153123
10
23.441874
20
3.159816
10
23.440279
20
3.166500
10
23.438651
20
3.173177
10
23.436989
20
3.179845
10
23.435293
20
3.186505
10
23.433563
20
3.193155
10
23.431799
20
3.199798
10
23.430002
20
3.206430
10
23.428171
20
3.213054
10
23.426306
20
3.219668
10
23.424407
20
3.226273
10
23.422475
20
3.232868
10
23.420509
20
3.239453
10
23.418510
20
3.246028
10
23.416477
20
3.252593
10
23.414411
20
3.259147
10
23.412312
20
3.265691
10
23.410179
20
3.272224
10
23.408013
20
3.278746
10
23.405814
20
3.285256
10
23.403582
20
3.291756
10
23.401316
20
3.298244
10
23.399018
20
3.304721
10
23.396687
20
3.311185
10
23.394323
20
3.317638
10
23.391926
20
3.324079
10
23.389496
20
3.330507
10
23.387034
20
3.336923
10
23.384539
20
3.343326
10
23.382011
20
3.349717
10
23.379451
20
3.356094
10
23.376859
20
3.362459
10
23.374234
20
3.368810
10
23.371577
20
3.375148
10
23.368887
20
3.381472
10
23.366166
20
3.387782
10
23.363412
20
3.394078
10
23.360626
20
3.400361
10
23.357809
20
3.406629
10
23.354959
20
3.412882
10
23.352078
20
3.419121
10
23.349165
20
3.425346
10
23.346221
20
3.431555
10
23.343244
20
3.437749
10
23.340237
20
3.443928
10
23.337198
20
3.450092
10
23.334127
20
3.456240
10
23.331025
20
3.462373
10
23.327893
20
3.468489
10
23.324729
20
3.474590
10
23.321534
20
3.480674
10
23.318308
20
3.486742
10
23.315051
20
3.492794
10
23.311763
20
3.498828
10
23.308445
20
3.504846
10
23.305096
20
3.510847
10
23.301717
20
3.516831
10
23.298307
20
3.522798
10
23.294867
20
3.528747
10
23.291397
20
3.534679
10
23.287897
20
3.540593
10
23.284366
20
3.546489
10
23.280806
20
3.552367
10
23.277215
20
3.558226
10
23.273595
20
3.564068
10
23.269945
20
3.569891
10
23.266266
20
3.575695
10
23.262557
20
3.581480
10
23.258819
20
3.587247
10
23.255051
20
3.592994
10
23.251254
20
3.598722
10
23.247429
20
3.604431
10
23.243574
20
3.610120
10
23.239690
20
3.615790
10
23.235777
20
3.621439
10
23.231836
20
3.627069
10
23.227866
20
3.632678
10
23.223867
20
3.638268
10
23.219840
20
3.643836
10
23.215785
20
3.649385
10
23.211702
20
3.654912
10
23.207590
20
3.660419
10
23.203451
20
3.665904
10
23.199284
20
3.671369
10
23.195089
20
3.676812
10
23.190866
20
3.682234
10
23.186616
20
3.687634
10
23.182338
20
3.693013
10
23.178033
20
3.698369
10
23.173701
20
3.703704
10
23.169341
20
3.709017
10
23.164955
20
3.714307
10
23.160542
20
3.719575
10
23.156102
20
3.724820
10
23.151635
20
3.730043
10
23.147142
20
3.735243
10
23.142623
20
3.740420
10
23.138077
20
3.745574
10
23.133505
20
3.750704
10
23.128907
20
3.755812
10
23.124283
20
3.760895
10
23.119633
20
3.765956
10
23.114957
20
3.770992
10
23.110256
20
3.776005
10
23.105530
20
3.780994
10
23.100778
20
3.785958
10
23.096001
20
3.790898
10
23.091199
20
3.795814
10
23.086371
20
3.800706
10
23.081519
20
3.805572
10
23.076643
20
3.810414
10
23.071742
20
3.815232
10
23.066816
20
3.820024
10
23.061866
20
3.824791
10
23.056891
20
3.829532
10
23.051893
20
3.834249
10
23.046871
20
3.838939
10
23.041825
20
3.843605
10
23.036755
20
3.848244
10
23.031662
20
3.852858
10
23.026545
20
3.857445
10
23.021405
20
3.862007
10
23.016242
20
3.866542
10
23.011055
20
3.871051
10
23.005846
20
3.875533
10
23.000614
20
3.879989
10
22.995360
20
3.884418
10
22.990083
20
3.888821
10
22.984784
20
3.893196
10
22.979462
20
3.897545
10
22.974119
20
3.901866
10
22.968753
20
3.906160
10
22.963366
20
3.910427
10
22.957957
20
3.914666
10
22.952527
20
3.918877
10
22.947075
20
3.923061
10
22.941602
20
3.927217
10
22.936108
20
3.931345
10
22.930593
20
3.935446
10
22.925057
20
3.939518
10
22.919500
20
3.943561
10
22.913923
20
3.947577
10
22.908326
20
3.951564
10
22.902708
20
3.955522
10
22.897070
20
3.959452
10
22.891413
20
3.963353
10
22.885735
20
3.967225
10
22.880038
20
3.971069
10
22.874322
20
3.974883
10
22.868586
20
3.978668
10
22.862831
20
3.982424
10
22.857057
20
3.986150
10
22.851264
20
3.989847
10
22.845452
20
3.993515
10
22.839622
20
3.997153
10
22.833773
20
4.000761
10
22.827906
20
4.004339
10
22.822020
20
4.007887
10
22.816117
20
4.011406
10
22.810196
20
4.014894
10
22.804257
20
4.018352
10
22.798301
20
4.021780
10
22.792328
20
4.025178
10
22.786337
20
4.028545
10
22.780329
20
4.031881
10
22.774304
20
4.035187
10
22.768262
20
4.038462
10
22.762204
20
4.041706
10
22.756130
20
4.044920
10
22.750039
20
4.048102
10
22.743932
20
4.051254
10
22.737809
20
4.054374
10
22.731670
20
4.057463
10
22.725516
20
4.060521
10
22.719346
20
4.063547
10
22.713160
20
4.066542
10
22.706960
20
4.069506
10
22.700745
20
4.072438
10
22.694514
20
4.075338
10
22.688270
20
4.078206
10
22.682010
20
4.081043
10
22.675736
20
4.083848
10
22.669448
20
4.086621
10
22.663146
20
4.089361
10
22.656830
20
4.092070
10
22.650501
20
4.094746
10
22.644158
20
4.097390
10
22.637801
20
4.100002
10
22.631431
20
4.102582
10
22.625049
20
4.105129
10
22.618653
20
4.107643
10
22.612244
20
4.110125
10
22.605824
20
4.112574
10
22.599390
20
4.114991
10
22.592945
20
4.117374
10
22.586487
20
4.119725
10
22.580018
20
4.122043
10
22.573536
20
4.124328
10
22.567044
20
4.126580
10
22.560540
20
4.128799
10
22.554024
20
4.130985
10
22.547498
20
4.133137
10
22.540961
20
4.135257
10
22.534413
20
4.137343
10
22.527854
20
4.139395
10
22.521285
20
4.141415
10
22.514706
20
4.143400
10
22.508117
20
4.145353
10
22.501518
20
4.147271
10
22.494910
20
4.149156
10
22.488292
20
4.151008
10
22.481664
20
4.152825
10
22.475028
20
4.154609
10
22.468382
20
4.156360
10
22.461727
20
4.158076
10
22.455064
20
4.159758
10
22.448393
20
4.161407
10
22.441713
20
4.163021
10
22.435025
20
4.164602
10
22.428329
20
4.166148
10
22.421625
20
4.167660
10
22.414914
20
4.169138
10
22.408195
20
4.170582
10
22.401469
20
4.171992
10
22.394736
20
4.173367
10
22.387996
20
4.174708
10
22.381249
20
4.176015
10
22.374496
20
4.177288
10
22.367736
20
4.178526
10
22.360970
20
4.179730
10
22.354198
20
4.180899
10
22.347420
20
4.182033
10
22.340637
20
4.183134
10
22.333847
20
4.184199
10
22.327053
20
4.185230
10
22.320253
20
4.186227
10
22.313449
20
4.187189
10
22.306640
20
4.188116
10
22.299826
20
4.189008
10
22.293007
20
4.189866
10
22.286184
20
4.190689
10
22.279358
20
4.191478
10
22.272527
20
4.192231
10
22.265692
20
4.192950
10
22.258854
20
4.193634
10
22.252013
20
4.194283
10
22.245168
20
4.194897
10
22.238320
20
4.195477
10
22.231470
20
4.196022
10
22.224617
20
4.196531
10
22.217761
20
4.197006
10
22.210903
20
4.197446
10
22.204042
20
4.197851
10
22.197180
20
4.198221
10
22.190316
20
4.198557
10
22.183451
20
4.198857
10
22.176583
20
4.199122
10
22.169715
20
4.199352
10
22.162846
20
4.199548
10
22.155975
20
4.199708
10
22.149104
20
4.199834
10
22.142233
20
4.199924
10
22.135361
20
4.199979
10
22.128489
20
4.200000
10
22.121616
20
4.199985
10
22.114744
20
4.199936
10
22.107873
20
4.199851
10
22.101002
20
4.199732
10
22.094131
20
4.199577
10
22.087262
20
4.199388
10
22.080393
20
4.199164
10
22.073526
20
4.198904
10
22.066660
20
4.198610
10
22.059796
20
4.198281
10
22.052933
20
4.197917
10
22.046072
20
4.197518
10
22.039214
20
4.197083
10
22.032358
20
4.196615
10
22.025504
20
4.196111
10
22.018653
20
4.195572
10
22.011805
20
4.194998
10
22.004960
20
4.194390
10
21.998118
20
4.193747
10
21.991279
20
4.193069
10
21.984444
20
4.192356
10
21.977612
20
4.191608
10
21.970785
20
4.190826
10
21.963961
20
4.190008
10
21.957142
20
4.189157
10
21.950327
20
4.188270
10
21.943517
20
4.187349
10
21.936712
20
4.186393
10
21.929911
20
4.185402
10
21.923116
20
4.184377
10
21.916326
20
4.183317
10
21.909542
20
4.182223
10
21.902763
20
4.181094
10
21.895990
20
4.179931
10
21.889223
20
4.178733
10
21.882462
20
4.177501
10
21.875708
20
4.176234
10
21.868960
20
4.174933
10
21.862218
20
4.173598
10
21.855484
20
4.172228
10
21.848757
20
4.170824
10
21.842037
20
4.169386
10
21.835324
20
4.167914
10
21.828619
20
4.166407
10
21.821922
20
4.164867
10
21.815232
20
4.163292
10
21.808551
20
4.161683
10
21.801878
20
4.160041
10
21.795214
20
4.158364
10
21.788558
20
4.156654
10
21.781911
20
4.154909
10
21.775272
20
4.153131
10
21.768643
20
4.151319
10
21.762024
20
4.149473
10
21.755413
20
4.147594
10
21.748813
20
4.145681
10
21.742222
20
4.143735
10
21.735641
20
4.141754
10
21.729071
20
4.139741
10
21.722511
20
4.137694
10
21.715961
20
4.135614
10
21.709422
20
4.133500
10
21.702893
20
4.131353
10
21.696376
20
4.129173
10
21.689870
20
4.126960
10
21.683376
20
4.124713
10
21.676892
20
4.122434
10
21.670421
20
4.120122
10
21.663961
20
4.117776
10
21.657514
20
4.115398
10
21.651078
20
4.112987
10
21.644655
20
4.110544
10
21.638245
20
4.108067
10
21.631847
20
4.105558
10
21.625462
20
4.103017
10
21.619090
20
4.100443
10
21.612731
20
4.097837
10
21.606386
20
4.095198
10
21.600054
20
4.092527
10
21.593735
20
4.089824
10
21.587431
20
4.087089
10
21.581141
20
4.084321
10
21.574864
20
4.081522
10
21.568603
20
4.078691
10
21.562355
20
4.075828
10
21.556122
20
4.072933
10
21.549904
20
4.070006
10
21.543702
20
4.067048
10
21.537514
20
4.064059
10
21.531341
20
4.061038
10
21.525184
20
4.057985
10
21.519043
20
4.054901
10
21.512917
20
4.051786
10
21.506807
20
4.048640
10
21.500714
20
4.045463
10
21.494636
20
4.042255
10
21.488575
20
4.039016
10
21.482531
20
4.035746
10
21.476503
20
4.032445
10
21.470492
20
4.029114
10
21.464499
20
4.025752
10
21.458522
20
4.022360
10
21.452563
20
4.018937
10
21.446621
20
4.015484
10
21.440697
20
4.012001
10
21.434791
20
4.008488
10
21.428903
20
4.004944
10
21.423032
20
4.001371
10
21.417180
20
3.997768
10
21.411347
20
3.994135
10
21.405532
20
3.990473
10
21.399736
20
3.986781
10
21.393958
20
3.983059
10
21.388200
20
3.979308
10
21.382461
20
3.975528
10
21.376741
20
3.971719
10
21.371041
20
3.967881
10
21.365360
20
3.964013
10
21.359699
20
3.960117
10
21.354058
20
3.956192
10
21.348437
20
3.952239
10
21.342836
20
3.948256
10
21.337256
20
3.944246
10
21.331696
20
3.940207
10
21.326156
20
3.936140
10
21.320638
20
3.932044
10
21.315140
20
3.927921
10
21.309663
20
3.923770
10
21.304208
20
3.919590
10
21.298774
20
3.915383
10
21.293361
20
3.911149
10
21.287970
20
3.906887
10
21.282601
20
3.902598
10
21.277254
20
3.898281
10
21.271928
20
3.893937
10
21.266625
20
3.889566
10
21.261345
20
3.885168
10
21.256086
20
3.880744
10
21.250851
20
3.876292
10
21.245638
20
3.871815
10
21.240447
20
3.867310
10
21.235280
20
3.862779
10
21.230136
20
3.858222
10
21.225016
20
3.853639
10
21.219918
20
3.849030
10
21.214845
20
3.844395
10
21.209794
20
3.839734
10
21.204768
20
3.835048
10
21.199766
20
3.830336
10
21.194787
20
3.825598
10
21.189833
20
3.820836
10
21.184903
20
3.816048
10
21.179998
20
3.811235
10
21.175117
20
3.806397
10
21.170261
20
3.801535
10
21.165429
20
3.796647
10
21.160623
20
3.791736
10
21.155841
20
3.786799
10
21.151085
20
3.781839
10
21.146354
20
3.776854
10
21.141649
20
3.771846
10
21.136969
20
3.766813
10
21.132315
20
3.761757
10
21.127687
20
3.756677
10
21.123084
20
3.751574
10
18.205614
20
0.500000
10
19.339060
20
0.500000
10
22.553865
20
1.568962
10
22.560381
20
1.571147
10
22.566885
20
1.573365
0
LWPOLYLINE
8
0
100
AcDbEntity
100
AcDbPolyline
90
723
70
1
10
13.951071
20
1.573365
10
13.957564
20
1.575617
10
13.964045
20
1.577901
10
13.970515
20
1.580218
10
13.976973
20
1.582568
10
13.983419
20
1.584951
10
13.989853
20
1.587367
10
13.996274
20
1.589815
10
14.002683
20
1.592296
10
14.009078
20
1.594810
10
14.015462
20
1.597356
10
14.021832
20
1.599935
10
14.028189
20
1.602546
10
14.034532
20
1.605189
10
14.040862
20
1.607865
10
14.047178
20
1.610572
10
14.053481
20
1.613312
10
14.059769
20
1.616084
10
14.066043
20
1.618888
10
14.072303
20
1.621724
10
14.078548
20
1.624592
10
14.084779
20
1.627491
10
14.090994
20
1.630422
10
14.097195
20
1.633385
10
14.103381
20
1.636379
10
14.109551
20
1.639405
10
14.115706
20
1.642462
10
14.121845
20
1.645550
10
14.127968
20
1.648670
10
14.134076
20
1.651821
10
14.140167
20
1.655002
10
14.146242
20
1.658215
10
14.152301
20
1.661459
10
14.158343
20
1.664733
10
14.164368
20
1.668038
10
14.170376
20
1.671374
10
14.176367
20
1.674740
10
14.182341
20
1.678137
10
14.188298
20
1.681564
10
14.194237
20
1.685021
10
14.200159
20
1.688509
10
14.206062
20
1.692027
10
14.211948
20
1.695574
10
14.217816
20
1.699152
10
14.223665
20
1.702759
10
14.229496
20
1.706396
10
14.235308
20
1.710063
10
14.241101
20
1.713759
10
14.246876
20
1.717485
10
14.252632
20
1.721240
10
14.258368
20
1.725025
10
14.264085
20
1.728838
10
14.269782
20
1.732681
10
14.275460
20
1.736552
10
14.281118
20
1.740453
10
14.286757
20
1.744382
10
14.292375
20
1.748339
10
14.297973
20
1.752326
10
14.303550
20
1.756341
10
14.309107
20
1.760384
10
14.314644
20
1.764455
10
14.320159
20
1.768554
10
14.325654
20
1.772682
10
14.331127
20
1.776837
10
14.336580
20
1.781020
10
14.342011
20
1.785231
10
14.347420
20
1.789470
10
14.352808
20
1.793736
10
14.358174
20
1.798029
10
14.363518
20
1.802350
10
14.368840
20
1.806698
10
14.374140
20
1.811072
10
14.379417
20
1.815474
10
14.384672
20
1.819903
10
14.389905
20
1.824358
10
14.395114
20
1.828840
10
14.400301
20
1.833348
10
14.405465
20
1.837883
10
14.410605
20
1.842443
10
14.415723
20
1.847030
10
14.420817
20
1.851643
10
14.425887
20
1.856282
10
14.430934
20
1.860947
10
14.435957
20
1.865637
10
14.440956
20
1.870353
10
14.445930
20
1.875094
10
14.450881
20
1.879860
10
14.455807
20
1.884651
10
14.460709
20
1.889468
10
14.465587
20
1.894309
10
14.470439
20
1.899176
10
14.475267
20
1.904066
10
14.480070
20
1.908982
10
14.484847
20
1.913921
10
14.489600
20
1.918885
10
14.494327
20
1.923873
10
14.499029
20
1.928885
10
14.503705
20
1.933921
10
14.508355
20
1.938981
10
14.512980
20
1.944064
10
14.517579
20
1.949171
10
14.522151
20
1.954301
10
14.526698
20
1.959455
10
14.531218
20
1.964631
10
14.535712
20
1.969830
10
14.540179
20
1.975052
10
14.544620
20
1.980297
10
14.549033
20
1.985565
10
14.553420
20
1.990854
10
14.557780
20
1.996166
10
14.562113
20
2.001501
10
14.566419
20
2.006857
10
14.570697
20
2.012235
10
14.574948
20
2.017634
10
14.579172
20
2.023056
10
14.583367
20
2.028498
10
14.587535
20
2.033962
10
14.591675
20
2.039447
10
14.595788
20
2.044954
10
14.599872
20
2.050481
10
14.603928
20
2.056028
10
14.607955
20
2.061597
10
14.611954
20
2.067185
10
14.615925
20
2.072794
10
14.619867
20
2.078423
10
14.623780
20
2.084072
10
14.627665
20
2.089741
10
14.631521
20
2.095430
10
14.635347
20
2.101138
10
14.639145
20
2.106866
10
14.642913
20
2.112613
10
14.646652
20
2.118379
10
14.650362
20
2.124164
10
14.654042
20
2.129968
10
14.657692
20
2.135790
10
14.661313
20
2.141631
10
14.664904
20
2.147490
10
14.668465
20
2.153368
10
14.671997
20
2.159263
10
14.675498
20
2.165177
10
14.678969
20
2.171108
10
14.682410
20
2.177057
10
14.685820
20
2.183023
10
14.689200
20
2.189007
10
14.692550
20
2.195007
10
14.695869
20
2.201025
10
14.699157
20
2.207059
10
14.702414
20
2.213110
10
14.705641
20
2.219178
10
14.708837
20
2.225262
10
14.712001
20
2.231362
10
14.715135
20
2.237478
10
14.718238
20
2.243610
10
14.721309
20
2.249758
10
14.724349
20
2.255921
10
14.727357
20
2.262100
10
14.730334
20
2.268294
10
14.733279
20
2.274503
10
14.736193
20
2.280727
10
14.739075
20
2.286966
10
14.741925
20
2.293219
10
14.744744
20
2.299486
10
14.747530
20
2.305768
10
14.750285
20
2.312064
10
14.753007
20
2.318374
10
14.755697
20
2.324698
10
14.758355
20
2.331036
10
14.760981
20
2.337386
10
14.763574
20
2.343751
10
14.766135
20
2.350128
10
14.768663
20
2.356518
10
14.771159
20
2.362921
10
14.773622
20
2.369337
10
14.776053
20
2.375765
10
14.778450
20
2.382205
10
14.780815
20
2.388657
10
14.783147
20
2.395122
10
14.785446
20
2.401598
10
14.787712
20
2.408086
10
14.789945
20
2.414585
10
14.792145
20
2.421096
10
14.794312
20
2.427617
10
14.796446
20
2.434150
10
14.798546
20
2.440693
10
14.800613
20
2.447247
10
14.802646
20
2.453812
10
14.804646
20
2.460387
10
14.806613
20
2.466971
10
14.808546
20
2.473566
10
14.810445
20
2.480171
10
14.812311
20
2.486785
10
14.814143
20
2.493408
10
14.815942
20
2.500041
10
14.817706
20
2.506683
10
14.819437
20
2.513333
10
14.821134
20
2.519993
10
14.822797
20
2.526661
10
14.824426
20
2.533337
10
14.826021
20
2.540022
10
14.827582
20
2.546714
10
14.829108
20
2.553415
10
14.830601
20
2.560123
10
14.832060
20
2.566838
10
14.833484
20
2.573561
10
14.834874
20
2.580291
10
14.836230
20
2.587029
10
14.837551
20
2.593773
10
14.838839
20
2.600523
10
14.840091
20
2.607280
10
14.841310
20
2.614044
10
14.842494
20
2.620813
10
14.843643
20
2.627588
10
14.844758
20
2.634369
10
14.845838
20
2.641156
10
14.846884
20
2.647948
10
14.847895
20
2.654746
10
14.848872
20
2.661548
10
14.849814
20
2.668356
10
14.850721
20
2.675168
10
14.851594
20
2.681984
10
14.852432
20
2.688805
10
14.853235
20
2.695630
10
14.854004
20
2.702459
10
14.854737
20
2.709292
10
14.855436
20
2.716129
10
14.856100
20
2.722969
10
14.856729
20
2.729812
10
14.857324
20
2.736659
10
14.857883
20
2.743508
10
14.858408
20
2.750360
10
14.858898
20
2.757215
10
14.859353
20
2.764072
10
14.859773
20
2.770931
10
14.860158
20
2.777793
10
14.860508
20
2.784656
10
14.860823
20
2.791521
10
14.861103
20
2.798387
10
14.861348
20
2.805255
10
14.861559
20
2.812124
10
14.861734
20
2.818994
10
14.861874
20
2.825865
10
14.861980
20
2.832736
10
14.862050
20
2.839608
10
14.862086
20
2.846480
10
14.862086
20
2.853352
10
14.862051
20
2.860225
10
14.861982
20
2.867096
10
14.861877
20
2.873968
10
14.861738
20
2.880839
10
14.861563
20
2.887709
10
14.861354
20
2.894578
10
14.861110
20
2.901445
10
14.860830
20
2.908312
10
14.860516
20
2.915177
10
14.860167
20
2.922040
10
14.859782
20
2.928902
10
14.859363
20
2.935761
10
14.858909
20
2.942618
10
14.858420
20
2.949473
10
14.857897
20
2.956325
10
14.857338
20
2.963175
10
14.856744
20
2.970021
10
14.856116
20
2.976865
10
14.855453
20
2.983705
10
14.854755
20
2.990541
10
14.854022
20
2.997374
10
14.853254
20
3.004204
10
14.852452
20
3.011029
10
14.851615
20
3.017850
10
14.850743
20
3.024666
10
14.849837
20
3.031479
10
14.848895
20
3.038286
10
14.847920
20
3.045089
10
14.846909
20
3.051886
10
14.845864
20
3.058678
10
14.844785
20
3.065465
10
14.843671
20
3.072247
10
14.842522
20
3.079022
10
14.841339
20
3.085792
10
14.840121
20
3.092555
10
14.838869
20
3.099312
10
14.837583
20
3.106063
10
14.836262
20
3.112807
10
14.834908
20
3.119545
10
14.833518
20
3.126275
10
14.832095
20
3.132998
10
14.830637
20
3.139714
10
14.829145
20
3.146422
10
14.827619
20
3.153123
10
14.826059
20
3.159816
10
14.824465
20
3.166500
10
14.822837
20
3.173177
10
14.821175
20
3.179845
10
14.819479
20
3.186505
10
14.817749
20
3.193155
10
14.815985
20
3.199798
10
14.814187
20
3.206430
10
14.812356
20
3.213054
10
14.810491
20
3.219668
10
14.808593
20
3.226273
10
14.806660
20
3.232868
10
14.804695
20
3.239453
10
14.802695
20
3.246028
10
14.800663
20
3.252593
10
14.798597
20
3.259147
10
14.796497
20
3.265691
10
14.794364
20
3.272224
10
14.792198
20
3.278746
10
14.789999
20
3.285256
10
14.787767
20
3.291756
10
14.785502
20
3.298244
10
14.783204
20
3.304721
10
14.780872
20
3.311185
10
14.778508
20
3.317638
10
14.776111
20
3.324079
10
14.773682
20
3.330507
10
14.771219
20
3.336923
10
14.768724
20
3.343326
10
14.766197
20
3.349717
10
14.763637
20
3.356094
10
14.761044
20
3.362459
10
14.758419
20
3.368810
10
14.755762
20
3.375148
10
14.753073
20
3.381472
10
14.750351
20
3.387782
10
14.747598
20
3.394078
10
14.744812
20
3.400361
10
14.741994
20
3.406629
10
14.739145
20
3.412882
10
14.736264
20
3.419121
10
14.733351
20
3.425346
10
14.730406
20
3.431555
10
14.727430
20
3.437749
10
14.724422
20
3.443928
10
14.721383
20
3.450092
10
14.718313
20
3.456240
10
14.715211
20
3.462373
10
14.712078
20
3.468489
10
14.708914
20
3.474590
10
14.705719
20
3.480674
10
14.702493
20
3.486742
10
14.699237
20
3.492794
10
14.695949
20
3.498828
10
14.692631
20
3.504846
10
14.689282
20
3.510847
10
14.685903
20
3.516831
10
14.682493
20
3.522798
10
14.679053
20
3.528747
10
14.675583
20
3.534679
10
14.672082
20
3.540593
10
14.668552
20
3.546489
10
14.664991
20
3.552367
10
14.661401
20
3.558226
10
14.657781
20
3.564068
10
14.654131
20
3.569891
10
14.650452
20
3.575695
10
14.646743
20
3.581480
10
14.643004
20
3.587247
10
14.639237
20
3.592994
10
14.635440
20
3.598722
10
14.631614
20
3.604431
10
14.627759
20
3.610120
10
14.623875
20
3.615790
10
14.619963
20
3.621439
10
14.616021
20
3.627069
10
14.612051
20
3.632678
10
14.608053
20
3.638268
10
14.604026
20
3.643836
10
14.599971
20
3.649385
10
14.595887
20
3.654912
10
14.591776
20
3.660419
10
14.587637
20
3.665904
10
14.583469
20
3.671369
10
14.579274
20
3.676812
10
14.575051
20
3.682234
10
14.570801
20
3.687634
10
14.566524
20
3.693013
10
14.562218
20
3.698369
10
14.557886
20
3.703704
10
14.553527
20
3.709017
10
14.549141
20
3.714307
10
14.544727
20
3.719575
10
14.540287
20
3.724820
10
14.535821
20
3.730043
10
14.531328
20
3.735243
10
14.526808
20
3.740420
10
14.522262
20
3.745574
10
14.517690
20
3.750704
10
14.513092
20
3.755812
10
14.508468
20
3.760895
10
14.503819
20
3.765956
10
14.499143
20
3.770992
10
14.494442
20
3.776005
10
14.489715
20
3.780994
10
14.484963
20
3.785958
10
14.480186
20
3.790898
10
14.475384
20
3.795814
10
14.470557
20
3.800706
10
14.465705
20
3.805572
10
14.460828
20
3.810414
10
14.455927
20
3.815232
10
14.451001
20
3.820024
10
14.446051
20
3.824791
10
14.441077
20
3.829532
10
14.436079
20
3.834249
10
14.431056
20
3.838939
10
14.426010
20
3.843605
10
14.420940
20
3.848244
10
14.415847
20
3.852858
10
14.410730
20
3.857445
10
14.405590
20
3.862007
10
14.400427
20
3.866542
10
14.395241
20
3.871051
10
14.390032
20
3.875533
10
14.384800
20
3.879989
10
14.379545
20
3.884418
10
14.374269
20
3.888821
10
14.368969
20
3.893196
10
14.363648
20
3.897545
10
14.358304
20
3.901866
10
14.352939
20
3.906160
10
14.347551
20
3.910427
10
14.342143
20
3.914666
10
14.336712
20
3.918877
10
14.331260
20
3.923061
10
14.325787
20
3.927217
10
14.320293
20
3.931345
10
14.314778
20
3.935446
10
14.309242
20
3.939518
10
14.303686
20
3.943561
10
14.298109
20
3.947577
10
14.292511
20
3.951564
10
14.286894
20
3.955522
10
14.281256
20
3.959452
10
14.275598
20
3.963353
10
14.269921
20
3.967225
10
14.264224
20
3.971069
10
14.258507
20
3.974883
10
14.252771
20
3.978668
10
14.247016
20
3.982424
10
14.241242
20
3.986150
10
14.235449
20
3.989847
10
14.229637
20
3.993515
10
14.223807
20
3.997153
10
14.217958
20
4.000761
10
14.212091
20
4.004339
10
14.206206
20
4.007887
10
14.200303
20
4.011406
10
14.194382
20
4.014894
10
14.188443
20
4.018352
10
14.182487
20
4.021780
10
14.176513
20
4.025178
10
14.170522
20
4.028545
10
14.164514
20
4.031881
10
14.158489
20
4.035187
10
14.152448
20
4.038462
10
14.146390
20
4.041706
10
14.140315
20
4.044920
10
14.134224
20
4.048102
10
14.128117
20
4.051254
10
14.121994
20
4.054374
10
14.115856
20
4.057463
10
14.109701
20
4.060521
10
14.103531
20
4.063547
10
14.097346
20
4.066542
10
14.091146
20
4.069506
10
14.084930
20
4.072438
10
14.078700
20
4.075338
10
14.072455
20
4.078206
10
14.066196
20
4.081043
10
14.059922
20
4.083848
10
14.053634
20
4.086621
10
14.047332
20
4.089361
10
14.041016
20
4.092070
10
14.034686
20
4.094746
10
14.028343
20
4.097390
10
14.021987
20
4.100002
10
14.015617
20
4.102582
10
14.009234
20
4.105129
10
14.002838
20
4.107643
10
13.996430
20
4.110125
10
13.990009
20
4.112574
10
13.983576
20
4.114991
10
13.977130
20
4.117374
10
13.970673
20
4.119725
10
13.964203
20
4.122043
10
13.957722
20
4.124328
10
13.951229
20
4.126580
10
13.944725
20
4.128799
10
13.938210
20
4.130985
10
13.931683
20
4.133137
10
13.925146
20
4.135257
10
13.918598
20
4.137343
10
13.912040
20
4.139395
10
13.905471
20
4.141415
10
13.898892
20
4.143400
10
13.892303
20
4.145353
10
13.885704
20
4.147271
10
13.879095
20
4.149156
10
13.872477
20
4.151008
10
13.865850
20
4.152825
10
13.859213
20
4.154609
10
13.852567
20
4.156360
10
13.845913
20
4.158076
10
13.839250
20
4.159758
10
13.832578
20
4.161407
10
13.825898
20
4.163021
10
13.819210
20
4.164602
10
13.812515
20
4.166148
10
13.805811
20
4.167660
10
13.799099
20
4.169138
10
13.792381
20
4.170582
10
13.785655
20
4.171992
10
13.778921
20
4.173367
10
13.772181
20
4.174708
10
13.765435
20
4.176015
10
13.758681
20
4.177288
10
13.751921
20
4.178526
10
13.745156
20
4.179730
10
13.738384
20
4.180899
10
13.731606
20
4.182033
10
13.724822
20
4.183134
10
13.718033
20
4.184199
10
13.711239
20
4.185230
10
13.704439
20
4.186227
10
13.697634
20
4.187189
10
13.690825
20
4.188116
10
13.684011
20
4.189008
10
13.677193
20
4.189866
10
13.670370
20
4.190689
10
13.663543
20
4.191478
10
13.656712
20
4.192231
10
13.649878
20
4.192950
10
13.643040
20
4.193634
10
13.636198
20
4.194283
10
13.629354
20
4.194897
10
13.622506
20
4.195477
10
13.615655
20
4.196022
10
13.608802
20
4.196531
10
13.601946
20
4.197006
10
13.595088
20
4.197446
10
13.588228
20
4.197851
10
13.581366
20
4.198221
10
13.574502
20
4.198557
10
13.567636
20
4.198857
10
13.560769
20
4.199122
10
13.553901
20
4.199352
10
13.547031
20
4.199548
10
13.540161
20
4.199708
10
13.533290
20
4.199834
10
13.526418
20
4.199924
10
13.519546
20
4.199979
10
13.512674
20
4.200000
10
13.505802
20
4.199985
10
13.498930
20
4.199936
10
13.492058
20
4.199851
10
13.485187
20
4.199732
10
13.478317
20
4.199577
10
13.471447
20
4.199388
10
13.464579
20
4.199164
10
13.457711
20
4.198904
10
13.450845
20
4.198610
10
13.443981
20
4.198281
10
13.437119
20
4.197917
10
13.430258
20
4.197518
10
13.423399
20
4.197083
10
13.416543
20
4.196615
10
13.409690
20
4.196111
10
13.402839
20
4.195572
10
13.395990
20
4.194998
10
13.389145
20
4.194390
10
13.382303
20
4.193747
10
13.375464
20
4.193069
10
13.368629
20
4.192356
10
13.361798
20
4.191608
10
13.354970
20
4.190826
10
13.348147
20
4.190008
10
13.341328
20
4.189157
10
13.334513
20
4.188270
10
13.327703
20
4.187349
10
13.320897
20
4.186393
10
13.314097
20
4.185402
10
13.307302
20
4.184377
10
13.300512
20
4.183317
10
13.293727
20
4.182223
10
13.286948
20
4.181094
10
13.280175
20
4.179931
10
13.273408
20
4.178733
10
13.266648
20
4.177501
10
13.259893
20
4.176234
10
13.253145
20
4.174933
10
13.246404
20
4.173598
10
13.239670
20
4.172228
10
13.232942
20
4.170824
10
13.226222
20
4.169386
10
13.219510
20
4.167914
10
13.212805
20
4.166407
10
13.206107
20
4.164867
10
13.199418
20
4.163292
10
13.192737
20
4.161683
10
13.186064
20
4.160041
10
13.179399
20
4.158364
10
13.172743
20
4.156654
10
13.166096
20
4.154909
10
13.159458
20
4.153131
10
13.152829
20
4.151319
10
13.146209
20
4.149473
10
13.139599
20
4.147594
10
13.132998
20
4.145681
10
13.126408
20
4.143735
10
13.119827
20
4.141754
10
13.113256
20
4.139741
10
13.106696
20
4.137694
10
13.100146
20
4.135614
10
13.093607
20
4.133500
10
13.087079
20
4.131353
10
13.080562
20
4.129173
10
13.074056
20
4.126960
10
13.067561
20
4.124713
10
13.061078
20
4.122434
10
13.054606
20
4.120122
10
13.048147
20
4.117776
10
13.041699
20
4.115398
10
13.035264
20
4.112987
10
13.028841
20
4.110544
10
13.022430
20
4.108067
10
13.016032
20
4.105558
10
13.009647
20
4.103017
10
13.003275
20
4.100443
10
12.996917
20
4.097837
10
12.990571
20
4.095198
10
12.984239
20
4.092527
10
12.977921
20
4.089824
10
12.971617
20
4.087089
10
12.965326
20
4.084321
10
12.959050
20
4.081522
10
12.952788
20
4.078691
10
12.946541
20
4.075828
10
12.940308
20
4.072933
10
12.934090
20
4.070006
10
12.927887
20
4.067048
10
12.921699
20
4.064059
10
12.915527
20
4.061038
10
12.909370
20
4.057985
10
12.903228
20
4.054901
10
12.897103
20
4.051786
10
12.890993
20
4.048640
10
12.884899
20
4.045463
10
12.878822
20
4.042255
10
12.872761
20
4.039016
10
12.866716
20
4.035746
10
12.860689
20
4.032445
10
12.854678
20
4.029114
10
12.848684
20
4.025752
10
12.842708
20
4.022360
10
12.836748
20
4.018937
10
12.830807
20
4.015484
10
12.824883
20
4.012001
10
12.818976
20
4.008488
10
12.813088
20
4.004944
10
12.807218
20
4.001371
10
12.801366
20
3.997768
10
12.795533
20
3.994135
10
12.789718
20
3.990473
10
12.783921
20
3.986781
10
12.778144
20
3.983059
10
12.772386
20
3.979308
10
12.766647
20
3.975528
10
12.760927
20
3.971719
10
12.755226
20
3.967881
10
12.749546
20
3.964013
10
12.743885
20
3.960117
10
12.738243
20
3.956192
10
12.732622
20
3.952239
10
12.727022
20
3.948256
10
12.721441
20
3.944246
10
12.715881
20
3.940207
10
12.710342
20
3.936140
10
12.704823
20
3.932044
10
12.699325
20
3.927921
10
12.693849
20
3.923770
10
12.688393
20
3.919590
10
12.682959
20
3.915383
10
12.677547
20
3.911149
10
12.672156
20
3.906887
10
12.666786
20
3.902598
10
12.661439
20
3.898281
10
12.656114
20
3.893937
10
12.650811
20
3.889566
10
12.645530
20
3.885168
10
12.640272
20
3.880744
10
12.635036
20
3.876292
10
12.629823
20
3.871815
10
12.624633
20
3.867310
10
12.619466
20
3.862779
10
12.614322
20
3.858222
10
12.609201
20
3.853639
10
12.604104
20
3.849030
10
12.599030
20
3.844395
10
12.593980
20
3.839734
10
12.588954
20
3.835048
10
12.583951
20
3.830336
10
12.578973
20
3.825598
10
12.574019
20
3.820836
10
12.569089
20
3.816048
10
12.564183
20
3.811235
10
12.559302
20
3.806397
10
12.554446
20
3.801535
10
12.549615
20
3.796647
10
12.544808
20
3.791736
10
12.540027
20
3.786799
10
12.535271
20
3.781839
10
12.530540
20
3.776854
10
12.525835
20
3.771846
10
12.521155
20
3.766813
10
12.516500
20
3.761757
10
12.511872
20
3.756677
10
12.507270
20
3.751574
10
9.589799
20
0.500000
10
10.723246
20
0.500000
10
13.938051
20
1.568962
10
13.944567
20
1.571147
10
13.951071
20
1.573365
0
ENDSEC
0
EOF
