999
side4_rev_small (straight+4 loops, rev, R=1.9 w_v)
0
SECTION
2
HEADER
9
$INSUNITS
70
4
0
ENDSEC
0
SECTION
2
ENTITIES
0
LWPOLYLINE
8
0
100
AcDbEntity
100
AcDbPolyline
90
3009
70
1
10
1.822695
20
-0.514303
10
1.805056
20
-0.563600
10
1.785814
20
-0.612293
10
1.764989
20
-0.660331
10
1.742603
20
-0.707662
10
1.718681
20
-0.754235
10
1.693248
20
-0.800000
10
1.666330
20
-0.844909
10
1.637958
20
-0.888912
10
1.608162
20
-0.931964
10
1.576972
20
-0.974018
10
1.544424
20
-1.015029
10
1.510551
20
-1.054953
10
1.475389
20
-1.093748
10
1.438978
20
-1.131371
10
1.401355
20
-1.167783
10
1.362560
20
-1.202944
10
1.322636
20
-1.236817
10
1.281625
20
-1.269365
10
1.239571
20
-1.300555
10
1.196519
20
-1.330351
10
1.152516
20
-1.358723
10
1.107607
20
-1.385641
10
1.061842
20
-1.411074
10
1.015269
20
-1.434996
10
0.967938
20
-1.457382
10
0.919900
20
-1.478207
10
0.871207
20
-1.497449
10
0.821910
20
-1.515088
10
0.772062
20
-1.531105
10
0.721717
20
-1.545481
10
0.670929
20
-1.558203
10
0.619751
20
-1.569256
10
0.568240
20
-1.578629
10
0.516449
20
-1.586312
10
0.464434
20
-1.592296
10
0.412252
20
-1.596574
10
0.359957
20
-1.599143
10
0.307607
20
-1.600000
10
0.255256
20
-1.599143
10
0.202962
20
-1.596574
10
0.150780
20
-1.592296
10
0.098765
20
-1.586312
10
0.046974
20
-1.578629
10
-0.004538
20
-1.569256
10
-0.055715
20
-1.558203
10
-0.106504
20
-1.545481
10
-0.156849
20
-1.531105
10
-0.206696
20
-1.515088
10
-0.255993
20
-1.497449
10
-0.304687
20
-1.478207
10
-0.352724
20
-1.457382
10
-0.400055
20
-1.434996
10
-0.446628
20
-1.411074
10
-0.492393
20
-1.385641
10
-0.537302
20
-1.358723
10
-0.581305
20
-1.330351
10
-0.624357
20
-1.300555
10
-0.666411
20
-1.269365
10
-0.707422
20
-1.236817
10
-0.747346
20
-1.202944
10
-0.786141
20
-1.167783
10
-0.823764
20
-1.131371
10
-0.860176
20
-1.093748
10
-0.895337
20
-1.054953
10
-0.929210
20
-1.015029
10
-0.961758
20
-0.974018
10
-0.992948
20
-0.931964
10
-1.022744
20
-0.888912
10
-1.051117
20
-0.844909
10
-1.078034
20
-0.800000
10
-1.103467
20
-0.754235
10
-1.127389
20
-0.707662
10
-1.149775
20
-0.660331
10
-1.170600
20
-0.612293
10
-1.189843
20
-0.563600
10
-1.207481
20
-0.514303
10
-1.223498
20
-0.464455
10
-1.237874
20
-0.414110
10
-1.250596
20
-0.363322
10
-1.261649
20
-0.312145
10
-1.271022
20
-0.260633
10
-1.278705
20
-0.208842
10
-1.284689
20
-0.156827
10
-1.288967
20
-0.104645
10
-1.291536
20
-0.052351
10
-1.292393
20
0.000000
10
-1.291536
20
0.052351
10
-1.288967
20
0.104645
10
-1.284689
20
0.156827
10
-1.278705
20
0.208842
10
-1.271022
20
0.260633
10
-1.261649
20
0.312145
10
-1.250596
20
0.363322
10
-1.237874
20
0.414110
10
-1.223498
20
0.464455
10
-1.207481
20
0.514303
10
-1.189843
20
0.563600
10
-1.170600
20
0.612293
10
-1.149775
20
0.660331
10
-1.127389
20
0.707662
10
-1.103467
20
0.754235
10
-1.078034
20
0.800000
10
-1.051117
20
0.844909
10
-1.022744
20
0.888912
10
-0.992948
20
0.931964
10
-0.961758
20
0.974018
10
-0.929210
20
1.015029
10
-0.895337
20
1.054953
10
-0.860176
20
1.093748
10
-0.823764
20
1.131371
10
-0.786141
20
1.167783
10
-0.747346
20
1.202944
10
-0.707422
20
1.236817
10
-0.666411
20
1.269365
10
-0.624357
20
1.300555
10
-0.581305
20
1.330351
10
-0.537302
20
1.358723
10
-0.492393
20
1.385641
10
-0.446628
20
1.411074
10
-0.400055
20
1.434996
10
-0.352724
20
1.457382
10
-0.304687
20
1.478207
10
-0.255993
20
1.497449
10
-0.206696
20
1.515088
10
-0.156849
20
1.531105
10
-0.106504
20
1.545481
10
-0.055715
20
1.558203
10
-0.004538
20
1.569256
10
0.046974
20
1.578629
10
0.098765
20
1.586312
10
0.150780
20
1.592296
10
0.202962
20
1.596574
10
0.255256
20
1.599143
10
0.307607
20
1.600000
10
0.359957
20
1.599143
10
0.412252
20
1.596574
10
0.464434
20
1.592296
10
0.516449
20
1.586312
10
0.568240
20
1.578629
10
0.619751
20
1.569256
10
0.670929
20
1.558203
10
0.721717
20
1.545481
10
0.772062
20
1.531105
10
0.821910
20
1.515088
10
0.871207
20
1.497449
10
0.894358
20
1.488301
10
2.850882
20
3.668882
10
2.857360
20
3.676064
10
2.863874
20
3.683214
10
2.870424
20
3.690330
10
2.877010
20
3.697413
10
2.883633
20
3.704462
10
2.890291
20
3.711477
10
2.896985
20
3.718459
10
2.903714
20
3.725406
10
2.910479
20
3.732319
10
2.917279
20
3.739197
10
2.924113
20
3.746040
10
2.930983
20
3.752849
10
2.937887
20
3.759623
10
2.944825
20
3.766361
10
2.951798
20
3.773064
10
2.958804
20
3.779732
10
2.965845
20
3.786363
10
2.972919
20
3.792959
10
2.980026
20
3.799519
10
2.987167
20
3.806042
10
2.994341
20
3.812529
10
3.001548
20
3.818980
10
3.008788
20
3.825393
10
3.016060
20
3.831770
10
3.023365
20
3.838109
10
3.030702
20
3.844412
10
3.038070
20
3.850676
10
3.045471
20
3.856904
10
3.052903
20
3.863093
10
3.060367
20
3.869245
10
3.067861
20
3.875358
10
3.075387
20
3.881434
10
3.082944
20
3.887471
10
3.090531
20
3.893469
10
3.098149
20
3.899429
10
3.105797
20
3.905349
10
3.113475
20
3.911231
10
3.121183
20
3.917074
10
3.128920
20
3.922877
10
3.136687
20
3.928641
10
3.144483
20
3.934365
10
3.152309
20
3.940050
10
3.160163
20
3.945694
10
3.168045
20
3.951299
10
3.175956
20
3.956863
10
3.183896
20
3.962387
10
3.191863
20
3.967871
10
3.199858
20
3.973313
10
3.207881
20
3.978716
10
3.215931
20
3.984077
10
3.224008
20
3.989397
10
3.232113
20
3.994676
10
3.240244
20
3.999913
10
3.248401
20
4.005110
10
3.256585
20
4.010264
10
3.264796
20
4.015377
10
3.273032
20
4.020448
10
3.281293
20
4.025477
10
3.289581
20
4.030464
10
3.297893
20
4.035409
10
3.306231
20
4.040311
10
3.314593
20
4.045171
10
3.322980
20
4.049988
10
3.331392
20
4.054762
10
3.339827
20
4.059493
10
3.348287
20
4.064182
10
3.356770
20
4.068827
10
3.365277
20
4.073429
10
3.373807
20
4.077988
10
3.382361
20
4.082503
10
3.390937
20
4.086975
10
3.399536
20
4.091403
10
3.408157
20
4.095787
10
3.416801
20
4.100127
10
3.425466
20
4.104423
10
3.434153
20
4.108675
10
3.442862
20
4.112883
10
3.451592
20
4.117046
10
3.460343
20
4.121165
10
3.469115
20
4.125239
10
3.477908
20
4.129269
10
3.486721
20
4.133253
10
3.495554
20
4.137193
10
3.504407
20
4.141088
10
3.513280
20
4.144937
10
3.522173
20
4.148742
10
3.531084
20
4.152501
10
3.540015
20
4.156214
10
3.548964
20
4.159883
10
3.557932
20
4.163505
10
3.566919
20
4.167082
10
3.575923
20
4.170613
10
3.584945
20
4.174098
10
3.593985
20
4.177538
10
3.603042
20
4.180931
10
3.612117
20
4.184278
10
3.621208
20
4.187578
10
3.630316
20
4.190833
10
3.639440
20
4.194041
10
3.648581
20
4.197202
10
3.657738
20
4.200317
10
3.666910
20
4.203386
10
3.676098
20
4.206407
10
3.685301
20
4.209382
10
3.694519
20
4.212310
10
3.703752
20
4.215191
10
3.713000
20
4.218025
10
3.722262
20
4.220812
10
3.731537
20
4.223551
10
3.740827
20
4.226243
10
3.750130
20
4.228889
10
3.759447
20
4.231486
10
3.768777
20
4.234036
10
3.778119
20
4.236539
10
3.787475
20
4.238994
10
3.796842
20
4.241401
10
3.806222
20
4.243761
10
3.815614
20
4.246073
10
3.825017
20
4.248337
10
3.834431
20
4.250553
10
3.843857
20
4.252721
10
3.853294
20
4.254842
10
3.862741
20
4.256914
10
3.872199
20
4.258938
10
3.881667
20
4.260914
10
3.891145
20
4.262841
10
3.900633
20
4.264721
10
3.910130
20
4.266552
10
3.919636
20
4.268334
10
3.929151
20
4.270068
10
3.938675
20
4.271754
10
3.948208
20
4.273392
10
3.957748
20
4.274980
10
3.967297
20
4.276520
10
3.976853
20
4.278012
10
3.986417
20
4.279455
10
3.995988
20
4.280849
10
4.005566
20
4.282194
10
4.015151
20
4.283491
10
4.024742
20
4.284739
10
4.034339
20
4.285938
10
4.043942
20
4.287088
10
4.053552
20
4.288189
10
4.063166
20
4.289241
10
4.072786
20
4.290245
10
4.082411
20
4.291199
10
4.092040
20
4.292104
10
4.101674
20
4.292961
10
4.111312
20
4.293768
10
4.120955
20
4.294526
10
4.130601
20
4.295235
10
4.140250
20
4.295895
10
4.149903
20
4.296506
10
4.159558
20
4.297068
10
4.169217
20
4.297580
10
4.178878
20
4.298044
10
4.188541
20
4.298458
10
4.198206
20
4.298823
10
4.207873
20
4.299139
10
4.217541
20
4.299405
10
4.227210
20
4.299623
10
4.236881
20
4.299791
10
4.246552
20
4.299910
10
4.256224
20
4.299979
10
4.265896
20
4.300000
10
4.275568
20
4.299971
10
4.285239
20
4.299893
10
4.294911
20
4.299766
10
4.304581
20
4.299589
10
4.314250
20
4.299363
10
4.323918
20
4.299089
10
4.333585
20
4.298764
10
4.343250
20
4.298391
10
4.352912
20
4.297968
10
4.362573
20
4.297497
10
4.372231
20
4.296976
10
4.381886
20
4.296406
10
4.391538
20
4.295787
10
4.401187
20
4.295118
10
4.410832
20
4.294401
10
4.420474
20
4.293634
10
4.430111
20
4.292819
10
4.439745
20
4.291954
10
4.449373
20
4.291040
10
4.458997
20
4.290078
10
4.468616
20
4.289066
10
4.478230
20
4.288005
10
4.487838
20
4.286896
10
4.497440
20
4.285737
10
4.507037
20
4.284530
10
4.516627
20
4.283274
10
4.526210
20
4.281969
10
4.535787
20
4.280615
10
4.545357
20
4.279213
10
4.554919
20
4.277762
10
4.564474
20
4.276262
10
4.574022
20
4.274714
10
4.583561
20
4.273117
10
4.593092
20
4.271471
10
4.602614
20
4.269777
10
4.612128
20
4.268035
10
4.621633
20
4.266244
10
4.631128
20
4.264405
10
4.640614
20
4.262517
10
4.650091
20
4.260581
10
4.659557
20
4.258597
10
4.669013
20
4.256565
10
4.678459
20
4.254485
10
4.687893
20
4.252356
10
4.697317
20
4.250180
10
4.706730
20
4.247956
10
4.716131
20
4.245683
10
4.725521
20
4.243363
10
4.734899
20
4.240996
10
4.744264
20
4.238580
10
4.753617
20
4.236117
10
4.762958
20
4.233606
10
4.772285
20
4.231048
10
4.781600
20
4.228442
10
4.790901
20
4.225789
10
4.800188
20
4.223089
10
4.809461
20
4.220341
10
4.818721
20
4.217546
10
4.827966
20
4.214705
10
4.837196
20
4.211816
10
4.846412
20
4.208880
10
4.855613
20
4.205897
10
4.864798
20
4.202868
10
4.873968
20
4.199791
10
4.883121
20
4.196668
10
4.892259
20
4.193499
10
4.901381
20
4.190283
10
4.910486
20
4.187021
10
4.919575
20
4.183712
10
4.928646
20
4.180357
10
4.937701
20
4.176956
10
4.946737
20
4.173509
10
4.955757
20
4.170016
10
4.964758
20
4.166477
10
4.973741
20
4.162893
10
4.982706
20
4.159262
10
4.991652
20
4.155587
10
5.000580
20
4.151865
10
5.009488
20
4.148098
10
5.018377
20
4.144286
10
5.027247
20
4.140429
10
5.036096
20
4.136527
10
5.044926
20
4.132579
10
5.053736
20
4.128587
10
5.062525
20
4.124550
10
5.071293
20
4.120468
10
5.080041
20
4.116342
10
5.088767
20
4.112171
10
5.097473
20
4.107956
10
5.106156
20
4.103696
10
5.114818
20
4.099393
10
5.123458
20
4.095045
10
5.132075
20
4.090653
10
5.140670
20
4.086218
10
5.149242
20
4.081739
10
5.157792
20
4.077216
10
5.166318
20
4.072650
10
5.174821
20
4.068041
10
5.183301
20
4.063388
10
5.191756
20
4.058692
10
5.200188
20
4.053954
10
5.208595
20
4.049172
10
5.216978
20
4.044348
10
5.225336
20
4.039481
10
5.233669
20
4.034571
10
5.241978
20
4.029619
10
5.250261
20
4.024625
10
5.258518
20
4.019589
10
5.266750
20
4.014511
10
5.274955
20
4.009391
10
5.283135
20
4.004229
10
5.291288
20
3.999026
10
5.299415
20
3.993782
10
5.307514
20
3.988496
10
5.315587
20
3.983168
10
5.323632
20
3.977800
10
5.331651
20
3.972391
10
5.339641
20
3.966942
10
5.347604
20
3.961451
10
5.355538
20
3.955920
10
5.363444
20
3.950349
10
5.371322
20
3.944738
10
5.379171
20
3.939086
10
5.386992
20
3.933395
10
5.394783
20
3.927664
10
5.402545
20
3.921894
10
5.410277
20
3.916084
10
5.417980
20
3.910234
10
5.425653
20
3.904346
10
5.433296
20
3.898418
10
5.440908
20
3.892452
10
5.448490
20
3.886447
10
5.456042
20
3.880404
10
5.463562
20
3.874322
10
5.471052
20
3.868202
10
5.478510
20
3.862044
10
5.485937
20
3.855848
10
5.493332
20
3.849614
10
5.500696
20
3.843343
10
5.508027
20
3.837034
10
5.515326
20
3.830689
10
5.522593
20
3.824306
10
5.529827
20
3.817886
10
5.537028
20
3.811429
10
5.544197
20
3.804936
10
5.551332
20
3.798406
10
5.558434
20
3.791841
10
5.565502
20
3.785239
10
5.572537
20
3.778601
10
5.579538
20
3.771928
10
5.586504
20
3.765218
10
5.593437
20
3.758474
10
5.600335
20
3.751694
10
5.607199
20
3.744880
10
5.614027
20
3.738030
10
5.620821
20
3.731146
10
5.627580
20
3.724227
10
5.634303
20
3.717274
10
5.640991
20
3.710287
10
5.647643
20
3.703266
10
5.654259
20
3.696211
10
5.660840
20
3.689123
10
5.667384
20
3.682001
10
5.673892
20
3.674846
10
5.680363
20
3.667658
10
5.686798
20
3.660437
10
5.693196
20
3.653183
10
5.699557
20
3.645897
10
5.705880
20
3.638579
10
5.712166
20
3.631228
10
5.718415
20
3.623846
10
5.724626
20
3.616432
10
5.730800
20
3.608986
10
5.736935
20
3.601509
10
5.743032
20
3.594001
10
5.749091
20
3.586462
10
5.755112
20
3.578892
10
5.761094
20
3.571292
10
5.767037
20
3.563662
10
5.772941
20
3.556001
10
5.778806
20
3.548310
10
5.784632
20
3.540589
10
5.790418
20
3.532839
10
5.796165
20
3.525060
10
5.801872
20
3.517251
10
5.807540
20
3.509414
10
5.813167
20
3.501547
10
5.818755
20
3.493653
10
5.824302
20
3.485729
10
5.829809
20
3.477778
10
5.835275
20
3.469799
10
5.840700
20
3.461792
10
5.846085
20
3.453757
10
5.851429
20
3.445696
10
5.856731
20
3.437607
10
5.861992
20
3.429491
10
5.867212
20
3.421349
10
5.872391
20
3.413180
10
5.877527
20
3.404984
10
5.882622
20
3.396763
10
5.887676
20
3.388516
10
5.892687
20
3.380244
10
5.897655
20
3.371945
10
5.902582
20
3.363622
10
5.907466
20
3.355274
10
5.912308
20
3.346901
10
5.917106
20
3.338503
10
5.921862
20
3.330082
10
5.926576
20
3.321636
10
5.931246
20
3.313166
10
5.935873
20
3.304672
10
5.940456
20
3.296156
10
5.944996
20
3.287615
10
5.949493
20
3.279052
10
5.953946
20
3.270466
10
5.958355
20
3.261858
10
5.962720
20
3.253227
10
5.967042
20
3.244574
10
5.971319
20
3.235899
10
5.975552
20
3.227203
10
5.979741
20
3.218485
10
5.983885
20
3.209746
10
5.987985
20
3.200986
10
5.992040
20
3.192205
10
5.996050
20
3.183403
10
6.000016
20
3.174582
10
6.003936
20
3.165740
10
6.007812
20
3.156878
10
6.011642
20
3.147997
10
6.015427
20
3.139097
10
6.019167
20
3.130177
10
6.022861
20
3.121238
10
6.026510
20
3.112281
10
6.030113
20
3.103305
10
6.033670
20
3.094311
10
6.037182
20
3.085299
10
6.040647
20
3.076269
10
6.044067
20
3.067222
10
6.047440
20
3.058157
10
6.050767
20
3.049076
10
6.054048
20
3.039977
10
6.057283
20
3.030862
10
6.060471
20
3.021731
10
6.063613
20
3.012583
10
6.066708
20
3.003420
10
6.069756
20
2.994241
10
6.072758
20
2.985046
10
6.075713
20
2.975837
10
6.078620
20
2.966612
10
6.081481
20
2.957373
10
6.084295
20
2.948119
10
6.087062
20
2.938851
10
6.089781
20
2.929570
10
6.092453
20
2.920274
10
6.095078
20
2.910965
10
6.097655
20
2.901643
10
6.100185
20
2.892308
10
6.102668
20
2.882960
10
6.105102
20
2.873599
10
6.107489
20
2.864226
10
6.109829
20
2.854841
10
6.112120
20
2.845445
10
6.114364
20
2.836037
10
6.116559
20
2.826617
10
6.118707
20
2.817187
10
6.120807
20
2.807745
10
6.122858
20
2.798293
10
6.124862
20
2.788831
10
6.126817
20
2.779359
10
6.128724
20
2.769877
10
6.130583
20
2.760385
10
6.132393
20
2.750884
10
6.134155
20
2.741374
10
6.135869
20
2.731855
10
6.137534
20
2.722327
10
6.139150
20
2.712792
10
6.140718
20
2.703247
10
6.142238
20
2.693696
10
6.143708
20
2.684136
10
6.145130
20
2.674569
10
6.146504
20
2.664995
10
6.147828
20
2.655414
10
6.149104
20
2.645827
10
6.150331
20
2.636233
10
6.151509
20
2.626633
10
6.152638
20
2.617027
10
6.153719
20
2.607416
10
6.154750
20
2.597799
10
6.155732
20
2.588177
10
6.156666
20
2.578550
10
6.157550
20
2.568919
10
6.158386
20
2.559283
10
6.159172
20
2.549643
10
6.159909
20
2.539999
10
6.160597
20
2.530352
10
6.161236
20
2.520701
10
6.161826
20
2.511047
10
6.162367
20
2.501390
10
6.162858
20
2.491730
10
6.163301
20
2.482069
10
6.163694
20
2.472405
10
6.164038
20
2.462739
10
6.164333
20
2.453071
10
6.164578
20
2.443402
10
6.164775
20
2.433732
10
6.164922
20
2.424062
10
6.165019
20
2.414390
10
6.165068
20
2.404718
10
6.165068
20
2.395046
10
6.165018
20
2.385374
10
6.164919
20
2.375703
10
6.164770
20
2.366032
10
6.164573
20
2.356362
10
6.164326
20
2.346693
10
6.164030
20
2.337026
10
6.163685
20
2.327360
10
6.163291
20
2.317696
10
6.162847
20
2.308034
10
6.162354
20
2.298375
10
6.161812
20
2.288718
10
6.161221
20
2.279064
10
6.160581
20
2.269413
10
6.159892
20
2.259766
10
6.159153
20
2.250122
10
6.158366
20
2.240482
10
6.157529
20
2.230847
10
6.156644
20
2.221215
10
6.155709
20
2.211589
10
6.154725
20
2.201967
10
6.153693
20
2.192350
10
6.152611
20
2.182739
10
6.151481
20
2.173133
10
6.150302
20
2.163533
10
6.149074
20
2.153940
10
6.147797
20
2.144352
10
6.146471
20
2.134772
10
6.145096
20
2.125198
10
6.143673
20
2.115631
10
6.142201
20
2.106072
10
6.140681
20
2.096520
10
6.139111
20
2.086976
10
6.137494
20
2.077440
10
6.135827
20
2.067913
10
6.134113
20
2.058394
10
6.132349
20
2.048884
10
6.130538
20
2.039384
10
6.128678
20
2.029892
10
6.126770
20
2.020410
10
6.124813
20
2.010938
10
6.122809
20
2.001476
10
6.120756
20
1.992025
10
6.118655
20
1.982584
10
6.116506
20
1.973153
10
6.114310
20
1.963734
10
6.112065
20
1.954326
10
6.109772
20
1.944930
10
6.107432
20
1.935545
10
6.105044
20
1.926173
10
6.102608
20
1.916813
10
6.100124
20
1.907465
10
6.097593
20
1.898130
10
6.095015
20
1.888808
10
6.092389
20
1.879499
10
6.089715
20
1.870204
10
6.086995
20
1.860923
10
6.084227
20
1.851655
10
6.081412
20
1.842402
10
6.078550
20
1.833163
10
6.075641
20
1.823939
10
6.072685
20
1.814730
10
6.069683
20
1.805536
10
6.066633
20
1.796357
10
6.063537
20
1.787194
10
6.060394
20
1.778047
10
6.057205
20
1.768916
10
6.053969
20
1.759801
10
6.050687
20
1.750703
10
6.047359
20
1.741622
10
6.043984
20
1.732558
10
6.040563
20
1.723511
10
6.037097
20
1.714481
10
6.033584
20
1.705470
10
6.030026
20
1.696476
10
6.026421
20
1.687501
10
6.022772
20
1.678544
10
6.019076
20
1.669606
10
6.015336
20
1.660686
10
6.011549
20
1.651786
10
6.007718
20
1.642906
10
6.003841
20
1.634044
10
5.999920
20
1.625203
10
5.995953
20
1.616382
10
5.991942
20
1.607581
10
5.987886
20
1.598801
10
5.983785
20
1.590041
10
5.979639
20
1.581303
10
5.975450
20
1.572585
10
5.971215
20
1.563889
10
5.966937
20
1.555215
10
5.962615
20
1.546563
10
5.958248
20
1.537932
10
5.953838
20
1.529324
10
5.949384
20
1.520739
10
5.944886
20
1.512176
10
5.940345
20
1.503637
10
5.935760
20
1.495120
10
5.931132
20
1.486628
10
5.926461
20
1.478158
10
5.921747
20
1.469713
10
5.916990
20
1.461292
10
5.912190
20
1.452895
10
5.907348
20
1.444522
10
5.902462
20
1.436175
10
5.897535
20
1.427852
10
5.892565
20
1.419555
10
5.887553
20
1.411283
10
5.882499
20
1.403036
10
5.877403
20
1.394816
10
5.872265
20
1.386621
10
5.867086
20
1.378453
10
5.861865
20
1.370311
10
5.856602
20
1.362196
10
5.851299
20
1.354108
10
5.845954
20
1.346047
10
5.840569
20
1.338013
10
5.835142
20
1.330007
10
5.829675
20
1.322028
10
5.824167
20
1.314077
10
5.818619
20
1.306155
10
5.813031
20
1.298261
10
5.807402
20
1.290395
10
5.801734
20
1.282558
10
5.796026
20
1.274750
10
5.790278
20
1.266972
10
5.784490
20
1.259222
10
5.778664
20
1.251502
10
5.772798
20
1.243812
10
5.766892
20
1.236152
10
5.760948
20
1.228522
10
5.754966
20
1.220923
10
5.748944
20
1.213354
10
5.742884
20
1.205816
10
5.736786
20
1.198308
10
5.730650
20
1.190832
10
5.724476
20
1.183387
10
5.718264
20
1.175974
10
5.712014
20
1.168592
10
5.705727
20
1.161243
10
5.699402
20
1.153925
10
5.693040
20
1.146640
10
5.686642
20
1.139387
10
5.680206
20
1.132167
10
5.673734
20
1.124979
10
5.667225
20
1.117825
10
5.660680
20
1.110704
10
5.654099
20
1.103617
10
5.647482
20
1.096562
10
5.640828
20
1.089542
10
5.634140
20
1.082556
10
5.627416
20
1.075604
10
5.620656
20
1.068686
10
5.613861
20
1.061803
10
5.607032
20
1.054954
10
5.600168
20
1.048140
10
5.593269
20
1.041361
10
5.586335
20
1.034618
10
5.579368
20
1.027910
10
5.572366
20
1.021237
10
5.565330
20
1.014600
10
5.558261
20
1.007999
10
5.551159
20
1.001434
10
5.544022
20
0.994905
10
5.536853
20
0.988413
10
5.529651
20
0.981957
10
5.522416
20
0.975538
10
5.515149
20
0.969156
10
5.507849
20
0.962811
10
5.500517
20
0.956504
10
5.493153
20
0.950233
10
5.485757
20
0.944001
10
5.478329
20
0.937806
10
5.470870
20
0.931649
10
5.463380
20
0.925529
10
5.455858
20
0.919449
10
5.448306
20
0.913406
10
5.440723
20
0.907402
10
5.433110
20
0.901437
10
5.425467
20
0.895510
10
5.417793
20
0.889623
10
5.410089
20
0.883774
10
5.402356
20
0.877965
10
5.394594
20
0.872196
10
5.386802
20
0.866466
10
5.378981
20
0.860776
10
5.371131
20
0.855125
10
5.363252
20
0.849515
10
5.355345
20
0.843945
10
5.347410
20
0.838415
10
5.339447
20
0.832925
10
5.331456
20
0.827477
10
5.323437
20
0.822068
10
5.315391
20
0.816701
10
5.307317
20
0.811375
10
5.299217
20
0.806090
10
5.291090
20
0.800847
10
5.282936
20
0.795644
10
5.274756
20
0.790484
10
5.266550
20
0.785365
10
5.258317
20
0.780288
10
5.250059
20
0.775253
10
5.241776
20
0.770260
10
5.233467
20
0.765309
10
5.225133
20
0.760400
10
5.216774
20
0.755534
10
5.208391
20
0.750711
10
5.199983
20
0.745931
10
5.191551
20
0.741193
10
5.183094
20
0.736498
10
5.174614
20
0.731846
10
5.166111
20
0.727238
10
5.157584
20
0.722673
10
5.149034
20
0.718151
10
5.140461
20
0.713673
10
5.131866
20
0.709239
10
5.123247
20
0.704849
10
5.114607
20
0.700502
10
5.105945
20
0.696200
10
5.097261
20
0.691941
10
5.088555
20
0.687727
10
5.079828
20
0.683557
10
5.071080
20
0.679432
10
5.062311
20
0.675351
10
5.053521
20
0.671315
10
5.044711
20
0.667324
10
5.035881
20
0.663378
10
5.027031
20
0.659477
10
5.018161
20
0.655620
10
5.009271
20
0.651809
10
5.000362
20
0.648044
10
4.991435
20
0.644323
10
4.982488
20
0.640649
10
4.973523
20
0.637019
10
4.964539
20
0.633436
10
4.955537
20
0.629898
10
4.946518
20
0.626406
10
4.937480
20
0.622960
10
4.928426
20
0.619561
10
4.919354
20
0.616207
10
4.910265
20
0.612899
10
4.901159
20
0.609638
10
4.892037
20
0.606423
10
4.882899
20
0.603255
10
4.873744
20
0.600133
10
4.864574
20
0.597058
10
4.572681
20
0.500000
10
7.165074
20
0.500000
10
10.008349
20
3.668882
10
10.014827
20
3.676064
10
10.021341
20
3.683214
10
10.027891
20
3.690330
10
10.034478
20
3.697413
10
10.041100
20
3.704462
10
10.047758
20
3.711477
10
10.054452
20
3.718459
10
10.061181
20
3.725406
10
10.067946
20
3.732319
10
10.074746
20
3.739197
10
10.081580
20
3.746040
10
10.088450
20
3.752849
10
10.095354
20
3.759623
10
10.102292
20
3.766361
10
10.109265
20
3.773064
10
10.116271
20
3.779732
10
10.123312
20
3.786363
10
10.130386
20
3.792959
10
10.137493
20
3.799519
10
10.144634
20
3.806042
10
10.151808
20
3.812529
10
10.159015
20
3.818980
10
10.166255
20
3.825393
10
10.173527
20
3.831770
10
10.180832
20
3.838109
10
10.188169
20
3.844412
10
10.195537
20
3.850676
10
10.202938
20
3.856904
10
10.210370
20
3.863093
10
10.217834
20
3.869245
10
10.225329
20
3.875358
10
10.232854
20
3.881434
10
10.240411
20
3.887471
10
10.247998
20
3.893469
10
10.255616
20
3.899429
10
10.263264
20
3.905349
10
10.270942
20
3.911231
10
10.278650
20
3.917074
10
10.286387
20
3.922877
10
10.294154
20
3.928641
10
10.301950
20
3.934365
10
10.309776
20
3.940050
10
10.317630
20
3.945694
10
10.325512
20
3.951299
10
10.333423
20
3.956863
10
10.341363
20
3.962387
10
10.349330
20
3.967871
10
10.357325
20
3.973313
10
10.365348
20
3.978716
10
10.373398
20
3.984077
10
10.381475
20
3.989397
10
10.389580
20
3.994676
10
10.397711
20
3.999913
10
10.405868
20
4.005110
10
10.414052
20
4.010264
10
10.422263
20
4.015377
10
10.430499
20
4.020448
10
10.438760
20
4.025477
10
10.447048
20
4.030464
10
10.455360
20
4.035409
10
10.463698
20
4.040311
10
10.472060
20
4.045171
10
10.480447
20
4.049988
10
10.488859
20
4.054762
10
10.497294
20
4.059493
10
10.505754
20
4.064182
10
10.514237
20
4.068827
10
10.522744
20
4.073429
10
10.531274
20
4.077988
10
10.539828
20
4.082503
10
10.548404
20
4.086975
10
10.557003
20
4.091403
10
10.565624
20
4.095787
10
10.574268
20
4.100127
10
10.582933
20
4.104423
10
10.591620
20
4.108675
10
10.600329
20
4.112883
10
10.609059
20
4.117046
10
10.617810
20
4.121165
10
10.626582
20
4.125239
10
10.635375
20
4.129269
10
10.644188
20
4.133253
10
10.653021
20
4.137193
10
10.661875
20
4.141088
10
10.670747
20
4.144937
10
10.679640
20
4.148742
10
10.688551
20
4.152501
10
10.697482
20
4.156214
10
10.706431
20
4.159883
10
10.715399
20
4.163505
10
10.724386
20
4.167082
10
10.733390
20
4.170613
10
10.742412
20
4.174098
10
10.751452
20
4.177538
10
10.760509
20
4.180931
10
10.769584
20
4.184278
10
10.778675
20
4.187578
10
10.787783
20
4.190833
10
10.796907
20
4.194041
10
10.806048
20
4.197202
10
10.815205
20
4.200317
10
10.824377
20
4.203386
10
10.833565
20
4.206407
10
10.842768
20
4.209382
10
10.851986
20
4.212310
10
10.861219
20
4.215191
10
10.870467
20
4.218025
10
10.879729
20
4.220812
10
10.889005
20
4.223551
10
10.898294
20
4.226243
10
10.907597
20
4.228889
10
10.916914
20
4.231486
10
10.926244
20
4.234036
10
10.935586
20
4.236539
10
10.944942
20
4.238994
10
10.954309
20
4.241401
10
10.963689
20
4.243761
10
10.973081
20
4.246073
10
10.982484
20
4.248337
10
10.991898
20
4.250553
10
11.001324
20
4.252721
10
11.010761
20
4.254842
10
11.020208
20
4.256914
10
11.029666
20
4.258938
10
11.039134
20
4.260914
10
11.048612
20
4.262841
10
11.058100
20
4.264721
10
11.067597
20
4.266552
10
11.077103
20
4.268334
10
11.086618
20
4.270068
10
11.096142
20
4.271754
10
11.105675
20
4.273392
10
11.115215
20
4.274980
10
11.124764
20
4.276520
10
11.134320
20
4.278012
10
11.143884
20
4.279455
10
11.153455
20
4.280849
10
11.163033
20
4.282194
10
11.172618
20
4.283491
10
11.182209
20
4.284739
10
11.191806
20
4.285938
10
11.201409
20
4.287088
10
11.211019
20
4.288189
10
11.220633
20
4.289241
10
11.230253
20
4.290245
10
11.239878
20
4.291199
10
11.249507
20
4.292104
10
11.259141
20
4.292961
10
11.268779
20
4.293768
10
11.278422
20
4.294526
10
11.288068
20
4.295235
10
11.297717
20
4.295895
10
11.307370
20
4.296506
10
11.317025
20
4.297068
10
11.326684
20
4.297580
10
11.336345
20
4.298044
10
11.346008
20
4.298458
10
11.355673
20
4.298823
10
11.365340
20
4.299139
10
11.375008
20
4.299405
10
11.384677
20
4.299623
10
11.394348
20
4.299791
10
11.404019
20
4.299910
10
11.413691
20
4.299979
10
11.423363
20
4.300000
10
11.433035
20
4.299971
10
11.442707
20
4.299893
10
11.452378
20
4.299766
10
11.462048
20
4.299589
10
11.471717
20
4.299363
10
11.481385
20
4.299089
10
11.491052
20
4.298764
10
11.500717
20
4.298391
10
11.510379
20
4.297968
10
11.520040
20
4.297497
10
11.529698
20
4.296976
10
11.539353
20
4.296406
10
11.549005
20
4.295787
10
11.558654
20
4.295118
10
11.568299
20
4.294401
10
11.577941
20
4.293634
10
11.587578
20
4.292819
10
11.597212
20
4.291954
10
11.606840
20
4.291040
10
11.616464
20
4.290078
10
11.626083
20
4.289066
10
11.635697
20
4.288005
10
11.645305
20
4.286896
10
11.654907
20
4.285737
10
11.664504
20
4.284530
10
11.674094
20
4.283274
10
11.683677
20
4.281969
10
11.693254
20
4.280615
10
11.702824
20
4.279213
10
11.712386
20
4.277762
10
11.721941
20
4.276262
10
11.731489
20
4.274714
10
11.741028
20
4.273117
10
11.750559
20
4.271471
10
11.760081
20
4.269777
10
11.769595
20
4.268035
10
11.779100
20
4.266244
10
11.788595
20
4.264405
10
11.798081
20
4.262517
10
11.807558
20
4.260581
10
11.817024
20
4.258597
10
11.826480
20
4.256565
10
11.835926
20
4.254485
10
11.845360
20
4.252356
10
11.854784
20
4.250180
10
11.864197
20
4.247956
10
11.873598
20
4.245683
10
11.882988
20
4.243363
10
11.892366
20
4.240996
10
11.901731
20
4.238580
10
11.911084
20
4.236117
10
11.920425
20
4.233606
10
11.929752
20
4.231048
10
11.939067
20
4.228442
10
11.948368
20
4.225789
10
11.957655
20
4.223089
10
11.966928
20
4.220341
10
11.976188
20
4.217546
10
11.985433
20
4.214705
10
11.994663
20
4.211816
10
12.003879
20
4.208880
10
12.013080
20
4.205897
10
12.022265
20
4.202868
10
12.031435
20
4.199791
10
12.040589
20
4.196668
10
12.049726
20
4.193499
10
12.058848
20
4.190283
10
12.067953
20
4.187021
10
12.077042
20
4.183712
10
12.086113
20
4.180357
10
12.095168
20
4.176956
10
12.104204
20
4.173509
10
12.113224
20
4.170016
10
12.122225
20
4.166477
10
12.131208
20
4.162893
10
12.140173
20
4.159262
10
12.149119
20
4.155587
10
12.158047
20
4.151865
10
12.166955
20
4.148098
10
12.175844
20
4.144286
10
12.184714
20
4.140429
10
12.193563
20
4.136527
10
12.202393
20
4.132579
10
12.211203
20
4.128587
10
12.219992
20
4.124550
10
12.228760
20
4.120468
10
12.237508
20
4.116342
10
12.246234
20
4.112171
10
12.254940
20
4.107956
10
12.263623
20
4.103696
10
12.272285
20
4.099393
10
12.280925
20
4.095045
10
12.289542
20
4.090653
10
12.298137
20
4.086218
10
12.306709
20
4.081739
10
12.315259
20
4.077216
10
12.323785
20
4.072650
10
12.332288
20
4.068041
10
12.340768
20
4.063388
10
12.349223
20
4.058692
10
12.357655
20
4.053954
10
12.366062
20
4.049172
10
12.374445
20
4.044348
10
12.382803
20
4.039481
10
12.391136
20
4.034571
10
12.399445
20
4.029619
10
12.407728
20
4.024625
10
12.415985
20
4.019589
10
12.424217
20
4.014511
10
12.432422
20
4.009391
10
12.440602
20
4.004229
10
12.448755
20
3.999026
10
12.456882
20
3.993782
10
12.464981
20
3.988496
10
12.473054
20
3.983168
10
12.481100
20
3.977800
10
12.489118
20
3.972391
10
12.497108
20
3.966942
10
12.505071
20
3.961451
10
12.513005
20
3.955920
10
12.520911
20
3.950349
10
12.528789
20
3.944738
10
12.536638
20
3.939086
10
12.544459
20
3.933395
10
12.552250
20
3.927664
10
12.560012
20
3.921894
10
12.567744
20
3.916084
10
12.575447
20
3.910234
10
12.583120
20
3.904346
10
12.590763
20
3.898418
10
12.598375
20
3.892452
10
12.605957
20
3.886447
10
12.613509
20
3.880404
10
12.621029
20
3.874322
10
12.628519
20
3.868202
10
12.635977
20
3.862044
10
12.643404
20
3.855848
10
12.650799
20
3.849614
10
12.658163
20
3.843343
10
12.665494
20
3.837034
10
12.672793
20
3.830689
10
12.680060
20
3.824306
10
12.687294
20
3.817886
10
12.694495
20
3.811429
10
12.701664
20
3.804936
10
12.708799
20
3.798406
10
12.715901
20
3.791841
10
12.722969
20
3.785239
10
12.730004
20
3.778601
10
12.737005
20
3.771928
10
12.743971
20
3.765218
10
12.750904
20
3.758474
10
12.757802
20
3.751694
10
12.764666
20
3.744880
10
12.771494
20
3.738030
10
12.778288
20
3.731146
10
12.785047
20
3.724227
10
12.791770
20
3.717274
10
12.798458
20
3.710287
10
12.805110
20
3.703266
10
12.811726
20
3.696211
10
12.818307
20
3.689123
10
12.824851
20
3.682001
10
12.831359
20
3.674846
10
12.837830
20
3.667658
10
12.844265
20
3.660437
10
12.850663
20
3.653183
10
12.857024
20
3.645897
10
12.863347
20
3.638579
10
12.869634
20
3.631228
10
12.875882
20
3.623846
10
12.882093
20
3.616432
10
12.888267
20
3.608986
10
12.894402
20
3.601509
10
12.900499
20
3.594001
10
12.906558
20
3.586462
10
12.912579
20
3.578892
10
12.918561
20
3.571292
10
12.924504
20
3.563662
10
12.930408
20
3.556001
10
12.936273
20
3.548310
10
12.942099
20
3.540589
10
12.947885
20
3.532839
10
12.953632
20
3.525060
10
12.959339
20
3.517251
10
12.965007
20
3.509414
10
12.970634
20
3.501547
10
12.976222
20
3.493653
10
12.981769
20
3.485729
10
12.987276
20
3.477778
10
12.992742
20
3.469799
10
12.998167
20
3.461792
10
13.003552
20
3.453757
10
13.008896
20
3.445696
10
13.014198
20
3.437607
10
13.019459
20
3.429491
10
13.024679
20
3.421349
10
13.029858
20
3.413180
10
13.034994
20
3.404984
10
13.040089
20
3.396763
10
13.045143
20
3.388516
10
13.050154
20
3.380244
10
13.055122
20
3.371945
10
13.060049
20
3.363622
10
13.064933
20
3.355274
10
13.069775
20
3.346901
10
13.074573
20
3.338503
10
13.079329
20
3.330082
10
13.084043
20
3.321636
10
13.088713
20
3.313166
10
13.093340
20
3.304672
10
13.097923
20
3.296156
10
13.102463
20
3.287615
10
13.106960
20
3.279052
10
13.111413
20
3.270466
10
13.115822
20
3.261858
10
13.120187
20
3.253227
10
13.124509
20
3.244574
10
13.128786
20
3.235899
10
13.133019
20
3.227203
10
13.137208
20
3.218485
10
13.141352
20
3.209746
10
13.145452
20
3.200986
10
13.149507
20
3.192205
10
13.153517
20
3.183403
10
13.157483
20
3.174582
10
13.161403
20
3.165740
10
13.165279
20
3.156878
10
13.169109
20
3.147997
10
13.172894
20
3.139097
10
13.176634
20
3.130177
10
13.180328
20
3.121238
10
13.183977
20
3.112281
10
13.187580
20
3.103305
10
13.191137
20
3.094311
10
13.194649
20
3.085299
10
13.198114
20
3.076269
10
13.201534
20
3.067222
10
13.204907
20
3.058157
10
13.208234
20
3.049076
10
13.211515
20
3.039977
10
13.214750
20
3.030862
10
13.217938
20
3.021731
10
13.221080
20
3.012583
10
13.224175
20
3.003420
10
13.227223
20
2.994241
10
13.230225
20
2.985046
10
13.233180
20
2.975837
10
13.236087
20
2.966612
10
13.238948
20
2.957373
10
13.241762
20
2.948119
10
13.244529
20
2.938851
10
13.247248
20
2.929570
10
13.249920
20
2.920274
10
13.252545
20
2.910965
10
13.255122
20
2.901643
10
13.257652
20
2.892308
10
13.260135
20
2.882960
10
13.262569
20
2.873599
10
13.264956
20
2.864226
10
13.267296
20
2.854841
10
13.269587
20
2.845445
10
13.271831
20
2.836037
10
13.274026
20
2.826617
10
13.276174
20
2.817187
10
13.278274
20
2.807745
10
13.280325
20
2.798293
10
13.282329
20
2.788831
10
13.284284
20
2.779359
10
13.286191
20
2.769877
10
13.288050
20
2.760385
10
13.289860
20
2.750884
10
13.291622
20
2.741374
10
13.293336
20
2.731855
10
13.295001
20
2.722327
10
13.296617
20
2.712792
10
13.298185
20
2.703247
10
13.299705
20
2.693696
10
13.301175
20
2.684136
10
13.302597
20
2.674569
10
13.303971
20
2.664995
10
13.305295
20
2.655414
10
13.306571
20
2.645827
10
13.307798
20
2.636233
10
13.308976
20
2.626633
10
13.310105
20
2.617027
10
13.311186
20
2.607416
10
13.312217
20
2.597799
10
13.313199
20
2.588177
10
13.314133
20
2.578550
10
13.315017
20
2.568919
10
13.315853
20
2.559283
10
13.316639
20
2.549643
10
13.317376
20
2.539999
10
13.318064
20
2.530352
10
13.318703
20
2.520701
10
13.319293
20
2.511047
10
13.319834
20
2.501390
10
13.320325
20
2.491730
10
13.320768
20
2.482069
10
13.321161
20
2.472405
10
13.321505
20
2.462739
10
13.321800
20
2.453071
10
13.322045
20
2.443402
10
13.322242
20
2.433732
10
13.322389
20
2.424062
10
13.322486
20
2.414390
10
13.322535
20
2.404718
10
13.322535
20
2.395046
10
13.322485
20
2.385374
10
13.322386
20
2.375703
10
13.322237
20
2.366032
10
13.322040
20
2.356362
10
13.321793
20
2.346693
10
13.321497
20
2.337026
10
13.321152
20
2.327360
10
13.320758
20
2.317696
10
13.320314
20
2.308034
10
13.319821
20
2.298375
10
13.319279
20
2.288718
10
13.318688
20
2.279064
10
13.318048
20
2.269413
10
13.317359
20
2.259766
10
13.316620
20
2.250122
10
13.315833
20
2.240482
10
13.314996
20
2.230847
10
13.314111
20
2.221215
10
13.313176
20
2.211589
10
13.312193
20
2.201967
10
13.311160
20
2.192350
10
13.310078
20
2.182739
10
13.308948
20
2.173133
10
13.307769
20
2.163533
10
13.306541
20
2.153940
10
13.305264
20
2.144352
10
13.303938
20
2.134772
10
13.302563
20
2.125198
10
13.301140
20
2.115631
10
13.299668
20
2.106072
10
13.298148
20
2.096520
10
13.296578
20
2.086976
10
13.294961
20
2.077440
10
13.293294
20
2.067913
10
13.291580
20
2.058394
10
13.289817
20
2.048884
10
13.288005
20
2.039384
10
13.286145
20
2.029892
10
13.284237
20
2.020410
10
13.282280
20
2.010938
10
13.280276
20
2.001476
10
13.278223
20
1.992025
10
13.276122
20
1.982584
10
13.273973
20
1.973153
10
13.271777
20
1.963734
10
13.269532
20
1.954326
10
13.267239
20
1.944930
10
13.264899
20
1.935545
10
13.262511
20
1.926173
10
13.260075
20
1.916813
10
13.257591
20
1.907465
10
13.255060
20
1.898130
10
13.252482
20
1.888808
10
13.249856
20
1.879499
10
13.247182
20
1.870204
10
13.244462
20
1.860923
10
13.241694
20
1.851655
10
13.238879
20
1.842402
10
13.236017
20
1.833163
10
13.233108
20
1.823939
10
13.230152
20
1.814730
10
13.227150
20
1.805536
10
13.224100
20
1.796357
10
13.221004
20
1.787194
10
13.217861
20
1.778047
10
13.214672
20
1.768916
10
13.211436
20
1.759801
10
13.208154
20
1.750703
10
13.204826
20
1.741622
10
13.201451
20
1.732558
10
13.198030
20
1.723511
10
13.194564
20
1.714481
10
13.191051
20
1.705470
10
13.187493
20
1.696476
10
13.183888
20
1.687501
10
13.180239
20
1.678544
10
13.176543
20
1.669606
10
13.172803
20
1.660686
10
13.169016
20
1.651786
10
13.165185
20
1.642906
10
13.161308
20
1.634044
10
13.157387
20
1.625203
10
13.153420
20
1.616382
10
13.149409
20
1.607581
10
13.145353
20
1.598801
10
13.141252
20
1.590041
10
13.137106
20
1.581303
10
13.132917
20
1.572585
10
13.128682
20
1.563889
10
13.124404
20
1.555215
10
13.120082
20
1.546563
10
13.115715
20
1.537932
10
13.111305
20
1.529324
10
13.106851
20
1.520739
10
13.102353
20
1.512176
10
13.097812
20
1.503637
10
13.093227
20
1.495120
10
13.088599
20
1.486628
10
13.083928
20
1.478158
10
13.079214
20
1.469713
10
13.074457
20
1.461292
10
13.069657
20
1.452895
10
13.064815
20
1.444522
10
13.059929
20
1.436175
10
13.055002
20
1.427852
10
13.050032
20
1.419555
10
13.045020
20
1.411283
10
13.039966
20
1.403036
10
13.034870
20
1.394816
10
13.029732
20
1.386621
10
13.024553
20
1.378453
10
13.019332
20
1.370311
10
13.014069
20
1.362196
10
13.008766
20
1.354108
10
13.003421
20
1.346047
10
12.998036
20
1.338013
10
12.992609
20
1.330007
10
12.987142
20
1.322028
10
12.981634
20
1.314077
10
12.976086
20
1.306155
10
12.970498
20
1.298261
10
12.964869
20
1.290395
10
12.959201
20
1.282558
10
12.953493
20
1.274750
10
12.947745
20
1.266972
10
12.941957
20
1.259222
10
12.936131
20
1.251502
10
12.930265
20
1.243812
10
12.924359
20
1.236152
10
12.918415
20
1.228522
10
12.912433
20
1.220923
10
12.906411
20
1.213354
10
12.900351
20
1.205816
10
12.894253
20
1.198308
10
12.888117
20
1.190832
10
12.881943
20
1.183387
10
12.875731
20
1.175974
10
12.869481
20
1.168592
10
12.863194
20
1.161243
10
12.856869
20
1.153925
10
12.850507
20
1.146640
10
12.844109
20
1.139387
10
12.837673
20
1.132167
10
12.831201
20
1.124979
10
12.824692
20
1.117825
10
12.818147
20
1.110704
10
12.811566
20
1.103617
10
12.804949
20
1.096562
10
12.798295
20
1.089542
10
12.791607
20
1.082556
10
12.784883
20
1.075604
10
12.778123
20
1.068686
10
12.771328
20
1.061803
10
12.764499
20
1.054954
10
12.757635
20
1.048140
10
12.750736
20
1.041361
10
12.743802
20
1.034618
10
12.736835
20
1.027910
10
12.729833
20
1.021237
10
12.722797
20
1.014600
10
12.715728
20
1.007999
10
12.708626
20
1.001434
10
12.701489
20
0.994905
10
12.694320
20
0.988413
10
12.687118
20
0.981957
10
12.679883
20
0.975538
10
12.672616
20
0.969156
10
12.665316
20
0.962811
10
12.657984
20
0.956504
10
12.650620
20
0.950233
10
12.643224
20
0.944001
10
12.635796
20
0.937806
10
12.628337
20
0.931649
10
12.620847
20
0.925529
10
12.613325
20
0.919449
10
12.605773
20
0.913406
10
12.598190
20
0.907402
10
12.590577
20
0.901437
10
12.582934
20
0.895510
10
12.575260
20
0.889623
10
12.567556
20
0.883774
10
12.559823
20
0.877965
10
12.552061
20
0.872196
10
12.544269
20
0.866466
10
12.536448
20
0.860776
10
12.528598
20
0.855125
10
12.520719
20
0.849515
10
12.512812
20
0.843945
10
12.504877
20
0.838415
10
12.496914
20
0.832925
10
12.488923
20
0.827477
10
12.480904
20
0.822068
10
12.472858
20
0.816701
10
12.464784
20
0.811375
10
12.456684
20
0.806090
10
12.448557
20
0.800847
10
12.440403
20
0.795644
10
12.432223
20
0.790484
10
12.424017
20
0.785365
10
12.415784
20
0.780288
10
12.407526
20
0.775253
10
12.399243
20
0.770260
10
12.390934
20
0.765309
10
12.382600
20
0.760400
10
12.374241
20
0.755534
10
12.365858
20
0.750711
10
12.357450
20
0.745931
10
12.349018
20
0.741193
10
12.340561
20
0.736498
10
12.332081
20
0.731846
10
12.323578
20
0.727238
10
12.315051
20
0.722673
10
12.306501
20
0.718151
10
12.297928
20
0.713673
10
12.289333
20
0.709239
10
12.280714
20
0.704849
10
12.272074
20
0.700502
10
12.263412
20
0.696200
10
12.254728
20
0.691941
10
12.246022
20
0.687727
10
12.237295
20
0.683557
10
12.228547
20
0.679432
10
12.219778
20
0.675351
10
12.210988
20
0.671315
10
12.202178
20
0.667324
10
12.193348
20
0.663378
10
12.184498
20
0.659477
10
12.175628
20
0.655620
10
12.166738
20
0.651809
10
12.157829
20
0.648044
10
12.148902
20
0.644323
10
12.139955
20
0.640649
10
12.130990
20
0.637019
10
12.122006
20
0.633436
10
12.113004
20
0.629898
10
12.103985
20
0.626406
10
12.094947
20
0.622960
10
12.085893
20
0.619561
10
12.076821
20
0.616207
10
12.067732
20
0.612899
10
12.058626
20
0.609638
10
12.049504
20
0.606423
10
12.040366
20
0.603255
10
12.031211
20
0.600133
10
12.022041
20
0.597058
10
11.730148
20
0.500000
10
14.322541
20
0.500000
10
17.165816
20
3.668882
10
17.172294
20
3.676064
10
17.178808
20
3.683214
10
17.185358
20
3.690330
10
17.191945
20
3.697413
10
17.198567
20
3.704462
10
17.205225
20
3.711477
10
17.211919
20
3.718459
10
17.218648
20
3.725406
10
17.225413
20
3.732319
10
17.232213
20
3.739197
10
17.239047
20
3.746040
10
17.245917
20
3.752849
10
17.252821
20
3.759623
10
17.259759
20
3.766361
10
17.266732
20
3.773064
10
17.273738
20
3.779732
10
17.280779
20
3.786363
10
17.287853
20
3.792959
10
17.294960
20
3.799519
10
17.302101
20
3.806042
10
17.309275
20
3.812529
10
17.316482
20
3.818980
10
17.323722
20
3.825393
10
17.330994
20
3.831770
10
17.338299
20
3.838109
10
17.345636
20
3.844412
10
17.353004
20
3.850676
10
17.360405
20
3.856904
10
17.367837
20
3.863093
10
17.375301
20
3.869245
10
17.382796
20
3.875358
10
17.390321
20
3.881434
10
17.397878
20
3.887471
10
17.405465
20
3.893469
10
17.413083
20
3.899429
10
17.420731
20
3.905349
10
17.428409
20
3.911231
10
17.436117
20
3.917074
10
17.443854
20
3.922877
10
17.451621
20
3.928641
10
17.459417
20
3.934365
10
17.467243
20
3.940050
10
17.475097
20
3.945694
10
17.482979
20
3.951299
10
17.490890
20
3.956863
10
17.498830
20
3.962387
10
17.506797
20
3.967871
10
17.514792
20
3.973313
10
17.522815
20
3.978716
10
17.530865
20
3.984077
10
17.538942
20
3.989397
10
17.547047
20
3.994676
10
17.555178
20
3.999913
10
17.563335
20
4.005110
10
17.571519
20
4.010264
10
17.579730
20
4.015377
10
17.587966
20
4.020448
10
17.596227
20
4.025477
10
17.604515
20
4.030464
10
17.612827
20
4.035409
10
17.621165
20
4.040311
10
17.629527
20
4.045171
10
17.637914
20
4.049988
10
17.646326
20
4.054762
10
17.654761
20
4.059493
10
17.663221
20
4.064182
10
17.671704
20
4.068827
10
17.680211
20
4.073429
10
17.688741
20
4.077988
10
17.697295
20
4.082503
10
17.705871
20
4.086975
10
17.714470
20
4.091403
10
17.723091
20
4.095787
10
17.731735
20
4.100127
10
17.740400
20
4.104423
10
17.749087
20
4.108675
10
17.757796
20
4.112883
10
17.766526
20
4.117046
10
17.775277
20
4.121165
10
17.784049
20
4.125239
10
17.792842
20
4.129269
10
17.801655
20
4.133253
10
17.810488
20
4.137193
10
17.819342
20
4.141088
10
17.828214
20
4.144937
10
17.837107
20
4.148742
10
17.846018
20
4.152501
10
17.854949
20
4.156214
10
17.863898
20
4.159883
10
17.872866
20
4.163505
10
17.881853
20
4.167082
10
17.890857
20
4.170613
10
17.899879
20
4.174098
10
17.908919
20
4.177538
10
17.917976
20
4.180931
10
17.927051
20
4.184278
10
17.936142
20
4.187578
10
17.945250
20
4.190833
10
17.954374
20
4.194041
10
17.963515
20
4.197202
10
17.972672
20
4.200317
10
17.981844
20
4.203386
10
17.991032
20
4.206407
10
18.000235
20
4.209382
10
18.009453
20
4.212310
10
18.018686
20
4.215191
10
18.027934
20
4.218025
10
18.037196
20
4.220812
10
18.046472
20
4.223551
10
18.055761
20
4.226243
10
18.065064
20
4.228889
10
18.074381
20
4.231486
10
18.083711
20
4.234036
10
18.093053
20
4.236539
10
18.102409
20
4.238994
10
18.111776
20
4.241401
10
18.121156
20
4.243761
10
18.130548
20
4.246073
10
18.139951
20
4.248337
10
18.149365
20
4.250553
10
18.158791
20
4.252721
10
18.168228
20
4.254842
10
18.177675
20
4.256914
10
18.187133
20
4.258938
10
18.196601
20
4.260914
10
18.206079
20
4.262841
10
18.215567
20
4.264721
10
18.225064
20
4.266552
10
18.234570
20
4.268334
10
18.244085
20
4.270068
10
18.253609
20
4.271754
10
18.263142
20
4.273392
10
18.272682
20
4.274980
10
18.282231
20
4.276520
10
18.291787
20
4.278012
10
18.301351
20
4.279455
10
18.310922
20
4.280849
10
18.320500
20
4.282194
10
18.330085
20
4.283491
10
18.339676
20
4.284739
10
18.349273
20
4.285938
10
18.358876
20
4.287088
10
18.368486
20
4.288189
10
18.378100
20
4.289241
10
18.387720
20
4.290245
10
18.397345
20
4.291199
10
18.406974
20
4.292104
10
18.416608
20
4.292961
10
18.426246
20
4.293768
10
18.435889
20
4.294526
10
18.445535
20
4.295235
10
18.455184
20
4.295895
10
18.464837
20
4.296506
10
18.474492
20
4.297068
10
18.484151
20
4.297580
10
18.493812
20
4.298044
10
18.503475
20
4.298458
10
18.513140
20
4.298823
10
18.522807
20
4.299139
10
18.532475
20
4.299405
10
18.542144
20
4.299623
10
18.551815
20
4.299791
10
18.561486
20
4.299910
10
18.571158
20
4.299979
10
18.580830
20
4.300000
10
18.590502
20
4.299971
10
18.600174
20
4.299893
10
18.609845
20
4.299766
10
18.619515
20
4.299589
10
18.629184
20
4.299363
10
18.638852
20
4.299089
10
18.648519
20
4.298764
10
18.658184
20
4.298391
10
18.667847
20
4.297968
10
18.677507
20
4.297497
10
18.687165
20
4.296976
10
18.696820
20
4.296406
10
18.706472
20
4.295787
10
18.716121
20
4.295118
10
18.725766
20
4.294401
10
18.735408
20
4.293634
10
18.745046
20
4.292819
10
18.754679
20
4.291954
10
18.764307
20
4.291040
10
18.773931
20
4.290078
10
18.783550
20
4.289066
10
18.793164
20
4.288005
10
18.802772
20
4.286896
10
18.812374
20
4.285737
10
18.821971
20
4.284530
10
18.831561
20
4.283274
10
18.841144
20
4.281969
10
18.850721
20
4.280615
10
18.860291
20
4.279213
10
18.869853
20
4.277762
10
18.879408
20
4.276262
10
18.888956
20
4.274714
10
18.898495
20
4.273117
10
18.908026
20
4.271471
10
18.917548
20
4.269777
10
18.927062
20
4.268035
10
18.936567
20
4.266244
10
18.946062
20
4.264405
10
18.955548
20
4.262517
10
18.965025
20
4.260581
10
18.974491
20
4.258597
10
18.983947
20
4.256565
10
18.993393
20
4.254485
10
19.002827
20
4.252356
10
19.012251
20
4.250180
10
19.021664
20
4.247956
10
19.031065
20
4.245683
10
19.040455
20
4.243363
10
19.049833
20
4.240996
10
19.059198
20
4.238580
10
19.068551
20
4.236117
10
19.077892
20
4.233606
10
19.087219
20
4.231048
10
19.096534
20
4.228442
10
19.105835
20
4.225789
10
19.115122
20
4.223089
10
19.124395
20
4.220341
10
19.133655
20
4.217546
10
19.142900
20
4.214705
10
19.152130
20
4.211816
10
19.161346
20
4.208880
10
19.170547
20
4.205897
10
19.179732
20
4.202868
10
19.188902
20
4.199791
10
19.198056
20
4.196668
10
19.207193
20
4.193499
10
19.216315
20
4.190283
10
19.225420
20
4.187021
10
19.234509
20
4.183712
10
19.243580
20
4.180357
10
19.252635
20
4.176956
10
19.261671
20
4.173509
10
19.270691
20
4.170016
10
19.279692
20
4.166477
10
19.288675
20
4.162893
10
19.297640
20
4.159262
10
19.306586
20
4.155587
10
19.315514
20
4.151865
10
19.324422
20
4.148098
10
19.333311
20
4.144286
10
19.342181
20
4.140429
10
19.351030
20
4.136527
10
19.359860
20
4.132579
10
19.368670
20
4.128587
10
19.377459
20
4.124550
10
19.386227
20
4.120468
10
19.394975
20
4.116342
10
19.403701
20
4.112171
10
19.412407
20
4.107956
10
19.421090
20
4.103696
10
19.429752
20
4.099393
10
19.438392
20
4.095045
10
19.447009
20
4.090653
10
19.455604
20
4.086218
10
19.464177
20
4.081739
10
19.472726
20
4.077216
10
19.481252
20
4.072650
10
19.489755
20
4.068041
10
19.498235
20
4.063388
10
19.506690
20
4.058692
10
19.515122
20
4.053954
10
19.523529
20
4.049172
10
19.531912
20
4.044348
10
19.540270
20
4.039481
10
19.548603
20
4.034571
10
19.556912
20
4.029619
10
19.565195
20
4.024625
10
19.573452
20
4.019589
10
19.581684
20
4.014511
10
19.589889
20
4.009391
10
19.598069
20
4.004229
10
19.606222
20
3.999026
10
19.614349
20
3.993782
10
19.622448
20
3.988496
10
19.630521
20
3.983168
10
19.638567
20
3.977800
10
19.646585
20
3.972391
10
19.654575
20
3.966942
10
19.662538
20
3.961451
10
19.670472
20
3.955920
10
19.678378
20
3.950349
10
19.686256
20
3.944738
10
19.694105
20
3.939086
10
19.701926
20
3.933395
10
19.709717
20
3.927664
10
19.717479
20
3.921894
10
19.725211
20
3.916084
10
19.732914
20
3.910234
10
19.740587
20
3.904346
10
19.748230
20
3.898418
10
19.755842
20
3.892452
10
19.763424
20
3.886447
10
19.770976
20
3.880404
10
19.778496
20
3.874322
10
19.785986
20
3.868202
10
19.793444
20
3.862044
10
19.800871
20
3.855848
10
19.808266
20
3.849614
10
19.815630
20
3.843343
10
19.822961
20
3.837034
10
19.830260
20
3.830689
10
19.837527
20
3.824306
10
19.844761
20
3.817886
10
19.851962
20
3.811429
10
19.859131
20
3.804936
10
19.866266
20
3.798406
10
19.873368
20
3.791841
10
19.880436
20
3.785239
10
19.887471
20
3.778601
10
19.894472
20
3.771928
10
19.901439
20
3.765218
10
19.908371
20
3.758474
10
19.915269
20
3.751694
10
19.922133
20
3.744880
10
19.928961
20
3.738030
10
19.935755
20
3.731146
10
19.942514
20
3.724227
10
19.949237
20
3.717274
10
19.955925
20
3.710287
10
19.962577
20
3.703266
10
19.969193
20
3.696211
10
19.975774
20
3.689123
10
19.982318
20
3.682001
10
19.988826
20
3.674846
10
19.995297
20
3.667658
10
20.001732
20
3.660437
10
20.008130
20
3.653183
10
20.014491
20
3.645897
10
20.020814
20
3.638579
10
20.027101
20
3.631228
10
20.033349
20
3.623846
10
20.039560
20
3.616432
10
20.045734
20
3.608986
10
20.051869
20
3.601509
10
20.057966
20
3.594001
10
20.064025
20
3.586462
10
20.070046
20
3.578892
10
20.076028
20
3.571292
10
20.081971
20
3.563662
10
20.087875
20
3.556001
10
20.093740
20
3.548310
10
20.099566
20
3.540589
10
20.105352
20
3.532839
10
20.111099
20
3.525060
10
20.116806
20
3.517251
10
20.122474
20
3.509414
10
20.128101
20
3.501547
10
20.133689
20
3.493653
10
20.139236
20
3.485729
10
20.144743
20
3.477778
10
20.150209
20
3.469799
10
20.155634
20
3.461792
10
20.161019
20
3.453757
10
20.166363
20
3.445696
10
20.171665
20
3.437607
10
20.176926
20
3.429491
10
20.182146
20
3.421349
10
20.187325
20
3.413180
10
20.192462
20
3.404984
10
20.197556
20
3.396763
10
20.202610
20
3.388516
10
20.207621
20
3.380244
10
20.212589
20
3.371945
10
20.217516
20
3.363622
10
20.222400
20
3.355274
10
20.227242
20
3.346901
10
20.232040
20
3.338503
10
20.236796
20
3.330082
10
20.241510
20
3.321636
10
20.246180
20
3.313166
10
20.250807
20
3.304672
10
20.255390
20
3.296156
10
20.259930
20
3.287615
10
20.264427
20
3.279052
10
20.268880
20
3.270466
10
20.273289
20
3.261858
10
20.277655
20
3.253227
10
20.281976
20
3.244574
10
20.286253
20
3.235899
10
20.290486
20
3.227203
10
20.294675
20
3.218485
10
20.298819
20
3.209746
10
20.302919
20
3.200986
10
20.306974
20
3.192205
10
20.310984
20
3.183403
10
20.314950
20
3.174582
10
20.318870
20
3.165740
10
20.322746
20
3.156878
10
20.326576
20
3.147997
10
20.330361
20
3.139097
10
20.334101
20
3.130177
10
20.337795
20
3.121238
10
20.341444
20
3.112281
10
20.345047
20
3.103305
10
20.348604
20
3.094311
10
20.352116
20
3.085299
10
20.355581
20
3.076269
10
20.359001
20
3.067222
10
20.362374
20
3.058157
10
20.365701
20
3.049076
10
20.368982
20
3.039977
10
20.372217
20
3.030862
10
20.375405
20
3.021731
10
20.378547
20
3.012583
10
20.381642
20
3.003420
10
20.384690
20
2.994241
10
20.387692
20
2.985046
10
20.390647
20
2.975837
10
20.393554
20
2.966612
10
20.396415
20
2.957373
10
20.399229
20
2.948119
10
20.401996
20
2.938851
10
20.404715
20
2.929570
10
20.407387
20
2.920274
10
20.410012
20
2.910965
10
20.412589
20
2.901643
10
20.415119
20
2.892308
10
20.417602
20
2.882960
10
20.420036
20
2.873599
10
20.422423
20
2.864226
10
20.424763
20
2.854841
10
20.427054
20
2.845445
10
20.429298
20
2.836037
10
20.431493
20
2.826617
10
20.433641
20
2.817187
10
20.435741
20
2.807745
10
20.437792
20
2.798293
10
20.439796
20
2.788831
10
20.441751
20
2.779359
10
20.443658
20
2.769877
10
20.445517
20
2.760385
10
20.447327
20
2.750884
10
20.449089
20
2.741374
10
20.450803
20
2.731855
10
20.452468
20
2.722327
10
20.454084
20
2.712792
10
20.455652
20
2.703247
10
20.457172
20
2.693696
10
20.458642
20
2.684136
10
20.460064
20
2.674569
10
20.461438
20
2.664995
10
20.462762
20
2.655414
10
20.464038
20
2.645827
10
20.465265
20
2.636233
10
20.466443
20
2.626633
10
20.467572
20
2.617027
10
20.468653
20
2.607416
10
20.469684
20
2.597799
10
20.470666
20
2.588177
10
20.471600
20
2.578550
10
20.472484
20
2.568919
10
20.473320
20
2.559283
10
20.474106
20
2.549643
10
20.474843
20
2.539999
10
20.475531
20
2.530352
10
20.476170
20
2.520701
10
20.476760
20
2.511047
10
20.477301
20
2.501390
10
20.477792
20
2.491730
10
20.478235
20
2.482069
10
20.478628
20
2.472405
10
20.478972
20
2.462739
10
20.479267
20
2.453071
10
20.479512
20
2.443402
10
20.479709
20
2.433732
10
20.479856
20
2.424062
10
20.479954
20
2.414390
10
20.480002
20
2.404718
10
20.480002
20
2.395046
10
20.479952
20
2.385374
10
20.479853
20
2.375703
10
20.479704
20
2.366032
10
20.479507
20
2.356362
10
20.479260
20
2.346693
10
20.478964
20
2.337026
10
20.478619
20
2.327360
10
20.478225
20
2.317696
10
20.477781
20
2.308034
10
20.477288
20
2.298375
10
20.476746
20
2.288718
10
20.476155
20
2.279064
10
20.475515
20
2.269413
10
20.474826
20
2.259766
10
20.474087
20
2.250122
10
20.473300
20
2.240482
10
20.472463
20
2.230847
10
20.471578
20
2.221215
10
20.470643
20
2.211589
10
20.469660
20
2.201967
10
20.468627
20
2.192350
10
20.467545
20
2.182739
10
20.466415
20
2.173133
10
20.465236
20
2.163533
10
20.464008
20
2.153940
10
20.462731
20
2.144352
10
20.461405
20
2.134772
10
20.460030
20
2.125198
10
20.458607
20
2.115631
10
20.457135
20
2.106072
10
20.455615
20
2.096520
10
20.454045
20
2.086976
10
20.452428
20
2.077440
10
20.450761
20
2.067913
10
20.449047
20
2.058394
10
20.447284
20
2.048884
10
20.445472
20
2.039384
10
20.443612
20
2.029892
10
20.441704
20
2.020410
10
20.439747
20
2.010938
10
20.437743
20
2.001476
10
20.435690
20
1.992025
10
20.433589
20
1.982584
10
20.431440
20
1.973153
10
20.429244
20
1.963734
10
20.426999
20
1.954326
10
20.424706
20
1.944930
10
20.422366
20
1.935545
10
20.419978
20
1.926173
10
20.417542
20
1.916813
10
20.415058
20
1.907465
10
20.412527
20
1.898130
10
20.409949
20
1.888808
10
20.407323
20
1.879499
10
20.404649
20
1.870204
10
20.401929
20
1.860923
10
20.399161
20
1.851655
10
20.396346
20
1.842402
10
20.393484
20
1.833163
10
20.390575
20
1.823939
10
20.387619
20
1.814730
10
20.384617
20
1.805536
10
20.381567
20
1.796357
10
20.378471
20
1.787194
10
20.375328
20
1.778047
10
20.372139
20
1.768916
10
20.368903
20
1.759801
10
20.365621
20
1.750703
10
20.362293
20
1.741622
10
20.358918
20
1.732558
10
20.355497
20
1.723511
10
20.352031
20
1.714481
10
20.348518
20
1.705470
10
20.344960
20
1.696476
10
20.341355
20
1.687501
10
20.337706
20
1.678544
10
20.334010
20
1.669606
10
20.330270
20
1.660686
10
20.326483
20
1.651786
10
20.322652
20
1.642906
10
20.318775
20
1.634044
10
20.314854
20
1.625203
10
20.310887
20
1.616382
10
20.306876
20
1.607581
10
20.302820
20
1.598801
10
20.298719
20
1.590041
10
20.294573
20
1.581303
10
20.290384
20
1.572585
10
20.286149
20
1.563889
10
20.281871
20
1.555215
10
20.277549
20
1.546563
10
20.273182
20
1.537932
10
20.268772
20
1.529324
10
20.264318
20
1.520739
10
20.259820
20
1.512176
10
20.255279
20
1.503637
10
20.250694
20
1.495120
10
20.246066
20
1.486628
10
20.241395
20
1.478158
10
20.236681
20
1.469713
10
20.231924
20
1.461292
10
20.227124
20
1.452895
10
20.222282
20
1.444522
10
20.217396
20
1.436175
10
20.212469
20
1.427852
10
20.207499
20
1.419555
10
20.202487
20
1.411283
10
20.197433
20
1.403036
10
20.192337
20
1.394816
10
20.187199
20
1.386621
10
20.182020
20
1.378453
10
20.176799
20
1.370311
10
20.171536
20
1.362196
10
20.166233
20
1.354108
10
20.160888
20
1.346047
10
20.155503
20
1.338013
10
20.150076
20
1.330007
10
20.144609
20
1.322028
10
20.139101
20
1.314077
10
20.133553
20
1.306155
10
20.127965
20
1.298261
10
20.122336
20
1.290395
10
20.116668
20
1.282558
10
20.110960
20
1.274750
10
20.105212
20
1.266972
10
20.099424
20
1.259222
10
20.093598
20
1.251502
10
20.087732
20
1.243812
10
20.081826
20
1.236152
10
20.075882
20
1.228522
10
20.069900
20
1.220923
10
20.063878
20
1.213354
10
20.057818
20
1.205816
10
20.051720
20
1.198308
10
20.045584
20
1.190832
10
20.039410
20
1.183387
10
20.033198
20
1.175974
10
20.026948
20
1.168592
10
20.020661
20
1.161243
10
20.014336
20
1.153925
10
20.007974
20
1.146640
10
20.001576
20
1.139387
10
19.995140
20
1.132167
10
19.988668
20
1.124979
10
19.982159
20
1.117825
10
19.975614
20
1.110704
10
19.969033
20
1.103617
10
19.962416
20
1.096562
10
19.955762
20
1.089542
10
19.949074
20
1.082556
10
19.942350
20
1.075604
10
19.935590
20
1.068686
10
19.928795
20
1.061803
10
19.921966
20
1.054954
10
19.915102
20
1.048140
10
19.908203
20
1.041361
10
19.901269
20
1.034618
10
19.894302
20
1.027910
10
19.887300
20
1.021237
10
19.880264
20
1.014600
10
19.873195
20
1.007999
10
19.866093
20
1.001434
10
19.858956
20
0.994905
10
19.851787
20
0.988413
10
19.844585
20
0.981957
10
19.837350
20
0.975538
10
19.830083
20
0.969156
10
19.822783
20
0.962811
10
19.815451
20
0.956504
10
19.808087
20
0.950233
10
19.800691
20
0.944001
10
19.793263
20
0.937806
10
19.785804
20
0.931649
10
19.778314
20
0.925529
10
19.770792
20
0.919449
10
19.763240
20
0.913406
10
19.755657
20
0.907402
10
19.748044
20
0.901437
10
19.740401
20
0.895510
10
19.732727
20
0.889623
10
19.725023
20
0.883774
10
19.717290
20
0.877965
10
19.709528
20
0.872196
10
19.701736
20
0.866466
10
19.693915
20
0.860776
10
19.686065
20
0.855125
10
19.678186
20
0.849515
10
19.670279
20
0.843945
10
19.662344
20
0.838415
10
19.654381
20
0.832925
10
19.646390
20
0.827477
10
19.638371
20
0.822068
10
19.630325
20
0.816701
10
19.622251
20
0.811375
10
19.614151
20
0.806090
10
19.606024
20
0.800847
10
19.597870
20
0.795644
10
19.589690
20
0.790484
10
19.581484
20
0.785365
10
19.573251
20
0.780288
10
19.564993
20
0.775253
10
19.556710
20
0.770260
10
19.548401
20
0.765309
10
19.540067
20
0.760400
10
19.531708
20
0.755534
10
19.523325
20
0.750711
10
19.514917
20
0.745931
10
19.506485
20
0.741193
10
19.498028
20
0.736498
10
19.489548
20
0.731846
10
19.481045
20
0.727238
10
19.472518
20
0.722673
10
19.463968
20
0.718151
10
19.455395
20
0.713673
10
19.446800
20
0.709239
10
19.438182
20
0.704849
10
19.429541
20
0.700502
10
19.420879
20
0.696200
10
19.412195
20
0.691941
10
19.403489
20
0.687727
10
19.394762
20
0.683557
10
19.386014
20
0.679432
10
19.377245
20
0.675351
10
19.368455
20
0.671315
10
19.359645
20
0.667324
10
19.350815
20
0.663378
10
19.341965
20
0.659477
10
19.333095
20
0.655620
10
19.324205
20
0.651809
10
19.315296
20
0.648044
10
19.306369
20
0.644323
10
19.297422
20
0.640649
10
19.288457
20
0.637019
10
19.279473
20
0.633436
10
19.270471
20
0.629898
10
19.261452
20
0.626406
10
19.252414
20
0.622960
10
19.243360
20
0.619561
10
19.234288
20
0.616207
10
19.225199
20
0.612899
10
19.216093
20
0.609638
10
19.206971
20
0.606423
10
19.197833
20
0.603255
10
19.188678
20
0.600133
10
19.179508
20
0.597058
10
18.887615
20
0.500000
10
21.480008
20
0.500000
10
24.323283
20
3.668882
10
24.329761
20
3.676064
10
24.336275
20
3.683214
10
24.342825
20
3.690330
10
24.349412
20
3.697413
10
24.356034
20
3.704462
10
24.362692
20
3.711477
10
24.369386
20
3.718459
10
24.376115
20
3.725406
10
24.382880
20
3.732319
10
24.389680
20
3.739197
10
24.396514
20
3.746040
10
24.403384
20
3.752849
10
24.410288
20
3.759623
10
24.417226
20
3.766361
10
24.424199
20
3.773064
10
24.431205
20
3.779732
10
24.438246
20
3.786363
10
24.445320
20
3.792959
10
24.452427
20
3.799519
10
24.459568
20
3.806042
10
24.466742
20
3.812529
10
24.473949
20
3.818980
10
24.481189
20
3.825393
10
24.488461
20
3.831770
10
24.495766
20
3.838109
10
24.503103
20
3.844412
10
24.510471
20
3.850676
10
24.517872
20
3.856904
10
24.525304
20
3.863093
10
24.532768
20
3.869245
10
24.540263
20
3.875358
10
24.547788
20
3.881434
10
24.555345
20
3.887471
10
24.562932
20
3.893469
10
24.570550
20
3.899429
10
24.578198
20
3.905349
10
24.585876
20
3.911231
10
24.593584
20
3.917074
10
24.601321
20
3.922877
10
24.609088
20
3.928641
10
24.616884
20
3.934365
10
24.624710
20
3.940050
10
24.632564
20
3.945694
10
24.640446
20
3.951299
10
24.648357
20
3.956863
10
24.656297
20
3.962387
10
24.664264
20
3.967871
10
24.672259
20
3.973313
10
24.680282
20
3.978716
10
24.688332
20
3.984077
10
24.696409
20
3.989397
10
24.704514
20
3.994676
10
24.712645
20
3.999913
10
24.720802
20
4.005110
10
24.728986
20
4.010264
10
24.737197
20
4.015377
10
24.745433
20
4.020448
10
24.753694
20
4.025477
10
24.761982
20
4.030464
10
24.770294
20
4.035409
10
24.778632
20
4.040311
10
24.786994
20
4.045171
10
24.795381
20
4.049988
10
24.803793
20
4.054762
10
24.812228
20
4.059493
10
24.820688
20
4.064182
10
24.829171
20
4.068827
10
24.837678
20
4.073429
10
24.846208
20
4.077988
10
24.854762
20
4.082503
10
24.863338
20
4.086975
10
24.871937
20
4.091403
10
24.880558
20
4.095787
10
24.889202
20
4.100127
10
24.897867
20
4.104423
10
24.906554
20
4.108675
10
24.915263
20
4.112883
10
24.923993
20
4.117046
10
24.932744
20
4.121165
10
24.941516
20
4.125239
10
24.950309
20
4.129269
10
24.959122
20
4.133253
10
24.967955
20
4.137193
10
24.976809
20
4.141088
10
24.985681
20
4.144937
10
24.994574
20
4.148742
10
25.003485
20
4.152501
10
25.012416
20
4.156214
10
25.021365
20
4.159883
10
25.030333
20
4.163505
10
25.039320
20
4.167082
10
25.048324
20
4.170613
10
25.057346
20
4.174098
10
25.066386
20
4.177538
10
25.075443
20
4.180931
10
25.084518
20
4.184278
10
25.093609
20
4.187578
10
25.102717
20
4.190833
10
25.111841
20
4.194041
10
25.120982
20
4.197202
10
25.130139
20
4.200317
10
25.139311
20
4.203386
10
25.148499
20
4.206407
10
25.157702
20
4.209382
10
25.166920
20
4.212310
10
25.176153
20
4.215191
10
25.185401
20
4.218025
10
25.194663
20
4.220812
10
25.203939
20
4.223551
10
25.213228
20
4.226243
10
25.222532
20
4.228889
10
25.231848
20
4.231486
10
25.241178
20
4.234036
10
25.250520
20
4.236539
10
25.259876
20
4.238994
10
25.269243
20
4.241401
10
25.278623
20
4.243761
10
25.288015
20
4.246073
10
25.297418
20
4.248337
10
25.306832
20
4.250553
10
25.316258
20
4.252721
10
25.325695
20
4.254842
10
25.335142
20
4.256914
10
25.344600
20
4.258938
10
25.354068
20
4.260914
10
25.363546
20
4.262841
10
25.373034
20
4.264721
10
25.382531
20
4.266552
10
25.392037
20
4.268334
10
25.401552
20
4.270068
10
25.411076
20
4.271754
10
25.420609
20
4.273392
10
25.430149
20
4.274980
10
25.439698
20
4.276520
10
25.449254
20
4.278012
10
25.458818
20
4.279455
10
25.468389
20
4.280849
10
25.477967
20
4.282194
10
25.487552
20
4.283491
10
25.497143
20
4.284739
10
25.506740
20
4.285938
10
25.516343
20
4.287088
10
25.525953
20
4.288189
10
25.535567
20
4.289241
10
25.545187
20
4.290245
10
25.554812
20
4.291199
10
25.564441
20
4.292104
10
25.574075
20
4.292961
10
25.583713
20
4.293768
10
25.593356
20
4.294526
10
25.603002
20
4.295235
10
25.612651
20
4.295895
10
25.622304
20
4.296506
10
25.631959
20
4.297068
10
25.641618
20
4.297580
10
25.651279
20
4.298044
10
25.660942
20
4.298458
10
25.670607
20
4.298823
10
25.680274
20
4.299139
10
25.689942
20
4.299405
10
25.699611
20
4.299623
10
25.709282
20
4.299791
10
25.718953
20
4.299910
10
25.728625
20
4.299979
10
25.738297
20
4.300000
10
25.747969
20
4.299971
10
25.757641
20
4.299893
10
25.767312
20
4.299766
10
25.776982
20
4.299589
10
25.786651
20
4.299363
10
25.796319
20
4.299089
10
25.805986
20
4.298764
10
25.815651
20
4.298391
10
25.825314
20
4.297968
10
25.834974
20
4.297497
10
25.844632
20
4.296976
10
25.854287
20
4.296406
10
25.863939
20
4.295787
10
25.873588
20
4.295118
10
25.883233
20
4.294401
10
25.892875
20
4.293634
10
25.902513
20
4.292819
10
25.912146
20
4.291954
10
25.921774
20
4.291040
10
25.931398
20
4.290078
10
25.941017
20
4.289066
10
25.950631
20
4.288005
10
25.960239
20
4.286896
10
25.969842
20
4.285737
10
25.979438
20
4.284530
10
25.989028
20
4.283274
10
25.998611
20
4.281969
10
26.008188
20
4.280615
10
26.017758
20
4.279213
10
26.027320
20
4.277762
10
26.036875
20
4.276262
10
26.046423
20
4.274714
10
26.055962
20
4.273117
10
26.065493
20
4.271471
10
26.075015
20
4.269777
10
26.084529
20
4.268035
10
26.094034
20
4.266244
10
26.103529
20
4.264405
10
26.113015
20
4.262517
10
26.122492
20
4.260581
10
26.131958
20
4.258597
10
26.141414
20
4.256565
10
26.150860
20
4.254485
10
26.160294
20
4.252356
10
26.169718
20
4.250180
10
26.179131
20
4.247956
10
26.188532
20
4.245683
10
26.197922
20
4.243363
10
26.207300
20
4.240996
10
26.216665
20
4.238580
10
26.226018
20
4.236117
10
26.235359
20
4.233606
10
26.244686
20
4.231048
10
26.254001
20
4.228442
10
26.263302
20
4.225789
10
26.272589
20
4.223089
10
26.281862
20
4.220341
10
26.291122
20
4.217546
10
26.300367
20
4.214705
10
26.309597
20
4.211816
10
26.318813
20
4.208880
10
26.328014
20
4.205897
10
26.337199
20
4.202868
10
26.346369
20
4.199791
10
26.355523
20
4.196668
10
26.364660
20
4.193499
10
26.373782
20
4.190283
10
26.382887
20
4.187021
10
26.391976
20
4.183712
10
26.401047
20
4.180357
10
26.410102
20
4.176956
10
26.419138
20
4.173509
10
26.428158
20
4.170016
10
26.437159
20
4.166477
10
26.446142
20
4.162893
10
26.455107
20
4.159262
10
26.464053
20
4.155587
10
26.472981
20
4.151865
10
26.481889
20
4.148098
10
26.490778
20
4.144286
10
26.499648
20
4.140429
10
26.508497
20
4.136527
10
26.517327
20
4.132579
10
26.526137
20
4.128587
10
26.534926
20
4.124550
10
26.543694
20
4.120468
10
26.552442
20
4.116342
10
26.561168
20
4.112171
10
26.569874
20
4.107956
10
26.578557
20
4.103696
10
26.587219
20
4.099393
10
26.595859
20
4.095045
10
26.604476
20
4.090653
10
26.613071
20
4.086218
10
26.621644
20
4.081739
10
26.630193
20
4.077216
10
26.638719
20
4.072650
10
26.647222
20
4.068041
10
26.655702
20
4.063388
10
26.664157
20
4.058692
10
26.672589
20
4.053954
10
26.680996
20
4.049172
10
26.689379
20
4.044348
10
26.697737
20
4.039481
10
26.706070
20
4.034571
10
26.714379
20
4.029619
10
26.722662
20
4.024625
10
26.730919
20
4.019589
10
26.739151
20
4.014511
10
26.747356
20
4.009391
10
26.755536
20
4.004229
10
26.763689
20
3.999026
10
26.771816
20
3.993782
10
26.779915
20
3.988496
10
26.787988
20
3.983168
10
26.796034
20
3.977800
10
26.804052
20
3.972391
10
26.812042
20
3.966942
10
26.820005
20
3.961451
10
26.827939
20
3.955920
10
26.835845
20
3.950349
10
26.843723
20
3.944738
10
26.851572
20
3.939086
10
26.859393
20
3.933395
10
26.867184
20
3.927664
10
26.874946
20
3.921894
10
26.882678
20
3.916084
10
26.890381
20
3.910234
10
26.898054
20
3.904346
10
26.905697
20
3.898418
10
26.913309
20
3.892452
10
26.920891
20
3.886447
10
26.928443
20
3.880404
10
26.935963
20
3.874322
10
26.943453
20
3.868202
10
26.950911
20
3.862044
10
26.958338
20
3.855848
10
26.965733
20
3.849614
10
26.973097
20
3.843343
10
26.980428
20
3.837034
10
26.987727
20
3.830689
10
26.994994
20
3.824306
10
27.002228
20
3.817886
10
27.009429
20
3.811429
10
27.016598
20
3.804936
10
27.023733
20
3.798406
10
27.030835
20
3.791841
10
27.037903
20
3.785239
10
27.044938
20
3.778601
10
27.051939
20
3.771928
10
27.058906
20
3.765218
10
27.065838
20
3.758474
10
27.072736
20
3.751694
10
27.079600
20
3.744880
10
27.086428
20
3.738030
10
27.093222
20
3.731146
10
27.099981
20
3.724227
10
27.106704
20
3.717274
10
27.113392
20
3.710287
10
27.120044
20
3.703266
10
27.126660
20
3.696211
10
27.133241
20
3.689123
10
27.139785
20
3.682001
10
27.146293
20
3.674846
10
27.152764
20
3.667658
10
27.159199
20
3.660437
10
27.165597
20
3.653183
10
27.171958
20
3.645897
10
27.178281
20
3.638579
10
27.184568
20
3.631228
10
27.190816
20
3.623846
10
27.197028
20
3.616432
10
27.203201
20
3.608986
10
27.209336
20
3.601509
10
27.215433
20
3.594001
10
27.221492
20
3.586462
10
27.227513
20
3.578892
10
27.233495
20
3.571292
10
27.239438
20
3.563662
10
27.245342
20
3.556001
10
27.251207
20
3.548310
10
27.257033
20
3.540589
10
27.262819
20
3.532839
10
27.268566
20
3.525060
10
27.274274
20
3.517251
10
27.279941
20
3.509414
10
27.285568
20
3.501547
10
27.291156
20
3.493653
10
27.296703
20
3.485729
10
27.302210
20
3.477778
10
27.307676
20
3.469799
10
27.313101
20
3.461792
10
27.318486
20
3.453757
10
27.323830
20
3.445696
10
27.329132
20
3.437607
10
27.334393
20
3.429491
10
27.339613
20
3.421349
10
27.344792
20
3.413180
10
27.349929
20
3.404984
10
27.355024
20
3.396763
10
27.360077
20
3.388516
10
27.365088
20
3.380244
10
27.370056
20
3.371945
10
27.374983
20
3.363622
10
27.379867
20
3.355274
10
27.384709
20
3.346901
10
27.389507
20
3.338503
10
27.394264
20
3.330082
10
27.398977
20
3.321636
10
27.403647
20
3.313166
10
27.408274
20
3.304672
10
27.412857
20
3.296156
10
27.417397
20
3.287615
10
27.421894
20
3.279052
10
27.426347
20
3.270466
10
27.430756
20
3.261858
10
27.435122
20
3.253227
10
27.439443
20
3.244574
10
27.443720
20
3.235899
10
27.447953
20
3.227203
10
27.452142
20
3.218485
10
27.456286
20
3.209746
10
27.460386
20
3.200986
10
27.464441
20
3.192205
10
27.468451
20
3.183403
10
27.472417
20
3.174582
10
27.476337
20
3.165740
10
27.480213
20
3.156878
10
27.484043
20
3.147997
10
27.487828
20
3.139097
10
27.491568
20
3.130177
10
27.495262
20
3.121238
10
27.498911
20
3.112281
10
27.502514
20
3.103305
10
27.506071
20
3.094311
10
27.509583
20
3.085299
10
27.513048
20
3.076269
10
27.516468
20
3.067222
10
27.519841
20
3.058157
10
27.523168
20
3.049076
10
27.526449
20
3.039977
10
27.529684
20
3.030862
10
27.532872
20
3.021731
10
27.536014
20
3.012583
10
27.539109
20
3.003420
10
27.542157
20
2.994241
10
27.545159
20
2.985046
10
27.548114
20
2.975837
10
27.551021
20
2.966612
10
27.553882
20
2.957373
10
27.556696
20
2.948119
10
27.559463
20
2.938851
10
27.562182
20
2.929570
10
27.564854
20
2.920274
10
27.567479
20
2.910965
10
27.570056
20
2.901643
10
27.572586
20
2.892308
10
27.575069
20
2.882960
10
27.577503
20
2.873599
10
27.579890
20
2.864226
10
27.582230
20
2.854841
10
27.584521
20
2.845445
10
27.586765
20
2.836037
10
27.588960
20
2.826617
10
27.591108
20
2.817187
10
27.593208
20
2.807745
10
27.595259
20
2.798293
10
27.597263
20
2.788831
10
27.599218
20
2.779359
10
27.601125
20
2.769877
10
27.602984
20
2.760385
10
27.604794
20
2.750884
10
27.606556
20
2.741374
10
27.608270
20
2.731855
10
27.609935
20
2.722327
10
27.611551
20
2.712792
10
27.613119
20
2.703247
10
27.614639
20
2.693696
10
27.616109
20
2.684136
10
27.617531
20
2.674569
10
27.618905
20
2.664995
10
27.620229
20
2.655414
10
27.621505
20
2.645827
10
27.622732
20
2.636233
10
27.623910
20
2.626633
10
27.625039
20
2.617027
10
27.626120
20
2.607416
10
27.627151
20
2.597799
10
27.628133
20
2.588177
10
27.629067
20
2.578550
10
27.629951
20
2.568919
10
27.630787
20
2.559283
10
27.631573
20
2.549643
10
27.632310
20
2.539999
10
27.632998
20
2.530352
10
27.633637
20
2.520701
10
27.634227
20
2.511047
10
27.634768
20
2.501390
10
27.635259
20
2.491730
10
27.635702
20
2.482069
10
27.636095
20
2.472405
10
27.636439
20
2.462739
10
27.636734
20
2.453071
10
27.636979
20
2.443402
10
27.637176
20
2.433732
10
27.637323
20
2.424062
10
27.637421
20
2.414390
10
27.637469
20
2.404718
10
27.637469
20
2.395046
10
27.637419
20
2.385374
10
27.637320
20
2.375703
10
27.637171
20
2.366032
10
27.636974
20
2.356362
10
27.636727
20
2.346693
10
27.636431
20
2.337026
10
27.636086
20
2.327360
10
27.635692
20
2.317696
10
27.635248
20
2.308034
10
27.634755
20
2.298375
10
27.634213
20
2.288718
10
27.633622
20
2.279064
10
27.632982
20
2.269413
10
27.632293
20
2.259766
10
27.631554
20
2.250122
10
27.630767
20
2.240482
10
27.629930
20
2.230847
10
27.629045
20
2.221215
10
27.628110
20
2.211589
10
27.627127
20
2.201967
10
27.626094
20
2.192350
10
27.625012
20
2.182739
10
27.623882
20
2.173133
10
27.622703
20
2.163533
10
27.621475
20
2.153940
10
27.620198
20
2.144352
10
27.618872
20
2.134772
10
27.617497
20
2.125198
10
27.616074
20
2.115631
10
27.614602
20
2.106072
10
27.613082
20
2.096520
10
27.611512
20
2.086976
10
27.609895
20
2.077440
10
27.608228
20
2.067913
10
27.606514
20
2.058394
10
27.604751
20
2.048884
10
27.602939
20
2.039384
10
27.601079
20
2.029892
10
27.599171
20
2.020410
10
27.597214
20
2.010938
10
27.595210
20
2.001476
10
27.593157
20
1.992025
10
27.591056
20
1.982584
10
27.588907
20
1.973153
10
27.586711
20
1.963734
10
27.584466
20
1.954326
10
27.582173
20
1.944930
10
27.579833
20
1.935545
10
27.577445
20
1.926173
10
27.575009
20
1.916813
10
27.572525
20
1.907465
10
27.569994
20
1.898130
10
27.567416
20
1.888808
10
27.564790
20
1.879499
10
27.562116
20
1.870204
10
27.559396
20
1.860923
10
27.556628
20
1.851655
10
27.553813
20
1.842402
10
27.550951
20
1.833163
10
27.548042
20
1.823939
10
27.545086
20
1.814730
10
27.542084
20
1.805536
10
27.539034
20
1.796357
10
27.535938
20
1.787194
10
27.532795
20
1.778047
10
27.529606
20
1.768916
10
27.526370
20
1.759801
10
27.523088
20
1.750703
10
27.519760
20
1.741622
10
27.516385
20
1.732558
10
27.512964
20
1.723511
10
27.509498
20
1.714481
10
27.505985
20
1.705470
10
27.502427
20
1.696476
10
27.498822
20
1.687501
10
27.495173
20
1.678544
10
27.491477
20
1.669606
10
27.487737
20
1.660686
10
27.483950
20
1.651786
10
27.480119
20
1.642906
10
27.476242
20
1.634044
10
27.472321
20
1.625203
10
27.468354
20
1.616382
10
27.464343
20
1.607581
10
27.460287
20
1.598801
10
27.458611
20
1.595222
10
27.494302
20
1.592296
10
27.546317
20
1.586312
10
27.598108
20
1.578629
10
27.649620
20
1.569256
10
27.700797
20
1.558203
10
27.751585
20
1.545481
10
27.801930
20
1.531105
10
27.851778
20
1.515088
10
27.901075
20
1.497449
10
27.949769
20
1.478207
10
27.997806
20
1.457382
10
28.045137
20
1.434996
10
28.091710
20
1.411074
10
28.137475
20
1.385641
10
28.182384
20
1.358723
10
28.226387
20
1.330351
10
28.269439
20
1.300555
10
28.311493
20
1.269365
10
28.352504
20
1.236817
10
28.392428
20
1.202944
10
28.431223
20
1.167783
10
28.468846
20
1.131371
10
28.505258
20
1.093748
10
28.540419
20
1.054953
10
28.574292
20
1.015029
10
28.606840
20
0.974018
10
28.638030
20
0.931964
10
28.667826
20
0.888912
10
28.696199
20
0.844909
10
28.723116
20
0.800000
10
28.748549
20
0.754235
10
28.772471
20
0.707662
10
28.794857
20
0.660331
10
28.815682
20
0.612293
10
28.834924
20
0.563600
10
28.852563
20
0.514303
10
28.868580
20
0.464455
10
28.882956
20
0.414110
10
28.895678
20
0.363322
10
28.906731
20
0.312145
10
28.916104
20
0.260633
10
28.923787
20
0.208842
10
28.929771
20
0.156827
10
28.934049
20
0.104645
10
28.936618
20
0.052351
10
28.937475
20
0.000000
10
28.936618
20
-0.052351
10
28.934049
20
-0.104645
10
28.929771
20
-0.156827
10
28.923787
20
-0.208842
10
28.916104
20
-0.260633
10
28.906731
20
-0.312145
10
28.895678
20
-0.363322
10
28.882956
20
-0.414110
10
28.868580
20
-0.464455
10
28.852563
20
-0.514303
10
28.834924
20
-0.563600
10
28.815682
20
-0.612293
10
28.794857
20
-0.660331
10
28.772471
20
-0.707662
10
28.748549
20
-0.754235
10
28.723116
20
-0.800000
10
28.696199
20
-0.844909
10
28.667826
20
-0.888912
10
28.638030
20
-0.931964
10
28.606840
20
-0.974018
10
28.574292
20
-1.015029
10
28.540419
20
-1.054953
10
28.505258
20
-1.093748
10
28.468846
20
-1.131371
10
28.431223
20
-1.167783
10
28.392428
20
-1.202944
10
28.352504
20
-1.236817
10
28.311493
20
-1.269365
10
28.269439
20
-1.300555
10
28.226387
20
-1.330351
10
28.182384
20
-1.358723
10
28.137475
20
-1.385641
10
28.091710
20
-1.411074
10
28.045137
20
-1.434996
10
27.997806
20
-1.457382
10
27.949769
20
-1.478207
10
27.901075
20
-1.497449
10
27.851778
20
-1.515088
10
27.801930
20
-1.531105
10
27.751585
20
-1.545481
10
27.700797
20
-1.558203
10
27.649620
20
-1.569256
10
27.598108
20
-1.578629
10
27.546317
20
-1.586312
10
27.494302
20
-1.592296
10
27.442120
20
-1.596574
10
27.389826
20
-1.599143
10
27.337475
20
-1.600000
10
27.285124
20
-1.599143
10
27.232830
20
-1.596574
10
27.180648
20
-1.592296
10
27.128633
20
-1.586312
10
27.076842
20
-1.578629
10
27.025331
20
-1.569256
10
26.974153
20
-1.558203
10
26.923365
20
-1.545481
10
26.873020
20
-1.531105
10
26.823172
20
-1.515088
10
26.773875
20
-1.497449
10
26.725182
20
-1.478207
10
26.677144
20
-1.457382
10
26.629813
20
-1.434996
10
26.583240
20
-1.411074
10
26.537475
20
-1.385641
10
26.492566
20
-1.358723
10
26.448563
20
-1.330351
10
26.405511
20
-1.300555
10
26.363457
20
-1.269365
10
26.322446
20
-1.236817
10
26.282522
20
-1.202944
10
26.243727
20
-1.167783
10
26.206104
20
-1.131371
10
26.169692
20
-1.093748
10
26.134531
20
-1.054953
10
26.100658
20
-1.015029
10
26.068110
20
-0.974018
10
26.036920
20
-0.931964
10
26.007124
20
-0.888912
10
25.978752
20
-0.844909
10
25.951834
20
-0.800000
10
25.926401
20
-0.754235
10
25.902479
20
-0.707662
10
25.880093
20
-0.660331
10
25.859268
20
-0.612293
10
25.840026
20
-0.563600
10
25.822387
20
-0.514303
10
25.817791
20
-0.500000
10
1.827291
20
-0.500000
10
1.822695
20
-0.514303
0
LWPOLYLINE
8
0
100
AcDbEntity
100
AcDbPolyline
90
728
70
1
10
1.666330
20
0.844909
10
1.693248
20
0.800000
10
1.718681
20
0.754235
10
1.742603
20
0.707662
10
1.764989
20
0.660331
10
1.780179
20
0.625292
10
4.549048
20
1.545975
10
4.553392
20
1.547432
10
4.557728
20
1.548910
10
4.562057
20
1.550411
10
4.566377
20
1.551934
10
4.570691
20
1.553479
10
4.574996
20
1.555045
10
4.579293
20
1.556634
10
4.583582
20
1.558244
10
4.587863
20
1.559877
10
4.592136
20
1.561531
10
4.596400
20
1.563206
10
4.600655
20
1.564904
10
4.604902
20
1.566623
10
4.609140
20
1.568364
10
4.613369
20
1.570126
10
4.617588
20
1.571910
10
4.621799
20
1.573715
10
4.626001
20
1.575542
10
4.630193
20
1.577390
10
4.634376
20
1.579259
10
4.638549
20
1.581149
10
4.642713
20
1.583061
10
4.646866
20
1.584994
10
4.651010
20
1.586948
10
4.655144
20
1.588923
10
4.659268
20
1.590919
10
4.663381
20
1.592937
10
4.667484
20
1.594975
10
4.671577
20
1.597034
10
4.675659
20
1.599113
10
4.679731
20
1.601214
10
4.683792
20
1.603335
10
4.687842
20
1.605477
10
4.691881
20
1.607639
10
4.695909
20
1.609822
10
4.699926
20
1.612025
10
4.703931
20
1.614249
10
4.707925
20
1.616493
10
4.711908
20
1.618758
10
4.715879
20
1.621043
10
4.719839
20
1.623348
10
4.723786
20
1.625673
10
4.727722
20
1.628018
10
4.731646
20
1.630383
10
4.735558
20
1.632768
10
4.739457
20
1.635173
10
4.743344
20
1.637598
10
4.747219
20
1.640042
10
4.751081
20
1.642506
10
4.754931
20
1.644990
10
4.758768
20
1.647494
10
4.762592
20
1.650016
10
4.766404
20
1.652559
10
4.770202
20
1.655120
10
4.773987
20
1.657701
10
4.777759
20
1.660302
10
4.781518
20
1.662921
10
4.785264
20
1.665560
10
4.788996
20
1.668217
10
4.792714
20
1.670894
10
4.796419
20
1.673589
10
4.800110
20
1.676303
10
4.803787
20
1.679036
10
4.807450
20
1.681788
10
4.811099
20
1.684558
10
4.814734
20
1.687347
10
4.818354
20
1.690154
10
4.821961
20
1.692980
10
4.825552
20
1.695824
10
4.829130
20
1.698686
10
4.832692
20
1.701567
10
4.836240
20
1.704465
10
4.839774
20
1.707382
10
4.843292
20
1.710316
10
4.846795
20
1.713268
10
4.850284
20
1.716239
10
4.853757
20
1.719226
10
4.857215
20
1.722232
10
4.860657
20
1.725255
10
4.864084
20
1.728296
10
4.867496
20
1.731354
10
4.870892
20
1.734429
10
4.874272
20
1.737521
10
4.877636
20
1.740631
10
4.880985
20
1.743758
10
4.884318
20
1.746902
10
4.887634
20
1.750062
10
4.890935
20
1.753240
10
4.894219
20
1.756434
10
4.897487
20
1.759645
10
4.900738
20
1.762873
10
4.903973
20
1.766117
10
4.907192
20
1.769378
10
4.910394
20
1.772654
10
4.913579
20
1.775948
10
4.916747
20
1.779257
10
4.919899
20
1.782582
10
4.923033
20
1.785924
10
4.926151
20
1.789281
10
4.929251
20
1.792654
10
4.932334
20
1.796043
10
4.935400
20
1.799447
10
4.938448
20
1.802867
10
4.941479
20
1.806303
10
4.944493
20
1.809754
10
4.947488
20
1.813220
10
4.950467
20
1.816702
10
4.953427
20
1.820198
10
4.956370
20
1.823710
10
4.959294
20
1.827236
10
4.962201
20
1.830778
10
4.965089
20
1.834334
10
4.967960
20
1.837904
10
4.970812
20
1.841490
10
4.973646
20
1.845090
10
4.976462
20
1.848704
10
4.979259
20
1.852332
10
4.982037
20
1.855975
10
4.984798
20
1.859632
10
4.987539
20
1.863302
10
4.990262
20
1.866987
10
4.992966
20
1.870685
10
4.995651
20
1.874398
10
4.998317
20
1.878123
10
5.000964
20
1.881863
10
5.003592
20
1.885616
10
5.006201
20
1.889382
10
5.008790
20
1.893161
10
5.011361
20
1.896953
10
5.013912
20
1.900759
10
5.016444
20
1.904577
10
5.018956
20
1.908409
10
5.021449
20
1.912253
10
5.023922
20
1.916109
10
5.026375
20
1.919978
10
5.028809
20
1.923860
10
5.031223
20
1.927754
10
5.033617
20
1.931660
10
5.035991
20
1.935579
10
5.038345
20
1.939509
10
5.040679
20
1.943451
10
5.042993
20
1.947405
10
5.045287
20
1.951371
10
5.047561
20
1.955349
10
5.049814
20
1.959338
10
5.052047
20
1.963338
10
5.054260
20
1.967350
10
5.056452
20
1.971373
10
5.058623
20
1.975407
10
5.060775
20
1.979452
10
5.062905
20
1.983508
10
5.065015
20
1.987575
10
5.067104
20
1.991652
10
5.069172
20
1.995740
10
5.071220
20
1.999839
10
5.073246
20
2.003948
10
5.075252
20
2.008067
10
5.077237
20
2.012196
10
5.079200
20
2.016335
10
5.081143
20
2.020485
10
5.083064
20
2.024644
10
5.084964
20
2.028813
10
5.086843
20
2.032991
10
5.088701
20
2.037179
10
5.090537
20
2.041376
10
5.092352
20
2.045583
10
5.094145
20
2.049799
10
5.095917
20
2.054024
10
5.097668
20
2.058258
10
5.099396
20
2.062500
10
5.101104
20
2.066752
10
5.102789
20
2.071012
10
5.104453
20
2.075281
10
5.106095
20
2.079558
10
5.107716
20
2.083843
10
5.109314
20
2.088137
10
5.110891
20
2.092438
10
5.112445
20
2.096748
10
5.113978
20
2.101065
10
5.115489
20
2.105391
10
5.116977
20
2.109723
10
5.118444
20
2.114064
10
5.119889
20
2.118412
10
5.121311
20
2.122767
10
5.122711
20
2.127129
10
5.124089
20
2.131498
10
5.125445
20
2.135875
10
5.126778
20
2.140258
10
5.128089
20
2.144648
10
5.129378
20
2.149044
10
5.130644
20
2.153447
10
5.131888
20
2.157856
10
5.133109
20
2.162272
10
5.134308
20
2.166694
10
5.135485
20
2.171122
10
5.136638
20
2.175556
10
5.137770
20
2.179995
10
5.138878
20
2.184440
10
5.139964
20
2.188891
10
5.141028
20
2.193348
10
5.142068
20
2.197809
10
5.143086
20
2.202276
10
5.144081
20
2.206748
10
5.145054
20
2.211226
10
5.146003
20
2.215708
10
5.146930
20
2.220194
10
5.147834
20
2.224686
10
5.148715
20
2.229182
10
5.149573
20
2.233682
10
5.150408
20
2.238187
10
5.151220
20
2.242696
10
5.152010
20
2.247209
10
5.152776
20
2.251726
10
5.153519
20
2.256246
10
5.154239
20
2.260771
10
5.154937
20
2.265299
10
5.155611
20
2.269831
10
5.156262
20
2.274365
10
5.156890
20
2.278904
10
5.157495
20
2.283445
10
5.158077
20
2.287989
10
5.158635
20
2.292537
10
5.159171
20
2.297087
10
5.159683
20
2.301640
10
5.160172
20
2.306195
10
5.160638
20
2.310752
10
5.161081
20
2.315313
10
5.161500
20
2.319875
10
5.161896
20
2.324439
10
5.162269
20
2.329005
10
5.162619
20
2.333573
10
5.162946
20
2.338143
10
5.163249
20
2.342715
10
5.163529
20
2.347288
10
5.163786
20
2.351862
10
5.164019
20
2.356437
10
5.164229
20
2.361014
10
5.164416
20
2.365592
10
5.164579
20
2.370170
10
5.164720
20
2.374749
10
5.164837
20
2.379329
10
5.164930
20
2.383910
10
5.165000
20
2.388491
10
5.165047
20
2.393072
10
5.165071
20
2.397653
10
5.165071
20
2.402235
10
5.165048
20
2.406816
10
5.165002
20
2.411398
10
5.164932
20
2.415979
10
5.164839
20
2.420559
10
5.164723
20
2.425139
10
5.164583
20
2.429718
10
5.164420
20
2.434297
10
5.164234
20
2.438875
10
5.164024
20
2.443451
10
5.163792
20
2.448027
10
5.163536
20
2.452601
10
5.163256
20
2.457174
10
5.162953
20
2.461746
10
5.162627
20
2.466315
10
5.162278
20
2.470884
10
5.161906
20
2.475450
10
5.161510
20
2.480014
10
5.161091
20
2.484576
10
5.160649
20
2.489136
10
5.160184
20
2.493694
10
5.159695
20
2.498250
10
5.159183
20
2.502802
10
5.158649
20
2.507353
10
5.158090
20
2.511900
10
5.157509
20
2.516444
10
5.156905
20
2.520986
10
5.156277
20
2.525524
10
5.155627
20
2.530059
10
5.154953
20
2.534591
10
5.154257
20
2.539119
10
5.153537
20
2.543644
10
5.152794
20
2.548164
10
5.152029
20
2.552681
10
5.151240
20
2.557194
10
5.150428
20
2.561703
10
5.149594
20
2.566208
10
5.148736
20
2.570709
10
5.147856
20
2.575205
10
5.146952
20
2.579696
10
5.146026
20
2.584183
10
5.145077
20
2.588665
10
5.144105
20
2.593143
10
5.143111
20
2.597615
10
5.142093
20
2.602082
10
5.141053
20
2.606544
10
5.139991
20
2.611000
10
5.138905
20
2.615451
10
5.137797
20
2.619897
10
5.136666
20
2.624336
10
5.135513
20
2.628770
10
5.134337
20
2.633198
10
5.133139
20
2.637620
10
5.131918
20
2.642036
10
5.130675
20
2.646446
10
5.129409
20
2.650849
10
5.128121
20
2.655245
10
5.126810
20
2.659635
10
5.125477
20
2.664019
10
5.124122
20
2.668395
10
5.122745
20
2.672765
10
5.121345
20
2.677127
10
5.119923
20
2.681482
10
5.118480
20
2.685830
10
5.117013
20
2.690171
10
5.115525
20
2.694504
10
5.114015
20
2.698829
10
5.112483
20
2.703147
10
5.110929
20
2.707457
10
5.109353
20
2.711759
10
5.107755
20
2.716052
10
5.106135
20
2.720338
10
5.104493
20
2.724615
10
5.102830
20
2.728884
10
5.101145
20
2.733144
10
5.099438
20
2.737396
10
5.097710
20
2.741639
10
5.095960
20
2.745873
10
5.094189
20
2.750098
10
5.092396
20
2.754314
10
5.090581
20
2.758521
10
5.088746
20
2.762719
10
5.086889
20
2.766907
10
5.085010
20
2.771086
10
5.083110
20
2.775255
10
5.081190
20
2.779414
10
5.079248
20
2.783564
10
5.077285
20
2.787703
10
5.075300
20
2.791833
10
5.073295
20
2.795952
10
5.071269
20
2.800061
10
5.069222
20
2.804160
10
5.067155
20
2.808248
10
5.065066
20
2.812326
10
5.062957
20
2.816393
10
5.060827
20
2.820449
10
5.058676
20
2.824495
10
5.056505
20
2.828529
10
5.054313
20
2.832552
10
5.052101
20
2.836564
10
5.049869
20
2.840565
10
5.047616
20
2.844554
10
5.045343
20
2.848532
10
5.043049
20
2.852498
10
5.040736
20
2.856453
10
5.038402
20
2.860395
10
5.036048
20
2.864326
10
5.033675
20
2.868244
10
5.031281
20
2.872151
10
5.028868
20
2.876045
10
5.026435
20
2.879927
10
5.023982
20
2.883797
10
5.021509
20
2.887654
10
5.019017
20
2.891498
10
5.016505
20
2.895330
10
5.013974
20
2.899148
10
5.011423
20
2.902954
10
5.008853
20
2.906747
10
5.006264
20
2.910526
10
5.003656
20
2.914293
10
5.001028
20
2.918046
10
4.998381
20
2.921786
10
4.995716
20
2.925512
10
4.993031
20
2.929224
10
4.990328
20
2.932923
10
4.987605
20
2.936608
10
4.984865
20
2.940279
10
4.982105
20
2.943936
10
4.979327
20
2.947579
10
4.976530
20
2.951208
10
4.973715
20
2.954823
10
4.970881
20
2.958423
10
4.968030
20
2.962008
10
4.965160
20
2.965580
10
4.962271
20
2.969136
10
4.959365
20
2.972678
10
4.956441
20
2.976205
10
4.953499
20
2.979717
10
4.950539
20
2.983213
10
4.947561
20
2.986695
10
4.944566
20
2.990162
10
4.941553
20
2.993613
10
4.938522
20
2.997049
10
4.935474
20
3.000470
10
4.932409
20
3.003874
10
4.929326
20
3.007264
10
4.926226
20
3.010637
10
4.923109
20
3.013995
10
4.919975
20
3.017337
10
4.916824
20
3.020662
10
4.913656
20
3.023972
10
4.910471
20
3.027266
10
4.907270
20
3.030543
10
4.904052
20
3.033804
10
4.900817
20
3.037048
10
4.897566
20
3.040276
10
4.894299
20
3.043488
10
4.891015
20
3.046682
10
4.887715
20
3.049860
10
4.884399
20
3.053022
10
4.881066
20
3.056166
10
4.877718
20
3.059293
10
4.874354
20
3.062403
10
4.870974
20
3.065496
10
4.867579
20
3.068572
10
4.864167
20
3.071630
10
4.860741
20
3.074671
10
4.857299
20
3.077695
10
4.853841
20
3.080701
10
4.850368
20
3.083689
10
4.846881
20
3.086659
10
4.843378
20
3.089612
10
4.839860
20
3.092547
10
4.836327
20
3.095464
10
4.832779
20
3.098363
10
4.829217
20
3.101244
10
4.825640
20
3.104107
10
4.822048
20
3.106951
10
4.818442
20
3.109777
10
4.814822
20
3.112585
10
4.811187
20
3.115374
10
4.807539
20
3.118145
10
4.803876
20
3.120897
10
4.800199
20
3.123630
10
4.796509
20
3.126345
10
4.792804
20
3.129041
10
4.789086
20
3.131718
10
4.785355
20
3.134376
10
4.781610
20
3.137015
10
4.777851
20
3.139635
10
4.774079
20
3.142235
10
4.770294
20
3.144817
10
4.766496
20
3.147379
10
4.762685
20
3.149922
10
4.758861
20
3.152445
10
4.755025
20
3.154949
10
4.751175
20
3.157433
10
4.747313
20
3.159898
10
4.743439
20
3.162343
10
4.739552
20
3.164768
10
4.735653
20
3.167174
10
4.731741
20
3.169559
10
4.727818
20
3.171925
10
4.723882
20
3.174271
10
4.719935
20
3.176596
10
4.715976
20
3.178901
10
4.712005
20
3.181187
10
4.708023
20
3.183452
10
4.704029
20
3.185696
10
4.700023
20
3.187921
10
4.696007
20
3.190125
10
4.691979
20
3.192308
10
4.687940
20
3.194471
10
4.683891
20
3.196613
10
4.679830
20
3.198735
10
4.675759
20
3.200836
10
4.671677
20
3.202916
10
4.667584
20
3.204975
10
4.663481
20
3.207014
10
4.659368
20
3.209032
10
4.655245
20
3.211028
10
4.651111
20
3.213004
10
4.646967
20
3.214959
10
4.642814
20
3.216892
10
4.638651
20
3.218804
10
4.634478
20
3.220695
10
4.630295
20
3.222565
10
4.626103
20
3.224414
10
4.621902
20
3.226241
10
4.617691
20
3.228047
10
4.613471
20
3.229831
10
4.609243
20
3.231594
10
4.605005
20
3.233335
10
4.600758
20
3.235054
10
4.596503
20
3.236752
10
4.592239
20
3.238429
10
4.587967
20
3.240083
10
4.583687
20
3.241716
10
4.579398
20
3.243327
10
4.575101
20
3.244916
10
4.570796
20
3.246483
10
4.566483
20
3.248029
10
4.562162
20
3.249552
10
4.557833
20
3.251053
10
4.553497
20
3.252533
10
4.549154
20
3.253990
10
4.544803
20
3.255425
10
4.540445
20
3.256838
10
4.536079
20
3.258228
10
4.531707
20
3.259597
10
4.527328
20
3.260943
10
4.522942
20
3.262267
10
4.518549
20
3.263568
10
4.514150
20
3.264848
10
4.509744
20
3.266104
10
4.505332
20
3.267339
10
4.500914
20
3.268550
10
4.496489
20
3.269740
10
4.492059
20
3.270906
10
4.487623
20
3.272051
10
4.483180
20
3.273172
10
4.478733
20
3.274271
10
4.474280
20
3.275347
10
4.469821
20
3.276401
10
4.465357
20
3.277432
10
4.460888
20
3.278440
10
4.456413
20
3.279425
10
4.451934
20
3.280388
10
4.447450
20
3.281328
10
4.442961
20
3.282245
10
4.438468
20
3.283139
10
4.433970
20
3.284010
10
4.429468
20
3.284859
10
4.424962
20
3.285684
10
4.420451
20
3.286486
10
4.415936
20
3.287266
10
4.411418
20
3.288022
10
4.406895
20
3.288756
10
4.402369
20
3.289466
10
4.397840
20
3.290154
10
4.393307
20
3.290818
10
4.388770
20
3.291459
10
4.384231
20
3.292077
10
4.379688
20
3.292672
10
4.375142
20
3.293244
10
4.370594
20
3.293793
10
4.366043
20
3.294318
10
4.361489
20
3.294821
10
4.356932
20
3.295300
10
4.352374
20
3.295756
10
4.347813
20
3.296189
10
4.343250
20
3.296598
10
4.338684
20
3.296985
10
4.334117
20
3.297348
10
4.329549
20
3.297688
10
4.324978
20
3.298004
10
4.320406
20
3.298297
10
4.315833
20
3.298568
10
4.311258
20
3.298814
10
4.306682
20
3.299038
10
4.302105
20
3.299238
10
4.297527
20
3.299415
10
4.292948
20
3.299568
10
4.288368
20
3.299698
10
4.283788
20
3.299805
10
4.279207
20
3.299889
10
4.274626
20
3.299949
10
4.270045
20
3.299986
10
4.265463
20
3.300000
10
4.260882
20
3.299990
10
4.256301
20
3.299957
10
4.251719
20
3.299901
10
4.247139
20
3.299821
10
4.242558
20
3.299718
10
4.237979
20
3.299592
10
4.233400
20
3.299442
10
4.228821
20
3.299270
10
4.224244
20
3.299073
10
4.219668
20
3.298854
10
4.215093
20
3.298611
10
4.210519
20
3.298345
10
4.205947
20
3.298056
10
4.201376
20
3.297743
10
4.196807
20
3.297407
10
4.192240
20
3.297048
10
4.187674
20
3.296666
10
4.183111
20
3.296260
10
4.178549
20
3.295831
10
4.173990
20
3.295379
10
4.169433
20
3.294904
10
4.164879
20
3.294405
10
4.160327
20
3.293884
10
4.155778
20
3.293339
10
4.151232
20
3.292771
10
4.146689
20
3.292180
10
4.142149
20
3.291566
10
4.137612
20
3.290928
10
4.133079
20
3.290268
10
4.128548
20
3.289585
10
4.124022
20
3.288878
10
4.119499
20
3.288149
10
4.114979
20
3.287396
10
4.110464
20
3.286620
10
4.105953
20
3.285822
10
4.101446
20
3.285000
10
4.096943
20
3.284156
10
4.092444
20
3.283289
10
4.087950
20
3.282398
10
4.083460
20
3.281485
10
4.078975
20
3.280549
10
4.074495
20
3.279591
10
4.070020
20
3.278609
10
4.065550
20
3.277605
10
4.061085
20
3.276578
10
4.056626
20
3.275528
10
4.052172
20
3.274456
10
4.047723
20
3.273360
10
4.043280
20
3.272243
10
4.038843
20
3.271102
10
4.034411
20
3.269939
10
4.029986
20
3.268754
10
4.025567
20
3.267546
10
4.021153
20
3.266316
10
4.016747
20
3.265063
10
4.012346
20
3.263787
10
4.007952
20
3.262490
10
4.003565
20
3.261170
10
3.999185
20
3.259827
10
3.994811
20
3.258463
10
3.990445
20
3.257076
10
3.986085
20
3.255667
10
3.981733
20
3.254235
10
3.977388
20
3.252782
10
3.973051
20
3.251306
10
3.968721
20
3.249809
10
3.964399
20
3.248289
10
3.960085
20
3.246748
10
3.955778
20
3.245184
10
3.951480
20
3.243599
10
3.947190
20
3.241991
10
3.942908
20
3.240362
10
3.938634
20
3.238711
10
3.934369
20
3.237039
10
3.930112
20
3.235345
10
3.925864
20
3.233629
10
3.921625
20
3.231891
10
3.917395
20
3.230132
10
3.913173
20
3.228351
10
3.908961
20
3.226549
10
3.904758
20
3.224726
10
3.900565
20
3.222881
10
3.896381
20
3.221015
10
3.892206
20
3.219127
10
3.888041
20
3.217219
10
3.883886
20
3.215289
10
3.879741
20
3.213338
10
3.875605
20
3.211366
10
3.871480
20
3.209372
10
3.867365
20
3.207358
10
3.863260
20
3.205323
10
3.859166
20
3.203268
10
3.855082
20
3.201191
10
3.851009
20
3.199093
10
3.846947
20
3.196975
10
3.842895
20
3.194836
10
3.838854
20
3.192677
10
3.834825
20
3.190497
10
3.830806
20
3.188297
10
3.826799
20
3.186076
10
3.822803
20
3.183835
10
3.818819
20
3.181573
10
3.814846
20
3.179291
10
3.810885
20
3.176989
10
3.806936
20
3.174667
10
3.802998
20
3.172325
10
3.799073
20
3.169963
10
3.795159
20
3.167581
10
3.791258
20
3.165179
10
3.787369
20
3.162757
10
3.783492
20
3.160315
10
3.779628
20
3.157854
10
3.775777
20
3.155373
10
3.771938
20
3.152872
10
3.768112
20
3.150352
10
3.764298
20
3.147813
10
3.760498
20
3.145254
10
3.756711
20
3.142676
10
3.752937
20
3.140078
10
3.749176
20
3.137461
10
3.745429
20
3.134826
10
3.741695
20
3.132171
10
3.737975
20
3.129497
10
3.734268
20
3.126805
10
3.730575
20
3.124093
10
3.726896
20
3.121363
10
3.723231
20
3.118614
10
3.719580
20
3.115846
10
3.715943
20
3.113060
10
3.712320
20
3.110256
10
3.708712
20
3.107433
10
3.705118
20
3.104591
10
3.701538
20
3.101732
10
3.697973
20
3.098854
10
3.694423
20
3.095958
10
3.690888
20
3.093044
10
3.687367
20
3.090112
10
3.683862
20
3.087163
10
3.680371
20
3.084195
10
3.676896
20
3.081210
10
3.673436
20
3.078207
10
3.669991
20
3.075186
10
3.666562
20
3.072148
10
3.663148
20
3.069093
10
3.659750
20
3.066020
10
3.656367
20
3.062930
10
3.653000
20
3.059823
10
3.649650
20
3.056698
10
3.646315
20
3.053557
10
3.642996
20
3.050399
10
3.639693
20
3.047224
10
3.636406
20
3.044032
10
3.633136
20
3.040823
10
3.629882
20
3.037598
10
3.626645
20
3.034356
10
3.623424
20
3.031098
10
3.620219
20
3.027824
10
3.617032
20
3.024533
10
3.613861
20
3.021226
10
3.610707
20
3.017903
10
3.607570
20
3.014564
10
3.604450
20
3.011209
10
3.601348
20
3.007838
10
3.598262
20
3.004452
10
3.595194
20
3.001049
10
1.663934
20
0.848625
10
1.666330
20
0.844909
0
LWPOLYLINE
8
0
100
AcDbEntity
100
AcDbPolyline
90
723
70
1
10
26.030129
20
1.548910
10
26.034458
20
1.550411
10
26.038779
20
1.551934
10
26.043092
20
1.553479
10
26.047397
20
1.555045
10
26.051694
20
1.556634
10
26.055983
20
1.558244
10
26.060264
20
1.559877
10
26.064537
20
1.561531
10
26.068801
20
1.563206
10
26.073056
20
1.564904
10
26.077303
20
1.566623
10
26.081541
20
1.568364
10
26.085770
20
1.570126
10
26.089990
20
1.571910
10
26.094200
20
1.573715
10
26.098402
20
1.575542
10
26.102594
20
1.577390
10
26.106777
20
1.579259
10
26.110950
20
1.581149
10
26.115114
20
1.583061
10
26.119267
20
1.584994
10
26.123411
20
1.586948
10
26.127545
20
1.588923
10
26.131669
20
1.590919
10
26.135782
20
1.592937
10
26.139885
20
1.594975
10
26.143978
20
1.597034
10
26.148060
20
1.599113
10
26.152132
20
1.601214
10
26.156193
20
1.603335
10
26.160243
20
1.605477
10
26.164282
20
1.607639
10
26.168310
20
1.609822
10
26.172327
20
1.612025
10
26.176332
20
1.614249
10
26.180326
20
1.616493
10
26.184309
20
1.618758
10
26.188280
20
1.621043
10
26.192240
20
1.623348
10
26.196187
20
1.625673
10
26.200123
20
1.628018
10
26.204047
20
1.630383
10
26.207959
20
1.632768
10
26.211858
20
1.635173
10
26.215745
20
1.637598
10
26.219620
20
1.640042
10
26.223482
20
1.642506
10
26.227332
20
1.644990
10
26.231169
20
1.647494
10
26.234993
20
1.650016
10
26.238805
20
1.652559
10
26.242603
20
1.655120
10
26.246388
20
1.657701
10
26.250161
20
1.660302
10
26.253919
20
1.662921
10
26.257665
20
1.665560
10
26.261397
20
1.668217
10
26.265115
20
1.670894
10
26.268820
20
1.673589
10
26.272511
20
1.676303
10
26.276188
20
1.679036
10
26.279851
20
1.681788
10
26.283500
20
1.684558
10
26.287135
20
1.687347
10
26.290755
20
1.690154
10
26.294362
20
1.692980
10
26.297953
20
1.695824
10
26.301531
20
1.698686
10
26.305094
20
1.701567
10
26.308642
20
1.704465
10
26.312175
20
1.707382
10
26.315693
20
1.710316
10
26.319196
20
1.713268
10
26.322685
20
1.716239
10
26.326158
20
1.719226
10
26.329616
20
1.722232
10
26.333058
20
1.725255
10
26.336485
20
1.728296
10
26.339897
20
1.731354
10
26.343293
20
1.734429
10
26.346673
20
1.737521
10
26.350037
20
1.740631
10
26.353386
20
1.743758
10
26.356719
20
1.746902
10
26.360035
20
1.750062
10
26.363336
20
1.753240
10
26.366620
20
1.756434
10
26.369888
20
1.759645
10
26.373139
20
1.762873
10
26.376374
20
1.766117
10
26.379593
20
1.769378
10
26.382795
20
1.772654
10
26.385980
20
1.775948
10
26.389148
20
1.779257
10
26.392300
20
1.782582
10
26.395434
20
1.785924
10
26.398552
20
1.789281
10
26.401652
20
1.792654
10
26.404735
20
1.796043
10
26.407801
20
1.799447
10
26.410849
20
1.802867
10
26.413880
20
1.806303
10
26.416894
20
1.809754
10
26.419889
20
1.813220
10
26.422868
20
1.816702
10
26.425828
20
1.820198
10
26.428771
20
1.823710
10
26.431695
20
1.827236
10
26.434602
20
1.830778
10
26.437490
20
1.834334
10
26.440361
20
1.837904
10
26.443213
20
1.841490
10
26.446047
20
1.845090
10
26.448863
20
1.848704
10
26.451660
20
1.852332
10
26.454438
20
1.855975
10
26.457199
20
1.859632
10
26.459940
20
1.863302
10
26.462663
20
1.866987
10
26.465367
20
1.870685
10
26.468052
20
1.874398
10
26.470718
20
1.878123
10
26.473365
20
1.881863
10
26.475993
20
1.885616
10
26.478602
20
1.889382
10
26.481192
20
1.893161
10
26.483762
20
1.896953
10
26.486313
20
1.900759
10
26.488845
20
1.904577
10
26.491357
20
1.908409
10
26.493850
20
1.912253
10
26.496323
20
1.916109
10
26.498776
20
1.919978
10
26.501210
20
1.923860
10
26.503624
20
1.927754
10
26.506018
20
1.931660
10
26.508392
20
1.935579
10
26.510746
20
1.939509
10
26.513080
20
1.943451
10
26.515394
20
1.947405
10
26.517688
20
1.951371
10
26.519962
20
1.955349
10
26.522215
20
1.959338
10
26.524448
20
1.963338
10
26.526661
20
1.967350
10
26.528853
20
1.971373
10
26.531024
20
1.975407
10
26.533176
20
1.979452
10
26.535306
20
1.983508
10
26.537416
20
1.987575
10
26.539505
20
1.991652
10
26.541573
20
1.995740
10
26.543621
20
1.999839
10
26.545647
20
2.003948
10
26.547653
20
2.008067
10
26.549638
20
2.012196
10
26.551601
20
2.016335
10
26.553544
20
2.020485
10
26.555465
20
2.024644
10
26.557365
20
2.028813
10
26.559244
20
2.032991
10
26.561102
20
2.037179
10
26.562938
20
2.041376
10
26.564753
20
2.045583
10
26.566546
20
2.049799
10
26.568318
20
2.054024
10
26.570069
20
2.058258
10
26.571798
20
2.062500
10
26.573505
20
2.066752
10
26.575190
20
2.071012
10
26.576854
20
2.075281
10
26.578496
20
2.079558
10
26.580117
20
2.083843
10
26.581715
20
2.088137
10
26.583292
20
2.092438
10
26.584846
20
2.096748
10
26.586379
20
2.101065
10
26.587890
20
2.105391
10
26.589378
20
2.109723
10
26.590845
20
2.114064
10
26.592290
20
2.118412
10
26.593712
20
2.122767
10
26.595112
20
2.127129
10
26.596490
20
2.131498
10
26.597846
20
2.135875
10
26.599179
20
2.140258
10
26.600490
20
2.144648
10
26.601779
20
2.149044
10
26.603045
20
2.153447
10
26.604289
20
2.157856
10
26.605510
20
2.162272
10
26.606709
20
2.166694
10
26.607886
20
2.171122
10
26.609040
20
2.175556
10
26.610171
20
2.179995
10
26.611279
20
2.184440
10
26.612365
20
2.188891
10
26.613429
20
2.193348
10
26.614469
20
2.197809
10
26.615487
20
2.202276
10
26.616482
20
2.206748
10
26.617455
20
2.211226
10
26.618404
20
2.215708
10
26.619331
20
2.220194
10
26.620235
20
2.224686
10
26.621116
20
2.229182
10
26.621974
20
2.233682
10
26.622809
20
2.238187
10
26.623621
20
2.242696
10
26.624411
20
2.247209
10
26.625177
20
2.251726
10
26.625920
20
2.256246
10
26.626640
20
2.260771
10
26.627338
20
2.265299
10
26.628012
20
2.269831
10
26.628663
20
2.274365
10
26.629291
20
2.278904
10
26.629896
20
2.283445
10
26.630478
20
2.287989
10
26.631036
20
2.292537
10
26.631572
20
2.297087
10
26.632084
20
2.301640
10
26.632573
20
2.306195
10
26.633039
20
2.310752
10
26.633482
20
2.315313
10
26.633901
20
2.319875
10
26.634297
20
2.324439
10
26.634671
20
2.329005
10
26.635020
20
2.333573
10
26.635347
20
2.338143
10
26.635650
20
2.342715
10
26.635930
20
2.347288
10
26.636187
20
2.351862
10
26.636420
20
2.356437
10
26.636630
20
2.361014
10
26.636817
20
2.365592
10
26.636981
20
2.370170
10
26.637121
20
2.374749
10
26.637238
20
2.379329
10
26.637331
20
2.383910
10
26.637401
20
2.388491
10
26.637448
20
2.393072
10
26.637472
20
2.397653
10
26.637472
20
2.402235
10
26.637449
20
2.406816
10
26.637403
20
2.411398
10
26.637333
20
2.415979
10
26.637240
20
2.420559
10
26.637124
20
2.425139
10
26.636984
20
2.429718
10
26.636821
20
2.434297
10
26.636635
20
2.438875
10
26.636426
20
2.443451
10
26.636193
20
2.448027
10
26.635937
20
2.452601
10
26.635657
20
2.457174
10
26.635354
20
2.461746
10
26.635029
20
2.466315
10
26.634679
20
2.470884
10
26.634307
20
2.475450
10
26.633911
20
2.480014
10
26.633492
20
2.484576
10
26.633050
20
2.489136
10
26.632585
20
2.493694
10
26.632096
20
2.498250
10
26.631584
20
2.502802
10
26.631050
20
2.507353
10
26.630491
20
2.511900
10
26.629910
20
2.516444
10
26.629306
20
2.520986
10
26.628679
20
2.525524
10
26.628028
20
2.530059
10
26.627354
20
2.534591
10
26.626658
20
2.539119
10
26.625938
20
2.543644
10
26.625195
20
2.548164
10
26.624430
20
2.552681
10
26.623641
20
2.557194
10
26.622829
20
2.561703
10
26.621995
20
2.566208
10
26.621137
20
2.570709
10
26.620257
20
2.575205
10
26.619353
20
2.579696
10
26.618427
20
2.584183
10
26.617478
20
2.588665
10
26.616506
20
2.593143
10
26.615512
20
2.597615
10
26.614494
20
2.602082
10
26.613454
20
2.606544
10
26.612392
20
2.611000
10
26.611306
20
2.615451
10
26.610198
20
2.619897
10
26.609067
20
2.624336
10
26.607914
20
2.628770
10
26.606738
20
2.633198
10
26.605540
20
2.637620
10
26.604319
20
2.642036
10
26.603076
20
2.646446
10
26.601810
20
2.650849
10
26.600522
20
2.655245
10
26.599211
20
2.659635
10
26.597878
20
2.664019
10
26.596523
20
2.668395
10
26.595146
20
2.672765
10
26.593746
20
2.677127
10
26.592325
20
2.681482
10
26.590881
20
2.685830
10
26.589414
20
2.690171
10
26.587926
20
2.694504
10
26.586416
20
2.698829
10
26.584884
20
2.703147
10
26.583330
20
2.707457
10
26.581754
20
2.711759
10
26.580156
20
2.716052
10
26.578536
20
2.720338
10
26.576894
20
2.724615
10
26.575231
20
2.728884
10
26.573546
20
2.733144
10
26.571839
20
2.737396
10
26.570111
20
2.741639
10
26.568361
20
2.745873
10
26.566590
20
2.750098
10
26.564797
20
2.754314
10
26.562982
20
2.758521
10
26.561147
20
2.762719
10
26.559290
20
2.766907
10
26.557411
20
2.771086
10
26.555512
20
2.775255
10
26.553591
20
2.779414
10
26.551649
20
2.783564
10
26.549686
20
2.787703
10
26.547702
20
2.791833
10
26.545696
20
2.795952
10
26.543670
20
2.800061
10
26.541623
20
2.804160
10
26.539556
20
2.808248
10
26.537467
20
2.812326
10
26.535358
20
2.816393
10
26.533228
20
2.820449
10
26.531077
20
2.824495
10
26.528906
20
2.828529
10
26.526714
20
2.832552
10
26.524502
20
2.836564
10
26.522270
20
2.840565
10
26.520017
20
2.844554
10
26.517744
20
2.848532
10
26.515450
20
2.852498
10
26.513137
20
2.856453
10
26.510803
20
2.860395
10
26.508449
20
2.864326
10
26.506076
20
2.868244
10
26.503682
20
2.872151
10
26.501269
20
2.876045
10
26.498836
20
2.879927
10
26.496383
20
2.883797
10
26.493910
20
2.887654
10
26.491418
20
2.891498
10
26.488906
20
2.895330
10
26.486375
20
2.899148
10
26.483824
20
2.902954
10
26.481254
20
2.906747
10
26.478665
20
2.910526
10
26.476057
20
2.914293
10
26.473429
20
2.918046
10
26.470782
20
2.921786
10
26.468117
20
2.925512
10
26.465432
20
2.929224
10
26.462729
20
2.932923
10
26.460007
20
2.936608
10
26.457266
20
2.940279
10
26.454506
20
2.943936
10
26.451728
20
2.947579
10
26.448931
20
2.951208
10
26.446116
20
2.954823
10
26.443282
20
2.958423
10
26.440431
20
2.962008
10
26.437561
20
2.965580
10
26.434672
20
2.969136
10
26.431766
20
2.972678
10
26.428842
20
2.976205
10
26.425900
20
2.979717
10
26.422940
20
2.983213
10
26.419962
20
2.986695
10
26.416967
20
2.990162
10
26.413954
20
2.993613
10
26.410923
20
2.997049
10
26.407875
20
3.000470
10
26.404810
20
3.003874
10
26.401727
20
3.007264
10
26.398627
20
3.010637
10
26.395510
20
3.013995
10
26.392376
20
3.017337
10
26.389225
20
3.020662
10
26.386057
20
3.023972
10
26.382872
20
3.027266
10
26.379671
20
3.030543
10
26.376453
20
3.033804
10
26.373218
20
3.037048
10
26.369967
20
3.040276
10
26.366700
20
3.043488
10
26.363416
20
3.046682
10
26.360116
20
3.049860
10
26.356800
20
3.053022
10
26.353467
20
3.056166
10
26.350119
20
3.059293
10
26.346755
20
3.062403
10
26.343375
20
3.065496
10
26.339980
20
3.068572
10
26.336568
20
3.071630
10
26.333142
20
3.074671
10
26.329700
20
3.077695
10
26.326242
20
3.080701
10
26.322769
20
3.083689
10
26.319282
20
3.086659
10
26.315779
20
3.089612
10
26.312261
20
3.092547
10
26.308728
20
3.095464
10
26.305180
20
3.098363
10
26.301618
20
3.101244
10
26.298041
20
3.104107
10
26.294449
20
3.106951
10
26.290843
20
3.109777
10
26.287223
20
3.112585
10
26.283588
20
3.115374
10
26.279940
20
3.118145
10
26.276277
20
3.120897
10
26.272600
20
3.123630
10
26.268910
20
3.126345
10
26.265205
20
3.129041
10
26.261487
20
3.131718
10
26.257756
20
3.134376
10
26.254011
20
3.137015
10
26.250252
20
3.139635
10
26.246480
20
3.142235
10
26.242696
20
3.144817
10
26.238897
20
3.147379
10
26.235086
20
3.149922
10
26.231263
20
3.152445
10
26.227426
20
3.154949
10
26.223576
20
3.157433
10
26.219714
20
3.159898
10
26.215840
20
3.162343
10
26.211953
20
3.164768
10
26.208054
20
3.167174
10
26.204142
20
3.169559
10
26.200219
20
3.171925
10
26.196283
20
3.174271
10
26.192336
20
3.176596
10
26.188377
20
3.178901
10
26.184406
20
3.181187
10
26.180424
20
3.183452
10
26.176430
20
3.185696
10
26.172424
20
3.187921
10
26.168408
20
3.190125
10
26.164380
20
3.192308
10
26.160341
20
3.194471
10
26.156292
20
3.196613
10
26.152231
20
3.198735
10
26.148160
20
3.200836
10
26.144078
20
3.202916
10
26.139985
20
3.204975
10
26.135882
20
3.207014
10
26.131769
20
3.209032
10
26.127646
20
3.211028
10
26.123512
20
3.213004
10
26.119368
20
3.214959
10
26.115215
20
3.216892
10
26.111052
20
3.218804
10
26.106879
20
3.220695
10
26.102696
20
3.222565
10
26.098504
20
3.224414
10
26.094303
20
3.226241
10
26.090092
20
3.228047
10
26.085872
20
3.229831
10
26.081644
20
3.231594
10
26.077406
20
3.233335
10
26.073159
20
3.235054
10
26.068904
20
3.236752
10
26.064640
20
3.238429
10
26.060368
20
3.240083
10
26.056088
20
3.241716
10
26.051799
20
3.243327
10
26.047502
20
3.244916
10
26.043197
20
3.246483
10
26.038884
20
3.248029
10
26.034563
20
3.249552
10
26.030234
20
3.251053
10
26.025898
20
3.252533
10
26.021555
20
3.253990
10
26.017204
20
3.255425
10
26.012846
20
3.256838
10
26.008480
20
3.258228
10
26.004108
20
3.259597
10
25.999729
20
3.260943
10
25.995343
20
3.262267
10
25.990950
20
3.263568
10
25.986551
20
3.264848
10
25.982145
20
3.266104
10
25.977733
20
3.267339
10
25.973315
20
3.268550
10
25.968890
20
3.269740
10
25.964460
20
3.270906
10
25.960024
20
3.272051
10
25.955582
20
3.273172
10
25.951134
20
3.274271
10
25.946681
20
3.275347
10
25.942222
20
3.276401
10
25.937758
20
3.277432
10
25.933289
20
3.278440
10
25.928815
20
3.279425
10
25.924335
20
3.280388
10
25.919851
20
3.281328
10
25.915363
20
3.282245
10
25.910869
20
3.283139
10
25.906371
20
3.284010
10
25.901869
20
3.284859
10
25.897363
20
3.285684
10
25.892852
20
3.286486
10
25.888337
20
3.287266
10
25.883819
20
3.288022
10
25.879296
20
3.288756
10
25.874770
20
3.289466
10
25.870241
20
3.290154
10
25.865708
20
3.290818
10
25.861171
20
3.291459
10
25.856632
20
3.292077
10
25.852089
20
3.292672
10
25.847543
20
3.293244
10
25.842995
20
3.293793
10
25.838444
20
3.294318
10
25.833890
20
3.294821
10
25.829333
20
3.295300
10
25.824775
20
3.295756
10
25.820214
20
3.296189
10
25.815651
20
3.296598
10
25.811086
20
3.296985
10
25.806518
20
3.297348
10
25.801950
20
3.297688
10
25.797379
20
3.298004
10
25.792807
20
3.298297
10
25.788234
20
3.298568
10
25.783659
20
3.298814
10
25.779083
20
3.299038
10
25.774506
20
3.299238
10
25.769928
20
3.299415
10
25.765349
20
3.299568
10
25.760769
20
3.299698
10
25.756189
20
3.299805
10
25.751608
20
3.299889
10
25.747027
20
3.299949
10
25.742446
20
3.299986
10
25.737864
20
3.300000
10
25.733283
20
3.299990
10
25.728702
20
3.299957
10
25.724120
20
3.299901
10
25.719540
20
3.299821
10
25.714959
20
3.299718
10
25.710380
20
3.299592
10
25.705801
20
3.299442
10
25.701222
20
3.299270
10
25.696645
20
3.299073
10
25.692069
20
3.298854
10
25.687494
20
3.298611
10
25.682920
20
3.298345
10
25.678348
20
3.298056
10
25.673777
20
3.297743
10
25.669208
20
3.297407
10
25.664641
20
3.297048
10
25.660075
20
3.296666
10
25.655512
20
3.296260
10
25.650950
20
3.295831
10
25.646391
20
3.295379
10
25.641834
20
3.294904
10
25.637280
20
3.294405
10
25.632728
20
3.293884
10
25.628180
20
3.293339
10
25.623633
20
3.292771
10
25.619090
20
3.292180
10
25.614550
20
3.291566
10
25.610013
20
3.290928
10
25.605480
20
3.290268
10
25.600949
20
3.289585
10
25.596423
20
3.288878
10
25.591900
20
3.288149
10
25.587380
20
3.287396
10
25.582865
20
3.286620
10
25.578354
20
3.285822
10
25.573847
20
3.285000
10
25.569344
20
3.284156
10
25.564845
20
3.283289
10
25.560351
20
3.282398
10
25.555861
20
3.281485
10
25.551376
20
3.280549
10
25.546896
20
3.279591
10
25.542421
20
3.278609
10
25.537951
20
3.277605
10
25.533486
20
3.276578
10
25.529027
20
3.275528
10
25.524573
20
3.274456
10
25.520124
20
3.273360
10
25.515681
20
3.272243
10
25.511244
20
3.271102
10
25.506812
20
3.269939
10
25.502387
20
3.268754
10
25.497968
20
3.267546
10
25.493554
20
3.266316
10
25.489148
20
3.265063
10
25.484747
20
3.263787
10
25.480353
20
3.262490
10
25.475966
20
3.261170
10
25.471586
20
3.259827
10
25.467212
20
3.258463
10
25.462846
20
3.257076
10
25.458486
20
3.255667
10
25.454134
20
3.254235
10
25.449789
20
3.252782
10
25.445452
20
3.251306
10
25.441122
20
3.249809
10
25.436800
20
3.248289
10
25.432486
20
3.246748
10
25.428179
20
3.245184
10
25.423881
20
3.243599
10
25.419591
20
3.241991
10
25.415309
20
3.240362
10
25.411035
20
3.238711
10
25.406770
20
3.237039
10
25.402513
20
3.235345
10
25.398265
20
3.233629
10
25.394026
20
3.231891
10
25.389796
20
3.230132
10
25.385574
20
3.228351
10
25.381362
20
3.226549
10
25.377159
20
3.224726
10
25.372966
20
3.222881
10
25.368782
20
3.221015
10
25.364607
20
3.219127
10
25.360442
20
3.217219
10
25.356287
20
3.215289
10
25.352142
20
3.213338
10
25.348006
20
3.211366
10
25.343881
20
3.209372
10
25.339766
20
3.207358
10
25.335661
20
3.205323
10
25.331567
20
3.203268
10
25.327483
20
3.201191
10
25.323410
20
3.199093
10
25.319348
20
3.196975
10
25.315296
20
3.194836
10
25.311255
20
3.192677
10
25.307226
20
3.190497
10
25.303207
20
3.188297
10
25.299200
20
3.186076
10
25.295204
20
3.183835
10
25.291220
20
3.181573
10
25.287247
20
3.179291
10
25.283286
20
3.176989
10
25.279337
20
3.174667
10
25.275399
20
3.172325
10
25.271474
20
3.169963
10
25.267560
20
3.167581
10
25.263659
20
3.165179
10
25.259770
20
3.162757
10
25.255893
20
3.160315
10
25.252029
20
3.157854
10
25.248178
20
3.155373
10
25.244339
20
3.152872
10
25.240513
20
3.150352
10
25.236699
20
3.147813
10
25.232899
20
3.145254
10
25.229112
20
3.142676
10
25.225338
20
3.140078
10
25.221577
20
3.137461
10
25.217830
20
3.134826
10
25.214096
20
3.132171
10
25.210376
20
3.129497
10
25.206669
20
3.126805
10
25.202976
20
3.124093
10
25.199297
20
3.121363
10
25.195632
20
3.118614
10
25.191981
20
3.115846
10
25.188344
20
3.113060
10
25.184721
20
3.110256
10
25.181113
20
3.107433
10
25.177519
20
3.104591
10
25.173939
20
3.101732
10
25.170374
20
3.098854
10
25.166824
20
3.095958
10
25.163289
20
3.093044
10
25.159768
20
3.090112
10
25.156263
20
3.087163
10
25.152772
20
3.084195
10
25.149297
20
3.081210
10
25.145837
20
3.078207
10
25.142392
20
3.075186
10
25.138963
20
3.072148
10
25.135549
20
3.069093
10
25.132151
20
3.066020
10
25.128768
20
3.062930
10
25.125402
20
3.059823
10
25.122051
20
3.056698
10
25.118716
20
3.053557
10
25.115397
20
3.050399
10
25.112094
20
3.047224
10
25.108807
20
3.044032
10
25.105537
20
3.040823
10
25.102283
20
3.037598
10
25.099046
20
3.034356
10
25.095825
20
3.031098
10
25.092620
20
3.027824
10
25.089433
20
3.024533
10
25.086262
20
3.021226
10
25.083108
20
3.017903
10
25.079971
20
3.014564
10
25.076851
20
3.011209
10
25.073749
20
3.007838
10
25.070663
20
3.004452
10
25.067595
20
3.001049
10
22.823531
20
0.500000
10
22.875776
20
0.500000
10
26.021449
20
1.545975
10
26.025793
20
1.547432
10
26.030129
20
1.548910
0
LWPOLYLINE
8
0
100
AcDbEntity
100
AcDbPolyline
90
723
70
1
10
18.872662
20
1.548910
10
18.876991
20
1.550411
10
18.881312
20
1.551934
10
18.885625
20
1.553479
10
18.889930
20
1.555045
10
18.894227
20
1.556634
10
18.898516
20
1.558244
10
18.902797
20
1.559877
10
18.907070
20
1.561531
10
18.911334
20
1.563206
10
18.915589
20
1.564904
10
18.919836
20
1.566623
10
18.924074
20
1.568364
10
18.928303
20
1.570126
10
18.932523
20
1.571910
10
18.936733
20
1.573715
10
18.940935
20
1.575542
10
18.945127
20
1.577390
10
18.949310
20
1.579259
10
18.953483
20
1.581149
10
18.957647
20
1.583061
10
18.961800
20
1.584994
10
18.965944
20
1.586948
10
18.970078
20
1.588923
10
18.974202
20
1.590919
10
18.978315
20
1.592937
10
18.982418
20
1.594975
10
18.986511
20
1.597034
10
18.990593
20
1.599113
10
18.994665
20
1.601214
10
18.998726
20
1.603335
10
19.002776
20
1.605477
10
19.006815
20
1.607639
10
19.010843
20
1.609822
10
19.014860
20
1.612025
10
19.018865
20
1.614249
10
19.022859
20
1.616493
10
19.026842
20
1.618758
10
19.030813
20
1.621043
10
19.034773
20
1.623348
10
19.038720
20
1.625673
10
19.042656
20
1.628018
10
19.046580
20
1.630383
10
19.050492
20
1.632768
10
19.054391
20
1.635173
10
19.058278
20
1.637598
10
19.062153
20
1.640042
10
19.066015
20
1.642506
10
19.069865
20
1.644990
10
19.073702
20
1.647494
10
19.077526
20
1.650016
10
19.081338
20
1.652559
10
19.085136
20
1.655120
10
19.088921
20
1.657701
10
19.092694
20
1.660302
10
19.096452
20
1.662921
10
19.100198
20
1.665560
10
19.103930
20
1.668217
10
19.107648
20
1.670894
10
19.111353
20
1.673589
10
19.115044
20
1.676303
10
19.118721
20
1.679036
10
19.122384
20
1.681788
10
19.126033
20
1.684558
10
19.129668
20
1.687347
10
19.133288
20
1.690154
10
19.136895
20
1.692980
10
19.140486
20
1.695824
10
19.144064
20
1.698686
10
19.147627
20
1.701567
10
19.151175
20
1.704465
10
19.154708
20
1.707382
10
19.158226
20
1.710316
10
19.161729
20
1.713268
10
19.165218
20
1.716239
10
19.168691
20
1.719226
10
19.172149
20
1.722232
10
19.175591
20
1.725255
10
19.179018
20
1.728296
10
19.182430
20
1.731354
10
19.185826
20
1.734429
10
19.189206
20
1.737521
10
19.192570
20
1.740631
10
19.195919
20
1.743758
10
19.199252
20
1.746902
10
19.202568
20
1.750062
10
19.205869
20
1.753240
10
19.209153
20
1.756434
10
19.212421
20
1.759645
10
19.215672
20
1.762873
10
19.218907
20
1.766117
10
19.222126
20
1.769378
10
19.225328
20
1.772654
10
19.228513
20
1.775948
10
19.231681
20
1.779257
10
19.234833
20
1.782582
10
19.237967
20
1.785924
10
19.241085
20
1.789281
10
19.244185
20
1.792654
10
19.247268
20
1.796043
10
19.250334
20
1.799447
10
19.253382
20
1.802867
10
19.256413
20
1.806303
10
19.259427
20
1.809754
10
19.262422
20
1.813220
10
19.265401
20
1.816702
10
19.268361
20
1.820198
10
19.271304
20
1.823710
10
19.274228
20
1.827236
10
19.277135
20
1.830778
10
19.280023
20
1.834334
10
19.282894
20
1.837904
10
19.285746
20
1.841490
10
19.288580
20
1.845090
10
19.291396
20
1.848704
10
19.294193
20
1.852332
10
19.296971
20
1.855975
10
19.299732
20
1.859632
10
19.302473
20
1.863302
10
19.305196
20
1.866987
10
19.307900
20
1.870685
10
19.310585
20
1.874398
10
19.313251
20
1.878123
10
19.315898
20
1.881863
10
19.318526
20
1.885616
10
19.321135
20
1.889382
10
19.323724
20
1.893161
10
19.326295
20
1.896953
10
19.328846
20
1.900759
10
19.331378
20
1.904577
10
19.333890
20
1.908409
10
19.336383
20
1.912253
10
19.338856
20
1.916109
10
19.341309
20
1.919978
10
19.343743
20
1.923860
10
19.346157
20
1.927754
10
19.348551
20
1.931660
10
19.350925
20
1.935579
10
19.353279
20
1.939509
10
19.355613
20
1.943451
10
19.357927
20
1.947405
10
19.360221
20
1.951371
10
19.362495
20
1.955349
10
19.364748
20
1.959338
10
19.366981
20
1.963338
10
19.369194
20
1.967350
10
19.371386
20
1.971373
10
19.373557
20
1.975407
10
19.375709
20
1.979452
10
19.377839
20
1.983508
10
19.379949
20
1.987575
10
19.382038
20
1.991652
10
19.384106
20
1.995740
10
19.386154
20
1.999839
10
19.388180
20
2.003948
10
19.390186
20
2.008067
10
19.392171
20
2.012196
10
19.394134
20
2.016335
10
19.396077
20
2.020485
10
19.397998
20
2.024644
10
19.399898
20
2.028813
10
19.401777
20
2.032991
10
19.403635
20
2.037179
10
19.405471
20
2.041376
10
19.407286
20
2.045583
10
19.409079
20
2.049799
10
19.410851
20
2.054024
10
19.412602
20
2.058258
10
19.414330
20
2.062500
10
19.416038
20
2.066752
10
19.417723
20
2.071012
10
19.419387
20
2.075281
10
19.421029
20
2.079558
10
19.422650
20
2.083843
10
19.424248
20
2.088137
10
19.425825
20
2.092438
10
19.427379
20
2.096748
10
19.428912
20
2.101065
10
19.430423
20
2.105391
10
19.431911
20
2.109723
10
19.433378
20
2.114064
10
19.434823
20
2.118412
10
19.436245
20
2.122767
10
19.437645
20
2.127129
10
19.439023
20
2.131498
10
19.440379
20
2.135875
10
19.441712
20
2.140258
10
19.443023
20
2.144648
10
19.444312
20
2.149044
10
19.445578
20
2.153447
10
19.446822
20
2.157856
10
19.448043
20
2.162272
10
19.449242
20
2.166694
10
19.450419
20
2.171122
10
19.451573
20
2.175556
10
19.452704
20
2.179995
10
19.453812
20
2.184440
10
19.454898
20
2.188891
10
19.455962
20
2.193348
10
19.457002
20
2.197809
10
19.458020
20
2.202276
10
19.459015
20
2.206748
10
19.459988
20
2.211226
10
19.460937
20
2.215708
10
19.461864
20
2.220194
10
19.462768
20
2.224686
10
19.463649
20
2.229182
10
19.464507
20
2.233682
10
19.465342
20
2.238187
10
19.466154
20
2.242696
10
19.466944
20
2.247209
10
19.467710
20
2.251726
10
19.468453
20
2.256246
10
19.469173
20
2.260771
10
19.469871
20
2.265299
10
19.470545
20
2.269831
10
19.471196
20
2.274365
10
19.471824
20
2.278904
10
19.472429
20
2.283445
10
19.473011
20
2.287989
10
19.473569
20
2.292537
10
19.474105
20
2.297087
10
19.474617
20
2.301640
10
19.475106
20
2.306195
10
19.475572
20
2.310752
10
19.476015
20
2.315313
10
19.476434
20
2.319875
10
19.476830
20
2.324439
10
19.477203
20
2.329005
10
19.477553
20
2.333573
10
19.477880
20
2.338143
10
19.478183
20
2.342715
10
19.478463
20
2.347288
10
19.478720
20
2.351862
10
19.478953
20
2.356437
10
19.479163
20
2.361014
10
19.479350
20
2.365592
10
19.479514
20
2.370170
10
19.479654
20
2.374749
10
19.479771
20
2.379329
10
19.479864
20
2.383910
10
19.479934
20
2.388491
10
19.479981
20
2.393072
10
19.480005
20
2.397653
10
19.480005
20
2.402235
10
19.479982
20
2.406816
10
19.479936
20
2.411398
10
19.479866
20
2.415979
10
19.479773
20
2.420559
10
19.479657
20
2.425139
10
19.479517
20
2.429718
10
19.479354
20
2.434297
10
19.479168
20
2.438875
10
19.478958
20
2.443451
10
19.478726
20
2.448027
10
19.478470
20
2.452601
10
19.478190
20
2.457174
10
19.477887
20
2.461746
10
19.477561
20
2.466315
10
19.477212
20
2.470884
10
19.476840
20
2.475450
10
19.476444
20
2.480014
10
19.476025
20
2.484576
10
19.475583
20
2.489136
10
19.475118
20
2.493694
10
19.474629
20
2.498250
10
19.474117
20
2.502802
10
19.473583
20
2.507353
10
19.473024
20
2.511900
10
19.472443
20
2.516444
10
19.471839
20
2.520986
10
19.471212
20
2.525524
10
19.470561
20
2.530059
10
19.469887
20
2.534591
10
19.469191
20
2.539119
10
19.468471
20
2.543644
10
19.467728
20
2.548164
10
19.466963
20
2.552681
10
19.466174
20
2.557194
10
19.465362
20
2.561703
10
19.464528
20
2.566208
10
19.463670
20
2.570709
10
19.462790
20
2.575205
10
19.461886
20
2.579696
10
19.460960
20
2.584183
10
19.460011
20
2.588665
10
19.459039
20
2.593143
10
19.458045
20
2.597615
10
19.457027
20
2.602082
10
19.455987
20
2.606544
10
19.454925
20
2.611000
10
19.453839
20
2.615451
10
19.452731
20
2.619897
10
19.451600
20
2.624336
10
19.450447
20
2.628770
10
19.449271
20
2.633198
10
19.448073
20
2.637620
10
19.446852
20
2.642036
10
19.445609
20
2.646446
10
19.444343
20
2.650849
10
19.443055
20
2.655245
10
19.441744
20
2.659635
10
19.440411
20
2.664019
10
19.439056
20
2.668395
10
19.437679
20
2.672765
10
19.436279
20
2.677127
10
19.434857
20
2.681482
10
19.433414
20
2.685830
10
19.431947
20
2.690171
10
19.430459
20
2.694504
10
19.428949
20
2.698829
10
19.427417
20
2.703147
10
19.425863
20
2.707457
10
19.424287
20
2.711759
10
19.422689
20
2.716052
10
19.421069
20
2.720338
10
19.419427
20
2.724615
10
19.417764
20
2.728884
10
19.416079
20
2.733144
10
19.414372
20
2.737396
10
19.412644
20
2.741639
10
19.410894
20
2.745873
10
19.409123
20
2.750098
10
19.407330
20
2.754314
10
19.405515
20
2.758521
10
19.403680
20
2.762719
10
19.401823
20
2.766907
10
19.399944
20
2.771086
10
19.398045
20
2.775255
10
19.396124
20
2.779414
10
19.394182
20
2.783564
10
19.392219
20
2.787703
10
19.390234
20
2.791833
10
19.388229
20
2.795952
10
19.386203
20
2.800061
10
19.384156
20
2.804160
10
19.382089
20
2.808248
10
19.380000
20
2.812326
10
19.377891
20
2.816393
10
19.375761
20
2.820449
10
19.373610
20
2.824495
10
19.371439
20
2.828529
10
19.369247
20
2.832552
10
19.367035
20
2.836564
10
19.364803
20
2.840565
10
19.362550
20
2.844554
10
19.360277
20
2.848532
10
19.357983
20
2.852498
10
19.355670
20
2.856453
10
19.353336
20
2.860395
10
19.350982
20
2.864326
10
19.348609
20
2.868244
10
19.346215
20
2.872151
10
19.343802
20
2.876045
10
19.341369
20
2.879927
10
19.338916
20
2.883797
10
19.336443
20
2.887654
10
19.333951
20
2.891498
10
19.331439
20
2.895330
10
19.328908
20
2.899148
10
19.326357
20
2.902954
10
19.323787
20
2.906747
10
19.321198
20
2.910526
10
19.318590
20
2.914293
10
19.315962
20
2.918046
10
19.313315
20
2.921786
10
19.310650
20
2.925512
10
19.307965
20
2.929224
10
19.305262
20
2.932923
10
19.302539
20
2.936608
10
19.299799
20
2.940279
10
19.297039
20
2.943936
10
19.294261
20
2.947579
10
19.291464
20
2.951208
10
19.288649
20
2.954823
10
19.285815
20
2.958423
10
19.282964
20
2.962008
10
19.280094
20
2.965580
10
19.277205
20
2.969136
10
19.274299
20
2.972678
10
19.271375
20
2.976205
10
19.268433
20
2.979717
10
19.265473
20
2.983213
10
19.262495
20
2.986695
10
19.259500
20
2.990162
10
19.256487
20
2.993613
10
19.253456
20
2.997049
10
19.250408
20
3.000470
10
19.247343
20
3.003874
10
19.244260
20
3.007264
10
19.241160
20
3.010637
10
19.238043
20
3.013995
10
19.234909
20
3.017337
10
19.231758
20
3.020662
10
19.228590
20
3.023972
10
19.225405
20
3.027266
10
19.222204
20
3.030543
10
19.218986
20
3.033804
10
19.215751
20
3.037048
10
19.212500
20
3.040276
10
19.209233
20
3.043488
10
19.205949
20
3.046682
10
19.202649
20
3.049860
10
19.199333
20
3.053022
10
19.196000
20
3.056166
10
19.192652
20
3.059293
10
19.189288
20
3.062403
10
19.185908
20
3.065496
10
19.182513
20
3.068572
10
19.179101
20
3.071630
10
19.175675
20
3.074671
10
19.172233
20
3.077695
10
19.168775
20
3.080701
10
19.165302
20
3.083689
10
19.161815
20
3.086659
10
19.158312
20
3.089612
10
19.154794
20
3.092547
10
19.151261
20
3.095464
10
19.147713
20
3.098363
10
19.144151
20
3.101244
10
19.140574
20
3.104107
10
19.136982
20
3.106951
10
19.133376
20
3.109777
10
19.129756
20
3.112585
10
19.126121
20
3.115374
10
19.122473
20
3.118145
10
19.118810
20
3.120897
10
19.115133
20
3.123630
10
19.111443
20
3.126345
10
19.107738
20
3.129041
10
19.104020
20
3.131718
10
19.100289
20
3.134376
10
19.096544
20
3.137015
10
19.092785
20
3.139635
10
19.089013
20
3.142235
10
19.085228
20
3.144817
10
19.081430
20
3.147379
10
19.077619
20
3.149922
10
19.073796
20
3.152445
10
19.069959
20
3.154949
10
19.066109
20
3.157433
10
19.062247
20
3.159898
10
19.058373
20
3.162343
10
19.054486
20
3.164768
10
19.050587
20
3.167174
10
19.046675
20
3.169559
10
19.042752
20
3.171925
10
19.038816
20
3.174271
10
19.034869
20
3.176596
10
19.030910
20
3.178901
10
19.026939
20
3.181187
10
19.022957
20
3.183452
10
19.018963
20
3.185696
10
19.014957
20
3.187921
10
19.010941
20
3.190125
10
19.006913
20
3.192308
10
19.002874
20
3.194471
10
18.998825
20
3.196613
10
18.994764
20
3.198735
10
18.990693
20
3.200836
10
18.986611
20
3.202916
10
18.982518
20
3.204975
10
18.978415
20
3.207014
10
18.974302
20
3.209032
10
18.970179
20
3.211028
10
18.966045
20
3.213004
10
18.961901
20
3.214959
10
18.957748
20
3.216892
10
18.953585
20
3.218804
10
18.949412
20
3.220695
10
18.945229
20
3.222565
10
18.941037
20
3.224414
10
18.936836
20
3.226241
10
18.932625
20
3.228047
10
18.928405
20
3.229831
10
18.924177
20
3.231594
10
18.919939
20
3.233335
10
18.915692
20
3.235054
10
18.911437
20
3.236752
10
18.907173
20
3.238429
10
18.902901
20
3.240083
10
18.898621
20
3.241716
10
18.894332
20
3.243327
10
18.890035
20
3.244916
10
18.885730
20
3.246483
10
18.881417
20
3.248029
10
18.877096
20
3.249552
10
18.872767
20
3.251053
10
18.868431
20
3.252533
10
18.864088
20
3.253990
10
18.859737
20
3.255425
10
18.855379
20
3.256838
10
18.851013
20
3.258228
10
18.846641
20
3.259597
10
18.842262
20
3.260943
10
18.837876
20
3.262267
10
18.833483
20
3.263568
10
18.829084
20
3.264848
10
18.824678
20
3.266104
10
18.820266
20
3.267339
10
18.815848
20
3.268550
10
18.811423
20
3.269740
10
18.806993
20
3.270906
10
18.802557
20
3.272051
10
18.798115
20
3.273172
10
18.793667
20
3.274271
10
18.789214
20
3.275347
10
18.784755
20
3.276401
10
18.780291
20
3.277432
10
18.775822
20
3.278440
10
18.771348
20
3.279425
10
18.766868
20
3.280388
10
18.762384
20
3.281328
10
18.757896
20
3.282245
10
18.753402
20
3.283139
10
18.748904
20
3.284010
10
18.744402
20
3.284859
10
18.739896
20
3.285684
10
18.735385
20
3.286486
10
18.730870
20
3.287266
10
18.726352
20
3.288022
10
18.721829
20
3.288756
10
18.717303
20
3.289466
10
18.712774
20
3.290154
10
18.708241
20
3.290818
10
18.703704
20
3.291459
10
18.699165
20
3.292077
10
18.694622
20
3.292672
10
18.690076
20
3.293244
10
18.685528
20
3.293793
10
18.680977
20
3.294318
10
18.676423
20
3.294821
10
18.671866
20
3.295300
10
18.667308
20
3.295756
10
18.662747
20
3.296189
10
18.658184
20
3.296598
10
18.653619
20
3.296985
10
18.649051
20
3.297348
10
18.644483
20
3.297688
10
18.639912
20
3.298004
10
18.635340
20
3.298297
10
18.630767
20
3.298568
10
18.626192
20
3.298814
10
18.621616
20
3.299038
10
18.617039
20
3.299238
10
18.612461
20
3.299415
10
18.607882
20
3.299568
10
18.603302
20
3.299698
10
18.598722
20
3.299805
10
18.594141
20
3.299889
10
18.589560
20
3.299949
10
18.584979
20
3.299986
10
18.580397
20
3.300000
10
18.575816
20
3.299990
10
18.571235
20
3.299957
10
18.566653
20
3.299901
10
18.562073
20
3.299821
10
18.557492
20
3.299718
10
18.552913
20
3.299592
10
18.548334
20
3.299442
10
18.543755
20
3.299270
10
18.539178
20
3.299073
10
18.534602
20
3.298854
10
18.530027
20
3.298611
10
18.525453
20
3.298345
10
18.520881
20
3.298056
10
18.516310
20
3.297743
10
18.511741
20
3.297407
10
18.507174
20
3.297048
10
18.502608
20
3.296666
10
18.498045
20
3.296260
10
18.493483
20
3.295831
10
18.488924
20
3.295379
10
18.484367
20
3.294904
10
18.479813
20
3.294405
10
18.475261
20
3.293884
10
18.470713
20
3.293339
10
18.466166
20
3.292771
10
18.461623
20
3.292180
10
18.457083
20
3.291566
10
18.452546
20
3.290928
10
18.448013
20
3.290268
10
18.443482
20
3.289585
10
18.438956
20
3.288878
10
18.434433
20
3.288149
10
18.429913
20
3.287396
10
18.425398
20
3.286620
10
18.420887
20
3.285822
10
18.416380
20
3.285000
10
18.411877
20
3.284156
10
18.407378
20
3.283289
10
18.402884
20
3.282398
10
18.398394
20
3.281485
10
18.393909
20
3.280549
10
18.389429
20
3.279591
10
18.384954
20
3.278609
10
18.380484
20
3.277605
10
18.376019
20
3.276578
10
18.371560
20
3.275528
10
18.367106
20
3.274456
10
18.362657
20
3.273360
10
18.358214
20
3.272243
10
18.353777
20
3.271102
10
18.349345
20
3.269939
10
18.344920
20
3.268754
10
18.340501
20
3.267546
10
18.336087
20
3.266316
10
18.331681
20
3.265063
10
18.327280
20
3.263787
10
18.322886
20
3.262490
10
18.318499
20
3.261170
10
18.314119
20
3.259827
10
18.309745
20
3.258463
10
18.305379
20
3.257076
10
18.301019
20
3.255667
10
18.296667
20
3.254235
10
18.292322
20
3.252782
10
18.287985
20
3.251306
10
18.283655
20
3.249809
10
18.279333
20
3.248289
10
18.275019
20
3.246748
10
18.270712
20
3.245184
10
18.266414
20
3.243599
10
18.262124
20
3.241991
10
18.257842
20
3.240362
10
18.253568
20
3.238711
10
18.249303
20
3.237039
10
18.245046
20
3.235345
10
18.240798
20
3.233629
10
18.236559
20
3.231891
10
18.232329
20
3.230132
10
18.228107
20
3.228351
10
18.223895
20
3.226549
10
18.219692
20
3.224726
10
18.215499
20
3.222881
10
18.211315
20
3.221015
10
18.207140
20
3.219127
10
18.202975
20
3.217219
10
18.198820
20
3.215289
10
18.194675
20
3.213338
10
18.190539
20
3.211366
10
18.186414
20
3.209372
10
18.182299
20
3.207358
10
18.178194
20
3.205323
10
18.174100
20
3.203268
10
18.170016
20
3.201191
10
18.165943
20
3.199093
10
18.161881
20
3.196975
10
18.157829
20
3.194836
10
18.153788
20
3.192677
10
18.149759
20
3.190497
10
18.145740
20
3.188297
10
18.141733
20
3.186076
10
18.137737
20
3.183835
10
18.133753
20
3.181573
10
18.129780
20
3.179291
10
18.125819
20
3.176989
10
18.121870
20
3.174667
10
18.117932
20
3.172325
10
18.114007
20
3.169963
10
18.110093
20
3.167581
10
18.106192
20
3.165179
10
18.102303
20
3.162757
10
18.098426
20
3.160315
10
18.094562
20
3.157854
10
18.090711
20
3.155373
10
18.086872
20
3.152872
10
18.083046
20
3.150352
10
18.079232
20
3.147813
10
18.075432
20
3.145254
10
18.071645
20
3.142676
10
18.067871
20
3.140078
10
18.064110
20
3.137461
10
18.060363
20
3.134826
10
18.056629
20
3.132171
10
18.052909
20
3.129497
10
18.049202
20
3.126805
10
18.045509
20
3.124093
10
18.041830
20
3.121363
10
18.038165
20
3.118614
10
18.034514
20
3.115846
10
18.030877
20
3.113060
10
18.027254
20
3.110256
10
18.023646
20
3.107433
10
18.020052
20
3.104591
10
18.016472
20
3.101732
10
18.012907
20
3.098854
10
18.009357
20
3.095958
10
18.005822
20
3.093044
10
18.002301
20
3.090112
10
17.998796
20
3.087163
10
17.995305
20
3.084195
10
17.991830
20
3.081210
10
17.988370
20
3.078207
10
17.984925
20
3.075186
10
17.981496
20
3.072148
10
17.978082
20
3.069093
10
17.974684
20
3.066020
10
17.971301
20
3.062930
10
17.967935
20
3.059823
10
17.964584
20
3.056698
10
17.961249
20
3.053557
10
17.957930
20
3.050399
10
17.954627
20
3.047224
10
17.951340
20
3.044032
10
17.948070
20
3.040823
10
17.944816
20
3.037598
10
17.941579
20
3.034356
10
17.938358
20
3.031098
10
17.935153
20
3.027824
10
17.931966
20
3.024533
10
17.928795
20
3.021226
10
17.925641
20
3.017903
10
17.922504
20
3.014564
10
17.919384
20
3.011209
10
17.916282
20
3.007838
10
17.913196
20
3.004452
10
17.910128
20
3.001049
10
15.666064
20
0.500000
10
15.718309
20
0.500000
10
18.863982
20
1.545975
10
18.868326
20
1.547432
10
18.872662
20
1.548910
0
LWPOLYLINE
8
0
100
AcDbEntity
100
AcDbPolyline
90
723
70
1
10
11.715195
20
1.548910
10
11.719524
20
1.550411
10
11.723845
20
1.551934
10
11.728158
20
1.553479
10
11.732463
20
1.555045
10
11.736760
20
1.556634
10
11.741049
20
1.558244
10
11.745330
20
1.559877
10
11.749603
20
1.561531
10
11.753867
20
1.563206
10
11.758122
20
1.564904
10
11.762369
20
1.566623
10
11.766607
20
1.568364
10
11.770836
20
1.570126
10
11.775055
20
1.571910
10
11.779266
20
1.573715
10
11.783468
20
1.575542
10
11.787660
20
1.577390
10
11.791843
20
1.579259
10
11.796016
20
1.581149
10
11.800180
20
1.583061
10
11.804333
20
1.584994
10
11.808477
20
1.586948
10
11.812611
20
1.588923
10
11.816735
20
1.590919
10
11.820848
20
1.592937
10
11.824951
20
1.594975
10
11.829044
20
1.597034
10
11.833126
20
1.599113
10
11.837198
20
1.601214
10
11.841259
20
1.603335
10
11.845309
20
1.605477
10
11.849348
20
1.607639
10
11.853376
20
1.609822
10
11.857393
20
1.612025
10
11.861398
20
1.614249
10
11.865392
20
1.616493
10
11.869375
20
1.618758
10
11.873346
20
1.621043
10
11.877306
20
1.623348
10
11.881253
20
1.625673
10
11.885189
20
1.628018
10
11.889113
20
1.630383
10
11.893025
20
1.632768
10
11.896924
20
1.635173
10
11.900811
20
1.637598
10
11.904686
20
1.640042
10
11.908548
20
1.642506
10
11.912398
20
1.644990
10
11.916235
20
1.647494
10
11.920059
20
1.650016
10
11.923871
20
1.652559
10
11.927669
20
1.655120
10
11.931454
20
1.657701
10
11.935226
20
1.660302
10
11.938985
20
1.662921
10
11.942731
20
1.665560
10
11.946463
20
1.668217
10
11.950181
20
1.670894
10
11.953886
20
1.673589
10
11.957577
20
1.676303
10
11.961254
20
1.679036
10
11.964917
20
1.681788
10
11.968566
20
1.684558
10
11.972201
20
1.687347
10
11.975821
20
1.690154
10
11.979428
20
1.692980
10
11.983019
20
1.695824
10
11.986597
20
1.698686
10
11.990159
20
1.701567
10
11.993708
20
1.704465
10
11.997241
20
1.707382
10
12.000759
20
1.710316
10
12.004262
20
1.713268
10
12.007751
20
1.716239
10
12.011224
20
1.719226
10
12.014682
20
1.722232
10
12.018124
20
1.725255
10
12.021551
20
1.728296
10
12.024963
20
1.731354
10
12.028359
20
1.734429
10
12.031739
20
1.737521
10
12.035103
20
1.740631
10
12.038452
20
1.743758
10
12.041785
20
1.746902
10
12.045101
20
1.750062
10
12.048402
20
1.753240
10
12.051686
20
1.756434
10
12.054954
20
1.759645
10
12.058205
20
1.762873
10
12.061440
20
1.766117
10
12.064659
20
1.769378
10
12.067861
20
1.772654
10
12.071046
20
1.775948
10
12.074214
20
1.779257
10
12.077366
20
1.782582
10
12.080500
20
1.785924
10
12.083618
20
1.789281
10
12.086718
20
1.792654
10
12.089801
20
1.796043
10
12.092867
20
1.799447
10
12.095915
20
1.802867
10
12.098946
20
1.806303
10
12.101960
20
1.809754
10
12.104955
20
1.813220
10
12.107934
20
1.816702
10
12.110894
20
1.820198
10
12.113837
20
1.823710
10
12.116761
20
1.827236
10
12.119668
20
1.830778
10
12.122556
20
1.834334
10
12.125427
20
1.837904
10
12.128279
20
1.841490
10
12.131113
20
1.845090
10
12.133929
20
1.848704
10
12.136726
20
1.852332
10
12.139504
20
1.855975
10
12.142265
20
1.859632
10
12.145006
20
1.863302
10
12.147729
20
1.866987
10
12.150433
20
1.870685
10
12.153118
20
1.874398
10
12.155784
20
1.878123
10
12.158431
20
1.881863
10
12.161059
20
1.885616
10
12.163668
20
1.889382
10
12.166257
20
1.893161
10
12.168828
20
1.896953
10
12.171379
20
1.900759
10
12.173911
20
1.904577
10
12.176423
20
1.908409
10
12.178916
20
1.912253
10
12.181389
20
1.916109
10
12.183842
20
1.919978
10
12.186276
20
1.923860
10
12.188690
20
1.927754
10
12.191084
20
1.931660
10
12.193458
20
1.935579
10
12.195812
20
1.939509
10
12.198146
20
1.943451
10
12.200460
20
1.947405
10
12.202754
20
1.951371
10
12.205028
20
1.955349
10
12.207281
20
1.959338
10
12.209514
20
1.963338
10
12.211727
20
1.967350
10
12.213919
20
1.971373
10
12.216090
20
1.975407
10
12.218242
20
1.979452
10
12.220372
20
1.983508
10
12.222482
20
1.987575
10
12.224571
20
1.991652
10
12.226639
20
1.995740
10
12.228687
20
1.999839
10
12.230713
20
2.003948
10
12.232719
20
2.008067
10
12.234704
20
2.012196
10
12.236667
20
2.016335
10
12.238610
20
2.020485
10
12.240531
20
2.024644
10
12.242431
20
2.028813
10
12.244310
20
2.032991
10
12.246168
20
2.037179
10
12.248004
20
2.041376
10
12.249819
20
2.045583
10
12.251612
20
2.049799
10
12.253384
20
2.054024
10
12.255135
20
2.058258
10
12.256863
20
2.062500
10
12.258571
20
2.066752
10
12.260256
20
2.071012
10
12.261920
20
2.075281
10
12.263562
20
2.079558
10
12.265183
20
2.083843
10
12.266781
20
2.088137
10
12.268358
20
2.092438
10
12.269912
20
2.096748
10
12.271445
20
2.101065
10
12.272956
20
2.105391
10
12.274444
20
2.109723
10
12.275911
20
2.114064
10
12.277356
20
2.118412
10
12.278778
20
2.122767
10
12.280178
20
2.127129
10
12.281556
20
2.131498
10
12.282912
20
2.135875
10
12.284245
20
2.140258
10
12.285556
20
2.144648
10
12.286845
20
2.149044
10
12.288111
20
2.153447
10
12.289355
20
2.157856
10
12.290576
20
2.162272
10
12.291775
20
2.166694
10
12.292952
20
2.171122
10
12.294106
20
2.175556
10
12.295237
20
2.179995
10
12.296345
20
2.184440
10
12.297431
20
2.188891
10
12.298495
20
2.193348
10
12.299535
20
2.197809
10
12.300553
20
2.202276
10
12.301548
20
2.206748
10
12.302521
20
2.211226
10
12.303470
20
2.215708
10
12.304397
20
2.220194
10
12.305301
20
2.224686
10
12.306182
20
2.229182
10
12.307040
20
2.233682
10
12.307875
20
2.238187
10
12.308687
20
2.242696
10
12.309477
20
2.247209
10
12.310243
20
2.251726
10
12.310986
20
2.256246
10
12.311706
20
2.260771
10
12.312404
20
2.265299
10
12.313078
20
2.269831
10
12.313729
20
2.274365
10
12.314357
20
2.278904
10
12.314962
20
2.283445
10
12.315544
20
2.287989
10
12.316102
20
2.292537
10
12.316638
20
2.297087
10
12.317150
20
2.301640
10
12.317639
20
2.306195
10
12.318105
20
2.310752
10
12.318548
20
2.315313
10
12.318967
20
2.319875
10
12.319363
20
2.324439
10
12.319736
20
2.329005
10
12.320086
20
2.333573
10
12.320413
20
2.338143
10
12.320716
20
2.342715
10
12.320996
20
2.347288
10
12.321253
20
2.351862
10
12.321486
20
2.356437
10
12.321696
20
2.361014
10
12.321883
20
2.365592
10
12.322047
20
2.370170
10
12.322187
20
2.374749
10
12.322304
20
2.379329
10
12.322397
20
2.383910
10
12.322467
20
2.388491
10
12.322514
20
2.393072
10
12.322538
20
2.397653
10
12.322538
20
2.402235
10
12.322515
20
2.406816
10
12.322469
20
2.411398
10
12.322399
20
2.415979
10
12.322306
20
2.420559
10
12.322190
20
2.425139
10
12.322050
20
2.429718
10
12.321887
20
2.434297
10
12.321701
20
2.438875
10
12.321491
20
2.443451
10
12.321259
20
2.448027
10
12.321003
20
2.452601
10
12.320723
20
2.457174
10
12.320420
20
2.461746
10
12.320094
20
2.466315
10
12.319745
20
2.470884
10
12.319373
20
2.475450
10
12.318977
20
2.480014
10
12.318558
20
2.484576
10
12.318116
20
2.489136
10
12.317651
20
2.493694
10
12.317162
20
2.498250
10
12.316650
20
2.502802
10
12.316116
20
2.507353
10
12.315557
20
2.511900
10
12.314976
20
2.516444
10
12.314372
20
2.520986
10
12.313745
20
2.525524
10
12.313094
20
2.530059
10
12.312420
20
2.534591
10
12.311724
20
2.539119
10
12.311004
20
2.543644
10
12.310261
20
2.548164
10
12.309496
20
2.552681
10
12.308707
20
2.557194
10
12.307895
20
2.561703
10
12.307061
20
2.566208
10
12.306203
20
2.570709
10
12.305323
20
2.575205
10
12.304419
20
2.579696
10
12.303493
20
2.584183
10
12.302544
20
2.588665
10
12.301572
20
2.593143
10
12.300578
20
2.597615
10
12.299560
20
2.602082
10
12.298520
20
2.606544
10
12.297458
20
2.611000
10
12.296372
20
2.615451
10
12.295264
20
2.619897
10
12.294133
20
2.624336
10
12.292980
20
2.628770
10
12.291804
20
2.633198
10
12.290606
20
2.637620
10
12.289385
20
2.642036
10
12.288142
20
2.646446
10
12.286876
20
2.650849
10
12.285588
20
2.655245
10
12.284277
20
2.659635
10
12.282944
20
2.664019
10
12.281589
20
2.668395
10
12.280212
20
2.672765
10
12.278812
20
2.677127
10
12.277390
20
2.681482
10
12.275947
20
2.685830
10
12.274480
20
2.690171
10
12.272992
20
2.694504
10
12.271482
20
2.698829
10
12.269950
20
2.703147
10
12.268396
20
2.707457
10
12.266820
20
2.711759
10
12.265222
20
2.716052
10
12.263602
20
2.720338
10
12.261960
20
2.724615
10
12.260297
20
2.728884
10
12.258612
20
2.733144
10
12.256905
20
2.737396
10
12.255177
20
2.741639
10
12.253427
20
2.745873
10
12.251656
20
2.750098
10
12.249863
20
2.754314
10
12.248048
20
2.758521
10
12.246213
20
2.762719
10
12.244356
20
2.766907
10
12.242477
20
2.771086
10
12.240578
20
2.775255
10
12.238657
20
2.779414
10
12.236715
20
2.783564
10
12.234752
20
2.787703
10
12.232767
20
2.791833
10
12.230762
20
2.795952
10
12.228736
20
2.800061
10
12.226689
20
2.804160
10
12.224622
20
2.808248
10
12.222533
20
2.812326
10
12.220424
20
2.816393
10
12.218294
20
2.820449
10
12.216143
20
2.824495
10
12.213972
20
2.828529
10
12.211780
20
2.832552
10
12.209568
20
2.836564
10
12.207336
20
2.840565
10
12.205083
20
2.844554
10
12.202810
20
2.848532
10
12.200516
20
2.852498
10
12.198203
20
2.856453
10
12.195869
20
2.860395
10
12.193515
20
2.864326
10
12.191142
20
2.868244
10
12.188748
20
2.872151
10
12.186335
20
2.876045
10
12.183902
20
2.879927
10
12.181449
20
2.883797
10
12.178976
20
2.887654
10
12.176484
20
2.891498
10
12.173972
20
2.895330
10
12.171441
20
2.899148
10
12.168890
20
2.902954
10
12.166320
20
2.906747
10
12.163731
20
2.910526
10
12.161123
20
2.914293
10
12.158495
20
2.918046
10
12.155848
20
2.921786
10
12.153183
20
2.925512
10
12.150498
20
2.929224
10
12.147795
20
2.932923
10
12.145072
20
2.936608
10
12.142332
20
2.940279
10
12.139572
20
2.943936
10
12.136794
20
2.947579
10
12.133997
20
2.951208
10
12.131182
20
2.954823
10
12.128348
20
2.958423
10
12.125497
20
2.962008
10
12.122627
20
2.965580
10
12.119738
20
2.969136
10
12.116832
20
2.972678
10
12.113908
20
2.976205
10
12.110966
20
2.979717
10
12.108006
20
2.983213
10
12.105028
20
2.986695
10
12.102033
20
2.990162
10
12.099020
20
2.993613
10
12.095989
20
2.997049
10
12.092941
20
3.000470
10
12.089876
20
3.003874
10
12.086793
20
3.007264
10
12.083693
20
3.010637
10
12.080576
20
3.013995
10
12.077442
20
3.017337
10
12.074291
20
3.020662
10
12.071123
20
3.023972
10
12.067938
20
3.027266
10
12.064737
20
3.030543
10
12.061519
20
3.033804
10
12.058284
20
3.037048
10
12.055033
20
3.040276
10
12.051766
20
3.043488
10
12.048482
20
3.046682
10
12.045182
20
3.049860
10
12.041866
20
3.053022
10
12.038533
20
3.056166
10
12.035185
20
3.059293
10
12.031821
20
3.062403
10
12.028441
20
3.065496
10
12.025046
20
3.068572
10
12.021634
20
3.071630
10
12.018208
20
3.074671
10
12.014766
20
3.077695
10
12.011308
20
3.080701
10
12.007835
20
3.083689
10
12.004348
20
3.086659
10
12.000845
20
3.089612
10
11.997327
20
3.092547
10
11.993794
20
3.095464
10
11.990246
20
3.098363
10
11.986684
20
3.101244
10
11.983107
20
3.104107
10
11.979515
20
3.106951
10
11.975909
20
3.109777
10
11.972289
20
3.112585
10
11.968654
20
3.115374
10
11.965006
20
3.118145
10
11.961343
20
3.120897
10
11.957666
20
3.123630
10
11.953976
20
3.126345
10
11.950271
20
3.129041
10
11.946553
20
3.131718
10
11.942822
20
3.134376
10
11.939077
20
3.137015
10
11.935318
20
3.139635
10
11.931546
20
3.142235
10
11.927761
20
3.144817
10
11.923963
20
3.147379
10
11.920152
20
3.149922
10
11.916328
20
3.152445
10
11.912492
20
3.154949
10
11.908642
20
3.157433
10
11.904780
20
3.159898
10
11.900906
20
3.162343
10
11.897019
20
3.164768
10
11.893120
20
3.167174
10
11.889208
20
3.169559
10
11.885285
20
3.171925
10
11.881349
20
3.174271
10
11.877402
20
3.176596
10
11.873443
20
3.178901
10
11.869472
20
3.181187
10
11.865490
20
3.183452
10
11.861496
20
3.185696
10
11.857490
20
3.187921
10
11.853474
20
3.190125
10
11.849446
20
3.192308
10
11.845407
20
3.194471
10
11.841358
20
3.196613
10
11.837297
20
3.198735
10
11.833226
20
3.200836
10
11.829144
20
3.202916
10
11.825051
20
3.204975
10
11.820948
20
3.207014
10
11.816835
20
3.209032
10
11.812712
20
3.211028
10
11.808578
20
3.213004
10
11.804434
20
3.214959
10
11.800281
20
3.216892
10
11.796118
20
3.218804
10
11.791945
20
3.220695
10
11.787762
20
3.222565
10
11.783570
20
3.224414
10
11.779369
20
3.226241
10
11.775158
20
3.228047
10
11.770938
20
3.229831
10
11.766710
20
3.231594
10
11.762472
20
3.233335
10
11.758225
20
3.235054
10
11.753970
20
3.236752
10
11.749706
20
3.238429
10
11.745434
20
3.240083
10
11.741154
20
3.241716
10
11.736865
20
3.243327
10
11.732568
20
3.244916
10
11.728263
20
3.246483
10
11.723950
20
3.248029
10
11.719629
20
3.249552
10
11.715300
20
3.251053
10
11.710964
20
3.252533
10
11.706621
20
3.253990
10
11.702270
20
3.255425
10
11.697912
20
3.256838
10
11.693546
20
3.258228
10
11.689174
20
3.259597
10
11.684795
20
3.260943
10
11.680409
20
3.262267
10
11.676016
20
3.263568
10
11.671617
20
3.264848
10
11.667211
20
3.266104
10
11.662799
20
3.267339
10
11.658381
20
3.268550
10
11.653956
20
3.269740
10
11.649526
20
3.270906
10
11.645090
20
3.272051
10
11.640647
20
3.273172
10
11.636200
20
3.274271
10
11.631747
20
3.275347
10
11.627288
20
3.276401
10
11.622824
20
3.277432
10
11.618355
20
3.278440
10
11.613881
20
3.279425
10
11.609401
20
3.280388
10
11.604917
20
3.281328
10
11.600429
20
3.282245
10
11.595935
20
3.283139
10
11.591437
20
3.284010
10
11.586935
20
3.284859
10
11.582429
20
3.285684
10
11.577918
20
3.286486
10
11.573403
20
3.287266
10
11.568885
20
3.288022
10
11.564362
20
3.288756
10
11.559836
20
3.289466
10
11.555307
20
3.290154
10
11.550774
20
3.290818
10
11.546237
20
3.291459
10
11.541698
20
3.292077
10
11.537155
20
3.292672
10
11.532609
20
3.293244
10
11.528061
20
3.293793
10
11.523510
20
3.294318
10
11.518956
20
3.294821
10
11.514399
20
3.295300
10
11.509841
20
3.295756
10
11.505280
20
3.296189
10
11.500717
20
3.296598
10
11.496152
20
3.296985
10
11.491584
20
3.297348
10
11.487016
20
3.297688
10
11.482445
20
3.298004
10
11.477873
20
3.298297
10
11.473300
20
3.298568
10
11.468725
20
3.298814
10
11.464149
20
3.299038
10
11.459572
20
3.299238
10
11.454994
20
3.299415
10
11.450415
20
3.299568
10
11.445835
20
3.299698
10
11.441255
20
3.299805
10
11.436674
20
3.299889
10
11.432093
20
3.299949
10
11.427512
20
3.299986
10
11.422930
20
3.300000
10
11.418349
20
3.299990
10
11.413768
20
3.299957
10
11.409186
20
3.299901
10
11.404606
20
3.299821
10
11.400025
20
3.299718
10
11.395446
20
3.299592
10
11.390867
20
3.299442
10
11.386288
20
3.299270
10
11.381711
20
3.299073
10
11.377135
20
3.298854
10
11.372560
20
3.298611
10
11.367986
20
3.298345
10
11.363414
20
3.298056
10
11.358843
20
3.297743
10
11.354274
20
3.297407
10
11.349707
20
3.297048
10
11.345141
20
3.296666
10
11.340578
20
3.296260
10
11.336016
20
3.295831
10
11.331457
20
3.295379
10
11.326900
20
3.294904
10
11.322346
20
3.294405
10
11.317794
20
3.293884
10
11.313246
20
3.293339
10
11.308699
20
3.292771
10
11.304156
20
3.292180
10
11.299616
20
3.291566
10
11.295079
20
3.290928
10
11.290546
20
3.290268
10
11.286015
20
3.289585
10
11.281489
20
3.288878
10
11.276966
20
3.288149
10
11.272446
20
3.287396
10
11.267931
20
3.286620
10
11.263420
20
3.285822
10
11.258913
20
3.285000
10
11.254410
20
3.284156
10
11.249911
20
3.283289
10
11.245417
20
3.282398
10
11.240927
20
3.281485
10
11.236442
20
3.280549
10
11.231962
20
3.279591
10
11.227487
20
3.278609
10
11.223017
20
3.277605
10
11.218552
20
3.276578
10
11.214093
20
3.275528
10
11.209639
20
3.274456
10
11.205190
20
3.273360
10
11.200747
20
3.272243
10
11.196310
20
3.271102
10
11.191878
20
3.269939
10
11.187453
20
3.268754
10
11.183034
20
3.267546
10
11.178620
20
3.266316
10
11.174214
20
3.265063
10
11.169813
20
3.263787
10
11.165419
20
3.262490
10
11.161032
20
3.261170
10
11.156652
20
3.259827
10
11.152278
20
3.258463
10
11.147912
20
3.257076
10
11.143552
20
3.255667
10
11.139200
20
3.254235
10
11.134855
20
3.252782
10
11.130518
20
3.251306
10
11.126188
20
3.249809
10
11.121866
20
3.248289
10
11.117552
20
3.246748
10
11.113245
20
3.245184
10
11.108947
20
3.243599
10
11.104657
20
3.241991
10
11.100375
20
3.240362
10
11.096101
20
3.238711
10
11.091836
20
3.237039
10
11.087579
20
3.235345
10
11.083331
20
3.233629
10
11.079092
20
3.231891
10
11.074862
20
3.230132
10
11.070640
20
3.228351
10
11.066428
20
3.226549
10
11.062225
20
3.224726
10
11.058032
20
3.222881
10
11.053848
20
3.221015
10
11.049673
20
3.219127
10
11.045508
20
3.217219
10
11.041353
20
3.215289
10
11.037208
20
3.213338
10
11.033072
20
3.211366
10
11.028947
20
3.209372
10
11.024832
20
3.207358
10
11.020727
20
3.205323
10
11.016633
20
3.203268
10
11.012549
20
3.201191
10
11.008476
20
3.199093
10
11.004414
20
3.196975
10
11.000362
20
3.194836
10
10.996321
20
3.192677
10
10.992292
20
3.190497
10
10.988273
20
3.188297
10
10.984266
20
3.186076
10
10.980270
20
3.183835
10
10.976286
20
3.181573
10
10.972313
20
3.179291
10
10.968352
20
3.176989
10
10.964403
20
3.174667
10
10.960465
20
3.172325
10
10.956540
20
3.169963
10
10.952626
20
3.167581
10
10.948725
20
3.165179
10
10.944836
20
3.162757
10
10.940959
20
3.160315
10
10.937095
20
3.157854
10
10.933244
20
3.155373
10
10.929405
20
3.152872
10
10.925579
20
3.150352
10
10.921765
20
3.147813
10
10.917965
20
3.145254
10
10.914178
20
3.142676
10
10.910404
20
3.140078
10
10.906643
20
3.137461
10
10.902896
20
3.134826
10
10.899162
20
3.132171
10
10.895442
20
3.129497
10
10.891735
20
3.126805
10
10.888042
20
3.124093
10
10.884363
20
3.121363
10
10.880698
20
3.118614
10
10.877047
20
3.115846
10
10.873410
20
3.113060
10
10.869787
20
3.110256
10
10.866179
20
3.107433
10
10.862585
20
3.104591
10
10.859005
20
3.101732
10
10.855440
20
3.098854
10
10.851890
20
3.095958
10
10.848355
20
3.093044
10
10.844834
20
3.090112
10
10.841329
20
3.087163
10
10.837838
20
3.084195
10
10.834363
20
3.081210
10
10.830903
20
3.078207
10
10.827458
20
3.075186
10
10.824029
20
3.072148
10
10.820615
20
3.069093
10
10.817217
20
3.066020
10
10.813834
20
3.062930
10
10.810468
20
3.059823
10
10.807117
20
3.056698
10
10.803782
20
3.053557
10
10.800463
20
3.050399
10
10.797160
20
3.047224
10
10.793873
20
3.044032
10
10.790603
20
3.040823
10
10.787349
20
3.037598
10
10.784112
20
3.034356
10
10.780891
20
3.031098
10
10.777686
20
3.027824
10
10.774499
20
3.024533
10
10.771328
20
3.021226
10
10.768174
20
3.017903
10
10.765037
20
3.014564
10
10.761917
20
3.011209
10
10.758815
20
3.007838
10
10.755729
20
3.004452
10
10.752661
20
3.001049
10
8.508597
20
0.500000
10
8.560842
20
0.500000
10
11.706515
20
1.545975
10
11.710859
20
1.547432
10
11.715195
20
1.548910
0
ENDSEC
0
EOF
