999
side4_fwd_large (straight+4 loops, fwd, R=3.0 w_v)
0
SECTION
2
HEADER
9
$INSUNITS
70
4
0
ENDSEC
0
SECTION
2
ENTITIES
0
LWPOLYLINE
8
0
100
AcDbEntity
100
AcDbPolyline
90
3074
70
1
10
0.900783
20
-0.514303
10
0.883145
20
-0.563600
10
0.863902
20
-0.612293
10
0.843077
20
-0.660331
10
0.820692
20
-0.707662
10
0.796769
20
-0.754235
10
0.771336
20
-0.800000
10
0.744419
20
-0.844909
10
0.716047
20
-0.888912
10
0.686250
20
-0.931964
10
0.655061
20
-0.974018
10
0.622512
20
-1.015029
10
0.588639
20
-1.054953
10
0.553478
20
-1.093748
10
0.517066
20
-1.131371
10
0.479443
20
-1.167783
10
0.440649
20
-1.202944
10
0.400724
20
-1.236817
10
0.359713
20
-1.269365
10
0.317660
20
-1.300555
10
0.274608
20
-1.330351
10
0.230604
20
-1.358723
10
0.185695
20
-1.385641
10
0.139930
20
-1.411074
10
0.093357
20
-1.434996
10
0.046026
20
-1.457382
10
-0.002011
20
-1.478207
10
-0.050705
20
-1.497449
10
-0.100002
20
-1.515088
10
-0.149849
20
-1.531105
10
-0.200194
20
-1.545481
10
-0.250983
20
-1.558203
10
-0.302160
20
-1.569256
10
-0.353672
20
-1.578629
10
-0.405463
20
-1.586312
10
-0.457477
20
-1.592296
10
-0.509660
20
-1.596574
10
-0.561954
20
-1.599143
10
-0.614305
20
-1.600000
10
-0.666655
20
-1.599143
10
-0.718950
20
-1.596574
10
-0.771132
20
-1.592296
10
-0.823147
20
-1.586312
10
-0.874938
20
-1.578629
10
-0.926449
20
-1.569256
10
-0.977627
20
-1.558203
10
-1.028415
20
-1.545481
10
-1.078760
20
-1.531105
10
-1.128608
20
-1.515088
10
-1.177905
20
-1.497449
10
-1.226598
20
-1.478207
10
-1.274636
20
-1.457382
10
-1.321967
20
-1.434996
10
-1.368540
20
-1.411074
10
-1.414305
20
-1.385641
10
-1.459213
20
-1.358723
10
-1.503217
20
-1.330351
10
-1.546269
20
-1.300555
10
-1.588323
20
-1.269365
10
-1.629334
20
-1.236817
10
-1.669258
20
-1.202944
10
-1.708052
20
-1.167783
10
-1.745676
20
-1.131371
10
-1.782087
20
-1.093748
10
-1.817248
20
-1.054953
10
-1.851122
20
-1.015029
10
-1.883670
20
-0.974018
10
-1.914859
20
-0.931964
10
-1.944656
20
-0.888912
10
-1.973028
20
-0.844909
10
-1.999945
20
-0.800000
10
-2.025379
20
-0.754235
10
-2.049301
20
-0.707662
10
-2.071687
20
-0.660331
10
-2.092512
20
-0.612293
10
-2.111754
20
-0.563600
10
-2.129393
20
-0.514303
10
-2.145409
20
-0.464455
10
-2.159786
20
-0.414110
10
-2.172508
20
-0.363322
10
-2.183561
20
-0.312145
10
-2.192934
20
-0.260633
10
-2.200617
20
-0.208842
10
-2.206600
20
-0.156827
10
-2.210879
20
-0.104645
10
-2.213448
20
-0.052351
10
-2.214305
20
0.000000
10
-2.213448
20
0.052351
10
-2.210879
20
0.104645
10
-2.206600
20
0.156827
10
-2.200617
20
0.208842
10
-2.192934
20
0.260633
10
-2.183561
20
0.312145
10
-2.172508
20
0.363322
10
-2.159786
20
0.414110
10
-2.145409
20
0.464455
10
-2.129393
20
0.514303
10
-2.111754
20
0.563600
10
-2.092512
20
0.612293
10
-2.071687
20
0.660331
10
-2.049301
20
0.707662
10
-2.025379
20
0.754235
10
-1.999945
20
0.800000
10
-1.973028
20
0.844909
10
-1.944656
20
0.888912
10
-1.914859
20
0.931964
10
-1.883670
20
0.974018
10
-1.851122
20
1.015029
10
-1.817248
20
1.054953
10
-1.782087
20
1.093748
10
-1.745676
20
1.131371
10
-1.708052
20
1.167783
10
-1.669258
20
1.202944
10
-1.629334
20
1.236817
10
-1.588323
20
1.269365
10
-1.546269
20
1.300555
10
-1.503217
20
1.330351
10
-1.459213
20
1.358723
10
-1.414305
20
1.385641
10
-1.368540
20
1.411074
10
-1.321967
20
1.434996
10
-1.274636
20
1.457382
10
-1.226598
20
1.478207
10
-1.177905
20
1.497449
10
-1.128608
20
1.515088
10
-1.078760
20
1.531105
10
-1.028415
20
1.545481
10
-0.977627
20
1.558203
10
-0.926449
20
1.569256
10
-0.874938
20
1.578629
10
-0.823147
20
1.586312
10
-0.771132
20
1.592296
10
-0.718950
20
1.596574
10
-0.666655
20
1.599143
10
-0.614305
20
1.600000
10
-0.561954
20
1.599143
10
-0.509660
20
1.596574
10
-0.457477
20
1.592296
10
-0.405463
20
1.586312
10
-0.353672
20
1.578629
10
-0.302160
20
1.569256
10
-0.250983
20
1.558203
10
-0.200194
20
1.545481
10
-0.186980
20
1.541708
10
-0.189020
20
1.544067
10
-0.198947
20
1.555672
10
-0.208815
20
1.567327
10
-0.218623
20
1.579032
10
-0.228372
20
1.590787
10
-0.238061
20
1.602592
10
-0.247690
20
1.614446
10
-0.257258
20
1.626348
10
-0.266765
20
1.638299
10
-0.276212
20
1.650299
10
-0.285597
20
1.662346
10
-0.294921
20
1.674441
10
-0.304183
20
1.686583
10
-0.313383
20
1.698772
10
-0.322521
20
1.711008
10
-0.331597
20
1.723290
10
-0.340610
20
1.735618
10
-0.349560
20
1.747992
10
-0.358447
20
1.760412
10
-0.367271
20
1.772876
10
-0.376031
20
1.785385
10
-0.384727
20
1.797939
10
-0.393360
20
1.810537
10
-0.401928
20
1.823178
10
-0.410431
20
1.835863
10
-0.418870
20
1.848591
10
-0.427244
20
1.861362
10
-0.435553
20
1.874175
10
-0.443797
20
1.887031
10
-0.451975
20
1.899928
10
-0.460087
20
1.912867
10
-0.468134
20
1.925847
10
-0.476114
20
1.938867
10
-0.484028
20
1.951929
10
-0.491875
20
1.965030
10
-0.499655
20
1.978171
10
-0.507368
20
1.991351
10
-0.515015
20
2.004571
10
-0.522593
20
2.017829
10
-0.530105
20
2.031126
10
-0.537548
20
2.044461
10
-0.544923
20
2.057833
10
-0.552231
20
2.071243
10
-0.559470
20
2.084690
10
-0.566640
20
2.098173
10
-0.573742
20
2.111693
10
-0.580774
20
2.125249
10
-0.587738
20
2.138840
10
-0.594632
20
2.152467
10
-0.601457
20
2.166129
10
-0.608212
20
2.179825
10
-0.614898
20
2.193556
10
-0.621513
20
2.207320
10
-0.628059
20
2.221118
10
-0.634534
20
2.234949
10
-0.640938
20
2.248812
10
-0.647272
20
2.262708
10
-0.653535
20
2.276637
10
-0.659727
20
2.290596
10
-0.665848
20
2.304588
10
-0.671897
20
2.318610
10
-0.677876
20
2.332663
10
-0.683782
20
2.346746
10
-0.689617
20
2.360859
10
-0.695380
20
2.375001
10
-0.701071
20
2.389173
10
-0.706689
20
2.403373
10
-0.712235
20
2.417602
10
-0.717709
20
2.431859
10
-0.723110
20
2.446144
10
-0.728438
20
2.460456
10
-0.733694
20
2.474794
10
-0.738876
20
2.489160
10
-0.743985
20
2.503551
10
-0.749021
20
2.517969
10
-0.753983
20
2.532412
10
-0.758872
20
2.546879
10
-0.763687
20
2.561372
10
-0.768428
20
2.575889
10
-0.773095
20
2.590430
10
-0.777688
20
2.604994
10
-0.782207
20
2.619582
10
-0.786652
20
2.634192
10
-0.791022
20
2.648825
10
-0.795318
20
2.663480
10
-0.799539
20
2.678157
10
-0.803685
20
2.692855
10
-0.807756
20
2.707574
10
-0.811752
20
2.722313
10
-0.815674
20
2.737073
10
-0.819520
20
2.751852
10
-0.823291
20
2.766651
10
-0.826986
20
2.781468
10
-0.830606
20
2.796305
10
-0.834150
20
2.811159
10
-0.837619
20
2.826032
10
-0.841012
20
2.840921
10
-0.844329
20
2.855828
10
-0.847570
20
2.870752
10
-0.850736
20
2.885692
10
-0.853825
20
2.900648
10
-0.856838
20
2.915619
10
-0.859774
20
2.930606
10
-0.862635
20
2.945607
10
-0.865418
20
2.960623
10
-0.868126
20
2.975652
10
-0.870757
20
2.990695
10
-0.873311
20
3.005752
10
-0.875789
20
3.020821
10
-0.878190
20
3.035903
10
-0.880514
20
3.050996
10
-0.882761
20
3.066102
10
-0.884931
20
3.081218
10
-0.887025
20
3.096346
10
-0.889041
20
3.111484
10
-0.890980
20
3.126631
10
-0.892842
20
3.141789
10
-0.894627
20
3.156956
10
-0.896335
20
3.172132
10
-0.897965
20
3.187316
10
-0.899518
20
3.202508
10
-0.900994
20
3.217708
10
-0.902392
20
3.232916
10
-0.903713
20
3.248130
10
-0.904956
20
3.263351
10
-0.906122
20
3.278578
10
-0.907211
20
3.293811
10
-0.908222
20
3.309049
10
-0.909155
20
3.324292
10
-0.910010
20
3.339539
10
-0.910788
20
3.354791
10
-0.911489
20
3.370046
10
-0.912112
20
3.385305
10
-0.912657
20
3.400567
10
-0.913124
20
3.415832
10
-0.913513
20
3.431098
10
-0.913825
20
3.446366
10
-0.914059
20
3.461636
10
-0.914216
20
3.476907
10
-0.914295
20
3.492178
10
-0.914296
20
3.507450
10
-0.914219
20
3.522721
10
-0.914064
20
3.537992
10
-0.913832
20
3.553262
10
-0.913522
20
3.568530
10
-0.913134
20
3.583797
10
-0.912669
20
3.599061
10
-0.912126
20
3.614323
10
-0.911505
20
3.629582
10
-0.910806
20
3.644838
10
-0.910030
20
3.660089
10
-0.909177
20
3.675337
10
-0.908245
20
3.690580
10
-0.907236
20
3.705818
10
-0.906150
20
3.721051
10
-0.904986
20
3.736278
10
-0.903744
20
3.751499
10
-0.902425
20
3.766714
10
-0.901029
20
3.781921
10
-0.899555
20
3.797122
10
-0.898004
20
3.812314
10
-0.896375
20
3.827499
10
-0.894670
20
3.842675
10
-0.892887
20
3.857842
10
-0.891026
20
3.873000
10
-0.889089
20
3.888148
10
-0.887075
20
3.903286
10
-0.884983
20
3.918414
10
-0.882815
20
3.933530
10
-0.880569
20
3.948636
10
-0.878247
20
3.963730
10
-0.875848
20
3.978812
10
-0.873372
20
3.993881
10
-0.870820
20
4.008938
10
-0.868191
20
4.023982
10
-0.865485
20
4.039012
10
-0.862703
20
4.054028
10
-0.859845
20
4.069029
10
-0.856910
20
4.084016
10
-0.853899
20
4.098988
10
-0.850812
20
4.113944
10
-0.847648
20
4.128884
10
-0.844409
20
4.143808
10
-0.841094
20
4.158716
10
-0.837703
20
4.173606
10
-0.834236
20
4.188479
10
-0.830693
20
4.203334
10
-0.827075
20
4.218171
10
-0.823382
20
4.232989
10
-0.819613
20
4.247788
10
-0.815768
20
4.262568
10
-0.811849
20
4.277328
10
-0.807854
20
4.292068
10
-0.803785
20
4.306787
10
-0.799640
20
4.321485
10
-0.795421
20
4.336163
10
-0.791127
20
4.350818
10
-0.786759
20
4.365452
10
-0.782316
20
4.380063
10
-0.777799
20
4.394651
10
-0.773208
20
4.409216
10
-0.768542
20
4.423757
10
-0.763803
20
4.438275
10
-0.758990
20
4.452768
10
-0.754103
20
4.467236
10
-0.749142
20
4.481680
10
-0.744108
20
4.496098
10
-0.739001
20
4.510490
10
-0.733821
20
4.524856
10
-0.728567
20
4.539196
10
-0.723241
20
4.553508
10
-0.717841
20
4.567793
10
-0.712369
20
4.582051
10
-0.706825
20
4.596281
10
-0.701208
20
4.610482
10
-0.695519
20
4.624654
10
-0.689758
20
4.638797
10
-0.683925
20
4.652911
10
-0.678020
20
4.666995
10
-0.672044
20
4.681048
10
-0.665996
20
4.695071
10
-0.659877
20
4.709063
10
-0.653687
20
4.723024
10
-0.647425
20
4.736953
10
-0.641093
20
4.750850
10
-0.634690
20
4.764714
10
-0.628217
20
4.778546
10
-0.621674
20
4.792345
10
-0.615060
20
4.806110
10
-0.608376
20
4.819841
10
-0.601622
20
4.833538
10
-0.594799
20
4.847201
10
-0.587907
20
4.860828
10
-0.580945
20
4.874420
10
-0.573914
20
4.887977
10
-0.566814
20
4.901498
10
-0.559645
20
4.914982
10
-0.552408
20
4.928430
10
-0.545102
20
4.941841
10
-0.537728
20
4.955214
10
-0.530287
20
4.968550
10
-0.522777
20
4.981848
10
-0.515200
20
4.995107
10
-0.507555
20
5.008327
10
-0.499844
20
5.021509
10
-0.492065
20
5.034651
10
-0.484219
20
5.047753
10
-0.476307
20
5.060815
10
-0.468329
20
5.073837
10
-0.460284
20
5.086818
10
-0.452173
20
5.099757
10
-0.443997
20
5.112656
10
-0.435755
20
5.125512
10
-0.427448
20
5.138326
10
-0.419075
20
5.151098
10
-0.410638
20
5.163827
10
-0.402136
20
5.176514
10
-0.393569
20
5.189156
10
-0.384938
20
5.201755
10
-0.376244
20
5.214310
10
-0.367485
20
5.226820
10
-0.358663
20
5.239285
10
-0.349777
20
5.251706
10
-0.340829
20
5.264081
10
-0.331817
20
5.276410
10
-0.322743
20
5.288694
10
-0.313607
20
5.300931
10
-0.304408
20
5.313121
10
-0.295147
20
5.325264
10
-0.285825
20
5.337360
10
-0.276441
20
5.349409
10
-0.266996
20
5.361409
10
-0.257490
20
5.373361
10
-0.247923
20
5.385265
10
-0.238296
20
5.397120
10
-0.228609
20
5.408926
10
-0.218861
20
5.420682
10
-0.209054
20
5.432388
10
-0.199188
20
5.444045
10
-0.189262
20
5.455651
10
-0.179277
20
5.467206
10
-0.169234
20
5.478710
10
-0.159132
20
5.490164
10
-0.148972
20
5.501565
10
-0.138754
20
5.512915
10
-0.128478
20
5.524212
10
-0.118146
20
5.535457
10
-0.107756
20
5.546649
10
-0.097309
20
5.557789
10
-0.086805
20
5.568875
10
-0.076245
20
5.579907
10
-0.065630
20
5.590885
10
-0.054958
20
5.601810
10
-0.044231
20
5.612679
10
-0.033449
20
5.623494
10
-0.022612
20
5.634254
10
-0.011720
20
5.644959
10
-0.000774
20
5.655608
10
0.010226
20
5.666201
10
0.021280
20
5.676738
10
0.032388
20
5.687219
10
0.043548
20
5.697643
10
0.054762
20
5.708010
10
0.066028
20
5.718320
10
0.077346
20
5.728572
10
0.088717
20
5.738767
10
0.100139
20
5.748904
10
0.111613
20
5.758982
10
0.123138
20
5.769002
10
0.134714
20
5.778963
10
0.146340
20
5.788865
10
0.158017
20
5.798707
10
0.169743
20
5.808490
10
0.181519
20
5.818214
10
0.193345
20
5.827877
10
0.205220
20
5.837480
10
0.217143
20
5.847022
10
0.229115
20
5.856503
10
0.241134
20
5.865924
10
0.253202
20
5.875283
10
0.265317
20
5.884580
10
0.277479
20
5.893816
10
0.289689
20
5.902990
10
0.301944
20
5.912101
10
0.314246
20
5.921150
10
0.326594
20
5.930136
10
0.338987
20
5.939060
10
0.351426
20
5.947920
10
0.363910
20
5.956716
10
0.376438
20
5.965449
10
0.389010
20
5.974118
10
0.401627
20
5.982723
10
0.414287
20
5.991264
10
0.426990
20
5.999740
10
0.439737
20
6.008151
10
0.452526
20
6.016497
10
0.465357
20
6.024778
10
0.478231
20
6.032994
10
0.491146
20
6.041144
10
0.504102
20
6.049228
10
0.517099
20
6.057246
10
0.530137
20
6.065198
10
0.543216
20
6.073083
10
0.556334
20
6.080902
10
0.569492
20
6.088654
10
0.582689
20
6.096338
10
0.595925
20
6.103956
10
0.609200
20
6.111506
10
0.622513
20
6.118988
10
0.635864
20
6.126402
10
0.649252
20
6.133749
10
0.662678
20
6.141027
10
0.676141
20
6.148236
10
0.689640
20
6.155377
10
0.703175
20
6.162450
10
0.716746
20
6.169453
10
0.730353
20
6.176387
10
0.743994
20
6.183252
10
0.757671
20
6.190047
10
0.771382
20
6.196772
10
0.785127
20
6.203428
10
0.798905
20
6.210013
10
0.812717
20
6.216529
10
0.826562
20
6.222973
10
0.840440
20
6.229348
10
0.854350
20
6.235651
10
0.868292
20
6.241884
10
0.882265
20
6.248046
10
0.896269
20
6.254136
10
0.910305
20
6.260155
10
0.924371
20
6.266103
10
0.938466
20
6.271979
10
0.952592
20
6.277783
10
0.966747
20
6.283515
10
0.980931
20
6.289175
10
0.995144
20
6.294762
10
1.009384
20
6.300278
10
1.023653
20
6.305720
10
1.037950
20
6.311090
10
1.052273
20
6.316387
10
1.066623
20
6.321612
10
1.081000
20
6.326763
10
1.095402
20
6.331840
10
1.109831
20
6.336845
10
1.124284
20
6.341776
10
1.138763
20
6.346633
10
1.153266
20
6.351416
10
1.167793
20
6.356126
10
1.182344
20
6.360762
10
1.196918
20
6.365323
10
1.211516
20
6.369810
10
1.226136
20
6.374223
10
1.240778
20
6.378561
10
1.255443
20
6.382825
10
1.270128
20
6.387014
10
1.284835
20
6.391128
10
1.299563
20
6.395168
10
1.314311
20
6.399132
10
1.329079
20
6.403021
10
1.343867
20
6.406835
10
1.358674
20
6.410574
10
1.373499
20
6.414237
10
1.388343
20
6.417825
10
1.403206
20
6.421337
10
1.418086
20
6.424773
10
1.432983
20
6.428134
10
1.447897
20
6.431418
10
1.462827
20
6.434627
10
1.477774
20
6.437760
10
1.492737
20
6.440816
10
1.507715
20
6.443797
10
1.522708
20
6.446701
10
1.537715
20
6.449528
10
1.552737
20
6.452280
10
1.567772
20
6.454954
10
1.582821
20
6.457553
10
1.597883
20
6.460074
10
1.612958
20
6.462519
10
1.628044
20
6.464887
10
1.643143
20
6.467178
10
1.658253
20
6.469393
10
1.673375
20
6.471530
10
1.688506
20
6.473591
10
1.703649
20
6.475574
10
1.718801
20
6.477480
10
1.733962
20
6.479309
10
1.749133
20
6.481061
10
1.764313
20
6.482736
10
1.779500
20
6.484333
10
1.794696
20
6.485853
10
1.809899
20
6.487296
10
1.825110
20
6.488661
10
1.840327
20
6.489949
10
1.855550
20
6.491159
10
1.870780
20
6.492292
10
1.886015
20
6.493347
10
1.901255
20
6.494325
10
1.916500
20
6.495225
10
1.931749
20
6.496048
10
1.947003
20
6.496792
10
1.962260
20
6.497460
10
1.977520
20
6.498049
10
1.992783
20
6.498561
10
2.008048
20
6.498995
10
2.023316
20
6.499351
10
2.038585
20
6.499630
10
2.053855
20
6.499831
10
2.069126
20
6.499954
10
2.084397
20
6.500000
10
2.099669
20
6.499967
10
2.114940
20
6.499857
10
2.130210
20
6.499670
10
2.145480
20
6.499404
10
2.160747
20
6.499061
10
2.176013
20
6.498640
10
2.191277
20
6.498142
10
2.206537
20
6.497565
10
2.221795
20
6.496911
10
2.237049
20
6.496180
10
2.252299
20
6.495370
10
2.267545
20
6.494483
10
2.282786
20
6.493519
10
2.298022
20
6.492477
10
2.313252
20
6.491357
10
2.328477
20
6.490160
10
2.343695
20
6.488885
10
2.358906
20
6.487533
10
2.374111
20
6.486104
10
2.389308
20
6.484597
10
2.404497
20
6.483013
10
2.419678
20
6.481351
10
2.434850
20
6.479613
10
2.450013
20
6.477797
10
2.465167
20
6.475903
10
2.480311
20
6.473933
10
2.495445
20
6.471886
10
2.510568
20
6.469761
10
2.525680
20
6.467560
10
2.540781
20
6.465282
10
2.555870
20
6.462927
10
2.570946
20
6.460495
10
2.586010
20
6.457987
10
2.601061
20
6.455401
10
2.616099
20
6.452740
10
2.631123
20
6.450001
10
2.646133
20
6.447187
10
2.661129
20
6.444296
10
2.676109
20
6.441328
10
2.691074
20
6.438285
10
2.706024
20
6.435165
10
2.720957
20
6.431969
10
2.735874
20
6.428697
10
2.750774
20
6.425350
10
2.765657
20
6.421926
10
2.780522
20
6.418427
10
2.795370
20
6.414852
10
2.810198
20
6.411202
10
2.825009
20
6.407476
10
2.839799
20
6.403675
10
2.854571
20
6.399798
10
2.869322
20
6.395847
10
2.884053
20
6.391820
10
2.898764
20
6.387719
10
2.913453
20
6.383542
10
2.928121
20
6.379291
10
2.942767
20
6.374966
10
2.957391
20
6.370565
10
2.971993
20
6.366091
10
2.986571
20
6.361542
10
3.001126
20
6.356919
10
3.015657
20
6.352222
10
3.030164
20
6.347451
10
3.044647
20
6.342606
10
3.059105
20
6.337688
10
3.073538
20
6.332696
10
3.087945
20
6.327631
10
3.102326
20
6.322492
10
3.116680
20
6.317281
10
3.131008
20
6.311996
10
3.145309
20
6.306638
10
3.159583
20
6.301208
10
3.173828
20
6.295705
10
3.188046
20
6.290130
10
3.202235
20
6.284482
10
3.216395
20
6.278762
10
3.230525
20
6.272970
10
3.244626
20
6.267107
10
3.258697
20
6.261171
10
3.272738
20
6.255164
10
3.286748
20
6.249086
10
3.300726
20
6.242936
10
3.314673
20
6.236716
10
3.328589
20
6.230424
10
3.342472
20
6.224062
10
3.356322
20
6.217629
10
3.370140
20
6.211126
10
3.383924
20
6.204552
10
3.397675
20
6.197908
10
3.411392
20
6.191195
10
3.425074
20
6.184411
10
3.438722
20
6.177558
10
3.452334
20
6.170636
10
3.465911
20
6.163645
10
3.479453
20
6.156584
10
3.492958
20
6.149455
10
3.506427
20
6.142257
10
3.519859
20
6.134990
10
3.533254
20
6.127656
10
3.546611
20
6.120253
10
3.559931
20
6.112782
10
3.573212
20
6.105244
10
3.586455
20
6.097638
10
3.599658
20
6.089964
10
3.612823
20
6.082224
10
3.625948
20
6.074417
10
3.639033
20
6.066543
10
3.652078
20
6.058602
10
3.665082
20
6.050595
10
3.678046
20
6.042522
10
3.690968
20
6.034384
10
3.703848
20
6.026179
10
3.716687
20
6.017909
10
3.729483
20
6.009574
10
3.742237
20
6.001174
10
3.754947
20
5.992709
10
3.767615
20
5.984179
10
3.780239
20
5.975585
10
3.792819
20
5.966927
10
3.805355
20
5.958205
10
3.817846
20
5.949419
10
3.830292
20
5.940570
10
3.842693
20
5.931657
10
3.855049
20
5.922682
10
3.867359
20
5.913644
10
3.879622
20
5.904543
10
3.891839
20
5.895380
10
3.904009
20
5.886154
10
3.916133
20
5.876867
10
3.928208
20
5.867519
10
3.940236
20
5.858109
10
3.952216
20
5.848638
10
3.964148
20
5.839106
10
3.976031
20
5.829513
10
3.987865
20
5.819860
10
3.999649
20
5.810147
10
4.011384
20
5.800374
10
4.023069
20
5.790542
10
4.034704
20
5.780650
10
4.046289
20
5.770699
10
4.057822
20
5.760689
10
4.069305
20
5.750621
10
4.080736
20
5.740494
10
4.092115
20
5.730309
10
4.103443
20
5.720067
10
4.114718
20
5.709767
10
4.125940
20
5.699409
10
4.137110
20
5.688995
10
4.148226
20
5.678524
10
4.159289
20
5.667996
10
4.170299
20
5.657412
10
4.181254
20
5.646773
10
4.192155
20
5.636078
10
4.203001
20
5.625327
10
4.213793
20
5.614521
10
4.224529
20
5.603661
10
4.235210
20
5.592746
10
4.245836
20
5.581777
10
4.256405
20
5.570753
10
4.266918
20
5.559677
10
4.277374
20
5.548546
10
4.287774
20
5.537363
10
4.298117
20
5.526127
10
4.308402
20
5.514838
10
4.318630
20
5.503498
10
8.808012
20
0.500000
10
12.322316
20
0.500000
10
11.861432
20
0.653250
10
11.846953
20
0.658105
10
11.832499
20
0.663034
10
11.818070
20
0.668037
10
11.803666
20
0.673113
10
11.789289
20
0.678262
10
11.774938
20
0.683484
10
11.760614
20
0.688780
10
11.746317
20
0.694148
10
11.732048
20
0.699589
10
11.717806
20
0.705102
10
11.703593
20
0.710688
10
11.689408
20
0.716346
10
11.675253
20
0.722077
10
11.661126
20
0.727879
10
11.647030
20
0.733753
10
11.632963
20
0.739699
10
11.618927
20
0.745716
10
11.604922
20
0.751805
10
11.590948
20
0.757965
10
11.577005
20
0.764196
10
11.563095
20
0.770498
10
11.549216
20
0.776871
10
11.535370
20
0.783314
10
11.521558
20
0.789827
10
11.507778
20
0.796411
10
11.494032
20
0.803065
10
11.480321
20
0.809789
10
11.466643
20
0.816582
10
11.453001
20
0.823445
10
11.439393
20
0.830378
10
11.425821
20
0.837379
10
11.412285
20
0.844450
10
11.398785
20
0.851589
10
11.385322
20
0.858797
10
11.371895
20
0.866073
10
11.358506
20
0.873418
10
11.345154
20
0.880831
10
11.331840
20
0.888311
10
11.318564
20
0.895860
10
11.305327
20
0.903475
10
11.292129
20
0.911159
10
11.278970
20
0.918909
10
11.265851
20
0.926726
10
11.252772
20
0.934609
10
11.239733
20
0.942560
10
11.226734
20
0.950576
10
11.213777
20
0.958659
10
11.200861
20
0.966807
10
11.187987
20
0.975021
10
11.175154
20
0.983300
10
11.162364
20
0.991645
10
11.149617
20
1.000055
10
11.136912
20
1.008529
10
11.124251
20
1.017068
10
11.111633
20
1.025672
10
11.099060
20
1.034339
10
11.086531
20
1.043070
10
11.074046
20
1.051865
10
11.061606
20
1.060724
10
11.049212
20
1.069646
10
11.036863
20
1.078630
10
11.024560
20
1.087678
10
11.012303
20
1.096788
10
11.000093
20
1.105960
10
10.987929
20
1.115194
10
10.975813
20
1.124490
10
10.963744
20
1.133848
10
10.951723
20
1.143266
10
10.939750
20
1.152746
10
10.927826
20
1.162287
10
10.915950
20
1.171889
10
10.904123
20
1.181550
10
10.892346
20
1.191272
10
10.880618
20
1.201054
10
10.868940
20
1.210895
10
10.857313
20
1.220795
10
10.845736
20
1.230755
10
10.834209
20
1.240773
10
10.822734
20
1.250850
10
10.811311
20
1.260985
10
10.799939
20
1.271179
10
10.788619
20
1.281430
10
10.777352
20
1.291738
10
10.766137
20
1.302104
10
10.754975
20
1.312526
10
10.743866
20
1.323006
10
10.732811
20
1.333541
10
10.721810
20
1.344133
10
10.710862
20
1.354781
10
10.699969
20
1.365484
10
10.689131
20
1.376243
10
10.678347
20
1.387057
10
10.667619
20
1.397925
10
10.656946
20
1.408848
10
10.646329
20
1.419825
10
10.635768
20
1.430856
10
10.625263
20
1.441941
10
10.614815
20
1.453079
10
10.604423
20
1.464270
10
10.594089
20
1.475513
10
10.583812
20
1.486810
10
10.573592
20
1.498158
10
10.563431
20
1.509558
10
10.553328
20
1.521010
10
10.543283
20
1.532513
10
10.533297
20
1.544067
10
10.523370
20
1.555672
10
10.513502
20
1.567327
10
10.503693
20
1.579032
10
10.493944
20
1.590787
10
10.484255
20
1.602592
10
10.474627
20
1.614446
10
10.465059
20
1.626348
10
10.455551
20
1.638299
10
10.446105
20
1.650299
10
10.436719
20
1.662346
10
10.427395
20
1.674441
10
10.418133
20
1.686583
10
10.408933
20
1.698772
10
10.399795
20
1.711008
10
10.390719
20
1.723290
10
10.381706
20
1.735618
10
10.372756
20
1.747992
10
10.363869
20
1.760412
10
10.355045
20
1.772876
10
10.346285
20
1.785385
10
10.337589
20
1.797939
10
10.328957
20
1.810537
10
10.320388
20
1.823178
10
10.311885
20
1.835863
10
10.303446
20
1.848591
10
10.295072
20
1.861362
10
10.286763
20
1.874175
10
10.278519
20
1.887031
10
10.270341
20
1.899928
10
10.262229
20
1.912867
10
10.254183
20
1.925847
10
10.246203
20
1.938867
10
10.238289
20
1.951929
10
10.230442
20
1.965030
10
10.222661
20
1.978171
10
10.214948
20
1.991351
10
10.207302
20
2.004571
10
10.199723
20
2.017829
10
10.192212
20
2.031126
10
10.184768
20
2.044461
10
10.177393
20
2.057833
10
10.170086
20
2.071243
10
10.162847
20
2.084690
10
10.155676
20
2.098173
10
10.148575
20
2.111693
10
10.141542
20
2.125249
10
10.134578
20
2.138840
10
10.127684
20
2.152467
10
10.120859
20
2.166129
10
10.114104
20
2.179825
10
10.107418
20
2.193556
10
10.100803
20
2.207320
10
10.094258
20
2.221118
10
10.087783
20
2.234949
10
10.081378
20
2.248812
10
10.075044
20
2.262708
10
10.068781
20
2.276637
10
10.062589
20
2.290596
10
10.056468
20
2.304588
10
10.050419
20
2.318610
10
10.044441
20
2.332663
10
10.038534
20
2.346746
10
10.032699
20
2.360859
10
10.026937
20
2.375001
10
10.021246
20
2.389173
10
10.015627
20
2.403373
10
10.010081
20
2.417602
10
10.004607
20
2.431859
10
9.999206
20
2.446144
10
9.993878
20
2.460456
10
9.988623
20
2.474794
10
9.983440
20
2.489160
10
9.978331
20
2.503551
10
9.973296
20
2.517969
10
9.968333
20
2.532412
10
9.963445
20
2.546879
10
9.958630
20
2.561372
10
9.953888
20
2.575889
10
9.949221
20
2.590430
10
9.944628
20
2.604994
10
9.940109
20
2.619582
10
9.935665
20
2.634192
10
9.931294
20
2.648825
10
9.926999
20
2.663480
10
9.922778
20
2.678157
10
9.918632
20
2.692855
10
9.914560
20
2.707574
10
9.910564
20
2.722313
10
9.906643
20
2.737073
10
9.902797
20
2.751852
10
9.899026
20
2.766651
10
9.895330
20
2.781468
10
9.891710
20
2.796305
10
9.888166
20
2.811159
10
9.884697
20
2.826032
10
9.881304
20
2.840921
10
9.877987
20
2.855828
10
9.874746
20
2.870752
10
9.871581
20
2.885692
10
9.868492
20
2.900648
10
9.865479
20
2.915619
10
9.862542
20
2.930606
10
9.859682
20
2.945607
10
9.856898
20
2.960623
10
9.854190
20
2.975652
10
9.851559
20
2.990695
10
9.849005
20
3.005752
10
9.846528
20
3.020821
10
9.844127
20
3.035903
10
9.841803
20
3.050996
10
9.839555
20
3.066102
10
9.837385
20
3.081218
10
9.835292
20
3.096346
10
9.833275
20
3.111484
10
9.831336
20
3.126631
10
9.829474
20
3.141789
10
9.827689
20
3.156956
10
9.825982
20
3.172132
10
9.824351
20
3.187316
10
9.822798
20
3.202508
10
9.821322
20
3.217708
10
9.819924
20
3.232916
10
9.818603
20
3.248130
10
9.817360
20
3.263351
10
9.816194
20
3.278578
10
9.815106
20
3.293811
10
9.814095
20
3.309049
10
9.813162
20
3.324292
10
9.812306
20
3.339539
10
9.811528
20
3.354791
10
9.810828
20
3.370046
10
9.810205
20
3.385305
10
9.809660
20
3.400567
10
9.809192
20
3.415832
10
9.808803
20
3.431098
10
9.808491
20
3.446366
10
9.808257
20
3.461636
10
9.808100
20
3.476907
10
9.808022
20
3.492178
10
9.808021
20
3.507450
10
9.808098
20
3.522721
10
9.808252
20
3.537992
10
9.808484
20
3.553262
10
9.808794
20
3.568530
10
9.809182
20
3.583797
10
9.809648
20
3.599061
10
9.810191
20
3.614323
10
9.810811
20
3.629582
10
9.811510
20
3.644838
10
9.812286
20
3.660089
10
9.813140
20
3.675337
10
9.814071
20
3.690580
10
9.815080
20
3.705818
10
9.816167
20
3.721051
10
9.817331
20
3.736278
10
9.818572
20
3.751499
10
9.819891
20
3.766714
10
9.821288
20
3.781921
10
9.822761
20
3.797122
10
9.824313
20
3.812314
10
9.825941
20
3.827499
10
9.827647
20
3.842675
10
9.829430
20
3.857842
10
9.831290
20
3.873000
10
9.833227
20
3.888148
10
9.835242
20
3.903286
10
9.837333
20
3.918414
10
9.839502
20
3.933530
10
9.841747
20
3.948636
10
9.844069
20
3.963730
10
9.846468
20
3.978812
10
9.848944
20
3.993881
10
9.851496
20
4.008938
10
9.854125
20
4.023982
10
9.856831
20
4.039012
10
9.859613
20
4.054028
10
9.862472
20
4.069029
10
9.865406
20
4.084016
10
9.868417
20
4.098988
10
9.871505
20
4.113944
10
9.874668
20
4.128884
10
9.877907
20
4.143808
10
9.881223
20
4.158716
10
9.884614
20
4.173606
10
9.888081
20
4.188479
10
9.891623
20
4.203334
10
9.895241
20
4.218171
10
9.898935
20
4.232989
10
9.902704
20
4.247788
10
9.906548
20
4.262568
10
9.910467
20
4.277328
10
9.914462
20
4.292068
10
9.918532
20
4.306787
10
9.922676
20
4.321485
10
9.926895
20
4.336163
10
9.931189
20
4.350818
10
9.935557
20
4.365452
10
9.940000
20
4.380063
10
9.944517
20
4.394651
10
9.949108
20
4.409216
10
9.953774
20
4.423757
10
9.958513
20
4.438275
10
9.963326
20
4.452768
10
9.968213
20
4.467236
10
9.973174
20
4.481680
10
9.978208
20
4.496098
10
9.983315
20
4.510490
10
9.988496
20
4.524856
10
9.993749
20
4.539196
10
9.999076
20
4.553508
10
10.004475
20
4.567793
10
10.009947
20
4.582051
10
10.015491
20
4.596281
10
10.021108
20
4.610482
10
10.026797
20
4.624654
10
10.032558
20
4.638797
10
10.038391
20
4.652911
10
10.044296
20
4.666995
10
10.050272
20
4.681048
10
10.056320
20
4.695071
10
10.062439
20
4.709063
10
10.068630
20
4.723024
10
10.074891
20
4.736953
10
10.081223
20
4.750850
10
10.087626
20
4.764714
10
10.094099
20
4.778546
10
10.100643
20
4.792345
10
10.107257
20
4.806110
10
10.113940
20
4.819841
10
10.120694
20
4.833538
10
10.127517
20
4.847201
10
10.134410
20
4.860828
10
10.141372
20
4.874420
10
10.148403
20
4.887977
10
10.155503
20
4.901498
10
10.162671
20
4.914982
10
10.169909
20
4.928430
10
10.177214
20
4.941841
10
10.184588
20
4.955214
10
10.192030
20
4.968550
10
10.199539
20
4.981848
10
10.207116
20
4.995107
10
10.214761
20
5.008327
10
10.222473
20
5.021509
10
10.230251
20
5.034651
10
10.238097
20
5.047753
10
10.246009
20
5.060815
10
10.253988
20
5.073837
10
10.262032
20
5.086818
10
10.270143
20
5.099757
10
10.278319
20
5.112656
10
10.286561
20
5.125512
10
10.294869
20
5.138326
10
10.303241
20
5.151098
10
10.311679
20
5.163827
10
10.320181
20
5.176514
10
10.328747
20
5.189156
10
10.337378
20
5.201755
10
10.346073
20
5.214310
10
10.354831
20
5.226820
10
10.363654
20
5.239285
10
10.372539
20
5.251706
10
10.381488
20
5.264081
10
10.390499
20
5.276410
10
10.399573
20
5.288694
10
10.408710
20
5.300931
10
10.417909
20
5.313121
10
10.427169
20
5.325264
10
10.436492
20
5.337360
10
10.445875
20
5.349409
10
10.455320
20
5.361409
10
10.464826
20
5.373361
10
10.474393
20
5.385265
10
10.484020
20
5.397120
10
10.493708
20
5.408926
10
10.503455
20
5.420682
10
10.513262
20
5.432388
10
10.523129
20
5.444045
10
10.533054
20
5.455651
10
10.543039
20
5.467206
10
10.553083
20
5.478710
10
10.563184
20
5.490164
10
10.573344
20
5.501565
10
10.583562
20
5.512915
10
10.593838
20
5.524212
10
10.604171
20
5.535457
10
10.614561
20
5.546649
10
10.625008
20
5.557789
10
10.635511
20
5.568875
10
10.646071
20
5.579907
10
10.656687
20
5.590885
10
10.667358
20
5.601810
10
10.678085
20
5.612679
10
10.688867
20
5.623494
10
10.699705
20
5.634254
10
10.710596
20
5.644959
10
10.721542
20
5.655608
10
10.732542
20
5.666201
10
10.743596
20
5.676738
10
10.754704
20
5.687219
10
10.765864
20
5.697643
10
10.777078
20
5.708010
10
10.788344
20
5.718320
10
10.799663
20
5.728572
10
10.811033
20
5.738767
10
10.822456
20
5.748904
10
10.833929
20
5.758982
10
10.845454
20
5.769002
10
10.857030
20
5.778963
10
10.868656
20
5.788865
10
10.880333
20
5.798707
10
10.892060
20
5.808490
10
10.903836
20
5.818214
10
10.915661
20
5.827877
10
10.927536
20
5.837480
10
10.939459
20
5.847022
10
10.951431
20
5.856503
10
10.963451
20
5.865924
10
10.975518
20
5.875283
10
10.987634
20
5.884580
10
10.999796
20
5.893816
10
11.012005
20
5.902990
10
11.024261
20
5.912101
10
11.036563
20
5.921150
10
11.048910
20
5.930136
10
11.061304
20
5.939060
10
11.073742
20
5.947920
10
11.086226
20
5.956716
10
11.098754
20
5.965449
10
11.111327
20
5.974118
10
11.123943
20
5.982723
10
11.136603
20
5.991264
10
11.149307
20
5.999740
10
11.162053
20
6.008151
10
11.174842
20
6.016497
10
11.187674
20
6.024778
10
11.200547
20
6.032994
10
11.213462
20
6.041144
10
11.226418
20
6.049228
10
11.239416
20
6.057246
10
11.252454
20
6.065198
10
11.265532
20
6.073083
10
11.278650
20
6.080902
10
11.291808
20
6.088654
10
11.305005
20
6.096338
10
11.318241
20
6.103956
10
11.331516
20
6.111506
10
11.344829
20
6.118988
10
11.358180
20
6.126402
10
11.371569
20
6.133749
10
11.384994
20
6.141027
10
11.398457
20
6.148236
10
11.411956
20
6.155377
10
11.425491
20
6.162450
10
11.439062
20
6.169453
10
11.452669
20
6.176387
10
11.466311
20
6.183252
10
11.479987
20
6.190047
10
11.493698
20
6.196772
10
11.507443
20
6.203428
10
11.521222
20
6.210013
10
11.535034
20
6.216529
10
11.548879
20
6.222973
10
11.562756
20
6.229348
10
11.576666
20
6.235651
10
11.590608
20
6.241884
10
11.604581
20
6.248046
10
11.618586
20
6.254136
10
11.632621
20
6.260155
10
11.646687
20
6.266103
10
11.660783
20
6.271979
10
11.674908
20
6.277783
10
11.689063
20
6.283515
10
11.703247
20
6.289175
10
11.717460
20
6.294762
10
11.731701
20
6.300278
10
11.745970
20
6.305720
10
11.760266
20
6.311090
10
11.774589
20
6.316387
10
11.788939
20
6.321612
10
11.803316
20
6.326763
10
11.817719
20
6.331840
10
11.832147
20
6.336845
10
11.846601
20
6.341776
10
11.861079
20
6.346633
10
11.875582
20
6.351416
10
11.890109
20
6.356126
10
11.904660
20
6.360762
10
11.919235
20
6.365323
10
11.933832
20
6.369810
10
11.948452
20
6.374223
10
11.963095
20
6.378561
10
11.977759
20
6.382825
10
11.992445
20
6.387014
10
12.007152
20
6.391128
10
12.021879
20
6.395168
10
12.036627
20
6.399132
10
12.051395
20
6.403021
10
12.066183
20
6.406835
10
12.080990
20
6.410574
10
12.095816
20
6.414237
10
12.110660
20
6.417825
10
12.125522
20
6.421337
10
12.140402
20
6.424773
10
12.155299
20
6.428134
10
12.170213
20
6.431418
10
12.185144
20
6.434627
10
12.200091
20
6.437760
10
12.215053
20
6.440816
10
12.230031
20
6.443797
10
12.245024
20
6.446701
10
12.260031
20
6.449528
10
12.275053
20
6.452280
10
12.290089
20
6.454954
10
12.305137
20
6.457553
10
12.320199
20
6.460074
10
12.335274
20
6.462519
10
12.350361
20
6.464887
10
12.365459
20
6.467178
10
12.380570
20
6.469393
10
12.395691
20
6.471530
10
12.410823
20
6.473591
10
12.425965
20
6.475574
10
12.441117
20
6.477480
10
12.456279
20
6.479309
10
12.471449
20
6.481061
10
12.486629
20
6.482736
10
12.501817
20
6.484333
10
12.517012
20
6.485853
10
12.532216
20
6.487296
10
12.547426
20
6.488661
10
12.562643
20
6.489949
10
12.577867
20
6.491159
10
12.593096
20
6.492292
10
12.608331
20
6.493347
10
12.623571
20
6.494325
10
12.638816
20
6.495225
10
12.654066
20
6.496048
10
12.669319
20
6.496792
10
12.684576
20
6.497460
10
12.699836
20
6.498049
10
12.715099
20
6.498561
10
12.730365
20
6.498995
10
12.745632
20
6.499351
10
12.760901
20
6.499630
10
12.776171
20
6.499831
10
12.791442
20
6.499954
10
12.806714
20
6.500000
10
12.821985
20
6.499967
10
12.837256
20
6.499857
10
12.852527
20
6.499670
10
12.867796
20
6.499404
10
12.883064
20
6.499061
10
12.898330
20
6.498640
10
12.913593
20
6.498142
10
12.928854
20
6.497565
10
12.944111
20
6.496911
10
12.959365
20
6.496180
10
12.974615
20
6.495370
10
12.989861
20
6.494483
10
13.005102
20
6.493519
10
13.020338
20
6.492477
10
13.035568
20
6.491357
10
13.050793
20
6.490160
10
13.066011
20
6.488885
10
13.081223
20
6.487533
10
13.096427
20
6.486104
10
13.111624
20
6.484597
10
13.126814
20
6.483013
10
13.141994
20
6.481351
10
13.157167
20
6.479613
10
13.172330
20
6.477797
10
13.187484
20
6.475903
10
13.202627
20
6.473933
10
13.217761
20
6.471886
10
13.232884
20
6.469761
10
13.247996
20
6.467560
10
13.263097
20
6.465282
10
13.278186
20
6.462927
10
13.293263
20
6.460495
10
13.308327
20
6.457987
10
13.323378
20
6.455401
10
13.338416
20
6.452740
10
13.353440
20
6.450001
10
13.368450
20
6.447187
10
13.383445
20
6.444296
10
13.398425
20
6.441328
10
13.413391
20
6.438285
10
13.428340
20
6.435165
10
13.443273
20
6.431969
10
13.458190
20
6.428697
10
13.473091
20
6.425350
10
13.487973
20
6.421926
10
13.502839
20
6.418427
10
13.517686
20
6.414852
10
13.532515
20
6.411202
10
13.547325
20
6.407476
10
13.562116
20
6.403675
10
13.576887
20
6.399798
10
13.591639
20
6.395847
10
13.606370
20
6.391820
10
13.621080
20
6.387719
10
13.635770
20
6.383542
10
13.650438
20
6.379291
10
13.665084
20
6.374966
10
13.679708
20
6.370565
10
13.694309
20
6.366091
10
13.708887
20
6.361542
10
13.723442
20
6.356919
10
13.737974
20
6.352222
10
13.752481
20
6.347451
10
13.766963
20
6.342606
10
13.781421
20
6.337688
10
13.795854
20
6.332696
10
13.810261
20
6.327631
10
13.824642
20
6.322492
10
13.838997
20
6.317281
10
13.853325
20
6.311996
10
13.867626
20
6.306638
10
13.881899
20
6.301208
10
13.896145
20
6.295705
10
13.910362
20
6.290130
10
13.924551
20
6.284482
10
13.938711
20
6.278762
10
13.952842
20
6.272970
10
13.966943
20
6.267107
10
13.981014
20
6.261171
10
13.995054
20
6.255164
10
14.009064
20
6.249086
10
14.023043
20
6.242936
10
14.036990
20
6.236716
10
14.050905
20
6.230424
10
14.064788
20
6.224062
10
14.078639
20
6.217629
10
14.092456
20
6.211126
10
14.106241
20
6.204552
10
14.119991
20
6.197908
10
14.133708
20
6.191195
10
14.147390
20
6.184411
10
14.161038
20
6.177558
10
14.174651
20
6.170636
10
14.188228
20
6.163645
10
14.201769
20
6.156584
10
14.215274
20
6.149455
10
14.228743
20
6.142257
10
14.242175
20
6.134990
10
14.255570
20
6.127656
10
14.268927
20
6.120253
10
14.282247
20
6.112782
10
14.295528
20
6.105244
10
14.308771
20
6.097638
10
14.321975
20
6.089964
10
14.335139
20
6.082224
10
14.348264
20
6.074417
10
14.361349
20
6.066543
10
14.374394
20
6.058602
10
14.387399
20
6.050595
10
14.400362
20
6.042522
10
14.413284
20
6.034384
10
14.426164
20
6.026179
10
14.439003
20
6.017909
10
14.451799
20
6.009574
10
14.464553
20
6.001174
10
14.477264
20
5.992709
10
14.489931
20
5.984179
10
14.502555
20
5.975585
10
14.515135
20
5.966927
10
14.527671
20
5.958205
10
14.540162
20
5.949419
10
14.552608
20
5.940570
10
14.565010
20
5.931657
10
14.577365
20
5.922682
10
14.589675
20
5.913644
10
14.601938
20
5.904543
10
14.614156
20
5.895380
10
14.626326
20
5.886154
10
14.638449
20
5.876867
10
14.650525
20
5.867519
10
14.662553
20
5.858109
10
14.674533
20
5.848638
10
14.686464
20
5.839106
10
14.698347
20
5.829513
10
14.710181
20
5.819860
10
14.721966
20
5.810147
10
14.733701
20
5.800374
10
14.745386
20
5.790542
10
14.757021
20
5.780650
10
14.768605
20
5.770699
10
14.780139
20
5.760689
10
14.791621
20
5.750621
10
14.803052
20
5.740494
10
14.814431
20
5.730309
10
14.825759
20
5.720067
10
14.837034
20
5.709767
10
14.848256
20
5.699409
10
14.859426
20
5.688995
10
14.870543
20
5.678524
10
14.881606
20
5.667996
10
14.892615
20
5.657412
10
14.903570
20
5.646773
10
14.914471
20
5.636078
10
14.925318
20
5.625327
10
14.936109
20
5.614521
10
14.946846
20
5.603661
10
14.957527
20
5.592746
10
14.968152
20
5.581777
10
14.978721
20
5.570753
10
14.989234
20
5.559677
10
14.999691
20
5.548546
10
15.010090
20
5.537363
10
15.020433
20
5.526127
10
15.030718
20
5.514838
10
15.040946
20
5.503498
10
19.530328
20
0.500000
10
23.044633
20
0.500000
10
22.583748
20
0.653250
10
22.569269
20
0.658105
10
22.554815
20
0.663034
10
22.540386
20
0.668037
10
22.525983
20
0.673113
10
22.511606
20
0.678262
10
22.497255
20
0.683484
10
22.482931
20
0.688780
10
22.468634
20
0.694148
10
22.454364
20
0.699589
10
22.440123
20
0.705102
10
22.425909
20
0.710688
10
22.411725
20
0.716346
10
22.397569
20
0.722077
10
22.383443
20
0.727879
10
22.369346
20
0.733753
10
22.355280
20
0.739699
10
22.341243
20
0.745716
10
22.327238
20
0.751805
10
22.313264
20
0.757965
10
22.299322
20
0.764196
10
22.285411
20
0.770498
10
22.271532
20
0.776871
10
22.257687
20
0.783314
10
22.243874
20
0.789827
10
22.230094
20
0.796411
10
22.216349
20
0.803065
10
22.202637
20
0.809789
10
22.188960
20
0.816582
10
22.175317
20
0.823445
10
22.161710
20
0.830378
10
22.148138
20
0.837379
10
22.134601
20
0.844450
10
22.121101
20
0.851589
10
22.107638
20
0.858797
10
22.094211
20
0.866073
10
22.080822
20
0.873418
10
22.067470
20
0.880831
10
22.054156
20
0.888311
10
22.040881
20
0.895860
10
22.027644
20
0.903475
10
22.014445
20
0.911159
10
22.001287
20
0.918909
10
21.988167
20
0.926726
10
21.975088
20
0.934609
10
21.962049
20
0.942560
10
21.949051
20
0.950576
10
21.936093
20
0.958659
10
21.923177
20
0.966807
10
21.910303
20
0.975021
10
21.897471
20
0.983300
10
21.884680
20
0.991645
10
21.871933
20
1.000055
10
21.859228
20
1.008529
10
21.846567
20
1.017068
10
21.833950
20
1.025672
10
21.821376
20
1.034339
10
21.808847
20
1.043070
10
21.796362
20
1.051865
10
21.783922
20
1.060724
10
21.771528
20
1.069646
10
21.759179
20
1.078630
10
21.746876
20
1.087678
10
21.734619
20
1.096788
10
21.722409
20
1.105960
10
21.710245
20
1.115194
10
21.698129
20
1.124490
10
21.686060
20
1.133848
10
21.674039
20
1.143266
10
21.662066
20
1.152746
10
21.650142
20
1.162287
10
21.638266
20
1.171889
10
21.626439
20
1.181550
10
21.614662
20
1.191272
10
21.602934
20
1.201054
10
21.591257
20
1.210895
10
21.579629
20
1.220795
10
21.568052
20
1.230755
10
21.556526
20
1.240773
10
21.545051
20
1.250850
10
21.533627
20
1.260985
10
21.522255
20
1.271179
10
21.510936
20
1.281430
10
21.499668
20
1.291738
10
21.488453
20
1.302104
10
21.477291
20
1.312526
10
21.466183
20
1.323006
10
21.455127
20
1.333541
10
21.444126
20
1.344133
10
21.433178
20
1.354781
10
21.422285
20
1.365484
10
21.411447
20
1.376243
10
21.400663
20
1.387057
10
21.389935
20
1.397925
10
21.379262
20
1.408848
10
21.368645
20
1.419825
10
21.358084
20
1.430856
10
21.347579
20
1.441941
10
21.337131
20
1.453079
10
21.326739
20
1.464270
10
21.316405
20
1.475513
10
21.306128
20
1.486810
10
21.295909
20
1.498158
10
21.285747
20
1.509558
10
21.275644
20
1.521010
10
21.265599
20
1.532513
10
21.255613
20
1.544067
10
21.245686
20
1.555672
10
21.235818
20
1.567327
10
21.226009
20
1.579032
10
21.216261
20
1.590787
10
21.206572
20
1.602592
10
21.196943
20
1.614446
10
21.187375
20
1.626348
10
21.177867
20
1.638299
10
21.168421
20
1.650299
10
21.159036
20
1.662346
10
21.149712
20
1.674441
10
21.140450
20
1.686583
10
21.131249
20
1.698772
10
21.122111
20
1.711008
10
21.113036
20
1.723290
10
21.104023
20
1.735618
10
21.095072
20
1.747992
10
21.086185
20
1.760412
10
21.077362
20
1.772876
10
21.068602
20
1.785385
10
21.059905
20
1.797939
10
21.051273
20
1.810537
10
21.042705
20
1.823178
10
21.034201
20
1.835863
10
21.025762
20
1.848591
10
21.017388
20
1.861362
10
21.009079
20
1.874175
10
21.000836
20
1.887031
10
20.992658
20
1.899928
10
20.984545
20
1.912867
10
20.976499
20
1.925847
10
20.968519
20
1.938867
10
20.960605
20
1.951929
10
20.952758
20
1.965030
10
20.944978
20
1.978171
10
20.937264
20
1.991351
10
20.929618
20
2.004571
10
20.922039
20
2.017829
10
20.914528
20
2.031126
10
20.907085
20
2.044461
10
20.899709
20
2.057833
10
20.892402
20
2.071243
10
20.885163
20
2.084690
10
20.877993
20
2.098173
10
20.870891
20
2.111693
10
20.863858
20
2.125249
10
20.856895
20
2.138840
10
20.850000
20
2.152467
10
20.843176
20
2.166129
10
20.836420
20
2.179825
10
20.829735
20
2.193556
10
20.823119
20
2.207320
10
20.816574
20
2.221118
10
20.810099
20
2.234949
10
20.803695
20
2.248812
10
20.797361
20
2.262708
10
20.791098
20
2.276637
10
20.784906
20
2.290596
10
20.778785
20
2.304588
10
20.772735
20
2.318610
10
20.766757
20
2.332663
10
20.760851
20
2.346746
10
20.755016
20
2.360859
10
20.749253
20
2.375001
10
20.743562
20
2.389173
10
20.737944
20
2.403373
10
20.732397
20
2.417602
10
20.726924
20
2.431859
10
20.721523
20
2.446144
10
20.716194
20
2.460456
10
20.710939
20
2.474794
10
20.705757
20
2.489160
10
20.700648
20
2.503551
10
20.695612
20
2.517969
10
20.690650
20
2.532412
10
20.685761
20
2.546879
10
20.680946
20
2.561372
10
20.676205
20
2.575889
10
20.671538
20
2.590430
10
20.666944
20
2.604994
10
20.662425
20
2.619582
10
20.657981
20
2.634192
10
20.653611
20
2.648825
10
20.649315
20
2.663480
10
20.645094
20
2.678157
10
20.640948
20
2.692855
10
20.636877
20
2.707574
10
20.632880
20
2.722313
10
20.628959
20
2.737073
10
20.625113
20
2.751852
10
20.621342
20
2.766651
10
20.617647
20
2.781468
10
20.614027
20
2.796305
10
20.610482
20
2.811159
10
20.607014
20
2.826032
10
20.603621
20
2.840921
10
20.600303
20
2.855828
10
20.597062
20
2.870752
10
20.593897
20
2.885692
10
20.590808
20
2.900648
10
20.587795
20
2.915619
10
20.584858
20
2.930606
10
20.581998
20
2.945607
10
20.579214
20
2.960623
10
20.576507
20
2.975652
10
20.573876
20
2.990695
10
20.571321
20
3.005752
10
20.568844
20
3.020821
10
20.566443
20
3.035903
10
20.564119
20
3.050996
10
20.561872
20
3.066102
10
20.559701
20
3.081218
10
20.557608
20
3.096346
10
20.555592
20
3.111484
10
20.553653
20
3.126631
10
20.551791
20
3.141789
10
20.550006
20
3.156956
10
20.548298
20
3.172132
10
20.546668
20
3.187316
10
20.545115
20
3.202508
10
20.543639
20
3.217708
10
20.542241
20
3.232916
10
20.540920
20
3.248130
10
20.539676
20
3.263351
10
20.538510
20
3.278578
10
20.537422
20
3.293811
10
20.536411
20
3.309049
10
20.535478
20
3.324292
10
20.534622
20
3.339539
10
20.533844
20
3.354791
10
20.533144
20
3.370046
10
20.532521
20
3.385305
10
20.531976
20
3.400567
10
20.531509
20
3.415832
10
20.531119
20
3.431098
10
20.530807
20
3.446366
10
20.530573
20
3.461636
10
20.530417
20
3.476907
10
20.530338
20
3.492178
10
20.530337
20
3.507450
10
20.530414
20
3.522721
10
20.530568
20
3.537992
10
20.530801
20
3.553262
10
20.531111
20
3.568530
10
20.531498
20
3.583797
10
20.531964
20
3.599061
10
20.532507
20
3.614323
10
20.533128
20
3.629582
10
20.533826
20
3.644838
10
20.534602
20
3.660089
10
20.535456
20
3.675337
10
20.536387
20
3.690580
10
20.537396
20
3.705818
10
20.538483
20
3.721051
10
20.539647
20
3.736278
10
20.540888
20
3.751499
10
20.542207
20
3.766714
10
20.543604
20
3.781921
10
20.545078
20
3.797122
10
20.546629
20
3.812314
10
20.548257
20
3.827499
10
20.549963
20
3.842675
10
20.551746
20
3.857842
10
20.553606
20
3.873000
10
20.555544
20
3.888148
10
20.557558
20
3.903286
10
20.559649
20
3.918414
10
20.561818
20
3.933530
10
20.564063
20
3.948636
10
20.566385
20
3.963730
10
20.568784
20
3.978812
10
20.571260
20
3.993881
10
20.573813
20
4.008938
10
20.576442
20
4.023982
10
20.579147
20
4.039012
10
20.581929
20
4.054028
10
20.584788
20
4.069029
10
20.587723
20
4.084016
10
20.590734
20
4.098988
10
20.593821
20
4.113944
10
20.596984
20
4.128884
10
20.600224
20
4.143808
10
20.603539
20
4.158716
10
20.606930
20
4.173606
10
20.610397
20
4.188479
10
20.613939
20
4.203334
10
20.617558
20
4.218171
10
20.621251
20
4.232989
10
20.625020
20
4.247788
10
20.628864
20
4.262568
10
20.632784
20
4.277328
10
20.636778
20
4.292068
10
20.640848
20
4.306787
10
20.644992
20
4.321485
10
20.649211
20
4.336163
10
20.653505
20
4.350818
10
20.657874
20
4.365452
10
20.662316
20
4.380063
10
20.666834
20
4.394651
10
20.671425
20
4.409216
10
20.676090
20
4.423757
10
20.680830
20
4.438275
10
20.685643
20
4.452768
10
20.690530
20
4.467236
10
20.695490
20
4.481680
10
20.700524
20
4.496098
10
20.705632
20
4.510490
10
20.710812
20
4.524856
10
20.716066
20
4.539196
10
20.721392
20
4.553508
10
20.726791
20
4.567793
10
20.732263
20
4.582051
10
20.737808
20
4.596281
10
20.743424
20
4.610482
10
20.749113
20
4.624654
10
20.754875
20
4.638797
10
20.760708
20
4.652911
10
20.766612
20
4.666995
10
20.772589
20
4.681048
10
20.778637
20
4.695071
10
20.784756
20
4.709063
10
20.790946
20
4.723024
10
20.797207
20
4.736953
10
20.803539
20
4.750850
10
20.809942
20
4.764714
10
20.816416
20
4.778546
10
20.822959
20
4.792345
10
20.829573
20
4.806110
10
20.836257
20
4.819841
10
20.843010
20
4.833538
10
20.849833
20
4.847201
10
20.856726
20
4.860828
10
20.863688
20
4.874420
10
20.870719
20
4.887977
10
20.877819
20
4.901498
10
20.884988
20
4.914982
10
20.892225
20
4.928430
10
20.899531
20
4.941841
10
20.906904
20
4.955214
10
20.914346
20
4.968550
10
20.921856
20
4.981848
10
20.929433
20
4.995107
10
20.937077
20
5.008327
10
20.944789
20
5.021509
10
20.952568
20
5.034651
10
20.960413
20
5.047753
10
20.968325
20
5.060815
10
20.976304
20
5.073837
10
20.984349
20
5.086818
10
20.992459
20
5.099757
10
21.000636
20
5.112656
10
21.008878
20
5.125512
10
21.017185
20
5.138326
10
21.025558
20
5.151098
10
21.033995
20
5.163827
10
21.042497
20
5.176514
10
21.051064
20
5.189156
10
21.059694
20
5.201755
10
21.068389
20
5.214310
10
21.077148
20
5.226820
10
21.085970
20
5.239285
10
21.094855
20
5.251706
10
21.103804
20
5.264081
10
21.112815
20
5.276410
10
21.121890
20
5.288694
10
21.131026
20
5.300931
10
21.140225
20
5.313121
10
21.149486
20
5.325264
10
21.158808
20
5.337360
10
21.168192
20
5.349409
10
21.177637
20
5.361409
10
21.187143
20
5.373361
10
21.196709
20
5.385265
10
21.206337
20
5.397120
10
21.216024
20
5.408926
10
21.225771
20
5.420682
10
21.235578
20
5.432388
10
21.245445
20
5.444045
10
21.255371
20
5.455651
10
21.265355
20
5.467206
10
21.275399
20
5.478710
10
21.285501
20
5.490164
10
21.295661
20
5.501565
10
21.305879
20
5.512915
10
21.316154
20
5.524212
10
21.326487
20
5.535457
10
21.336877
20
5.546649
10
21.347324
20
5.557789
10
21.357828
20
5.568875
10
21.368387
20
5.579907
10
21.379003
20
5.590885
10
21.389675
20
5.601810
10
21.400402
20
5.612679
10
21.411184
20
5.623494
10
21.422021
20
5.634254
10
21.432913
20
5.644959
10
21.443859
20
5.655608
10
21.454859
20
5.666201
10
21.465913
20
5.676738
10
21.477020
20
5.687219
10
21.488181
20
5.697643
10
21.499394
20
5.708010
10
21.510661
20
5.718320
10
21.521979
20
5.728572
10
21.533350
20
5.738767
10
21.544772
20
5.748904
10
21.556246
20
5.758982
10
21.567771
20
5.769002
10
21.579346
20
5.778963
10
21.590973
20
5.788865
10
21.602649
20
5.798707
10
21.614376
20
5.808490
10
21.626152
20
5.818214
10
21.637978
20
5.827877
10
21.649852
20
5.837480
10
21.661776
20
5.847022
10
21.673747
20
5.856503
10
21.685767
20
5.865924
10
21.697835
20
5.875283
10
21.709950
20
5.884580
10
21.722112
20
5.893816
10
21.734321
20
5.902990
10
21.746577
20
5.912101
10
21.758879
20
5.921150
10
21.771227
20
5.930136
10
21.783620
20
5.939060
10
21.796059
20
5.947920
10
21.808542
20
5.956716
10
21.821071
20
5.965449
10
21.833643
20
5.974118
10
21.846260
20
5.982723
10
21.858920
20
5.991264
10
21.871623
20
5.999740
10
21.884370
20
6.008151
10
21.897159
20
6.016497
10
21.909990
20
6.024778
10
21.922863
20
6.032994
10
21.935778
20
6.041144
10
21.948735
20
6.049228
10
21.961732
20
6.057246
10
21.974770
20
6.065198
10
21.987848
20
6.073083
10
22.000967
20
6.080902
10
22.014125
20
6.088654
10
22.027322
20
6.096338
10
22.040558
20
6.103956
10
22.053833
20
6.111506
10
22.067146
20
6.118988
10
22.080496
20
6.126402
10
22.093885
20
6.133749
10
22.107311
20
6.141027
10
22.120773
20
6.148236
10
22.134272
20
6.155377
10
22.147808
20
6.162450
10
22.161379
20
6.169453
10
22.174985
20
6.176387
10
22.188627
20
6.183252
10
22.202303
20
6.190047
10
22.216014
20
6.196772
10
22.229759
20
6.203428
10
22.243538
20
6.210013
10
22.257350
20
6.216529
10
22.271195
20
6.222973
10
22.285073
20
6.229348
10
22.298982
20
6.235651
10
22.312924
20
6.241884
10
22.326898
20
6.248046
10
22.340902
20
6.254136
10
22.354937
20
6.260155
10
22.369003
20
6.266103
10
22.383099
20
6.271979
10
22.397225
20
6.277783
10
22.411380
20
6.283515
10
22.425564
20
6.289175
10
22.439776
20
6.294762
10
22.454017
20
6.300278
10
22.468286
20
6.305720
10
22.482582
20
6.311090
10
22.496906
20
6.316387
10
22.511256
20
6.321612
10
22.525632
20
6.326763
10
22.540035
20
6.331840
10
22.554463
20
6.336845
10
22.568917
20
6.341776
10
22.583395
20
6.346633
10
22.597899
20
6.351416
10
22.612426
20
6.356126
10
22.626977
20
6.360762
10
22.641551
20
6.365323
10
22.656149
20
6.369810
10
22.670769
20
6.374223
10
22.685411
20
6.378561
10
22.700075
20
6.382825
10
22.714761
20
6.387014
10
22.729468
20
6.391128
10
22.744196
20
6.395168
10
22.758944
20
6.399132
10
22.773712
20
6.403021
10
22.788499
20
6.406835
10
22.803306
20
6.410574
10
22.818132
20
6.414237
10
22.832976
20
6.417825
10
22.847838
20
6.421337
10
22.862718
20
6.424773
10
22.877615
20
6.428134
10
22.892530
20
6.431418
10
22.907460
20
6.434627
10
22.922407
20
6.437760
10
22.937369
20
6.440816
10
22.952347
20
6.443797
10
22.967340
20
6.446701
10
22.982348
20
6.449528
10
22.997369
20
6.452280
10
23.012405
20
6.454954
10
23.027454
20
6.457553
10
23.042516
20
6.460074
10
23.057590
20
6.462519
10
23.072677
20
6.464887
10
23.087776
20
6.467178
10
23.102886
20
6.469393
10
23.118007
20
6.471530
10
23.133139
20
6.473591
10
23.148281
20
6.475574
10
23.163433
20
6.477480
10
23.178595
20
6.479309
10
23.193766
20
6.481061
10
23.208945
20
6.482736
10
23.224133
20
6.484333
10
23.239329
20
6.485853
10
23.254532
20
6.487296
10
23.269742
20
6.488661
10
23.284960
20
6.489949
10
23.300183
20
6.491159
10
23.315412
20
6.492292
10
23.330648
20
6.493347
10
23.345888
20
6.494325
10
23.361133
20
6.495225
10
23.376382
20
6.496048
10
23.391636
20
6.496792
10
23.406892
20
6.497460
10
23.422153
20
6.498049
10
23.437416
20
6.498561
10
23.452681
20
6.498995
10
23.467948
20
6.499351
10
23.483217
20
6.499630
10
23.498488
20
6.499831
10
23.513759
20
6.499954
10
23.529030
20
6.500000
10
23.544302
20
6.499967
10
23.559573
20
6.499857
10
23.574843
20
6.499670
10
23.590112
20
6.499404
10
23.605380
20
6.499061
10
23.620646
20
6.498640
10
23.635909
20
6.498142
10
23.651170
20
6.497565
10
23.666427
20
6.496911
10
23.681681
20
6.496180
10
23.696932
20
6.495370
10
23.712177
20
6.494483
10
23.727418
20
6.493519
10
23.742654
20
6.492477
10
23.757885
20
6.491357
10
23.773109
20
6.490160
10
23.788328
20
6.488885
10
23.803539
20
6.487533
10
23.818744
20
6.486104
10
23.833941
20
6.484597
10
23.849130
20
6.483013
10
23.864311
20
6.481351
10
23.879483
20
6.479613
10
23.894646
20
6.477797
10
23.909800
20
6.475903
10
23.924944
20
6.473933
10
23.940078
20
6.471886
10
23.955201
20
6.469761
10
23.970313
20
6.467560
10
23.985413
20
6.465282
10
24.000502
20
6.462927
10
24.015579
20
6.460495
10
24.030643
20
6.457987
10
24.045694
20
6.455401
10
24.060732
20
6.452740
10
24.075756
20
6.450001
10
24.090766
20
6.447187
10
24.105761
20
6.444296
10
24.120742
20
6.441328
10
24.135707
20
6.438285
10
24.150656
20
6.435165
10
24.165590
20
6.431969
10
24.180507
20
6.428697
10
24.195407
20
6.425350
10
24.210290
20
6.421926
10
24.225155
20
6.418427
10
24.240002
20
6.414852
10
24.254831
20
6.411202
10
24.269641
20
6.407476
10
24.284432
20
6.403675
10
24.299204
20
6.399798
10
24.313955
20
6.395847
10
24.328686
20
6.391820
10
24.343397
20
6.387719
10
24.358086
20
6.383542
10
24.372754
20
6.379291
10
24.387400
20
6.374966
10
24.402024
20
6.370565
10
24.416625
20
6.366091
10
24.431204
20
6.361542
10
24.445759
20
6.356919
10
24.460290
20
6.352222
10
24.474797
20
6.347451
10
24.489280
20
6.342606
10
24.503738
20
6.337688
10
24.518170
20
6.332696
10
24.532577
20
6.327631
10
24.546958
20
6.322492
10
24.561313
20
6.317281
10
24.575641
20
6.311996
10
24.589942
20
6.306638
10
24.604215
20
6.301208
10
24.618461
20
6.295705
10
24.632679
20
6.290130
10
24.646867
20
6.284482
10
24.661027
20
6.278762
10
24.675158
20
6.272970
10
24.689259
20
6.267107
10
24.703330
20
6.261171
10
24.717370
20
6.255164
10
24.731380
20
6.249086
10
24.745359
20
6.242936
10
24.759306
20
6.236716
10
24.773221
20
6.230424
10
24.787104
20
6.224062
10
24.800955
20
6.217629
10
24.814773
20
6.211126
10
24.828557
20
6.204552
10
24.842308
20
6.197908
10
24.856024
20
6.191195
10
24.869707
20
6.184411
10
24.883354
20
6.177558
10
24.896967
20
6.170636
10
24.910544
20
6.163645
10
24.924086
20
6.156584
10
24.937591
20
6.149455
10
24.951060
20
6.142257
10
24.964492
20
6.134990
10
24.977886
20
6.127656
10
24.991244
20
6.120253
10
25.004563
20
6.112782
10
25.017845
20
6.105244
10
25.031087
20
6.097638
10
25.044291
20
6.089964
10
25.057456
20
6.082224
10
25.070581
20
6.074417
10
25.083666
20
6.066543
10
25.096711
20
6.058602
10
25.109715
20
6.050595
10
25.122678
20
6.042522
10
25.135600
20
6.034384
10
25.148481
20
6.026179
10
25.161319
20
6.017909
10
25.174116
20
6.009574
10
25.186869
20
6.001174
10
25.199580
20
5.992709
10
25.212248
20
5.984179
10
25.224871
20
5.975585
10
25.237451
20
5.966927
10
25.249987
20
5.958205
10
25.262478
20
5.949419
10
25.274925
20
5.940570
10
25.287326
20
5.931657
10
25.299681
20
5.922682
10
25.311991
20
5.913644
10
25.324255
20
5.904543
10
25.336472
20
5.895380
10
25.348642
20
5.886154
10
25.360765
20
5.876867
10
25.372841
20
5.867519
10
25.384869
20
5.858109
10
25.396849
20
5.848638
10
25.408780
20
5.839106
10
25.420663
20
5.829513
10
25.432497
20
5.819860
10
25.444282
20
5.810147
10
25.456017
20
5.800374
10
25.467702
20
5.790542
10
25.479337
20
5.780650
10
25.490921
20
5.770699
10
25.502455
20
5.760689
10
25.513937
20
5.750621
10
25.525368
20
5.740494
10
25.536748
20
5.730309
10
25.548075
20
5.720067
10
25.559350
20
5.709767
10
25.570573
20
5.699409
10
25.581742
20
5.688995
10
25.592859
20
5.678524
10
25.603922
20
5.667996
10
25.614931
20
5.657412
10
25.625887
20
5.646773
10
25.636788
20
5.636078
10
25.647634
20
5.625327
10
25.658426
20
5.614521
10
25.669162
20
5.603661
10
25.679843
20
5.592746
10
25.690468
20
5.581777
10
25.701037
20
5.570753
10
25.711551
20
5.559677
10
25.722007
20
5.548546
10
25.732407
20
5.537363
10
25.742749
20
5.526127
10
25.753035
20
5.514838
10
25.763263
20
5.503498
10
30.252644
20
0.500000
10
33.766949
20
0.500000
10
33.306065
20
0.653250
10
33.291586
20
0.658105
10
33.277131
20
0.663034
10
33.262702
20
0.668037
10
33.248299
20
0.673113
10
33.233922
20
0.678262
10
33.219571
20
0.683484
10
33.205247
20
0.688780
10
33.190950
20
0.694148
10
33.176681
20
0.699589
10
33.162439
20
0.705102
10
33.148226
20
0.710688
10
33.134041
20
0.716346
10
33.119885
20
0.722077
10
33.105759
20
0.727879
10
33.091662
20
0.733753
10
33.077596
20
0.739699
10
33.063560
20
0.745716
10
33.049555
20
0.751805
10
33.035580
20
0.757965
10
33.021638
20
0.764196
10
33.007727
20
0.770498
10
32.993849
20
0.776871
10
32.980003
20
0.783314
10
32.966190
20
0.789827
10
32.952411
20
0.796411
10
32.938665
20
0.803065
10
32.924953
20
0.809789
10
32.911276
20
0.816582
10
32.897633
20
0.823445
10
32.884026
20
0.830378
10
32.870454
20
0.837379
10
32.856918
20
0.844450
10
32.843418
20
0.851589
10
32.829954
20
0.858797
10
32.816528
20
0.866073
10
32.803138
20
0.873418
10
32.789787
20
0.880831
10
32.776473
20
0.888311
10
32.763197
20
0.895860
10
32.749960
20
0.903475
10
32.736762
20
0.911159
10
32.723603
20
0.918909
10
32.710484
20
0.926726
10
32.697404
20
0.934609
10
32.684365
20
0.942560
10
32.671367
20
0.950576
10
32.658410
20
0.958659
10
32.645494
20
0.966807
10
32.632619
20
0.975021
10
32.619787
20
0.983300
10
32.606997
20
0.991645
10
32.594249
20
1.000055
10
32.581545
20
1.008529
10
32.568884
20
1.017068
10
32.556266
20
1.025672
10
32.543693
20
1.034339
10
32.531163
20
1.043070
10
32.518679
20
1.051865
10
32.506239
20
1.060724
10
32.493844
20
1.069646
10
32.481495
20
1.078630
10
32.469192
20
1.087678
10
32.456935
20
1.096788
10
32.444725
20
1.105960
10
32.432562
20
1.115194
10
32.420445
20
1.124490
10
32.408377
20
1.133848
10
32.396356
20
1.143266
10
32.384383
20
1.152746
10
32.372458
20
1.162287
10
32.360583
20
1.171889
10
32.348756
20
1.181550
10
32.336978
20
1.191272
10
32.325251
20
1.201054
10
32.313573
20
1.210895
10
32.301945
20
1.220795
10
32.290368
20
1.230755
10
32.278842
20
1.240773
10
32.267367
20
1.250850
10
32.255944
20
1.260985
10
32.244572
20
1.271179
10
32.233252
20
1.281430
10
32.221984
20
1.291738
10
32.210770
20
1.302104
10
32.199608
20
1.312526
10
32.188499
20
1.323006
10
32.177444
20
1.333541
10
32.166442
20
1.344133
10
32.155495
20
1.354781
10
32.144602
20
1.365484
10
32.133763
20
1.376243
10
32.122980
20
1.387057
10
32.112251
20
1.397925
10
32.101579
20
1.408848
10
32.090961
20
1.419825
10
32.080400
20
1.430856
10
32.069895
20
1.441941
10
32.059447
20
1.453079
10
32.049056
20
1.464270
10
32.038721
20
1.475513
10
32.028444
20
1.486810
10
32.018225
20
1.498158
10
32.008064
20
1.509558
10
31.997960
20
1.521010
10
31.987916
20
1.532513
10
31.977929
20
1.544067
10
31.968002
20
1.555672
10
31.958134
20
1.567327
10
31.948326
20
1.579032
10
31.938577
20
1.590787
10
31.928888
20
1.602592
10
31.919259
20
1.614446
10
31.909691
20
1.626348
10
31.900184
20
1.638299
10
31.890737
20
1.650299
10
31.881352
20
1.662346
10
31.872028
20
1.674441
10
31.862766
20
1.686583
10
31.853566
20
1.698772
10
31.844428
20
1.711008
10
31.835352
20
1.723290
10
31.826339
20
1.735618
10
31.817389
20
1.747992
10
31.808502
20
1.760412
10
31.799678
20
1.772876
10
31.790918
20
1.785385
10
31.782222
20
1.797939
10
31.773589
20
1.810537
10
31.765021
20
1.823178
10
31.756518
20
1.835863
10
31.748079
20
1.848591
10
31.739705
20
1.861362
10
31.731396
20
1.874175
10
31.723152
20
1.887031
10
31.714974
20
1.899928
10
31.706862
20
1.912867
10
31.698815
20
1.925847
10
31.690835
20
1.938867
10
31.682921
20
1.951929
10
31.675074
20
1.965030
10
31.667294
20
1.978171
10
31.659581
20
1.991351
10
31.651934
20
2.004571
10
31.644356
20
2.017829
10
31.636844
20
2.031126
10
31.629401
20
2.044461
10
31.622026
20
2.057833
10
31.614718
20
2.071243
10
31.607479
20
2.084690
10
31.600309
20
2.098173
10
31.593207
20
2.111693
10
31.586175
20
2.125249
10
31.579211
20
2.138840
10
31.572317
20
2.152467
10
31.565492
20
2.166129
10
31.558737
20
2.179825
10
31.552051
20
2.193556
10
31.545436
20
2.207320
10
31.538890
20
2.221118
10
31.532415
20
2.234949
10
31.526011
20
2.248812
10
31.519677
20
2.262708
10
31.513414
20
2.276637
10
31.507222
20
2.290596
10
31.501101
20
2.304588
10
31.495052
20
2.318610
10
31.489073
20
2.332663
10
31.483167
20
2.346746
10
31.477332
20
2.360859
10
31.471569
20
2.375001
10
31.465878
20
2.389173
10
31.460260
20
2.403373
10
31.454714
20
2.417602
10
31.449240
20
2.431859
10
31.443839
20
2.446144
10
31.438511
20
2.460456
10
31.433255
20
2.474794
10
31.428073
20
2.489160
10
31.422964
20
2.503551
10
31.417928
20
2.517969
10
31.412966
20
2.532412
10
31.408077
20
2.546879
10
31.403262
20
2.561372
10
31.398521
20
2.575889
10
31.393854
20
2.590430
10
31.389261
20
2.604994
10
31.384742
20
2.619582
10
31.380297
20
2.634192
10
31.375927
20
2.648825
10
31.371631
20
2.663480
10
31.367410
20
2.678157
10
31.363264
20
2.692855
10
31.359193
20
2.707574
10
31.355197
20
2.722313
10
31.351275
20
2.737073
10
31.347429
20
2.751852
10
31.343658
20
2.766651
10
31.339963
20
2.781468
10
31.336343
20
2.796305
10
31.332799
20
2.811159
10
31.329330
20
2.826032
10
31.325937
20
2.840921
10
31.322620
20
2.855828
10
31.319379
20
2.870752
10
31.316213
20
2.885692
10
31.313124
20
2.900648
10
31.310111
20
2.915619
10
31.307175
20
2.930606
10
31.304314
20
2.945607
10
31.301531
20
2.960623
10
31.298823
20
2.975652
10
31.296192
20
2.990695
10
31.293638
20
3.005752
10
31.291160
20
3.020821
10
31.288759
20
3.035903
10
31.286435
20
3.050996
10
31.284188
20
3.066102
10
31.282018
20
3.081218
10
31.279924
20
3.096346
10
31.277908
20
3.111484
10
31.275969
20
3.126631
10
31.274107
20
3.141789
10
31.272322
20
3.156956
10
31.270614
20
3.172132
10
31.268984
20
3.187316
10
31.267431
20
3.202508
10
31.265955
20
3.217708
10
31.264557
20
3.232916
10
31.263236
20
3.248130
10
31.261993
20
3.263351
10
31.260827
20
3.278578
10
31.259738
20
3.293811
10
31.258727
20
3.309049
10
31.257794
20
3.324292
10
31.256939
20
3.339539
10
31.256161
20
3.354791
10
31.255460
20
3.370046
10
31.254837
20
3.385305
10
31.254292
20
3.400567
10
31.253825
20
3.415832
10
31.253436
20
3.431098
10
31.253124
20
3.446366
10
31.252890
20
3.461636
10
31.252733
20
3.476907
10
31.252654
20
3.492178
10
31.252653
20
3.507450
10
31.252730
20
3.522721
10
31.252885
20
3.537992
10
31.253117
20
3.553262
10
31.253427
20
3.568530
10
31.253815
20
3.583797
10
31.254280
20
3.599061
10
31.254823
20
3.614323
10
31.255444
20
3.629582
10
31.256143
20
3.644838
10
31.256919
20
3.660089
10
31.257772
20
3.675337
10
31.258704
20
3.690580
10
31.259713
20
3.705818
10
31.260799
20
3.721051
10
31.261963
20
3.736278
10
31.263205
20
3.751499
10
31.264524
20
3.766714
10
31.265920
20
3.781921
10
31.267394
20
3.797122
10
31.268945
20
3.812314
10
31.270574
20
3.827499
10
31.272279
20
3.842675
10
31.274062
20
3.857842
10
31.275923
20
3.873000
10
31.277860
20
3.888148
10
31.279874
20
3.903286
10
31.281966
20
3.918414
10
31.284134
20
3.933530
10
31.286380
20
3.948636
10
31.288702
20
3.963730
10
31.291101
20
3.978812
10
31.293577
20
3.993881
10
31.296129
20
4.008938
10
31.298758
20
4.023982
10
31.301464
20
4.039012
10
31.304246
20
4.054028
10
31.307104
20
4.069029
10
31.310039
20
4.084016
10
31.313050
20
4.098988
10
31.316137
20
4.113944
10
31.319301
20
4.128884
10
31.322540
20
4.143808
10
31.325855
20
4.158716
10
31.329246
20
4.173606
10
31.332713
20
4.188479
10
31.336256
20
4.203334
10
31.339874
20
4.218171
10
31.343567
20
4.232989
10
31.347336
20
4.247788
10
31.351181
20
4.262568
10
31.355100
20
4.277328
10
31.359095
20
4.292068
10
31.363164
20
4.306787
10
31.367309
20
4.321485
10
31.371528
20
4.336163
10
31.375822
20
4.350818
10
31.380190
20
4.365452
10
31.384633
20
4.380063
10
31.389150
20
4.394651
10
31.393741
20
4.409216
10
31.398407
20
4.423757
10
31.403146
20
4.438275
10
31.407959
20
4.452768
10
31.412846
20
4.467236
10
31.417807
20
4.481680
10
31.422841
20
4.496098
10
31.427948
20
4.510490
10
31.433128
20
4.524856
10
31.438382
20
4.539196
10
31.443708
20
4.553508
10
31.449108
20
4.567793
10
31.454580
20
4.582051
10
31.460124
20
4.596281
10
31.465741
20
4.610482
10
31.471430
20
4.624654
10
31.477191
20
4.638797
10
31.483024
20
4.652911
10
31.488929
20
4.666995
10
31.494905
20
4.681048
10
31.500953
20
4.695071
10
31.507072
20
4.709063
10
31.513262
20
4.723024
10
31.519524
20
4.736953
10
31.525856
20
4.750850
10
31.532259
20
4.764714
10
31.538732
20
4.778546
10
31.545275
20
4.792345
10
31.551889
20
4.806110
10
31.558573
20
4.819841
10
31.565327
20
4.833538
10
31.572150
20
4.847201
10
31.579042
20
4.860828
10
31.586004
20
4.874420
10
31.593035
20
4.887977
10
31.600135
20
4.901498
10
31.607304
20
4.914982
10
31.614541
20
4.928430
10
31.621847
20
4.941841
10
31.629221
20
4.955214
10
31.636662
20
4.968550
10
31.644172
20
4.981848
10
31.651749
20
4.995107
10
31.659394
20
5.008327
10
31.667105
20
5.021509
10
31.674884
20
5.034651
10
31.682730
20
5.047753
10
31.690642
20
5.060815
10
31.698620
20
5.073837
10
31.706665
20
5.086818
10
31.714776
20
5.099757
10
31.722952
20
5.112656
10
31.731194
20
5.125512
10
31.739501
20
5.138326
10
31.747874
20
5.151098
10
31.756311
20
5.163827
10
31.764813
20
5.176514
10
31.773380
20
5.189156
10
31.782011
20
5.201755
10
31.790705
20
5.214310
10
31.799464
20
5.226820
10
31.808286
20
5.239285
10
31.817172
20
5.251706
10
31.826120
20
5.264081
10
31.835132
20
5.276410
10
31.844206
20
5.288694
10
31.853342
20
5.300931
10
31.862541
20
5.313121
10
31.871802
20
5.325264
10
31.881124
20
5.337360
10
31.890508
20
5.349409
10
31.899953
20
5.361409
10
31.909459
20
5.373361
10
31.919026
20
5.385265
10
31.928653
20
5.397120
10
31.938340
20
5.408926
10
31.948088
20
5.420682
10
31.957895
20
5.432388
10
31.967761
20
5.444045
10
31.977687
20
5.455651
10
31.987672
20
5.467206
10
31.997715
20
5.478710
10
32.007817
20
5.490164
10
32.017977
20
5.501565
10
32.028195
20
5.512915
10
32.038471
20
5.524212
10
32.048803
20
5.535457
10
32.059194
20
5.546649
10
32.069640
20
5.557789
10
32.080144
20
5.568875
10
32.090704
20
5.579907
10
32.101319
20
5.590885
10
32.111991
20
5.601810
10
32.122718
20
5.612679
10
32.133500
20
5.623494
10
32.144337
20
5.634254
10
32.155229
20
5.644959
10
32.166175
20
5.655608
10
32.177175
20
5.666201
10
32.188229
20
5.676738
10
32.199337
20
5.687219
10
32.210497
20
5.697643
10
32.221711
20
5.708010
10
32.232977
20
5.718320
10
32.244295
20
5.728572
10
32.255666
20
5.738767
10
32.267088
20
5.748904
10
32.278562
20
5.758982
10
32.290087
20
5.769002
10
32.301663
20
5.778963
10
32.313289
20
5.788865
10
32.324966
20
5.798707
10
32.336692
20
5.808490
10
32.348468
20
5.818214
10
32.360294
20
5.827877
10
32.372169
20
5.837480
10
32.384092
20
5.847022
10
32.396064
20
5.856503
10
32.408083
20
5.865924
10
32.420151
20
5.875283
10
32.432266
20
5.884580
10
32.444428
20
5.893816
10
32.456638
20
5.902990
10
32.468893
20
5.912101
10
32.481195
20
5.921150
10
32.493543
20
5.930136
10
32.505936
20
5.939060
10
32.518375
20
5.947920
10
32.530859
20
5.956716
10
32.543387
20
5.965449
10
32.555959
20
5.974118
10
32.568576
20
5.982723
10
32.581236
20
5.991264
10
32.593939
20
5.999740
10
32.606686
20
6.008151
10
32.619475
20
6.016497
10
32.632306
20
6.024778
10
32.645180
20
6.032994
10
32.658095
20
6.041144
10
32.671051
20
6.049228
10
32.684048
20
6.057246
10
32.697086
20
6.065198
10
32.710165
20
6.073083
10
32.723283
20
6.080902
10
32.736441
20
6.088654
10
32.749638
20
6.096338
10
32.762874
20
6.103956
10
32.776149
20
6.111506
10
32.789462
20
6.118988
10
32.802813
20
6.126402
10
32.816201
20
6.133749
10
32.829627
20
6.141027
10
32.843090
20
6.148236
10
32.856589
20
6.155377
10
32.870124
20
6.162450
10
32.883695
20
6.169453
10
32.897302
20
6.176387
10
32.910943
20
6.183252
10
32.924620
20
6.190047
10
32.938331
20
6.196772
10
32.952076
20
6.203428
10
32.965854
20
6.210013
10
32.979666
20
6.216529
10
32.993511
20
6.222973
10
33.007389
20
6.229348
10
33.021299
20
6.235651
10
33.035241
20
6.241884
10
33.049214
20
6.248046
10
33.063218
20
6.254136
10
33.077254
20
6.260155
10
33.091320
20
6.266103
10
33.105415
20
6.271979
10
33.119541
20
6.277783
10
33.133696
20
6.283515
10
33.147880
20
6.289175
10
33.162093
20
6.294762
10
33.176333
20
6.300278
10
33.190602
20
6.305720
10
33.204899
20
6.311090
10
33.219222
20
6.316387
10
33.233572
20
6.321612
10
33.247949
20
6.326763
10
33.262351
20
6.331840
10
33.276780
20
6.336845
10
33.291233
20
6.341776
10
33.305712
20
6.346633
10
33.320215
20
6.351416
10
33.334742
20
6.356126
10
33.349293
20
6.360762
10
33.363868
20
6.365323
10
33.378465
20
6.369810
10
33.393085
20
6.374223
10
33.407727
20
6.378561
10
33.422392
20
6.382825
10
33.437077
20
6.387014
10
33.451784
20
6.391128
10
33.466512
20
6.395168
10
33.481260
20
6.399132
10
33.496028
20
6.403021
10
33.510816
20
6.406835
10
33.525623
20
6.410574
10
33.540448
20
6.414237
10
33.555292
20
6.417825
10
33.570155
20
6.421337
10
33.585035
20
6.424773
10
33.599932
20
6.428134
10
33.614846
20
6.431418
10
33.629776
20
6.434627
10
33.644723
20
6.437760
10
33.659686
20
6.440816
10
33.674664
20
6.443797
10
33.689657
20
6.446701
10
33.704664
20
6.449528
10
33.719686
20
6.452280
10
33.734721
20
6.454954
10
33.749770
20
6.457553
10
33.764832
20
6.460074
10
33.779907
20
6.462519
10
33.794993
20
6.464887
10
33.810092
20
6.467178
10
33.825202
20
6.469393
10
33.840324
20
6.471530
10
33.855455
20
6.473591
10
33.870598
20
6.475574
10
33.885750
20
6.477480
10
33.900911
20
6.479309
10
33.916082
20
6.481061
10
33.931262
20
6.482736
10
33.946449
20
6.484333
10
33.961645
20
6.485853
10
33.976848
20
6.487296
10
33.992059
20
6.488661
10
34.007276
20
6.489949
10
34.022499
20
6.491159
10
34.037729
20
6.492292
10
34.052964
20
6.493347
10
34.068204
20
6.494325
10
34.083449
20
6.495225
10
34.098698
20
6.496048
10
34.113952
20
6.496792
10
34.129209
20
6.497460
10
34.144469
20
6.498049
10
34.159732
20
6.498561
10
34.174997
20
6.498995
10
34.190265
20
6.499351
10
34.205534
20
6.499630
10
34.220804
20
6.499831
10
34.236075
20
6.499954
10
34.251346
20
6.500000
10
34.266618
20
6.499967
10
34.281889
20
6.499857
10
34.297160
20
6.499670
10
34.312429
20
6.499404
10
34.327696
20
6.499061
10
34.342962
20
6.498640
10
34.358226
20
6.498142
10
34.373486
20
6.497565
10
34.388744
20
6.496911
10
34.403998
20
6.496180
10
34.419248
20
6.495370
10
34.434494
20
6.494483
10
34.449735
20
6.493519
10
34.464971
20
6.492477
10
34.480201
20
6.491357
10
34.495426
20
6.490160
10
34.510644
20
6.488885
10
34.525856
20
6.487533
10
34.541060
20
6.486104
10
34.556257
20
6.484597
10
34.571446
20
6.483013
10
34.586627
20
6.481351
10
34.601799
20
6.479613
10
34.616962
20
6.477797
10
34.632116
20
6.475903
10
34.647260
20
6.473933
10
34.662394
20
6.471886
10
34.677517
20
6.469761
10
34.692629
20
6.467560
10
34.707730
20
6.465282
10
34.722819
20
6.462927
10
34.737895
20
6.460495
10
34.752959
20
6.457987
10
34.768010
20
6.455401
10
34.783048
20
6.452740
10
34.798072
20
6.450001
10
34.813082
20
6.447187
10
34.828078
20
6.444296
10
34.843058
20
6.441328
10
34.858023
20
6.438285
10
34.872973
20
6.435165
10
34.887906
20
6.431969
10
34.902823
20
6.428697
10
34.917723
20
6.425350
10
34.932606
20
6.421926
10
34.947471
20
6.418427
10
34.962319
20
6.414852
10
34.977147
20
6.411202
10
34.991958
20
6.407476
10
35.006748
20
6.403675
10
35.021520
20
6.399798
10
35.036271
20
6.395847
10
35.051002
20
6.391820
10
35.065713
20
6.387719
10
35.080402
20
6.383542
10
35.095070
20
6.379291
10
35.109716
20
6.374966
10
35.124340
20
6.370565
10
35.138942
20
6.366091
10
35.153520
20
6.361542
10
35.168075
20
6.356919
10
35.182606
20
6.352222
10
35.197113
20
6.347451
10
35.211596
20
6.342606
10
35.226054
20
6.337688
10
35.240487
20
6.332696
10
35.254894
20
6.327631
10
35.269275
20
6.322492
10
35.283629
20
6.317281
10
35.297957
20
6.311996
10
35.312258
20
6.306638
10
35.326532
20
6.301208
10
35.340777
20
6.295705
10
35.354995
20
6.290130
10
35.369184
20
6.284482
10
35.383344
20
6.278762
10
35.397474
20
6.272970
10
35.411575
20
6.267107
10
35.425646
20
6.261171
10
35.439687
20
6.255164
10
35.453697
20
6.249086
10
35.467675
20
6.242936
10
35.481622
20
6.236716
10
35.495538
20
6.230424
10
35.509421
20
6.224062
10
35.523271
20
6.217629
10
35.537089
20
6.211126
10
35.550873
20
6.204552
10
35.564624
20
6.197908
10
35.578341
20
6.191195
10
35.592023
20
6.184411
10
35.605671
20
6.177558
10
35.619283
20
6.170636
10
35.632860
20
6.163645
10
35.646402
20
6.156584
10
35.659907
20
6.149455
10
35.673376
20
6.142257
10
35.686808
20
6.134990
10
35.700203
20
6.127656
10
35.713560
20
6.120253
10
35.726880
20
6.112782
10
35.740161
20
6.105244
10
35.753404
20
6.097638
10
35.766607
20
6.089964
10
35.779772
20
6.082224
10
35.792897
20
6.074417
10
35.805982
20
6.066543
10
35.819027
20
6.058602
10
35.832031
20
6.050595
10
35.844995
20
6.042522
10
35.857917
20
6.034384
10
35.870797
20
6.026179
10
35.883636
20
6.017909
10
35.896432
20
6.009574
10
35.909186
20
6.001174
10
35.921896
20
5.992709
10
35.934564
20
5.984179
10
35.947188
20
5.975585
10
35.959768
20
5.966927
10
35.972304
20
5.958205
10
35.984795
20
5.949419
10
35.997241
20
5.940570
10
36.009642
20
5.931657
10
36.021998
20
5.922682
10
36.034308
20
5.913644
10
36.046571
20
5.904543
10
36.058788
20
5.895380
10
36.070958
20
5.886154
10
36.083082
20
5.876867
10
36.095157
20
5.867519
10
36.107185
20
5.858109
10
36.119165
20
5.848638
10
36.131097
20
5.839106
10
36.142980
20
5.829513
10
36.154814
20
5.819860
10
36.166598
20
5.810147
10
36.178333
20
5.800374
10
36.190018
20
5.790542
10
36.201653
20
5.780650
10
36.213238
20
5.770699
10
36.224771
20
5.760689
10
36.236254
20
5.750621
10
36.247685
20
5.740494
10
36.259064
20
5.730309
10
36.270392
20
5.720067
10
36.281667
20
5.709767
10
36.292889
20
5.699409
10
36.304059
20
5.688995
10
36.315175
20
5.678524
10
36.326238
20
5.667996
10
36.337248
20
5.657412
10
36.348203
20
5.646773
10
36.359104
20
5.636078
10
36.369950
20
5.625327
10
36.380742
20
5.614521
10
36.391478
20
5.603661
10
36.402159
20
5.592746
10
36.412785
20
5.581777
10
36.423354
20
5.570753
10
36.433867
20
5.559677
10
36.444323
20
5.548546
10
36.454723
20
5.537363
10
36.465066
20
5.526127
10
36.475351
20
5.514838
10
36.485579
20
5.503498
10
40.088209
20
1.488301
10
40.111360
20
1.497449
10
40.160657
20
1.515088
10
40.210505
20
1.531105
10
40.260850
20
1.545481
10
40.311639
20
1.558203
10
40.362816
20
1.569256
10
40.414328
20
1.578629
10
40.466119
20
1.586312
10
40.518133
20
1.592296
10
40.570316
20
1.596574
10
40.622610
20
1.599143
10
40.674961
20
1.600000
10
40.727311
20
1.599143
10
40.779606
20
1.596574
10
40.831788
20
1.592296
10
40.883802
20
1.586312
10
40.935593
20
1.578629
10
40.987105
20
1.569256
10
41.038283
20
1.558203
10
41.089071
20
1.545481
10
41.139416
20
1.531105
10
41.189264
20
1.515088
10
41.238561
20
1.497449
10
41.287254
20
1.478207
10
41.335292
20
1.457382
10
41.382622
20
1.434996
10
41.429195
20
1.411074
10
41.474961
20
1.385641
10
41.519869
20
1.358723
10
41.563873
20
1.330351
10
41.606925
20
1.300555
10
41.648979
20
1.269365
10
41.689990
20
1.236817
10
41.729914
20
1.202944
10
41.768708
20
1.167783
10
41.806331
20
1.131371
10
41.842743
20
1.093748
10
41.877904
20
1.054953
10
41.911777
20
1.015029
10
41.944326
20
0.974018
10
41.975515
20
0.931964
10
42.005312
20
0.888912
10
42.033684
20
0.844909
10
42.060601
20
0.800000
10
42.086035
20
0.754235
10
42.109957
20
0.707662
10
42.132343
20
0.660331
10
42.153168
20
0.612293
10
42.172410
20
0.563600
10
42.190049
20
0.514303
10
42.206065
20
0.464455
10
42.220442
20
0.414110
10
42.233164
20
0.363322
10
42.244217
20
0.312145
10
42.253590
20
0.260633
10
42.261272
20
0.208842
10
42.267256
20
0.156827
10
42.271535
20
0.104645
10
42.274104
20
0.052351
10
42.274961
20
0.000000
10
42.274104
20
-0.052351
10
42.271535
20
-0.104645
10
42.267256
20
-0.156827
10
42.261272
20
-0.208842
10
42.253590
20
-0.260633
10
42.244217
20
-0.312145
10
42.233164
20
-0.363322
10
42.220442
20
-0.414110
10
42.206065
20
-0.464455
10
42.190049
20
-0.514303
10
42.172410
20
-0.563600
10
42.153168
20
-0.612293
10
42.132343
20
-0.660331
10
42.109957
20
-0.707662
10
42.086035
20
-0.754235
10
42.060601
20
-0.800000
10
42.033684
20
-0.844909
10
42.005312
20
-0.888912
10
41.975515
20
-0.931964
10
41.944326
20
-0.974018
10
41.911777
20
-1.015029
10
41.877904
20
-1.054953
10
41.842743
20
-1.093748
10
41.806331
20
-1.131371
10
41.768708
20
-1.167783
10
41.729914
20
-1.202944
10
41.689990
20
-1.236817
10
41.648979
20
-1.269365
10
41.606925
20
-1.300555
10
41.563873
20
-1.330351
10
41.519869
20
-1.358723
10
41.474961
20
-1.385641
10
41.429195
20
-1.411074
10
41.382622
20
-1.434996
10
41.335292
20
-1.457382
10
41.287254
20
-1.478207
10
41.238561
20
-1.497449
10
41.189264
20
-1.515088
10
41.139416
20
-1.531105
10
41.089071
20
-1.545481
10
41.038283
20
-1.558203
10
40.987105
20
-1.569256
10
40.935593
20
-1.578629
10
40.883802
20
-1.586312
10
40.831788
20
-1.592296
10
40.779606
20
-1.596574
10
40.727311
20
-1.599143
10
40.674961
20
-1.600000
10
40.622610
20
-1.599143
10
40.570316
20
-1.596574
10
40.518133
20
-1.592296
10
40.466119
20
-1.586312
10
40.414328
20
-1.578629
10
40.362816
20
-1.569256
10
40.311639
20
-1.558203
10
40.260850
20
-1.545481
10
40.210505
20
-1.531105
10
40.160657
20
-1.515088
10
40.111360
20
-1.497449
10
40.062667
20
-1.478207
10
40.014629
20
-1.457382
10
39.967299
20
-1.434996
10
39.920726
20
-1.411074
10
39.874961
20
-1.385641
10
39.830052
20
-1.358723
10
39.786048
20
-1.330351
10
39.742996
20
-1.300555
10
39.700942
20
-1.269365
10
39.659931
20
-1.236817
10
39.620007
20
-1.202944
10
39.581213
20
-1.167783
10
39.543590
20
-1.131371
10
39.507178
20
-1.093748
10
39.472017
20
-1.054953
10
39.438144
20
-1.015029
10
39.405595
20
-0.974018
10
39.374406
20
-0.931964
10
39.344609
20
-0.888912
10
39.316237
20
-0.844909
10
39.289320
20
-0.800000
10
39.263887
20
-0.754235
10
39.239964
20
-0.707662
10
39.217578
20
-0.660331
10
39.196753
20
-0.612293
10
39.177511
20
-0.563600
10
39.159872
20
-0.514303
10
39.155277
20
-0.500000
10
0.905379
20
-0.500000
10
0.900783
20
-0.514303
0
LWPOLYLINE
8
0
100
AcDbEntity
100
AcDbPolyline
90
38
70
1
10
0.771336
20
0.800000
10
0.796769
20
0.754235
10
0.820692
20
0.707662
10
0.843077
20
0.660331
10
0.863902
20
0.612293
10
0.883145
20
0.563600
10
0.900783
20
0.514303
10
0.905379
20
0.500000
10
1.600000
20
0.500000
10
1.139116
20
0.653250
10
1.124637
20
0.658105
10
1.110182
20
0.663034
10
1.095753
20
0.668037
10
1.081350
20
0.673113
10
1.066973
20
0.678262
10
1.052622
20
0.683484
10
1.038298
20
0.688780
10
1.024001
20
0.694148
10
1.009732
20
0.699589
10
0.995490
20
0.705102
10
0.981277
20
0.710688
10
0.967092
20
0.716346
10
0.952936
20
0.722077
10
0.938810
20
0.727879
10
0.924713
20
0.733753
10
0.910647
20
0.739699
10
0.896611
20
0.745716
10
0.882606
20
0.751805
10
0.868631
20
0.757965
10
0.854689
20
0.764196
10
0.840778
20
0.770498
10
0.826900
20
0.776871
10
0.813054
20
0.783314
10
0.799241
20
0.789827
10
0.785462
20
0.796411
10
0.771716
20
0.803065
10
0.768576
20
0.804605
10
0.771336
20
0.800000
0
LWPOLYLINE
8
0
100
AcDbEntity
100
AcDbPolyline
90
732
70
1
10
39.177511
20
0.563600
10
39.196753
20
0.612293
10
39.217578
20
0.660331
10
39.239964
20
0.707662
10
39.263887
20
0.754235
10
39.289320
20
0.800000
10
39.316237
20
0.844909
10
39.318634
20
0.848625
10
35.741267
20
4.835665
10
35.734449
20
4.843226
10
35.727592
20
4.850751
10
35.720697
20
4.858242
10
35.713764
20
4.865698
10
35.706793
20
4.873118
10
35.699784
20
4.880502
10
35.692738
20
4.887851
10
35.685654
20
4.895164
10
35.678534
20
4.902441
10
35.671376
20
4.909681
10
35.664182
20
4.916885
10
35.656951
20
4.924052
10
35.649683
20
4.931182
10
35.642380
20
4.938275
10
35.635040
20
4.945331
10
35.627665
20
4.952349
10
35.620254
20
4.959330
10
35.612808
20
4.966273
10
35.605326
20
4.973178
10
35.597809
20
4.980044
10
35.590257
20
4.986873
10
35.582671
20
4.993663
10
35.575051
20
5.000414
10
35.567396
20
5.007126
10
35.559706
20
5.013799
10
35.551984
20
5.020433
10
35.544227
20
5.027028
10
35.536437
20
5.033583
10
35.528614
20
5.040098
10
35.520757
20
5.046574
10
35.512868
20
5.053009
10
35.504946
20
5.059404
10
35.496992
20
5.065758
10
35.489005
20
5.072073
10
35.480986
20
5.078346
10
35.472936
20
5.084578
10
35.464854
20
5.090770
10
35.456740
20
5.096920
10
35.448595
20
5.103029
10
35.440420
20
5.109096
10
35.432213
20
5.115121
10
35.423976
20
5.121105
10
35.415709
20
5.127047
10
35.407411
20
5.132946
10
35.399084
20
5.138803
10
35.390727
20
5.144618
10
35.382340
20
5.150390
10
35.373924
20
5.156119
10
35.365479
20
5.161806
10
35.357005
20
5.167449
10
35.348503
20
5.173049
10
35.339972
20
5.178606
10
35.331413
20
5.184119
10
35.322826
20
5.189589
10
35.314211
20
5.195015
10
35.305569
20
5.200397
10
35.296899
20
5.205735
10
35.288203
20
5.211028
10
35.279479
20
5.216278
10
35.270729
20
5.221483
10
35.261953
20
5.226643
10
35.253150
20
5.231758
10
35.244322
20
5.236829
10
35.235468
20
5.241855
10
35.226588
20
5.246835
10
35.217683
20
5.251770
10
35.208753
20
5.256660
10
35.199799
20
5.261505
10
35.190819
20
5.266303
10
35.181816
20
5.271056
10
35.172788
20
5.275763
10
35.163737
20
5.280424
10
35.154662
20
5.285039
10
35.145563
20
5.289608
10
35.136442
20
5.294130
10
35.127297
20
5.298606
10
35.118130
20
5.303035
10
35.108941
20
5.307417
10
35.099729
20
5.311753
10
35.090495
20
5.316041
10
35.081240
20
5.320283
10
35.071963
20
5.324477
10
35.062665
20
5.328624
10
35.053346
20
5.332724
10
35.044006
20
5.336776
10
35.034646
20
5.340781
10
35.025265
20
5.344738
10
35.015864
20
5.348647
10
35.006444
20
5.352508
10
34.997004
20
5.356321
10
34.987545
20
5.360086
10
34.978066
20
5.363803
10
34.968569
20
5.367472
10
34.959054
20
5.371092
10
34.949520
20
5.374664
10
34.939968
20
5.378187
10
34.930398
20
5.381661
10
34.920811
20
5.385087
10
34.911206
20
5.388464
10
34.901584
20
5.391792
10
34.891945
20
5.395071
10
34.882290
20
5.398301
10
34.872619
20
5.401481
10
34.862931
20
5.404613
10
34.853228
20
5.407695
10
34.843509
20
5.410727
10
34.833775
20
5.413710
10
34.824026
20
5.416644
10
34.814262
20
5.419528
10
34.804483
20
5.422362
10
34.794690
20
5.425146
10
34.784883
20
5.427880
10
34.775062
20
5.430565
10
34.765228
20
5.433199
10
34.755380
20
5.435783
10
34.745520
20
5.438317
10
34.735646
20
5.440801
10
34.725760
20
5.443235
10
34.715862
20
5.445618
10
34.705952
20
5.447951
10
34.696030
20
5.450233
10
34.686097
20
5.452465
10
34.676152
20
5.454646
10
34.666197
20
5.456777
10
34.656230
20
5.458856
10
34.646253
20
5.460885
10
34.636266
20
5.462864
10
34.626270
20
5.464791
10
34.616263
20
5.466668
10
34.606247
20
5.468493
10
34.596222
20
5.470268
10
34.586188
20
5.471991
10
34.576145
20
5.473663
10
34.566094
20
5.475285
10
34.556035
20
5.476855
10
34.545967
20
5.478373
10
34.535893
20
5.479841
10
34.525811
20
5.481257
10
34.515722
20
5.482622
10
34.505626
20
5.483936
10
34.495523
20
5.485198
10
34.485414
20
5.486408
10
34.475299
20
5.487568
10
34.465179
20
5.488675
10
34.455053
20
5.489731
10
34.444921
20
5.490736
10
34.434785
20
5.491689
10
34.424644
20
5.492590
10
34.414499
20
5.493440
10
34.404349
20
5.494238
10
34.394195
20
5.494985
10
34.384038
20
5.495679
10
34.373877
20
5.496322
10
34.363713
20
5.496914
10
34.353547
20
5.497453
10
34.343377
20
5.497941
10
34.333206
20
5.498377
10
34.323032
20
5.498761
10
34.312856
20
5.499093
10
34.302679
20
5.499374
10
34.292501
20
5.499603
10
34.282321
20
5.499780
10
34.272141
20
5.499905
10
34.261960
20
5.499978
10
34.251779
20
5.500000
10
34.241598
20
5.499969
10
34.231417
20
5.499887
10
34.221237
20
5.499753
10
34.211058
20
5.499568
10
34.200880
20
5.499330
10
34.190703
20
5.499041
10
34.180527
20
5.498699
10
34.170354
20
5.498306
10
34.160183
20
5.497862
10
34.150014
20
5.497365
10
34.139847
20
5.496817
10
34.129684
20
5.496217
10
34.119524
20
5.495565
10
34.109367
20
5.494861
10
34.099214
20
5.494106
10
34.089065
20
5.493299
10
34.078921
20
5.492441
10
34.068780
20
5.491531
10
34.058645
20
5.490569
10
34.048514
20
5.489555
10
34.038389
20
5.488491
10
34.028269
20
5.487374
10
34.018156
20
5.486206
10
34.008048
20
5.484987
10
33.997947
20
5.483716
10
33.987852
20
5.482394
10
33.977764
20
5.481020
10
33.967683
20
5.479595
10
33.957610
20
5.478119
10
33.947544
20
5.476591
10
33.937486
20
5.475013
10
33.927436
20
5.473383
10
33.917395
20
5.471702
10
33.907362
20
5.469970
10
33.897339
20
5.468186
10
33.887324
20
5.466352
10
33.877319
20
5.464467
10
33.867324
20
5.462531
10
33.857339
20
5.460544
10
33.847364
20
5.458506
10
33.837399
20
5.456418
10
33.827445
20
5.454279
10
33.817503
20
5.452089
10
33.807571
20
5.449849
10
33.797651
20
5.447558
10
33.787743
20
5.445216
10
33.777847
20
5.442825
10
33.767963
20
5.440382
10
33.758092
20
5.437890
10
33.748233
20
5.435347
10
33.738388
20
5.432755
10
33.728556
20
5.430112
10
33.718738
20
5.427419
10
33.708933
20
5.424676
10
33.699143
20
5.421883
10
33.689366
20
5.419041
10
33.679605
20
5.416149
10
33.669858
20
5.413207
10
33.660126
20
5.410215
10
33.650410
20
5.407174
10
33.640709
20
5.404084
10
33.631025
20
5.400944
10
33.621356
20
5.397755
10
33.611704
20
5.394517
10
33.602068
20
5.391230
10
33.592449
20
5.387894
10
33.582847
20
5.384508
10
33.573263
20
5.381074
10
33.563696
20
5.377592
10
33.554147
20
5.374060
10
33.544616
20
5.370480
10
33.535104
20
5.366852
10
33.525610
20
5.363175
10
33.516135
20
5.359450
10
33.506679
20
5.355677
10
33.497242
20
5.351855
10
33.487825
20
5.347986
10
33.478428
20
5.344069
10
33.469051
20
5.340104
10
33.459694
20
5.336091
10
33.450357
20
5.332030
10
33.441042
20
5.327923
10
33.431747
20
5.323768
10
33.422474
20
5.319565
10
33.413222
20
5.315316
10
33.403992
20
5.311019
10
33.394784
20
5.306675
10
33.385599
20
5.302285
10
33.376435
20
5.297848
10
33.367295
20
5.293364
10
33.358177
20
5.288834
10
33.349083
20
5.284258
10
33.340011
20
5.279635
10
33.330964
20
5.274966
10
33.321941
20
5.270252
10
33.312941
20
5.265491
10
33.303966
20
5.260684
10
33.295016
20
5.255832
10
33.286090
20
5.250935
10
33.277189
20
5.245992
10
33.268314
20
5.241004
10
33.259464
20
5.235970
10
33.250640
20
5.230892
10
33.241842
20
5.225769
10
33.233070
20
5.220601
10
33.224325
20
5.215389
10
33.215606
20
5.210132
10
33.206914
20
5.204831
10
33.198249
20
5.199485
10
33.189611
20
5.194096
10
33.181001
20
5.188663
10
33.172419
20
5.183185
10
33.163865
20
5.177665
10
33.155339
20
5.172101
10
33.146841
20
5.166493
10
33.138372
20
5.160842
10
33.129932
20
5.155149
10
33.121521
20
5.149412
10
33.113139
20
5.143633
10
33.104787
20
5.137811
10
33.096465
20
5.131946
10
33.088172
20
5.126040
10
33.079910
20
5.120091
10
33.071678
20
5.114100
10
33.063477
20
5.108068
10
33.055306
20
5.101993
10
33.047167
20
5.095877
10
33.039059
20
5.089720
10
33.030982
20
5.083522
10
33.022937
20
5.077283
10
33.014924
20
5.071002
10
33.006943
20
5.064681
10
32.998994
20
5.058320
10
32.991077
20
5.051918
10
32.983194
20
5.045476
10
32.975343
20
5.038994
10
32.967525
20
5.032472
10
32.959741
20
5.025910
10
32.951990
20
5.019309
10
32.944273
20
5.012668
10
32.936589
20
5.005988
10
32.928940
20
4.999269
10
32.921325
20
4.992511
10
32.913745
20
4.985715
10
32.906199
20
4.978880
10
32.898689
20
4.972007
10
32.891213
20
4.965095
10
32.883772
20
4.958146
10
32.876367
20
4.951159
10
32.868998
20
4.944134
10
32.861665
20
4.937072
10
32.854367
20
4.929973
10
32.847106
20
4.922836
10
32.839881
20
4.915663
10
32.832693
20
4.908453
10
32.825542
20
4.901206
10
32.818428
20
4.893924
10
32.811350
20
4.886605
10
32.804311
20
4.879250
10
32.797308
20
4.871859
10
32.790344
20
4.864433
10
32.783417
20
4.856971
10
32.776528
20
4.849475
10
32.769678
20
4.841943
10
32.762866
20
4.834377
10
32.756093
20
4.826776
10
32.749358
20
4.819140
10
32.742663
20
4.811471
10
32.736006
20
4.803767
10
32.729389
20
4.796030
10
32.722811
20
4.788259
10
32.716273
20
4.780455
10
32.709775
20
4.772617
10
32.703317
20
4.764747
10
32.696899
20
4.756843
10
32.690521
20
4.748908
10
32.684183
20
4.740939
10
32.677887
20
4.732939
10
32.671631
20
4.724907
10
32.665416
20
4.716843
10
32.659242
20
4.708747
10
32.653110
20
4.700620
10
32.647019
20
4.692462
10
32.640969
20
4.684274
10
32.634962
20
4.676054
10
32.628996
20
4.667804
10
32.623072
20
4.659524
10
32.617191
20
4.651213
10
32.611352
20
4.642873
10
32.605555
20
4.634503
10
32.599801
20
4.626104
10
32.594090
20
4.617676
10
32.588422
20
4.609218
10
32.582797
20
4.600732
10
32.577216
20
4.592218
10
32.571677
20
4.583675
10
32.566183
20
4.575104
10
32.560732
20
4.566505
10
32.555325
20
4.557878
10
32.549962
20
4.549224
10
32.544643
20
4.540543
10
32.539368
20
4.531835
10
32.534137
20
4.523100
10
32.528952
20
4.514339
10
32.523810
20
4.505552
10
32.518714
20
4.496738
10
32.513663
20
4.487898
10
32.508656
20
4.479033
10
32.503695
20
4.470143
10
32.498779
20
4.461227
10
32.493909
20
4.452287
10
32.489084
20
4.443322
10
32.484305
20
4.434332
10
32.479572
20
4.425318
10
32.474884
20
4.416280
10
32.470243
20
4.407219
10
32.465648
20
4.398134
10
32.461099
20
4.389025
10
32.456597
20
4.379894
10
32.452141
20
4.370740
10
32.447732
20
4.361563
10
32.443369
20
4.352364
10
32.439054
20
4.343143
10
32.434785
20
4.333900
10
32.430564
20
4.324635
10
32.426390
20
4.315349
10
32.422263
20
4.306042
10
32.418183
20
4.296714
10
32.414151
20
4.287365
10
32.410167
20
4.277996
10
32.406231
20
4.268607
10
32.402342
20
4.259198
10
32.398501
20
4.249769
10
32.394709
20
4.240321
10
32.390964
20
4.230854
10
32.387268
20
4.221367
10
32.383620
20
4.211862
10
32.380020
20
4.202339
10
32.376469
20
4.192797
10
32.372967
20
4.183237
10
32.369513
20
4.173660
10
32.366108
20
4.164065
10
32.362752
20
4.154453
10
32.359445
20
4.144824
10
32.356187
20
4.135179
10
32.352979
20
4.125517
10
32.349819
20
4.115838
10
32.346709
20
4.106144
10
32.343648
20
4.096434
10
32.340637
20
4.086708
10
32.337675
20
4.076968
10
32.334762
20
4.067212
10
32.331900
20
4.057442
10
32.329087
20
4.047657
10
32.326324
20
4.037858
10
32.323611
20
4.028045
10
32.320948
20
4.018219
10
32.318335
20
4.008379
10
32.315772
20
3.998525
10
32.313260
20
3.988659
10
32.310797
20
3.978780
10
32.308385
20
3.968889
10
32.306024
20
3.958986
10
32.303712
20
3.949071
10
32.301452
20
3.939144
10
32.299241
20
3.929206
10
32.297082
20
3.919256
10
32.294973
20
3.909296
10
32.292915
20
3.899325
10
32.290907
20
3.889344
10
32.288951
20
3.879353
10
32.287045
20
3.869352
10
32.285191
20
3.859341
10
32.283387
20
3.849321
10
32.281634
20
3.839292
10
32.279932
20
3.829254
10
32.278282
20
3.819208
10
32.276683
20
3.809153
10
32.275134
20
3.799091
10
32.273638
20
3.789020
10
32.272192
20
3.778942
10
32.270798
20
3.768857
10
32.269455
20
3.758765
10
32.268163
20
3.748666
10
32.266923
20
3.738561
10
32.265734
20
3.728450
10
32.264597
20
3.718332
10
32.263512
20
3.708209
10
32.262477
20
3.698081
10
32.261495
20
3.687948
10
32.260564
20
3.677809
10
32.259685
20
3.667666
10
32.258857
20
3.657519
10
32.258081
20
3.647367
10
32.257357
20
3.637212
10
32.256684
20
3.627053
10
32.256063
20
3.616891
10
32.255494
20
3.606726
10
32.254976
20
3.596558
10
32.254511
20
3.586388
10
32.254097
20
3.576215
10
32.253735
20
3.566041
10
32.253425
20
3.555865
10
32.253166
20
3.545687
10
32.252959
20
3.535508
10
32.252805
20
3.525328
10
32.252702
20
3.515147
10
32.252650
20
3.504967
10
32.252651
20
3.494786
10
32.252703
20
3.484605
10
32.252808
20
3.474424
10
32.252964
20
3.464244
10
32.253172
20
3.454065
10
32.253432
20
3.443888
10
32.253743
20
3.433711
10
32.254106
20
3.423537
10
32.254522
20
3.413364
10
32.254988
20
3.403194
10
32.255507
20
3.393026
10
32.256078
20
3.382861
10
32.256700
20
3.372699
10
32.257374
20
3.362540
10
32.258099
20
3.352385
10
32.258876
20
3.342234
10
32.259705
20
3.332087
10
32.260586
20
3.321944
10
32.261518
20
3.311806
10
32.262502
20
3.301672
10
32.263537
20
3.291544
10
32.264624
20
3.281421
10
32.265763
20
3.271304
10
32.266953
20
3.261193
10
32.268194
20
3.251088
10
32.269487
20
3.240989
10
32.270831
20
3.230897
10
32.272227
20
3.220812
10
32.273673
20
3.210734
10
32.275172
20
3.200664
10
32.276721
20
3.190602
10
32.278322
20
3.180547
10
32.279973
20
3.170501
10
32.281676
20
3.160464
10
32.283430
20
3.150435
10
32.285235
20
3.140415
10
32.287091
20
3.130405
10
32.288998
20
3.120404
10
32.290956
20
3.110413
10
32.292964
20
3.100432
10
32.295024
20
3.090461
10
32.297134
20
3.080501
10
32.299295
20
3.070552
10
32.301506
20
3.060614
10
32.303768
20
3.050688
10
32.306080
20
3.040773
10
32.308443
20
3.030870
10
32.310857
20
3.020979
10
32.313320
20
3.011100
10
32.315834
20
3.001235
10
32.318398
20
2.991382
10
32.321012
20
2.981542
10
32.323677
20
2.971716
10
32.326391
20
2.961903
10
32.329155
20
2.952105
10
32.331969
20
2.942320
10
32.334833
20
2.932550
10
32.337746
20
2.922795
10
32.340709
20
2.913055
10
32.343722
20
2.903330
10
32.346784
20
2.893620
10
32.349895
20
2.883926
10
32.353056
20
2.874248
10
32.356266
20
2.864586
10
32.359525
20
2.854941
10
32.362834
20
2.845312
10
32.366191
20
2.835701
10
32.369597
20
2.826106
10
32.373052
20
2.816530
10
32.376555
20
2.806970
10
32.380107
20
2.797429
10
32.383708
20
2.787906
10
32.387357
20
2.778401
10
32.391055
20
2.768916
10
32.394800
20
2.759449
10
32.398594
20
2.750001
10
32.402436
20
2.740573
10
32.406326
20
2.731164
10
32.410264
20
2.721775
10
32.414249
20
2.712407
10
32.418282
20
2.703058
10
32.422363
20
2.693731
10
32.426491
20
2.684424
10
32.430666
20
2.675139
10
32.434889
20
2.665875
10
32.439158
20
2.656632
10
32.443475
20
2.647412
10
32.447839
20
2.638213
10
32.452249
20
2.629037
10
32.456706
20
2.619883
10
32.461209
20
2.610753
10
32.465759
20
2.601645
10
32.470355
20
2.592560
10
32.474998
20
2.583499
10
32.479686
20
2.574462
10
32.484421
20
2.565449
10
32.489201
20
2.556460
10
32.494027
20
2.547495
10
32.498898
20
2.538555
10
32.503815
20
2.529640
10
32.508778
20
2.520751
10
32.513785
20
2.511886
10
32.518838
20
2.503047
10
32.523935
20
2.494234
10
32.529077
20
2.485447
10
32.534264
20
2.476687
10
32.539496
20
2.467952
10
32.544772
20
2.459245
10
32.550092
20
2.450565
10
32.555456
20
2.441911
10
32.560864
20
2.433285
10
32.566316
20
2.424687
10
32.571812
20
2.416117
10
32.577351
20
2.407575
10
32.582934
20
2.399061
10
32.588560
20
2.390575
10
32.594229
20
2.382119
10
32.599941
20
2.373691
10
32.605696
20
2.365293
10
32.611493
20
2.356924
10
32.617333
20
2.348584
10
32.623216
20
2.340274
10
32.629141
20
2.331995
10
32.635107
20
2.323746
10
32.641116
20
2.315527
10
32.647167
20
2.307339
10
32.653259
20
2.299181
10
32.659392
20
2.291055
10
32.665567
20
2.282960
10
32.671783
20
2.274897
10
32.678040
20
2.266866
10
32.684337
20
2.258866
10
32.690676
20
2.250899
10
32.697054
20
2.242964
10
32.703473
20
2.235061
10
32.709933
20
2.227192
10
32.716432
20
2.219355
10
32.722971
20
2.211551
10
32.729550
20
2.203781
10
32.736168
20
2.196045
10
32.742825
20
2.188342
10
32.749522
20
2.180673
10
32.756257
20
2.173039
10
32.763032
20
2.165439
10
32.769844
20
2.157873
10
32.776696
20
2.150342
10
32.783585
20
2.142846
10
32.790513
20
2.135386
10
32.797478
20
2.127960
10
32.804482
20
2.120571
10
32.811522
20
2.113217
10
32.818600
20
2.105899
10
32.825716
20
2.098617
10
32.832868
20
2.091371
10
32.840057
20
2.084162
10
32.847283
20
2.076990
10
32.854545
20
2.069854
10
32.861843
20
2.062756
10
32.869177
20
2.055694
10
32.876547
20
2.048670
10
32.883953
20
2.041684
10
32.891394
20
2.034736
10
32.898871
20
2.027825
10
32.906383
20
2.020953
10
32.913929
20
2.014119
10
32.921510
20
2.007324
10
32.929126
20
2.000567
10
32.936776
20
1.993849
10
32.944460
20
1.987170
10
32.952178
20
1.980530
10
32.959930
20
1.973930
10
32.967715
20
1.967369
10
32.975534
20
1.960848
10
32.983385
20
1.954367
10
32.991270
20
1.947926
10
32.999187
20
1.941525
10
33.007137
20
1.935164
10
33.015119
20
1.928844
10
33.023133
20
1.922565
10
33.031178
20
1.916327
10
33.039256
20
1.910129
10
33.047365
20
1.903973
10
33.055505
20
1.897858
10
33.063676
20
1.891785
10
33.071878
20
1.885753
10
33.080111
20
1.879764
10
33.088374
20
1.873816
10
33.096667
20
1.867910
10
33.104990
20
1.862047
10
33.113343
20
1.856226
10
33.121725
20
1.850448
10
33.130137
20
1.844712
10
33.138578
20
1.839019
10
33.147048
20
1.833370
10
33.155546
20
1.827763
10
33.164073
20
1.822200
10
33.172628
20
1.816681
10
33.181211
20
1.811205
10
33.189821
20
1.805772
10
33.198459
20
1.800384
10
33.207125
20
1.795040
10
33.215818
20
1.789740
10
33.224537
20
1.784484
10
33.233283
20
1.779272
10
33.242056
20
1.774106
10
33.250855
20
1.768984
10
33.259679
20
1.763906
10
33.268530
20
1.758874
10
33.277406
20
1.753887
10
33.286307
20
1.748945
10
33.295233
20
1.744049
10
33.304184
20
1.739198
10
33.313160
20
1.734393
10
33.322160
20
1.729633
10
33.331184
20
1.724919
10
33.340232
20
1.720252
10
33.349304
20
1.715630
10
33.358399
20
1.711055
10
33.367517
20
1.706526
10
33.376658
20
1.702043
10
33.385822
20
1.697607
10
33.395008
20
1.693218
10
33.404217
20
1.688876
10
33.413447
20
1.684580
10
33.422700
20
1.680332
10
33.431973
20
1.676131
10
33.441268
20
1.671977
10
33.450584
20
1.667870
10
33.459921
20
1.663811
10
33.469279
20
1.659799
10
33.478656
20
1.655835
10
33.488054
20
1.651919
10
33.497472
20
1.648051
10
33.506909
20
1.644231
10
33.516365
20
1.640459
10
33.525841
20
1.636735
10
33.535335
20
1.633059
10
33.544848
20
1.629432
10
33.554379
20
1.625853
10
33.563929
20
1.622323
10
33.573496
20
1.618841
10
33.583081
20
1.615409
10
33.592683
20
1.612025
10
33.602302
20
1.608689
10
33.611938
20
1.605403
10
33.621591
20
1.602166
10
36.936255
20
0.500000
10
39.155277
20
0.500000
10
39.159872
20
0.514303
10
39.177511
20
0.563600
0
LWPOLYLINE
8
0
100
AcDbEntity
100
AcDbPolyline
90
723
70
1
10
7.464488
20
0.500000
10
3.574318
20
4.835665
10
3.567500
20
4.843226
10
3.560643
20
4.850751
10
3.553748
20
4.858242
10
3.546815
20
4.865698
10
3.539844
20
4.873118
10
3.532835
20
4.880502
10
3.525789
20
4.887851
10
3.518705
20
4.895164
10
3.511585
20
4.902441
10
3.504427
20
4.909681
10
3.497233
20
4.916885
10
3.490002
20
4.924052
10
3.482734
20
4.931182
10
3.475431
20
4.938275
10
3.468091
20
4.945331
10
3.460716
20
4.952349
10
3.453305
20
4.959330
10
3.445858
20
4.966273
10
3.438377
20
4.973178
10
3.430860
20
4.980044
10
3.423308
20
4.986873
10
3.415722
20
4.993663
10
3.408102
20
5.000414
10
3.400447
20
5.007126
10
3.392757
20
5.013799
10
3.385035
20
5.020433
10
3.377278
20
5.027028
10
3.369488
20
5.033583
10
3.361665
20
5.040098
10
3.353808
20
5.046574
10
3.345919
20
5.053009
10
3.337997
20
5.059404
10
3.330043
20
5.065758
10
3.322056
20
5.072073
10
3.314037
20
5.078346
10
3.305987
20
5.084578
10
3.297905
20
5.090770
10
3.289791
20
5.096920
10
3.281646
20
5.103029
10
3.273471
20
5.109096
10
3.265264
20
5.115121
10
3.257027
20
5.121105
10
3.248760
20
5.127047
10
3.240462
20
5.132946
10
3.232135
20
5.138803
10
3.223778
20
5.144618
10
3.215391
20
5.150390
10
3.206975
20
5.156119
10
3.198530
20
5.161806
10
3.190056
20
5.167449
10
3.181554
20
5.173049
10
3.173023
20
5.178606
10
3.164464
20
5.184119
10
3.155877
20
5.189589
10
3.147262
20
5.195015
10
3.138620
20
5.200397
10
3.129950
20
5.205735
10
3.121254
20
5.211028
10
3.112530
20
5.216278
10
3.103780
20
5.221483
10
3.095004
20
5.226643
10
3.086201
20
5.231758
10
3.077373
20
5.236829
10
3.068519
20
5.241855
10
3.059639
20
5.246835
10
3.050734
20
5.251770
10
3.041804
20
5.256660
10
3.032850
20
5.261505
10
3.023870
20
5.266303
10
3.014867
20
5.271056
10
3.005839
20
5.275763
10
2.996788
20
5.280424
10
2.987713
20
5.285039
10
2.978614
20
5.289608
10
2.969493
20
5.294130
10
2.960348
20
5.298606
10
2.951181
20
5.303035
10
2.941992
20
5.307417
10
2.932780
20
5.311753
10
2.923546
20
5.316041
10
2.914291
20
5.320283
10
2.905014
20
5.324477
10
2.895716
20
5.328624
10
2.886397
20
5.332724
10
2.877057
20
5.336776
10
2.867697
20
5.340781
10
2.858316
20
5.344738
10
2.848915
20
5.348647
10
2.839495
20
5.352508
10
2.830055
20
5.356321
10
2.820596
20
5.360086
10
2.811117
20
5.363803
10
2.801620
20
5.367472
10
2.792105
20
5.371092
10
2.782571
20
5.374664
10
2.773019
20
5.378187
10
2.763449
20
5.381661
10
2.753861
20
5.385087
10
2.744257
20
5.388464
10
2.734635
20
5.391792
10
2.724996
20
5.395071
10
2.715341
20
5.398301
10
2.705670
20
5.401481
10
2.695982
20
5.404613
10
2.686279
20
5.407695
10
2.676560
20
5.410727
10
2.666826
20
5.413710
10
2.657077
20
5.416644
10
2.647313
20
5.419528
10
2.637534
20
5.422362
10
2.627741
20
5.425146
10
2.617934
20
5.427880
10
2.608113
20
5.430565
10
2.598279
20
5.433199
10
2.588431
20
5.435783
10
2.578571
20
5.438317
10
2.568697
20
5.440801
10
2.558811
20
5.443235
10
2.548913
20
5.445618
10
2.539003
20
5.447951
10
2.529081
20
5.450233
10
2.519148
20
5.452465
10
2.509203
20
5.454646
10
2.499248
20
5.456777
10
2.489281
20
5.458856
10
2.479304
20
5.460885
10
2.469317
20
5.462864
10
2.459321
20
5.464791
10
2.449314
20
5.466668
10
2.439298
20
5.468493
10
2.429273
20
5.470268
10
2.419239
20
5.471991
10
2.409196
20
5.473663
10
2.399145
20
5.475285
10
2.389085
20
5.476855
10
2.379018
20
5.478373
10
2.368944
20
5.479841
10
2.358862
20
5.481257
10
2.348773
20
5.482622
10
2.338677
20
5.483936
10
2.328574
20
5.485198
10
2.318465
20
5.486408
10
2.308350
20
5.487568
10
2.298230
20
5.488675
10
2.288104
20
5.489731
10
2.277972
20
5.490736
10
2.267836
20
5.491689
10
2.257695
20
5.492590
10
2.247550
20
5.493440
10
2.237400
20
5.494238
10
2.227246
20
5.494985
10
2.217089
20
5.495679
10
2.206928
20
5.496322
10
2.196764
20
5.496914
10
2.186598
20
5.497453
10
2.176428
20
5.497941
10
2.166257
20
5.498377
10
2.156083
20
5.498761
10
2.145907
20
5.499093
10
2.135730
20
5.499374
10
2.125552
20
5.499603
10
2.115372
20
5.499780
10
2.105192
20
5.499905
10
2.095011
20
5.499978
10
2.084830
20
5.500000
10
2.074649
20
5.499969
10
2.064468
20
5.499887
10
2.054288
20
5.499753
10
2.044109
20
5.499568
10
2.033931
20
5.499330
10
2.023754
20
5.499041
10
2.013578
20
5.498699
10
2.003405
20
5.498306
10
1.993234
20
5.497862
10
1.983065
20
5.497365
10
1.972898
20
5.496817
10
1.962735
20
5.496217
10
1.952575
20
5.495565
10
1.942418
20
5.494861
10
1.932265
20
5.494106
10
1.922116
20
5.493299
10
1.911972
20
5.492441
10
1.901831
20
5.491531
10
1.891696
20
5.490569
10
1.881565
20
5.489555
10
1.871440
20
5.488491
10
1.861320
20
5.487374
10
1.851207
20
5.486206
10
1.841099
20
5.484987
10
1.830997
20
5.483716
10
1.820903
20
5.482394
10
1.810815
20
5.481020
10
1.800734
20
5.479595
10
1.790660
20
5.478119
10
1.780595
20
5.476591
10
1.770537
20
5.475013
10
1.760487
20
5.473383
10
1.750446
20
5.471702
10
1.740413
20
5.469970
10
1.730390
20
5.468186
10
1.720375
20
5.466352
10
1.710370
20
5.464467
10
1.700375
20
5.462531
10
1.690390
20
5.460544
10
1.680415
20
5.458506
10
1.670450
20
5.456418
10
1.660496
20
5.454279
10
1.650554
20
5.452089
10
1.640622
20
5.449849
10
1.630702
20
5.447558
10
1.620794
20
5.445216
10
1.610898
20
5.442825
10
1.601014
20
5.440382
10
1.591143
20
5.437890
10
1.581284
20
5.435347
10
1.571439
20
5.432755
10
1.561607
20
5.430112
10
1.551789
20
5.427419
10
1.541984
20
5.424676
10
1.532194
20
5.421883
10
1.522417
20
5.419041
10
1.512656
20
5.416149
10
1.502909
20
5.413207
10
1.493177
20
5.410215
10
1.483461
20
5.407174
10
1.473760
20
5.404084
10
1.464076
20
5.400944
10
1.454407
20
5.397755
10
1.444755
20
5.394517
10
1.435119
20
5.391230
10
1.425500
20
5.387894
10
1.415898
20
5.384508
10
1.406314
20
5.381074
10
1.396747
20
5.377592
10
1.387198
20
5.374060
10
1.377667
20
5.370480
10
1.368155
20
5.366852
10
1.358661
20
5.363175
10
1.349186
20
5.359450
10
1.339730
20
5.355677
10
1.330293
20
5.351855
10
1.320876
20
5.347986
10
1.311479
20
5.344069
10
1.302102
20
5.340104
10
1.292745
20
5.336091
10
1.283408
20
5.332030
10
1.274093
20
5.327923
10
1.264798
20
5.323768
10
1.255525
20
5.319565
10
1.246273
20
5.315316
10
1.237043
20
5.311019
10
1.227835
20
5.306675
10
1.218650
20
5.302285
10
1.209486
20
5.297848
10
1.200346
20
5.293364
10
1.191228
20
5.288834
10
1.182134
20
5.284258
10
1.173062
20
5.279635
10
1.164015
20
5.274966
10
1.154992
20
5.270252
10
1.145992
20
5.265491
10
1.137017
20
5.260684
10
1.128067
20
5.255832
10
1.119141
20
5.250935
10
1.110240
20
5.245992
10
1.101365
20
5.241004
10
1.092515
20
5.235970
10
1.083691
20
5.230892
10
1.074893
20
5.225769
10
1.066121
20
5.220601
10
1.057376
20
5.215389
10
1.048657
20
5.210132
10
1.039965
20
5.204831
10
1.031300
20
5.199485
10
1.022662
20
5.194096
10
1.014052
20
5.188663
10
1.005470
20
5.183185
10
0.996916
20
5.177665
10
0.988390
20
5.172101
10
0.979892
20
5.166493
10
0.971423
20
5.160842
10
0.962983
20
5.155149
10
0.954572
20
5.149412
10
0.946190
20
5.143633
10
0.937838
20
5.137811
10
0.929516
20
5.131946
10
0.921223
20
5.126040
10
0.912961
20
5.120091
10
0.904729
20
5.114100
10
0.896528
20
5.108068
10
0.888357
20
5.101993
10
0.880218
20
5.095877
10
0.872110
20
5.089720
10
0.864033
20
5.083522
10
0.855988
20
5.077283
10
0.847975
20
5.071002
10
0.839994
20
5.064681
10
0.832045
20
5.058320
10
0.824128
20
5.051918
10
0.816245
20
5.045476
10
0.808394
20
5.038994
10
0.800576
20
5.032472
10
0.792792
20
5.025910
10
0.785041
20
5.019309
10
0.777324
20
5.012668
10
0.769640
20
5.005988
10
0.761991
20
4.999269
10
0.754376
20
4.992511
10
0.746796
20
4.985715
10
0.739250
20
4.978880
10
0.731740
20
4.972007
10
0.724264
20
4.965095
10
0.716823
20
4.958146
10
0.709418
20
4.951159
10
0.702049
20
4.944134
10
0.694716
20
4.937072
10
0.687418
20
4.929973
10
0.680157
20
4.922836
10
0.672932
20
4.915663
10
0.665744
20
4.908453
10
0.658593
20
4.901206
10
0.651479
20
4.893924
10
0.644401
20
4.886605
10
0.637362
20
4.879250
10
0.630359
20
4.871859
10
0.623395
20
4.864433
10
0.616468
20
4.856971
10
0.609579
20
4.849475
10
0.602729
20
4.841943
10
0.595917
20
4.834377
10
0.589144
20
4.826776
10
0.582409
20
4.819140
10
0.575714
20
4.811471
10
0.569057
20
4.803767
10
0.562440
20
4.796030
10
0.555862
20
4.788259
10
0.549324
20
4.780455
10
0.542826
20
4.772617
10
0.536368
20
4.764747
10
0.529950
20
4.756843
10
0.523572
20
4.748908
10
0.517234
20
4.740939
10
0.510938
20
4.732939
10
0.504682
20
4.724907
10
0.498467
20
4.716843
10
0.492293
20
4.708747
10
0.486161
20
4.700620
10
0.480070
20
4.692462
10
0.474020
20
4.684274
10
0.468013
20
4.676054
10
0.462047
20
4.667804
10
0.456123
20
4.659524
10
0.450242
20
4.651213
10
0.444403
20
4.642873
10
0.438606
20
4.634503
10
0.432852
20
4.626104
10
0.427141
20
4.617676
10
0.421473
20
4.609218
10
0.415848
20
4.600732
10
0.410267
20
4.592218
10
0.404728
20
4.583675
10
0.399234
20
4.575104
10
0.393783
20
4.566505
10
0.388376
20
4.557878
10
0.383013
20
4.549224
10
0.377694
20
4.540543
10
0.372419
20
4.531835
10
0.367188
20
4.523100
10
0.362003
20
4.514339
10
0.356861
20
4.505552
10
0.351765
20
4.496738
10
0.346714
20
4.487898
10
0.341707
20
4.479033
10
0.336746
20
4.470143
10
0.331830
20
4.461227
10
0.326960
20
4.452287
10
0.322135
20
4.443322
10
0.317356
20
4.434332
10
0.312623
20
4.425318
10
0.307935
20
4.416280
10
0.303294
20
4.407219
10
0.298699
20
4.398134
10
0.294150
20
4.389025
10
0.289648
20
4.379894
10
0.285192
20
4.370740
10
0.280783
20
4.361563
10
0.276420
20
4.352364
10
0.272105
20
4.343143
10
0.267836
20
4.333900
10
0.263615
20
4.324635
10
0.259441
20
4.315349
10
0.255314
20
4.306042
10
0.251234
20
4.296714
10
0.247202
20
4.287365
10
0.243218
20
4.277996
10
0.239282
20
4.268607
10
0.235393
20
4.259198
10
0.231552
20
4.249769
10
0.227760
20
4.240321
10
0.224015
20
4.230854
10
0.220319
20
4.221367
10
0.216671
20
4.211862
10
0.213071
20
4.202339
10
0.209520
20
4.192797
10
0.206018
20
4.183237
10
0.202564
20
4.173660
10
0.199159
20
4.164065
10
0.195803
20
4.154453
10
0.192496
20
4.144824
10
0.189238
20
4.135179
10
0.186030
20
4.125517
10
0.182870
20
4.115838
10
0.179760
20
4.106144
10
0.176699
20
4.096434
10
0.173688
20
4.086708
10
0.170726
20
4.076968
10
0.167813
20
4.067212
10
0.164951
20
4.057442
10
0.162138
20
4.047657
10
0.159375
20
4.037858
10
0.156662
20
4.028045
10
0.153999
20
4.018219
10
0.151386
20
4.008379
10
0.148823
20
3.998525
10
0.146311
20
3.988659
10
0.143848
20
3.978780
10
0.141436
20
3.968889
10
0.139075
20
3.958986
10
0.136763
20
3.949071
10
0.134503
20
3.939144
10
0.132292
20
3.929206
10
0.130133
20
3.919256
10
0.128024
20
3.909296
10
0.125966
20
3.899325
10
0.123958
20
3.889344
10
0.122002
20
3.879353
10
0.120096
20
3.869352
10
0.118242
20
3.859341
10
0.116438
20
3.849321
10
0.114685
20
3.839292
10
0.112983
20
3.829254
10
0.111333
20
3.819208
10
0.109734
20
3.809153
10
0.108185
20
3.799091
10
0.106689
20
3.789020
10
0.105243
20
3.778942
10
0.103849
20
3.768857
10
0.102506
20
3.758765
10
0.101214
20
3.748666
10
0.099974
20
3.738561
10
0.098785
20
3.728450
10
0.097648
20
3.718332
10
0.096563
20
3.708209
10
0.095528
20
3.698081
10
0.094546
20
3.687948
10
0.093615
20
3.677809
10
0.092736
20
3.667666
10
0.091908
20
3.657519
10
0.091132
20
3.647367
10
0.090408
20
3.637212
10
0.089735
20
3.627053
10
0.089114
20
3.616891
10
0.088545
20
3.606726
10
0.088027
20
3.596558
10
0.087562
20
3.586388
10
0.087148
20
3.576215
10
0.086786
20
3.566041
10
0.086476
20
3.555865
10
0.086217
20
3.545687
10
0.086010
20
3.535508
10
0.085856
20
3.525328
10
0.085753
20
3.515147
10
0.085701
20
3.504967
10
0.085702
20
3.494786
10
0.085754
20
3.484605
10
0.085859
20
3.474424
10
0.086015
20
3.464244
10
0.086223
20
3.454065
10
0.086483
20
3.443888
10
0.086794
20
3.433711
10
0.087157
20
3.423537
10
0.087573
20
3.413364
10
0.088039
20
3.403194
10
0.088558
20
3.393026
10
0.089129
20
3.382861
10
0.089751
20
3.372699
10
0.090425
20
3.362540
10
0.091150
20
3.352385
10
0.091927
20
3.342234
10
0.092756
20
3.332087
10
0.093637
20
3.321944
10
0.094569
20
3.311806
10
0.095553
20
3.301672
10
0.096588
20
3.291544
10
0.097675
20
3.281421
10
0.098814
20
3.271304
10
0.100004
20
3.261193
10
0.101245
20
3.251088
10
0.102538
20
3.240989
10
0.103882
20
3.230897
10
0.105278
20
3.220812
10
0.106724
20
3.210734
10
0.108223
20
3.200664
10
0.109772
20
3.190602
10
0.111373
20
3.180547
10
0.113024
20
3.170501
10
0.114727
20
3.160464
10
0.116481
20
3.150435
10
0.118286
20
3.140415
10
0.120142
20
3.130405
10
0.122049
20
3.120404
10
0.124007
20
3.110413
10
0.126015
20
3.100432
10
0.128075
20
3.090461
10
0.130185
20
3.080501
10
0.132346
20
3.070552
10
0.134557
20
3.060614
10
0.136819
20
3.050688
10
0.139131
20
3.040773
10
0.141494
20
3.030870
10
0.143908
20
3.020979
10
0.146371
20
3.011100
10
0.148885
20
3.001235
10
0.151449
20
2.991382
10
0.154063
20
2.981542
10
0.156728
20
2.971716
10
0.159442
20
2.961903
10
0.162206
20
2.952105
10
0.165020
20
2.942320
10
0.167884
20
2.932550
10
0.170797
20
2.922795
10
0.173760
20
2.913055
10
0.176773
20
2.903330
10
0.179835
20
2.893620
10
0.182946
20
2.883926
10
0.186107
20
2.874248
10
0.189317
20
2.864586
10
0.192576
20
2.854941
10
0.195885
20
2.845312
10
0.199242
20
2.835701
10
0.202648
20
2.826106
10
0.206103
20
2.816530
10
0.209606
20
2.806970
10
0.213158
20
2.797429
10
0.216759
20
2.787906
10
0.220408
20
2.778401
10
0.224106
20
2.768916
10
0.227851
20
2.759449
10
0.231645
20
2.750001
10
0.235487
20
2.740573
10
0.239377
20
2.731164
10
0.243315
20
2.721775
10
0.247300
20
2.712407
10
0.251333
20
2.703058
10
0.255414
20
2.693731
10
0.259542
20
2.684424
10
0.263717
20
2.675139
10
0.267940
20
2.665875
10
0.272209
20
2.656632
10
0.276526
20
2.647412
10
0.280890
20
2.638213
10
0.285300
20
2.629037
10
0.289757
20
2.619883
10
0.294260
20
2.610753
10
0.298810
20
2.601645
10
0.303406
20
2.592560
10
0.308049
20
2.583499
10
0.312737
20
2.574462
10
0.317472
20
2.565449
10
0.322252
20
2.556460
10
0.327078
20
2.547495
10
0.331949
20
2.538555
10
0.336866
20
2.529640
10
0.341829
20
2.520751
10
0.346836
20
2.511886
10
0.351889
20
2.503047
10
0.356986
20
2.494234
10
0.362128
20
2.485447
10
0.367315
20
2.476687
10
0.372547
20
2.467952
10
0.377823
20
2.459245
10
0.383143
20
2.450565
10
0.388507
20
2.441911
10
0.393915
20
2.433285
10
0.399367
20
2.424687
10
0.404863
20
2.416117
10
0.410402
20
2.407575
10
0.415985
20
2.399061
10
0.421611
20
2.390575
10
0.427280
20
2.382119
10
0.432992
20
2.373691
10
0.438747
20
2.365293
10
0.444544
20
2.356924
10
0.450384
20
2.348584
10
0.456267
20
2.340274
10
0.462192
20
2.331995
10
0.468158
20
2.323746
10
0.474167
20
2.315527
10
0.480217
20
2.307339
10
0.486310
20
2.299181
10
0.492443
20
2.291055
10
0.498618
20
2.282960
10
0.504834
20
2.274897
10
0.511091
20
2.266866
10
0.517388
20
2.258866
10
0.523727
20
2.250899
10
0.530105
20
2.242964
10
0.536524
20
2.235061
10
0.542984
20
2.227192
10
0.549483
20
2.219355
10
0.556022
20
2.211551
10
0.562601
20
2.203781
10
0.569219
20
2.196045
10
0.575876
20
2.188342
10
0.582573
20
2.180673
10
0.589308
20
2.173039
10
0.596082
20
2.165439
10
0.602895
20
2.157873
10
0.609747
20
2.150342
10
0.616636
20
2.142846
10
0.623564
20
2.135386
10
0.630529
20
2.127960
10
0.637533
20
2.120571
10
0.644573
20
2.113217
10
0.651651
20
2.105899
10
0.658767
20
2.098617
10
0.665919
20
2.091371
10
0.673108
20
2.084162
10
0.680334
20
2.076990
10
0.687596
20
2.069854
10
0.694894
20
2.062756
10
0.702228
20
2.055694
10
0.709598
20
2.048670
10
0.717004
20
2.041684
10
0.724445
20
2.034736
10
0.731922
20
2.027825
10
0.739434
20
2.020953
10
0.746980
20
2.014119
10
0.754561
20
2.007324
10
0.762177
20
2.000567
10
0.769827
20
1.993849
10
0.777511
20
1.987170
10
0.785229
20
1.980530
10
0.792981
20
1.973930
10
0.800766
20
1.967369
10
0.808585
20
1.960848
10
0.816436
20
1.954367
10
0.824321
20
1.947926
10
0.832238
20
1.941525
10
0.840188
20
1.935164
10
0.848170
20
1.928844
10
0.856184
20
1.922565
10
0.864229
20
1.916327
10
0.872307
20
1.910129
10
0.880416
20
1.903973
10
0.888556
20
1.897858
10
0.896727
20
1.891785
10
0.904929
20
1.885753
10
0.913162
20
1.879764
10
0.921425
20
1.873816
10
0.929718
20
1.867910
10
0.938041
20
1.862047
10
0.946394
20
1.856226
10
0.954776
20
1.850448
10
0.963188
20
1.844712
10
0.971629
20
1.839019
10
0.980099
20
1.833370
10
0.988597
20
1.827763
10
0.997124
20
1.822200
10
1.005679
20
1.816681
10
1.014262
20
1.811205
10
1.022872
20
1.805772
10
1.031510
20
1.800384
10
1.040176
20
1.795040
10
1.048869
20
1.789740
10
1.057588
20
1.784484
10
1.066334
20
1.779272
10
1.075107
20
1.774106
10
1.083906
20
1.768984
10
1.092730
20
1.763906
10
1.101581
20
1.758874
10
1.110457
20
1.753887
10
1.119358
20
1.748945
10
1.128284
20
1.744049
10
1.137235
20
1.739198
10
1.146211
20
1.734393
10
1.155211
20
1.729633
10
1.164235
20
1.724919
10
1.173283
20
1.720252
10
1.182355
20
1.715630
10
1.191450
20
1.711055
10
1.200568
20
1.706526
10
1.209709
20
1.702043
10
1.218873
20
1.697607
10
1.228059
20
1.693218
10
1.237268
20
1.688876
10
1.246498
20
1.684580
10
1.255751
20
1.680332
10
1.265024
20
1.676131
10
1.274319
20
1.671977
10
1.283635
20
1.667870
10
1.292972
20
1.663811
10
1.302330
20
1.659799
10
1.311707
20
1.655835
10
1.321105
20
1.651919
10
1.330523
20
1.648051
10
1.339960
20
1.644231
10
1.349416
20
1.640459
10
1.358892
20
1.636735
10
1.368386
20
1.633059
10
1.377899
20
1.629432
10
1.387430
20
1.625853
10
1.396980
20
1.622323
10
1.406547
20
1.618841
10
1.416132
20
1.615409
10
1.425734
20
1.612025
10
1.435353
20
1.608689
10
1.444989
20
1.605403
10
1.454642
20
1.602166
10
4.769306
20
0.500000
10
7.464488
20
0.500000
0
LWPOLYLINE
8
0
100
AcDbEntity
100
AcDbPolyline
90
723
70
1
10
18.186804
20
0.500000
10
14.296635
20
4.835665
10
14.289816
20
4.843226
10
14.282959
20
4.850751
10
14.276064
20
4.858242
10
14.269131
20
4.865698
10
14.262160
20
4.873118
10
14.255151
20
4.880502
10
14.248105
20
4.887851
10
14.241022
20
4.895164
10
14.233901
20
4.902441
10
14.226743
20
4.909681
10
14.219549
20
4.916885
10
14.212318
20
4.924052
10
14.205051
20
4.931182
10
14.197747
20
4.938275
10
14.190408
20
4.945331
10
14.183032
20
4.952349
10
14.175621
20
4.959330
10
14.168175
20
4.966273
10
14.160693
20
4.973178
10
14.153176
20
4.980044
10
14.145625
20
4.986873
10
14.138039
20
4.993663
10
14.130418
20
5.000414
10
14.122763
20
5.007126
10
14.115074
20
5.013799
10
14.107351
20
5.020433
10
14.099594
20
5.027028
10
14.091804
20
5.033583
10
14.083981
20
5.040098
10
14.076124
20
5.046574
10
14.068235
20
5.053009
10
14.060313
20
5.059404
10
14.052359
20
5.065758
10
14.044372
20
5.072073
10
14.036354
20
5.078346
10
14.028303
20
5.084578
10
14.020221
20
5.090770
10
14.012108
20
5.096920
10
14.003963
20
5.103029
10
13.995787
20
5.109096
10
13.987581
20
5.115121
10
13.979344
20
5.121105
10
13.971076
20
5.127047
10
13.962779
20
5.132946
10
13.954451
20
5.138803
10
13.946094
20
5.144618
10
13.937707
20
5.150390
10
13.929291
20
5.156119
10
13.920846
20
5.161806
10
13.912372
20
5.167449
10
13.903870
20
5.173049
10
13.895339
20
5.178606
10
13.886780
20
5.184119
10
13.878193
20
5.189589
10
13.869578
20
5.195015
10
13.860936
20
5.200397
10
13.852267
20
5.205735
10
13.843570
20
5.211028
10
13.834847
20
5.216278
10
13.826097
20
5.221483
10
13.817320
20
5.226643
10
13.808518
20
5.231758
10
13.799689
20
5.236829
10
13.790835
20
5.241855
10
13.781955
20
5.246835
10
13.773051
20
5.251770
10
13.764121
20
5.256660
10
13.755166
20
5.261505
10
13.746187
20
5.266303
10
13.737183
20
5.271056
10
13.728156
20
5.275763
10
13.719104
20
5.280424
10
13.710029
20
5.285039
10
13.700931
20
5.289608
10
13.691809
20
5.294130
10
13.682665
20
5.298606
10
13.673498
20
5.303035
10
13.664308
20
5.307417
10
13.655096
20
5.311753
10
13.645863
20
5.316041
10
13.636607
20
5.320283
10
13.627330
20
5.324477
10
13.618032
20
5.328624
10
13.608713
20
5.332724
10
13.599373
20
5.336776
10
13.590013
20
5.340781
10
13.580632
20
5.344738
10
13.571232
20
5.348647
10
13.561811
20
5.352508
10
13.552371
20
5.356321
10
13.542912
20
5.360086
10
13.533434
20
5.363803
10
13.523937
20
5.367472
10
13.514421
20
5.371092
10
13.504887
20
5.374664
10
13.495335
20
5.378187
10
13.485765
20
5.381661
10
13.476178
20
5.385087
10
13.466573
20
5.388464
10
13.456951
20
5.391792
10
13.447313
20
5.395071
10
13.437658
20
5.398301
10
13.427986
20
5.401481
10
13.418299
20
5.404613
10
13.408595
20
5.407695
10
13.398876
20
5.410727
10
13.389142
20
5.413710
10
13.379393
20
5.416644
10
13.369629
20
5.419528
10
13.359850
20
5.422362
10
13.350057
20
5.425146
10
13.340250
20
5.427880
10
13.330430
20
5.430565
10
13.320595
20
5.433199
10
13.310748
20
5.435783
10
13.300887
20
5.438317
10
13.291014
20
5.440801
10
13.281128
20
5.443235
10
13.271230
20
5.445618
10
13.261319
20
5.447951
10
13.251398
20
5.450233
10
13.241464
20
5.452465
10
13.231520
20
5.454646
10
13.221564
20
5.456777
10
13.211598
20
5.458856
10
13.201621
20
5.460885
10
13.191634
20
5.462864
10
13.181637
20
5.464791
10
13.171630
20
5.466668
10
13.161614
20
5.468493
10
13.151589
20
5.470268
10
13.141555
20
5.471991
10
13.131512
20
5.473663
10
13.121461
20
5.475285
10
13.111402
20
5.476855
10
13.101335
20
5.478373
10
13.091260
20
5.479841
10
13.081178
20
5.481257
10
13.071089
20
5.482622
10
13.060993
20
5.483936
10
13.050890
20
5.485198
10
13.040782
20
5.486408
10
13.030667
20
5.487568
10
13.020546
20
5.488675
10
13.010420
20
5.489731
10
13.000289
20
5.490736
10
12.990152
20
5.491689
10
12.980011
20
5.492590
10
12.969866
20
5.493440
10
12.959716
20
5.494238
10
12.949563
20
5.494985
10
12.939405
20
5.495679
10
12.929245
20
5.496322
10
12.919081
20
5.496914
10
12.908914
20
5.497453
10
12.898745
20
5.497941
10
12.888573
20
5.498377
10
12.878399
20
5.498761
10
12.868224
20
5.499093
10
12.858046
20
5.499374
10
12.847868
20
5.499603
10
12.837688
20
5.499780
10
12.827508
20
5.499905
10
12.817327
20
5.499978
10
12.807146
20
5.500000
10
12.796965
20
5.499969
10
12.786785
20
5.499887
10
12.776605
20
5.499753
10
12.766425
20
5.499568
10
12.756247
20
5.499330
10
12.746070
20
5.499041
10
12.735895
20
5.498699
10
12.725721
20
5.498306
10
12.715550
20
5.497862
10
12.705381
20
5.497365
10
12.695215
20
5.496817
10
12.685051
20
5.496217
10
12.674891
20
5.495565
10
12.664735
20
5.494861
10
12.654582
20
5.494106
10
12.644433
20
5.493299
10
12.634288
20
5.492441
10
12.624148
20
5.491531
10
12.614012
20
5.490569
10
12.603882
20
5.489555
10
12.593756
20
5.488491
10
12.583637
20
5.487374
10
12.573523
20
5.486206
10
12.563415
20
5.484987
10
12.553314
20
5.483716
10
12.543219
20
5.482394
10
12.533131
20
5.481020
10
12.523050
20
5.479595
10
12.512977
20
5.478119
10
12.502911
20
5.476591
10
12.492853
20
5.475013
10
12.482803
20
5.473383
10
12.472762
20
5.471702
10
12.462730
20
5.469970
10
12.452706
20
5.468186
10
12.442691
20
5.466352
10
12.432686
20
5.464467
10
12.422691
20
5.462531
10
12.412706
20
5.460544
10
12.402731
20
5.458506
10
12.392766
20
5.456418
10
12.382813
20
5.454279
10
12.372870
20
5.452089
10
12.362938
20
5.449849
10
12.353018
20
5.447558
10
12.343110
20
5.445216
10
12.333214
20
5.442825
10
12.323330
20
5.440382
10
12.313459
20
5.437890
10
12.303601
20
5.435347
10
12.293755
20
5.432755
10
12.283923
20
5.430112
10
12.274105
20
5.427419
10
12.264300
20
5.424676
10
12.254510
20
5.421883
10
12.244734
20
5.419041
10
12.234972
20
5.416149
10
12.225225
20
5.413207
10
12.215494
20
5.410215
10
12.205777
20
5.407174
10
12.196077
20
5.404084
10
12.186392
20
5.400944
10
12.176723
20
5.397755
10
12.167071
20
5.394517
10
12.157435
20
5.391230
10
12.147816
20
5.387894
10
12.138215
20
5.384508
10
12.128630
20
5.381074
10
12.119063
20
5.377592
10
12.109514
20
5.374060
10
12.099984
20
5.370480
10
12.090471
20
5.366852
10
12.080977
20
5.363175
10
12.071502
20
5.359450
10
12.062046
20
5.355677
10
12.052609
20
5.351855
10
12.043192
20
5.347986
10
12.033795
20
5.344069
10
12.024418
20
5.340104
10
12.015061
20
5.336091
10
12.005725
20
5.332030
10
11.996409
20
5.327923
10
11.987115
20
5.323768
10
11.977841
20
5.319565
10
11.968590
20
5.315316
10
11.959360
20
5.311019
10
11.950152
20
5.306675
10
11.940966
20
5.302285
10
11.931803
20
5.297848
10
11.922662
20
5.293364
10
11.913544
20
5.288834
10
11.904450
20
5.284258
10
11.895379
20
5.279635
10
11.886331
20
5.274966
10
11.877308
20
5.270252
10
11.868308
20
5.265491
10
11.859333
20
5.260684
10
11.850383
20
5.255832
10
11.841457
20
5.250935
10
11.832557
20
5.245992
10
11.823681
20
5.241004
10
11.814832
20
5.235970
10
11.806007
20
5.230892
10
11.797209
20
5.225769
10
11.788437
20
5.220601
10
11.779692
20
5.215389
10
11.770973
20
5.210132
10
11.762281
20
5.204831
10
11.753616
20
5.199485
10
11.744979
20
5.194096
10
11.736369
20
5.188663
10
11.727786
20
5.183185
10
11.719232
20
5.177665
10
11.710706
20
5.172101
10
11.702208
20
5.166493
10
11.693739
20
5.160842
10
11.685299
20
5.155149
10
11.676888
20
5.149412
10
11.668507
20
5.143633
10
11.660155
20
5.137811
10
11.651832
20
5.131946
10
11.643540
20
5.126040
10
11.635277
20
5.120091
10
11.627046
20
5.114100
10
11.618844
20
5.108068
10
11.610674
20
5.101993
10
11.602534
20
5.095877
10
11.594426
20
5.089720
10
11.586349
20
5.083522
10
11.578304
20
5.077283
10
11.570291
20
5.071002
10
11.562310
20
5.064681
10
11.554361
20
5.058320
10
11.546445
20
5.051918
10
11.538561
20
5.045476
10
11.530710
20
5.038994
10
11.522893
20
5.032472
10
11.515108
20
5.025910
10
11.507357
20
5.019309
10
11.499640
20
5.012668
10
11.491957
20
5.005988
10
11.484308
20
4.999269
10
11.476693
20
4.992511
10
11.469112
20
4.985715
10
11.461567
20
4.978880
10
11.454056
20
4.972007
10
11.446580
20
4.965095
10
11.439140
20
4.958146
10
11.431735
20
4.951159
10
11.424366
20
4.944134
10
11.417032
20
4.937072
10
11.409735
20
4.929973
10
11.402474
20
4.922836
10
11.395249
20
4.915663
10
11.388061
20
4.908453
10
11.380909
20
4.901206
10
11.373795
20
4.893924
10
11.366718
20
4.886605
10
11.359678
20
4.879250
10
11.352676
20
4.871859
10
11.345711
20
4.864433
10
11.338784
20
4.856971
10
11.331896
20
4.849475
10
11.325045
20
4.841943
10
11.318233
20
4.834377
10
11.311460
20
4.826776
10
11.304726
20
4.819140
10
11.298030
20
4.811471
10
11.291373
20
4.803767
10
11.284756
20
4.796030
10
11.278179
20
4.788259
10
11.271641
20
4.780455
10
11.265142
20
4.772617
10
11.258684
20
4.764747
10
11.252266
20
4.756843
10
11.245888
20
4.748908
10
11.239551
20
4.740939
10
11.233254
20
4.732939
10
11.226998
20
4.724907
10
11.220783
20
4.716843
10
11.214610
20
4.708747
10
11.208477
20
4.700620
10
11.202386
20
4.692462
10
11.196337
20
4.684274
10
11.190329
20
4.676054
10
11.184363
20
4.667804
10
11.178440
20
4.659524
10
11.172558
20
4.651213
10
11.166719
20
4.642873
10
11.160922
20
4.634503
10
11.155169
20
4.626104
10
11.149458
20
4.617676
10
11.143790
20
4.609218
10
11.138165
20
4.600732
10
11.132583
20
4.592218
10
11.127045
20
4.583675
10
11.121550
20
4.575104
10
11.116099
20
4.566505
10
11.110692
20
4.557878
10
11.105329
20
4.549224
10
11.100010
20
4.540543
10
11.094735
20
4.531835
10
11.089505
20
4.523100
10
11.084319
20
4.514339
10
11.079178
20
4.505552
10
11.074081
20
4.496738
10
11.069030
20
4.487898
10
11.064024
20
4.479033
10
11.059062
20
4.470143
10
11.054147
20
4.461227
10
11.049276
20
4.452287
10
11.044451
20
4.443322
10
11.039672
20
4.434332
10
11.034939
20
4.425318
10
11.030252
20
4.416280
10
11.025610
20
4.407219
10
11.021015
20
4.398134
10
11.016466
20
4.389025
10
11.011964
20
4.379894
10
11.007508
20
4.370740
10
11.003099
20
4.361563
10
10.998737
20
4.352364
10
10.994421
20
4.343143
10
10.990153
20
4.333900
10
10.985931
20
4.324635
10
10.981757
20
4.315349
10
10.977630
20
4.306042
10
10.973551
20
4.296714
10
10.969519
20
4.287365
10
10.965535
20
4.277996
10
10.961598
20
4.268607
10
10.957709
20
4.259198
10
10.953869
20
4.249769
10
10.950076
20
4.240321
10
10.946331
20
4.230854
10
10.942635
20
4.221367
10
10.938987
20
4.211862
10
10.935388
20
4.202339
10
10.931837
20
4.192797
10
10.928334
20
4.183237
10
10.924881
20
4.173660
10
10.921476
20
4.164065
10
10.918120
20
4.154453
10
10.914813
20
4.144824
10
10.911555
20
4.135179
10
10.908346
20
4.125517
10
10.905186
20
4.115838
10
10.902076
20
4.106144
10
10.899015
20
4.096434
10
10.896004
20
4.086708
10
10.893042
20
4.076968
10
10.890130
20
4.067212
10
10.887267
20
4.057442
10
10.884454
20
4.047657
10
10.881692
20
4.037858
10
10.878979
20
4.028045
10
10.876316
20
4.018219
10
10.873703
20
4.008379
10
10.871140
20
3.998525
10
10.868627
20
3.988659
10
10.866165
20
3.978780
10
10.863753
20
3.968889
10
10.861391
20
3.958986
10
10.859080
20
3.949071
10
10.856819
20
3.939144
10
10.854609
20
3.929206
10
10.852449
20
3.919256
10
10.850340
20
3.909296
10
10.848282
20
3.899325
10
10.846275
20
3.889344
10
10.844318
20
3.879353
10
10.842413
20
3.869352
10
10.840558
20
3.859341
10
10.838754
20
3.849321
10
10.837001
20
3.839292
10
10.835300
20
3.829254
10
10.833649
20
3.819208
10
10.832050
20
3.809153
10
10.830502
20
3.799091
10
10.829005
20
3.789020
10
10.827559
20
3.778942
10
10.826165
20
3.768857
10
10.824822
20
3.758765
10
10.823530
20
3.748666
10
10.822290
20
3.738561
10
10.821102
20
3.728450
10
10.819965
20
3.718332
10
10.818879
20
3.708209
10
10.817845
20
3.698081
10
10.816862
20
3.687948
10
10.815931
20
3.677809
10
10.815052
20
3.667666
10
10.814224
20
3.657519
10
10.813448
20
3.647367
10
10.812724
20
3.637212
10
10.812051
20
3.627053
10
10.811430
20
3.616891
10
10.810861
20
3.606726
10
10.810344
20
3.596558
10
10.809878
20
3.586388
10
10.809464
20
3.576215
10
10.809102
20
3.566041
10
10.808792
20
3.555865
10
10.808533
20
3.545687
10
10.808327
20
3.535508
10
10.808172
20
3.525328
10
10.808069
20
3.515147
10
10.808018
20
3.504967
10
10.808018
20
3.494786
10
10.808071
20
3.484605
10
10.808175
20
3.474424
10
10.808331
20
3.464244
10
10.808539
20
3.454065
10
10.808799
20
3.443888
10
10.809110
20
3.433711
10
10.809474
20
3.423537
10
10.809889
20
3.413364
10
10.810356
20
3.403194
10
10.810874
20
3.393026
10
10.811445
20
3.382861
10
10.812067
20
3.372699
10
10.812741
20
3.362540
10
10.813467
20
3.352385
10
10.814244
20
3.342234
10
10.815073
20
3.332087
10
10.815953
20
3.321944
10
10.816886
20
3.311806
10
10.817869
20
3.301672
10
10.818905
20
3.291544
10
10.819992
20
3.281421
10
10.821130
20
3.271304
10
10.822320
20
3.261193
10
10.823561
20
3.251088
10
10.824854
20
3.240989
10
10.826198
20
3.230897
10
10.827594
20
3.220812
10
10.829041
20
3.210734
10
10.830539
20
3.200664
10
10.832088
20
3.190602
10
10.833689
20
3.180547
10
10.835341
20
3.170501
10
10.837043
20
3.160464
10
10.838797
20
3.150435
10
10.840602
20
3.140415
10
10.842458
20
3.130405
10
10.844365
20
3.120404
10
10.846323
20
3.110413
10
10.848332
20
3.100432
10
10.850391
20
3.090461
10
10.852501
20
3.080501
10
10.854662
20
3.070552
10
10.856873
20
3.060614
10
10.859135
20
3.050688
10
10.861448
20
3.040773
10
10.863811
20
3.030870
10
10.866224
20
3.020979
10
10.868688
20
3.011100
10
10.871202
20
3.001235
10
10.873766
20
2.991382
10
10.876380
20
2.981542
10
10.879044
20
2.971716
10
10.881758
20
2.961903
10
10.884522
20
2.952105
10
10.887336
20
2.942320
10
10.890200
20
2.932550
10
10.893114
20
2.922795
10
10.896077
20
2.913055
10
10.899089
20
2.903330
10
10.902151
20
2.893620
10
10.905263
20
2.883926
10
10.908424
20
2.874248
10
10.911634
20
2.864586
10
10.914893
20
2.854941
10
10.918201
20
2.845312
10
10.921558
20
2.835701
10
10.924964
20
2.826106
10
10.928419
20
2.816530
10
10.931923
20
2.806970
10
10.935475
20
2.797429
10
10.939075
20
2.787906
10
10.942725
20
2.778401
10
10.946422
20
2.768916
10
10.950168
20
2.759449
10
10.953962
20
2.750001
10
10.957803
20
2.740573
10
10.961693
20
2.731164
10
10.965631
20
2.721775
10
10.969616
20
2.712407
10
10.973649
20
2.703058
10
10.977730
20
2.693731
10
10.981858
20
2.684424
10
10.986033
20
2.675139
10
10.990256
20
2.665875
10
10.994526
20
2.656632
10
10.998842
20
2.647412
10
11.003206
20
2.638213
10
11.007616
20
2.629037
10
11.012073
20
2.619883
10
11.016577
20
2.610753
10
11.021127
20
2.601645
10
11.025723
20
2.592560
10
11.030365
20
2.583499
10
11.035054
20
2.574462
10
11.039788
20
2.565449
10
11.044568
20
2.556460
10
11.049394
20
2.547495
10
11.054266
20
2.538555
10
11.059183
20
2.529640
10
11.064145
20
2.520751
10
11.069152
20
2.511886
10
11.074205
20
2.503047
10
11.079302
20
2.494234
10
11.084445
20
2.485447
10
11.089632
20
2.476687
10
11.094863
20
2.467952
10
11.100139
20
2.459245
10
11.105459
20
2.450565
10
11.110823
20
2.441911
10
11.116231
20
2.433285
10
11.121683
20
2.424687
10
11.127179
20
2.416117
10
11.132718
20
2.407575
10
11.138301
20
2.399061
10
11.143927
20
2.390575
10
11.149596
20
2.382119
10
11.155308
20
2.373691
10
11.161063
20
2.365293
10
11.166861
20
2.356924
10
11.172701
20
2.348584
10
11.178583
20
2.340274
10
11.184508
20
2.331995
10
11.190475
20
2.323746
10
11.196483
20
2.315527
10
11.202534
20
2.307339
10
11.208626
20
2.299181
10
11.214759
20
2.291055
10
11.220934
20
2.282960
10
11.227150
20
2.274897
10
11.233407
20
2.266866
10
11.239705
20
2.258866
10
11.246043
20
2.250899
10
11.252422
20
2.242964
10
11.258841
20
2.235061
10
11.265300
20
2.227192
10
11.271799
20
2.219355
10
11.278338
20
2.211551
10
11.284917
20
2.203781
10
11.291535
20
2.196045
10
11.298192
20
2.188342
10
11.304889
20
2.180673
10
11.311625
20
2.173039
10
11.318399
20
2.165439
10
11.325212
20
2.157873
10
11.332063
20
2.150342
10
11.338953
20
2.142846
10
11.345880
20
2.135386
10
11.352846
20
2.127960
10
11.359849
20
2.120571
10
11.366890
20
2.113217
10
11.373968
20
2.105899
10
11.381083
20
2.098617
10
11.388235
20
2.091371
10
11.395424
20
2.084162
10
11.402650
20
2.076990
10
11.409912
20
2.069854
10
11.417210
20
2.062756
10
11.424545
20
2.055694
10
11.431915
20
2.048670
10
11.439321
20
2.041684
10
11.446762
20
2.034736
10
11.454238
20
2.027825
10
11.461750
20
2.020953
10
11.469297
20
2.014119
10
11.476878
20
2.007324
10
11.484493
20
2.000567
10
11.492143
20
1.993849
10
11.499828
20
1.987170
10
11.507546
20
1.980530
10
11.515297
20
1.973930
10
11.523083
20
1.967369
10
11.530901
20
1.960848
10
11.538753
20
1.954367
10
11.546637
20
1.947926
10
11.554554
20
1.941525
10
11.562504
20
1.935164
10
11.570486
20
1.928844
10
11.578500
20
1.922565
10
11.586546
20
1.916327
10
11.594623
20
1.910129
10
11.602732
20
1.903973
10
11.610872
20
1.897858
10
11.619044
20
1.891785
10
11.627246
20
1.885753
10
11.635478
20
1.879764
10
11.643741
20
1.873816
10
11.652034
20
1.867910
10
11.660358
20
1.862047
10
11.668710
20
1.856226
10
11.677093
20
1.850448
10
11.685505
20
1.844712
10
11.693945
20
1.839019
10
11.702415
20
1.833370
10
11.710913
20
1.827763
10
11.719440
20
1.822200
10
11.727995
20
1.816681
10
11.736578
20
1.811205
10
11.745189
20
1.805772
10
11.753827
20
1.800384
10
11.762492
20
1.795040
10
11.771185
20
1.789740
10
11.779904
20
1.784484
10
11.788651
20
1.779272
10
11.797423
20
1.774106
10
11.806222
20
1.768984
10
11.815047
20
1.763906
10
11.823897
20
1.758874
10
11.832773
20
1.753887
10
11.841674
20
1.748945
10
11.850601
20
1.744049
10
11.859552
20
1.739198
10
11.868527
20
1.734393
10
11.877527
20
1.729633
10
11.886551
20
1.724919
10
11.895599
20
1.720252
10
11.904671
20
1.715630
10
11.913766
20
1.711055
10
11.922884
20
1.706526
10
11.932025
20
1.702043
10
11.941189
20
1.697607
10
11.950376
20
1.693218
10
11.959584
20
1.688876
10
11.968815
20
1.684580
10
11.978067
20
1.680332
10
11.987341
20
1.676131
10
11.996636
20
1.671977
10
12.005952
20
1.667870
10
12.015289
20
1.663811
10
12.024646
20
1.659799
10
12.034024
20
1.655835
10
12.043421
20
1.651919
10
12.052839
20
1.648051
10
12.062276
20
1.644231
10
12.071733
20
1.640459
10
12.081208
20
1.636735
10
12.090702
20
1.633059
10
12.100215
20
1.629432
10
12.109747
20
1.625853
10
12.119296
20
1.622323
10
12.128863
20
1.618841
10
12.138448
20
1.615409
10
12.148050
20
1.612025
10
12.157670
20
1.608689
10
12.167306
20
1.605403
10
12.176959
20
1.602166
10
15.491622
20
0.500000
10
18.186804
20
0.500000
0
LWPOLYLINE
8
0
100
AcDbEntity
100
AcDbPolyline
90
723
70
1
10
28.909121
20
0.500000
10
25.018951
20
4.835665
10
25.012132
20
4.843226
10
25.005276
20
4.850751
10
24.998380
20
4.858242
10
24.991447
20
4.865698
10
24.984476
20
4.873118
10
24.977468
20
4.880502
10
24.970421
20
4.887851
10
24.963338
20
4.895164
10
24.956217
20
4.902441
10
24.949060
20
4.909681
10
24.941865
20
4.916885
10
24.934634
20
4.924052
10
24.927367
20
4.931182
10
24.920064
20
4.938275
10
24.912724
20
4.945331
10
24.905349
20
4.952349
10
24.897938
20
4.959330
10
24.890491
20
4.966273
10
24.883009
20
4.973178
10
24.875493
20
4.980044
10
24.867941
20
4.986873
10
24.860355
20
4.993663
10
24.852734
20
5.000414
10
24.845079
20
5.007126
10
24.837390
20
5.013799
10
24.829667
20
5.020433
10
24.821911
20
5.027028
10
24.814121
20
5.033583
10
24.806297
20
5.040098
10
24.798441
20
5.046574
10
24.790552
20
5.053009
10
24.782630
20
5.059404
10
24.774675
20
5.065758
10
24.766689
20
5.072073
10
24.758670
20
5.078346
10
24.750620
20
5.084578
10
24.742537
20
5.090770
10
24.734424
20
5.096920
10
24.726279
20
5.103029
10
24.718103
20
5.109096
10
24.709897
20
5.115121
10
24.701660
20
5.121105
10
24.693392
20
5.127047
10
24.685095
20
5.132946
10
24.676767
20
5.138803
10
24.668410
20
5.144618
10
24.660024
20
5.150390
10
24.651608
20
5.156119
10
24.643163
20
5.161806
10
24.634689
20
5.167449
10
24.626186
20
5.173049
10
24.617656
20
5.178606
10
24.609096
20
5.184119
10
24.600510
20
5.189589
10
24.591895
20
5.195015
10
24.583253
20
5.200397
10
24.574583
20
5.205735
10
24.565886
20
5.211028
10
24.557163
20
5.216278
10
24.548413
20
5.221483
10
24.539637
20
5.226643
10
24.530834
20
5.231758
10
24.522006
20
5.236829
10
24.513151
20
5.241855
10
24.504272
20
5.246835
10
24.495367
20
5.251770
10
24.486437
20
5.256660
10
24.477482
20
5.261505
10
24.468503
20
5.266303
10
24.459500
20
5.271056
10
24.450472
20
5.275763
10
24.441421
20
5.280424
10
24.432346
20
5.285039
10
24.423247
20
5.289608
10
24.414126
20
5.294130
10
24.404981
20
5.298606
10
24.395814
20
5.303035
10
24.386624
20
5.307417
10
24.377413
20
5.311753
10
24.368179
20
5.316041
10
24.358924
20
5.320283
10
24.349647
20
5.324477
10
24.340349
20
5.328624
10
24.331029
20
5.332724
10
24.321690
20
5.336776
10
24.312329
20
5.340781
10
24.302949
20
5.344738
10
24.293548
20
5.348647
10
24.284128
20
5.352508
10
24.274688
20
5.356321
10
24.265228
20
5.360086
10
24.255750
20
5.363803
10
24.246253
20
5.367472
10
24.236737
20
5.371092
10
24.227203
20
5.374664
10
24.217651
20
5.378187
10
24.208082
20
5.381661
10
24.198494
20
5.385087
10
24.188889
20
5.388464
10
24.179268
20
5.391792
10
24.169629
20
5.395071
10
24.159974
20
5.398301
10
24.150303
20
5.401481
10
24.140615
20
5.404613
10
24.130912
20
5.407695
10
24.121193
20
5.410727
10
24.111459
20
5.413710
10
24.101709
20
5.416644
10
24.091945
20
5.419528
10
24.082167
20
5.422362
10
24.072374
20
5.425146
10
24.062567
20
5.427880
10
24.052746
20
5.430565
10
24.042912
20
5.433199
10
24.033064
20
5.435783
10
24.023203
20
5.438317
10
24.013330
20
5.440801
10
24.003444
20
5.443235
10
23.993546
20
5.445618
10
23.983636
20
5.447951
10
23.973714
20
5.450233
10
23.963780
20
5.452465
10
23.953836
20
5.454646
10
23.943880
20
5.456777
10
23.933914
20
5.458856
10
23.923937
20
5.460885
10
23.913950
20
5.462864
10
23.903953
20
5.464791
10
23.893947
20
5.466668
10
23.883931
20
5.468493
10
23.873905
20
5.470268
10
23.863871
20
5.471991
10
23.853829
20
5.473663
10
23.843777
20
5.475285
10
23.833718
20
5.476855
10
23.823651
20
5.478373
10
23.813576
20
5.479841
10
23.803494
20
5.481257
10
23.793405
20
5.482622
10
23.783309
20
5.483936
10
23.773207
20
5.485198
10
23.763098
20
5.486408
10
23.752983
20
5.487568
10
23.742863
20
5.488675
10
23.732736
20
5.489731
10
23.722605
20
5.490736
10
23.712469
20
5.491689
10
23.702328
20
5.492590
10
23.692182
20
5.493440
10
23.682032
20
5.494238
10
23.671879
20
5.494985
10
23.661722
20
5.495679
10
23.651561
20
5.496322
10
23.641397
20
5.496914
10
23.631230
20
5.497453
10
23.621061
20
5.497941
10
23.610889
20
5.498377
10
23.600715
20
5.498761
10
23.590540
20
5.499093
10
23.580363
20
5.499374
10
23.570184
20
5.499603
10
23.560005
20
5.499780
10
23.549824
20
5.499905
10
23.539644
20
5.499978
10
23.529463
20
5.500000
10
23.519282
20
5.499969
10
23.509101
20
5.499887
10
23.498921
20
5.499753
10
23.488742
20
5.499568
10
23.478563
20
5.499330
10
23.468386
20
5.499041
10
23.458211
20
5.498699
10
23.448038
20
5.498306
10
23.437866
20
5.497862
10
23.427697
20
5.497365
10
23.417531
20
5.496817
10
23.407368
20
5.496217
10
23.397208
20
5.495565
10
23.387051
20
5.494861
10
23.376898
20
5.494106
10
23.366749
20
5.493299
10
23.356604
20
5.492441
10
23.346464
20
5.491531
10
23.336328
20
5.490569
10
23.326198
20
5.489555
10
23.316073
20
5.488491
10
23.305953
20
5.487374
10
23.295839
20
5.486206
10
23.285732
20
5.484987
10
23.275630
20
5.483716
10
23.265535
20
5.482394
10
23.255447
20
5.481020
10
23.245367
20
5.479595
10
23.235293
20
5.478119
10
23.225227
20
5.476591
10
23.215169
20
5.475013
10
23.205120
20
5.473383
10
23.195078
20
5.471702
10
23.185046
20
5.469970
10
23.175022
20
5.468186
10
23.165008
20
5.466352
10
23.155003
20
5.464467
10
23.145008
20
5.462531
10
23.135022
20
5.460544
10
23.125047
20
5.458506
10
23.115083
20
5.456418
10
23.105129
20
5.454279
10
23.095186
20
5.452089
10
23.085255
20
5.449849
10
23.075335
20
5.447558
10
23.065427
20
5.445216
10
23.055531
20
5.442825
10
23.045647
20
5.440382
10
23.035776
20
5.437890
10
23.025917
20
5.435347
10
23.016072
20
5.432755
10
23.006240
20
5.430112
10
22.996421
20
5.427419
10
22.986617
20
5.424676
10
22.976826
20
5.421883
10
22.967050
20
5.419041
10
22.957288
20
5.416149
10
22.947542
20
5.413207
10
22.937810
20
5.410215
10
22.928094
20
5.407174
10
22.918393
20
5.404084
10
22.908708
20
5.400944
10
22.899040
20
5.397755
10
22.889387
20
5.394517
10
22.879752
20
5.391230
10
22.870133
20
5.387894
10
22.860531
20
5.384508
10
22.850946
20
5.381074
10
22.841380
20
5.377592
10
22.831831
20
5.374060
10
22.822300
20
5.370480
10
22.812787
20
5.366852
10
22.803293
20
5.363175
10
22.793818
20
5.359450
10
22.784362
20
5.355677
10
22.774926
20
5.351855
10
22.765509
20
5.347986
10
22.756111
20
5.344069
10
22.746734
20
5.340104
10
22.737377
20
5.336091
10
22.728041
20
5.332030
10
22.718725
20
5.327923
10
22.709431
20
5.323768
10
22.700158
20
5.319565
10
22.690906
20
5.315316
10
22.681676
20
5.311019
10
22.672468
20
5.306675
10
22.663282
20
5.302285
10
22.654119
20
5.297848
10
22.644978
20
5.293364
10
22.635861
20
5.288834
10
22.626766
20
5.284258
10
22.617695
20
5.279635
10
22.608648
20
5.274966
10
22.599624
20
5.270252
10
22.590625
20
5.265491
10
22.581650
20
5.260684
10
22.572699
20
5.255832
10
22.563774
20
5.250935
10
22.554873
20
5.245992
10
22.545998
20
5.241004
10
22.537148
20
5.235970
10
22.528324
20
5.230892
10
22.519526
20
5.225769
10
22.510754
20
5.220601
10
22.502008
20
5.215389
10
22.493289
20
5.210132
10
22.484597
20
5.204831
10
22.475932
20
5.199485
10
22.467295
20
5.194096
10
22.458685
20
5.188663
10
22.450103
20
5.183185
10
22.441548
20
5.177665
10
22.433022
20
5.172101
10
22.424525
20
5.166493
10
22.416056
20
5.160842
10
22.407616
20
5.155149
10
22.399205
20
5.149412
10
22.390823
20
5.143633
10
22.382471
20
5.137811
10
22.374148
20
5.131946
10
22.365856
20
5.126040
10
22.357594
20
5.120091
10
22.349362
20
5.114100
10
22.341161
20
5.108068
10
22.332990
20
5.101993
10
22.324851
20
5.095877
10
22.316743
20
5.089720
10
22.308666
20
5.083522
10
22.300621
20
5.077283
10
22.292607
20
5.071002
10
22.284626
20
5.064681
10
22.276677
20
5.058320
10
22.268761
20
5.051918
10
22.260877
20
5.045476
10
22.253027
20
5.038994
10
22.245209
20
5.032472
10
22.237424
20
5.025910
10
22.229674
20
5.019309
10
22.221956
20
5.012668
10
22.214273
20
5.005988
10
22.206624
20
4.999269
10
22.199009
20
4.992511
10
22.191429
20
4.985715
10
22.183883
20
4.978880
10
22.176372
20
4.972007
10
22.168897
20
4.965095
10
22.161456
20
4.958146
10
22.154051
20
4.951159
10
22.146682
20
4.944134
10
22.139348
20
4.937072
10
22.132051
20
4.929973
10
22.124790
20
4.922836
10
22.117565
20
4.915663
10
22.110377
20
4.908453
10
22.103226
20
4.901206
10
22.096111
20
4.893924
10
22.089034
20
4.886605
10
22.081994
20
4.879250
10
22.074992
20
4.871859
10
22.068027
20
4.864433
10
22.061101
20
4.856971
10
22.054212
20
4.849475
10
22.047362
20
4.841943
10
22.040550
20
4.834377
10
22.033776
20
4.826776
10
22.027042
20
4.819140
10
22.020346
20
4.811471
10
22.013690
20
4.803767
10
22.007073
20
4.796030
10
22.000495
20
4.788259
10
21.993957
20
4.780455
10
21.987459
20
4.772617
10
21.981000
20
4.764747
10
21.974582
20
4.756843
10
21.968204
20
4.748908
10
21.961867
20
4.740939
10
21.955570
20
4.732939
10
21.949315
20
4.724907
10
21.943100
20
4.716843
10
21.936926
20
4.708747
10
21.930793
20
4.700620
10
21.924702
20
4.692462
10
21.918653
20
4.684274
10
21.912645
20
4.676054
10
21.906680
20
4.667804
10
21.900756
20
4.659524
10
21.894874
20
4.651213
10
21.889035
20
4.642873
10
21.883239
20
4.634503
10
21.877485
20
4.626104
10
21.871774
20
4.617676
10
21.866106
20
4.609218
10
21.860481
20
4.600732
10
21.854899
20
4.592218
10
21.849361
20
4.583675
10
21.843866
20
4.575104
10
21.838416
20
4.566505
10
21.833008
20
4.557878
10
21.827645
20
4.549224
10
21.822326
20
4.540543
10
21.817051
20
4.531835
10
21.811821
20
4.523100
10
21.806635
20
4.514339
10
21.801494
20
4.505552
10
21.796398
20
4.496738
10
21.791346
20
4.487898
10
21.786340
20
4.479033
10
21.781379
20
4.470143
10
21.776463
20
4.461227
10
21.771593
20
4.452287
10
21.766768
20
4.443322
10
21.761989
20
4.434332
10
21.757255
20
4.425318
10
21.752568
20
4.416280
10
21.747927
20
4.407219
10
21.743332
20
4.398134
10
21.738783
20
4.389025
10
21.734280
20
4.379894
10
21.729825
20
4.370740
10
21.725415
20
4.361563
10
21.721053
20
4.352364
10
21.716737
20
4.343143
10
21.712469
20
4.333900
10
21.708248
20
4.324635
10
21.704073
20
4.315349
10
21.699946
20
4.306042
10
21.695867
20
4.296714
10
21.691835
20
4.287365
10
21.687851
20
4.277996
10
21.683914
20
4.268607
10
21.680026
20
4.259198
10
21.676185
20
4.249769
10
21.672392
20
4.240321
10
21.668648
20
4.230854
10
21.664951
20
4.221367
10
21.661304
20
4.211862
10
21.657704
20
4.202339
10
21.654153
20
4.192797
10
21.650651
20
4.183237
10
21.647197
20
4.173660
10
21.643792
20
4.164065
10
21.640436
20
4.154453
10
21.637129
20
4.144824
10
21.633871
20
4.135179
10
21.630662
20
4.125517
10
21.627503
20
4.115838
10
21.624393
20
4.106144
10
21.621332
20
4.096434
10
21.618320
20
4.086708
10
21.615358
20
4.076968
10
21.612446
20
4.067212
10
21.609584
20
4.057442
10
21.606771
20
4.047657
10
21.604008
20
4.037858
10
21.601295
20
4.028045
10
21.598632
20
4.018219
10
21.596019
20
4.008379
10
21.593456
20
3.998525
10
21.590943
20
3.988659
10
21.588481
20
3.978780
10
21.586069
20
3.968889
10
21.583707
20
3.958986
10
21.581396
20
3.949071
10
21.579135
20
3.939144
10
21.576925
20
3.929206
10
21.574766
20
3.919256
10
21.572657
20
3.909296
10
21.570598
20
3.899325
10
21.568591
20
3.889344
10
21.566635
20
3.879353
10
21.564729
20
3.869352
10
21.562874
20
3.859341
10
21.561070
20
3.849321
10
21.559318
20
3.839292
10
21.557616
20
3.829254
10
21.555966
20
3.819208
10
21.554366
20
3.809153
10
21.552818
20
3.799091
10
21.551321
20
3.789020
10
21.549876
20
3.778942
10
21.548481
20
3.768857
10
21.547138
20
3.758765
10
21.545847
20
3.748666
10
21.544607
20
3.738561
10
21.543418
20
3.728450
10
21.542281
20
3.718332
10
21.541195
20
3.708209
10
21.540161
20
3.698081
10
21.539179
20
3.687948
10
21.538248
20
3.677809
10
21.537368
20
3.667666
10
21.536541
20
3.657519
10
21.535765
20
3.647367
10
21.535040
20
3.637212
10
21.534368
20
3.627053
10
21.533747
20
3.616891
10
21.533178
20
3.606726
10
21.532660
20
3.596558
10
21.532194
20
3.586388
10
21.531781
20
3.576215
10
21.531419
20
3.566041
10
21.531108
20
3.555865
10
21.530850
20
3.545687
10
21.530643
20
3.535508
10
21.530488
20
3.525328
10
21.530385
20
3.515147
10
21.530334
20
3.504967
10
21.530335
20
3.494786
10
21.530387
20
3.484605
10
21.530491
20
3.474424
10
21.530648
20
3.464244
10
21.530855
20
3.454065
10
21.531115
20
3.443888
10
21.531427
20
3.433711
10
21.531790
20
3.423537
10
21.532205
20
3.413364
10
21.532672
20
3.403194
10
21.533191
20
3.393026
10
21.533761
20
3.382861
10
21.534383
20
3.372699
10
21.535057
20
3.362540
10
21.535783
20
3.352385
10
21.536560
20
3.342234
10
21.537389
20
3.332087
10
21.538270
20
3.321944
10
21.539202
20
3.311806
10
21.540186
20
3.301672
10
21.541221
20
3.291544
10
21.542308
20
3.281421
10
21.543446
20
3.271304
10
21.544636
20
3.261193
10
21.545878
20
3.251088
10
21.547170
20
3.240989
10
21.548515
20
3.230897
10
21.549910
20
3.220812
10
21.551357
20
3.210734
10
21.552855
20
3.200664
10
21.554405
20
3.190602
10
21.556005
20
3.180547
10
21.557657
20
3.170501
10
21.559360
20
3.160464
10
21.561114
20
3.150435
10
21.562919
20
3.140415
10
21.564775
20
3.130405
10
21.566682
20
3.120404
10
21.568639
20
3.110413
10
21.570648
20
3.100432
10
21.572707
20
3.090461
10
21.574817
20
3.080501
10
21.576978
20
3.070552
10
21.579190
20
3.060614
10
21.581452
20
3.050688
10
21.583764
20
3.040773
10
21.586127
20
3.030870
10
21.588540
20
3.020979
10
21.591004
20
3.011100
10
21.593518
20
3.001235
10
21.596082
20
2.991382
10
21.598696
20
2.981542
10
21.601360
20
2.971716
10
21.604075
20
2.961903
10
21.606839
20
2.952105
10
21.609653
20
2.942320
10
21.612516
20
2.932550
10
21.615430
20
2.922795
10
21.618393
20
2.913055
10
21.621406
20
2.903330
10
21.624468
20
2.893620
10
21.627579
20
2.883926
10
21.630740
20
2.874248
10
21.633950
20
2.864586
10
21.637209
20
2.854941
10
21.640517
20
2.845312
10
21.643874
20
2.835701
10
21.647280
20
2.826106
10
21.650735
20
2.816530
10
21.654239
20
2.806970
10
21.657791
20
2.797429
10
21.661392
20
2.787906
10
21.665041
20
2.778401
10
21.668738
20
2.768916
10
21.672484
20
2.759449
10
21.676278
20
2.750001
10
21.680120
20
2.740573
10
21.684010
20
2.731164
10
21.687947
20
2.721775
10
21.691933
20
2.712407
10
21.695966
20
2.703058
10
21.700046
20
2.693731
10
21.704174
20
2.684424
10
21.708350
20
2.675139
10
21.712572
20
2.665875
10
21.716842
20
2.656632
10
21.721159
20
2.647412
10
21.725522
20
2.638213
10
21.729933
20
2.629037
10
21.734389
20
2.619883
10
21.738893
20
2.610753
10
21.743443
20
2.601645
10
21.748039
20
2.592560
10
21.752682
20
2.583499
10
21.757370
20
2.574462
10
21.762104
20
2.565449
10
21.766885
20
2.556460
10
21.771711
20
2.547495
10
21.776582
20
2.538555
10
21.781499
20
2.529640
10
21.786461
20
2.520751
10
21.791469
20
2.511886
10
21.796521
20
2.503047
10
21.801619
20
2.494234
10
21.806761
20
2.485447
10
21.811948
20
2.476687
10
21.817179
20
2.467952
10
21.822455
20
2.459245
10
21.827775
20
2.450565
10
21.833140
20
2.441911
10
21.838548
20
2.433285
10
21.844000
20
2.424687
10
21.849495
20
2.416117
10
21.855035
20
2.407575
10
21.860617
20
2.399061
10
21.866243
20
2.390575
10
21.871913
20
2.382119
10
21.877625
20
2.373691
10
21.883379
20
2.365293
10
21.889177
20
2.356924
10
21.895017
20
2.348584
10
21.900900
20
2.340274
10
21.906824
20
2.331995
10
21.912791
20
2.323746
10
21.918800
20
2.315527
10
21.924850
20
2.307339
10
21.930942
20
2.299181
10
21.937076
20
2.291055
10
21.943250
20
2.282960
10
21.949466
20
2.274897
10
21.955723
20
2.266866
10
21.962021
20
2.258866
10
21.968359
20
2.250899
10
21.974738
20
2.242964
10
21.981157
20
2.235061
10
21.987616
20
2.227192
10
21.994116
20
2.219355
10
22.000655
20
2.211551
10
22.007233
20
2.203781
10
22.013851
20
2.196045
10
22.020509
20
2.188342
10
22.027205
20
2.180673
10
22.033941
20
2.173039
10
22.040715
20
2.165439
10
22.047528
20
2.157873
10
22.054379
20
2.150342
10
22.061269
20
2.142846
10
22.068197
20
2.135386
10
22.075162
20
2.127960
10
22.082165
20
2.120571
10
22.089206
20
2.113217
10
22.096284
20
2.105899
10
22.103399
20
2.098617
10
22.110552
20
2.091371
10
22.117741
20
2.084162
10
22.124966
20
2.076990
10
22.132228
20
2.069854
10
22.139527
20
2.062756
10
22.146861
20
2.055694
10
22.154231
20
2.048670
10
22.161637
20
2.041684
10
22.169078
20
2.034736
10
22.176555
20
2.027825
10
22.184066
20
2.020953
10
22.191613
20
2.014119
10
22.199194
20
2.007324
10
22.206810
20
2.000567
10
22.214460
20
1.993849
10
22.222144
20
1.987170
10
22.229862
20
1.980530
10
22.237614
20
1.973930
10
22.245399
20
1.967369
10
22.253217
20
1.960848
10
22.261069
20
1.954367
10
22.268953
20
1.947926
10
22.276871
20
1.941525
10
22.284820
20
1.935164
10
22.292802
20
1.928844
10
22.300816
20
1.922565
10
22.308862
20
1.916327
10
22.316940
20
1.910129
10
22.325049
20
1.903973
10
22.333189
20
1.897858
10
22.341360
20
1.891785
10
22.349562
20
1.885753
10
22.357795
20
1.879764
10
22.366058
20
1.873816
10
22.374351
20
1.867910
10
22.382674
20
1.862047
10
22.391027
20
1.856226
10
22.399409
20
1.850448
10
22.407821
20
1.844712
10
22.416262
20
1.839019
10
22.424731
20
1.833370
10
22.433230
20
1.827763
10
22.441756
20
1.822200
10
22.450311
20
1.816681
10
22.458894
20
1.811205
10
22.467505
20
1.805772
10
22.476143
20
1.800384
10
22.484809
20
1.795040
10
22.493501
20
1.789740
10
22.502221
20
1.784484
10
22.510967
20
1.779272
10
22.519740
20
1.774106
10
22.528538
20
1.768984
10
22.537363
20
1.763906
10
22.546213
20
1.758874
10
22.555089
20
1.753887
10
22.563991
20
1.748945
10
22.572917
20
1.744049
10
22.581868
20
1.739198
10
22.590844
20
1.734393
10
22.599844
20
1.729633
10
22.608868
20
1.724919
10
22.617916
20
1.720252
10
22.626987
20
1.715630
10
22.636082
20
1.711055
10
22.645201
20
1.706526
10
22.654342
20
1.702043
10
22.663506
20
1.697607
10
22.672692
20
1.693218
10
22.681900
20
1.688876
10
22.691131
20
1.684580
10
22.700383
20
1.680332
10
22.709657
20
1.676131
10
22.718952
20
1.671977
10
22.728268
20
1.667870
10
22.737605
20
1.663811
10
22.746962
20
1.659799
10
22.756340
20
1.655835
10
22.765738
20
1.651919
10
22.775155
20
1.648051
10
22.784592
20
1.644231
10
22.794049
20
1.640459
10
22.803524
20
1.636735
10
22.813019
20
1.633059
10
22.822532
20
1.629432
10
22.832063
20
1.625853
10
22.841612
20
1.622323
10
22.851180
20
1.618841
10
22.860765
20
1.615409
10
22.870367
20
1.612025
10
22.879986
20
1.608689
10
22.889622
20
1.605403
10
22.899275
20
1.602166
10
26.213938
20
0.500000
10
28.909121
20
0.500000
0
ENDSEC
0
EOF
