999
side4rev_large (straight+4 loops, rev, R=3.0 w_v)
0
SECTION
2
HEADER
9
$INSUNITS
70
4
0
ENDSEC
0
SECTION
2
ENTITIES
0
LWPOLYLINE
8
0
100
AcDbEntity
100
AcDbPolyline
90
3074
70
1
10
0.900783
20
-0.514303
10
0.883145
20
-0.563600
10
0.863902
20
-0.612293
10
0.843077
20
-0.660331
10
0.820692
20
-0.707662
10
0.796769
20
-0.754235
10
0.771336
20
-0.800000
10
0.744419
20
-0.844909
10
0.716047
20
-0.888912
10
0.686250
20
-0.931964
10
0.655061
20
-0.974018
10
0.622512
20
-1.015029
10
0.588639
20
-1.054953
10
0.553478
20
-1.093748
10
0.517066
20
-1.131371
10
0.479443
20
-1.167783
10
0.440649
20
-1.202944
10
0.400724
20
-1.236817
10
0.359713
20
-1.269365
10
0.317660
20
-1.300555
10
0.274608
20
-1.330351
10
0.230604
20
-1.358723
10
0.185695
20
-1.385641
10
0.139930
20
-1.411074
10
0.093357
20
-1.434996
10
0.046026
20
-1.457382
10
-0.002011
20
-1.478207
10
-0.050705
20
-1.497449
10
-0.100002
20
-1.515088
10
-0.149849
20
-1.531105
10
-0.200194
20
-1.545481
10
-0.250983
20
-1.558203
10
-0.302160
20
-1.569256
10
-0.353672
20
-1.578629
10
-0.405463
20
-1.586312
10
-0.457477
20
-1.592296
10
-0.509660
20
-1.596574
10
-0.561954
20
-1.599143
10
-0.614305
20
-1.600000
10
-0.666655
20
-1.599143
10
-0.718950
20
-1.596574
10
-0.771132
20
-1.592296
10
-0.823147
20
-1.586312
10
-0.874938
20
-1.578629
10
-0.926449
20
-1.569256
10
-0.977627
20
-1.558203
10
-1.028415
20
-1.545481
10
-1.078760
20
-1.531105
10
-1.128608
20
-1.515088
10
-1.177905
20
-1.497449
10
-1.226598
20
-1.478207
10
-1.274636
20
-1.457382
10
-1.321967
20
-1.434996
10
-1.368540
20
-1.411074
10
-1.414305
20
-1.385641
10
-1.459213
20
-1.358723
10
-1.503217
20
-1.330351
10
-1.546269
20
-1.300555
10
-1.588323
20
-1.269365
10
-1.629334
20
-1.236817
10
-1.669258
20
-1.202944
10
-1.708052
20
-1.167783
10
-1.745676
20
-1.131371
10
-1.782087
20
-1.093748
10
-1.817248
20
-1.054953
10
-1.851122
20
-1.015029
10
-1.883670
20
-0.974018
10
-1.914859
20
-0.931964
10
-1.944656
20
-0.888912
10
-1.973028
20
-0.844909
10
-1.999945
20
-0.800000
10
-2.025379
20
-0.754235
10
-2.049301
20
-0.707662
10
-2.071687
20
-0.660331
10
-2.092512
20
-0.612293
10
-2.111754
20
-0.563600
10
-2.129393
20
-0.514303
10
-2.145409
20
-0.464455
10
-2.159786
20
-0.414110
10
-2.172508
20
-0.363322
10
-2.183561
20
-0.312145
10
-2.192934
20
-0.260633
10
-2.200617
20
-0.208842
10
-2.206600
20
-0.156827
10
-2.210879
20
-0.104645
10
-2.213448
20
-0.052351
10
-2.214305
20
0.000000
10
-2.213448
20
0.052351
10
-2.210879
20
0.104645
10
-2.206600
20
0.156827
10
-2.200617
20
0.208842
10
-2.192934
20
0.260633
10
-2.183561
20
0.312145
10
-2.172508
20
0.363322
10
-2.159786
20
0.414110
10
-2.145409
20
0.464455
10
-2.129393
20
0.514303
10
-2.111754
20
0.563600
10
-2.092512
20
0.612293
10
-2.071687
20
0.660331
10
-2.049301
20
0.707662
10
-2.025379
20
0.754235
10
-1.999945
20
0.800000
10
-1.973028
20
0.844909
10
-1.944656
20
0.888912
10
-1.914859
20
0.931964
10
-1.883670
20
0.974018
10
-1.851122
20
1.015029
10
-1.817248
20
1.054953
10
-1.782087
20
1.093748
10
-1.745676
20
1.131371
10
-1.708052
20
1.167783
10
-1.669258
20
1.202944
10
-1.629334
20
1.236817
10
-1.588323
20
1.269365
10
-1.546269
20
1.300555
10
-1.503217
20
1.330351
10
-1.459213
20
1.358723
10
-1.414305
20
1.385641
10
-1.368540
20
1.411074
10
-1.321967
20
1.434996
10
-1.274636
20
1.457382
10
-1.226598
20
1.478207
10
-1.177905
20
1.497449
10
-1.128608
20
1.515088
10
-1.078760
20
1.531105
10
-1.028415
20
1.545481
10
-0.977627
20
1.558203
10
-0.926449
20
1.569256
10
-0.874938
20
1.578629
10
-0.823147
20
1.586312
10
-0.771132
20
1.592296
10
-0.718950
20
1.596574
10
-0.666655
20
1.599143
10
-0.614305
20
1.600000
10
-0.561954
20
1.599143
10
-0.509660
20
1.596574
10
-0.457477
20
1.592296
10
-0.405463
20
1.586312
10
-0.353672
20
1.578629
10
-0.302160
20
1.569256
10
-0.250983
20
1.558203
10
-0.200194
20
1.545481
10
-0.149849
20
1.531105
10
-0.100002
20
1.515088
10
-0.050705
20
1.497449
10
-0.027553
20
1.488301
10
3.575077
20
5.503498
10
3.585305
20
5.514838
10
3.595590
20
5.526127
10
3.605933
20
5.537363
10
3.616332
20
5.548546
10
3.626789
20
5.559677
10
3.637302
20
5.570753
10
3.647871
20
5.581777
10
3.658496
20
5.592746
10
3.669177
20
5.603661
10
3.679914
20
5.614521
10
3.690705
20
5.625327
10
3.701552
20
5.636078
10
3.712453
20
5.646773
10
3.723408
20
5.657412
10
3.734417
20
5.667996
10
3.745480
20
5.678524
10
3.756597
20
5.688995
10
3.767767
20
5.699409
10
3.778989
20
5.709767
10
3.790264
20
5.720067
10
3.801592
20
5.730309
10
3.812971
20
5.740494
10
3.824402
20
5.750621
10
3.835885
20
5.760689
10
3.847418
20
5.770699
10
3.859003
20
5.780650
10
3.870637
20
5.790542
10
3.882323
20
5.800374
10
3.894058
20
5.810147
10
3.905842
20
5.819860
10
3.917676
20
5.829513
10
3.929559
20
5.839106
10
3.941490
20
5.848638
10
3.953470
20
5.858109
10
3.965498
20
5.867519
10
3.977574
20
5.876867
10
3.989697
20
5.886154
10
4.001868
20
5.895380
10
4.014085
20
5.904543
10
4.026348
20
5.913644
10
4.038658
20
5.922682
10
4.051014
20
5.931657
10
4.063415
20
5.940570
10
4.075861
20
5.949419
10
4.088352
20
5.958205
10
4.100888
20
5.966927
10
4.113468
20
5.975585
10
4.126092
20
5.984179
10
4.138759
20
5.992709
10
4.151470
20
6.001174
10
4.164224
20
6.009574
10
4.177020
20
6.017909
10
4.189859
20
6.026179
10
4.202739
20
6.034384
10
4.215661
20
6.042522
10
4.228625
20
6.050595
10
4.241629
20
6.058602
10
4.254674
20
6.066543
10
4.267759
20
6.074417
10
4.280884
20
6.082224
10
4.294048
20
6.089964
10
4.307252
20
6.097638
10
4.320495
20
6.105244
10
4.333776
20
6.112782
10
4.347096
20
6.120253
10
4.360453
20
6.127656
10
4.373848
20
6.134990
10
4.387280
20
6.142257
10
4.400749
20
6.149455
10
4.414254
20
6.156584
10
4.427795
20
6.163645
10
4.441372
20
6.170636
10
4.454985
20
6.177558
10
4.468633
20
6.184411
10
4.482315
20
6.191195
10
4.496032
20
6.197908
10
4.509782
20
6.204552
10
4.523567
20
6.211126
10
4.537384
20
6.217629
10
4.551235
20
6.224062
10
4.565118
20
6.230424
10
4.579033
20
6.236716
10
4.592981
20
6.242936
10
4.606959
20
6.249086
10
4.620969
20
6.255164
10
4.635010
20
6.261171
10
4.649080
20
6.267107
10
4.663181
20
6.272970
10
4.677312
20
6.278762
10
4.691472
20
6.284482
10
4.705661
20
6.290130
10
4.719878
20
6.295705
10
4.734124
20
6.301208
10
4.748397
20
6.306638
10
4.762698
20
6.311996
10
4.777026
20
6.317281
10
4.791381
20
6.322492
10
4.805762
20
6.327631
10
4.820169
20
6.332696
10
4.834602
20
6.337688
10
4.849060
20
6.342606
10
4.863542
20
6.347451
10
4.878050
20
6.352222
10
4.892581
20
6.356919
10
4.907136
20
6.361542
10
4.921714
20
6.366091
10
4.936315
20
6.370565
10
4.950939
20
6.374966
10
4.965586
20
6.379291
10
4.980253
20
6.383542
10
4.994943
20
6.387719
10
5.009653
20
6.391820
10
5.024384
20
6.395847
10
5.039136
20
6.399798
10
5.053907
20
6.403675
10
5.068698
20
6.407476
10
5.083508
20
6.411202
10
5.098337
20
6.414852
10
5.113184
20
6.418427
10
5.128050
20
6.421926
10
5.142933
20
6.425350
10
5.157833
20
6.428697
10
5.172750
20
6.431969
10
5.187683
20
6.435165
10
5.202633
20
6.438285
10
5.217598
20
6.441328
10
5.232578
20
6.444296
10
5.247574
20
6.447187
10
5.262583
20
6.450001
10
5.277608
20
6.452740
10
5.292645
20
6.455401
10
5.307696
20
6.457987
10
5.322761
20
6.460495
10
5.337837
20
6.462927
10
5.352926
20
6.465282
10
5.368027
20
6.467560
10
5.383139
20
6.469761
10
5.398262
20
6.471886
10
5.413396
20
6.473933
10
5.428540
20
6.475903
10
5.443693
20
6.477797
10
5.458856
20
6.479613
10
5.474029
20
6.481351
10
5.489210
20
6.483013
10
5.504399
20
6.484597
10
5.519596
20
6.486104
10
5.534800
20
6.487533
10
5.550012
20
6.488885
10
5.565230
20
6.490160
10
5.580455
20
6.491357
10
5.595685
20
6.492477
10
5.610921
20
6.493519
10
5.626162
20
6.494483
10
5.641408
20
6.495370
10
5.656658
20
6.496180
10
5.671912
20
6.496911
10
5.687170
20
6.497565
10
5.702430
20
6.498142
10
5.717694
20
6.498640
10
5.732959
20
6.499061
10
5.748227
20
6.499404
10
5.763496
20
6.499670
10
5.778767
20
6.499857
10
5.794038
20
6.499967
10
5.809309
20
6.500000
10
5.824581
20
6.499954
10
5.839852
20
6.499831
10
5.855122
20
6.499630
10
5.870391
20
6.499351
10
5.885658
20
6.498995
10
5.900924
20
6.498561
10
5.916187
20
6.498049
10
5.931447
20
6.497460
10
5.946704
20
6.496792
10
5.961957
20
6.496048
10
5.977207
20
6.495225
10
5.992452
20
6.494325
10
6.007692
20
6.493347
10
6.022927
20
6.492292
10
6.038156
20
6.491159
10
6.053380
20
6.489949
10
6.068597
20
6.488661
10
6.083807
20
6.487296
10
6.099011
20
6.485853
10
6.114206
20
6.484333
10
6.129394
20
6.482736
10
6.144574
20
6.481061
10
6.159744
20
6.479309
10
6.174906
20
6.477480
10
6.190058
20
6.475574
10
6.205200
20
6.473591
10
6.220332
20
6.471530
10
6.235453
20
6.469393
10
6.250564
20
6.467178
10
6.265662
20
6.464887
10
6.280749
20
6.462519
10
6.295824
20
6.460074
10
6.310886
20
6.457553
10
6.325935
20
6.454954
10
6.340970
20
6.452280
10
6.355992
20
6.449528
10
6.370999
20
6.446701
10
6.385992
20
6.443797
10
6.400970
20
6.440816
10
6.415932
20
6.437760
10
6.430879
20
6.434627
10
6.445810
20
6.431418
10
6.460724
20
6.428134
10
6.475621
20
6.424773
10
6.490501
20
6.421337
10
6.505363
20
6.417825
10
6.520208
20
6.414237
10
6.535033
20
6.410574
10
6.549840
20
6.406835
10
6.564628
20
6.403021
10
6.579396
20
6.399132
10
6.594144
20
6.395168
10
6.608871
20
6.391128
10
6.623578
20
6.387014
10
6.638264
20
6.382825
10
6.652928
20
6.378561
10
6.667571
20
6.374223
10
6.682191
20
6.369810
10
6.696788
20
6.365323
10
6.711363
20
6.360762
10
6.725914
20
6.356126
10
6.740441
20
6.351416
10
6.754944
20
6.346633
10
6.769422
20
6.341776
10
6.783876
20
6.336845
10
6.798304
20
6.331840
10
6.812707
20
6.326763
10
6.827084
20
6.321612
10
6.841434
20
6.316387
10
6.855757
20
6.311090
10
6.870054
20
6.305720
10
6.884322
20
6.300278
10
6.898563
20
6.294762
10
6.912776
20
6.289175
10
6.926960
20
6.283515
10
6.941115
20
6.277783
10
6.955240
20
6.271979
10
6.969336
20
6.266103
10
6.983402
20
6.260155
10
6.997437
20
6.254136
10
7.011442
20
6.248046
10
7.025415
20
6.241884
10
7.039357
20
6.235651
10
7.053267
20
6.229348
10
7.067144
20
6.222973
10
7.080989
20
6.216529
10
7.094801
20
6.210013
10
7.108580
20
6.203428
10
7.122325
20
6.196772
10
7.136036
20
6.190047
10
7.149712
20
6.183252
10
7.163354
20
6.176387
10
7.176961
20
6.169453
10
7.190532
20
6.162450
10
7.204067
20
6.155377
10
7.217566
20
6.148236
10
7.231029
20
6.141027
10
7.244454
20
6.133749
10
7.257843
20
6.126402
10
7.271194
20
6.118988
10
7.284507
20
6.111506
10
7.297782
20
6.103956
10
7.311018
20
6.096338
10
7.324215
20
6.088654
10
7.337373
20
6.080902
10
7.350491
20
6.073083
10
7.363569
20
6.065198
10
7.376607
20
6.057246
10
7.389605
20
6.049228
10
7.402561
20
6.041144
10
7.415476
20
6.032994
10
7.428349
20
6.024778
10
7.441181
20
6.016497
10
7.453970
20
6.008151
10
7.466716
20
5.999740
10
7.479420
20
5.991264
10
7.492080
20
5.982723
10
7.504696
20
5.974118
10
7.517269
20
5.965449
10
7.529797
20
5.956716
10
7.542281
20
5.947920
10
7.554719
20
5.939060
10
7.567113
20
5.930136
10
7.579461
20
5.921150
10
7.591762
20
5.912101
10
7.604018
20
5.902990
10
7.616227
20
5.893816
10
7.628390
20
5.884580
10
7.640505
20
5.875283
10
7.652572
20
5.865924
10
7.664592
20
5.856503
10
7.676564
20
5.847022
10
7.688487
20
5.837480
10
7.700362
20
5.827877
10
7.712187
20
5.818214
10
7.723963
20
5.808490
10
7.735690
20
5.798707
10
7.747367
20
5.788865
10
7.758993
20
5.778963
10
7.770569
20
5.769002
10
7.782094
20
5.758982
10
7.793567
20
5.748904
10
7.804990
20
5.738767
10
7.816360
20
5.728572
10
7.827679
20
5.718320
10
7.838945
20
5.708010
10
7.850159
20
5.697643
10
7.861319
20
5.687219
10
7.872427
20
5.676738
10
7.883481
20
5.666201
10
7.894481
20
5.655608
10
7.905427
20
5.644959
10
7.916319
20
5.634254
10
7.927156
20
5.623494
10
7.937938
20
5.612679
10
7.948665
20
5.601810
10
7.959336
20
5.590885
10
7.969952
20
5.579907
10
7.980512
20
5.568875
10
7.991015
20
5.557789
10
8.001462
20
5.546649
10
8.011852
20
5.535457
10
8.022185
20
5.524212
10
8.032461
20
5.512915
10
8.042679
20
5.501565
10
8.052839
20
5.490164
10
8.062941
20
5.478710
10
8.072984
20
5.467206
10
8.082969
20
5.455651
10
8.092894
20
5.444045
10
8.102761
20
5.432388
10
8.112568
20
5.420682
10
8.122315
20
5.408926
10
8.132003
20
5.397120
10
8.141630
20
5.385265
10
8.151197
20
5.373361
10
8.160703
20
5.361409
10
8.170148
20
5.349409
10
8.179532
20
5.337360
10
8.188854
20
5.325264
10
8.198115
20
5.313121
10
8.207313
20
5.300931
10
8.216450
20
5.288694
10
8.225524
20
5.276410
10
8.234535
20
5.264081
10
8.243484
20
5.251706
10
8.252370
20
5.239285
10
8.261192
20
5.226820
10
8.269950
20
5.214310
10
8.278645
20
5.201755
10
8.287276
20
5.189156
10
8.295842
20
5.176514
10
8.304344
20
5.163827
10
8.312782
20
5.151098
10
8.321154
20
5.138326
10
8.329462
20
5.125512
10
8.337704
20
5.112656
10
8.345880
20
5.099757
10
8.353991
20
5.086818
10
8.362035
20
5.073837
10
8.370014
20
5.060815
10
8.377926
20
5.047753
10
8.385772
20
5.034651
10
8.393550
20
5.021509
10
8.401262
20
5.008327
10
8.408907
20
4.995107
10
8.416484
20
4.981848
10
8.423993
20
4.968550
10
8.431435
20
4.955214
10
8.438809
20
4.941841
10
8.446115
20
4.928430
10
8.453352
20
4.914982
10
8.460520
20
4.901498
10
8.467620
20
4.887977
10
8.474651
20
4.874420
10
8.481613
20
4.860828
10
8.488506
20
4.847201
10
8.495329
20
4.833538
10
8.502083
20
4.819841
10
8.508767
20
4.806110
10
8.515380
20
4.792345
10
8.521924
20
4.778546
10
8.528397
20
4.764714
10
8.534800
20
4.750850
10
8.541132
20
4.736953
10
8.547393
20
4.723024
10
8.553584
20
4.709063
10
8.559703
20
4.695071
10
8.565751
20
4.681048
10
8.571727
20
4.666995
10
8.577632
20
4.652911
10
8.583465
20
4.638797
10
8.589226
20
4.624654
10
8.594915
20
4.610482
10
8.600532
20
4.596281
10
8.606076
20
4.582051
10
8.611548
20
4.567793
10
8.616947
20
4.553508
10
8.622274
20
4.539196
10
8.627527
20
4.524856
10
8.632708
20
4.510490
10
8.637815
20
4.496098
10
8.642849
20
4.481680
10
8.647810
20
4.467236
10
8.652697
20
4.452768
10
8.657510
20
4.438275
10
8.662249
20
4.423757
10
8.666915
20
4.409216
10
8.671506
20
4.394651
10
8.676023
20
4.380063
10
8.680466
20
4.365452
10
8.684834
20
4.350818
10
8.689128
20
4.336163
10
8.693347
20
4.321485
10
8.697492
20
4.306787
10
8.701561
20
4.292068
10
8.705556
20
4.277328
10
8.709475
20
4.262568
10
8.713319
20
4.247788
10
8.717088
20
4.232989
10
8.720782
20
4.218171
10
8.724400
20
4.203334
10
8.727942
20
4.188479
10
8.731409
20
4.173606
10
8.734800
20
4.158716
10
8.738116
20
4.143808
10
8.741355
20
4.128884
10
8.744518
20
4.113944
10
8.747606
20
4.098988
10
8.750617
20
4.084016
10
8.753552
20
4.069029
10
8.756410
20
4.054028
10
8.759192
20
4.039012
10
8.761898
20
4.023982
10
8.764527
20
4.008938
10
8.767079
20
3.993881
10
8.769555
20
3.978812
10
8.771954
20
3.963730
10
8.774276
20
3.948636
10
8.776522
20
3.933530
10
8.778690
20
3.918414
10
8.780781
20
3.903286
10
8.782796
20
3.888148
10
8.784733
20
3.873000
10
8.786593
20
3.857842
10
8.788376
20
3.842675
10
8.790082
20
3.827499
10
8.791711
20
3.812314
10
8.793262
20
3.797122
10
8.794736
20
3.781921
10
8.796132
20
3.766714
10
8.797451
20
3.751499
10
8.798692
20
3.736278
10
8.799857
20
3.721051
10
8.800943
20
3.705818
10
8.801952
20
3.690580
10
8.802883
20
3.675337
10
8.803737
20
3.660089
10
8.804513
20
3.644838
10
8.805212
20
3.629582
10
8.805832
20
3.614323
10
8.806376
20
3.599061
10
8.806841
20
3.583797
10
8.807229
20
3.568530
10
8.807539
20
3.553262
10
8.807771
20
3.537992
10
8.807925
20
3.522721
10
8.808002
20
3.507450
10
8.808001
20
3.492178
10
8.807923
20
3.476907
10
8.807766
20
3.461636
10
8.807532
20
3.446366
10
8.807220
20
3.431098
10
8.806831
20
3.415832
10
8.806363
20
3.400567
10
8.805818
20
3.385305
10
8.805196
20
3.370046
10
8.804495
20
3.354791
10
8.803717
20
3.339539
10
8.802862
20
3.324292
10
8.801928
20
3.309049
10
8.800917
20
3.293811
10
8.799829
20
3.278578
10
8.798663
20
3.263351
10
8.797420
20
3.248130
10
8.796099
20
3.232916
10
8.794701
20
3.217708
10
8.793225
20
3.202508
10
8.791672
20
3.187316
10
8.790041
20
3.172132
10
8.788334
20
3.156956
10
8.786549
20
3.141789
10
8.784687
20
3.126631
10
8.782748
20
3.111484
10
8.780731
20
3.096346
10
8.778638
20
3.081218
10
8.776468
20
3.066102
10
8.774221
20
3.050996
10
8.771896
20
3.035903
10
8.769496
20
3.020821
10
8.767018
20
3.005752
10
8.764464
20
2.990695
10
8.761833
20
2.975652
10
8.759125
20
2.960623
10
8.756341
20
2.945607
10
8.753481
20
2.930606
10
8.750544
20
2.915619
10
8.747531
20
2.900648
10
8.744442
20
2.885692
10
8.741277
20
2.870752
10
8.738036
20
2.855828
10
8.734719
20
2.840921
10
8.731326
20
2.826032
10
8.727857
20
2.811159
10
8.724313
20
2.796305
10
8.720693
20
2.781468
10
8.716997
20
2.766651
10
8.713227
20
2.751852
10
8.709380
20
2.737073
10
8.705459
20
2.722313
10
8.701463
20
2.707574
10
8.697392
20
2.692855
10
8.693245
20
2.678157
10
8.689024
20
2.663480
10
8.684729
20
2.648825
10
8.680359
20
2.634192
10
8.675914
20
2.619582
10
8.671395
20
2.604994
10
8.666802
20
2.590430
10
8.662135
20
2.575889
10
8.657394
20
2.561372
10
8.652579
20
2.546879
10
8.647690
20
2.532412
10
8.642727
20
2.517969
10
8.637692
20
2.503551
10
8.632583
20
2.489160
10
8.627400
20
2.474794
10
8.622145
20
2.460456
10
8.616817
20
2.446144
10
8.611416
20
2.431859
10
8.605942
20
2.417602
10
8.600396
20
2.403373
10
8.594777
20
2.389173
10
8.589086
20
2.375001
10
8.583324
20
2.360859
10
8.577489
20
2.346746
10
8.571582
20
2.332663
10
8.565604
20
2.318610
10
8.559555
20
2.304588
10
8.553434
20
2.290596
10
8.547242
20
2.276637
10
8.540979
20
2.262708
10
8.534645
20
2.248812
10
8.528240
20
2.234949
10
8.521765
20
2.221118
10
8.515220
20
2.207320
10
8.508605
20
2.193556
10
8.501919
20
2.179825
10
8.495164
20
2.166129
10
8.488339
20
2.152467
10
8.481445
20
2.138840
10
8.474481
20
2.125249
10
8.467448
20
2.111693
10
8.460347
20
2.098173
10
8.453176
20
2.084690
10
8.445937
20
2.071243
10
8.438630
20
2.057833
10
8.431255
20
2.044461
10
8.423811
20
2.031126
10
8.416300
20
2.017829
10
8.408721
20
2.004571
10
8.401075
20
1.991351
10
8.393362
20
1.978171
10
8.385581
20
1.965030
10
8.377734
20
1.951929
10
8.369821
20
1.938867
10
8.361840
20
1.925847
10
8.353794
20
1.912867
10
8.345682
20
1.899928
10
8.337504
20
1.887031
10
8.329260
20
1.874175
10
8.320951
20
1.861362
10
8.312577
20
1.848591
10
8.304138
20
1.835863
10
8.295635
20
1.823178
10
8.287067
20
1.810537
10
8.278434
20
1.797939
10
8.269738
20
1.785385
10
8.260978
20
1.772876
10
8.252154
20
1.760412
10
8.243267
20
1.747992
10
8.234317
20
1.735618
10
8.225304
20
1.723290
10
8.216228
20
1.711008
10
8.207090
20
1.698772
10
8.197890
20
1.686583
10
8.188628
20
1.674441
10
8.179304
20
1.662346
10
8.169918
20
1.650299
10
8.160472
20
1.638299
10
8.150965
20
1.626348
10
8.141396
20
1.614446
10
8.131768
20
1.602592
10
8.122079
20
1.590787
10
8.112330
20
1.579032
10
8.102521
20
1.567327
10
8.092653
20
1.555672
10
8.082726
20
1.544067
10
8.072740
20
1.532513
10
8.062695
20
1.521010
10
8.052592
20
1.509558
10
8.042431
20
1.498158
10
8.032211
20
1.486810
10
8.021934
20
1.475513
10
8.011600
20
1.464270
10
8.001209
20
1.453079
10
7.990760
20
1.441941
10
7.980255
20
1.430856
10
7.969694
20
1.419825
10
7.959077
20
1.408848
10
7.948404
20
1.397925
10
7.937676
20
1.387057
10
7.926892
20
1.376243
10
7.916054
20
1.365484
10
7.905161
20
1.354781
10
7.894214
20
1.344133
10
7.883212
20
1.333541
10
7.872157
20
1.323006
10
7.861048
20
1.312526
10
7.849886
20
1.302104
10
7.838671
20
1.291738
10
7.827404
20
1.281430
10
7.816084
20
1.271179
10
7.804712
20
1.260985
10
7.793289
20
1.250850
10
7.781814
20
1.240773
10
7.770287
20
1.230755
10
7.758710
20
1.220795
10
7.747083
20
1.210895
10
7.735405
20
1.201054
10
7.723677
20
1.191272
10
7.711900
20
1.181550
10
7.700073
20
1.171889
10
7.688197
20
1.162287
10
7.676273
20
1.152746
10
7.664300
20
1.143266
10
7.652279
20
1.133848
10
7.640210
20
1.124490
10
7.628094
20
1.115194
10
7.615931
20
1.105960
10
7.603720
20
1.096788
10
7.591463
20
1.087678
10
7.579160
20
1.078630
10
7.566811
20
1.069646
10
7.554417
20
1.060724
10
7.541977
20
1.051865
10
7.529493
20
1.043070
10
7.516963
20
1.034339
10
7.504390
20
1.025672
10
7.491772
20
1.017068
10
7.479111
20
1.008529
10
7.466406
20
1.000055
10
7.453659
20
0.991645
10
7.440869
20
0.983300
10
7.428036
20
0.975021
10
7.415162
20
0.966807
10
7.402246
20
0.958659
10
7.389289
20
0.950576
10
7.376290
20
0.942560
10
7.363251
20
0.934609
10
7.350172
20
0.926726
10
7.337053
20
0.918909
10
7.323894
20
0.911159
10
7.310696
20
0.903475
10
7.297459
20
0.895860
10
7.284183
20
0.888311
10
7.270869
20
0.880831
10
7.257517
20
0.873418
10
7.244128
20
0.866073
10
7.230701
20
0.858797
10
7.217238
20
0.851589
10
7.203738
20
0.844450
10
7.190202
20
0.837379
10
7.176630
20
0.830378
10
7.163022
20
0.823445
10
7.149380
20
0.816582
10
7.135702
20
0.809789
10
7.121991
20
0.803065
10
7.108245
20
0.796411
10
7.094466
20
0.789827
10
7.080653
20
0.783314
10
7.066807
20
0.776871
10
7.052929
20
0.770498
10
7.039018
20
0.764196
10
7.025075
20
0.757965
10
7.011101
20
0.751805
10
6.997096
20
0.745716
10
6.983060
20
0.739699
10
6.968993
20
0.733753
10
6.954897
20
0.727879
10
6.940770
20
0.722077
10
6.926615
20
0.716346
10
6.912430
20
0.710688
10
6.898217
20
0.705102
10
6.883975
20
0.699589
10
6.869706
20
0.694148
10
6.855409
20
0.688780
10
6.841085
20
0.683484
10
6.826734
20
0.678262
10
6.812357
20
0.673113
10
6.797953
20
0.668037
10
6.783524
20
0.663034
10
6.769070
20
0.658105
10
6.754591
20
0.653250
10
6.293707
20
0.500000
10
9.808012
20
0.500000
10
14.297393
20
5.503498
10
14.307621
20
5.514838
10
14.317906
20
5.526127
10
14.328249
20
5.537363
10
14.338649
20
5.548546
10
14.349105
20
5.559677
10
14.359618
20
5.570753
10
14.370188
20
5.581777
10
14.380813
20
5.592746
10
14.391494
20
5.603661
10
14.402230
20
5.614521
10
14.413022
20
5.625327
10
14.423868
20
5.636078
10
14.434769
20
5.646773
10
14.445724
20
5.657412
10
14.456734
20
5.667996
10
14.467797
20
5.678524
10
14.478913
20
5.688995
10
14.490083
20
5.699409
10
14.501305
20
5.709767
10
14.512581
20
5.720067
10
14.523908
20
5.730309
10
14.535287
20
5.740494
10
14.546718
20
5.750621
10
14.558201
20
5.760689
10
14.569734
20
5.770699
10
14.581319
20
5.780650
10
14.592954
20
5.790542
10
14.604639
20
5.800374
10
14.616374
20
5.810147
10
14.628158
20
5.819860
10
14.639992
20
5.829513
10
14.651875
20
5.839106
10
14.663807
20
5.848638
10
14.675787
20
5.858109
10
14.687815
20
5.867519
10
14.699890
20
5.876867
10
14.712014
20
5.886154
10
14.724184
20
5.895380
10
14.736401
20
5.904543
10
14.748665
20
5.913644
10
14.760974
20
5.922682
10
14.773330
20
5.931657
10
14.785731
20
5.940570
10
14.798177
20
5.949419
10
14.810668
20
5.958205
10
14.823204
20
5.966927
10
14.835784
20
5.975585
10
14.848408
20
5.984179
10
14.861076
20
5.992709
10
14.873786
20
6.001174
10
14.886540
20
6.009574
10
14.899336
20
6.017909
10
14.912175
20
6.026179
10
14.925055
20
6.034384
10
14.937978
20
6.042522
10
14.950941
20
6.050595
10
14.963945
20
6.058602
10
14.976990
20
6.066543
10
14.990075
20
6.074417
10
15.003200
20
6.082224
10
15.016365
20
6.089964
10
15.029569
20
6.097638
10
15.042811
20
6.105244
10
15.056093
20
6.112782
10
15.069412
20
6.120253
10
15.082769
20
6.127656
10
15.096164
20
6.134990
10
15.109596
20
6.142257
10
15.123065
20
6.149455
10
15.136570
20
6.156584
10
15.150112
20
6.163645
10
15.163689
20
6.170636
10
15.177301
20
6.177558
10
15.190949
20
6.184411
10
15.204631
20
6.191195
10
15.218348
20
6.197908
10
15.232099
20
6.204552
10
15.245883
20
6.211126
10
15.259701
20
6.217629
10
15.273551
20
6.224062
10
15.287434
20
6.230424
10
15.301350
20
6.236716
10
15.315297
20
6.242936
10
15.329276
20
6.249086
10
15.343285
20
6.255164
10
15.357326
20
6.261171
10
15.371397
20
6.267107
10
15.385498
20
6.272970
10
15.399628
20
6.278762
10
15.413788
20
6.284482
10
15.427977
20
6.290130
10
15.442195
20
6.295705
10
15.456440
20
6.301208
10
15.470714
20
6.306638
10
15.485015
20
6.311996
10
15.499343
20
6.317281
10
15.513697
20
6.322492
10
15.528078
20
6.327631
10
15.542485
20
6.332696
10
15.556918
20
6.337688
10
15.571376
20
6.342606
10
15.585859
20
6.347451
10
15.600366
20
6.352222
10
15.614897
20
6.356919
10
15.629452
20
6.361542
10
15.644031
20
6.366091
10
15.658632
20
6.370565
10
15.673256
20
6.374966
10
15.687902
20
6.379291
10
15.702570
20
6.383542
10
15.717259
20
6.387719
10
15.731970
20
6.391820
10
15.746701
20
6.395847
10
15.761452
20
6.399798
10
15.776224
20
6.403675
10
15.791015
20
6.407476
10
15.805825
20
6.411202
10
15.820654
20
6.414852
10
15.835501
20
6.418427
10
15.850366
20
6.421926
10
15.865249
20
6.425350
10
15.880149
20
6.428697
10
15.895066
20
6.431969
10
15.909999
20
6.435165
10
15.924949
20
6.438285
10
15.939914
20
6.441328
10
15.954894
20
6.444296
10
15.969890
20
6.447187
10
15.984900
20
6.450001
10
15.999924
20
6.452740
10
16.014962
20
6.455401
10
16.030013
20
6.457987
10
16.045077
20
6.460495
10
16.060154
20
6.462927
10
16.075242
20
6.465282
10
16.090343
20
6.467560
10
16.105455
20
6.469761
10
16.120578
20
6.471886
10
16.135712
20
6.473933
10
16.150856
20
6.475903
10
16.166010
20
6.477797
10
16.181173
20
6.479613
10
16.196345
20
6.481351
10
16.211526
20
6.483013
10
16.226715
20
6.484597
10
16.241912
20
6.486104
10
16.257117
20
6.487533
10
16.272328
20
6.488885
10
16.287546
20
6.490160
10
16.302771
20
6.491357
10
16.318001
20
6.492477
10
16.333237
20
6.493519
10
16.348478
20
6.494483
10
16.363724
20
6.495370
10
16.378974
20
6.496180
10
16.394228
20
6.496911
10
16.409486
20
6.497565
10
16.424747
20
6.498142
10
16.440010
20
6.498640
10
16.455276
20
6.499061
10
16.470543
20
6.499404
10
16.485813
20
6.499670
10
16.501083
20
6.499857
10
16.516354
20
6.499967
10
16.531626
20
6.500000
10
16.546897
20
6.499954
10
16.562168
20
6.499831
10
16.577438
20
6.499630
10
16.592707
20
6.499351
10
16.607975
20
6.498995
10
16.623240
20
6.498561
10
16.638503
20
6.498049
10
16.653763
20
6.497460
10
16.669020
20
6.496792
10
16.684274
20
6.496048
10
16.699523
20
6.495225
10
16.714768
20
6.494325
10
16.730008
20
6.493347
10
16.745243
20
6.492292
10
16.760473
20
6.491159
10
16.775696
20
6.489949
10
16.790913
20
6.488661
10
16.806124
20
6.487296
10
16.821327
20
6.485853
10
16.836523
20
6.484333
10
16.851711
20
6.482736
10
16.866890
20
6.481061
10
16.882061
20
6.479309
10
16.897222
20
6.477480
10
16.912374
20
6.475574
10
16.927517
20
6.473591
10
16.942649
20
6.471530
10
16.957770
20
6.469393
10
16.972880
20
6.467178
10
16.987979
20
6.464887
10
17.003065
20
6.462519
10
17.018140
20
6.460074
10
17.033202
20
6.457553
10
17.048251
20
6.454954
10
17.063286
20
6.452280
10
17.078308
20
6.449528
10
17.093315
20
6.446701
10
17.108308
20
6.443797
10
17.123286
20
6.440816
10
17.138249
20
6.437760
10
17.153196
20
6.434627
10
17.168126
20
6.431418
10
17.183040
20
6.428134
10
17.197938
20
6.424773
10
17.212817
20
6.421337
10
17.227680
20
6.417825
10
17.242524
20
6.414237
10
17.257350
20
6.410574
10
17.272156
20
6.406835
10
17.286944
20
6.403021
10
17.301712
20
6.399132
10
17.316460
20
6.395168
10
17.331188
20
6.391128
10
17.345895
20
6.387014
10
17.360580
20
6.382825
10
17.375245
20
6.378561
10
17.389887
20
6.374223
10
17.404507
20
6.369810
10
17.419105
20
6.365323
10
17.433679
20
6.360762
10
17.448230
20
6.356126
10
17.462757
20
6.351416
10
17.477260
20
6.346633
10
17.491739
20
6.341776
10
17.506192
20
6.336845
10
17.520621
20
6.331840
10
17.535023
20
6.326763
10
17.549400
20
6.321612
10
17.563750
20
6.316387
10
17.578074
20
6.311090
10
17.592370
20
6.305720
10
17.606639
20
6.300278
10
17.620879
20
6.294762
10
17.635092
20
6.289175
10
17.649276
20
6.283515
10
17.663431
20
6.277783
10
17.677557
20
6.271979
10
17.691653
20
6.266103
10
17.705718
20
6.260155
10
17.719754
20
6.254136
10
17.733758
20
6.248046
10
17.747732
20
6.241884
10
17.761673
20
6.235651
10
17.775583
20
6.229348
10
17.789461
20
6.222973
10
17.803306
20
6.216529
10
17.817118
20
6.210013
10
17.830896
20
6.203428
10
17.844641
20
6.196772
10
17.858352
20
6.190047
10
17.872029
20
6.183252
10
17.885670
20
6.176387
10
17.899277
20
6.169453
10
17.912848
20
6.162450
10
17.926383
20
6.155377
10
17.939883
20
6.148236
10
17.953345
20
6.141027
10
17.966771
20
6.133749
10
17.980159
20
6.126402
10
17.993510
20
6.118988
10
18.006823
20
6.111506
10
18.020098
20
6.103956
10
18.033334
20
6.096338
10
18.046531
20
6.088654
10
18.059689
20
6.080902
10
18.072807
20
6.073083
10
18.085886
20
6.065198
10
18.098924
20
6.057246
10
18.111921
20
6.049228
10
18.124877
20
6.041144
10
18.137792
20
6.032994
10
18.150666
20
6.024778
10
18.163497
20
6.016497
10
18.176286
20
6.008151
10
18.189033
20
5.999740
10
18.201736
20
5.991264
10
18.214396
20
5.982723
10
18.227013
20
5.974118
10
18.239585
20
5.965449
10
18.252113
20
5.956716
10
18.264597
20
5.947920
10
18.277036
20
5.939060
10
18.289429
20
5.930136
10
18.301777
20
5.921150
10
18.314079
20
5.912101
10
18.326334
20
5.902990
10
18.338544
20
5.893816
10
18.350706
20
5.884580
10
18.362821
20
5.875283
10
18.374889
20
5.865924
10
18.386908
20
5.856503
10
18.398880
20
5.847022
10
18.410804
20
5.837480
10
18.422678
20
5.827877
10
18.434504
20
5.818214
10
18.446280
20
5.808490
10
18.458006
20
5.798707
10
18.469683
20
5.788865
10
18.481309
20
5.778963
10
18.492885
20
5.769002
10
18.504410
20
5.758982
10
18.515884
20
5.748904
10
18.527306
20
5.738767
10
18.538677
20
5.728572
10
18.549995
20
5.718320
10
18.561261
20
5.708010
10
18.572475
20
5.697643
10
18.583636
20
5.687219
10
18.594743
20
5.676738
10
18.605797
20
5.666201
10
18.616797
20
5.655608
10
18.627743
20
5.644959
10
18.638635
20
5.634254
10
18.649472
20
5.623494
10
18.660254
20
5.612679
10
18.670981
20
5.601810
10
18.681653
20
5.590885
10
18.692268
20
5.579907
10
18.702828
20
5.568875
10
18.713332
20
5.557789
10
18.723779
20
5.546649
10
18.734169
20
5.535457
10
18.744502
20
5.524212
10
18.754777
20
5.512915
10
18.764995
20
5.501565
10
18.775155
20
5.490164
10
18.785257
20
5.478710
10
18.795300
20
5.467206
10
18.805285
20
5.455651
10
18.815211
20
5.444045
10
18.825077
20
5.432388
10
18.834884
20
5.420682
10
18.844632
20
5.408926
10
18.854319
20
5.397120
10
18.863946
20
5.385265
10
18.873513
20
5.373361
10
18.883019
20
5.361409
10
18.892464
20
5.349409
10
18.901848
20
5.337360
10
18.911170
20
5.325264
10
18.920431
20
5.313121
10
18.929630
20
5.300931
10
18.938766
20
5.288694
10
18.947840
20
5.276410
10
18.956852
20
5.264081
10
18.965800
20
5.251706
10
18.974686
20
5.239285
10
18.983508
20
5.226820
10
18.992267
20
5.214310
10
19.000961
20
5.201755
10
19.009592
20
5.189156
10
19.018159
20
5.176514
10
19.026661
20
5.163827
10
19.035098
20
5.151098
10
19.043471
20
5.138326
10
19.051778
20
5.125512
10
19.060020
20
5.112656
10
19.068196
20
5.099757
10
19.076307
20
5.086818
10
19.084352
20
5.073837
10
19.092330
20
5.060815
10
19.100242
20
5.047753
10
19.108088
20
5.034651
10
19.115867
20
5.021509
10
19.123578
20
5.008327
10
19.131223
20
4.995107
10
19.138800
20
4.981848
10
19.146310
20
4.968550
10
19.153751
20
4.955214
10
19.161125
20
4.941841
10
19.168431
20
4.928430
10
19.175668
20
4.914982
10
19.182837
20
4.901498
10
19.189937
20
4.887977
10
19.196968
20
4.874420
10
19.203930
20
4.860828
10
19.210822
20
4.847201
10
19.217646
20
4.833538
10
19.224399
20
4.819841
10
19.231083
20
4.806110
10
19.237697
20
4.792345
10
19.244240
20
4.778546
10
19.250713
20
4.764714
10
19.257116
20
4.750850
10
19.263448
20
4.736953
10
19.269710
20
4.723024
10
19.275900
20
4.709063
10
19.282019
20
4.695071
10
19.288067
20
4.681048
10
19.294043
20
4.666995
10
19.299948
20
4.652911
10
19.305781
20
4.638797
10
19.311542
20
4.624654
10
19.317231
20
4.610482
10
19.322848
20
4.596281
10
19.328393
20
4.582051
10
19.333864
20
4.567793
10
19.339264
20
4.553508
10
19.344590
20
4.539196
10
19.349844
20
4.524856
10
19.355024
20
4.510490
10
19.360132
20
4.496098
10
19.365166
20
4.481680
10
19.370126
20
4.467236
10
19.375013
20
4.452768
10
19.379826
20
4.438275
10
19.384566
20
4.423757
10
19.389231
20
4.409216
10
19.393822
20
4.394651
10
19.398339
20
4.380063
10
19.402782
20
4.365452
10
19.407151
20
4.350818
10
19.411444
20
4.336163
10
19.415664
20
4.321485
10
19.419808
20
4.306787
10
19.423877
20
4.292068
10
19.427872
20
4.277328
10
19.431791
20
4.262568
10
19.435636
20
4.247788
10
19.439405
20
4.232989
10
19.443098
20
4.218171
10
19.446716
20
4.203334
10
19.450259
20
4.188479
10
19.453726
20
4.173606
10
19.457117
20
4.158716
10
19.460432
20
4.143808
10
19.463671
20
4.128884
10
19.466835
20
4.113944
10
19.469922
20
4.098988
10
19.472933
20
4.084016
10
19.475868
20
4.069029
10
19.478726
20
4.054028
10
19.481508
20
4.039012
10
19.484214
20
4.023982
10
19.486843
20
4.008938
10
19.489396
20
3.993881
10
19.491871
20
3.978812
10
19.494270
20
3.963730
10
19.496593
20
3.948636
10
19.498838
20
3.933530
10
19.501006
20
3.918414
10
19.503098
20
3.903286
10
19.505112
20
3.888148
10
19.507049
20
3.873000
10
19.508910
20
3.857842
10
19.510693
20
3.842675
10
19.512398
20
3.827499
10
19.514027
20
3.812314
10
19.515578
20
3.797122
10
19.517052
20
3.781921
10
19.518448
20
3.766714
10
19.519767
20
3.751499
10
19.521009
20
3.736278
10
19.522173
20
3.721051
10
19.523259
20
3.705818
10
19.524268
20
3.690580
10
19.525200
20
3.675337
10
19.526053
20
3.660089
10
19.526830
20
3.644838
10
19.527528
20
3.629582
10
19.528149
20
3.614323
10
19.528692
20
3.599061
10
19.529157
20
3.583797
10
19.529545
20
3.568530
10
19.529855
20
3.553262
10
19.530087
20
3.537992
10
19.530242
20
3.522721
10
19.530319
20
3.507450
10
19.530318
20
3.492178
10
19.530239
20
3.476907
10
19.530083
20
3.461636
10
19.529848
20
3.446366
10
19.529537
20
3.431098
10
19.529147
20
3.415832
10
19.528680
20
3.400567
10
19.528135
20
3.385305
10
19.527512
20
3.370046
10
19.526812
20
3.354791
10
19.526034
20
3.339539
10
19.525178
20
3.324292
10
19.524245
20
3.309049
10
19.523234
20
3.293811
10
19.522145
20
3.278578
10
19.520980
20
3.263351
10
19.519736
20
3.248130
10
19.518415
20
3.232916
10
19.517017
20
3.217708
10
19.515541
20
3.202508
10
19.513988
20
3.187316
10
19.512358
20
3.172132
10
19.510650
20
3.156956
10
19.508865
20
3.141789
10
19.507003
20
3.126631
10
19.505064
20
3.111484
10
19.503048
20
3.096346
10
19.500954
20
3.081218
10
19.498784
20
3.066102
10
19.496537
20
3.050996
10
19.494213
20
3.035903
10
19.491812
20
3.020821
10
19.489334
20
3.005752
10
19.486780
20
2.990695
10
19.484149
20
2.975652
10
19.481442
20
2.960623
10
19.478658
20
2.945607
10
19.475797
20
2.930606
10
19.472861
20
2.915619
10
19.469848
20
2.900648
10
19.466759
20
2.885692
10
19.463593
20
2.870752
10
19.460352
20
2.855828
10
19.457035
20
2.840921
10
19.453642
20
2.826032
10
19.450173
20
2.811159
10
19.446629
20
2.796305
10
19.443009
20
2.781468
10
19.439314
20
2.766651
10
19.435543
20
2.751852
10
19.431697
20
2.737073
10
19.427776
20
2.722313
10
19.423779
20
2.707574
10
19.419708
20
2.692855
10
19.415562
20
2.678157
10
19.411341
20
2.663480
10
19.407045
20
2.648825
10
19.402675
20
2.634192
10
19.398230
20
2.619582
10
19.393711
20
2.604994
10
19.389118
20
2.590430
10
19.384451
20
2.575889
10
19.379710
20
2.561372
10
19.374895
20
2.546879
10
19.370006
20
2.532412
10
19.365044
20
2.517969
10
19.360008
20
2.503551
10
19.354899
20
2.489160
10
19.349717
20
2.474794
10
19.344461
20
2.460456
10
19.339133
20
2.446144
10
19.333732
20
2.431859
10
19.328258
20
2.417602
10
19.322712
20
2.403373
10
19.317094
20
2.389173
10
19.311403
20
2.375001
10
19.305640
20
2.360859
10
19.299805
20
2.346746
10
19.293899
20
2.332663
10
19.287921
20
2.318610
10
19.281871
20
2.304588
10
19.275750
20
2.290596
10
19.269558
20
2.276637
10
19.263295
20
2.262708
10
19.256961
20
2.248812
10
19.250557
20
2.234949
10
19.244082
20
2.221118
10
19.237536
20
2.207320
10
19.230921
20
2.193556
10
19.224235
20
2.179825
10
19.217480
20
2.166129
10
19.210655
20
2.152467
10
19.203761
20
2.138840
10
19.196797
20
2.125249
10
19.189765
20
2.111693
10
19.182663
20
2.098173
10
19.175493
20
2.084690
10
19.168254
20
2.071243
10
19.160946
20
2.057833
10
19.153571
20
2.044461
10
19.146128
20
2.031126
10
19.138616
20
2.017829
10
19.131038
20
2.004571
10
19.123391
20
1.991351
10
19.115678
20
1.978171
10
19.107898
20
1.965030
10
19.100051
20
1.951929
10
19.092137
20
1.938867
10
19.084157
20
1.925847
10
19.076110
20
1.912867
10
19.067998
20
1.899928
10
19.059820
20
1.887031
10
19.051576
20
1.874175
10
19.043268
20
1.861362
10
19.034894
20
1.848591
10
19.026455
20
1.835863
10
19.017951
20
1.823178
10
19.009383
20
1.810537
10
19.000751
20
1.797939
10
18.992054
20
1.785385
10
18.983294
20
1.772876
10
18.974470
20
1.760412
10
18.965583
20
1.747992
10
18.956633
20
1.735618
10
18.947620
20
1.723290
10
18.938544
20
1.711008
10
18.929406
20
1.698772
10
18.920206
20
1.686583
10
18.910944
20
1.674441
10
18.901620
20
1.662346
10
18.892235
20
1.650299
10
18.882788
20
1.638299
10
18.873281
20
1.626348
10
18.863713
20
1.614446
10
18.854084
20
1.602592
10
18.844395
20
1.590787
10
18.834646
20
1.579032
10
18.824838
20
1.567327
10
18.814970
20
1.555672
10
18.805043
20
1.544067
10
18.795056
20
1.532513
10
18.785012
20
1.521010
10
18.774908
20
1.509558
10
18.764747
20
1.498158
10
18.754528
20
1.486810
10
18.744251
20
1.475513
10
18.733916
20
1.464270
10
18.723525
20
1.453079
10
18.713077
20
1.441941
10
18.702572
20
1.430856
10
18.692011
20
1.419825
10
18.681394
20
1.408848
10
18.670721
20
1.397925
10
18.659992
20
1.387057
10
18.649209
20
1.376243
10
18.638370
20
1.365484
10
18.627477
20
1.354781
10
18.616530
20
1.344133
10
18.605528
20
1.333541
10
18.594473
20
1.323006
10
18.583364
20
1.312526
10
18.572203
20
1.302104
10
18.560988
20
1.291738
10
18.549720
20
1.281430
10
18.538400
20
1.271179
10
18.527029
20
1.260985
10
18.515605
20
1.250850
10
18.504130
20
1.240773
10
18.492604
20
1.230755
10
18.481027
20
1.220795
10
18.469399
20
1.210895
10
18.457721
20
1.201054
10
18.445994
20
1.191272
10
18.434216
20
1.181550
10
18.422390
20
1.171889
10
18.410514
20
1.162287
10
18.398589
20
1.152746
10
18.386616
20
1.143266
10
18.374595
20
1.133848
10
18.362527
20
1.124490
10
18.350410
20
1.115194
10
18.338247
20
1.105960
10
18.326037
20
1.096788
10
18.313780
20
1.087678
10
18.301477
20
1.078630
10
18.289128
20
1.069646
10
18.276733
20
1.060724
10
18.264294
20
1.051865
10
18.251809
20
1.043070
10
18.239280
20
1.034339
10
18.226706
20
1.025672
10
18.214088
20
1.017068
10
18.201427
20
1.008529
10
18.188723
20
1.000055
10
18.175975
20
0.991645
10
18.163185
20
0.983300
10
18.150353
20
0.975021
10
18.137478
20
0.966807
10
18.124562
20
0.958659
10
18.111605
20
0.950576
10
18.098607
20
0.942560
10
18.085568
20
0.934609
10
18.072488
20
0.926726
10
18.059369
20
0.918909
10
18.046210
20
0.911159
10
18.033012
20
0.903475
10
18.019775
20
0.895860
10
18.006499
20
0.888311
10
17.993186
20
0.880831
10
17.979834
20
0.873418
10
17.966444
20
0.866073
10
17.953018
20
0.858797
10
17.939554
20
0.851589
10
17.926054
20
0.844450
10
17.912518
20
0.837379
10
17.898946
20
0.830378
10
17.885339
20
0.823445
10
17.871696
20
0.816582
10
17.858019
20
0.809789
10
17.844307
20
0.803065
10
17.830561
20
0.796411
10
17.816782
20
0.789827
10
17.802969
20
0.783314
10
17.789123
20
0.776871
10
17.775245
20
0.770498
10
17.761334
20
0.764196
10
17.747392
20
0.757965
10
17.733418
20
0.751805
10
17.719412
20
0.745716
10
17.705376
20
0.739699
10
17.691310
20
0.733753
10
17.677213
20
0.727879
10
17.663087
20
0.722077
10
17.648931
20
0.716346
10
17.634746
20
0.710688
10
17.620533
20
0.705102
10
17.606292
20
0.699589
10
17.592022
20
0.694148
10
17.577725
20
0.688780
10
17.563401
20
0.683484
10
17.549050
20
0.678262
10
17.534673
20
0.673113
10
17.520270
20
0.668037
10
17.505841
20
0.663034
10
17.491387
20
0.658105
10
17.476907
20
0.653250
10
17.016023
20
0.500000
10
20.530328
20
0.500000
10
25.019710
20
5.503498
10
25.029937
20
5.514838
10
25.040223
20
5.526127
10
25.050565
20
5.537363
10
25.060965
20
5.548546
10
25.071422
20
5.559677
10
25.081935
20
5.570753
10
25.092504
20
5.581777
10
25.103129
20
5.592746
10
25.113810
20
5.603661
10
25.124547
20
5.614521
10
25.135338
20
5.625327
10
25.146184
20
5.636078
10
25.157085
20
5.646773
10
25.168041
20
5.657412
10
25.179050
20
5.667996
10
25.190113
20
5.678524
10
25.201230
20
5.688995
10
25.212399
20
5.699409
10
25.223622
20
5.709767
10
25.234897
20
5.720067
10
25.246224
20
5.730309
10
25.257604
20
5.740494
10
25.269035
20
5.750621
10
25.280517
20
5.760689
10
25.292051
20
5.770699
10
25.303635
20
5.780650
10
25.315270
20
5.790542
10
25.326955
20
5.800374
10
25.338690
20
5.810147
10
25.350475
20
5.819860
10
25.362309
20
5.829513
10
25.374192
20
5.839106
10
25.386123
20
5.848638
10
25.398103
20
5.858109
10
25.410131
20
5.867519
10
25.422207
20
5.876867
10
25.434330
20
5.886154
10
25.446500
20
5.895380
10
25.458717
20
5.904543
10
25.470981
20
5.913644
10
25.483291
20
5.922682
10
25.495646
20
5.931657
10
25.508047
20
5.940570
10
25.520494
20
5.949419
10
25.532985
20
5.958205
10
25.545521
20
5.966927
10
25.558101
20
5.975585
10
25.570725
20
5.984179
10
25.583392
20
5.992709
10
25.596103
20
6.001174
10
25.608856
20
6.009574
10
25.621653
20
6.017909
10
25.634491
20
6.026179
10
25.647372
20
6.034384
10
25.660294
20
6.042522
10
25.673257
20
6.050595
10
25.686261
20
6.058602
10
25.699306
20
6.066543
10
25.712391
20
6.074417
10
25.725516
20
6.082224
10
25.738681
20
6.089964
10
25.751885
20
6.097638
10
25.765128
20
6.105244
10
25.778409
20
6.112782
10
25.791728
20
6.120253
10
25.805086
20
6.127656
10
25.818480
20
6.134990
10
25.831912
20
6.142257
10
25.845381
20
6.149455
10
25.858887
20
6.156584
10
25.872428
20
6.163645
10
25.886005
20
6.170636
10
25.899618
20
6.177558
10
25.913265
20
6.184411
10
25.926948
20
6.191195
10
25.940664
20
6.197908
10
25.954415
20
6.204552
10
25.968199
20
6.211126
10
25.982017
20
6.217629
10
25.995868
20
6.224062
10
26.009751
20
6.230424
10
26.023666
20
6.236716
10
26.037613
20
6.242936
10
26.051592
20
6.249086
10
26.065602
20
6.255164
10
26.079642
20
6.261171
10
26.093713
20
6.267107
10
26.107814
20
6.272970
10
26.121945
20
6.278762
10
26.136105
20
6.284482
10
26.150294
20
6.290130
10
26.164511
20
6.295705
10
26.178757
20
6.301208
10
26.193030
20
6.306638
10
26.207331
20
6.311996
10
26.221659
20
6.317281
10
26.236014
20
6.322492
10
26.250395
20
6.327631
10
26.264802
20
6.332696
10
26.279234
20
6.337688
10
26.293692
20
6.342606
10
26.308175
20
6.347451
10
26.322682
20
6.352222
10
26.337213
20
6.356919
10
26.351768
20
6.361542
10
26.366347
20
6.366091
10
26.380948
20
6.370565
10
26.395572
20
6.374966
10
26.410218
20
6.379291
10
26.424886
20
6.383542
10
26.439576
20
6.387719
10
26.454286
20
6.391820
10
26.469017
20
6.395847
10
26.483769
20
6.399798
10
26.498540
20
6.403675
10
26.513331
20
6.407476
10
26.528141
20
6.411202
10
26.542970
20
6.414852
10
26.557817
20
6.418427
10
26.572682
20
6.421926
10
26.587565
20
6.425350
10
26.602465
20
6.428697
10
26.617382
20
6.431969
10
26.632316
20
6.435165
10
26.647265
20
6.438285
10
26.662230
20
6.441328
10
26.677211
20
6.444296
10
26.692206
20
6.447187
10
26.707216
20
6.450001
10
26.722240
20
6.452740
10
26.737278
20
6.455401
10
26.752329
20
6.457987
10
26.767393
20
6.460495
10
26.782470
20
6.462927
10
26.797559
20
6.465282
10
26.812659
20
6.467560
10
26.827772
20
6.469761
10
26.842895
20
6.471886
10
26.858028
20
6.473933
10
26.873172
20
6.475903
10
26.888326
20
6.477797
10
26.903489
20
6.479613
10
26.918661
20
6.481351
10
26.933842
20
6.483013
10
26.949031
20
6.484597
10
26.964228
20
6.486104
10
26.979433
20
6.487533
10
26.994644
20
6.488885
10
27.009863
20
6.490160
10
27.025087
20
6.491357
10
27.040318
20
6.492477
10
27.055554
20
6.493519
10
27.070795
20
6.494483
10
27.086041
20
6.495370
10
27.101291
20
6.496180
10
27.116545
20
6.496911
10
27.131802
20
6.497565
10
27.147063
20
6.498142
10
27.162326
20
6.498640
10
27.177592
20
6.499061
10
27.192860
20
6.499404
10
27.208129
20
6.499670
10
27.223399
20
6.499857
10
27.238670
20
6.499967
10
27.253942
20
6.500000
10
27.269213
20
6.499954
10
27.284485
20
6.499831
10
27.299755
20
6.499630
10
27.315024
20
6.499351
10
27.330291
20
6.498995
10
27.345556
20
6.498561
10
27.360819
20
6.498049
10
27.376080
20
6.497460
10
27.391337
20
6.496792
10
27.406590
20
6.496048
10
27.421839
20
6.495225
10
27.437084
20
6.494325
10
27.452325
20
6.493347
10
27.467560
20
6.492292
10
27.482789
20
6.491159
10
27.498013
20
6.489949
10
27.513230
20
6.488661
10
27.528440
20
6.487296
10
27.543643
20
6.485853
10
27.558839
20
6.484333
10
27.574027
20
6.482736
10
27.589206
20
6.481061
10
27.604377
20
6.479309
10
27.619539
20
6.477480
10
27.634691
20
6.475574
10
27.649833
20
6.473591
10
27.664965
20
6.471530
10
27.680086
20
6.469393
10
27.695196
20
6.467178
10
27.710295
20
6.464887
10
27.725382
20
6.462519
10
27.740456
20
6.460074
10
27.755518
20
6.457553
10
27.770567
20
6.454954
10
27.785603
20
6.452280
10
27.800624
20
6.449528
10
27.815632
20
6.446701
10
27.830625
20
6.443797
10
27.845603
20
6.440816
10
27.860565
20
6.437760
10
27.875512
20
6.434627
10
27.890443
20
6.431418
10
27.905357
20
6.428134
10
27.920254
20
6.424773
10
27.935134
20
6.421337
10
27.949996
20
6.417825
10
27.964840
20
6.414237
10
27.979666
20
6.410574
10
27.994473
20
6.406835
10
28.009260
20
6.403021
10
28.024028
20
6.399132
10
28.038776
20
6.395168
10
28.053504
20
6.391128
10
28.068211
20
6.387014
10
28.082897
20
6.382825
10
28.097561
20
6.378561
10
28.112203
20
6.374223
10
28.126823
20
6.369810
10
28.141421
20
6.365323
10
28.155995
20
6.360762
10
28.170546
20
6.356126
10
28.185074
20
6.351416
10
28.199577
20
6.346633
10
28.214055
20
6.341776
10
28.228509
20
6.336845
10
28.242937
20
6.331840
10
28.257340
20
6.326763
10
28.271716
20
6.321612
10
28.286066
20
6.316387
10
28.300390
20
6.311090
10
28.314686
20
6.305720
10
28.328955
20
6.300278
10
28.343196
20
6.294762
10
28.357408
20
6.289175
10
28.371592
20
6.283515
10
28.385747
20
6.277783
10
28.399873
20
6.271979
10
28.413969
20
6.266103
10
28.428035
20
6.260155
10
28.442070
20
6.254136
10
28.456075
20
6.248046
10
28.470048
20
6.241884
10
28.483990
20
6.235651
10
28.497900
20
6.229348
10
28.511777
20
6.222973
10
28.525622
20
6.216529
10
28.539434
20
6.210013
10
28.553213
20
6.203428
10
28.566958
20
6.196772
10
28.580669
20
6.190047
10
28.594345
20
6.183252
10
28.607987
20
6.176387
10
28.621593
20
6.169453
10
28.635164
20
6.162450
10
28.648700
20
6.155377
10
28.662199
20
6.148236
10
28.675661
20
6.141027
10
28.689087
20
6.133749
10
28.702476
20
6.126402
10
28.715827
20
6.118988
10
28.729140
20
6.111506
10
28.742414
20
6.103956
10
28.755650
20
6.096338
10
28.768848
20
6.088654
10
28.782005
20
6.080902
10
28.795124
20
6.073083
10
28.808202
20
6.065198
10
28.821240
20
6.057246
10
28.834237
20
6.049228
10
28.847194
20
6.041144
10
28.860109
20
6.032994
10
28.872982
20
6.024778
10
28.885813
20
6.016497
10
28.898603
20
6.008151
10
28.911349
20
5.999740
10
28.924052
20
5.991264
10
28.936713
20
5.982723
10
28.949329
20
5.974118
10
28.961902
20
5.965449
10
28.974430
20
5.956716
10
28.986913
20
5.947920
10
28.999352
20
5.939060
10
29.011745
20
5.930136
10
29.024093
20
5.921150
10
29.036395
20
5.912101
10
29.048651
20
5.902990
10
29.060860
20
5.893816
10
29.073022
20
5.884580
10
29.085137
20
5.875283
10
29.097205
20
5.865924
10
29.109225
20
5.856503
10
29.121197
20
5.847022
10
29.133120
20
5.837480
10
29.144994
20
5.827877
10
29.156820
20
5.818214
10
29.168596
20
5.808490
10
29.180323
20
5.798707
10
29.191999
20
5.788865
10
29.203626
20
5.778963
10
29.215201
20
5.769002
10
29.226726
20
5.758982
10
29.238200
20
5.748904
10
29.249622
20
5.738767
10
29.260993
20
5.728572
10
29.272312
20
5.718320
10
29.283578
20
5.708010
10
29.294791
20
5.697643
10
29.305952
20
5.687219
10
29.317059
20
5.676738
10
29.328113
20
5.666201
10
29.339113
20
5.655608
10
29.350060
20
5.644959
10
29.360951
20
5.634254
10
29.371788
20
5.623494
10
29.382571
20
5.612679
10
29.393298
20
5.601810
10
29.403969
20
5.590885
10
29.414585
20
5.579907
10
29.425145
20
5.568875
10
29.435648
20
5.557789
10
29.446095
20
5.546649
10
29.456485
20
5.535457
10
29.466818
20
5.524212
10
29.477093
20
5.512915
10
29.487311
20
5.501565
10
29.497471
20
5.490164
10
29.507573
20
5.478710
10
29.517617
20
5.467206
10
29.527601
20
5.455651
10
29.537527
20
5.444045
10
29.547394
20
5.432388
10
29.557201
20
5.420682
10
29.566948
20
5.408926
10
29.576636
20
5.397120
10
29.586263
20
5.385265
10
29.595829
20
5.373361
10
29.605335
20
5.361409
10
29.614780
20
5.349409
10
29.624164
20
5.337360
10
29.633487
20
5.325264
10
29.642747
20
5.313121
10
29.651946
20
5.300931
10
29.661083
20
5.288694
10
29.670157
20
5.276410
10
29.679168
20
5.264081
10
29.688117
20
5.251706
10
29.697002
20
5.239285
10
29.705824
20
5.226820
10
29.714583
20
5.214310
10
29.723278
20
5.201755
10
29.731909
20
5.189156
10
29.740475
20
5.176514
10
29.748977
20
5.163827
10
29.757415
20
5.151098
10
29.765787
20
5.138326
10
29.774094
20
5.125512
10
29.782336
20
5.112656
10
29.790513
20
5.099757
10
29.798623
20
5.086818
10
29.806668
20
5.073837
10
29.814647
20
5.060815
10
29.822559
20
5.047753
10
29.830404
20
5.034651
10
29.838183
20
5.021509
10
29.845895
20
5.008327
10
29.853539
20
4.995107
10
29.861116
20
4.981848
10
29.868626
20
4.968550
10
29.876068
20
4.955214
10
29.883442
20
4.941841
10
29.890747
20
4.928430
10
29.897984
20
4.914982
10
29.905153
20
4.901498
10
29.912253
20
4.887977
10
29.919284
20
4.874420
10
29.926246
20
4.860828
10
29.933139
20
4.847201
10
29.939962
20
4.833538
10
29.946715
20
4.819841
10
29.953399
20
4.806110
10
29.960013
20
4.792345
10
29.966557
20
4.778546
10
29.973030
20
4.764714
10
29.979433
20
4.750850
10
29.985765
20
4.736953
10
29.992026
20
4.723024
10
29.998216
20
4.709063
10
30.004335
20
4.695071
10
30.010383
20
4.681048
10
30.016360
20
4.666995
10
30.022265
20
4.652911
10
30.028098
20
4.638797
10
30.033859
20
4.624654
10
30.039548
20
4.610482
10
30.045164
20
4.596281
10
30.050709
20
4.582051
10
30.056181
20
4.567793
10
30.061580
20
4.553508
10
30.066907
20
4.539196
10
30.072160
20
4.524856
10
30.077341
20
4.510490
10
30.082448
20
4.496098
10
30.087482
20
4.481680
10
30.092442
20
4.467236
10
30.097329
20
4.452768
10
30.102143
20
4.438275
10
30.106882
20
4.423757
10
30.111547
20
4.409216
10
30.116139
20
4.394651
10
30.120656
20
4.380063
10
30.125099
20
4.365452
10
30.129467
20
4.350818
10
30.133761
20
4.336163
10
30.137980
20
4.321485
10
30.142124
20
4.306787
10
30.146194
20
4.292068
10
30.150188
20
4.277328
10
30.154108
20
4.262568
10
30.157952
20
4.247788
10
30.161721
20
4.232989
10
30.165415
20
4.218171
10
30.169033
20
4.203334
10
30.172575
20
4.188479
10
30.176042
20
4.173606
10
30.179433
20
4.158716
10
30.182748
20
4.143808
10
30.185988
20
4.128884
10
30.189151
20
4.113944
10
30.192238
20
4.098988
10
30.195249
20
4.084016
10
30.198184
20
4.069029
10
30.201043
20
4.054028
10
30.203825
20
4.039012
10
30.206530
20
4.023982
10
30.209159
20
4.008938
10
30.211712
20
3.993881
10
30.214188
20
3.978812
10
30.216587
20
3.963730
10
30.218909
20
3.948636
10
30.221154
20
3.933530
10
30.223323
20
3.918414
10
30.225414
20
3.903286
10
30.227428
20
3.888148
10
30.229366
20
3.873000
10
30.231226
20
3.857842
10
30.233009
20
3.842675
10
30.234715
20
3.827499
10
30.236343
20
3.812314
10
30.237894
20
3.797122
10
30.239368
20
3.781921
10
30.240765
20
3.766714
10
30.242084
20
3.751499
10
30.243325
20
3.736278
10
30.244489
20
3.721051
10
30.245576
20
3.705818
10
30.246585
20
3.690580
10
30.247516
20
3.675337
10
30.248370
20
3.660089
10
30.249146
20
3.644838
10
30.249844
20
3.629582
10
30.250465
20
3.614323
10
30.251008
20
3.599061
10
30.251474
20
3.583797
10
30.251861
20
3.568530
10
30.252171
20
3.553262
10
30.252404
20
3.537992
10
30.252558
20
3.522721
10
30.252635
20
3.507450
10
30.252634
20
3.492178
10
30.252555
20
3.476907
10
30.252399
20
3.461636
10
30.252165
20
3.446366
10
30.251853
20
3.431098
10
30.251463
20
3.415832
10
30.250996
20
3.400567
10
30.250451
20
3.385305
10
30.249828
20
3.370046
10
30.249128
20
3.354791
10
30.248350
20
3.339539
10
30.247494
20
3.324292
10
30.246561
20
3.309049
10
30.245550
20
3.293811
10
30.244462
20
3.278578
10
30.243296
20
3.263351
10
30.242052
20
3.248130
10
30.240732
20
3.232916
10
30.239333
20
3.217708
10
30.237858
20
3.202508
10
30.236304
20
3.187316
10
30.234674
20
3.172132
10
30.232966
20
3.156956
10
30.231182
20
3.141789
10
30.229320
20
3.126631
10
30.227380
20
3.111484
10
30.225364
20
3.096346
10
30.223271
20
3.081218
10
30.221100
20
3.066102
10
30.218853
20
3.050996
10
30.216529
20
3.035903
10
30.214128
20
3.020821
10
30.211651
20
3.005752
10
30.209096
20
2.990695
10
30.206465
20
2.975652
10
30.203758
20
2.960623
10
30.200974
20
2.945607
10
30.198114
20
2.930606
10
30.195177
20
2.915619
10
30.192164
20
2.900648
10
30.189075
20
2.885692
10
30.185910
20
2.870752
10
30.182669
20
2.855828
10
30.179351
20
2.840921
10
30.175959
20
2.826032
10
30.172490
20
2.811159
10
30.168945
20
2.796305
10
30.165325
20
2.781468
10
30.161630
20
2.766651
10
30.157859
20
2.751852
10
30.154013
20
2.737073
10
30.150092
20
2.722313
10
30.146096
20
2.707574
10
30.142024
20
2.692855
10
30.137878
20
2.678157
10
30.133657
20
2.663480
10
30.129361
20
2.648825
10
30.124991
20
2.634192
10
30.120547
20
2.619582
10
30.116028
20
2.604994
10
30.111435
20
2.590430
10
30.106767
20
2.575889
10
30.102026
20
2.561372
10
30.097211
20
2.546879
10
30.092322
20
2.532412
10
30.087360
20
2.517969
10
30.082324
20
2.503551
10
30.077215
20
2.489160
10
30.072033
20
2.474794
10
30.066778
20
2.460456
10
30.061449
20
2.446144
10
30.056048
20
2.431859
10
30.050575
20
2.417602
10
30.045029
20
2.403373
10
30.039410
20
2.389173
10
30.033719
20
2.375001
10
30.027956
20
2.360859
10
30.022122
20
2.346746
10
30.016215
20
2.332663
10
30.010237
20
2.318610
10
30.004187
20
2.304588
10
29.998066
20
2.290596
10
29.991874
20
2.276637
10
29.985611
20
2.262708
10
29.979278
20
2.248812
10
29.972873
20
2.234949
10
29.966398
20
2.221118
10
29.959853
20
2.207320
10
29.953237
20
2.193556
10
29.946552
20
2.179825
10
29.939797
20
2.166129
10
29.932972
20
2.152467
10
29.926077
20
2.138840
10
29.919114
20
2.125249
10
29.912081
20
2.111693
10
29.904979
20
2.098173
10
29.897809
20
2.084690
10
29.890570
20
2.071243
10
29.883263
20
2.057833
10
29.875887
20
2.044461
10
29.868444
20
2.031126
10
29.860933
20
2.017829
10
29.853354
20
2.004571
10
29.845708
20
1.991351
10
29.837994
20
1.978171
10
29.830214
20
1.965030
10
29.822367
20
1.951929
10
29.814453
20
1.938867
10
29.806473
20
1.925847
10
29.798427
20
1.912867
10
29.790314
20
1.899928
10
29.782136
20
1.887031
10
29.773893
20
1.874175
10
29.765584
20
1.861362
10
29.757210
20
1.848591
10
29.748771
20
1.835863
10
29.740267
20
1.823178
10
29.731699
20
1.810537
10
29.723067
20
1.797939
10
29.714370
20
1.785385
10
29.705610
20
1.772876
10
29.696787
20
1.760412
10
29.687900
20
1.747992
10
29.678949
20
1.735618
10
29.669936
20
1.723290
10
29.660861
20
1.711008
10
29.651723
20
1.698772
10
29.642522
20
1.686583
10
29.633260
20
1.674441
10
29.623936
20
1.662346
10
29.614551
20
1.650299
10
29.605105
20
1.638299
10
29.595597
20
1.626348
10
29.586029
20
1.614446
10
29.576400
20
1.602592
10
29.566712
20
1.590787
10
29.556963
20
1.579032
10
29.547154
20
1.567327
10
29.537286
20
1.555672
10
29.527359
20
1.544067
10
29.517373
20
1.532513
10
29.507328
20
1.521010
10
29.497225
20
1.509558
10
29.487063
20
1.498158
10
29.476844
20
1.486810
10
29.466567
20
1.475513
10
29.456233
20
1.464270
10
29.445841
20
1.453079
10
29.435393
20
1.441941
10
29.424888
20
1.430856
10
29.414327
20
1.419825
10
29.403710
20
1.408848
10
29.393037
20
1.397925
10
29.382309
20
1.387057
10
29.371525
20
1.376243
10
29.360687
20
1.365484
10
29.349794
20
1.354781
10
29.338846
20
1.344133
10
29.327845
20
1.333541
10
29.316790
20
1.323006
10
29.305681
20
1.312526
10
29.294519
20
1.302104
10
29.283304
20
1.291738
10
29.272037
20
1.281430
10
29.260717
20
1.271179
10
29.249345
20
1.260985
10
29.237921
20
1.250850
10
29.226446
20
1.240773
10
29.214920
20
1.230755
10
29.203343
20
1.220795
10
29.191716
20
1.210895
10
29.180038
20
1.201054
10
29.168310
20
1.191272
10
29.156533
20
1.181550
10
29.144706
20
1.171889
10
29.132830
20
1.162287
10
29.120906
20
1.152746
10
29.108933
20
1.143266
10
29.096912
20
1.133848
10
29.084843
20
1.124490
10
29.072727
20
1.115194
10
29.060563
20
1.105960
10
29.048353
20
1.096788
10
29.036096
20
1.087678
10
29.023793
20
1.078630
10
29.011444
20
1.069646
10
28.999050
20
1.060724
10
28.986610
20
1.051865
10
28.974125
20
1.043070
10
28.961596
20
1.034339
10
28.949022
20
1.025672
10
28.936405
20
1.017068
10
28.923744
20
1.008529
10
28.911039
20
1.000055
10
28.898292
20
0.991645
10
28.885502
20
0.983300
10
28.872669
20
0.975021
10
28.859795
20
0.966807
10
28.846879
20
0.958659
10
28.833921
20
0.950576
10
28.820923
20
0.942560
10
28.807884
20
0.934609
10
28.794805
20
0.926726
10
28.781686
20
0.918909
10
28.768527
20
0.911159
10
28.755329
20
0.903475
10
28.742091
20
0.895860
10
28.728816
20
0.888311
10
28.715502
20
0.880831
10
28.702150
20
0.873418
10
28.688761
20
0.866073
10
28.675334
20
0.858797
10
28.661871
20
0.851589
10
28.648371
20
0.844450
10
28.634834
20
0.837379
10
28.621262
20
0.830378
10
28.607655
20
0.823445
10
28.594012
20
0.816582
10
28.580335
20
0.809789
10
28.566623
20
0.803065
10
28.552878
20
0.796411
10
28.539098
20
0.789827
10
28.525285
20
0.783314
10
28.511440
20
0.776871
10
28.497561
20
0.770498
10
28.483651
20
0.764196
10
28.469708
20
0.757965
10
28.455734
20
0.751805
10
28.441729
20
0.745716
10
28.427693
20
0.739699
10
28.413626
20
0.733753
10
28.399529
20
0.727879
10
28.385403
20
0.722077
10
28.371247
20
0.716346
10
28.357063
20
0.710688
10
28.342849
20
0.705102
10
28.328608
20
0.699589
10
28.314338
20
0.694148
10
28.300041
20
0.688780
10
28.285717
20
0.683484
10
28.271367
20
0.678262
10
28.256989
20
0.673113
10
28.242586
20
0.668037
10
28.228157
20
0.663034
10
28.213703
20
0.658105
10
28.199224
20
0.653250
10
27.738339
20
0.500000
10
31.252644
20
0.500000
10
35.742026
20
5.503498
10
35.752254
20
5.514838
10
35.762539
20
5.526127
10
35.772882
20
5.537363
10
35.783281
20
5.548546
10
35.793738
20
5.559677
10
35.804251
20
5.570753
10
35.814820
20
5.581777
10
35.825445
20
5.592746
10
35.836126
20
5.603661
10
35.846863
20
5.614521
10
35.857654
20
5.625327
10
35.868501
20
5.636078
10
35.879402
20
5.646773
10
35.890357
20
5.657412
10
35.901366
20
5.667996
10
35.912429
20
5.678524
10
35.923546
20
5.688995
10
35.934716
20
5.699409
10
35.945938
20
5.709767
10
35.957213
20
5.720067
10
35.968541
20
5.730309
10
35.979920
20
5.740494
10
35.991351
20
5.750621
10
36.002834
20
5.760689
10
36.014367
20
5.770699
10
36.025952
20
5.780650
10
36.037586
20
5.790542
10
36.049272
20
5.800374
10
36.061007
20
5.810147
10
36.072791
20
5.819860
10
36.084625
20
5.829513
10
36.096508
20
5.839106
10
36.108439
20
5.848638
10
36.120419
20
5.858109
10
36.132447
20
5.867519
10
36.144523
20
5.876867
10
36.156646
20
5.886154
10
36.168817
20
5.895380
10
36.181034
20
5.904543
10
36.193297
20
5.913644
10
36.205607
20
5.922682
10
36.217963
20
5.931657
10
36.230364
20
5.940570
10
36.242810
20
5.949419
10
36.255301
20
5.958205
10
36.267837
20
5.966927
10
36.280417
20
5.975585
10
36.293041
20
5.984179
10
36.305708
20
5.992709
10
36.318419
20
6.001174
10
36.331173
20
6.009574
10
36.343969
20
6.017909
10
36.356808
20
6.026179
10
36.369688
20
6.034384
10
36.382610
20
6.042522
10
36.395574
20
6.050595
10
36.408578
20
6.058602
10
36.421623
20
6.066543
10
36.434708
20
6.074417
10
36.447833
20
6.082224
10
36.460997
20
6.089964
10
36.474201
20
6.097638
10
36.487444
20
6.105244
10
36.500725
20
6.112782
10
36.514045
20
6.120253
10
36.527402
20
6.127656
10
36.540797
20
6.134990
10
36.554229
20
6.142257
10
36.567698
20
6.149455
10
36.581203
20
6.156584
10
36.594744
20
6.163645
10
36.608321
20
6.170636
10
36.621934
20
6.177558
10
36.635582
20
6.184411
10
36.649264
20
6.191195
10
36.662981
20
6.197908
10
36.676731
20
6.204552
10
36.690516
20
6.211126
10
36.704333
20
6.217629
10
36.718184
20
6.224062
10
36.732067
20
6.230424
10
36.745982
20
6.236716
10
36.759930
20
6.242936
10
36.773908
20
6.249086
10
36.787918
20
6.255164
10
36.801959
20
6.261171
10
36.816029
20
6.267107
10
36.830130
20
6.272970
10
36.844261
20
6.278762
10
36.858421
20
6.284482
10
36.872610
20
6.290130
10
36.886827
20
6.295705
10
36.901073
20
6.301208
10
36.915346
20
6.306638
10
36.929647
20
6.311996
10
36.943975
20
6.317281
10
36.958330
20
6.322492
10
36.972711
20
6.327631
10
36.987118
20
6.332696
10
37.001551
20
6.337688
10
37.016009
20
6.342606
10
37.030491
20
6.347451
10
37.044999
20
6.352222
10
37.059530
20
6.356919
10
37.074085
20
6.361542
10
37.088663
20
6.366091
10
37.103264
20
6.370565
10
37.117888
20
6.374966
10
37.132535
20
6.379291
10
37.147202
20
6.383542
10
37.161892
20
6.387719
10
37.176602
20
6.391820
10
37.191333
20
6.395847
10
37.206085
20
6.399798
10
37.220856
20
6.403675
10
37.235647
20
6.407476
10
37.250457
20
6.411202
10
37.265286
20
6.414852
10
37.280133
20
6.418427
10
37.294999
20
6.421926
10
37.309882
20
6.425350
10
37.324782
20
6.428697
10
37.339699
20
6.431969
10
37.354632
20
6.435165
10
37.369582
20
6.438285
10
37.384547
20
6.441328
10
37.399527
20
6.444296
10
37.414523
20
6.447187
10
37.429532
20
6.450001
10
37.444557
20
6.452740
10
37.459594
20
6.455401
10
37.474645
20
6.457987
10
37.489710
20
6.460495
10
37.504786
20
6.462927
10
37.519875
20
6.465282
10
37.534976
20
6.467560
10
37.550088
20
6.469761
10
37.565211
20
6.471886
10
37.580345
20
6.473933
10
37.595489
20
6.475903
10
37.610642
20
6.477797
10
37.625805
20
6.479613
10
37.640978
20
6.481351
10
37.656159
20
6.483013
10
37.671348
20
6.484597
10
37.686545
20
6.486104
10
37.701749
20
6.487533
10
37.716961
20
6.488885
10
37.732179
20
6.490160
10
37.747404
20
6.491357
10
37.762634
20
6.492477
10
37.777870
20
6.493519
10
37.793111
20
6.494483
10
37.808357
20
6.495370
10
37.823607
20
6.496180
10
37.838861
20
6.496911
10
37.854119
20
6.497565
10
37.869379
20
6.498142
10
37.884643
20
6.498640
10
37.899908
20
6.499061
10
37.915176
20
6.499404
10
37.930445
20
6.499670
10
37.945716
20
6.499857
10
37.960987
20
6.499967
10
37.976258
20
6.500000
10
37.991530
20
6.499954
10
38.006801
20
6.499831
10
38.022071
20
6.499630
10
38.037340
20
6.499351
10
38.052607
20
6.498995
10
38.067873
20
6.498561
10
38.083136
20
6.498049
10
38.098396
20
6.497460
10
38.113653
20
6.496792
10
38.128906
20
6.496048
10
38.144156
20
6.495225
10
38.159401
20
6.494325
10
38.174641
20
6.493347
10
38.189876
20
6.492292
10
38.205105
20
6.491159
10
38.220329
20
6.489949
10
38.235546
20
6.488661
10
38.250756
20
6.487296
10
38.265960
20
6.485853
10
38.281155
20
6.484333
10
38.296343
20
6.482736
10
38.311523
20
6.481061
10
38.326693
20
6.479309
10
38.341855
20
6.477480
10
38.357007
20
6.475574
10
38.372149
20
6.473591
10
38.387281
20
6.471530
10
38.402402
20
6.469393
10
38.417513
20
6.467178
10
38.432611
20
6.464887
10
38.447698
20
6.462519
10
38.462773
20
6.460074
10
38.477835
20
6.457553
10
38.492884
20
6.454954
10
38.507919
20
6.452280
10
38.522941
20
6.449528
10
38.537948
20
6.446701
10
38.552941
20
6.443797
10
38.567919
20
6.440816
10
38.582881
20
6.437760
10
38.597828
20
6.434627
10
38.612759
20
6.431418
10
38.627673
20
6.428134
10
38.642570
20
6.424773
10
38.657450
20
6.421337
10
38.672312
20
6.417825
10
38.687157
20
6.414237
10
38.701982
20
6.410574
10
38.716789
20
6.406835
10
38.731577
20
6.403021
10
38.746345
20
6.399132
10
38.761093
20
6.395168
10
38.775820
20
6.391128
10
38.790527
20
6.387014
10
38.805213
20
6.382825
10
38.819877
20
6.378561
10
38.834520
20
6.374223
10
38.849140
20
6.369810
10
38.863737
20
6.365323
10
38.878312
20
6.360762
10
38.892863
20
6.356126
10
38.907390
20
6.351416
10
38.921893
20
6.346633
10
38.936371
20
6.341776
10
38.950825
20
6.336845
10
38.965253
20
6.331840
10
38.979656
20
6.326763
10
38.994033
20
6.321612
10
39.008383
20
6.316387
10
39.022706
20
6.311090
10
39.037003
20
6.305720
10
39.051271
20
6.300278
10
39.065512
20
6.294762
10
39.079725
20
6.289175
10
39.093909
20
6.283515
10
39.108064
20
6.277783
10
39.122189
20
6.271979
10
39.136285
20
6.266103
10
39.150351
20
6.260155
10
39.164386
20
6.254136
10
39.178391
20
6.248046
10
39.192364
20
6.241884
10
39.206306
20
6.235651
10
39.220216
20
6.229348
10
39.234093
20
6.222973
10
39.247938
20
6.216529
10
39.261750
20
6.210013
10
39.275529
20
6.203428
10
39.289274
20
6.196772
10
39.302985
20
6.190047
10
39.316661
20
6.183252
10
39.330303
20
6.176387
10
39.343910
20
6.169453
10
39.357481
20
6.162450
10
39.371016
20
6.155377
10
39.384515
20
6.148236
10
39.397978
20
6.141027
10
39.411403
20
6.133749
10
39.424792
20
6.126402
10
39.438143
20
6.118988
10
39.451456
20
6.111506
10
39.464731
20
6.103956
10
39.477967
20
6.096338
10
39.491164
20
6.088654
10
39.504322
20
6.080902
10
39.517440
20
6.073083
10
39.530518
20
6.065198
10
39.543556
20
6.057246
10
39.556554
20
6.049228
10
39.569510
20
6.041144
10
39.582425
20
6.032994
10
39.595298
20
6.024778
10
39.608130
20
6.016497
10
39.620919
20
6.008151
10
39.633665
20
5.999740
10
39.646369
20
5.991264
10
39.659029
20
5.982723
10
39.671645
20
5.974118
10
39.684218
20
5.965449
10
39.696746
20
5.956716
10
39.709230
20
5.947920
10
39.721668
20
5.939060
10
39.734062
20
5.930136
10
39.746410
20
5.921150
10
39.758711
20
5.912101
10
39.770967
20
5.902990
10
39.783176
20
5.893816
10
39.795339
20
5.884580
10
39.807454
20
5.875283
10
39.819521
20
5.865924
10
39.831541
20
5.856503
10
39.843513
20
5.847022
10
39.855436
20
5.837480
10
39.867311
20
5.827877
10
39.879136
20
5.818214
10
39.890912
20
5.808490
10
39.902639
20
5.798707
10
39.914316
20
5.788865
10
39.925942
20
5.778963
10
39.937518
20
5.769002
10
39.949043
20
5.758982
10
39.960516
20
5.748904
10
39.971939
20
5.738767
10
39.983309
20
5.728572
10
39.994628
20
5.718320
10
40.005894
20
5.708010
10
40.017108
20
5.697643
10
40.028268
20
5.687219
10
40.039376
20
5.676738
10
40.050430
20
5.666201
10
40.061430
20
5.655608
10
40.072376
20
5.644959
10
40.083268
20
5.634254
10
40.094105
20
5.623494
10
40.104887
20
5.612679
10
40.115614
20
5.601810
10
40.126285
20
5.590885
10
40.136901
20
5.579907
10
40.147461
20
5.568875
10
40.157964
20
5.557789
10
40.168411
20
5.546649
10
40.178801
20
5.535457
10
40.189134
20
5.524212
10
40.199410
20
5.512915
10
40.209628
20
5.501565
10
40.219788
20
5.490164
10
40.229890
20
5.478710
10
40.239933
20
5.467206
10
40.249918
20
5.455651
10
40.259843
20
5.444045
10
40.269710
20
5.432388
10
40.279517
20
5.420682
10
40.289264
20
5.408926
10
40.298952
20
5.397120
10
40.308579
20
5.385265
10
40.318146
20
5.373361
10
40.327652
20
5.361409
10
40.337097
20
5.349409
10
40.346481
20
5.337360
10
40.355803
20
5.325264
10
40.365064
20
5.313121
10
40.374262
20
5.300931
10
40.383399
20
5.288694
10
40.392473
20
5.276410
10
40.401484
20
5.264081
10
40.410433
20
5.251706
10
40.419319
20
5.239285
10
40.428141
20
5.226820
10
40.436899
20
5.214310
10
40.445594
20
5.201755
10
40.454225
20
5.189156
10
40.462791
20
5.176514
10
40.471293
20
5.163827
10
40.479731
20
5.151098
10
40.488103
20
5.138326
10
40.496411
20
5.125512
10
40.504653
20
5.112656
10
40.512829
20
5.099757
10
40.520940
20
5.086818
10
40.528984
20
5.073837
10
40.536963
20
5.060815
10
40.544875
20
5.047753
10
40.552721
20
5.034651
10
40.560499
20
5.021509
10
40.568211
20
5.008327
10
40.575856
20
4.995107
10
40.583433
20
4.981848
10
40.590942
20
4.968550
10
40.598384
20
4.955214
10
40.605758
20
4.941841
10
40.613064
20
4.928430
10
40.620301
20
4.914982
10
40.627469
20
4.901498
10
40.634569
20
4.887977
10
40.641600
20
4.874420
10
40.648562
20
4.860828
10
40.655455
20
4.847201
10
40.662278
20
4.833538
10
40.669032
20
4.819841
10
40.675716
20
4.806110
10
40.682329
20
4.792345
10
40.688873
20
4.778546
10
40.695346
20
4.764714
10
40.701749
20
4.750850
10
40.708081
20
4.736953
10
40.714342
20
4.723024
10
40.720533
20
4.709063
10
40.726652
20
4.695071
10
40.732700
20
4.681048
10
40.738676
20
4.666995
10
40.744581
20
4.652911
10
40.750414
20
4.638797
10
40.756175
20
4.624654
10
40.761864
20
4.610482
10
40.767481
20
4.596281
10
40.773025
20
4.582051
10
40.778497
20
4.567793
10
40.783896
20
4.553508
10
40.789223
20
4.539196
10
40.794476
20
4.524856
10
40.799657
20
4.510490
10
40.804764
20
4.496098
10
40.809798
20
4.481680
10
40.814759
20
4.467236
10
40.819646
20
4.452768
10
40.824459
20
4.438275
10
40.829198
20
4.423757
10
40.833864
20
4.409216
10
40.838455
20
4.394651
10
40.842972
20
4.380063
10
40.847415
20
4.365452
10
40.851783
20
4.350818
10
40.856077
20
4.336163
10
40.860296
20
4.321485
10
40.864441
20
4.306787
10
40.868510
20
4.292068
10
40.872505
20
4.277328
10
40.876424
20
4.262568
10
40.880268
20
4.247788
10
40.884037
20
4.232989
10
40.887731
20
4.218171
10
40.891349
20
4.203334
10
40.894892
20
4.188479
10
40.898358
20
4.173606
10
40.901749
20
4.158716
10
40.905065
20
4.143808
10
40.908304
20
4.128884
10
40.911467
20
4.113944
10
40.914555
20
4.098988
10
40.917566
20
4.084016
10
40.920501
20
4.069029
10
40.923359
20
4.054028
10
40.926141
20
4.039012
10
40.928847
20
4.023982
10
40.931476
20
4.008938
10
40.934028
20
3.993881
10
40.936504
20
3.978812
10
40.938903
20
3.963730
10
40.941225
20
3.948636
10
40.943471
20
3.933530
10
40.945639
20
3.918414
10
40.947730
20
3.903286
10
40.949745
20
3.888148
10
40.951682
20
3.873000
10
40.953542
20
3.857842
10
40.955325
20
3.842675
10
40.957031
20
3.827499
10
40.958660
20
3.812314
10
40.960211
20
3.797122
10
40.961685
20
3.781921
10
40.963081
20
3.766714
10
40.964400
20
3.751499
10
40.965642
20
3.736278
10
40.966806
20
3.721051
10
40.967892
20
3.705818
10
40.968901
20
3.690580
10
40.969832
20
3.675337
10
40.970686
20
3.660089
10
40.971462
20
3.644838
10
40.972161
20
3.629582
10
40.972781
20
3.614323
10
40.973325
20
3.599061
10
40.973790
20
3.583797
10
40.974178
20
3.568530
10
40.974488
20
3.553262
10
40.974720
20
3.537992
10
40.974875
20
3.522721
10
40.974951
20
3.507450
10
40.974950
20
3.492178
10
40.974872
20
3.476907
10
40.974715
20
3.461636
10
40.974481
20
3.446366
10
40.974169
20
3.431098
10
40.973780
20
3.415832
10
40.973312
20
3.400567
10
40.972767
20
3.385305
10
40.972145
20
3.370046
10
40.971444
20
3.354791
10
40.970666
20
3.339539
10
40.969811
20
3.324292
10
40.968877
20
3.309049
10
40.967866
20
3.293811
10
40.966778
20
3.278578
10
40.965612
20
3.263351
10
40.964369
20
3.248130
10
40.963048
20
3.232916
10
40.961650
20
3.217708
10
40.960174
20
3.202508
10
40.958621
20
3.187316
10
40.956990
20
3.172132
10
40.955283
20
3.156956
10
40.953498
20
3.141789
10
40.951636
20
3.126631
10
40.949697
20
3.111484
10
40.947680
20
3.096346
10
40.945587
20
3.081218
10
40.943417
20
3.066102
10
40.941170
20
3.050996
10
40.938845
20
3.035903
10
40.936445
20
3.020821
10
40.933967
20
3.005752
10
40.931413
20
2.990695
10
40.928782
20
2.975652
10
40.926074
20
2.960623
10
40.923290
20
2.945607
10
40.920430
20
2.930606
10
40.917493
20
2.915619
10
40.914480
20
2.900648
10
40.911391
20
2.885692
10
40.908226
20
2.870752
10
40.904985
20
2.855828
10
40.901668
20
2.840921
10
40.898275
20
2.826032
10
40.894806
20
2.811159
10
40.891262
20
2.796305
10
40.887642
20
2.781468
10
40.883946
20
2.766651
10
40.880176
20
2.751852
10
40.876330
20
2.737073
10
40.872408
20
2.722313
10
40.868412
20
2.707574
10
40.864341
20
2.692855
10
40.860194
20
2.678157
10
40.855973
20
2.663480
10
40.851678
20
2.648825
10
40.847308
20
2.634192
10
40.842863
20
2.619582
10
40.838344
20
2.604994
10
40.833751
20
2.590430
10
40.829084
20
2.575889
10
40.824343
20
2.561372
10
40.819528
20
2.546879
10
40.814639
20
2.532412
10
40.809676
20
2.517969
10
40.804641
20
2.503551
10
40.799532
20
2.489160
10
40.794349
20
2.474794
10
40.789094
20
2.460456
10
40.783766
20
2.446144
10
40.778365
20
2.431859
10
40.772891
20
2.417602
10
40.767345
20
2.403373
10
40.761726
20
2.389173
10
40.756036
20
2.375001
10
40.750273
20
2.360859
10
40.744438
20
2.346746
10
40.738531
20
2.332663
10
40.732553
20
2.318610
10
40.726504
20
2.304588
10
40.720383
20
2.290596
10
40.714191
20
2.276637
10
40.707928
20
2.262708
10
40.701594
20
2.248812
10
40.695189
20
2.234949
10
40.688714
20
2.221118
10
40.682169
20
2.207320
10
40.675554
20
2.193556
10
40.668868
20
2.179825
10
40.662113
20
2.166129
10
40.655288
20
2.152467
10
40.648394
20
2.138840
10
40.641430
20
2.125249
10
40.634397
20
2.111693
10
40.627296
20
2.098173
10
40.620125
20
2.084690
10
40.612886
20
2.071243
10
40.605579
20
2.057833
10
40.598204
20
2.044461
10
40.590760
20
2.031126
10
40.583249
20
2.017829
10
40.575670
20
2.004571
10
40.568024
20
1.991351
10
40.560311
20
1.978171
10
40.552530
20
1.965030
10
40.544683
20
1.951929
10
40.536770
20
1.938867
10
40.528789
20
1.925847
10
40.520743
20
1.912867
10
40.512631
20
1.899928
10
40.504453
20
1.887031
10
40.496209
20
1.874175
10
40.487900
20
1.861362
10
40.479526
20
1.848591
10
40.471087
20
1.835863
10
40.462584
20
1.823178
10
40.454016
20
1.810537
10
40.445383
20
1.797939
10
40.436687
20
1.785385
10
40.427927
20
1.772876
10
40.419103
20
1.760412
10
40.410216
20
1.747992
10
40.401266
20
1.735618
10
40.392253
20
1.723290
10
40.383177
20
1.711008
10
40.374039
20
1.698772
10
40.364839
20
1.686583
10
40.355577
20
1.674441
10
40.346253
20
1.662346
10
40.336868
20
1.650299
10
40.327421
20
1.638299
10
40.317914
20
1.626348
10
40.308345
20
1.614446
10
40.298717
20
1.602592
10
40.289028
20
1.590787
10
40.279279
20
1.579032
10
40.269470
20
1.567327
10
40.259602
20
1.555672
10
40.249675
20
1.544067
10
40.247636
20
1.541708
10
40.260850
20
1.545481
10
40.311639
20
1.558203
10
40.362816
20
1.569256
10
40.414328
20
1.578629
10
40.466119
20
1.586312
10
40.518133
20
1.592296
10
40.570316
20
1.596574
10
40.622610
20
1.599143
10
40.674961
20
1.600000
10
40.727311
20
1.599143
10
40.779606
20
1.596574
10
40.831788
20
1.592296
10
40.883802
20
1.586312
10
40.935593
20
1.578629
10
40.987105
20
1.569256
10
41.038283
20
1.558203
10
41.089071
20
1.545481
10
41.139416
20
1.531105
10
41.189264
20
1.515088
10
41.238561
20
1.497449
10
41.287254
20
1.478207
10
41.335292
20
1.457382
10
41.382622
20
1.434996
10
41.429195
20
1.411074
10
41.474961
20
1.385641
10
41.519869
20
1.358723
10
41.563873
20
1.330351
10
41.606925
20
1.300555
10
41.648979
20
1.269365
10
41.689990
20
1.236817
10
41.729914
20
1.202944
10
41.768708
20
1.167783
10
41.806331
20
1.131371
10
41.842743
20
1.093748
10
41.877904
20
1.054953
10
41.911777
20
1.015029
10
41.944326
20
0.974018
10
41.975515
20
0.931964
10
42.005312
20
0.888912
10
42.033684
20
0.844909
10
42.060601
20
0.800000
10
42.086035
20
0.754235
10
42.109957
20
0.707662
10
42.132343
20
0.660331
10
42.153168
20
0.612293
10
42.172410
20
0.563600
10
42.190049
20
0.514303
10
42.206065
20
0.464455
10
42.220442
20
0.414110
10
42.233164
20
0.363322
10
42.244217
20
0.312145
10
42.253590
20
0.260633
10
42.261272
20
0.208842
10
42.267256
20
0.156827
10
42.271535
20
0.104645
10
42.274104
20
0.052351
10
42.274961
20
0.000000
10
42.274104
20
-0.052351
10
42.271535
20
-0.104645
10
42.267256
20
-0.156827
10
42.261272
20
-0.208842
10
42.253590
20
-0.260633
10
42.244217
20
-0.312145
10
42.233164
20
-0.363322
10
42.220442
20
-0.414110
10
42.206065
20
-0.464455
10
42.190049
20
-0.514303
10
42.172410
20
-0.563600
10
42.153168
20
-0.612293
10
42.132343
20
-0.660331
10
42.109957
20
-0.707662
10
42.086035
20
-0.754235
10
42.060601
20
-0.800000
10
42.033684
20
-0.844909
10
42.005312
20
-0.888912
10
41.975515
20
-0.931964
10
41.944326
20
-0.974018
10
41.911777
20
-1.015029
10
41.877904
20
-1.054953
10
41.842743
20
-1.093748
10
41.806331
20
-1.131371
10
41.768708
20
-1.167783
10
41.729914
20
-1.202944
10
41.689990
20
-1.236817
10
41.648979
20
-1.269365
10
41.606925
20
-1.300555
10
41.563873
20
-1.330351
10
41.519869
20
-1.358723
10
41.474961
20
-1.385641
10
41.429195
20
-1.411074
10
41.382622
20
-1.434996
10
41.335292
20
-1.457382
10
41.287254
20
-1.478207
10
41.238561
20
-1.497449
10
41.189264
20
-1.515088
10
41.139416
20
-1.531105
10
41.089071
20
-1.545481
10
41.038283
20
-1.558203
10
40.987105
20
-1.569256
10
40.935593
20
-1.578629
10
40.883802
20
-1.586312
10
40.831788
20
-1.592296
10
40.779606
20
-1.596574
10
40.727311
20
-1.599143
10
40.674961
20
-1.600000
10
40.622610
20
-1.599143
10
40.570316
20
-1.596574
10
40.518133
20
-1.592296
10
40.466119
20
-1.586312
10
40.414328
20
-1.578629
10
40.362816
20
-1.569256
10
40.311639
20
-1.558203
10
40.260850
20
-1.545481
10
40.210505
20
-1.531105
10
40.160657
20
-1.515088
10
40.111360
20
-1.497449
10
40.062667
20
-1.478207
10
40.014629
20
-1.457382
10
39.967299
20
-1.434996
10
39.920726
20
-1.411074
10
39.874961
20
-1.385641
10
39.830052
20
-1.358723
10
39.786048
20
-1.330351
10
39.742996
20
-1.300555
10
39.700942
20
-1.269365
10
39.659931
20
-1.236817
10
39.620007
20
-1.202944
10
39.581213
20
-1.167783
10
39.543590
20
-1.131371
10
39.507178
20
-1.093748
10
39.472017
20
-1.054953
10
39.438144
20
-1.015029
10
39.405595
20
-0.974018
10
39.374406
20
-0.931964
10
39.344609
20
-0.888912
10
39.316237
20
-0.844909
10
39.289320
20
-0.800000
10
39.263887
20
-0.754235
10
39.239964
20
-0.707662
10
39.217578
20
-0.660331
10
39.196753
20
-0.612293
10
39.177511
20
-0.563600
10
39.159872
20
-0.514303
10
39.155277
20
-0.500000
10
0.905379
20
-0.500000
10
0.900783
20
-0.514303
0
LWPOLYLINE
8
0
100
AcDbEntity
100
AcDbPolyline
90
732
70
1
10
0.744419
20
0.844909
10
0.771336
20
0.800000
10
0.796769
20
0.754235
10
0.820692
20
0.707662
10
0.843077
20
0.660331
10
0.863902
20
0.612293
10
0.883145
20
0.563600
10
0.900783
20
0.514303
10
0.905379
20
0.500000
10
3.124401
20
0.500000
10
6.439065
20
1.602166
10
6.448717
20
1.605403
10
6.458353
20
1.608689
10
6.467973
20
1.612025
10
6.477575
20
1.615409
10
6.487160
20
1.618841
10
6.496727
20
1.622323
10
6.506276
20
1.625853
10
6.515808
20
1.629432
10
6.525321
20
1.633059
10
6.534815
20
1.636735
10
6.544291
20
1.640459
10
6.553747
20
1.644231
10
6.563184
20
1.648051
10
6.572602
20
1.651919
10
6.581999
20
1.655835
10
6.591377
20
1.659799
10
6.600734
20
1.663811
10
6.610071
20
1.667870
10
6.619387
20
1.671977
10
6.628682
20
1.676131
10
6.637956
20
1.680332
10
6.647208
20
1.684580
10
6.656439
20
1.688876
10
6.665648
20
1.693218
10
6.674834
20
1.697607
10
6.683998
20
1.702043
10
6.693139
20
1.706526
10
6.702257
20
1.711055
10
6.711352
20
1.715630
10
6.720424
20
1.720252
10
6.729472
20
1.724919
10
6.738496
20
1.729633
10
6.747496
20
1.734393
10
6.756471
20
1.739198
10
6.765423
20
1.744049
10
6.774349
20
1.748945
10
6.783250
20
1.753887
10
6.792126
20
1.758874
10
6.800976
20
1.763906
10
6.809801
20
1.768984
10
6.818600
20
1.774106
10
6.827372
20
1.779272
10
6.836119
20
1.784484
10
6.844838
20
1.789740
10
6.853531
20
1.795040
10
6.862196
20
1.800384
10
6.870835
20
1.805772
10
6.879445
20
1.811205
10
6.888028
20
1.816681
10
6.896583
20
1.822200
10
6.905110
20
1.827763
10
6.913608
20
1.833370
10
6.922078
20
1.839019
10
6.930519
20
1.844712
10
6.938930
20
1.850448
10
6.947313
20
1.856226
10
6.955666
20
1.862047
10
6.963989
20
1.867910
10
6.972282
20
1.873816
10
6.980545
20
1.879764
10
6.988777
20
1.885753
10
6.996979
20
1.891785
10
7.005151
20
1.897858
10
7.013291
20
1.903973
10
7.021400
20
1.910129
10
7.029477
20
1.916327
10
7.037523
20
1.922565
10
7.045537
20
1.928844
10
7.053519
20
1.935164
10
7.061469
20
1.941525
10
7.069386
20
1.947926
10
7.077270
20
1.954367
10
7.085122
20
1.960848
10
7.092941
20
1.967369
10
7.100726
20
1.973930
10
7.108477
20
1.980530
10
7.116196
20
1.987170
10
7.123880
20
1.993849
10
7.131530
20
2.000567
10
7.139145
20
2.007324
10
7.146727
20
2.014119
10
7.154273
20
2.020953
10
7.161785
20
2.027825
10
7.169261
20
2.034736
10
7.176703
20
2.041684
10
7.184108
20
2.048670
10
7.191479
20
2.055694
10
7.198813
20
2.062756
10
7.206111
20
2.069854
10
7.213373
20
2.076990
10
7.220599
20
2.084162
10
7.227788
20
2.091371
10
7.234940
20
2.098617
10
7.242055
20
2.105899
10
7.249133
20
2.113217
10
7.256174
20
2.120571
10
7.263177
20
2.127960
10
7.270143
20
2.135386
10
7.277071
20
2.142846
10
7.283960
20
2.150342
10
7.290811
20
2.157873
10
7.297624
20
2.165439
10
7.304399
20
2.173039
10
7.311134
20
2.180673
10
7.317831
20
2.188342
10
7.324488
20
2.196045
10
7.331106
20
2.203781
10
7.337685
20
2.211551
10
7.344224
20
2.219355
10
7.350723
20
2.227192
10
7.357182
20
2.235061
10
7.363601
20
2.242964
10
7.369980
20
2.250899
10
7.376319
20
2.258866
10
7.382616
20
2.266866
10
7.388873
20
2.274897
10
7.395089
20
2.282960
10
7.401264
20
2.291055
10
7.407397
20
2.299181
10
7.413489
20
2.307339
10
7.419540
20
2.315527
10
7.425548
20
2.323746
10
7.431515
20
2.331995
10
7.437440
20
2.340274
10
7.443322
20
2.348584
10
7.449162
20
2.356924
10
7.454960
20
2.365293
10
7.460715
20
2.373691
10
7.466427
20
2.382119
10
7.472096
20
2.390575
10
7.477722
20
2.399061
10
7.483305
20
2.407575
10
7.488844
20
2.416117
10
7.494340
20
2.424687
10
7.499792
20
2.433285
10
7.505200
20
2.441911
10
7.510564
20
2.450565
10
7.515884
20
2.459245
10
7.521160
20
2.467952
10
7.526391
20
2.476687
10
7.531578
20
2.485447
10
7.536721
20
2.494234
10
7.541818
20
2.503047
10
7.546871
20
2.511886
10
7.551878
20
2.520751
10
7.556840
20
2.529640
10
7.561757
20
2.538555
10
7.566629
20
2.547495
10
7.571455
20
2.556460
10
7.576235
20
2.565449
10
7.580969
20
2.574462
10
7.585658
20
2.583499
10
7.590300
20
2.592560
10
7.594897
20
2.601645
10
7.599446
20
2.610753
10
7.603950
20
2.619883
10
7.608407
20
2.629037
10
7.612817
20
2.638213
10
7.617181
20
2.647412
10
7.621497
20
2.656632
10
7.625767
20
2.665875
10
7.629990
20
2.675139
10
7.634165
20
2.684424
10
7.638293
20
2.693731
10
7.642374
20
2.703058
10
7.646407
20
2.712407
10
7.650392
20
2.721775
10
7.654330
20
2.731164
10
7.658220
20
2.740573
10
7.662062
20
2.750001
10
7.665855
20
2.759449
10
7.669601
20
2.768916
10
7.673299
20
2.778401
10
7.676948
20
2.787906
10
7.680548
20
2.797429
10
7.684101
20
2.806970
10
7.687604
20
2.816530
10
7.691059
20
2.826106
10
7.694465
20
2.835701
10
7.697822
20
2.845312
10
7.701130
20
2.854941
10
7.704390
20
2.864586
10
7.707600
20
2.874248
10
7.710760
20
2.883926
10
7.713872
20
2.893620
10
7.716934
20
2.903330
10
7.719946
20
2.913055
10
7.722910
20
2.922795
10
7.725823
20
2.932550
10
7.728687
20
2.942320
10
7.731501
20
2.952105
10
7.734265
20
2.961903
10
7.736979
20
2.971716
10
7.739643
20
2.981542
10
7.742258
20
2.991382
10
7.744822
20
3.001235
10
7.747335
20
3.011100
10
7.749799
20
3.020979
10
7.752212
20
3.030870
10
7.754575
20
3.040773
10
7.756888
20
3.050688
10
7.759150
20
3.060614
10
7.761361
20
3.070552
10
7.763522
20
3.080501
10
7.765632
20
3.090461
10
7.767691
20
3.100432
10
7.769700
20
3.110413
10
7.771658
20
3.120404
10
7.773565
20
3.130405
10
7.775421
20
3.140415
10
7.777226
20
3.150435
10
7.778980
20
3.160464
10
7.780682
20
3.170501
10
7.782334
20
3.180547
10
7.783935
20
3.190602
10
7.785484
20
3.200664
10
7.786982
20
3.210734
10
7.788429
20
3.220812
10
7.789825
20
3.230897
10
7.791169
20
3.240989
10
7.792462
20
3.251088
10
7.793703
20
3.261193
10
7.794893
20
3.271304
10
7.796031
20
3.281421
10
7.797118
20
3.291544
10
7.798154
20
3.301672
10
7.799138
20
3.311806
10
7.800070
20
3.321944
10
7.800950
20
3.332087
10
7.801779
20
3.342234
10
7.802557
20
3.352385
10
7.803282
20
3.362540
10
7.803956
20
3.372699
10
7.804578
20
3.382861
10
7.805149
20
3.393026
10
7.805667
20
3.403194
10
7.806134
20
3.413364
10
7.806549
20
3.423537
10
7.806913
20
3.433711
10
7.807224
20
3.443888
10
7.807484
20
3.454065
10
7.807692
20
3.464244
10
7.807848
20
3.474424
10
7.807952
20
3.484605
10
7.808005
20
3.494786
10
7.808005
20
3.504967
10
7.807954
20
3.515147
10
7.807851
20
3.525328
10
7.807696
20
3.535508
10
7.807490
20
3.545687
10
7.807231
20
3.555865
10
7.806921
20
3.566041
10
7.806559
20
3.576215
10
7.806145
20
3.586388
10
7.805679
20
3.596558
10
7.805162
20
3.606726
10
7.804593
20
3.616891
10
7.803972
20
3.627053
10
7.803299
20
3.637212
10
7.802575
20
3.647367
10
7.801799
20
3.657519
10
7.800971
20
3.667666
10
7.800092
20
3.677809
10
7.799161
20
3.687948
10
7.798178
20
3.698081
10
7.797144
20
3.708209
10
7.796059
20
3.718332
10
7.794921
20
3.728450
10
7.793733
20
3.738561
10
7.792493
20
3.748666
10
7.791201
20
3.758765
10
7.789858
20
3.768857
10
7.788464
20
3.778942
10
7.787018
20
3.789020
10
7.785521
20
3.799091
10
7.783973
20
3.809153
10
7.782374
20
3.819208
10
7.780723
20
3.829254
10
7.779022
20
3.839292
10
7.777269
20
3.849321
10
7.775465
20
3.859341
10
7.773611
20
3.869352
10
7.771705
20
3.879353
10
7.769748
20
3.889344
10
7.767741
20
3.899325
10
7.765683
20
3.909296
10
7.763574
20
3.919256
10
7.761414
20
3.929206
10
7.759204
20
3.939144
10
7.756943
20
3.949071
10
7.754632
20
3.958986
10
7.752270
20
3.968889
10
7.749858
20
3.978780
10
7.747396
20
3.988659
10
7.744883
20
3.998525
10
7.742321
20
4.008379
10
7.739708
20
4.018219
10
7.737045
20
4.028045
10
7.734332
20
4.037858
10
7.731569
20
4.047657
10
7.728756
20
4.057442
10
7.725893
20
4.067212
10
7.722981
20
4.076968
10
7.720019
20
4.086708
10
7.717008
20
4.096434
10
7.713947
20
4.106144
10
7.710837
20
4.115838
10
7.707677
20
4.125517
10
7.704468
20
4.135179
10
7.701210
20
4.144824
10
7.697903
20
4.154453
10
7.694547
20
4.164065
10
7.691142
20
4.173660
10
7.687689
20
4.183237
10
7.684186
20
4.192797
10
7.680635
20
4.202339
10
7.677036
20
4.211862
10
7.673388
20
4.221367
10
7.669692
20
4.230854
10
7.665947
20
4.240321
10
7.662154
20
4.249769
10
7.658314
20
4.259198
10
7.654425
20
4.268607
10
7.650489
20
4.277996
10
7.646504
20
4.287365
10
7.642472
20
4.296714
10
7.638393
20
4.306042
10
7.634266
20
4.315349
10
7.630092
20
4.324635
10
7.625870
20
4.333900
10
7.621602
20
4.343143
10
7.617286
20
4.352364
10
7.612924
20
4.361563
10
7.608515
20
4.370740
10
7.604059
20
4.379894
10
7.599557
20
4.389025
10
7.595008
20
4.398134
10
7.590413
20
4.407219
10
7.585771
20
4.416280
10
7.581084
20
4.425318
10
7.576351
20
4.434332
10
7.571572
20
4.443322
10
7.566747
20
4.452287
10
7.561876
20
4.461227
10
7.556961
20
4.470143
10
7.551999
20
4.479033
10
7.546993
20
4.487898
10
7.541942
20
4.496738
10
7.536845
20
4.505552
10
7.531704
20
4.514339
10
7.526518
20
4.523100
10
7.521288
20
4.531835
10
7.516013
20
4.540543
10
7.510694
20
4.549224
10
7.505331
20
4.557878
10
7.499924
20
4.566505
10
7.494473
20
4.575104
10
7.488978
20
4.583675
10
7.483440
20
4.592218
10
7.477858
20
4.600732
10
7.472233
20
4.609218
10
7.466565
20
4.617676
10
7.460854
20
4.626104
10
7.455101
20
4.634503
10
7.449304
20
4.642873
10
7.443465
20
4.651213
10
7.437584
20
4.659524
10
7.431660
20
4.667804
10
7.425694
20
4.676054
10
7.419687
20
4.684274
10
7.413637
20
4.692462
10
7.407546
20
4.700620
10
7.401414
20
4.708747
10
7.395240
20
4.716843
10
7.389025
20
4.724907
10
7.382769
20
4.732939
10
7.376472
20
4.740939
10
7.370135
20
4.748908
10
7.363757
20
4.756843
10
7.357339
20
4.764747
10
7.350881
20
4.772617
10
7.344383
20
4.780455
10
7.337845
20
4.788259
10
7.331267
20
4.796030
10
7.324650
20
4.803767
10
7.317993
20
4.811471
10
7.311298
20
4.819140
10
7.304563
20
4.826776
10
7.297790
20
4.834377
10
7.290978
20
4.841943
10
7.284127
20
4.849475
10
7.277239
20
4.856971
10
7.270312
20
4.864433
10
7.263347
20
4.871859
10
7.256345
20
4.879250
10
7.249305
20
4.886605
10
7.242228
20
4.893924
10
7.235114
20
4.901206
10
7.227962
20
4.908453
10
7.220774
20
4.915663
10
7.213550
20
4.922836
10
7.206288
20
4.929973
10
7.198991
20
4.937072
10
7.191658
20
4.944134
10
7.184288
20
4.951159
10
7.176883
20
4.958146
10
7.169443
20
4.965095
10
7.161967
20
4.972007
10
7.154456
20
4.978880
10
7.146911
20
4.985715
10
7.139330
20
4.992511
10
7.131715
20
4.999269
10
7.124066
20
5.005988
10
7.116383
20
5.012668
10
7.108666
20
5.019309
10
7.100915
20
5.025910
10
7.093131
20
5.032472
10
7.085313
20
5.038994
10
7.077462
20
5.045476
10
7.069578
20
5.051918
10
7.061662
20
5.058320
10
7.053713
20
5.064681
10
7.045732
20
5.071002
10
7.037719
20
5.077283
10
7.029674
20
5.083522
10
7.021597
20
5.089720
10
7.013489
20
5.095877
10
7.005349
20
5.101993
10
6.997179
20
5.108068
10
6.988978
20
5.114100
10
6.980746
20
5.120091
10
6.972483
20
5.126040
10
6.964191
20
5.131946
10
6.955869
20
5.137811
10
6.947516
20
5.143633
10
6.939135
20
5.149412
10
6.930724
20
5.155149
10
6.922284
20
5.160842
10
6.913815
20
5.166493
10
6.905317
20
5.172101
10
6.896791
20
5.177665
10
6.888237
20
5.183185
10
6.879655
20
5.188663
10
6.871045
20
5.194096
10
6.862407
20
5.199485
10
6.853742
20
5.204831
10
6.845050
20
5.210132
10
6.836331
20
5.215389
10
6.827586
20
5.220601
10
6.818814
20
5.225769
10
6.810016
20
5.230892
10
6.801192
20
5.235970
10
6.792342
20
5.241004
10
6.783466
20
5.245992
10
6.774566
20
5.250935
10
6.765640
20
5.255832
10
6.756690
20
5.260684
10
6.747715
20
5.265491
10
6.738715
20
5.270252
10
6.729692
20
5.274966
10
6.720644
20
5.279635
10
6.711573
20
5.284258
10
6.702479
20
5.288834
10
6.693361
20
5.293364
10
6.684221
20
5.297848
10
6.675057
20
5.302285
10
6.665871
20
5.306675
10
6.656663
20
5.311019
10
6.647433
20
5.315316
10
6.638182
20
5.319565
10
6.628909
20
5.323768
10
6.619614
20
5.327923
10
6.610298
20
5.332030
10
6.600962
20
5.336091
10
6.591605
20
5.340104
10
6.582228
20
5.344069
10
6.572831
20
5.347986
10
6.563414
20
5.351855
10
6.553977
20
5.355677
10
6.544521
20
5.359450
10
6.535046
20
5.363175
10
6.525552
20
5.366852
10
6.516040
20
5.370480
10
6.506509
20
5.374060
10
6.496960
20
5.377592
10
6.487393
20
5.381074
10
6.477809
20
5.384508
10
6.468207
20
5.387894
10
6.458588
20
5.391230
10
6.448952
20
5.394517
10
6.439300
20
5.397755
10
6.429631
20
5.400944
10
6.419946
20
5.404084
10
6.410246
20
5.407174
10
6.400529
20
5.410215
10
6.390798
20
5.413207
10
6.381051
20
5.416149
10
6.371289
20
5.419041
10
6.361513
20
5.421883
10
6.351723
20
5.424676
10
6.341918
20
5.427419
10
6.332100
20
5.430112
10
6.322268
20
5.432755
10
6.312422
20
5.435347
10
6.302564
20
5.437890
10
6.292693
20
5.440382
10
6.282809
20
5.442825
10
6.272913
20
5.445216
10
6.263005
20
5.447558
10
6.253085
20
5.449849
10
6.243153
20
5.452089
10
6.233210
20
5.454279
10
6.223257
20
5.456418
10
6.213292
20
5.458506
10
6.203317
20
5.460544
10
6.193332
20
5.462531
10
6.183337
20
5.464467
10
6.173332
20
5.466352
10
6.163317
20
5.468186
10
6.153294
20
5.469970
10
6.143261
20
5.471702
10
6.133220
20
5.473383
10
6.123170
20
5.475013
10
6.113112
20
5.476591
10
6.103046
20
5.478119
10
6.092973
20
5.479595
10
6.082892
20
5.481020
10
6.072804
20
5.482394
10
6.062709
20
5.483716
10
6.052608
20
5.484987
10
6.042500
20
5.486206
10
6.032386
20
5.487374
10
6.022267
20
5.488491
10
6.012141
20
5.489555
10
6.002011
20
5.490569
10
5.991875
20
5.491531
10
5.981735
20
5.492441
10
5.971590
20
5.493299
10
5.961441
20
5.494106
10
5.951288
20
5.494861
10
5.941132
20
5.495565
10
5.930972
20
5.496217
10
5.920808
20
5.496817
10
5.910642
20
5.497365
10
5.900473
20
5.497862
10
5.890302
20
5.498306
10
5.880128
20
5.498699
10
5.869953
20
5.499041
10
5.859776
20
5.499330
10
5.849598
20
5.499568
10
5.839419
20
5.499753
10
5.829238
20
5.499887
10
5.819058
20
5.499969
10
5.808877
20
5.500000
10
5.798696
20
5.499978
10
5.788515
20
5.499905
10
5.778335
20
5.499780
10
5.768155
20
5.499603
10
5.757977
20
5.499374
10
5.747800
20
5.499093
10
5.737624
20
5.498761
10
5.727450
20
5.498377
10
5.717278
20
5.497941
10
5.707109
20
5.497453
10
5.696942
20
5.496914
10
5.686779
20
5.496322
10
5.676618
20
5.495679
10
5.666461
20
5.494985
10
5.656307
20
5.494238
10
5.646157
20
5.493440
10
5.636012
20
5.492590
10
5.625871
20
5.491689
10
5.615734
20
5.490736
10
5.605603
20
5.489731
10
5.595477
20
5.488675
10
5.585356
20
5.487568
10
5.575241
20
5.486408
10
5.565133
20
5.485198
10
5.555030
20
5.483936
10
5.544934
20
5.482622
10
5.534845
20
5.481257
10
5.524763
20
5.479841
10
5.514688
20
5.478373
10
5.504621
20
5.476855
10
5.494562
20
5.475285
10
5.484511
20
5.473663
10
5.474468
20
5.471991
10
5.464434
20
5.470268
10
5.454409
20
5.468493
10
5.444393
20
5.466668
10
5.434386
20
5.464791
10
5.424389
20
5.462864
10
5.414402
20
5.460885
10
5.404426
20
5.458856
10
5.394459
20
5.456777
10
5.384504
20
5.454646
10
5.374559
20
5.452465
10
5.364626
20
5.450233
10
5.354704
20
5.447951
10
5.344793
20
5.445618
10
5.334895
20
5.443235
10
5.325009
20
5.440801
10
5.315136
20
5.438317
10
5.305275
20
5.435783
10
5.295428
20
5.433199
10
5.285593
20
5.430565
10
5.275773
20
5.427880
10
5.265966
20
5.425146
10
5.256173
20
5.422362
10
5.246394
20
5.419528
10
5.236630
20
5.416644
10
5.226881
20
5.413710
10
5.217147
20
5.410727
10
5.207428
20
5.407695
10
5.197724
20
5.404613
10
5.188037
20
5.401481
10
5.178365
20
5.398301
10
5.168710
20
5.395071
10
5.159072
20
5.391792
10
5.149450
20
5.388464
10
5.139845
20
5.385087
10
5.130258
20
5.381661
10
5.120688
20
5.378187
10
5.111136
20
5.374664
10
5.101602
20
5.371092
10
5.092086
20
5.367472
10
5.082589
20
5.363803
10
5.073111
20
5.360086
10
5.063652
20
5.356321
10
5.054212
20
5.352508
10
5.044791
20
5.348647
10
5.035391
20
5.344738
10
5.026010
20
5.340781
10
5.016650
20
5.336776
10
5.007310
20
5.332724
10
4.997991
20
5.328624
10
4.988693
20
5.324477
10
4.979416
20
5.320283
10
4.970160
20
5.316041
10
4.960927
20
5.311753
10
4.951715
20
5.307417
10
4.942525
20
5.303035
10
4.933358
20
5.298606
10
4.924214
20
5.294130
10
4.915092
20
5.289608
10
4.905994
20
5.285039
10
4.896919
20
5.280424
10
4.887867
20
5.275763
10
4.878840
20
5.271056
10
4.869836
20
5.266303
10
4.860857
20
5.261505
10
4.851902
20
5.256660
10
4.842972
20
5.251770
10
4.834068
20
5.246835
10
4.825188
20
5.241855
10
4.816334
20
5.236829
10
4.807505
20
5.231758
10
4.798703
20
5.226643
10
4.789926
20
5.221483
10
4.781176
20
5.216278
10
4.772453
20
5.211028
10
4.763756
20
5.205735
10
4.755087
20
5.200397
10
4.746445
20
5.195015
10
4.737830
20
5.189589
10
4.729243
20
5.184119
10
4.720684
20
5.178606
10
4.712153
20
5.173049
10
4.703651
20
5.167449
10
4.695177
20
5.161806
10
4.686732
20
5.156119
10
4.678316
20
5.150390
10
4.669929
20
5.144618
10
4.661572
20
5.138803
10
4.653244
20
5.132946
10
4.644947
20
5.127047
10
4.636680
20
5.121105
10
4.628442
20
5.115121
10
4.620236
20
5.109096
10
4.612060
20
5.103029
10
4.603916
20
5.096920
10
4.595802
20
5.090770
10
4.587720
20
5.084578
10
4.579669
20
5.078346
10
4.571651
20
5.072073
10
4.563664
20
5.065758
10
4.555710
20
5.059404
10
4.547788
20
5.053009
10
4.539899
20
5.046574
10
4.532042
20
5.040098
10
4.524219
20
5.033583
10
4.516429
20
5.027028
10
4.508672
20
5.020433
10
4.500949
20
5.013799
10
4.493260
20
5.007126
10
4.485605
20
5.000414
10
4.477985
20
4.993663
10
4.470398
20
4.986873
10
4.462847
20
4.980044
10
4.455330
20
4.973178
10
4.447848
20
4.966273
10
4.440402
20
4.959330
10
4.432991
20
4.952349
10
4.425615
20
4.945331
10
4.418276
20
4.938275
10
4.410972
20
4.931182
10
4.403705
20
4.924052
10
4.396474
20
4.916885
10
4.389280
20
4.909681
10
4.382122
20
4.902441
10
4.375002
20
4.895164
10
4.367918
20
4.887851
10
4.360872
20
4.880502
10
4.353863
20
4.873118
10
4.346892
20
4.865698
10
4.339959
20
4.858242
10
4.333064
20
4.850751
10
4.326207
20
4.843226
10
4.319388
20
4.835665
10
0.742022
20
0.848625
10
0.744419
20
0.844909
0
LWPOLYLINE
8
0
100
AcDbEntity
100
AcDbPolyline
90
38
70
1
10
39.177511
20
0.563600
10
39.196753
20
0.612293
10
39.217578
20
0.660331
10
39.239964
20
0.707662
10
39.263887
20
0.754235
10
39.289320
20
0.800000
10
39.292080
20
0.804605
10
39.288940
20
0.803065
10
39.275194
20
0.796411
10
39.261415
20
0.789827
10
39.247602
20
0.783314
10
39.233756
20
0.776871
10
39.219878
20
0.770498
10
39.205967
20
0.764196
10
39.192024
20
0.757965
10
39.178050
20
0.751805
10
39.164045
20
0.745716
10
39.150009
20
0.739699
10
39.135942
20
0.733753
10
39.121846
20
0.727879
10
39.107719
20
0.722077
10
39.093564
20
0.716346
10
39.079379
20
0.710688
10
39.065166
20
0.705102
10
39.050924
20
0.699589
10
39.036655
20
0.694148
10
39.022358
20
0.688780
10
39.008034
20
0.683484
10
38.993683
20
0.678262
10
38.979306
20
0.673113
10
38.964902
20
0.668037
10
38.950473
20
0.663034
10
38.936019
20
0.658105
10
38.921540
20
0.653250
10
38.460656
20
0.500000
10
39.155277
20
0.500000
10
39.159872
20
0.514303
10
39.177511
20
0.563600
0
LWPOLYLINE
8
0
100
AcDbEntity
100
AcDbPolyline
90
723
70
1
10
38.625302
20
1.608689
10
38.634922
20
1.612025
10
38.644524
20
1.615409
10
38.654109
20
1.618841
10
38.663676
20
1.622323
10
38.673225
20
1.625853
10
38.682757
20
1.629432
10
38.692270
20
1.633059
10
38.701764
20
1.636735
10
38.711240
20
1.640459
10
38.720696
20
1.644231
10
38.730133
20
1.648051
10
38.739551
20
1.651919
10
38.748948
20
1.655835
10
38.758326
20
1.659799
10
38.767684
20
1.663811
10
38.777020
20
1.667870
10
38.786336
20
1.671977
10
38.795631
20
1.676131
10
38.804905
20
1.680332
10
38.814157
20
1.684580
10
38.823388
20
1.688876
10
38.832597
20
1.693218
10
38.841783
20
1.697607
10
38.850947
20
1.702043
10
38.860088
20
1.706526
10
38.869206
20
1.711055
10
38.878301
20
1.715630
10
38.887373
20
1.720252
10
38.896421
20
1.724919
10
38.905445
20
1.729633
10
38.914445
20
1.734393
10
38.923420
20
1.739198
10
38.932372
20
1.744049
10
38.941298
20
1.748945
10
38.950199
20
1.753887
10
38.959075
20
1.758874
10
38.967925
20
1.763906
10
38.976750
20
1.768984
10
38.985549
20
1.774106
10
38.994321
20
1.779272
10
39.003068
20
1.784484
10
39.011787
20
1.789740
10
39.020480
20
1.795040
10
39.029145
20
1.800384
10
39.037784
20
1.805772
10
39.046394
20
1.811205
10
39.054977
20
1.816681
10
39.063532
20
1.822200
10
39.072059
20
1.827763
10
39.080557
20
1.833370
10
39.089027
20
1.839019
10
39.097468
20
1.844712
10
39.105879
20
1.850448
10
39.114262
20
1.856226
10
39.122615
20
1.862047
10
39.130938
20
1.867910
10
39.139231
20
1.873816
10
39.147494
20
1.879764
10
39.155726
20
1.885753
10
39.163928
20
1.891785
10
39.172100
20
1.897858
10
39.180240
20
1.903973
10
39.188349
20
1.910129
10
39.196426
20
1.916327
10
39.204472
20
1.922565
10
39.212486
20
1.928844
10
39.220468
20
1.935164
10
39.228418
20
1.941525
10
39.236335
20
1.947926
10
39.244219
20
1.954367
10
39.252071
20
1.960848
10
39.259890
20
1.967369
10
39.267675
20
1.973930
10
39.275426
20
1.980530
10
39.283145
20
1.987170
10
39.290829
20
1.993849
10
39.298479
20
2.000567
10
39.306094
20
2.007324
10
39.313676
20
2.014119
10
39.321222
20
2.020953
10
39.328734
20
2.027825
10
39.336210
20
2.034736
10
39.343652
20
2.041684
10
39.351057
20
2.048670
10
39.358428
20
2.055694
10
39.365762
20
2.062756
10
39.373060
20
2.069854
10
39.380322
20
2.076990
10
39.387548
20
2.084162
10
39.394737
20
2.091371
10
39.401889
20
2.098617
10
39.409004
20
2.105899
10
39.416082
20
2.113217
10
39.423123
20
2.120571
10
39.430126
20
2.127960
10
39.437092
20
2.135386
10
39.444020
20
2.142846
10
39.450909
20
2.150342
10
39.457760
20
2.157873
10
39.464573
20
2.165439
10
39.471348
20
2.173039
10
39.478083
20
2.180673
10
39.484780
20
2.188342
10
39.491437
20
2.196045
10
39.498055
20
2.203781
10
39.504634
20
2.211551
10
39.511173
20
2.219355
10
39.517672
20
2.227192
10
39.524131
20
2.235061
10
39.530550
20
2.242964
10
39.536929
20
2.250899
10
39.543268
20
2.258866
10
39.549565
20
2.266866
10
39.555822
20
2.274897
10
39.562038
20
2.282960
10
39.568213
20
2.291055
10
39.574346
20
2.299181
10
39.580438
20
2.307339
10
39.586489
20
2.315527
10
39.592497
20
2.323746
10
39.598464
20
2.331995
10
39.604389
20
2.340274
10
39.610271
20
2.348584
10
39.616111
20
2.356924
10
39.621909
20
2.365293
10
39.627664
20
2.373691
10
39.633376
20
2.382119
10
39.639045
20
2.390575
10
39.644671
20
2.399061
10
39.650254
20
2.407575
10
39.655793
20
2.416117
10
39.661289
20
2.424687
10
39.666741
20
2.433285
10
39.672149
20
2.441911
10
39.677513
20
2.450565
10
39.682833
20
2.459245
10
39.688109
20
2.467952
10
39.693340
20
2.476687
10
39.698527
20
2.485447
10
39.703670
20
2.494234
10
39.708767
20
2.503047
10
39.713820
20
2.511886
10
39.718827
20
2.520751
10
39.723789
20
2.529640
10
39.728706
20
2.538555
10
39.733578
20
2.547495
10
39.738404
20
2.556460
10
39.743184
20
2.565449
10
39.747918
20
2.574462
10
39.752607
20
2.583499
10
39.757249
20
2.592560
10
39.761846
20
2.601645
10
39.766395
20
2.610753
10
39.770899
20
2.619883
10
39.775356
20
2.629037
10
39.779766
20
2.638213
10
39.784130
20
2.647412
10
39.788446
20
2.656632
10
39.792716
20
2.665875
10
39.796939
20
2.675139
10
39.801114
20
2.684424
10
39.805242
20
2.693731
10
39.809323
20
2.703058
10
39.813356
20
2.712407
10
39.817341
20
2.721775
10
39.821279
20
2.731164
10
39.825169
20
2.740573
10
39.829011
20
2.750001
10
39.832804
20
2.759449
10
39.836550
20
2.768916
10
39.840248
20
2.778401
10
39.843897
20
2.787906
10
39.847497
20
2.797429
10
39.851050
20
2.806970
10
39.854553
20
2.816530
10
39.858008
20
2.826106
10
39.861414
20
2.835701
10
39.864771
20
2.845312
10
39.868079
20
2.854941
10
39.871339
20
2.864586
10
39.874549
20
2.874248
10
39.877709
20
2.883926
10
39.880821
20
2.893620
10
39.883883
20
2.903330
10
39.886895
20
2.913055
10
39.889859
20
2.922795
10
39.892772
20
2.932550
10
39.895636
20
2.942320
10
39.898450
20
2.952105
10
39.901214
20
2.961903
10
39.903928
20
2.971716
10
39.906592
20
2.981542
10
39.909207
20
2.991382
10
39.911771
20
3.001235
10
39.914284
20
3.011100
10
39.916748
20
3.020979
10
39.919161
20
3.030870
10
39.921524
20
3.040773
10
39.923837
20
3.050688
10
39.926099
20
3.060614
10
39.928310
20
3.070552
10
39.930471
20
3.080501
10
39.932581
20
3.090461
10
39.934640
20
3.100432
10
39.936649
20
3.110413
10
39.938607
20
3.120404
10
39.940514
20
3.130405
10
39.942370
20
3.140415
10
39.944175
20
3.150435
10
39.945929
20
3.160464
10
39.947631
20
3.170501
10
39.949283
20
3.180547
10
39.950884
20
3.190602
10
39.952433
20
3.200664
10
39.953931
20
3.210734
10
39.955378
20
3.220812
10
39.956774
20
3.230897
10
39.958118
20
3.240989
10
39.959411
20
3.251088
10
39.960652
20
3.261193
10
39.961842
20
3.271304
10
39.962980
20
3.281421
10
39.964067
20
3.291544
10
39.965103
20
3.301672
10
39.966087
20
3.311806
10
39.967019
20
3.321944
10
39.967899
20
3.332087
10
39.968728
20
3.342234
10
39.969506
20
3.352385
10
39.970231
20
3.362540
10
39.970905
20
3.372699
10
39.971527
20
3.382861
10
39.972098
20
3.393026
10
39.972616
20
3.403194
10
39.973083
20
3.413364
10
39.973498
20
3.423537
10
39.973862
20
3.433711
10
39.974173
20
3.443888
10
39.974433
20
3.454065
10
39.974641
20
3.464244
10
39.974797
20
3.474424
10
39.974901
20
3.484605
10
39.974954
20
3.494786
10
39.974954
20
3.504967
10
39.974903
20
3.515147
10
39.974800
20
3.525328
10
39.974645
20
3.535508
10
39.974439
20
3.545687
10
39.974180
20
3.555865
10
39.973870
20
3.566041
10
39.973508
20
3.576215
10
39.973094
20
3.586388
10
39.972628
20
3.596558
10
39.972111
20
3.606726
10
39.971542
20
3.616891
10
39.970921
20
3.627053
10
39.970248
20
3.637212
10
39.969524
20
3.647367
10
39.968748
20
3.657519
10
39.967920
20
3.667666
10
39.967041
20
3.677809
10
39.966110
20
3.687948
10
39.965127
20
3.698081
10
39.964093
20
3.708209
10
39.963008
20
3.718332
10
39.961870
20
3.728450
10
39.960682
20
3.738561
10
39.959442
20
3.748666
10
39.958150
20
3.758765
10
39.956807
20
3.768857
10
39.955413
20
3.778942
10
39.953967
20
3.789020
10
39.952470
20
3.799091
10
39.950922
20
3.809153
10
39.949323
20
3.819208
10
39.947672
20
3.829254
10
39.945971
20
3.839292
10
39.944218
20
3.849321
10
39.942414
20
3.859341
10
39.940560
20
3.869352
10
39.938654
20
3.879353
10
39.936697
20
3.889344
10
39.934690
20
3.899325
10
39.932632
20
3.909296
10
39.930523
20
3.919256
10
39.928363
20
3.929206
10
39.926153
20
3.939144
10
39.923892
20
3.949071
10
39.921581
20
3.958986
10
39.919219
20
3.968889
10
39.916807
20
3.978780
10
39.914345
20
3.988659
10
39.911832
20
3.998525
10
39.909270
20
4.008379
10
39.906657
20
4.018219
10
39.903994
20
4.028045
10
39.901281
20
4.037858
10
39.898518
20
4.047657
10
39.895705
20
4.057442
10
39.892842
20
4.067212
10
39.889930
20
4.076968
10
39.886968
20
4.086708
10
39.883957
20
4.096434
10
39.880896
20
4.106144
10
39.877786
20
4.115838
10
39.874626
20
4.125517
10
39.871417
20
4.135179
10
39.868159
20
4.144824
10
39.864852
20
4.154453
10
39.861496
20
4.164065
10
39.858091
20
4.173660
10
39.854638
20
4.183237
10
39.851135
20
4.192797
10
39.847584
20
4.202339
10
39.843985
20
4.211862
10
39.840337
20
4.221367
10
39.836641
20
4.230854
10
39.832896
20
4.240321
10
39.829103
20
4.249769
10
39.825263
20
4.259198
10
39.821374
20
4.268607
10
39.817438
20
4.277996
10
39.813453
20
4.287365
10
39.809421
20
4.296714
10
39.805342
20
4.306042
10
39.801215
20
4.315349
10
39.797041
20
4.324635
10
39.792819
20
4.333900
10
39.788551
20
4.343143
10
39.784235
20
4.352364
10
39.779873
20
4.361563
10
39.775464
20
4.370740
10
39.771008
20
4.379894
10
39.766506
20
4.389025
10
39.761957
20
4.398134
10
39.757362
20
4.407219
10
39.752720
20
4.416280
10
39.748033
20
4.425318
10
39.743300
20
4.434332
10
39.738521
20
4.443322
10
39.733696
20
4.452287
10
39.728825
20
4.461227
10
39.723910
20
4.470143
10
39.718948
20
4.479033
10
39.713942
20
4.487898
10
39.708891
20
4.496738
10
39.703794
20
4.505552
10
39.698653
20
4.514339
10
39.693467
20
4.523100
10
39.688237
20
4.531835
10
39.682962
20
4.540543
10
39.677643
20
4.549224
10
39.672280
20
4.557878
10
39.666873
20
4.566505
10
39.661422
20
4.575104
10
39.655927
20
4.583675
10
39.650389
20
4.592218
10
39.644807
20
4.600732
10
39.639183
20
4.609218
10
39.633514
20
4.617676
10
39.627803
20
4.626104
10
39.622050
20
4.634503
10
39.616253
20
4.642873
10
39.610414
20
4.651213
10
39.604533
20
4.659524
10
39.598609
20
4.667804
10
39.592643
20
4.676054
10
39.586636
20
4.684274
10
39.580586
20
4.692462
10
39.574495
20
4.700620
10
39.568363
20
4.708747
10
39.562189
20
4.716843
10
39.555974
20
4.724907
10
39.549718
20
4.732939
10
39.543421
20
4.740939
10
39.537084
20
4.748908
10
39.530706
20
4.756843
10
39.524288
20
4.764747
10
39.517830
20
4.772617
10
39.511332
20
4.780455
10
39.504794
20
4.788259
10
39.498216
20
4.796030
10
39.491599
20
4.803767
10
39.484942
20
4.811471
10
39.478247
20
4.819140
10
39.471512
20
4.826776
10
39.464739
20
4.834377
10
39.457927
20
4.841943
10
39.451076
20
4.849475
10
39.444188
20
4.856971
10
39.437261
20
4.864433
10
39.430296
20
4.871859
10
39.423294
20
4.879250
10
39.416254
20
4.886605
10
39.409177
20
4.893924
10
39.402063
20
4.901206
10
39.394911
20
4.908453
10
39.387723
20
4.915663
10
39.380499
20
4.922836
10
39.373237
20
4.929973
10
39.365940
20
4.937072
10
39.358607
20
4.944134
10
39.351237
20
4.951159
10
39.343832
20
4.958146
10
39.336392
20
4.965095
10
39.328916
20
4.972007
10
39.321405
20
4.978880
10
39.313860
20
4.985715
10
39.306279
20
4.992511
10
39.298664
20
4.999269
10
39.291015
20
5.005988
10
39.283332
20
5.012668
10
39.275615
20
5.019309
10
39.267864
20
5.025910
10
39.260080
20
5.032472
10
39.252262
20
5.038994
10
39.244411
20
5.045476
10
39.236527
20
5.051918
10
39.228611
20
5.058320
10
39.220662
20
5.064681
10
39.212681
20
5.071002
10
39.204668
20
5.077283
10
39.196623
20
5.083522
10
39.188546
20
5.089720
10
39.180438
20
5.095877
10
39.172298
20
5.101993
10
39.164128
20
5.108068
10
39.155927
20
5.114100
10
39.147695
20
5.120091
10
39.139432
20
5.126040
10
39.131140
20
5.131946
10
39.122818
20
5.137811
10
39.114465
20
5.143633
10
39.106084
20
5.149412
10
39.097673
20
5.155149
10
39.089233
20
5.160842
10
39.080764
20
5.166493
10
39.072266
20
5.172101
10
39.063740
20
5.177665
10
39.055186
20
5.183185
10
39.046604
20
5.188663
10
39.037994
20
5.194096
10
39.029356
20
5.199485
10
39.020691
20
5.204831
10
39.011999
20
5.210132
10
39.003280
20
5.215389
10
38.994535
20
5.220601
10
38.985763
20
5.225769
10
38.976965
20
5.230892
10
38.968141
20
5.235970
10
38.959291
20
5.241004
10
38.950415
20
5.245992
10
38.941515
20
5.250935
10
38.932589
20
5.255832
10
38.923639
20
5.260684
10
38.914664
20
5.265491
10
38.905664
20
5.270252
10
38.896641
20
5.274966
10
38.887593
20
5.279635
10
38.878522
20
5.284258
10
38.869428
20
5.288834
10
38.860310
20
5.293364
10
38.851170
20
5.297848
10
38.842006
20
5.302285
10
38.832820
20
5.306675
10
38.823612
20
5.311019
10
38.814383
20
5.315316
10
38.805131
20
5.319565
10
38.795858
20
5.323768
10
38.786563
20
5.327923
10
38.777247
20
5.332030
10
38.767911
20
5.336091
10
38.758554
20
5.340104
10
38.749177
20
5.344069
10
38.739780
20
5.347986
10
38.730363
20
5.351855
10
38.720926
20
5.355677
10
38.711470
20
5.359450
10
38.701995
20
5.363175
10
38.692501
20
5.366852
10
38.682989
20
5.370480
10
38.673458
20
5.374060
10
38.663909
20
5.377592
10
38.654342
20
5.381074
10
38.644758
20
5.384508
10
38.635156
20
5.387894
10
38.625537
20
5.391230
10
38.615901
20
5.394517
10
38.606249
20
5.397755
10
38.596580
20
5.400944
10
38.586895
20
5.404084
10
38.577195
20
5.407174
10
38.567478
20
5.410215
10
38.557747
20
5.413207
10
38.548000
20
5.416149
10
38.538238
20
5.419041
10
38.528462
20
5.421883
10
38.518672
20
5.424676
10
38.508867
20
5.427419
10
38.499049
20
5.430112
10
38.489217
20
5.432755
10
38.479371
20
5.435347
10
38.469513
20
5.437890
10
38.459642
20
5.440382
10
38.449758
20
5.442825
10
38.439862
20
5.445216
10
38.429954
20
5.447558
10
38.420034
20
5.449849
10
38.410102
20
5.452089
10
38.400159
20
5.454279
10
38.390206
20
5.456418
10
38.380241
20
5.458506
10
38.370266
20
5.460544
10
38.360281
20
5.462531
10
38.350286
20
5.464467
10
38.340281
20
5.466352
10
38.330266
20
5.468186
10
38.320243
20
5.469970
10
38.310210
20
5.471702
10
38.300169
20
5.473383
10
38.290119
20
5.475013
10
38.280061
20
5.476591
10
38.269995
20
5.478119
10
38.259922
20
5.479595
10
38.249841
20
5.481020
10
38.239753
20
5.482394
10
38.229658
20
5.483716
10
38.219557
20
5.484987
10
38.209449
20
5.486206
10
38.199335
20
5.487374
10
38.189216
20
5.488491
10
38.179090
20
5.489555
10
38.168960
20
5.490569
10
38.158825
20
5.491531
10
38.148684
20
5.492441
10
38.138539
20
5.493299
10
38.128390
20
5.494106
10
38.118237
20
5.494861
10
38.108081
20
5.495565
10
38.097921
20
5.496217
10
38.087757
20
5.496817
10
38.077591
20
5.497365
10
38.067422
20
5.497862
10
38.057251
20
5.498306
10
38.047077
20
5.498699
10
38.036902
20
5.499041
10
38.026725
20
5.499330
10
38.016547
20
5.499568
10
38.006368
20
5.499753
10
37.996187
20
5.499887
10
37.986007
20
5.499969
10
37.975826
20
5.500000
10
37.965645
20
5.499978
10
37.955464
20
5.499905
10
37.945284
20
5.499780
10
37.935104
20
5.499603
10
37.924926
20
5.499374
10
37.914749
20
5.499093
10
37.904573
20
5.498761
10
37.894399
20
5.498377
10
37.884228
20
5.497941
10
37.874058
20
5.497453
10
37.863891
20
5.496914
10
37.853728
20
5.496322
10
37.843567
20
5.495679
10
37.833410
20
5.494985
10
37.823256
20
5.494238
10
37.813106
20
5.493440
10
37.802961
20
5.492590
10
37.792820
20
5.491689
10
37.782683
20
5.490736
10
37.772552
20
5.489731
10
37.762426
20
5.488675
10
37.752305
20
5.487568
10
37.742190
20
5.486408
10
37.732082
20
5.485198
10
37.721979
20
5.483936
10
37.711883
20
5.482622
10
37.701794
20
5.481257
10
37.691712
20
5.479841
10
37.681637
20
5.478373
10
37.671570
20
5.476855
10
37.661511
20
5.475285
10
37.651460
20
5.473663
10
37.641417
20
5.471991
10
37.631383
20
5.470268
10
37.621358
20
5.468493
10
37.611342
20
5.466668
10
37.601335
20
5.464791
10
37.591338
20
5.462864
10
37.581351
20
5.460885
10
37.571375
20
5.458856
10
37.561408
20
5.456777
10
37.551453
20
5.454646
10
37.541508
20
5.452465
10
37.531575
20
5.450233
10
37.521653
20
5.447951
10
37.511742
20
5.445618
10
37.501844
20
5.443235
10
37.491958
20
5.440801
10
37.482085
20
5.438317
10
37.472224
20
5.435783
10
37.462377
20
5.433199
10
37.452542
20
5.430565
10
37.442722
20
5.427880
10
37.432915
20
5.425146
10
37.423122
20
5.422362
10
37.413343
20
5.419528
10
37.403579
20
5.416644
10
37.393830
20
5.413710
10
37.384096
20
5.410727
10
37.374377
20
5.407695
10
37.364673
20
5.404613
10
37.354986
20
5.401481
10
37.345314
20
5.398301
10
37.335659
20
5.395071
10
37.326021
20
5.391792
10
37.316399
20
5.388464
10
37.306794
20
5.385087
10
37.297207
20
5.381661
10
37.287637
20
5.378187
10
37.278085
20
5.374664
10
37.268551
20
5.371092
10
37.259035
20
5.367472
10
37.249538
20
5.363803
10
37.240060
20
5.360086
10
37.230601
20
5.356321
10
37.221161
20
5.352508
10
37.211740
20
5.348647
10
37.202340
20
5.344738
10
37.192959
20
5.340781
10
37.183599
20
5.336776
10
37.174259
20
5.332724
10
37.164940
20
5.328624
10
37.155642
20
5.324477
10
37.146365
20
5.320283
10
37.137109
20
5.316041
10
37.127876
20
5.311753
10
37.118664
20
5.307417
10
37.109474
20
5.303035
10
37.100307
20
5.298606
10
37.091163
20
5.294130
10
37.082041
20
5.289608
10
37.072943
20
5.285039
10
37.063868
20
5.280424
10
37.054816
20
5.275763
10
37.045789
20
5.271056
10
37.036785
20
5.266303
10
37.027806
20
5.261505
10
37.018851
20
5.256660
10
37.009922
20
5.251770
10
37.001017
20
5.246835
10
36.992137
20
5.241855
10
36.983283
20
5.236829
10
36.974454
20
5.231758
10
36.965652
20
5.226643
10
36.956875
20
5.221483
10
36.948125
20
5.216278
10
36.939402
20
5.211028
10
36.930705
20
5.205735
10
36.922036
20
5.200397
10
36.913394
20
5.195015
10
36.904779
20
5.189589
10
36.896192
20
5.184119
10
36.887633
20
5.178606
10
36.879102
20
5.173049
10
36.870600
20
5.167449
10
36.862126
20
5.161806
10
36.853681
20
5.156119
10
36.845265
20
5.150390
10
36.836878
20
5.144618
10
36.828521
20
5.138803
10
36.820193
20
5.132946
10
36.811896
20
5.127047
10
36.803629
20
5.121105
10
36.795391
20
5.115121
10
36.787185
20
5.109096
10
36.779009
20
5.103029
10
36.770865
20
5.096920
10
36.762751
20
5.090770
10
36.754669
20
5.084578
10
36.746618
20
5.078346
10
36.738600
20
5.072073
10
36.730613
20
5.065758
10
36.722659
20
5.059404
10
36.714737
20
5.053009
10
36.706848
20
5.046574
10
36.698991
20
5.040098
10
36.691168
20
5.033583
10
36.683378
20
5.027028
10
36.675621
20
5.020433
10
36.667898
20
5.013799
10
36.660209
20
5.007126
10
36.652554
20
5.000414
10
36.644934
20
4.993663
10
36.637347
20
4.986873
10
36.629796
20
4.980044
10
36.622279
20
4.973178
10
36.614797
20
4.966273
10
36.607351
20
4.959330
10
36.599940
20
4.952349
10
36.592564
20
4.945331
10
36.585225
20
4.938275
10
36.577921
20
4.931182
10
36.570654
20
4.924052
10
36.563423
20
4.916885
10
36.556229
20
4.909681
10
36.549071
20
4.902441
10
36.541951
20
4.895164
10
36.534867
20
4.887851
10
36.527821
20
4.880502
10
36.520812
20
4.873118
10
36.513841
20
4.865698
10
36.506908
20
4.858242
10
36.500013
20
4.850751
10
36.493156
20
4.843226
10
36.486337
20
4.835665
10
32.596168
20
0.500000
10
35.291350
20
0.500000
10
38.606014
20
1.602166
10
38.615666
20
1.605403
10
38.625302
20
1.608689
0
LWPOLYLINE
8
0
100
AcDbEntity
100
AcDbPolyline
90
723
70
1
10
27.902986
20
1.608689
10
27.912605
20
1.612025
10
27.922208
20
1.615409
10
27.931792
20
1.618841
10
27.941360
20
1.622323
10
27.950909
20
1.625853
10
27.960440
20
1.629432
10
27.969953
20
1.633059
10
27.979448
20
1.636735
10
27.988923
20
1.640459
10
27.998380
20
1.644231
10
28.007817
20
1.648051
10
28.017234
20
1.651919
10
28.026632
20
1.655835
10
28.036010
20
1.659799
10
28.045367
20
1.663811
10
28.054704
20
1.667870
10
28.064020
20
1.671977
10
28.073315
20
1.676131
10
28.082589
20
1.680332
10
28.091841
20
1.684580
10
28.101072
20
1.688876
10
28.110280
20
1.693218
10
28.119467
20
1.697607
10
28.128630
20
1.702043
10
28.137772
20
1.706526
10
28.146890
20
1.711055
10
28.155985
20
1.715630
10
28.165056
20
1.720252
10
28.174104
20
1.724919
10
28.183128
20
1.729633
10
28.192128
20
1.734393
10
28.201104
20
1.739198
10
28.210055
20
1.744049
10
28.218981
20
1.748945
10
28.227883
20
1.753887
10
28.236759
20
1.758874
10
28.245609
20
1.763906
10
28.254434
20
1.768984
10
28.263233
20
1.774106
10
28.272005
20
1.779272
10
28.280751
20
1.784484
10
28.289471
20
1.789740
10
28.298163
20
1.795040
10
28.306829
20
1.800384
10
28.315467
20
1.805772
10
28.324078
20
1.811205
10
28.332661
20
1.816681
10
28.341216
20
1.822200
10
28.349743
20
1.827763
10
28.358241
20
1.833370
10
28.366710
20
1.839019
10
28.375151
20
1.844712
10
28.383563
20
1.850448
10
28.391945
20
1.856226
10
28.400298
20
1.862047
10
28.408621
20
1.867910
10
28.416915
20
1.873816
10
28.425178
20
1.879764
10
28.433410
20
1.885753
10
28.441612
20
1.891785
10
28.449783
20
1.897858
10
28.457924
20
1.903973
10
28.466033
20
1.910129
10
28.474110
20
1.916327
10
28.482156
20
1.922565
10
28.490170
20
1.928844
10
28.498152
20
1.935164
10
28.506101
20
1.941525
10
28.514019
20
1.947926
10
28.521903
20
1.954367
10
28.529755
20
1.960848
10
28.537573
20
1.967369
10
28.545358
20
1.973930
10
28.553110
20
1.980530
10
28.560828
20
1.987170
10
28.568512
20
1.993849
10
28.576162
20
2.000567
10
28.583778
20
2.007324
10
28.591359
20
2.014119
10
28.598906
20
2.020953
10
28.606417
20
2.027825
10
28.613894
20
2.034736
10
28.621335
20
2.041684
10
28.628741
20
2.048670
10
28.636111
20
2.055694
10
28.643446
20
2.062756
10
28.650744
20
2.069854
10
28.658006
20
2.076990
10
28.665231
20
2.084162
10
28.672421
20
2.091371
10
28.679573
20
2.098617
10
28.686688
20
2.105899
10
28.693766
20
2.113217
10
28.700807
20
2.120571
10
28.707810
20
2.127960
10
28.714776
20
2.135386
10
28.721703
20
2.142846
10
28.728593
20
2.150342
10
28.735444
20
2.157873
10
28.742257
20
2.165439
10
28.749031
20
2.173039
10
28.755767
20
2.180673
10
28.762463
20
2.188342
10
28.769121
20
2.196045
10
28.775739
20
2.203781
10
28.782317
20
2.211551
10
28.788857
20
2.219355
10
28.795356
20
2.227192
10
28.801815
20
2.235061
10
28.808234
20
2.242964
10
28.814613
20
2.250899
10
28.820951
20
2.258866
10
28.827249
20
2.266866
10
28.833506
20
2.274897
10
28.839722
20
2.282960
10
28.845896
20
2.291055
10
28.852030
20
2.299181
10
28.858122
20
2.307339
10
28.864172
20
2.315527
10
28.870181
20
2.323746
10
28.876148
20
2.331995
10
28.882073
20
2.340274
10
28.887955
20
2.348584
10
28.893795
20
2.356924
10
28.899593
20
2.365293
10
28.905348
20
2.373691
10
28.911060
20
2.382119
10
28.916729
20
2.390575
10
28.922355
20
2.399061
10
28.927937
20
2.407575
10
28.933477
20
2.416117
10
28.938972
20
2.424687
10
28.944424
20
2.433285
10
28.949833
20
2.441911
10
28.955197
20
2.450565
10
28.960517
20
2.459245
10
28.965793
20
2.467952
10
28.971024
20
2.476687
10
28.976211
20
2.485447
10
28.981353
20
2.494234
10
28.986451
20
2.503047
10
28.991503
20
2.511886
10
28.996511
20
2.520751
10
29.001473
20
2.529640
10
29.006390
20
2.538555
10
29.011261
20
2.547495
10
29.016087
20
2.556460
10
29.020868
20
2.565449
10
29.025602
20
2.574462
10
29.030291
20
2.583499
10
29.034933
20
2.592560
10
29.039529
20
2.601645
10
29.044079
20
2.610753
10
29.048583
20
2.619883
10
29.053040
20
2.629037
10
29.057450
20
2.638213
10
29.061813
20
2.647412
10
29.066130
20
2.656632
10
29.070400
20
2.665875
10
29.074622
20
2.675139
10
29.078798
20
2.684424
10
29.082926
20
2.693731
10
29.087006
20
2.703058
10
29.091039
20
2.712407
10
29.095025
20
2.721775
10
29.098962
20
2.731164
10
29.102852
20
2.740573
10
29.106694
20
2.750001
10
29.110488
20
2.759449
10
29.114234
20
2.768916
10
29.117931
20
2.778401
10
29.121580
20
2.787906
10
29.125181
20
2.797429
10
29.128733
20
2.806970
10
29.132237
20
2.816530
10
29.135692
20
2.826106
10
29.139098
20
2.835701
10
29.142455
20
2.845312
10
29.145763
20
2.854941
10
29.149022
20
2.864586
10
29.152232
20
2.874248
10
29.155393
20
2.883926
10
29.158504
20
2.893620
10
29.161567
20
2.903330
10
29.164579
20
2.913055
10
29.167542
20
2.922795
10
29.170456
20
2.932550
10
29.173319
20
2.942320
10
29.176133
20
2.952105
10
29.178898
20
2.961903
10
29.181612
20
2.971716
10
29.184276
20
2.981542
10
29.186890
20
2.991382
10
29.189454
20
3.001235
10
29.191968
20
3.011100
10
29.194432
20
3.020979
10
29.196845
20
3.030870
10
29.199208
20
3.040773
10
29.201520
20
3.050688
10
29.203782
20
3.060614
10
29.205994
20
3.070552
10
29.208155
20
3.080501
10
29.210265
20
3.090461
10
29.212324
20
3.100432
10
29.214333
20
3.110413
10
29.216290
20
3.120404
10
29.218197
20
3.130405
10
29.220053
20
3.140415
10
29.221858
20
3.150435
10
29.223612
20
3.160464
10
29.225315
20
3.170501
10
29.226967
20
3.180547
10
29.228567
20
3.190602
10
29.230117
20
3.200664
10
29.231615
20
3.210734
10
29.233062
20
3.220812
10
29.234457
20
3.230897
10
29.235802
20
3.240989
10
29.237094
20
3.251088
10
29.238336
20
3.261193
10
29.239526
20
3.271304
10
29.240664
20
3.281421
10
29.241751
20
3.291544
10
29.242786
20
3.301672
10
29.243770
20
3.311806
10
29.244702
20
3.321944
10
29.245583
20
3.332087
10
29.246412
20
3.342234
10
29.247189
20
3.352385
10
29.247915
20
3.362540
10
29.248589
20
3.372699
10
29.249211
20
3.382861
10
29.249781
20
3.393026
10
29.250300
20
3.403194
10
29.250767
20
3.413364
10
29.251182
20
3.423537
10
29.251545
20
3.433711
10
29.251857
20
3.443888
10
29.252117
20
3.454065
10
29.252325
20
3.464244
10
29.252481
20
3.474424
10
29.252585
20
3.484605
10
29.252637
20
3.494786
10
29.252638
20
3.504967
10
29.252587
20
3.515147
10
29.252484
20
3.525328
10
29.252329
20
3.535508
10
29.252122
20
3.545687
10
29.251864
20
3.555865
10
29.251554
20
3.566041
10
29.251191
20
3.576215
10
29.250778
20
3.586388
10
29.250312
20
3.596558
10
29.249795
20
3.606726
10
29.249225
20
3.616891
10
29.248604
20
3.627053
10
29.247932
20
3.637212
10
29.247208
20
3.647367
10
29.246432
20
3.657519
10
29.245604
20
3.667666
10
29.244725
20
3.677809
10
29.243794
20
3.687948
10
29.242811
20
3.698081
10
29.241777
20
3.708209
10
29.240691
20
3.718332
10
29.239554
20
3.728450
10
29.238365
20
3.738561
10
29.237125
20
3.748666
10
29.235834
20
3.758765
10
29.234491
20
3.768857
10
29.233096
20
3.778942
10
29.231651
20
3.789020
10
29.230154
20
3.799091
10
29.228606
20
3.809153
10
29.227006
20
3.819208
10
29.225356
20
3.829254
10
29.223654
20
3.839292
10
29.221902
20
3.849321
10
29.220098
20
3.859341
10
29.218243
20
3.869352
10
29.216338
20
3.879353
10
29.214381
20
3.889344
10
29.212374
20
3.899325
10
29.210315
20
3.909296
10
29.208207
20
3.919256
10
29.206047
20
3.929206
10
29.203837
20
3.939144
10
29.201576
20
3.949071
10
29.199265
20
3.958986
10
29.196903
20
3.968889
10
29.194491
20
3.978780
10
29.192029
20
3.988659
10
29.189516
20
3.998525
10
29.186953
20
4.008379
10
29.184340
20
4.018219
10
29.181677
20
4.028045
10
29.178964
20
4.037858
10
29.176201
20
4.047657
10
29.173389
20
4.057442
10
29.170526
20
4.067212
10
29.167614
20
4.076968
10
29.164652
20
4.086708
10
29.161640
20
4.096434
10
29.158580
20
4.106144
10
29.155469
20
4.115838
10
29.152310
20
4.125517
10
29.149101
20
4.135179
10
29.145843
20
4.144824
10
29.142536
20
4.154453
10
29.139180
20
4.164065
10
29.135775
20
4.173660
10
29.132321
20
4.183237
10
29.128819
20
4.192797
10
29.125268
20
4.202339
10
29.121669
20
4.211862
10
29.118021
20
4.221367
10
29.114324
20
4.230854
10
29.110580
20
4.240321
10
29.106787
20
4.249769
10
29.102946
20
4.259198
10
29.099058
20
4.268607
10
29.095121
20
4.277996
10
29.091137
20
4.287365
10
29.087105
20
4.296714
10
29.083026
20
4.306042
10
29.078899
20
4.315349
10
29.074725
20
4.324635
10
29.070503
20
4.333900
10
29.066235
20
4.343143
10
29.061919
20
4.352364
10
29.057557
20
4.361563
10
29.053148
20
4.370740
10
29.048692
20
4.379894
10
29.044189
20
4.389025
10
29.039641
20
4.398134
10
29.035045
20
4.407219
10
29.030404
20
4.416280
10
29.025717
20
4.425318
10
29.020983
20
4.434332
10
29.016204
20
4.443322
10
29.011380
20
4.452287
10
29.006509
20
4.461227
10
29.001593
20
4.470143
10
28.996632
20
4.479033
10
28.991626
20
4.487898
10
28.986574
20
4.496738
10
28.981478
20
4.505552
10
28.976337
20
4.514339
10
28.971151
20
4.523100
10
28.965921
20
4.531835
10
28.960646
20
4.540543
10
28.955327
20
4.549224
10
28.949964
20
4.557878
10
28.944557
20
4.566505
10
28.939106
20
4.575104
10
28.933611
20
4.583675
10
28.928073
20
4.592218
10
28.922491
20
4.600732
10
28.916866
20
4.609218
10
28.911198
20
4.617676
10
28.905487
20
4.626104
10
28.899733
20
4.634503
10
28.893937
20
4.642873
10
28.888098
20
4.651213
10
28.882216
20
4.659524
10
28.876293
20
4.667804
10
28.870327
20
4.676054
10
28.864319
20
4.684274
10
28.858270
20
4.692462
10
28.852179
20
4.700620
10
28.846046
20
4.708747
10
28.839872
20
4.716843
10
28.833658
20
4.724907
10
28.827402
20
4.732939
10
28.821105
20
4.740939
10
28.814768
20
4.748908
10
28.808390
20
4.756843
10
28.801972
20
4.764747
10
28.795513
20
4.772617
10
28.789015
20
4.780455
10
28.782477
20
4.788259
10
28.775899
20
4.796030
10
28.769282
20
4.803767
10
28.762626
20
4.811471
10
28.755930
20
4.819140
10
28.749196
20
4.826776
10
28.742422
20
4.834377
10
28.735610
20
4.841943
10
28.728760
20
4.849475
10
28.721871
20
4.856971
10
28.714945
20
4.864433
10
28.707980
20
4.871859
10
28.700978
20
4.879250
10
28.693938
20
4.886605
10
28.686861
20
4.893924
10
28.679746
20
4.901206
10
28.672595
20
4.908453
10
28.665407
20
4.915663
10
28.658182
20
4.922836
10
28.650921
20
4.929973
10
28.643624
20
4.937072
10
28.636290
20
4.944134
10
28.628921
20
4.951159
10
28.621516
20
4.958146
10
28.614076
20
4.965095
10
28.606600
20
4.972007
10
28.599089
20
4.978880
10
28.591543
20
4.985715
10
28.583963
20
4.992511
10
28.576348
20
4.999269
10
28.568699
20
5.005988
10
28.561016
20
5.012668
10
28.553298
20
5.019309
10
28.545548
20
5.025910
10
28.537763
20
5.032472
10
28.529946
20
5.038994
10
28.522095
20
5.045476
10
28.514211
20
5.051918
10
28.506295
20
5.058320
10
28.498346
20
5.064681
10
28.490365
20
5.071002
10
28.482351
20
5.077283
10
28.474306
20
5.083522
10
28.466230
20
5.089720
10
28.458121
20
5.095877
10
28.449982
20
5.101993
10
28.441811
20
5.108068
10
28.433610
20
5.114100
10
28.425378
20
5.120091
10
28.417116
20
5.126040
10
28.408824
20
5.131946
10
28.400501
20
5.137811
10
28.392149
20
5.143633
10
28.383767
20
5.149412
10
28.375356
20
5.155149
10
28.366916
20
5.160842
10
28.358447
20
5.166493
10
28.349950
20
5.172101
10
28.341424
20
5.177665
10
28.332869
20
5.183185
10
28.324287
20
5.188663
10
28.315677
20
5.194096
10
28.307040
20
5.199485
10
28.298375
20
5.204831
10
28.289683
20
5.210132
10
28.280964
20
5.215389
10
28.272218
20
5.220601
10
28.263446
20
5.225769
10
28.254648
20
5.230892
10
28.245824
20
5.235970
10
28.236974
20
5.241004
10
28.228099
20
5.245992
10
28.219198
20
5.250935
10
28.210273
20
5.255832
10
28.201322
20
5.260684
10
28.192347
20
5.265491
10
28.183348
20
5.270252
10
28.174324
20
5.274966
10
28.165277
20
5.279635
10
28.156206
20
5.284258
10
28.147111
20
5.288834
10
28.137994
20
5.293364
10
28.128853
20
5.297848
10
28.119690
20
5.302285
10
28.110504
20
5.306675
10
28.101296
20
5.311019
10
28.092066
20
5.315316
10
28.082814
20
5.319565
10
28.073541
20
5.323768
10
28.064247
20
5.327923
10
28.054931
20
5.332030
10
28.045595
20
5.336091
10
28.036238
20
5.340104
10
28.026861
20
5.344069
10
28.017463
20
5.347986
10
28.008046
20
5.351855
10
27.998610
20
5.355677
10
27.989154
20
5.359450
10
27.979679
20
5.363175
10
27.970185
20
5.366852
10
27.960672
20
5.370480
10
27.951141
20
5.374060
10
27.941592
20
5.377592
10
27.932026
20
5.381074
10
27.922441
20
5.384508
10
27.912839
20
5.387894
10
27.903221
20
5.391230
10
27.893585
20
5.394517
10
27.883932
20
5.397755
10
27.874264
20
5.400944
10
27.864579
20
5.404084
10
27.854878
20
5.407174
10
27.845162
20
5.410215
10
27.835430
20
5.413207
10
27.825684
20
5.416149
10
27.815922
20
5.419041
10
27.806146
20
5.421883
10
27.796355
20
5.424676
10
27.786551
20
5.427419
10
27.776732
20
5.430112
10
27.766900
20
5.432755
10
27.757055
20
5.435347
10
27.747197
20
5.437890
10
27.737325
20
5.440382
10
27.727442
20
5.442825
10
27.717545
20
5.445216
10
27.707637
20
5.447558
10
27.697717
20
5.449849
10
27.687786
20
5.452089
10
27.677843
20
5.454279
10
27.667889
20
5.456418
10
27.657925
20
5.458506
10
27.647950
20
5.460544
10
27.637965
20
5.462531
10
27.627969
20
5.464467
10
27.617964
20
5.466352
10
27.607950
20
5.468186
10
27.597926
20
5.469970
10
27.587894
20
5.471702
10
27.577852
20
5.473383
10
27.567803
20
5.475013
10
27.557745
20
5.476591
10
27.547679
20
5.478119
10
27.537605
20
5.479595
10
27.527525
20
5.481020
10
27.517437
20
5.482394
10
27.507342
20
5.483716
10
27.497241
20
5.484987
10
27.487133
20
5.486206
10
27.477019
20
5.487374
10
27.466899
20
5.488491
10
27.456774
20
5.489555
10
27.446644
20
5.490569
10
27.436508
20
5.491531
10
27.426368
20
5.492441
10
27.416223
20
5.493299
10
27.406074
20
5.494106
10
27.395921
20
5.494861
10
27.385764
20
5.495565
10
27.375604
20
5.496217
10
27.365441
20
5.496817
10
27.355275
20
5.497365
10
27.345106
20
5.497862
10
27.334934
20
5.498306
10
27.324761
20
5.498699
10
27.314586
20
5.499041
10
27.304409
20
5.499330
10
27.294231
20
5.499568
10
27.284051
20
5.499753
10
27.273871
20
5.499887
10
27.263690
20
5.499969
10
27.253509
20
5.500000
10
27.243328
20
5.499978
10
27.233148
20
5.499905
10
27.222967
20
5.499780
10
27.212788
20
5.499603
10
27.202609
20
5.499374
10
27.192432
20
5.499093
10
27.182257
20
5.498761
10
27.172083
20
5.498377
10
27.161911
20
5.497941
10
27.151742
20
5.497453
10
27.141575
20
5.496914
10
27.131411
20
5.496322
10
27.121251
20
5.495679
10
27.111093
20
5.494985
10
27.100940
20
5.494238
10
27.090790
20
5.493440
10
27.080644
20
5.492590
10
27.070503
20
5.491689
10
27.060367
20
5.490736
10
27.050236
20
5.489731
10
27.040110
20
5.488675
10
27.029989
20
5.487568
10
27.019874
20
5.486408
10
27.009765
20
5.485198
10
26.999663
20
5.483936
10
26.989567
20
5.482622
10
26.979478
20
5.481257
10
26.969396
20
5.479841
10
26.959321
20
5.478373
10
26.949254
20
5.476855
10
26.939195
20
5.475285
10
26.929144
20
5.473663
10
26.919101
20
5.471991
10
26.909067
20
5.470268
10
26.899042
20
5.468493
10
26.889025
20
5.466668
10
26.879019
20
5.464791
10
26.869022
20
5.462864
10
26.859035
20
5.460885
10
26.849058
20
5.458856
10
26.839092
20
5.456777
10
26.829136
20
5.454646
10
26.819192
20
5.452465
10
26.809258
20
5.450233
10
26.799336
20
5.447951
10
26.789426
20
5.445618
10
26.779528
20
5.443235
10
26.769642
20
5.440801
10
26.759769
20
5.438317
10
26.749908
20
5.435783
10
26.740060
20
5.433199
10
26.730226
20
5.430565
10
26.720405
20
5.427880
10
26.710598
20
5.425146
10
26.700805
20
5.422362
10
26.691027
20
5.419528
10
26.681263
20
5.416644
10
26.671514
20
5.413710
10
26.661779
20
5.410727
10
26.652060
20
5.407695
10
26.642357
20
5.404613
10
26.632670
20
5.401481
10
26.622998
20
5.398301
10
26.613343
20
5.395071
10
26.603704
20
5.391792
10
26.594083
20
5.388464
10
26.584478
20
5.385087
10
26.574891
20
5.381661
10
26.565321
20
5.378187
10
26.555769
20
5.374664
10
26.546235
20
5.371092
10
26.536719
20
5.367472
10
26.527222
20
5.363803
10
26.517744
20
5.360086
10
26.508285
20
5.356321
10
26.498845
20
5.352508
10
26.489424
20
5.348647
10
26.480023
20
5.344738
10
26.470643
20
5.340781
10
26.461283
20
5.336776
10
26.451943
20
5.332724
10
26.442624
20
5.328624
10
26.433325
20
5.324477
10
26.424049
20
5.320283
10
26.414793
20
5.316041
10
26.405559
20
5.311753
10
26.396348
20
5.307417
10
26.387158
20
5.303035
10
26.377991
20
5.298606
10
26.368847
20
5.294130
10
26.359725
20
5.289608
10
26.350627
20
5.285039
10
26.341551
20
5.280424
10
26.332500
20
5.275763
10
26.323472
20
5.271056
10
26.314469
20
5.266303
10
26.305490
20
5.261505
10
26.296535
20
5.256660
10
26.287605
20
5.251770
10
26.278700
20
5.246835
10
26.269821
20
5.241855
10
26.260966
20
5.236829
10
26.252138
20
5.231758
10
26.243335
20
5.226643
10
26.234559
20
5.221483
10
26.225809
20
5.216278
10
26.217086
20
5.211028
10
26.208389
20
5.205735
10
26.199720
20
5.200397
10
26.191077
20
5.195015
10
26.182463
20
5.189589
10
26.173876
20
5.184119
10
26.165317
20
5.178606
10
26.156786
20
5.173049
10
26.148283
20
5.167449
10
26.139809
20
5.161806
10
26.131364
20
5.156119
10
26.122948
20
5.150390
10
26.114562
20
5.144618
10
26.106205
20
5.138803
10
26.097877
20
5.132946
10
26.089580
20
5.127047
10
26.081312
20
5.121105
10
26.073075
20
5.115121
10
26.064869
20
5.109096
10
26.056693
20
5.103029
10
26.048548
20
5.096920
10
26.040435
20
5.090770
10
26.032353
20
5.084578
10
26.024302
20
5.078346
10
26.016283
20
5.072073
10
26.008297
20
5.065758
10
26.000342
20
5.059404
10
25.992421
20
5.053009
10
25.984531
20
5.046574
10
25.976675
20
5.040098
10
25.968852
20
5.033583
10
25.961061
20
5.027028
10
25.953305
20
5.020433
10
25.945582
20
5.013799
10
25.937893
20
5.007126
10
25.930238
20
5.000414
10
25.922617
20
4.993663
10
25.915031
20
4.986873
10
25.907479
20
4.980044
10
25.899963
20
4.973178
10
25.892481
20
4.966273
10
25.885034
20
4.959330
10
25.877623
20
4.952349
10
25.870248
20
4.945331
10
25.862909
20
4.938275
10
25.855605
20
4.931182
10
25.848338
20
4.924052
10
25.841107
20
4.916885
10
25.833912
20
4.909681
10
25.826755
20
4.902441
10
25.819634
20
4.895164
10
25.812551
20
4.887851
10
25.805504
20
4.880502
10
25.798496
20
4.873118
10
25.791525
20
4.865698
10
25.784592
20
4.858242
10
25.777696
20
4.850751
10
25.770840
20
4.843226
10
25.764021
20
4.835665
10
21.873851
20
0.500000
10
24.569034
20
0.500000
10
27.883697
20
1.602166
10
27.893350
20
1.605403
10
27.902986
20
1.608689
0
LWPOLYLINE
8
0
100
AcDbEntity
100
AcDbPolyline
90
723
70
1
10
17.180670
20
1.608689
10
17.190289
20
1.612025
10
17.199891
20
1.615409
10
17.209476
20
1.618841
10
17.219043
20
1.622323
10
17.228593
20
1.625853
10
17.238124
20
1.629432
10
17.247637
20
1.633059
10
17.257131
20
1.636735
10
17.266607
20
1.640459
10
17.276063
20
1.644231
10
17.285500
20
1.648051
10
17.294918
20
1.651919
10
17.304316
20
1.655835
10
17.313693
20
1.659799
10
17.323051
20
1.663811
10
17.332388
20
1.667870
10
17.341704
20
1.671977
10
17.350999
20
1.676131
10
17.360273
20
1.680332
10
17.369525
20
1.684580
10
17.378755
20
1.688876
10
17.387964
20
1.693218
10
17.397150
20
1.697607
10
17.406314
20
1.702043
10
17.415455
20
1.706526
10
17.424573
20
1.711055
10
17.433668
20
1.715630
10
17.442740
20
1.720252
10
17.451788
20
1.724919
10
17.460812
20
1.729633
10
17.469812
20
1.734393
10
17.478788
20
1.739198
10
17.487739
20
1.744049
10
17.496665
20
1.748945
10
17.505566
20
1.753887
10
17.514442
20
1.758874
10
17.523293
20
1.763906
10
17.532117
20
1.768984
10
17.540916
20
1.774106
10
17.549689
20
1.779272
10
17.558435
20
1.784484
10
17.567154
20
1.789740
10
17.575847
20
1.795040
10
17.584513
20
1.800384
10
17.593151
20
1.805772
10
17.601762
20
1.811205
10
17.610344
20
1.816681
10
17.618899
20
1.822200
10
17.627426
20
1.827763
10
17.635924
20
1.833370
10
17.644394
20
1.839019
10
17.652835
20
1.844712
10
17.661247
20
1.850448
10
17.669629
20
1.856226
10
17.677982
20
1.862047
10
17.686305
20
1.867910
10
17.694598
20
1.873816
10
17.702861
20
1.879764
10
17.711094
20
1.885753
10
17.719296
20
1.891785
10
17.727467
20
1.897858
10
17.735607
20
1.903973
10
17.743716
20
1.910129
10
17.751794
20
1.916327
10
17.759840
20
1.922565
10
17.767854
20
1.928844
10
17.775835
20
1.935164
10
17.783785
20
1.941525
10
17.791702
20
1.947926
10
17.799587
20
1.954367
10
17.807438
20
1.960848
10
17.815257
20
1.967369
10
17.823042
20
1.973930
10
17.830794
20
1.980530
10
17.838512
20
1.987170
10
17.846196
20
1.993849
10
17.853846
20
2.000567
10
17.861462
20
2.007324
10
17.869043
20
2.014119
10
17.876589
20
2.020953
10
17.884101
20
2.027825
10
17.891578
20
2.034736
10
17.899019
20
2.041684
10
17.906425
20
2.048670
10
17.913795
20
2.055694
10
17.921129
20
2.062756
10
17.928427
20
2.069854
10
17.935690
20
2.076990
10
17.942915
20
2.084162
10
17.950104
20
2.091371
10
17.957256
20
2.098617
10
17.964372
20
2.105899
10
17.971450
20
2.113217
10
17.978490
20
2.120571
10
17.985494
20
2.127960
10
17.992459
20
2.135386
10
17.999387
20
2.142846
10
18.006276
20
2.150342
10
18.013128
20
2.157873
10
18.019941
20
2.165439
10
18.026715
20
2.173039
10
18.033450
20
2.180673
10
18.040147
20
2.188342
10
18.046804
20
2.196045
10
18.053422
20
2.203781
10
18.060001
20
2.211551
10
18.066540
20
2.219355
10
18.073039
20
2.227192
10
18.079499
20
2.235061
10
18.085918
20
2.242964
10
18.092297
20
2.250899
10
18.098635
20
2.258866
10
18.104933
20
2.266866
10
18.111189
20
2.274897
10
18.117405
20
2.282960
10
18.123580
20
2.291055
10
18.129714
20
2.299181
10
18.135806
20
2.307339
10
18.141856
20
2.315527
10
18.147865
20
2.323746
10
18.153831
20
2.331995
10
18.159756
20
2.340274
10
18.165639
20
2.348584
10
18.171479
20
2.356924
10
18.177276
20
2.365293
10
18.183031
20
2.373691
10
18.188743
20
2.382119
10
18.194412
20
2.390575
10
18.200038
20
2.399061
10
18.205621
20
2.407575
10
18.211160
20
2.416117
10
18.216656
20
2.424687
10
18.222108
20
2.433285
10
18.227516
20
2.441911
10
18.232880
20
2.450565
10
18.238201
20
2.459245
10
18.243476
20
2.467952
10
18.248708
20
2.476687
10
18.253895
20
2.485447
10
18.259037
20
2.494234
10
18.264134
20
2.503047
10
18.269187
20
2.511886
10
18.274194
20
2.520751
10
18.279157
20
2.529640
10
18.284074
20
2.538555
10
18.288945
20
2.547495
10
18.293771
20
2.556460
10
18.298551
20
2.565449
10
18.303286
20
2.574462
10
18.307974
20
2.583499
10
18.312617
20
2.592560
10
18.317213
20
2.601645
10
18.321763
20
2.610753
10
18.326266
20
2.619883
10
18.330723
20
2.629037
10
18.335134
20
2.638213
10
18.339497
20
2.647412
10
18.343814
20
2.656632
10
18.348083
20
2.665875
10
18.352306
20
2.675139
10
18.356481
20
2.684424
10
18.360609
20
2.693731
10
18.364690
20
2.703058
10
18.368723
20
2.712407
10
18.372708
20
2.721775
10
18.376646
20
2.731164
10
18.380536
20
2.740573
10
18.384378
20
2.750001
10
18.388172
20
2.759449
10
18.391917
20
2.768916
10
18.395615
20
2.778401
10
18.399264
20
2.787906
10
18.402865
20
2.797429
10
18.406417
20
2.806970
10
18.409920
20
2.816530
10
18.413375
20
2.826106
10
18.416781
20
2.835701
10
18.420139
20
2.845312
10
18.423447
20
2.854941
10
18.426706
20
2.864586
10
18.429916
20
2.874248
10
18.433077
20
2.883926
10
18.436188
20
2.893620
10
18.439250
20
2.903330
10
18.442263
20
2.913055
10
18.445226
20
2.922795
10
18.448139
20
2.932550
10
18.451003
20
2.942320
10
18.453817
20
2.952105
10
18.456581
20
2.961903
10
18.459295
20
2.971716
10
18.461960
20
2.981542
10
18.464574
20
2.991382
10
18.467138
20
3.001235
10
18.469652
20
3.011100
10
18.472115
20
3.020979
10
18.474529
20
3.030870
10
18.476892
20
3.040773
10
18.479204
20
3.050688
10
18.481466
20
3.060614
10
18.483677
20
3.070552
10
18.485838
20
3.080501
10
18.487948
20
3.090461
10
18.490008
20
3.100432
10
18.492016
20
3.110413
10
18.493974
20
3.120404
10
18.495881
20
3.130405
10
18.497737
20
3.140415
10
18.499542
20
3.150435
10
18.501296
20
3.160464
10
18.502999
20
3.170501
10
18.504651
20
3.180547
10
18.506251
20
3.190602
10
18.507801
20
3.200664
10
18.509299
20
3.210734
10
18.510746
20
3.220812
10
18.512141
20
3.230897
10
18.513485
20
3.240989
10
18.514778
20
3.251088
10
18.516019
20
3.261193
10
18.517209
20
3.271304
10
18.518348
20
3.281421
10
18.519435
20
3.291544
10
18.520470
20
3.301672
10
18.521454
20
3.311806
10
18.522386
20
3.321944
10
18.523267
20
3.332087
10
18.524096
20
3.342234
10
18.524873
20
3.352385
10
18.525599
20
3.362540
10
18.526272
20
3.372699
10
18.526895
20
3.382861
10
18.527465
20
3.393026
10
18.527984
20
3.403194
10
18.528451
20
3.413364
10
18.528866
20
3.423537
10
18.529229
20
3.433711
10
18.529541
20
3.443888
10
18.529800
20
3.454065
10
18.530008
20
3.464244
10
18.530164
20
3.474424
10
18.530269
20
3.484605
10
18.530321
20
3.494786
10
18.530322
20
3.504967
10
18.530271
20
3.515147
10
18.530167
20
3.525328
10
18.530013
20
3.535508
10
18.529806
20
3.545687
10
18.529548
20
3.555865
10
18.529237
20
3.566041
10
18.528875
20
3.576215
10
18.528461
20
3.586388
10
18.527996
20
3.596558
10
18.527478
20
3.606726
10
18.526909
20
3.616891
10
18.526288
20
3.627053
10
18.525616
20
3.637212
10
18.524891
20
3.647367
10
18.524115
20
3.657519
10
18.523287
20
3.667666
10
18.522408
20
3.677809
10
18.521477
20
3.687948
10
18.520495
20
3.698081
10
18.519461
20
3.708209
10
18.518375
20
3.718332
10
18.517238
20
3.728450
10
18.516049
20
3.738561
10
18.514809
20
3.748666
10
18.513517
20
3.758765
10
18.512174
20
3.768857
10
18.510780
20
3.778942
10
18.509335
20
3.789020
10
18.507838
20
3.799091
10
18.506289
20
3.809153
10
18.504690
20
3.819208
10
18.503040
20
3.829254
10
18.501338
20
3.839292
10
18.499585
20
3.849321
10
18.497782
20
3.859341
10
18.495927
20
3.869352
10
18.494021
20
3.879353
10
18.492065
20
3.889344
10
18.490057
20
3.899325
10
18.487999
20
3.909296
10
18.485890
20
3.919256
10
18.483731
20
3.929206
10
18.481520
20
3.939144
10
18.479260
20
3.949071
10
18.476949
20
3.958986
10
18.474587
20
3.968889
10
18.472175
20
3.978780
10
18.469712
20
3.988659
10
18.467200
20
3.998525
10
18.464637
20
4.008379
10
18.462024
20
4.018219
10
18.459361
20
4.028045
10
18.456648
20
4.037858
10
18.453885
20
4.047657
10
18.451072
20
4.057442
10
18.448210
20
4.067212
10
18.445297
20
4.076968
10
18.442336
20
4.086708
10
18.439324
20
4.096434
10
18.436263
20
4.106144
10
18.433153
20
4.115838
10
18.429993
20
4.125517
10
18.426785
20
4.135179
10
18.423527
20
4.144824
10
18.420220
20
4.154453
10
18.416864
20
4.164065
10
18.413459
20
4.173660
10
18.410005
20
4.183237
10
18.406503
20
4.192797
10
18.402952
20
4.202339
10
18.399352
20
4.211862
10
18.395704
20
4.221367
10
18.392008
20
4.230854
10
18.388263
20
4.240321
10
18.384471
20
4.249769
10
18.380630
20
4.259198
10
18.376741
20
4.268607
10
18.372805
20
4.277996
10
18.368821
20
4.287365
10
18.364789
20
4.296714
10
18.360709
20
4.306042
10
18.356582
20
4.315349
10
18.352408
20
4.324635
10
18.348187
20
4.333900
10
18.343918
20
4.343143
10
18.339603
20
4.352364
10
18.335240
20
4.361563
10
18.330831
20
4.370740
10
18.326375
20
4.379894
10
18.321873
20
4.389025
10
18.317324
20
4.398134
10
18.312729
20
4.407219
10
18.308088
20
4.416280
10
18.303400
20
4.425318
10
18.298667
20
4.434332
10
18.293888
20
4.443322
10
18.289063
20
4.452287
10
18.284193
20
4.461227
10
18.279277
20
4.470143
10
18.274316
20
4.479033
10
18.269309
20
4.487898
10
18.264258
20
4.496738
10
18.259162
20
4.505552
10
18.254020
20
4.514339
10
18.248835
20
4.523100
10
18.243604
20
4.531835
10
18.238330
20
4.540543
10
18.233010
20
4.549224
10
18.227647
20
4.557878
10
18.222240
20
4.566505
10
18.216789
20
4.575104
10
18.211295
20
4.583675
10
18.205756
20
4.592218
10
18.200175
20
4.600732
10
18.194550
20
4.609218
10
18.188882
20
4.617676
10
18.183171
20
4.626104
10
18.177417
20
4.634503
10
18.171620
20
4.642873
10
18.165781
20
4.651213
10
18.159900
20
4.659524
10
18.153976
20
4.667804
10
18.148010
20
4.676054
10
18.142003
20
4.684274
10
18.135953
20
4.692462
10
18.129862
20
4.700620
10
18.123730
20
4.708747
10
18.117556
20
4.716843
10
18.111341
20
4.724907
10
18.105085
20
4.732939
10
18.098789
20
4.740939
10
18.092451
20
4.748908
10
18.086074
20
4.756843
10
18.079655
20
4.764747
10
18.073197
20
4.772617
10
18.066699
20
4.780455
10
18.060161
20
4.788259
10
18.053583
20
4.796030
10
18.046966
20
4.803767
10
18.040310
20
4.811471
10
18.033614
20
4.819140
10
18.026879
20
4.826776
10
18.020106
20
4.834377
10
18.013294
20
4.841943
10
18.006444
20
4.849475
10
17.999555
20
4.856971
10
17.992628
20
4.864433
10
17.985664
20
4.871859
10
17.978661
20
4.879250
10
17.971622
20
4.886605
10
17.964544
20
4.893924
10
17.957430
20
4.901206
10
17.950279
20
4.908453
10
17.943091
20
4.915663
10
17.935866
20
4.922836
10
17.928605
20
4.929973
10
17.921307
20
4.937072
10
17.913974
20
4.944134
10
17.906605
20
4.951159
10
17.899200
20
4.958146
10
17.891759
20
4.965095
10
17.884284
20
4.972007
10
17.876773
20
4.978880
10
17.869227
20
4.985715
10
17.861647
20
4.992511
10
17.854032
20
4.999269
10
17.846383
20
5.005988
10
17.838699
20
5.012668
10
17.830982
20
5.019309
10
17.823231
20
5.025910
10
17.815447
20
5.032472
10
17.807629
20
5.038994
10
17.799778
20
5.045476
10
17.791895
20
5.051918
10
17.783978
20
5.058320
10
17.776029
20
5.064681
10
17.768048
20
5.071002
10
17.760035
20
5.077283
10
17.751990
20
5.083522
10
17.743913
20
5.089720
10
17.735805
20
5.095877
10
17.727666
20
5.101993
10
17.719495
20
5.108068
10
17.711294
20
5.114100
10
17.703062
20
5.120091
10
17.694800
20
5.126040
10
17.686507
20
5.131946
10
17.678185
20
5.137811
10
17.669833
20
5.143633
10
17.661451
20
5.149412
10
17.653040
20
5.155149
10
17.644600
20
5.160842
10
17.636131
20
5.166493
10
17.627633
20
5.172101
10
17.619107
20
5.177665
10
17.610553
20
5.183185
10
17.601971
20
5.188663
10
17.593361
20
5.194096
10
17.584723
20
5.199485
10
17.576058
20
5.204831
10
17.567366
20
5.210132
10
17.558648
20
5.215389
10
17.549902
20
5.220601
10
17.541130
20
5.225769
10
17.532332
20
5.230892
10
17.523508
20
5.235970
10
17.514658
20
5.241004
10
17.505783
20
5.245992
10
17.496882
20
5.250935
10
17.487956
20
5.255832
10
17.479006
20
5.260684
10
17.470031
20
5.265491
10
17.461032
20
5.270252
10
17.452008
20
5.274966
10
17.442961
20
5.279635
10
17.433890
20
5.284258
10
17.424795
20
5.288834
10
17.415677
20
5.293364
10
17.406537
20
5.297848
10
17.397374
20
5.302285
10
17.388188
20
5.306675
10
17.378980
20
5.311019
10
17.369750
20
5.315316
10
17.360498
20
5.319565
10
17.351225
20
5.323768
10
17.341930
20
5.327923
10
17.332615
20
5.332030
10
17.323278
20
5.336091
10
17.313922
20
5.340104
10
17.304544
20
5.344069
10
17.295147
20
5.347986
10
17.285730
20
5.351855
10
17.276293
20
5.355677
10
17.266837
20
5.359450
10
17.257362
20
5.363175
10
17.247868
20
5.366852
10
17.238356
20
5.370480
10
17.228825
20
5.374060
10
17.219276
20
5.377592
10
17.209709
20
5.381074
10
17.200125
20
5.384508
10
17.190523
20
5.387894
10
17.180904
20
5.391230
10
17.171268
20
5.394517
10
17.161616
20
5.397755
10
17.151947
20
5.400944
10
17.142263
20
5.404084
10
17.132562
20
5.407174
10
17.122846
20
5.410215
10
17.113114
20
5.413207
10
17.103367
20
5.416149
10
17.093606
20
5.419041
10
17.083830
20
5.421883
10
17.074039
20
5.424676
10
17.064234
20
5.427419
10
17.054416
20
5.430112
10
17.044584
20
5.432755
10
17.034739
20
5.435347
10
17.024880
20
5.437890
10
17.015009
20
5.440382
10
17.005125
20
5.442825
10
16.995229
20
5.445216
10
16.985321
20
5.447558
10
16.975401
20
5.449849
10
16.965470
20
5.452089
10
16.955527
20
5.454279
10
16.945573
20
5.456418
10
16.935609
20
5.458506
10
16.925633
20
5.460544
10
16.915648
20
5.462531
10
16.905653
20
5.464467
10
16.895648
20
5.466352
10
16.885634
20
5.468186
10
16.875610
20
5.469970
10
16.865577
20
5.471702
10
16.855536
20
5.473383
10
16.845486
20
5.475013
10
16.835428
20
5.476591
10
16.825363
20
5.478119
10
16.815289
20
5.479595
10
16.805208
20
5.481020
10
16.795120
20
5.482394
10
16.785026
20
5.483716
10
16.774924
20
5.484987
10
16.764816
20
5.486206
10
16.754703
20
5.487374
10
16.744583
20
5.488491
10
16.734458
20
5.489555
10
16.724327
20
5.490569
10
16.714192
20
5.491531
10
16.704052
20
5.492441
10
16.693907
20
5.493299
10
16.683758
20
5.494106
10
16.673605
20
5.494861
10
16.663448
20
5.495565
10
16.653288
20
5.496217
10
16.643125
20
5.496817
10
16.632958
20
5.497365
10
16.622789
20
5.497862
10
16.612618
20
5.498306
10
16.602445
20
5.498699
10
16.592269
20
5.499041
10
16.582092
20
5.499330
10
16.571914
20
5.499568
10
16.561735
20
5.499753
10
16.551555
20
5.499887
10
16.541374
20
5.499969
10
16.531193
20
5.500000
10
16.521012
20
5.499978
10
16.510831
20
5.499905
10
16.500651
20
5.499780
10
16.490472
20
5.499603
10
16.480293
20
5.499374
10
16.470116
20
5.499093
10
16.459940
20
5.498761
10
16.449767
20
5.498377
10
16.439595
20
5.497941
10
16.429425
20
5.497453
10
16.419259
20
5.496914
10
16.409095
20
5.496322
10
16.398934
20
5.495679
10
16.388777
20
5.494985
10
16.378623
20
5.494238
10
16.368474
20
5.493440
10
16.358328
20
5.492590
10
16.348187
20
5.491689
10
16.338051
20
5.490736
10
16.327919
20
5.489731
10
16.317793
20
5.488675
10
16.307673
20
5.487568
10
16.297558
20
5.486408
10
16.287449
20
5.485198
10
16.277347
20
5.483936
10
16.267251
20
5.482622
10
16.257161
20
5.481257
10
16.247079
20
5.479841
10
16.237005
20
5.478373
10
16.226938
20
5.476855
10
16.216878
20
5.475285
10
16.206827
20
5.473663
10
16.196784
20
5.471991
10
16.186750
20
5.470268
10
16.176725
20
5.468493
10
16.166709
20
5.466668
10
16.156703
20
5.464791
10
16.146706
20
5.462864
10
16.136719
20
5.460885
10
16.126742
20
5.458856
10
16.116776
20
5.456777
10
16.106820
20
5.454646
10
16.096875
20
5.452465
10
16.086942
20
5.450233
10
16.077020
20
5.447951
10
16.067110
20
5.445618
10
16.057212
20
5.443235
10
16.047326
20
5.440801
10
16.037452
20
5.438317
10
16.027592
20
5.435783
10
16.017744
20
5.433199
10
16.007910
20
5.430565
10
15.998089
20
5.427880
10
15.988282
20
5.425146
10
15.978489
20
5.422362
10
15.968711
20
5.419528
10
15.958946
20
5.416644
10
15.949197
20
5.413710
10
15.939463
20
5.410727
10
15.929744
20
5.407695
10
15.920041
20
5.404613
10
15.910353
20
5.401481
10
15.900682
20
5.398301
10
15.891027
20
5.395071
10
15.881388
20
5.391792
10
15.871766
20
5.388464
10
15.862162
20
5.385087
10
15.852574
20
5.381661
10
15.843004
20
5.378187
10
15.833452
20
5.374664
10
15.823918
20
5.371092
10
15.814403
20
5.367472
10
15.804906
20
5.363803
10
15.795427
20
5.360086
10
15.785968
20
5.356321
10
15.776528
20
5.352508
10
15.767108
20
5.348647
10
15.757707
20
5.344738
10
15.748327
20
5.340781
10
15.738966
20
5.336776
10
15.729626
20
5.332724
10
15.720307
20
5.328624
10
15.711009
20
5.324477
10
15.701732
20
5.320283
10
15.692477
20
5.316041
10
15.683243
20
5.311753
10
15.674031
20
5.307417
10
15.664842
20
5.303035
10
15.655675
20
5.298606
10
15.646530
20
5.294130
10
15.637409
20
5.289608
10
15.628310
20
5.285039
10
15.619235
20
5.280424
10
15.610184
20
5.275763
10
15.601156
20
5.271056
10
15.592153
20
5.266303
10
15.583173
20
5.261505
10
15.574219
20
5.256660
10
15.565289
20
5.251770
10
15.556384
20
5.246835
10
15.547504
20
5.241855
10
15.538650
20
5.236829
10
15.529822
20
5.231758
10
15.521019
20
5.226643
10
15.512243
20
5.221483
10
15.503493
20
5.216278
10
15.494769
20
5.211028
10
15.486073
20
5.205735
10
15.477403
20
5.200397
10
15.468761
20
5.195015
10
15.460146
20
5.189589
10
15.451559
20
5.184119
10
15.443000
20
5.178606
10
15.434469
20
5.173049
10
15.425967
20
5.167449
10
15.417493
20
5.161806
10
15.409048
20
5.156119
10
15.400632
20
5.150390
10
15.392245
20
5.144618
10
15.383888
20
5.138803
10
15.375561
20
5.132946
10
15.367263
20
5.127047
10
15.358996
20
5.121105
10
15.350759
20
5.115121
10
15.342552
20
5.109096
10
15.334377
20
5.103029
10
15.326232
20
5.096920
10
15.318118
20
5.090770
10
15.310036
20
5.084578
10
15.301986
20
5.078346
10
15.293967
20
5.072073
10
15.285981
20
5.065758
10
15.278026
20
5.059404
10
15.270104
20
5.053009
10
15.262215
20
5.046574
10
15.254359
20
5.040098
10
15.246535
20
5.033583
10
15.238745
20
5.027028
10
15.230989
20
5.020433
10
15.223266
20
5.013799
10
15.215577
20
5.007126
10
15.207922
20
5.000414
10
15.200301
20
4.993663
10
15.192715
20
4.986873
10
15.185163
20
4.980044
10
15.177646
20
4.973178
10
15.170165
20
4.966273
10
15.162718
20
4.959330
10
15.155307
20
4.952349
10
15.147932
20
4.945331
10
15.140592
20
4.938275
10
15.133289
20
4.931182
10
15.126021
20
4.924052
10
15.118790
20
4.916885
10
15.111596
20
4.909681
10
15.104438
20
4.902441
10
15.097318
20
4.895164
10
15.090234
20
4.887851
10
15.083188
20
4.880502
10
15.076179
20
4.873118
10
15.069208
20
4.865698
10
15.062275
20
4.858242
10
15.055380
20
4.850751
10
15.048523
20
4.843226
10
15.041705
20
4.835665
10
11.151535
20
0.500000
10
13.846717
20
0.500000
10
17.161381
20
1.602166
10
17.171034
20
1.605403
10
17.180670
20
1.608689
0
ENDSEC
0
EOF
