999
side4fwd_std (straight+4 loops, fwd, R=2.35 w_v)
0
SECTION
2
HEADER
9
$INSUNITS
70
4
0
ENDSEC
0
SECTION
2
ENTITIES
0
LWPOLYLINE
8
0
100
AcDbEntity
100
AcDbPolyline
90
3037
70
1
10
1.445549
20
-0.514303
10
1.427911
20
-0.563600
10
1.408668
20
-0.612293
10
1.387843
20
-0.660331
10
1.365458
20
-0.707662
10
1.341535
20
-0.754235
10
1.316102
20
-0.800000
10
1.289185
20
-0.844909
10
1.260813
20
-0.888912
10
1.231016
20
-0.931964
10
1.199827
20
-0.974018
10
1.167278
20
-1.015029
10
1.133405
20
-1.054953
10
1.098244
20
-1.093748
10
1.061832
20
-1.131371
10
1.024209
20
-1.167783
10
0.985415
20
-1.202944
10
0.945490
20
-1.236817
10
0.904480
20
-1.269365
10
0.862426
20
-1.300555
10
0.819374
20
-1.330351
10
0.775370
20
-1.358723
10
0.730461
20
-1.385641
10
0.684696
20
-1.411074
10
0.638123
20
-1.434996
10
0.590792
20
-1.457382
10
0.542755
20
-1.478207
10
0.494061
20
-1.497449
10
0.444764
20
-1.515088
10
0.394917
20
-1.531105
10
0.344572
20
-1.545481
10
0.293783
20
-1.558203
10
0.242606
20
-1.569256
10
0.191094
20
-1.578629
10
0.139303
20
-1.586312
10
0.087289
20
-1.592296
10
0.035106
20
-1.596574
10
-0.017188
20
-1.599143
10
-0.069539
20
-1.600000
10
-0.121889
20
-1.599143
10
-0.174184
20
-1.596574
10
-0.226366
20
-1.592296
10
-0.278381
20
-1.586312
10
-0.330172
20
-1.578629
10
-0.381683
20
-1.569256
10
-0.432861
20
-1.558203
10
-0.483649
20
-1.545481
10
-0.533994
20
-1.531105
10
-0.583842
20
-1.515088
10
-0.633139
20
-1.497449
10
-0.681832
20
-1.478207
10
-0.729870
20
-1.457382
10
-0.777201
20
-1.434996
10
-0.823774
20
-1.411074
10
-0.869539
20
-1.385641
10
-0.914447
20
-1.358723
10
-0.958451
20
-1.330351
10
-1.001503
20
-1.300555
10
-1.043557
20
-1.269365
10
-1.084568
20
-1.236817
10
-1.124492
20
-1.202944
10
-1.163286
20
-1.167783
10
-1.200910
20
-1.131371
10
-1.237321
20
-1.093748
10
-1.272482
20
-1.054953
10
-1.306355
20
-1.015029
10
-1.338904
20
-0.974018
10
-1.370093
20
-0.931964
10
-1.399890
20
-0.888912
10
-1.428262
20
-0.844909
10
-1.455179
20
-0.800000
10
-1.480613
20
-0.754235
10
-1.504535
20
-0.707662
10
-1.526921
20
-0.660331
10
-1.547746
20
-0.612293
10
-1.566988
20
-0.563600
10
-1.584627
20
-0.514303
10
-1.600643
20
-0.464455
10
-1.615020
20
-0.414110
10
-1.627742
20
-0.363322
10
-1.638795
20
-0.312145
10
-1.648168
20
-0.260633
10
-1.655851
20
-0.208842
10
-1.661834
20
-0.156827
10
-1.666113
20
-0.104645
10
-1.668682
20
-0.052351
10
-1.669539
20
0.000000
10
-1.668682
20
0.052351
10
-1.666113
20
0.104645
10
-1.661834
20
0.156827
10
-1.655851
20
0.208842
10
-1.648168
20
0.260633
10
-1.638795
20
0.312145
10
-1.627742
20
0.363322
10
-1.615020
20
0.414110
10
-1.600643
20
0.464455
10
-1.584627
20
0.514303
10
-1.566988
20
0.563600
10
-1.547746
20
0.612293
10
-1.526921
20
0.660331
10
-1.504535
20
0.707662
10
-1.480613
20
0.754235
10
-1.455179
20
0.800000
10
-1.428262
20
0.844909
10
-1.399890
20
0.888912
10
-1.370093
20
0.931964
10
-1.338904
20
0.974018
10
-1.306355
20
1.015029
10
-1.272482
20
1.054953
10
-1.237321
20
1.093748
10
-1.200910
20
1.131371
10
-1.163286
20
1.167783
10
-1.124492
20
1.202944
10
-1.084568
20
1.236817
10
-1.043557
20
1.269365
10
-1.001503
20
1.300555
10
-0.958451
20
1.330351
10
-0.914447
20
1.358723
10
-0.869539
20
1.385641
10
-0.823774
20
1.411074
10
-0.777201
20
1.434996
10
-0.729870
20
1.457382
10
-0.681832
20
1.478207
10
-0.633139
20
1.497449
10
-0.583842
20
1.515088
10
-0.533994
20
1.531105
10
-0.483649
20
1.545481
10
-0.432861
20
1.558203
10
-0.381683
20
1.569256
10
-0.330172
20
1.578629
10
-0.278381
20
1.586312
10
-0.226366
20
1.592296
10
-0.174184
20
1.596574
10
-0.121889
20
1.599143
10
-0.069539
20
1.600000
10
-0.017188
20
1.599143
10
-0.008707
20
1.598727
10
-0.013735
20
1.606746
10
-0.020038
20
1.616913
10
-0.026289
20
1.627113
10
-0.032488
20
1.637344
10
-0.038635
20
1.647607
10
-0.044730
20
1.657900
10
-0.050772
20
1.668225
10
-0.056761
20
1.678580
10
-0.062698
20
1.688966
10
-0.068582
20
1.699382
10
-0.074413
20
1.709827
10
-0.080190
20
1.720303
10
-0.085914
20
1.730807
10
-0.091585
20
1.741340
10
-0.097201
20
1.751902
10
-0.102764
20
1.762493
10
-0.108273
20
1.773112
10
-0.113728
20
1.783758
10
-0.119129
20
1.794433
10
-0.124475
20
1.805134
10
-0.129766
20
1.815863
10
-0.135003
20
1.826618
10
-0.140185
20
1.837401
10
-0.145313
20
1.848209
10
-0.150385
20
1.859043
10
-0.155402
20
1.869903
10
-0.160363
20
1.880788
10
-0.165269
20
1.891699
10
-0.170119
20
1.902634
10
-0.174914
20
1.913594
10
-0.179653
20
1.924578
10
-0.184336
20
1.935586
10
-0.188963
20
1.946618
10
-0.193533
20
1.957673
10
-0.198047
20
1.968751
10
-0.202505
20
1.979852
10
-0.206906
20
1.990976
10
-0.211251
20
2.002122
10
-0.215539
20
2.013290
10
-0.219770
20
2.024479
10
-0.223943
20
2.035690
10
-0.228060
20
2.046922
10
-0.232119
20
2.058175
10
-0.236122
20
2.069449
10
-0.240066
20
2.080742
10
-0.243953
20
2.092056
10
-0.247783
20
2.103389
10
-0.251555
20
2.114741
10
-0.255269
20
2.126113
10
-0.258925
20
2.137503
10
-0.262522
20
2.148912
10
-0.266062
20
2.160339
10
-0.269544
20
2.171784
10
-0.272967
20
2.183247
10
-0.276332
20
2.194726
10
-0.279639
20
2.206223
10
-0.282886
20
2.217736
10
-0.286076
20
2.229266
10
-0.289206
20
2.240812
10
-0.292278
20
2.252374
10
-0.295291
20
2.263951
10
-0.298244
20
2.275543
10
-0.301139
20
2.287150
10
-0.303975
20
2.298772
10
-0.306751
20
2.310408
10
-0.309468
20
2.322058
10
-0.312126
20
2.333722
10
-0.314725
20
2.345399
10
-0.317263
20
2.357089
10
-0.319743
20
2.368792
10
-0.322163
20
2.380507
10
-0.324523
20
2.392235
10
-0.326823
20
2.403974
10
-0.329064
20
2.415725
10
-0.331244
20
2.427488
10
-0.333365
20
2.439261
10
-0.335426
20
2.451045
10
-0.337427
20
2.462839
10
-0.339368
20
2.474643
10
-0.341249
20
2.486457
10
-0.343069
20
2.498281
10
-0.344829
20
2.510113
10
-0.346530
20
2.521954
10
-0.348169
20
2.533804
10
-0.349749
20
2.545662
10
-0.351268
20
2.557528
10
-0.352726
20
2.569401
10
-0.354125
20
2.581282
10
-0.355462
20
2.593170
10
-0.356739
20
2.605064
10
-0.357956
20
2.616965
10
-0.359112
20
2.628872
10
-0.360207
20
2.640784
10
-0.361242
20
2.652702
10
-0.362216
20
2.664625
10
-0.363129
20
2.676553
10
-0.363982
20
2.688485
10
-0.364774
20
2.700421
10
-0.365505
20
2.712362
10
-0.366175
20
2.724306
10
-0.366784
20
2.736253
10
-0.367333
20
2.748203
10
-0.367821
20
2.760156
10
-0.368248
20
2.772111
10
-0.368614
20
2.784068
10
-0.368919
20
2.796027
10
-0.369163
20
2.807987
10
-0.369347
20
2.819948
10
-0.369469
20
2.831910
10
-0.369531
20
2.843873
10
-0.369532
20
2.855836
10
-0.369471
20
2.867798
10
-0.369350
20
2.879760
10
-0.369168
20
2.891722
10
-0.368926
20
2.903682
10
-0.368622
20
2.915641
10
-0.368257
20
2.927598
10
-0.367832
20
2.939553
10
-0.367346
20
2.951506
10
-0.366798
20
2.963456
10
-0.366190
20
2.975403
10
-0.365522
20
2.987347
10
-0.364792
20
2.999288
10
-0.364002
20
3.011224
10
-0.363151
20
3.023157
10
-0.362239
20
3.035085
10
-0.361266
20
3.047008
10
-0.360233
20
3.058926
10
-0.359139
20
3.070838
10
-0.357985
20
3.082745
10
-0.356770
20
3.094646
10
-0.355494
20
3.106541
10
-0.354158
20
3.118428
10
-0.352761
20
3.130309
10
-0.351304
20
3.142183
10
-0.349786
20
3.154049
10
-0.348208
20
3.165907
10
-0.346570
20
3.177757
10
-0.344872
20
3.189599
10
-0.343113
20
3.201431
10
-0.341294
20
3.213255
10
-0.339414
20
3.225069
10
-0.337475
20
3.236874
10
-0.335476
20
3.248668
10
-0.333416
20
3.260452
10
-0.331297
20
3.272226
10
-0.329118
20
3.283988
10
-0.326878
20
3.295740
10
-0.324579
20
3.307479
10
-0.322221
20
3.319207
10
-0.319802
20
3.330923
10
-0.317325
20
3.342626
10
-0.314787
20
3.354317
10
-0.312190
20
3.365994
10
-0.309534
20
3.377658
10
-0.306818
20
3.389309
10
-0.304043
20
3.400945
10
-0.301209
20
3.412567
10
-0.298316
20
3.424175
10
-0.295363
20
3.435767
10
-0.292352
20
3.447345
10
-0.289282
20
3.458907
10
-0.286153
20
3.470453
10
-0.282965
20
3.481983
10
-0.279718
20
3.493497
10
-0.276413
20
3.504994
10
-0.273050
20
3.516474
10
-0.269628
20
3.527937
10
-0.266148
20
3.539382
10
-0.262609
20
3.550810
10
-0.259013
20
3.562219
10
-0.255358
20
3.573610
10
-0.251646
20
3.584982
10
-0.247875
20
3.596335
10
-0.244047
20
3.607669
10
-0.240162
20
3.618983
10
-0.236218
20
3.630277
10
-0.232218
20
3.641551
10
-0.228160
20
3.652804
10
-0.224044
20
3.664037
10
-0.219872
20
3.675248
10
-0.215642
20
3.686438
10
-0.211356
20
3.697607
10
-0.207013
20
3.708753
10
-0.202613
20
3.719877
10
-0.198157
20
3.730979
10
-0.193644
20
3.742058
10
-0.189075
20
3.753114
10
-0.184449
20
3.764146
10
-0.179768
20
3.775154
10
-0.175030
20
3.786139
10
-0.170237
20
3.797100
10
-0.165388
20
3.808035
10
-0.160483
20
3.818946
10
-0.155523
20
3.829832
10
-0.150507
20
3.840693
10
-0.145437
20
3.851528
10
-0.140311
20
3.862337
10
-0.135130
20
3.873119
10
-0.129895
20
3.883875
10
-0.124604
20
3.894605
10
-0.119259
20
3.905307
10
-0.113860
20
3.915982
10
-0.108407
20
3.926629
10
-0.102899
20
3.937249
10
-0.097337
20
3.947840
10
-0.091722
20
3.958403
10
-0.086053
20
3.968937
10
-0.080330
20
3.979442
10
-0.074554
20
3.989918
10
-0.068725
20
4.000364
10
-0.062842
20
4.010781
10
-0.056907
20
4.021167
10
-0.050918
20
4.031523
10
-0.044878
20
4.041849
10
-0.038784
20
4.052143
10
-0.032639
20
4.062406
10
-0.026441
20
4.072638
10
-0.020191
20
4.082839
10
-0.013889
20
4.093007
10
-0.007536
20
4.103143
10
-0.001131
20
4.113247
10
0.005325
20
4.123318
10
0.011833
20
4.133356
10
0.018391
20
4.143360
10
0.025000
20
4.153332
10
0.031660
20
4.163269
10
0.038371
20
4.173172
10
0.045132
20
4.183041
10
0.051943
20
4.192876
10
0.058803
20
4.202676
10
0.065714
20
4.212440
10
0.072674
20
4.222170
10
0.079684
20
4.231863
10
0.086743
20
4.241521
10
0.093851
20
4.251143
10
0.101008
20
4.260729
10
0.108214
20
4.270278
10
0.115468
20
4.279790
10
0.122771
20
4.289266
10
0.130121
20
4.298703
10
0.137520
20
4.308104
10
0.144966
20
4.317466
10
0.152460
20
4.326791
10
0.160001
20
4.336077
10
0.167590
20
4.345325
10
0.175225
20
4.354534
10
0.182907
20
4.363704
10
0.190636
20
4.372835
10
0.198411
20
4.381926
10
0.206233
20
4.390978
10
0.214100
20
4.399990
10
0.222013
20
4.408961
10
0.229972
20
4.417893
10
0.237976
20
4.426783
10
0.246025
20
4.435633
10
0.254119
20
4.444441
10
0.262258
20
4.453209
10
0.270442
20
4.461934
10
0.278669
20
4.470618
10
0.286941
20
4.479260
10
0.295257
20
4.487860
10
0.303616
20
4.496417
10
0.312019
20
4.504932
10
0.320465
20
4.513404
10
0.328954
20
4.521833
10
0.337486
20
4.530218
10
0.346060
20
4.538560
10
0.354677
20
4.546858
10
0.363336
20
4.555112
10
0.372037
20
4.563322
10
0.380779
20
4.571487
10
0.389563
20
4.579608
10
0.398389
20
4.587684
10
0.407255
20
4.595715
10
0.416162
20
4.603701
10
0.425109
20
4.611641
10
0.434097
20
4.619536
10
0.443125
20
4.627385
10
0.452192
20
4.635188
10
0.461300
20
4.642944
10
0.470446
20
4.650654
10
0.479632
20
4.658318
10
0.488857
20
4.665934
10
0.498120
20
4.673504
10
0.507422
20
4.681026
10
0.516762
20
4.688501
10
0.526140
20
4.695928
10
0.535555
20
4.703307
10
0.545008
20
4.710638
10
0.554498
20
4.717921
10
0.564026
20
4.725156
10
0.573589
20
4.732342
10
0.583190
20
4.739479
10
0.592826
20
4.746568
10
0.602499
20
4.753607
10
0.612207
20
4.760597
10
0.621950
20
4.767537
10
0.631729
20
4.774428
10
0.641543
20
4.781268
10
0.651391
20
4.788059
10
0.661274
20
4.794800
10
0.671191
20
4.801490
10
0.681143
20
4.808129
10
0.691127
20
4.814718
10
0.701145
20
4.821256
10
0.711197
20
4.827743
10
0.721281
20
4.834179
10
0.731397
20
4.840563
10
0.741547
20
4.846895
10
0.751728
20
4.853176
10
0.761941
20
4.859405
10
0.772186
20
4.865582
10
0.782462
20
4.871706
10
0.792769
20
4.877779
10
0.803106
20
4.883798
10
0.813475
20
4.889765
10
0.823873
20
4.895679
10
0.834302
20
4.901541
10
0.844760
20
4.907348
10
0.855248
20
4.913103
10
0.865764
20
4.918804
10
0.876310
20
4.924452
10
0.886884
20
4.930046
10
0.897487
20
4.935586
10
0.908118
20
4.941071
10
0.918776
20
4.946503
10
0.929462
20
4.951880
10
0.940175
20
4.957203
10
0.950916
20
4.962472
10
0.961683
20
4.967685
10
0.972476
20
4.972844
10
0.983295
20
4.977947
10
0.994140
20
4.982996
10
1.005011
20
4.987989
10
1.015907
20
4.992927
10
1.026828
20
4.997809
10
1.037774
20
5.002636
10
1.048744
20
5.007407
10
1.059739
20
5.012122
10
1.070757
20
5.016781
10
1.081799
20
5.021383
10
1.092864
20
5.025930
10
1.103952
20
5.030420
10
1.115063
20
5.034854
10
1.126196
20
5.039231
10
1.137351
20
5.043551
10
1.148528
20
5.047814
10
1.159727
20
5.052021
10
1.170947
20
5.056170
10
1.182188
20
5.060262
10
1.193450
20
5.064297
10
1.204732
20
5.068275
10
1.216034
20
5.072195
10
1.227356
20
5.076058
10
1.238698
20
5.079862
10
1.250058
20
5.083610
10
1.261438
20
5.087299
10
1.272836
20
5.090930
10
1.284253
20
5.094503
10
1.295687
20
5.098018
10
1.307140
20
5.101475
10
1.318610
20
5.104873
10
1.330097
20
5.108213
10
1.341601
20
5.111494
10
1.353121
20
5.114717
10
1.364658
20
5.117881
10
1.376210
20
5.120987
10
1.387779
20
5.124033
10
1.399362
20
5.127021
10
1.410961
20
5.129949
10
1.422574
20
5.132819
10
1.434202
20
5.135629
10
1.445844
20
5.138380
10
1.457500
20
5.141072
10
1.469170
20
5.143705
10
1.480853
20
5.146278
10
1.492548
20
5.148791
10
1.504257
20
5.151245
10
1.515977
20
5.153639
10
1.527710
20
5.155974
10
1.539454
20
5.158249
10
1.551210
20
5.160464
10
1.562977
20
5.162619
10
1.574755
20
5.164714
10
1.586543
20
5.166750
10
1.598342
20
5.168725
10
1.610150
20
5.170640
10
1.621968
20
5.172495
10
1.633795
20
5.174290
10
1.645632
20
5.176024
10
1.657477
20
5.177699
10
1.669330
20
5.179313
10
1.681191
20
5.180866
10
1.693061
20
5.182360
10
1.704937
20
5.183792
10
1.716821
20
5.185165
10
1.728711
20
5.186476
10
1.740609
20
5.187728
10
1.752512
20
5.188918
10
1.764421
20
5.190048
10
1.776336
20
5.191118
10
1.788256
20
5.192127
10
1.800181
20
5.193075
10
1.812111
20
5.193962
10
1.824045
20
5.194789
10
1.835983
20
5.195555
10
1.847925
20
5.196260
10
1.859870
20
5.196904
10
1.871819
20
5.197487
10
1.883770
20
5.198010
10
1.895724
20
5.198472
10
1.907680
20
5.198873
10
1.919638
20
5.199213
10
1.931597
20
5.199492
10
1.943558
20
5.199710
10
1.955520
20
5.199868
10
1.967482
20
5.199964
10
1.979445
20
5.200000
10
1.991407
20
5.199975
10
2.003370
20
5.199888
10
2.015332
20
5.199741
10
2.027292
20
5.199533
10
2.039252
20
5.199264
10
2.051210
20
5.198935
10
2.063167
20
5.198544
10
2.075121
20
5.198093
10
2.087073
20
5.197580
10
2.099022
20
5.197007
10
2.110967
20
5.196373
10
2.122910
20
5.195679
10
2.134849
20
5.194923
10
2.146784
20
5.194107
10
2.158714
20
5.193230
10
2.170640
20
5.192292
10
2.182561
20
5.191294
10
2.194477
20
5.190234
10
2.206387
20
5.189115
10
2.218291
20
5.187934
10
2.230189
20
5.186693
10
2.242081
20
5.185392
10
2.253966
20
5.184030
10
2.265844
20
5.182607
10
2.277714
20
5.181124
10
2.289577
20
5.179581
10
2.301432
20
5.177977
10
2.313278
20
5.176313
10
2.325116
20
5.174589
10
2.336945
20
5.172804
10
2.348764
20
5.170959
10
2.360575
20
5.169055
10
2.372375
20
5.167090
10
2.384165
20
5.165064
10
2.395944
20
5.162979
10
2.407713
20
5.160834
10
2.419471
20
5.158630
10
2.431217
20
5.156365
10
2.442952
20
5.154040
10
2.454675
20
5.151656
10
2.466385
20
5.149212
10
2.478083
20
5.146709
10
2.489768
20
5.144146
10
2.501440
20
5.141524
10
2.513098
20
5.138842
10
2.524742
20
5.136101
10
2.536373
20
5.133301
10
2.547989
20
5.130441
10
2.559590
20
5.127523
10
2.571176
20
5.124545
10
2.582747
20
5.121509
10
2.594302
20
5.118413
10
2.605842
20
5.115259
10
2.617365
20
5.112046
10
2.628872
20
5.108775
10
2.640362
20
5.105445
10
2.651834
20
5.102056
10
2.663290
20
5.098610
10
2.674728
20
5.095105
10
2.686147
20
5.091541
10
2.697549
20
5.087920
10
2.708931
20
5.084241
10
2.720295
20
5.080503
10
2.731640
20
5.076708
10
2.742966
20
5.072856
10
2.754271
20
5.068945
10
2.765557
20
5.064977
10
2.776822
20
5.060952
10
2.788066
20
5.056870
10
2.799290
20
5.052730
10
2.810492
20
5.048533
10
2.821673
20
5.044279
10
2.832832
20
5.039969
10
2.843969
20
5.035601
10
2.855084
20
5.031177
10
2.866176
20
5.026697
10
2.877245
20
5.022160
10
2.888291
20
5.017567
10
2.899313
20
5.012917
10
2.910311
20
5.008212
10
2.921286
20
5.003451
10
2.932236
20
4.998633
10
2.943161
20
4.993761
10
2.954061
20
4.988832
10
2.964936
20
4.983848
10
2.975786
20
4.978809
10
2.986610
20
4.973715
10
2.997407
20
4.968566
10
3.008179
20
4.963361
10
3.018924
20
4.958102
10
3.029641
20
4.952789
10
3.040332
20
4.947421
10
3.050995
20
4.941998
10
3.061631
20
4.936522
10
3.072238
20
4.930991
10
3.082817
20
4.925406
10
3.093368
20
4.919768
10
3.103890
20
4.914076
10
3.114382
20
4.908330
10
3.124845
20
4.902531
10
3.135279
20
4.896679
10
3.145683
20
4.890774
10
3.156056
20
4.884816
10
3.166399
20
4.878805
10
3.176711
20
4.872742
10
3.186993
20
4.866626
10
3.197243
20
4.860458
10
3.207461
20
4.854238
10
3.217648
20
4.847966
10
3.227802
20
4.841643
10
3.237925
20
4.835267
10
3.248014
20
4.828840
10
3.258071
20
4.822362
10
3.268095
20
4.815833
10
3.278085
20
4.809253
10
3.288042
20
4.802622
10
3.297965
20
4.795940
10
3.307854
20
4.789208
10
3.317708
20
4.782426
10
3.327528
20
4.775594
10
3.337313
20
4.768712
10
3.347062
20
4.761780
10
3.356776
20
4.754798
10
3.366455
20
4.747768
10
3.376098
20
4.740688
10
3.385704
20
4.733559
10
3.395274
20
4.726381
10
3.404807
20
4.719154
10
3.414304
20
4.711879
10
3.423763
20
4.704556
10
3.433185
20
4.697185
10
3.442569
20
4.689766
10
3.451916
20
4.682300
10
3.461224
20
4.674785
10
3.470494
20
4.667224
10
3.479725
20
4.659615
10
3.488918
20
4.651960
10
3.498071
20
4.644258
10
3.507185
20
4.636509
10
3.516259
20
4.628714
10
3.525294
20
4.620873
10
3.534289
20
4.612986
10
3.543243
20
4.605054
10
3.552157
20
4.597076
10
3.561030
20
4.589052
10
3.569862
20
4.580984
10
3.578653
20
4.572870
10
3.587403
20
4.564713
10
3.596111
20
4.556510
10
3.604777
20
4.548264
10
3.613401
20
4.539973
10
3.621982
20
4.531639
10
3.630521
20
4.523261
10
3.639018
20
4.514839
10
3.647471
20
4.506375
10
3.655881
20
4.497868
10
3.664248
20
4.489318
10
3.672571
20
4.480725
10
3.680850
20
4.472090
10
3.689086
20
4.463413
10
3.697277
20
4.454695
10
3.705423
20
4.445934
10
3.713525
20
4.437133
10
3.721582
20
4.428290
10
3.729593
20
4.419407
10
7.246276
20
0.500000
10
10.215814
20
0.500000
10
9.854788
20
0.620046
10
9.843446
20
0.623849
10
9.832124
20
0.627710
10
9.820821
20
0.631629
10
9.809539
20
0.635605
10
9.798277
20
0.639639
10
9.787035
20
0.643729
10
9.775815
20
0.647878
10
9.764615
20
0.652083
10
9.753438
20
0.656345
10
9.742282
20
0.660664
10
9.731148
20
0.665039
10
9.720037
20
0.669471
10
9.708948
20
0.673960
10
9.697882
20
0.678505
10
9.686840
20
0.683107
10
9.675821
20
0.687764
10
9.664826
20
0.692478
10
9.653855
20
0.697247
10
9.642909
20
0.702073
10
9.631987
20
0.706954
10
9.621091
20
0.711890
10
9.610219
20
0.716882
10
9.599373
20
0.721929
10
9.588553
20
0.727031
10
9.577760
20
0.732189
10
9.566992
20
0.737401
10
9.556251
20
0.742668
10
9.545537
20
0.747989
10
9.534851
20
0.753365
10
9.524191
20
0.758796
10
9.513560
20
0.764280
10
9.502957
20
0.769819
10
9.492382
20
0.775411
10
9.481835
20
0.781058
10
9.471318
20
0.786757
10
9.460829
20
0.792511
10
9.450371
20
0.798317
10
9.439941
20
0.804177
10
9.429542
20
0.810090
10
9.419173
20
0.816056
10
9.408834
20
0.822074
10
9.398527
20
0.828145
10
9.388250
20
0.834268
10
9.378004
20
0.840444
10
9.367791
20
0.846672
10
9.357609
20
0.852951
10
9.347459
20
0.859283
10
9.337341
20
0.865665
10
9.327256
20
0.872100
10
9.317204
20
0.878585
10
9.307185
20
0.885122
10
9.297200
20
0.891710
10
9.287248
20
0.898348
10
9.277330
20
0.905037
10
9.267446
20
0.911776
10
9.257597
20
0.918566
10
9.247782
20
0.925405
10
9.238003
20
0.932295
10
9.228258
20
0.939234
10
9.218549
20
0.946222
10
9.208876
20
0.953260
10
9.199238
20
0.960347
10
9.189637
20
0.967484
10
9.180072
20
0.974668
10
9.170544
20
0.981902
10
9.161053
20
0.989184
10
9.151599
20
0.996514
10
9.142183
20
1.003892
10
9.132804
20
1.011318
10
9.123463
20
1.018792
10
9.114161
20
1.026313
10
9.104896
20
1.033881
10
9.095671
20
1.041496
10
9.086484
20
1.049159
10
9.077336
20
1.056868
10
9.068228
20
1.064623
10
9.059160
20
1.072425
10
9.050131
20
1.080272
10
9.041142
20
1.088166
10
9.032193
20
1.096105
10
9.023286
20
1.104090
10
9.014418
20
1.112120
10
9.005592
20
1.120195
10
8.996807
20
1.128315
10
8.988064
20
1.136479
10
8.979362
20
1.144688
10
8.970702
20
1.152941
10
8.962084
20
1.161238
10
8.953509
20
1.169578
10
8.944976
20
1.177963
10
8.936486
20
1.186390
10
8.928039
20
1.194861
10
8.919635
20
1.203375
10
8.911274
20
1.211931
10
8.902958
20
1.220530
10
8.894685
20
1.229171
10
8.886456
20
1.237854
10
8.878271
20
1.246578
10
8.870131
20
1.255345
10
8.862036
20
1.264152
10
8.853986
20
1.273001
10
8.845981
20
1.281890
10
8.838021
20
1.290821
10
8.830107
20
1.299791
10
8.822238
20
1.308802
10
8.814416
20
1.317853
10
8.806640
20
1.326943
10
8.798910
20
1.336073
10
8.791226
20
1.345242
10
8.783590
20
1.354450
10
8.776000
20
1.363697
10
8.768458
20
1.372982
10
8.760963
20
1.382306
10
8.753515
20
1.391668
10
8.746115
20
1.401067
10
8.738763
20
1.410504
10
8.731460
20
1.419979
10
8.724204
20
1.429490
10
8.716998
20
1.439038
10
8.709839
20
1.448623
10
8.702730
20
1.458244
10
8.695670
20
1.467901
10
8.688659
20
1.477594
10
8.681697
20
1.487322
10
8.674786
20
1.497086
10
8.667923
20
1.506885
10
8.661111
20
1.516719
10
8.654349
20
1.526587
10
8.647638
20
1.536490
10
8.640976
20
1.546426
10
8.634366
20
1.556396
10
8.627806
20
1.566400
10
8.621298
20
1.576437
10
8.614840
20
1.586508
10
8.608434
20
1.596610
10
8.602079
20
1.606746
10
8.595776
20
1.616913
10
8.589525
20
1.627113
10
8.583326
20
1.637344
10
8.577179
20
1.647607
10
8.571085
20
1.657900
10
8.565043
20
1.668225
10
8.559053
20
1.678580
10
8.553116
20
1.688966
10
8.547233
20
1.699382
10
8.541402
20
1.709827
10
8.535624
20
1.720303
10
8.529900
20
1.730807
10
8.524230
20
1.741340
10
8.518613
20
1.751902
10
8.513050
20
1.762493
10
8.507541
20
1.773112
10
8.502086
20
1.783758
10
8.496686
20
1.794433
10
8.491340
20
1.805134
10
8.486048
20
1.815863
10
8.480811
20
1.826618
10
8.475629
20
1.837401
10
8.470502
20
1.848209
10
8.465430
20
1.859043
10
8.460413
20
1.869903
10
8.455451
20
1.880788
10
8.450545
20
1.891699
10
8.445695
20
1.902634
10
8.440900
20
1.913594
10
8.436161
20
1.924578
10
8.431479
20
1.935586
10
8.426852
20
1.946618
10
8.422281
20
1.957673
10
8.417767
20
1.968751
10
8.413309
20
1.979852
10
8.408908
20
1.990976
10
8.404563
20
2.002122
10
8.400276
20
2.013290
10
8.396045
20
2.024479
10
8.391871
20
2.035690
10
8.387754
20
2.046922
10
8.383695
20
2.058175
10
8.379693
20
2.069449
10
8.375748
20
2.080742
10
8.371861
20
2.092056
10
8.368032
20
2.103389
10
8.364260
20
2.114741
10
8.360546
20
2.126113
10
8.356890
20
2.137503
10
8.353292
20
2.148912
10
8.349752
20
2.160339
10
8.346271
20
2.171784
10
8.342847
20
2.183247
10
8.339482
20
2.194726
10
8.336176
20
2.206223
10
8.332928
20
2.217736
10
8.329739
20
2.229266
10
8.326608
20
2.240812
10
8.323537
20
2.252374
10
8.320524
20
2.263951
10
8.317570
20
2.275543
10
8.314675
20
2.287150
10
8.311840
20
2.298772
10
8.309063
20
2.310408
10
8.306346
20
2.322058
10
8.303688
20
2.333722
10
8.301090
20
2.345399
10
8.298551
20
2.357089
10
8.296072
20
2.368792
10
8.293652
20
2.380507
10
8.291292
20
2.392235
10
8.288991
20
2.403974
10
8.286751
20
2.415725
10
8.284570
20
2.427488
10
8.282449
20
2.439261
10
8.280388
20
2.451045
10
8.278387
20
2.462839
10
8.276447
20
2.474643
10
8.274566
20
2.486457
10
8.272745
20
2.498281
10
8.270985
20
2.510113
10
8.269285
20
2.521954
10
8.267645
20
2.533804
10
8.266066
20
2.545662
10
8.264547
20
2.557528
10
8.263088
20
2.569401
10
8.261690
20
2.581282
10
8.260352
20
2.593170
10
8.259075
20
2.605064
10
8.257859
20
2.616965
10
8.256703
20
2.628872
10
8.255607
20
2.640784
10
8.254573
20
2.652702
10
8.253599
20
2.664625
10
8.252685
20
2.676553
10
8.251833
20
2.688485
10
8.251041
20
2.700421
10
8.250310
20
2.712362
10
8.249640
20
2.724306
10
8.249030
20
2.736253
10
8.248482
20
2.748203
10
8.247994
20
2.760156
10
8.247567
20
2.772111
10
8.247201
20
2.784068
10
8.246896
20
2.796027
10
8.246651
20
2.807987
10
8.246468
20
2.819948
10
8.246345
20
2.831910
10
8.246284
20
2.843873
10
8.246283
20
2.855836
10
8.246343
20
2.867798
10
8.246464
20
2.879760
10
8.246646
20
2.891722
10
8.246889
20
2.903682
10
8.247193
20
2.915641
10
8.247557
20
2.927598
10
8.247983
20
2.939553
10
8.248469
20
2.951506
10
8.249016
20
2.963456
10
8.249624
20
2.975403
10
8.250293
20
2.987347
10
8.251022
20
2.999288
10
8.251813
20
3.011224
10
8.252664
20
3.023157
10
8.253576
20
3.035085
10
8.254548
20
3.047008
10
8.255581
20
3.058926
10
8.256675
20
3.070838
10
8.257830
20
3.082745
10
8.259045
20
3.094646
10
8.260320
20
3.106541
10
8.261657
20
3.118428
10
8.263053
20
3.130309
10
8.264510
20
3.142183
10
8.266028
20
3.154049
10
8.267606
20
3.165907
10
8.269244
20
3.177757
10
8.270943
20
3.189599
10
8.272702
20
3.201431
10
8.274521
20
3.213255
10
8.276400
20
3.225069
10
8.278339
20
3.236874
10
8.280339
20
3.248668
10
8.282398
20
3.260452
10
8.284518
20
3.272226
10
8.286697
20
3.283988
10
8.288936
20
3.295740
10
8.291235
20
3.307479
10
8.293594
20
3.319207
10
8.296012
20
3.330923
10
8.298490
20
3.342626
10
8.301027
20
3.354317
10
8.303624
20
3.365994
10
8.306281
20
3.377658
10
8.308996
20
3.389309
10
8.311771
20
3.400945
10
8.314606
20
3.412567
10
8.317499
20
3.424175
10
8.320451
20
3.435767
10
8.323463
20
3.447345
10
8.326533
20
3.458907
10
8.329662
20
3.470453
10
8.332850
20
3.481983
10
8.336096
20
3.493497
10
8.339401
20
3.504994
10
8.342765
20
3.516474
10
8.346187
20
3.527937
10
8.349667
20
3.539382
10
8.353205
20
3.550810
10
8.356802
20
3.562219
10
8.360456
20
3.573610
10
8.364169
20
3.584982
10
8.367939
20
3.596335
10
8.371767
20
3.607669
10
8.375653
20
3.618983
10
8.379596
20
3.630277
10
8.383597
20
3.641551
10
8.387655
20
3.652804
10
8.391770
20
3.664037
10
8.395943
20
3.675248
10
8.400172
20
3.686438
10
8.404458
20
3.697607
10
8.408802
20
3.708753
10
8.413201
20
3.719877
10
8.417658
20
3.730979
10
8.422171
20
3.742058
10
8.426740
20
3.753114
10
8.431365
20
3.764146
10
8.436047
20
3.775154
10
8.440784
20
3.786139
10
8.445578
20
3.797100
10
8.450427
20
3.808035
10
8.455331
20
3.818946
10
8.460291
20
3.829832
10
8.465307
20
3.840693
10
8.470378
20
3.851528
10
8.475504
20
3.862337
10
8.480684
20
3.873119
10
8.485920
20
3.883875
10
8.491210
20
3.894605
10
8.496555
20
3.905307
10
8.501954
20
3.915982
10
8.507408
20
3.926629
10
8.512915
20
3.937249
10
8.518477
20
3.947840
10
8.524093
20
3.958403
10
8.529762
20
3.968937
10
8.535484
20
3.979442
10
8.541261
20
3.989918
10
8.547090
20
4.000364
10
8.552972
20
4.010781
10
8.558908
20
4.021167
10
8.564896
20
4.031523
10
8.570937
20
4.041849
10
8.577030
20
4.052143
10
8.583176
20
4.062406
10
8.589374
20
4.072638
10
8.595624
20
4.082839
10
8.601925
20
4.093007
10
8.608279
20
4.103143
10
8.614684
20
4.113247
10
8.621140
20
4.123318
10
8.627647
20
4.133356
10
8.634206
20
4.143360
10
8.640815
20
4.153332
10
8.647475
20
4.163269
10
8.654185
20
4.173172
10
8.660946
20
4.183041
10
8.667757
20
4.192876
10
8.674618
20
4.202676
10
8.681529
20
4.212440
10
8.688489
20
4.222170
10
8.695499
20
4.231863
10
8.702558
20
4.241521
10
8.709666
20
4.251143
10
8.716823
20
4.260729
10
8.724028
20
4.270278
10
8.731283
20
4.279790
10
8.738585
20
4.289266
10
8.745936
20
4.298703
10
8.753334
20
4.308104
10
8.760781
20
4.317466
10
8.768275
20
4.326791
10
8.775816
20
4.336077
10
8.783404
20
4.345325
10
8.791040
20
4.354534
10
8.798722
20
4.363704
10
8.806451
20
4.372835
10
8.814226
20
4.381926
10
8.822047
20
4.390978
10
8.829915
20
4.399990
10
8.837828
20
4.408961
10
8.845786
20
4.417893
10
8.853790
20
4.426783
10
8.861840
20
4.435633
10
8.869934
20
4.444441
10
8.878073
20
4.453209
10
8.886256
20
4.461934
10
8.894484
20
4.470618
10
8.902756
20
4.479260
10
8.911071
20
4.487860
10
8.919431
20
4.496417
10
8.927833
20
4.504932
10
8.936279
20
4.513404
10
8.944769
20
4.521833
10
8.953300
20
4.530218
10
8.961875
20
4.538560
10
8.970492
20
4.546858
10
8.979151
20
4.555112
10
8.987851
20
4.563322
10
8.996594
20
4.571487
10
9.005378
20
4.579608
10
9.014203
20
4.587684
10
9.023069
20
4.595715
10
9.031976
20
4.603701
10
9.040924
20
4.611641
10
9.049911
20
4.619536
10
9.058939
20
4.627385
10
9.068007
20
4.635188
10
9.077114
20
4.642944
10
9.086261
20
4.650654
10
9.095447
20
4.658318
10
9.104671
20
4.665934
10
9.113935
20
4.673504
10
9.123236
20
4.681026
10
9.132576
20
4.688501
10
9.141954
20
4.695928
10
9.151370
20
4.703307
10
9.160823
20
4.710638
10
9.170313
20
4.717921
10
9.179840
20
4.725156
10
9.189404
20
4.732342
10
9.199004
20
4.739479
10
9.208641
20
4.746568
10
9.218313
20
4.753607
10
9.228021
20
4.760597
10
9.237765
20
4.767537
10
9.247544
20
4.774428
10
9.257357
20
4.781268
10
9.267206
20
4.788059
10
9.277089
20
4.794800
10
9.287006
20
4.801490
10
9.296957
20
4.808129
10
9.306942
20
4.814718
10
9.316960
20
4.821256
10
9.327011
20
4.827743
10
9.337095
20
4.834179
10
9.347212
20
4.840563
10
9.357361
20
4.846895
10
9.367542
20
4.853176
10
9.377755
20
4.859405
10
9.388000
20
4.865582
10
9.398276
20
4.871706
10
9.408583
20
4.877779
10
9.418921
20
4.883798
10
9.429289
20
4.889765
10
9.439688
20
4.895679
10
9.450116
20
4.901541
10
9.460574
20
4.907348
10
9.471062
20
4.913103
10
9.481579
20
4.918804
10
9.492125
20
4.924452
10
9.502699
20
4.930046
10
9.513302
20
4.935586
10
9.523932
20
4.941071
10
9.534591
20
4.946503
10
9.545277
20
4.951880
10
9.555990
20
4.957203
10
9.566730
20
4.962472
10
9.577497
20
4.967685
10
9.588290
20
4.972844
10
9.599110
20
4.977947
10
9.609955
20
4.982996
10
9.620826
20
4.987989
10
9.631722
20
4.992927
10
9.642643
20
4.997809
10
9.653589
20
5.002636
10
9.664559
20
5.007407
10
9.675553
20
5.012122
10
9.686571
20
5.016781
10
9.697613
20
5.021383
10
9.708678
20
5.025930
10
9.719766
20
5.030420
10
9.730877
20
5.034854
10
9.742010
20
5.039231
10
9.753166
20
5.043551
10
9.764343
20
5.047814
10
9.775542
20
5.052021
10
9.786762
20
5.056170
10
9.798003
20
5.060262
10
9.809264
20
5.064297
10
9.820546
20
5.068275
10
9.831849
20
5.072195
10
9.843171
20
5.076058
10
9.854512
20
5.079862
10
9.865873
20
5.083610
10
9.877252
20
5.087299
10
9.888651
20
5.090930
10
9.900067
20
5.094503
10
9.911502
20
5.098018
10
9.922954
20
5.101475
10
9.934424
20
5.104873
10
9.945911
20
5.108213
10
9.957415
20
5.111494
10
9.968935
20
5.114717
10
9.980472
20
5.117881
10
9.992025
20
5.120987
10
10.003593
20
5.124033
10
10.015177
20
5.127021
10
10.026775
20
5.129949
10
10.038389
20
5.132819
10
10.050017
20
5.135629
10
10.061659
20
5.138380
10
10.073315
20
5.141072
10
10.084984
20
5.143705
10
10.096667
20
5.146278
10
10.108363
20
5.148791
10
10.120071
20
5.151245
10
10.131792
20
5.153639
10
10.143524
20
5.155974
10
10.155269
20
5.158249
10
10.167025
20
5.160464
10
10.178792
20
5.162619
10
10.190569
20
5.164714
10
10.202358
20
5.166750
10
10.214156
20
5.168725
10
10.225965
20
5.170640
10
10.237783
20
5.172495
10
10.249610
20
5.174290
10
10.261446
20
5.176024
10
10.273291
20
5.177699
10
10.285145
20
5.179313
10
10.297006
20
5.180866
10
10.308875
20
5.182360
10
10.320752
20
5.183792
10
10.332635
20
5.185165
10
10.344526
20
5.186476
10
10.356423
20
5.187728
10
10.368326
20
5.188918
10
10.380236
20
5.190048
10
10.392150
20
5.191118
10
10.404070
20
5.192127
10
10.415996
20
5.193075
10
10.427925
20
5.193962
10
10.439859
20
5.194789
10
10.451798
20
5.195555
10
10.463740
20
5.196260
10
10.475685
20
5.196904
10
10.487633
20
5.197487
10
10.499585
20
5.198010
10
10.511538
20
5.198472
10
10.523494
20
5.198873
10
10.535452
20
5.199213
10
10.547412
20
5.199492
10
10.559372
20
5.199710
10
10.571334
20
5.199868
10
10.583296
20
5.199964
10
10.595259
20
5.200000
10
10.607222
20
5.199975
10
10.619184
20
5.199888
10
10.631146
20
5.199741
10
10.643107
20
5.199533
10
10.655067
20
5.199264
10
10.667025
20
5.198935
10
10.678981
20
5.198544
10
10.690935
20
5.198093
10
10.702887
20
5.197580
10
10.714836
20
5.197007
10
10.726782
20
5.196373
10
10.738724
20
5.195679
10
10.750663
20
5.194923
10
10.762598
20
5.194107
10
10.774529
20
5.193230
10
10.786455
20
5.192292
10
10.798375
20
5.191294
10
10.810291
20
5.190234
10
10.822201
20
5.189115
10
10.834106
20
5.187934
10
10.846004
20
5.186693
10
10.857896
20
5.185392
10
10.869781
20
5.184030
10
10.881658
20
5.182607
10
10.893529
20
5.181124
10
10.905392
20
5.179581
10
10.917246
20
5.177977
10
10.929093
20
5.176313
10
10.940930
20
5.174589
10
10.952759
20
5.172804
10
10.964579
20
5.170959
10
10.976389
20
5.169055
10
10.988189
20
5.167090
10
10.999979
20
5.165064
10
11.011759
20
5.162979
10
11.023528
20
5.160834
10
11.035285
20
5.158630
10
11.047032
20
5.156365
10
11.058767
20
5.154040
10
11.070489
20
5.151656
10
11.082200
20
5.149212
10
11.093898
20
5.146709
10
11.105583
20
5.144146
10
11.117254
20
5.141524
10
11.128913
20
5.138842
10
11.140557
20
5.136101
10
11.152187
20
5.133301
10
11.163803
20
5.130441
10
11.175404
20
5.127523
10
11.186991
20
5.124545
10
11.198562
20
5.121509
10
11.210117
20
5.118413
10
11.221656
20
5.115259
10
11.233180
20
5.112046
10
11.244686
20
5.108775
10
11.256176
20
5.105445
10
11.267649
20
5.102056
10
11.279104
20
5.098610
10
11.290542
20
5.095105
10
11.301962
20
5.091541
10
11.313363
20
5.087920
10
11.324746
20
5.084241
10
11.336110
20
5.080503
10
11.347455
20
5.076708
10
11.358780
20
5.072856
10
11.370086
20
5.068945
10
11.381371
20
5.064977
10
11.392636
20
5.060952
10
11.403881
20
5.056870
10
11.415104
20
5.052730
10
11.426307
20
5.048533
10
11.437488
20
5.044279
10
11.448647
20
5.039969
10
11.459784
20
5.035601
10
11.470898
20
5.031177
10
11.481990
20
5.026697
10
11.493059
20
5.022160
10
11.504105
20
5.017567
10
11.515127
20
5.012917
10
11.526126
20
5.008212
10
11.537100
20
5.003451
10
11.548050
20
4.998633
10
11.558975
20
4.993761
10
11.569876
20
4.988832
10
11.580751
20
4.983848
10
11.591600
20
4.978809
10
11.602424
20
4.973715
10
11.613222
20
4.968566
10
11.623993
20
4.963361
10
11.634738
20
4.958102
10
11.645456
20
4.952789
10
11.656146
20
4.947421
10
11.666810
20
4.941998
10
11.677445
20
4.936522
10
11.688053
20
4.930991
10
11.698632
20
4.925406
10
11.709182
20
4.919768
10
11.719704
20
4.914076
10
11.730197
20
4.908330
10
11.740660
20
4.902531
10
11.751093
20
4.896679
10
11.761497
20
4.890774
10
11.771871
20
4.884816
10
11.782214
20
4.878805
10
11.792526
20
4.872742
10
11.802807
20
4.866626
10
11.813057
20
4.860458
10
11.823276
20
4.854238
10
11.833462
20
4.847966
10
11.843617
20
4.841643
10
11.853739
20
4.835267
10
11.863829
20
4.828840
10
11.873886
20
4.822362
10
11.883909
20
4.815833
10
11.893900
20
4.809253
10
11.903857
20
4.802622
10
11.913779
20
4.795940
10
11.923668
20
4.789208
10
11.933523
20
4.782426
10
11.943342
20
4.775594
10
11.953127
20
4.768712
10
11.962877
20
4.761780
10
11.972591
20
4.754798
10
11.982269
20
4.747768
10
11.991912
20
4.740688
10
12.001518
20
4.733559
10
12.011089
20
4.726381
10
12.020622
20
4.719154
10
12.030118
20
4.711879
10
12.039578
20
4.704556
10
12.049000
20
4.697185
10
12.058384
20
4.689766
10
12.067730
20
4.682300
10
12.077039
20
4.674785
10
12.086308
20
4.667224
10
12.095540
20
4.659615
10
12.104732
20
4.651960
10
12.113885
20
4.644258
10
12.122999
20
4.636509
10
12.132074
20
4.628714
10
12.141109
20
4.620873
10
12.150103
20
4.612986
10
12.159057
20
4.605054
10
12.167971
20
4.597076
10
12.176844
20
4.589052
10
12.185677
20
4.580984
10
12.194468
20
4.572870
10
12.203217
20
4.564713
10
12.211925
20
4.556510
10
12.220591
20
4.548264
10
12.229215
20
4.539973
10
12.237797
20
4.531639
10
12.246336
20
4.523261
10
12.254832
20
4.514839
10
12.263286
20
4.506375
10
12.271696
20
4.497868
10
12.280063
20
4.489318
10
12.288386
20
4.480725
10
12.296665
20
4.472090
10
12.304900
20
4.463413
10
12.313091
20
4.454695
10
12.321238
20
4.445934
10
12.329339
20
4.437133
10
12.337396
20
4.428290
10
12.345408
20
4.419407
10
15.862090
20
0.500000
10
18.831629
20
0.500000
10
18.470603
20
0.620046
10
18.459261
20
0.623849
10
18.447938
20
0.627710
10
18.436636
20
0.631629
10
18.425353
20
0.635605
10
18.414091
20
0.639639
10
18.402850
20
0.643729
10
18.391629
20
0.647878
10
18.380430
20
0.652083
10
18.369252
20
0.656345
10
18.358096
20
0.660664
10
18.346962
20
0.665039
10
18.335851
20
0.669471
10
18.324762
20
0.673960
10
18.313697
20
0.678505
10
18.302654
20
0.683107
10
18.291636
20
0.687764
10
18.280641
20
0.692478
10
18.269670
20
0.697247
10
18.258724
20
0.702073
10
18.247802
20
0.706954
10
18.236905
20
0.711890
10
18.226034
20
0.716882
10
18.215188
20
0.721929
10
18.204368
20
0.727031
10
18.193574
20
0.732189
10
18.182806
20
0.737401
10
18.172066
20
0.742668
10
18.161352
20
0.747989
10
18.150665
20
0.753365
10
18.140006
20
0.758796
10
18.129374
20
0.764280
10
18.118771
20
0.769819
10
18.108196
20
0.775411
10
18.097650
20
0.781058
10
18.087132
20
0.786757
10
18.076644
20
0.792511
10
18.066185
20
0.798317
10
18.055756
20
0.804177
10
18.045356
20
0.810090
10
18.034987
20
0.816056
10
18.024649
20
0.822074
10
18.014341
20
0.828145
10
18.004064
20
0.834268
10
17.993819
20
0.840444
10
17.983605
20
0.846672
10
17.973423
20
0.852951
10
17.963273
20
0.859283
10
17.953156
20
0.865665
10
17.943071
20
0.872100
10
17.933019
20
0.878585
10
17.923000
20
0.885122
10
17.913014
20
0.891710
10
17.903062
20
0.898348
10
17.893144
20
0.905037
10
17.883261
20
0.911776
10
17.873411
20
0.918566
10
17.863597
20
0.925405
10
17.853817
20
0.932295
10
17.844073
20
0.939234
10
17.834364
20
0.946222
10
17.824690
20
0.953260
10
17.815053
20
0.960347
10
17.805452
20
0.967484
10
17.795887
20
0.974668
10
17.786359
20
0.981902
10
17.776868
20
0.989184
10
17.767414
20
0.996514
10
17.757998
20
1.003892
10
17.748619
20
1.011318
10
17.739278
20
1.018792
10
17.729975
20
1.026313
10
17.720711
20
1.033881
10
17.711485
20
1.041496
10
17.702299
20
1.049159
10
17.693151
20
1.056868
10
17.684043
20
1.064623
10
17.674974
20
1.072425
10
17.665945
20
1.080272
10
17.656956
20
1.088166
10
17.648008
20
1.096105
10
17.639100
20
1.104090
10
17.630233
20
1.112120
10
17.621407
20
1.120195
10
17.612622
20
1.128315
10
17.603878
20
1.136479
10
17.595176
20
1.144688
10
17.586516
20
1.152941
10
17.577899
20
1.161238
10
17.569323
20
1.169578
10
17.560790
20
1.177963
10
17.552300
20
1.186390
10
17.543853
20
1.194861
10
17.535449
20
1.203375
10
17.527089
20
1.211931
10
17.518772
20
1.220530
10
17.510499
20
1.229171
10
17.502270
20
1.237854
10
17.494086
20
1.246578
10
17.485946
20
1.255345
10
17.477851
20
1.264152
10
17.469800
20
1.273001
10
17.461795
20
1.281890
10
17.453835
20
1.290821
10
17.445921
20
1.299791
10
17.438053
20
1.308802
10
17.430230
20
1.317853
10
17.422454
20
1.326943
10
17.414724
20
1.336073
10
17.407041
20
1.345242
10
17.399404
20
1.354450
10
17.391815
20
1.363697
10
17.384272
20
1.372982
10
17.376777
20
1.382306
10
17.369329
20
1.391668
10
17.361930
20
1.401067
10
17.354578
20
1.410504
10
17.347274
20
1.419979
10
17.340019
20
1.429490
10
17.332812
20
1.439038
10
17.325654
20
1.448623
10
17.318545
20
1.458244
10
17.311484
20
1.467901
10
17.304473
20
1.477594
10
17.297512
20
1.487322
10
17.290600
20
1.497086
10
17.283738
20
1.506885
10
17.276926
20
1.516719
10
17.270164
20
1.526587
10
17.263452
20
1.536490
10
17.256791
20
1.546426
10
17.250180
20
1.556396
10
17.243621
20
1.566400
10
17.237112
20
1.576437
10
17.230655
20
1.586508
10
17.224248
20
1.596610
10
17.217894
20
1.606746
10
17.211591
20
1.616913
10
17.205340
20
1.627113
10
17.199141
20
1.637344
10
17.192994
20
1.647607
10
17.186899
20
1.657900
10
17.180857
20
1.668225
10
17.174867
20
1.678580
10
17.168931
20
1.688966
10
17.163047
20
1.699382
10
17.157216
20
1.709827
10
17.151439
20
1.720303
10
17.145715
20
1.730807
10
17.140044
20
1.741340
10
17.134428
20
1.751902
10
17.128865
20
1.762493
10
17.123356
20
1.773112
10
17.117901
20
1.783758
10
17.112500
20
1.794433
10
17.107154
20
1.805134
10
17.101863
20
1.815863
10
17.096626
20
1.826618
10
17.091444
20
1.837401
10
17.086316
20
1.848209
10
17.081244
20
1.859043
10
17.076227
20
1.869903
10
17.071266
20
1.880788
10
17.066360
20
1.891699
10
17.061509
20
1.902634
10
17.056715
20
1.913594
10
17.051976
20
1.924578
10
17.047293
20
1.935586
10
17.042666
20
1.946618
10
17.038096
20
1.957673
10
17.033581
20
1.968751
10
17.029124
20
1.979852
10
17.024722
20
1.990976
10
17.020378
20
2.002122
10
17.016090
20
2.013290
10
17.011859
20
2.024479
10
17.007686
20
2.035690
10
17.003569
20
2.046922
10
16.999509
20
2.058175
10
16.995507
20
2.069449
10
16.991563
20
2.080742
10
16.987676
20
2.092056
10
16.983846
20
2.103389
10
16.980074
20
2.114741
10
16.976360
20
2.126113
10
16.972704
20
2.137503
10
16.969106
20
2.148912
10
16.965567
20
2.160339
10
16.962085
20
2.171784
10
16.958662
20
2.183247
10
16.955297
20
2.194726
10
16.951990
20
2.206223
10
16.948743
20
2.217736
10
16.945553
20
2.229266
10
16.942423
20
2.240812
10
16.939351
20
2.252374
10
16.936338
20
2.263951
10
16.933385
20
2.275543
10
16.930490
20
2.287150
10
16.927654
20
2.298772
10
16.924878
20
2.310408
10
16.922161
20
2.322058
10
16.919503
20
2.333722
10
16.916904
20
2.345399
10
16.914365
20
2.357089
10
16.911886
20
2.368792
10
16.909466
20
2.380507
10
16.907106
20
2.392235
10
16.904806
20
2.403974
10
16.902565
20
2.415725
10
16.900384
20
2.427488
10
16.898264
20
2.439261
10
16.896203
20
2.451045
10
16.894202
20
2.462839
10
16.892261
20
2.474643
10
16.890380
20
2.486457
10
16.888560
20
2.498281
10
16.886799
20
2.510113
10
16.885099
20
2.521954
10
16.883460
20
2.533804
10
16.881880
20
2.545662
10
16.880361
20
2.557528
10
16.878903
20
2.569401
10
16.877504
20
2.581282
10
16.876167
20
2.593170
10
16.874890
20
2.605064
10
16.873673
20
2.616965
10
16.872517
20
2.628872
10
16.871422
20
2.640784
10
16.870387
20
2.652702
10
16.869413
20
2.664625
10
16.868500
20
2.676553
10
16.867647
20
2.688485
10
16.866855
20
2.700421
10
16.866124
20
2.712362
10
16.865454
20
2.724306
10
16.864845
20
2.736253
10
16.864296
20
2.748203
10
16.863808
20
2.760156
10
16.863381
20
2.772111
10
16.863015
20
2.784068
10
16.862710
20
2.796027
10
16.862466
20
2.807987
10
16.862282
20
2.819948
10
16.862160
20
2.831910
10
16.862098
20
2.843873
10
16.862097
20
2.855836
10
16.862158
20
2.867798
10
16.862279
20
2.879760
10
16.862461
20
2.891722
10
16.862703
20
2.903682
10
16.863007
20
2.915641
10
16.863372
20
2.927598
10
16.863797
20
2.939553
10
16.864283
20
2.951506
10
16.864831
20
2.963456
10
16.865439
20
2.975403
10
16.866107
20
2.987347
10
16.866837
20
2.999288
10
16.867627
20
3.011224
10
16.868478
20
3.023157
10
16.869390
20
3.035085
10
16.870363
20
3.047008
10
16.871396
20
3.058926
10
16.872490
20
3.070838
10
16.873644
20
3.082745
10
16.874859
20
3.094646
10
16.876135
20
3.106541
10
16.877471
20
3.118428
10
16.878868
20
3.130309
10
16.880325
20
3.142183
10
16.881843
20
3.154049
10
16.883420
20
3.165907
10
16.885059
20
3.177757
10
16.886757
20
3.189599
10
16.888516
20
3.201431
10
16.890335
20
3.213255
10
16.892215
20
3.225069
10
16.894154
20
3.236874
10
16.896153
20
3.248668
10
16.898213
20
3.260452
10
16.900332
20
3.272226
10
16.902511
20
3.283988
10
16.904751
20
3.295740
10
16.907049
20
3.307479
10
16.909408
20
3.319207
10
16.911826
20
3.330923
10
16.914304
20
3.342626
10
16.916842
20
3.354317
10
16.919439
20
3.365994
10
16.922095
20
3.377658
10
16.924811
20
3.389309
10
16.927586
20
3.400945
10
16.930420
20
3.412567
10
16.933313
20
3.424175
10
16.936266
20
3.435767
10
16.939277
20
3.447345
10
16.942347
20
3.458907
10
16.945476
20
3.470453
10
16.948664
20
3.481983
10
16.951911
20
3.493497
10
16.955216
20
3.504994
10
16.958579
20
3.516474
10
16.962001
20
3.527937
10
16.965481
20
3.539382
10
16.969020
20
3.550810
10
16.972616
20
3.562219
10
16.976271
20
3.573610
10
16.979983
20
3.584982
10
16.983754
20
3.596335
10
16.987582
20
3.607669
10
16.991467
20
3.618983
10
16.995411
20
3.630277
10
16.999411
20
3.641551
10
17.003469
20
3.652804
10
17.007585
20
3.664037
10
17.011757
20
3.675248
10
17.015987
20
3.686438
10
17.020273
20
3.697607
10
17.024616
20
3.708753
10
17.029016
20
3.719877
10
17.033472
20
3.730979
10
17.037985
20
3.742058
10
17.042554
20
3.753114
10
17.047180
20
3.764146
10
17.051861
20
3.775154
10
17.056599
20
3.786139
10
17.061392
20
3.797100
10
17.066241
20
3.808035
10
17.071146
20
3.818946
10
17.076106
20
3.829832
10
17.081121
20
3.840693
10
17.086192
20
3.851528
10
17.091318
20
3.862337
10
17.096499
20
3.873119
10
17.101734
20
3.883875
10
17.107025
20
3.894605
10
17.112369
20
3.905307
10
17.117769
20
3.915982
10
17.123222
20
3.926629
10
17.128730
20
3.937249
10
17.134292
20
3.947840
10
17.139907
20
3.958403
10
17.145576
20
3.968937
10
17.151299
20
3.979442
10
17.157075
20
3.989918
10
17.162904
20
4.000364
10
17.168787
20
4.010781
10
17.174722
20
4.021167
10
17.180711
20
4.031523
10
17.186751
20
4.041849
10
17.192845
20
4.052143
10
17.198990
20
4.062406
10
17.205188
20
4.072638
10
17.211438
20
4.082839
10
17.217740
20
4.093007
10
17.224093
20
4.103143
10
17.230498
20
4.113247
10
17.236954
20
4.123318
10
17.243462
20
4.133356
10
17.250020
20
4.143360
10
17.256629
20
4.153332
10
17.263289
20
4.163269
10
17.270000
20
4.173172
10
17.276761
20
4.183041
10
17.283571
20
4.192876
10
17.290432
20
4.202676
10
17.297343
20
4.212440
10
17.304303
20
4.222170
10
17.311313
20
4.231863
10
17.318372
20
4.241521
10
17.325480
20
4.251143
10
17.332637
20
4.260729
10
17.339843
20
4.270278
10
17.347097
20
4.279790
10
17.354399
20
4.289266
10
17.361750
20
4.298703
10
17.369149
20
4.308104
10
17.376595
20
4.317466
10
17.384089
20
4.326791
10
17.391630
20
4.336077
10
17.399219
20
4.345325
10
17.406854
20
4.354534
10
17.414536
20
4.363704
10
17.422265
20
4.372835
10
17.430040
20
4.381926
10
17.437862
20
4.390978
10
17.445729
20
4.399990
10
17.453642
20
4.408961
10
17.461601
20
4.417893
10
17.469605
20
4.426783
10
17.477654
20
4.435633
10
17.485748
20
4.444441
10
17.493887
20
4.453209
10
17.502071
20
4.461934
10
17.510298
20
4.470618
10
17.518570
20
4.479260
10
17.526886
20
4.487860
10
17.535245
20
4.496417
10
17.543648
20
4.504932
10
17.552094
20
4.513404
10
17.560583
20
4.521833
10
17.569115
20
4.530218
10
17.577689
20
4.538560
10
17.586306
20
4.546858
10
17.594965
20
4.555112
10
17.603666
20
4.563322
10
17.612408
20
4.571487
10
17.621192
20
4.579608
10
17.630017
20
4.587684
10
17.638884
20
4.595715
10
17.647791
20
4.603701
10
17.656738
20
4.611641
10
17.665726
20
4.619536
10
17.674754
20
4.627385
10
17.683821
20
4.635188
10
17.692929
20
4.642944
10
17.702075
20
4.650654
10
17.711261
20
4.658318
10
17.720486
20
4.665934
10
17.729749
20
4.673504
10
17.739051
20
4.681026
10
17.748391
20
4.688501
10
17.757769
20
4.695928
10
17.767184
20
4.703307
10
17.776637
20
4.710638
10
17.786127
20
4.717921
10
17.795655
20
4.725156
10
17.805218
20
4.732342
10
17.814819
20
4.739479
10
17.824455
20
4.746568
10
17.834128
20
4.753607
10
17.843836
20
4.760597
10
17.853579
20
4.767537
10
17.863358
20
4.774428
10
17.873172
20
4.781268
10
17.883020
20
4.788059
10
17.892903
20
4.794800
10
17.902820
20
4.801490
10
17.912771
20
4.808129
10
17.922756
20
4.814718
10
17.932774
20
4.821256
10
17.942825
20
4.827743
10
17.952910
20
4.834179
10
17.963026
20
4.840563
10
17.973176
20
4.846895
10
17.983357
20
4.853176
10
17.993570
20
4.859405
10
18.003815
20
4.865582
10
18.014091
20
4.871706
10
18.024398
20
4.877779
10
18.034735
20
4.883798
10
18.045104
20
4.889765
10
18.055502
20
4.895679
10
18.065931
20
4.901541
10
18.076389
20
4.907348
10
18.086877
20
4.913103
10
18.097393
20
4.918804
10
18.107939
20
4.924452
10
18.118513
20
4.930046
10
18.129116
20
4.935586
10
18.139747
20
4.941071
10
18.150405
20
4.946503
10
18.161091
20
4.951880
10
18.171804
20
4.957203
10
18.182545
20
4.962472
10
18.193311
20
4.967685
10
18.204105
20
4.972844
10
18.214924
20
4.977947
10
18.225769
20
4.982996
10
18.236640
20
4.987989
10
18.247536
20
4.992927
10
18.258457
20
4.997809
10
18.269403
20
5.002636
10
18.280373
20
5.007407
10
18.291368
20
5.012122
10
18.302386
20
5.016781
10
18.313428
20
5.021383
10
18.324493
20
5.025930
10
18.335581
20
5.030420
10
18.346692
20
5.034854
10
18.357825
20
5.039231
10
18.368980
20
5.043551
10
18.380157
20
5.047814
10
18.391356
20
5.052021
10
18.402576
20
5.056170
10
18.413817
20
5.060262
10
18.425079
20
5.064297
10
18.436361
20
5.068275
10
18.447663
20
5.072195
10
18.458985
20
5.076058
10
18.470326
20
5.079862
10
18.481687
20
5.083610
10
18.493067
20
5.087299
10
18.504465
20
5.090930
10
18.515882
20
5.094503
10
18.527316
20
5.098018
10
18.538769
20
5.101475
10
18.550239
20
5.104873
10
18.561726
20
5.108213
10
18.573230
20
5.111494
10
18.584750
20
5.114717
10
18.596287
20
5.117881
10
18.607839
20
5.120987
10
18.619408
20
5.124033
10
18.630991
20
5.127021
10
18.642590
20
5.129949
10
18.654203
20
5.132819
10
18.665831
20
5.135629
10
18.677473
20
5.138380
10
18.689129
20
5.141072
10
18.700799
20
5.143705
10
18.712481
20
5.146278
10
18.724177
20
5.148791
10
18.735885
20
5.151245
10
18.747606
20
5.153639
10
18.759339
20
5.155974
10
18.771083
20
5.158249
10
18.782839
20
5.160464
10
18.794606
20
5.162619
10
18.806384
20
5.164714
10
18.818172
20
5.166750
10
18.829971
20
5.168725
10
18.841779
20
5.170640
10
18.853597
20
5.172495
10
18.865424
20
5.174290
10
18.877261
20
5.176024
10
18.889106
20
5.177699
10
18.900959
20
5.179313
10
18.912820
20
5.180866
10
18.924690
20
5.182360
10
18.936566
20
5.183792
10
18.948450
20
5.185165
10
18.960340
20
5.186476
10
18.972238
20
5.187728
10
18.984141
20
5.188918
10
18.996050
20
5.190048
10
19.007965
20
5.191118
10
19.019885
20
5.192127
10
19.031810
20
5.193075
10
19.043740
20
5.193962
10
19.055674
20
5.194789
10
19.067612
20
5.195555
10
19.079554
20
5.196260
10
19.091499
20
5.196904
10
19.103448
20
5.197487
10
19.115399
20
5.198010
10
19.127353
20
5.198472
10
19.139309
20
5.198873
10
19.151267
20
5.199213
10
19.163226
20
5.199492
10
19.175187
20
5.199710
10
19.187149
20
5.199868
10
19.199111
20
5.199964
10
19.211074
20
5.200000
10
19.223036
20
5.199975
10
19.234999
20
5.199888
10
19.246960
20
5.199741
10
19.258921
20
5.199533
10
19.270881
20
5.199264
10
19.282839
20
5.198935
10
19.294796
20
5.198544
10
19.306750
20
5.198093
10
19.318702
20
5.197580
10
19.330650
20
5.197007
10
19.342596
20
5.196373
10
19.354539
20
5.195679
10
19.366478
20
5.194923
10
19.378413
20
5.194107
10
19.390343
20
5.193230
10
19.402269
20
5.192292
10
19.414190
20
5.191294
10
19.426106
20
5.190234
10
19.438016
20
5.189115
10
19.449920
20
5.187934
10
19.461818
20
5.186693
10
19.473710
20
5.185392
10
19.485595
20
5.184030
10
19.497473
20
5.182607
10
19.509343
20
5.181124
10
19.521206
20
5.179581
10
19.533061
20
5.177977
10
19.544907
20
5.176313
10
19.556745
20
5.174589
10
19.568574
20
5.172804
10
19.580393
20
5.170959
10
19.592203
20
5.169055
10
19.604004
20
5.167090
10
19.615794
20
5.165064
10
19.627573
20
5.162979
10
19.639342
20
5.160834
10
19.651100
20
5.158630
10
19.662846
20
5.156365
10
19.674581
20
5.154040
10
19.686304
20
5.151656
10
19.698014
20
5.149212
10
19.709712
20
5.146709
10
19.721397
20
5.144146
10
19.733069
20
5.141524
10
19.744727
20
5.138842
10
19.756371
20
5.136101
10
19.768002
20
5.133301
10
19.779618
20
5.130441
10
19.791219
20
5.127523
10
19.802805
20
5.124545
10
19.814376
20
5.121509
10
19.825931
20
5.118413
10
19.837471
20
5.115259
10
19.848994
20
5.112046
10
19.860501
20
5.108775
10
19.871991
20
5.105445
10
19.883463
20
5.102056
10
19.894919
20
5.098610
10
19.906356
20
5.095105
10
19.917776
20
5.091541
10
19.929178
20
5.087920
10
19.940560
20
5.084241
10
19.951924
20
5.080503
10
19.963269
20
5.076708
10
19.974594
20
5.072856
10
19.985900
20
5.068945
10
19.997186
20
5.064977
10
20.008451
20
5.060952
10
20.019695
20
5.056870
10
20.030919
20
5.052730
10
20.042121
20
5.048533
10
20.053302
20
5.044279
10
20.064461
20
5.039969
10
20.075598
20
5.035601
10
20.086713
20
5.031177
10
20.097805
20
5.026697
10
20.108874
20
5.022160
10
20.119920
20
5.017567
10
20.130942
20
5.012917
10
20.141940
20
5.008212
10
20.152915
20
5.003451
10
20.163864
20
4.998633
10
20.174790
20
4.993761
10
20.185690
20
4.988832
10
20.196565
20
4.983848
10
20.207415
20
4.978809
10
20.218239
20
4.973715
10
20.229036
20
4.968566
10
20.239808
20
4.963361
10
20.250552
20
4.958102
10
20.261270
20
4.952789
10
20.271961
20
4.947421
10
20.282624
20
4.941998
10
20.293260
20
4.936522
10
20.303867
20
4.930991
10
20.314446
20
4.925406
10
20.324997
20
4.919768
10
20.335518
20
4.914076
10
20.346011
20
4.908330
10
20.356474
20
4.902531
10
20.366908
20
4.896679
10
20.377312
20
4.890774
10
20.387685
20
4.884816
10
20.398028
20
4.878805
10
20.408340
20
4.872742
10
20.418622
20
4.866626
10
20.428872
20
4.860458
10
20.439090
20
4.854238
10
20.449277
20
4.847966
10
20.459431
20
4.841643
10
20.469554
20
4.835267
10
20.479643
20
4.828840
10
20.489700
20
4.822362
10
20.499724
20
4.815833
10
20.509714
20
4.809253
10
20.519671
20
4.802622
10
20.529594
20
4.795940
10
20.539483
20
4.789208
10
20.549337
20
4.782426
10
20.559157
20
4.775594
10
20.568941
20
4.768712
10
20.578691
20
4.761780
10
20.588405
20
4.754798
10
20.598084
20
4.747768
10
20.607726
20
4.740688
10
20.617333
20
4.733559
10
20.626903
20
4.726381
10
20.636436
20
4.719154
10
20.645933
20
4.711879
10
20.655392
20
4.704556
10
20.664814
20
4.697185
10
20.674198
20
4.689766
10
20.683545
20
4.682300
10
20.692853
20
4.674785
10
20.702123
20
4.667224
10
20.711354
20
4.659615
10
20.720547
20
4.651960
10
20.729700
20
4.644258
10
20.738814
20
4.636509
10
20.747888
20
4.628714
10
20.756923
20
4.620873
10
20.765918
20
4.612986
10
20.774872
20
4.605054
10
20.783786
20
4.597076
10
20.792659
20
4.589052
10
20.801491
20
4.580984
10
20.810282
20
4.572870
10
20.819032
20
4.564713
10
20.827740
20
4.556510
10
20.836406
20
4.548264
10
20.845030
20
4.539973
10
20.853611
20
4.531639
10
20.862150
20
4.523261
10
20.870647
20
4.514839
10
20.879100
20
4.506375
10
20.887510
20
4.497868
10
20.895877
20
4.489318
10
20.904200
20
4.480725
10
20.912479
20
4.472090
10
20.920715
20
4.463413
10
20.928906
20
4.454695
10
20.937052
20
4.445934
10
20.945154
20
4.437133
10
20.953211
20
4.428290
10
20.961222
20
4.419407
10
24.477905
20
0.500000
10
27.447443
20
0.500000
10
27.086417
20
0.620046
10
27.075075
20
0.623849
10
27.063753
20
0.627710
10
27.052450
20
0.631629
10
27.041168
20
0.635605
10
27.029905
20
0.639639
10
27.018664
20
0.643729
10
27.007443
20
0.647878
10
26.996244
20
0.652083
10
26.985066
20
0.656345
10
26.973911
20
0.660664
10
26.962777
20
0.665039
10
26.951665
20
0.669471
10
26.940577
20
0.673960
10
26.929511
20
0.678505
10
26.918469
20
0.683107
10
26.907450
20
0.687764
10
26.896455
20
0.692478
10
26.885484
20
0.697247
10
26.874538
20
0.702073
10
26.863616
20
0.706954
10
26.852720
20
0.711890
10
26.841848
20
0.716882
10
26.831002
20
0.721929
10
26.820182
20
0.727031
10
26.809388
20
0.732189
10
26.798621
20
0.737401
10
26.787880
20
0.742668
10
26.777166
20
0.747989
10
26.766480
20
0.753365
10
26.755820
20
0.758796
10
26.745189
20
0.764280
10
26.734586
20
0.769819
10
26.724011
20
0.775411
10
26.713464
20
0.781058
10
26.702947
20
0.786757
10
26.692458
20
0.792511
10
26.681999
20
0.798317
10
26.671570
20
0.804177
10
26.661171
20
0.810090
10
26.650802
20
0.816056
10
26.640463
20
0.822074
10
26.630156
20
0.828145
10
26.619879
20
0.834268
10
26.609633
20
0.840444
10
26.599420
20
0.846672
10
26.589238
20
0.852951
10
26.579088
20
0.859283
10
26.568970
20
0.865665
10
26.558885
20
0.872100
10
26.548833
20
0.878585
10
26.538814
20
0.885122
10
26.528829
20
0.891710
10
26.518877
20
0.898348
10
26.508959
20
0.905037
10
26.499075
20
0.911776
10
26.489226
20
0.918566
10
26.479411
20
0.925405
10
26.469632
20
0.932295
10
26.459887
20
0.939234
10
26.450178
20
0.946222
10
26.440505
20
0.953260
10
26.430867
20
0.960347
10
26.421266
20
0.967484
10
26.411701
20
0.974668
10
26.402173
20
0.981902
10
26.392682
20
0.989184
10
26.383228
20
0.996514
10
26.373812
20
1.003892
10
26.364433
20
1.011318
10
26.355092
20
1.018792
10
26.345790
20
1.026313
10
26.336525
20
1.033881
10
26.327300
20
1.041496
10
26.318113
20
1.049159
10
26.308965
20
1.056868
10
26.299857
20
1.064623
10
26.290788
20
1.072425
10
26.281760
20
1.080272
10
26.272771
20
1.088166
10
26.263822
20
1.096105
10
26.254914
20
1.104090
10
26.246047
20
1.112120
10
26.237221
20
1.120195
10
26.228436
20
1.128315
10
26.219693
20
1.136479
10
26.210991
20
1.144688
10
26.202331
20
1.152941
10
26.193713
20
1.161238
10
26.185138
20
1.169578
10
26.176605
20
1.177963
10
26.168115
20
1.186390
10
26.159667
20
1.194861
10
26.151264
20
1.203375
10
26.142903
20
1.211931
10
26.134586
20
1.220530
10
26.126314
20
1.229171
10
26.118085
20
1.237854
10
26.109900
20
1.246578
10
26.101760
20
1.255345
10
26.093665
20
1.264152
10
26.085615
20
1.273001
10
26.077610
20
1.281890
10
26.069650
20
1.290821
10
26.061736
20
1.299791
10
26.053867
20
1.308802
10
26.046045
20
1.317853
10
26.038268
20
1.326943
10
26.030539
20
1.336073
10
26.022855
20
1.345242
10
26.015219
20
1.354450
10
26.007629
20
1.363697
10
26.000087
20
1.372982
10
25.992591
20
1.382306
10
25.985144
20
1.391668
10
25.977744
20
1.401067
10
25.970392
20
1.410504
10
25.963089
20
1.419979
10
25.955833
20
1.429490
10
25.948626
20
1.439038
10
25.941468
20
1.448623
10
25.934359
20
1.458244
10
25.927299
20
1.467901
10
25.920288
20
1.477594
10
25.913326
20
1.487322
10
25.906414
20
1.497086
10
25.899552
20
1.506885
10
25.892740
20
1.516719
10
25.885978
20
1.526587
10
25.879267
20
1.536490
10
25.872605
20
1.546426
10
25.865995
20
1.556396
10
25.859435
20
1.566400
10
25.852927
20
1.576437
10
25.846469
20
1.586508
10
25.840063
20
1.596610
10
25.833708
20
1.606746
10
25.827405
20
1.616913
10
25.821154
20
1.627113
10
25.814955
20
1.637344
10
25.808808
20
1.647607
10
25.802714
20
1.657900
10
25.796671
20
1.668225
10
25.790682
20
1.678580
10
25.784745
20
1.688966
10
25.778861
20
1.699382
10
25.773031
20
1.709827
10
25.767253
20
1.720303
10
25.761529
20
1.730807
10
25.755859
20
1.741340
10
25.750242
20
1.751902
10
25.744679
20
1.762493
10
25.739170
20
1.773112
10
25.733715
20
1.783758
10
25.728315
20
1.794433
10
25.722969
20
1.805134
10
25.717677
20
1.815863
10
25.712440
20
1.826618
10
25.707258
20
1.837401
10
25.702131
20
1.848209
10
25.697059
20
1.859043
10
25.692042
20
1.869903
10
25.687080
20
1.880788
10
25.682174
20
1.891699
10
25.677324
20
1.902634
10
25.672529
20
1.913594
10
25.667790
20
1.924578
10
25.663107
20
1.935586
10
25.658481
20
1.946618
10
25.653910
20
1.957673
10
25.649396
20
1.968751
10
25.644938
20
1.979852
10
25.640537
20
1.990976
10
25.636192
20
2.002122
10
25.631905
20
2.013290
10
25.627674
20
2.024479
10
25.623500
20
2.035690
10
25.619383
20
2.046922
10
25.615324
20
2.058175
10
25.611322
20
2.069449
10
25.607377
20
2.080742
10
25.603490
20
2.092056
10
25.599661
20
2.103389
10
25.595889
20
2.114741
10
25.592175
20
2.126113
10
25.588519
20
2.137503
10
25.584921
20
2.148912
10
25.581381
20
2.160339
10
25.577899
20
2.171784
10
25.574476
20
2.183247
10
25.571111
20
2.194726
10
25.567805
20
2.206223
10
25.564557
20
2.217736
10
25.561368
20
2.229266
10
25.558237
20
2.240812
10
25.555166
20
2.252374
10
25.552153
20
2.263951
10
25.549199
20
2.275543
10
25.546304
20
2.287150
10
25.543469
20
2.298772
10
25.540692
20
2.310408
10
25.537975
20
2.322058
10
25.535317
20
2.333722
10
25.532719
20
2.345399
10
25.530180
20
2.357089
10
25.527701
20
2.368792
10
25.525281
20
2.380507
10
25.522921
20
2.392235
10
25.520620
20
2.403974
10
25.518380
20
2.415725
10
25.516199
20
2.427488
10
25.514078
20
2.439261
10
25.512017
20
2.451045
10
25.510016
20
2.462839
10
25.508075
20
2.474643
10
25.506195
20
2.486457
10
25.504374
20
2.498281
10
25.502614
20
2.510113
10
25.500914
20
2.521954
10
25.499274
20
2.533804
10
25.497695
20
2.545662
10
25.496176
20
2.557528
10
25.494717
20
2.569401
10
25.493319
20
2.581282
10
25.491981
20
2.593170
10
25.490704
20
2.605064
10
25.489488
20
2.616965
10
25.488332
20
2.628872
10
25.487236
20
2.640784
10
25.486202
20
2.652702
10
25.485228
20
2.664625
10
25.484314
20
2.676553
10
25.483462
20
2.688485
10
25.482670
20
2.700421
10
25.481939
20
2.712362
10
25.481269
20
2.724306
10
25.480659
20
2.736253
10
25.480110
20
2.748203
10
25.479623
20
2.760156
10
25.479196
20
2.772111
10
25.478830
20
2.784068
10
25.478525
20
2.796027
10
25.478280
20
2.807987
10
25.478097
20
2.819948
10
25.477974
20
2.831910
10
25.477913
20
2.843873
10
25.477912
20
2.855836
10
25.477972
20
2.867798
10
25.478093
20
2.879760
10
25.478275
20
2.891722
10
25.478518
20
2.903682
10
25.478822
20
2.915641
10
25.479186
20
2.927598
10
25.479612
20
2.939553
10
25.480098
20
2.951506
10
25.480645
20
2.963456
10
25.481253
20
2.975403
10
25.481922
20
2.987347
10
25.482651
20
2.999288
10
25.483442
20
3.011224
10
25.484293
20
3.023157
10
25.485205
20
3.035085
10
25.486177
20
3.047008
10
25.487210
20
3.058926
10
25.488304
20
3.070838
10
25.489459
20
3.082745
10
25.490674
20
3.094646
10
25.491949
20
3.106541
10
25.493286
20
3.118428
10
25.494682
20
3.130309
10
25.496139
20
3.142183
10
25.497657
20
3.154049
10
25.499235
20
3.165907
10
25.500873
20
3.177757
10
25.502572
20
3.189599
10
25.504331
20
3.201431
10
25.506150
20
3.213255
10
25.508029
20
3.225069
10
25.509968
20
3.236874
10
25.511968
20
3.248668
10
25.514027
20
3.260452
10
25.516147
20
3.272226
10
25.518326
20
3.283988
10
25.520565
20
3.295740
10
25.522864
20
3.307479
10
25.525223
20
3.319207
10
25.527641
20
3.330923
10
25.530119
20
3.342626
10
25.532656
20
3.354317
10
25.535253
20
3.365994
10
25.537910
20
3.377658
10
25.540625
20
3.389309
10
25.543400
20
3.400945
10
25.546235
20
3.412567
10
25.549128
20
3.424175
10
25.552080
20
3.435767
10
25.555092
20
3.447345
10
25.558162
20
3.458907
10
25.561291
20
3.470453
10
25.564479
20
3.481983
10
25.567725
20
3.493497
10
25.571030
20
3.504994
10
25.574394
20
3.516474
10
25.577815
20
3.527937
10
25.581296
20
3.539382
10
25.584834
20
3.550810
10
25.588431
20
3.562219
10
25.592085
20
3.573610
10
25.595798
20
3.584982
10
25.599568
20
3.596335
10
25.603396
20
3.607669
10
25.607282
20
3.618983
10
25.611225
20
3.630277
10
25.615226
20
3.641551
10
25.619284
20
3.652804
10
25.623399
20
3.664037
10
25.627572
20
3.675248
10
25.631801
20
3.686438
10
25.636087
20
3.697607
10
25.640430
20
3.708753
10
25.644830
20
3.719877
10
25.649287
20
3.730979
10
25.653800
20
3.742058
10
25.658369
20
3.753114
10
25.662994
20
3.764146
10
25.667676
20
3.775154
10
25.672413
20
3.786139
10
25.677206
20
3.797100
10
25.682056
20
3.808035
10
25.686960
20
3.818946
10
25.691920
20
3.829832
10
25.696936
20
3.840693
10
25.702007
20
3.851528
10
25.707132
20
3.862337
10
25.712313
20
3.873119
10
25.717549
20
3.883875
10
25.722839
20
3.894605
10
25.728184
20
3.905307
10
25.733583
20
3.915982
10
25.739037
20
3.926629
10
25.744544
20
3.937249
10
25.750106
20
3.947840
10
25.755721
20
3.958403
10
25.761391
20
3.968937
10
25.767113
20
3.979442
10
25.772889
20
3.989918
10
25.778719
20
4.000364
10
25.784601
20
4.010781
10
25.790537
20
4.021167
10
25.796525
20
4.031523
10
25.802566
20
4.041849
10
25.808659
20
4.052143
10
25.814805
20
4.062406
10
25.821003
20
4.072638
10
25.827253
20
4.082839
10
25.833554
20
4.093007
10
25.839908
20
4.103143
10
25.846312
20
4.113247
10
25.852769
20
4.123318
10
25.859276
20
4.133356
10
25.865835
20
4.143360
10
25.872444
20
4.153332
10
25.879104
20
4.163269
10
25.885814
20
4.173172
10
25.892575
20
4.183041
10
25.899386
20
4.192876
10
25.906247
20
4.202676
10
25.913158
20
4.212440
10
25.920118
20
4.222170
10
25.927128
20
4.231863
10
25.934187
20
4.241521
10
25.941295
20
4.251143
10
25.948452
20
4.260729
10
25.955657
20
4.270278
10
25.962911
20
4.279790
10
25.970214
20
4.289266
10
25.977565
20
4.298703
10
25.984963
20
4.308104
10
25.992410
20
4.317466
10
25.999903
20
4.326791
10
26.007445
20
4.336077
10
26.015033
20
4.345325
10
26.022669
20
4.354534
10
26.030351
20
4.363704
10
26.038080
20
4.372835
10
26.045855
20
4.381926
10
26.053676
20
4.390978
10
26.061544
20
4.399990
10
26.069457
20
4.408961
10
26.077415
20
4.417893
10
26.085419
20
4.426783
10
26.093469
20
4.435633
10
26.101563
20
4.444441
10
26.109702
20
4.453209
10
26.117885
20
4.461934
10
26.126113
20
4.470618
10
26.134384
20
4.479260
10
26.142700
20
4.487860
10
26.151060
20
4.496417
10
26.159462
20
4.504932
10
26.167908
20
4.513404
10
26.176397
20
4.521833
10
26.184929
20
4.530218
10
26.193504
20
4.538560
10
26.202121
20
4.546858
10
26.210779
20
4.555112
10
26.219480
20
4.563322
10
26.228223
20
4.571487
10
26.237007
20
4.579608
10
26.245832
20
4.587684
10
26.254698
20
4.595715
10
26.263605
20
4.603701
10
26.272553
20
4.611641
10
26.281540
20
4.619536
10
26.290568
20
4.627385
10
26.299636
20
4.635188
10
26.308743
20
4.642944
10
26.317890
20
4.650654
10
26.327076
20
4.658318
10
26.336300
20
4.665934
10
26.345564
20
4.673504
10
26.354865
20
4.681026
10
26.364205
20
4.688501
10
26.373583
20
4.695928
10
26.382999
20
4.703307
10
26.392452
20
4.710638
10
26.401942
20
4.717921
10
26.411469
20
4.725156
10
26.421033
20
4.732342
10
26.430633
20
4.739479
10
26.440270
20
4.746568
10
26.449942
20
4.753607
10
26.459650
20
4.760597
10
26.469394
20
4.767537
10
26.479173
20
4.774428
10
26.488986
20
4.781268
10
26.498835
20
4.788059
10
26.508718
20
4.794800
10
26.518635
20
4.801490
10
26.528586
20
4.808129
10
26.538571
20
4.814718
10
26.548589
20
4.821256
10
26.558640
20
4.827743
10
26.568724
20
4.834179
10
26.578841
20
4.840563
10
26.588990
20
4.846895
10
26.599171
20
4.853176
10
26.609384
20
4.859405
10
26.619629
20
4.865582
10
26.629905
20
4.871706
10
26.640212
20
4.877779
10
26.650550
20
4.883798
10
26.660918
20
4.889765
10
26.671317
20
4.895679
10
26.681745
20
4.901541
10
26.692203
20
4.907348
10
26.702691
20
4.913103
10
26.713208
20
4.918804
10
26.723753
20
4.924452
10
26.734328
20
4.930046
10
26.744930
20
4.935586
10
26.755561
20
4.941071
10
26.766220
20
4.946503
10
26.776906
20
4.951880
10
26.787619
20
4.957203
10
26.798359
20
4.962472
10
26.809126
20
4.967685
10
26.819919
20
4.972844
10
26.830739
20
4.977947
10
26.841584
20
4.982996
10
26.852455
20
4.987989
10
26.863351
20
4.992927
10
26.874272
20
4.997809
10
26.885218
20
5.002636
10
26.896188
20
5.007407
10
26.907182
20
5.012122
10
26.918200
20
5.016781
10
26.929242
20
5.021383
10
26.940307
20
5.025930
10
26.951395
20
5.030420
10
26.962506
20
5.034854
10
26.973639
20
5.039231
10
26.984795
20
5.043551
10
26.995972
20
5.047814
10
27.007170
20
5.052021
10
27.018391
20
5.056170
10
27.029632
20
5.060262
10
27.040893
20
5.064297
10
27.052175
20
5.068275
10
27.063477
20
5.072195
10
27.074799
20
5.076058
10
27.086141
20
5.079862
10
27.097502
20
5.083610
10
27.108881
20
5.087299
10
27.120280
20
5.090930
10
27.131696
20
5.094503
10
27.143131
20
5.098018
10
27.154583
20
5.101475
10
27.166053
20
5.104873
10
27.177540
20
5.108213
10
27.189044
20
5.111494
10
27.200564
20
5.114717
10
27.212101
20
5.117881
10
27.223654
20
5.120987
10
27.235222
20
5.124033
10
27.246806
20
5.127021
10
27.258404
20
5.129949
10
27.270018
20
5.132819
10
27.281646
20
5.135629
10
27.293288
20
5.138380
10
27.304944
20
5.141072
10
27.316613
20
5.143705
10
27.328296
20
5.146278
10
27.339992
20
5.148791
10
27.351700
20
5.151245
10
27.363421
20
5.153639
10
27.375153
20
5.155974
10
27.386898
20
5.158249
10
27.398654
20
5.160464
10
27.410420
20
5.162619
10
27.422198
20
5.164714
10
27.433987
20
5.166750
10
27.445785
20
5.168725
10
27.457594
20
5.170640
10
27.469412
20
5.172495
10
27.481239
20
5.174290
10
27.493075
20
5.176024
10
27.504920
20
5.177699
10
27.516773
20
5.179313
10
27.528635
20
5.180866
10
27.540504
20
5.182360
10
27.552381
20
5.183792
10
27.564264
20
5.185165
10
27.576155
20
5.186476
10
27.588052
20
5.187728
10
27.599955
20
5.188918
10
27.611864
20
5.190048
10
27.623779
20
5.191118
10
27.635699
20
5.192127
10
27.647624
20
5.193075
10
27.659554
20
5.193962
10
27.671488
20
5.194789
10
27.683427
20
5.195555
10
27.695368
20
5.196260
10
27.707314
20
5.196904
10
27.719262
20
5.197487
10
27.731214
20
5.198010
10
27.743167
20
5.198472
10
27.755123
20
5.198873
10
27.767081
20
5.199213
10
27.779041
20
5.199492
10
27.791001
20
5.199710
10
27.802963
20
5.199868
10
27.814925
20
5.199964
10
27.826888
20
5.200000
10
27.838851
20
5.199975
10
27.850813
20
5.199888
10
27.862775
20
5.199741
10
27.874736
20
5.199533
10
27.886696
20
5.199264
10
27.898654
20
5.198935
10
27.910610
20
5.198544
10
27.922564
20
5.198093
10
27.934516
20
5.197580
10
27.946465
20
5.197007
10
27.958411
20
5.196373
10
27.970353
20
5.195679
10
27.982292
20
5.194923
10
27.994227
20
5.194107
10
28.006158
20
5.193230
10
28.018083
20
5.192292
10
28.030004
20
5.191294
10
28.041920
20
5.190234
10
28.053830
20
5.189115
10
28.065735
20
5.187934
10
28.077633
20
5.186693
10
28.089525
20
5.185392
10
28.101409
20
5.184030
10
28.113287
20
5.182607
10
28.125158
20
5.181124
10
28.137020
20
5.179581
10
28.148875
20
5.177977
10
28.160722
20
5.176313
10
28.172559
20
5.174589
10
28.184388
20
5.172804
10
28.196208
20
5.170959
10
28.208018
20
5.169055
10
28.219818
20
5.167090
10
28.231608
20
5.165064
10
28.243388
20
5.162979
10
28.255157
20
5.160834
10
28.266914
20
5.158630
10
28.278661
20
5.156365
10
28.290395
20
5.154040
10
28.302118
20
5.151656
10
28.313829
20
5.149212
10
28.325526
20
5.146709
10
28.337211
20
5.144146
10
28.348883
20
5.141524
10
28.360541
20
5.138842
10
28.372186
20
5.136101
10
28.383816
20
5.133301
10
28.395432
20
5.130441
10
28.407033
20
5.127523
10
28.418620
20
5.124545
10
28.430191
20
5.121509
10
28.441746
20
5.118413
10
28.453285
20
5.115259
10
28.464808
20
5.112046
10
28.476315
20
5.108775
10
28.487805
20
5.105445
10
28.499278
20
5.102056
10
28.510733
20
5.098610
10
28.522171
20
5.095105
10
28.533591
20
5.091541
10
28.544992
20
5.087920
10
28.556375
20
5.084241
10
28.567739
20
5.080503
10
28.579084
20
5.076708
10
28.590409
20
5.072856
10
28.601715
20
5.068945
10
28.613000
20
5.064977
10
28.624265
20
5.060952
10
28.635510
20
5.056870
10
28.646733
20
5.052730
10
28.657936
20
5.048533
10
28.669117
20
5.044279
10
28.680276
20
5.039969
10
28.691413
20
5.035601
10
28.702527
20
5.031177
10
28.713619
20
5.026697
10
28.724688
20
5.022160
10
28.735734
20
5.017567
10
28.746756
20
5.012917
10
28.757755
20
5.008212
10
28.768729
20
5.003451
10
28.779679
20
4.998633
10
28.790604
20
4.993761
10
28.801505
20
4.988832
10
28.812380
20
4.983848
10
28.823229
20
4.978809
10
28.834053
20
4.973715
10
28.844851
20
4.968566
10
28.855622
20
4.963361
10
28.866367
20
4.958102
10
28.877085
20
4.952789
10
28.887775
20
4.947421
10
28.898439
20
4.941998
10
28.909074
20
4.936522
10
28.919681
20
4.930991
10
28.930261
20
4.925406
10
28.940811
20
4.919768
10
28.951333
20
4.914076
10
28.961826
20
4.908330
10
28.972289
20
4.902531
10
28.982722
20
4.896679
10
28.993126
20
4.890774
10
29.003499
20
4.884816
10
29.013842
20
4.878805
10
29.024155
20
4.872742
10
29.034436
20
4.866626
10
29.044686
20
4.860458
10
29.054904
20
4.854238
10
29.065091
20
4.847966
10
29.075246
20
4.841643
10
29.085368
20
4.835267
10
29.095458
20
4.828840
10
29.105515
20
4.822362
10
29.115538
20
4.815833
10
29.125529
20
4.809253
10
29.135486
20
4.802622
10
29.145408
20
4.795940
10
29.155297
20
4.789208
10
29.165151
20
4.782426
10
29.174971
20
4.775594
10
29.184756
20
4.768712
10
29.194506
20
4.761780
10
29.204220
20
4.754798
10
29.213898
20
4.747768
10
29.223541
20
4.740688
10
29.233147
20
4.733559
10
29.242717
20
4.726381
10
29.252251
20
4.719154
10
29.261747
20
4.711879
10
29.271207
20
4.704556
10
29.280629
20
4.697185
10
29.290013
20
4.689766
10
29.299359
20
4.682300
10
29.308667
20
4.674785
10
29.317937
20
4.667224
10
29.327169
20
4.659615
10
29.336361
20
4.651960
10
29.345514
20
4.644258
10
29.354628
20
4.636509
10
29.363703
20
4.628714
10
29.372737
20
4.620873
10
29.381732
20
4.612986
10
29.390686
20
4.605054
10
29.399600
20
4.597076
10
29.408473
20
4.589052
10
29.417306
20
4.580984
10
29.426097
20
4.572870
10
29.434846
20
4.564713
10
29.443554
20
4.556510
10
29.452220
20
4.548264
10
29.460844
20
4.539973
10
29.469426
20
4.531639
10
29.477965
20
4.523261
10
29.486461
20
4.514839
10
29.494914
20
4.506375
10
29.503325
20
4.497868
10
29.511691
20
4.489318
10
29.520015
20
4.480725
10
29.528294
20
4.472090
10
29.536529
20
4.463413
10
29.544720
20
4.454695
10
29.552866
20
4.445934
10
29.560968
20
4.437133
10
29.569025
20
4.428290
10
29.577037
20
4.419407
10
32.206968
20
1.488301
10
32.230119
20
1.497449
10
32.279416
20
1.515088
10
32.329264
20
1.531105
10
32.379609
20
1.545481
10
32.430397
20
1.558203
10
32.481575
20
1.569256
10
32.533086
20
1.578629
10
32.584877
20
1.586312
10
32.636892
20
1.592296
10
32.689074
20
1.596574
10
32.741369
20
1.599143
10
32.793719
20
1.600000
10
32.846070
20
1.599143
10
32.898364
20
1.596574
10
32.950547
20
1.592296
10
33.002561
20
1.586312
10
33.054352
20
1.578629
10
33.105864
20
1.569256
10
33.157041
20
1.558203
10
33.207830
20
1.545481
10
33.258175
20
1.531105
10
33.308022
20
1.515088
10
33.357319
20
1.497449
10
33.406013
20
1.478207
10
33.454050
20
1.457382
10
33.501381
20
1.434996
10
33.547954
20
1.411074
10
33.593719
20
1.385641
10
33.638628
20
1.358723
10
33.682631
20
1.330351
10
33.725683
20
1.300555
10
33.767737
20
1.269365
10
33.808748
20
1.236817
10
33.848672
20
1.202944
10
33.887467
20
1.167783
10
33.925090
20
1.131371
10
33.961502
20
1.093748
10
33.996663
20
1.054953
10
34.030536
20
1.015029
10
34.063084
20
0.974018
10
34.094274
20
0.931964
10
34.124070
20
0.888912
10
34.152443
20
0.844909
10
34.179360
20
0.800000
10
34.204793
20
0.754235
10
34.228715
20
0.707662
10
34.251101
20
0.660331
10
34.271926
20
0.612293
10
34.291169
20
0.563600
10
34.308807
20
0.514303
10
34.324824
20
0.464455
10
34.339200
20
0.414110
10
34.351922
20
0.363322
10
34.362976
20
0.312145
10
34.372348
20
0.260633
10
34.380031
20
0.208842
10
34.386015
20
0.156827
10
34.390293
20
0.104645
10
34.392862
20
0.052351
10
34.393719
20
0.000000
10
34.392862
20
-0.052351
10
34.390293
20
-0.104645
10
34.386015
20
-0.156827
10
34.380031
20
-0.208842
10
34.372348
20
-0.260633
10
34.362976
20
-0.312145
10
34.351922
20
-0.363322
10
34.339200
20
-0.414110
10
34.324824
20
-0.464455
10
34.308807
20
-0.514303
10
34.291169
20
-0.563600
10
34.271926
20
-0.612293
10
34.251101
20
-0.660331
10
34.228715
20
-0.707662
10
34.204793
20
-0.754235
10
34.179360
20
-0.800000
10
34.152443
20
-0.844909
10
34.124070
20
-0.888912
10
34.094274
20
-0.931964
10
34.063084
20
-0.974018
10
34.030536
20
-1.015029
10
33.996663
20
-1.054953
10
33.961502
20
-1.093748
10
33.925090
20
-1.131371
10
33.887467
20
-1.167783
10
33.848672
20
-1.202944
10
33.808748
20
-1.236817
10
33.767737
20
-1.269365
10
33.725683
20
-1.300555
10
33.682631
20
-1.330351
10
33.638628
20
-1.358723
10
33.593719
20
-1.385641
10
33.547954
20
-1.411074
10
33.501381
20
-1.434996
10
33.454050
20
-1.457382
10
33.406013
20
-1.478207
10
33.357319
20
-1.497449
10
33.308022
20
-1.515088
10
33.258175
20
-1.531105
10
33.207830
20
-1.545481
10
33.157041
20
-1.558203
10
33.105864
20
-1.569256
10
33.054352
20
-1.578629
10
33.002561
20
-1.586312
10
32.950547
20
-1.592296
10
32.898364
20
-1.596574
10
32.846070
20
-1.599143
10
32.793719
20
-1.600000
10
32.741369
20
-1.599143
10
32.689074
20
-1.596574
10
32.636892
20
-1.592296
10
32.584877
20
-1.586312
10
32.533086
20
-1.578629
10
32.481575
20
-1.569256
10
32.430397
20
-1.558203
10
32.379609
20
-1.545481
10
32.329264
20
-1.531105
10
32.279416
20
-1.515088
10
32.230119
20
-1.497449
10
32.181426
20
-1.478207
10
32.133388
20
-1.457382
10
32.086057
20
-1.434996
10
32.039484
20
-1.411074
10
31.993719
20
-1.385641
10
31.948811
20
-1.358723
10
31.904807
20
-1.330351
10
31.861755
20
-1.300555
10
31.819701
20
-1.269365
10
31.778690
20
-1.236817
10
31.738766
20
-1.202944
10
31.699971
20
-1.167783
10
31.662348
20
-1.131371
10
31.625937
20
-1.093748
10
31.590775
20
-1.054953
10
31.556902
20
-1.015029
10
31.524354
20
-0.974018
10
31.493164
20
-0.931964
10
31.463368
20
-0.888912
10
31.434996
20
-0.844909
10
31.408078
20
-0.800000
10
31.382645
20
-0.754235
10
31.358723
20
-0.707662
10
31.336337
20
-0.660331
10
31.315512
20
-0.612293
10
31.296270
20
-0.563600
10
31.278631
20
-0.514303
10
31.274035
20
-0.500000
10
1.450145
20
-0.500000
10
1.445549
20
-0.514303
0
LWPOLYLINE
8
0
100
AcDbEntity
100
AcDbPolyline
90
5
70
1
10
1.445549
20
0.514303
10
1.450145
20
0.500000
10
1.600000
20
0.500000
10
1.430501
20
0.556360
10
1.445549
20
0.514303
0
LWPOLYLINE
8
0
100
AcDbEntity
100
AcDbPolyline
90
732
70
1
10
31.296270
20
0.563600
10
31.315512
20
0.612293
10
31.336337
20
0.660331
10
31.358723
20
0.707662
10
31.382645
20
0.754235
10
31.408078
20
0.800000
10
31.434996
20
0.844909
10
31.437392
20
0.848625
10
28.832725
20
3.751574
10
28.828123
20
3.756677
10
28.823494
20
3.761757
10
28.818840
20
3.766813
10
28.814160
20
3.771846
10
28.809455
20
3.776854
10
28.804724
20
3.781839
10
28.799968
20
3.786799
10
28.795186
20
3.791736
10
28.790380
20
3.796647
10
28.785549
20
3.801535
10
28.780692
20
3.806397
10
28.775812
20
3.811235
10
28.770906
20
3.816048
10
28.765976
20
3.820836
10
28.761022
20
3.825598
10
28.756044
20
3.830336
10
28.751041
20
3.835048
10
28.746015
20
3.839734
10
28.740965
20
3.844395
10
28.735891
20
3.849030
10
28.730794
20
3.853639
10
28.725673
20
3.858222
10
28.720529
20
3.862779
10
28.715362
20
3.867310
10
28.710172
20
3.871815
10
28.704959
20
3.876292
10
28.699723
20
3.880744
10
28.694465
20
3.885168
10
28.689184
20
3.889566
10
28.683881
20
3.893937
10
28.678556
20
3.898281
10
28.673208
20
3.902598
10
28.667839
20
3.906887
10
28.662448
20
3.911149
10
28.657036
20
3.915383
10
28.651601
20
3.919590
10
28.646146
20
3.923770
10
28.640669
20
3.927921
10
28.635172
20
3.932044
10
28.629653
20
3.936140
10
28.624114
20
3.940207
10
28.618554
20
3.944246
10
28.612973
20
3.948256
10
28.607372
20
3.952239
10
28.601751
20
3.956192
10
28.596110
20
3.960117
10
28.590449
20
3.964013
10
28.584768
20
3.967881
10
28.579068
20
3.971719
10
28.573348
20
3.975528
10
28.567609
20
3.979308
10
28.561851
20
3.983059
10
28.556073
20
3.986781
10
28.550277
20
3.990473
10
28.544462
20
3.994135
10
28.538629
20
3.997768
10
28.532777
20
4.001371
10
28.526907
20
4.004944
10
28.521018
20
4.008488
10
28.515112
20
4.012001
10
28.509188
20
4.015484
10
28.503246
20
4.018937
10
28.497287
20
4.022360
10
28.491311
20
4.025752
10
28.485317
20
4.029114
10
28.479306
20
4.032445
10
28.473278
20
4.035746
10
28.467234
20
4.039016
10
28.461173
20
4.042255
10
28.455096
20
4.045463
10
28.449002
20
4.048640
10
28.442892
20
4.051786
10
28.436767
20
4.054901
10
28.430625
20
4.057985
10
28.424468
20
4.061038
10
28.418296
20
4.064059
10
28.412108
20
4.067048
10
28.405905
20
4.070006
10
28.399687
20
4.072933
10
28.393454
20
4.075828
10
28.387207
20
4.078691
10
28.380945
20
4.081522
10
28.374669
20
4.084321
10
28.368378
20
4.087089
10
28.362074
20
4.089824
10
28.355756
20
4.092527
10
28.349424
20
4.095198
10
28.343078
20
4.097837
10
28.336719
20
4.100443
10
28.330347
20
4.103017
10
28.323962
20
4.105558
10
28.317565
20
4.108067
10
28.311154
20
4.110544
10
28.304731
20
4.112987
10
28.298296
20
4.115398
10
28.291848
20
4.117776
10
28.285388
20
4.120122
10
28.278917
20
4.122434
10
28.272434
20
4.124713
10
28.265939
20
4.126960
10
28.259433
20
4.129173
10
28.252916
20
4.131353
10
28.246388
20
4.133500
10
28.239848
20
4.135614
10
28.233299
20
4.137694
10
28.226738
20
4.139741
10
28.220168
20
4.141754
10
28.213587
20
4.143735
10
28.206996
20
4.145681
10
28.200396
20
4.147594
10
28.193786
20
4.149473
10
28.187166
20
4.151319
10
28.180537
20
4.153131
10
28.173899
20
4.154909
10
28.167252
20
4.156654
10
28.160596
20
4.158364
10
28.153931
20
4.160041
10
28.147258
20
4.161683
10
28.140577
20
4.163292
10
28.133887
20
4.164867
10
28.127190
20
4.166407
10
28.120485
20
4.167914
10
28.113773
20
4.169386
10
28.107052
20
4.170824
10
28.100325
20
4.172228
10
28.093591
20
4.173598
10
28.086850
20
4.174933
10
28.080102
20
4.176234
10
28.073347
20
4.177501
10
28.066586
20
4.178733
10
28.059819
20
4.179931
10
28.053046
20
4.181094
10
28.046268
20
4.182223
10
28.039483
20
4.183317
10
28.032693
20
4.184377
10
28.025898
20
4.185402
10
28.019097
20
4.186393
10
28.012292
20
4.187349
10
28.005482
20
4.188270
10
27.998667
20
4.189157
10
27.991848
20
4.190008
10
27.985024
20
4.190826
10
27.978197
20
4.191608
10
27.971366
20
4.192356
10
27.964530
20
4.193069
10
27.957692
20
4.193747
10
27.950850
20
4.194390
10
27.944005
20
4.194998
10
27.937156
20
4.195572
10
27.930305
20
4.196111
10
27.923452
20
4.196615
10
27.916595
20
4.197083
10
27.909737
20
4.197518
10
27.902876
20
4.197917
10
27.896014
20
4.198281
10
27.889149
20
4.198610
10
27.882284
20
4.198904
10
27.875416
20
4.199164
10
27.868548
20
4.199388
10
27.861678
20
4.199577
10
27.854808
20
4.199732
10
27.847937
20
4.199851
10
27.841065
20
4.199936
10
27.834193
20
4.199985
10
27.827321
20
4.200000
10
27.820448
20
4.199979
10
27.813577
20
4.199924
10
27.806705
20
4.199834
10
27.799834
20
4.199708
10
27.792964
20
4.199548
10
27.786094
20
4.199352
10
27.779226
20
4.199122
10
27.772359
20
4.198857
10
27.765493
20
4.198557
10
27.758629
20
4.198221
10
27.751767
20
4.197851
10
27.744907
20
4.197446
10
27.738048
20
4.197006
10
27.731193
20
4.196531
10
27.724339
20
4.196022
10
27.717489
20
4.195477
10
27.710641
20
4.194897
10
27.703796
20
4.194283
10
27.696955
20
4.193634
10
27.690117
20
4.192950
10
27.683282
20
4.192231
10
27.676452
20
4.191478
10
27.669625
20
4.190689
10
27.662802
20
4.189866
10
27.655984
20
4.189008
10
27.649170
20
4.188116
10
27.642360
20
4.187189
10
27.635556
20
4.186227
10
27.628756
20
4.185230
10
27.621962
20
4.184199
10
27.615173
20
4.183134
10
27.608389
20
4.182033
10
27.601611
20
4.180899
10
27.594839
20
4.179730
10
27.588073
20
4.178526
10
27.581314
20
4.177288
10
27.574560
20
4.176015
10
27.567813
20
4.174708
10
27.561073
20
4.173367
10
27.554340
20
4.171992
10
27.547614
20
4.170582
10
27.540895
20
4.169138
10
27.534184
20
4.167660
10
27.527480
20
4.166148
10
27.520784
20
4.164602
10
27.514096
20
4.163021
10
27.507416
20
4.161407
10
27.500745
20
4.159758
10
27.494082
20
4.158076
10
27.487427
20
4.156360
10
27.480782
20
4.154609
10
27.474145
20
4.152825
10
27.467518
20
4.151008
10
27.460900
20
4.149156
10
27.454291
20
4.147271
10
27.447692
20
4.145353
10
27.441103
20
4.143400
10
27.434524
20
4.141415
10
27.427955
20
4.139395
10
27.421397
20
4.137343
10
27.414849
20
4.135257
10
27.408311
20
4.133137
10
27.401785
20
4.130985
10
27.395270
20
4.128799
10
27.388766
20
4.126580
10
27.382273
20
4.124328
10
27.375792
20
4.122043
10
27.369322
20
4.119725
10
27.362865
20
4.117374
10
27.356419
20
4.114991
10
27.349986
20
4.112574
10
27.343565
20
4.110125
10
27.337156
20
4.107643
10
27.330761
20
4.105129
10
27.324378
20
4.102582
10
27.318008
20
4.100002
10
27.311652
20
4.097390
10
27.305309
20
4.094746
10
27.298979
20
4.092070
10
27.292663
20
4.089361
10
27.286361
20
4.086621
10
27.280073
20
4.083848
10
27.273799
20
4.081043
10
27.267540
20
4.078206
10
27.261295
20
4.075338
10
27.255065
20
4.072438
10
27.248849
20
4.069506
10
27.242649
20
4.066542
10
27.236464
20
4.063547
10
27.230294
20
4.060521
10
27.224139
20
4.057463
10
27.218000
20
4.054374
10
27.211878
20
4.051254
10
27.205771
20
4.048102
10
27.199680
20
4.044920
10
27.193605
20
4.041706
10
27.187547
20
4.038462
10
27.181505
20
4.035187
10
27.175480
20
4.031881
10
27.169473
20
4.028545
10
27.163482
20
4.025178
10
27.157508
20
4.021780
10
27.151552
20
4.018352
10
27.145613
20
4.014894
10
27.139692
20
4.011406
10
27.133789
20
4.007887
10
27.127904
20
4.004339
10
27.122037
20
4.000761
10
27.116188
20
3.997153
10
27.110357
20
3.993515
10
27.104546
20
3.989847
10
27.098753
20
3.986150
10
27.092978
20
3.982424
10
27.087223
20
3.978668
10
27.081487
20
3.974883
10
27.075771
20
3.971069
10
27.070074
20
3.967225
10
27.064396
20
3.963353
10
27.058739
20
3.959452
10
27.053101
20
3.955522
10
27.047484
20
3.951564
10
27.041886
20
3.947577
10
27.036309
20
3.943561
10
27.030753
20
3.939518
10
27.025217
20
3.935446
10
27.019702
20
3.931345
10
27.014208
20
3.927217
10
27.008735
20
3.923061
10
27.003283
20
3.918877
10
26.997852
20
3.914666
10
26.992443
20
3.910427
10
26.987056
20
3.906160
10
26.981691
20
3.901866
10
26.976347
20
3.897545
10
26.971026
20
3.893196
10
26.965726
20
3.888821
10
26.960449
20
3.884418
10
26.955195
20
3.879989
10
26.949963
20
3.875533
10
26.944754
20
3.871051
10
26.939568
20
3.866542
10
26.934404
20
3.862007
10
26.929264
20
3.857445
10
26.924148
20
3.852858
10
26.919054
20
3.848244
10
26.913985
20
3.843605
10
26.908938
20
3.838939
10
26.903916
20
3.834249
10
26.898918
20
3.829532
10
26.893944
20
3.824791
10
26.888993
20
3.820024
10
26.884068
20
3.815232
10
26.879166
20
3.810414
10
26.874290
20
3.805572
10
26.869438
20
3.800706
10
26.864611
20
3.795814
10
26.859808
20
3.790898
10
26.855031
20
3.785958
10
26.850279
20
3.780994
10
26.845553
20
3.776005
10
26.840852
20
3.770992
10
26.836176
20
3.765956
10
26.831526
20
3.760895
10
26.826902
20
3.755812
10
26.822304
20
3.750704
10
26.817732
20
3.745574
10
26.813187
20
3.740420
10
26.808667
20
3.735243
10
26.804174
20
3.730043
10
26.799707
20
3.724820
10
26.795267
20
3.719575
10
26.790854
20
3.714307
10
26.786468
20
3.709017
10
26.782109
20
3.703704
10
26.777776
20
3.698369
10
26.773471
20
3.693013
10
26.769194
20
3.687634
10
26.764943
20
3.682234
10
26.760721
20
3.676812
10
26.756526
20
3.671369
10
26.752358
20
3.665904
10
26.748219
20
3.660419
10
26.744107
20
3.654912
10
26.740024
20
3.649385
10
26.735969
20
3.643836
10
26.731942
20
3.638268
10
26.727944
20
3.632678
10
26.723974
20
3.627069
10
26.720032
20
3.621439
10
26.716120
20
3.615790
10
26.712236
20
3.610120
10
26.708381
20
3.604431
10
26.704555
20
3.598722
10
26.700758
20
3.592994
10
26.696990
20
3.587247
10
26.693252
20
3.581480
10
26.689543
20
3.575695
10
26.685864
20
3.569891
10
26.682214
20
3.564068
10
26.678594
20
3.558226
10
26.675004
20
3.552367
10
26.671443
20
3.546489
10
26.667913
20
3.540593
10
26.664412
20
3.534679
10
26.660942
20
3.528747
10
26.657502
20
3.522798
10
26.654092
20
3.516831
10
26.650713
20
3.510847
10
26.647364
20
3.504846
10
26.644046
20
3.498828
10
26.640758
20
3.492794
10
26.637502
20
3.486742
10
26.634276
20
3.480674
10
26.631081
20
3.474590
10
26.627917
20
3.468489
10
26.624784
20
3.462373
10
26.621682
20
3.456240
10
26.618612
20
3.450092
10
26.615573
20
3.443928
10
26.612565
20
3.437749
10
26.609589
20
3.431555
10
26.606644
20
3.425346
10
26.603731
20
3.419121
10
26.600850
20
3.412882
10
26.598000
20
3.406629
10
26.595183
20
3.400361
10
26.592397
20
3.394078
10
26.589644
20
3.387782
10
26.586922
20
3.381472
10
26.584233
20
3.375148
10
26.581576
20
3.368810
10
26.578951
20
3.362459
10
26.576358
20
3.356094
10
26.573798
20
3.349717
10
26.571271
20
3.343326
10
26.568776
20
3.336923
10
26.566313
20
3.330507
10
26.563884
20
3.324079
10
26.561487
20
3.317638
10
26.559122
20
3.311185
10
26.556791
20
3.304721
10
26.554493
20
3.298244
10
26.552228
20
3.291756
10
26.549995
20
3.285256
10
26.547796
20
3.278746
10
26.545630
20
3.272224
10
26.543498
20
3.265691
10
26.541398
20
3.259147
10
26.539332
20
3.252593
10
26.537299
20
3.246028
10
26.535300
20
3.239453
10
26.533334
20
3.232868
10
26.531402
20
3.226273
10
26.529504
20
3.219668
10
26.527639
20
3.213054
10
26.525807
20
3.206430
10
26.524010
20
3.199798
10
26.522246
20
3.193155
10
26.520516
20
3.186505
10
26.518820
20
3.179845
10
26.517158
20
3.173177
10
26.515530
20
3.166500
10
26.513936
20
3.159816
10
26.512376
20
3.153123
10
26.510850
20
3.146422
10
26.509358
20
3.139714
10
26.507900
20
3.132998
10
26.506477
20
3.126275
10
26.505087
20
3.119545
10
26.503732
20
3.112807
10
26.502412
20
3.106063
10
26.501125
20
3.099312
10
26.499873
20
3.092555
10
26.498656
20
3.085792
10
26.497473
20
3.079022
10
26.496324
20
3.072247
10
26.495210
20
3.065465
10
26.494131
20
3.058678
10
26.493086
20
3.051886
10
26.492075
20
3.045089
10
26.491099
20
3.038286
10
26.490158
20
3.031479
10
26.489252
20
3.024666
10
26.488380
20
3.017850
10
26.487543
20
3.011029
10
26.486740
20
3.004204
10
26.485973
20
2.997374
10
26.485240
20
2.990541
10
26.484542
20
2.983705
10
26.483879
20
2.976865
10
26.483250
20
2.970021
10
26.482657
20
2.963175
10
26.482098
20
2.956325
10
26.481574
20
2.949473
10
26.481085
20
2.942618
10
26.480631
20
2.935761
10
26.480212
20
2.928902
10
26.479828
20
2.922040
10
26.479479
20
2.915177
10
26.479165
20
2.908312
10
26.478885
20
2.901445
10
26.478641
20
2.894578
10
26.478431
20
2.887709
10
26.478257
20
2.880839
10
26.478117
20
2.873968
10
26.478013
20
2.867096
10
26.477943
20
2.860225
10
26.477909
20
2.853352
10
26.477909
20
2.846480
10
26.477945
20
2.839608
10
26.478015
20
2.832736
10
26.478120
20
2.825865
10
26.478261
20
2.818994
10
26.478436
20
2.812124
10
26.478646
20
2.805255
10
26.478892
20
2.798387
10
26.479172
20
2.791521
10
26.479487
20
2.784656
10
26.479837
20
2.777793
10
26.480222
20
2.770931
10
26.480642
20
2.764072
10
26.481097
20
2.757215
10
26.481587
20
2.750360
10
26.482111
20
2.743508
10
26.482671
20
2.736659
10
26.483265
20
2.729812
10
26.483895
20
2.722969
10
26.484559
20
2.716129
10
26.485258
20
2.709292
10
26.485991
20
2.702459
10
26.486760
20
2.695630
10
26.487563
20
2.688805
10
26.488401
20
2.681984
10
26.489273
20
2.675168
10
26.490181
20
2.668356
10
26.491123
20
2.661548
10
26.492099
20
2.654746
10
26.493111
20
2.647948
10
26.494156
20
2.641156
10
26.495237
20
2.634369
10
26.496352
20
2.627588
10
26.497501
20
2.620813
10
26.498685
20
2.614044
10
26.499903
20
2.607280
10
26.501156
20
2.600523
10
26.502443
20
2.593773
10
26.503765
20
2.587029
10
26.505121
20
2.580291
10
26.506511
20
2.573561
10
26.507935
20
2.566838
10
26.509394
20
2.560123
10
26.510886
20
2.553415
10
26.512413
20
2.546714
10
26.513974
20
2.540022
10
26.515569
20
2.533337
10
26.517198
20
2.526661
10
26.518861
20
2.519993
10
26.520558
20
2.513333
10
26.522289
20
2.506683
10
26.524053
20
2.500041
10
26.525852
20
2.493408
10
26.527684
20
2.486785
10
26.529549
20
2.480171
10
26.531449
20
2.473566
10
26.533382
20
2.466971
10
26.535348
20
2.460387
10
26.537349
20
2.453812
10
26.539382
20
2.447247
10
26.541449
20
2.440693
10
26.543549
20
2.434150
10
26.545683
20
2.427617
10
26.547850
20
2.421096
10
26.550049
20
2.414585
10
26.552282
20
2.408086
10
26.554549
20
2.401598
10
26.556848
20
2.395122
10
26.559180
20
2.388657
10
26.561545
20
2.382205
10
26.563942
20
2.375765
10
26.566373
20
2.369337
10
26.568836
20
2.362921
10
26.571332
20
2.356518
10
26.573860
20
2.350128
10
26.576421
20
2.343751
10
26.579014
20
2.337386
10
26.581640
20
2.331036
10
26.584298
20
2.324698
10
26.586988
20
2.318374
10
26.589710
20
2.312064
10
26.592465
20
2.305768
10
26.595251
20
2.299486
10
26.598069
20
2.293219
10
26.600920
20
2.286966
10
26.603802
20
2.280727
10
26.606715
20
2.274503
10
26.609661
20
2.268294
10
26.612638
20
2.262100
10
26.615646
20
2.255921
10
26.618686
20
2.249758
10
26.621757
20
2.243610
10
26.624860
20
2.237478
10
26.627993
20
2.231362
10
26.631158
20
2.225262
10
26.634354
20
2.219178
10
26.637580
20
2.213110
10
26.640838
20
2.207059
10
26.644126
20
2.201025
10
26.647445
20
2.195007
10
26.650795
20
2.189007
10
26.654175
20
2.183023
10
26.657585
20
2.177057
10
26.661026
20
2.171108
10
26.664497
20
2.165177
10
26.667998
20
2.159263
10
26.671529
20
2.153368
10
26.675091
20
2.147490
10
26.678682
20
2.141631
10
26.682303
20
2.135790
10
26.685953
20
2.129968
10
26.689633
20
2.124164
10
26.693343
20
2.118379
10
26.697082
20
2.112613
10
26.700850
20
2.106866
10
26.704648
20
2.101138
10
26.708474
20
2.095430
10
26.712330
20
2.089741
10
26.716214
20
2.084072
10
26.720128
20
2.078423
10
26.724070
20
2.072794
10
26.728041
20
2.067185
10
26.732040
20
2.061597
10
26.736067
20
2.056028
10
26.740123
20
2.050481
10
26.744207
20
2.044954
10
26.748319
20
2.039447
10
26.752459
20
2.033962
10
26.756627
20
2.028498
10
26.760823
20
2.023056
10
26.765047
20
2.017634
10
26.769297
20
2.012235
10
26.773576
20
2.006857
10
26.777881
20
2.001501
10
26.782214
20
1.996166
10
26.786574
20
1.990854
10
26.790961
20
1.985565
10
26.795375
20
1.980297
10
26.799816
20
1.975052
10
26.804283
20
1.969830
10
26.808777
20
1.964631
10
26.813297
20
1.959455
10
26.817843
20
1.954301
10
26.822416
20
1.949171
10
26.827015
20
1.944064
10
26.831639
20
1.938981
10
26.836290
20
1.933921
10
26.840966
20
1.928885
10
26.845668
20
1.923873
10
26.850395
20
1.918885
10
26.855147
20
1.913921
10
26.859925
20
1.908982
10
26.864728
20
1.904066
10
26.869556
20
1.899176
10
26.874408
20
1.894309
10
26.879286
20
1.889468
10
26.884187
20
1.884651
10
26.889114
20
1.879860
10
26.894064
20
1.875094
10
26.899039
20
1.870353
10
26.904038
20
1.865637
10
26.909061
20
1.860947
10
26.914108
20
1.856282
10
26.919178
20
1.851643
10
26.924272
20
1.847030
10
26.929389
20
1.842443
10
26.934530
20
1.837883
10
26.939694
20
1.833348
10
26.944880
20
1.828840
10
26.950090
20
1.824358
10
26.955323
20
1.819903
10
26.960578
20
1.815474
10
26.965855
20
1.811072
10
26.971155
20
1.806698
10
26.976477
20
1.802350
10
26.981821
20
1.798029
10
26.987187
20
1.793736
10
26.992575
20
1.789470
10
26.997984
20
1.785231
10
27.003415
20
1.781020
10
27.008868
20
1.776837
10
27.014341
20
1.772682
10
27.019836
20
1.768554
10
27.025351
20
1.764455
10
27.030888
20
1.760384
10
27.036445
20
1.756341
10
27.042022
20
1.752326
10
27.047620
20
1.748339
10
27.053238
20
1.744382
10
27.058876
20
1.740453
10
27.064534
20
1.736552
10
27.070212
20
1.732681
10
27.075910
20
1.728838
10
27.081627
20
1.725025
10
27.087363
20
1.721240
10
27.093119
20
1.717485
10
27.098893
20
1.713759
10
27.104687
20
1.710063
10
27.110499
20
1.706396
10
27.116330
20
1.702759
10
27.122179
20
1.699152
10
27.128047
20
1.695574
10
27.133932
20
1.692027
10
27.139836
20
1.688509
10
27.145758
20
1.685021
10
27.151697
20
1.681564
10
27.157653
20
1.678137
10
27.163627
20
1.674740
10
27.169619
20
1.671374
10
27.175627
20
1.668038
10
27.181652
20
1.664733
10
27.187694
20
1.661459
10
27.193753
20
1.658215
10
27.199828
20
1.655002
10
27.205919
20
1.651821
10
27.212026
20
1.648670
10
27.218150
20
1.645550
10
27.224289
20
1.642462
10
27.230444
20
1.639405
10
27.236614
20
1.636379
10
27.242800
20
1.633385
10
27.249000
20
1.630422
10
27.255216
20
1.627491
10
27.261447
20
1.624592
10
27.267692
20
1.621724
10
27.273952
20
1.618888
10
27.280226
20
1.616084
10
27.286514
20
1.613312
10
27.292817
20
1.610572
10
27.299133
20
1.607865
10
27.305463
20
1.605189
10
27.311806
20
1.602546
10
27.318163
20
1.599935
10
27.324533
20
1.597356
10
27.330916
20
1.594810
10
27.337312
20
1.592296
10
27.343721
20
1.589815
10
27.350142
20
1.587367
10
27.356576
20
1.584951
10
27.363022
20
1.582568
10
27.369480
20
1.580218
10
27.375949
20
1.577901
10
27.382431
20
1.575617
10
27.388924
20
1.573365
10
27.395428
20
1.571147
10
27.401944
20
1.568962
10
30.616749
20
0.500000
10
31.274035
20
0.500000
10
31.278631
20
0.514303
10
31.296270
20
0.563600
0
LWPOLYLINE
8
0
100
AcDbEntity
100
AcDbPolyline
90
723
70
1
10
5.902752
20
0.500000
10
2.985282
20
3.751574
10
2.980679
20
3.756677
10
2.976051
20
3.761757
10
2.971397
20
3.766813
10
2.966717
20
3.771846
10
2.962011
20
3.776854
10
2.957281
20
3.781839
10
2.952524
20
3.786799
10
2.947743
20
3.791736
10
2.942937
20
3.796647
10
2.938105
20
3.801535
10
2.933249
20
3.806397
10
2.928368
20
3.811235
10
2.923463
20
3.816048
10
2.918533
20
3.820836
10
2.913579
20
3.825598
10
2.908600
20
3.830336
10
2.903598
20
3.835048
10
2.898571
20
3.839734
10
2.893521
20
3.844395
10
2.888448
20
3.849030
10
2.883350
20
3.853639
10
2.878229
20
3.858222
10
2.873085
20
3.862779
10
2.867918
20
3.867310
10
2.862728
20
3.871815
10
2.857515
20
3.876292
10
2.852280
20
3.880744
10
2.847021
20
3.885168
10
2.841741
20
3.889566
10
2.836437
20
3.893937
10
2.831112
20
3.898281
10
2.825765
20
3.902598
10
2.820396
20
3.906887
10
2.815005
20
3.911149
10
2.809592
20
3.915383
10
2.804158
20
3.919590
10
2.798703
20
3.923770
10
2.793226
20
3.927921
10
2.787728
20
3.932044
10
2.782210
20
3.936140
10
2.776670
20
3.940207
10
2.771110
20
3.944246
10
2.765530
20
3.948256
10
2.759929
20
3.952239
10
2.754308
20
3.956192
10
2.748667
20
3.960117
10
2.743006
20
3.964013
10
2.737325
20
3.967881
10
2.731625
20
3.971719
10
2.725905
20
3.975528
10
2.720166
20
3.979308
10
2.714407
20
3.983059
10
2.708630
20
3.986781
10
2.702834
20
3.990473
10
2.697019
20
3.994135
10
2.691185
20
3.997768
10
2.685333
20
4.001371
10
2.679463
20
4.004944
10
2.673575
20
4.008488
10
2.667669
20
4.012001
10
2.661745
20
4.015484
10
2.655803
20
4.018937
10
2.649844
20
4.022360
10
2.643867
20
4.025752
10
2.637873
20
4.029114
10
2.631863
20
4.032445
10
2.625835
20
4.035746
10
2.619791
20
4.039016
10
2.613730
20
4.042255
10
2.607652
20
4.045463
10
2.601559
20
4.048640
10
2.595449
20
4.051786
10
2.589323
20
4.054901
10
2.583182
20
4.057985
10
2.577025
20
4.061038
10
2.570852
20
4.064059
10
2.564664
20
4.067048
10
2.558461
20
4.070006
10
2.552243
20
4.072933
10
2.546011
20
4.075828
10
2.539763
20
4.078691
10
2.533501
20
4.081522
10
2.527225
20
4.084321
10
2.520935
20
4.087089
10
2.514630
20
4.089824
10
2.508312
20
4.092527
10
2.501980
20
4.095198
10
2.495635
20
4.097837
10
2.489276
20
4.100443
10
2.482904
20
4.103017
10
2.476519
20
4.105558
10
2.470121
20
4.108067
10
2.463711
20
4.110544
10
2.457288
20
4.112987
10
2.450852
20
4.115398
10
2.444405
20
4.117776
10
2.437945
20
4.120122
10
2.431473
20
4.122434
10
2.424990
20
4.124713
10
2.418496
20
4.126960
10
2.411990
20
4.129173
10
2.405472
20
4.131353
10
2.398944
20
4.133500
10
2.392405
20
4.135614
10
2.385855
20
4.137694
10
2.379295
20
4.139741
10
2.372724
20
4.141754
10
2.366144
20
4.143735
10
2.359553
20
4.145681
10
2.352952
20
4.147594
10
2.346342
20
4.149473
10
2.339722
20
4.151319
10
2.333093
20
4.153131
10
2.326455
20
4.154909
10
2.319808
20
4.156654
10
2.313152
20
4.158364
10
2.306488
20
4.160041
10
2.299815
20
4.161683
10
2.293133
20
4.163292
10
2.286444
20
4.164867
10
2.279747
20
4.166407
10
2.273042
20
4.167914
10
2.266329
20
4.169386
10
2.259609
20
4.170824
10
2.252882
20
4.172228
10
2.246147
20
4.173598
10
2.239406
20
4.174933
10
2.232658
20
4.176234
10
2.225904
20
4.177501
10
2.219143
20
4.178733
10
2.212376
20
4.179931
10
2.205603
20
4.181094
10
2.198824
20
4.182223
10
2.192040
20
4.183317
10
2.185250
20
4.184377
10
2.178454
20
4.185402
10
2.171654
20
4.186393
10
2.164849
20
4.187349
10
2.158038
20
4.188270
10
2.151224
20
4.189157
10
2.144404
20
4.190008
10
2.137581
20
4.190826
10
2.130754
20
4.191608
10
2.123922
20
4.192356
10
2.117087
20
4.193069
10
2.110248
20
4.193747
10
2.103406
20
4.194390
10
2.096561
20
4.194998
10
2.089713
20
4.195572
10
2.082862
20
4.196111
10
2.076008
20
4.196615
10
2.069152
20
4.197083
10
2.062293
20
4.197518
10
2.055433
20
4.197917
10
2.048570
20
4.198281
10
2.041706
20
4.198610
10
2.034840
20
4.198904
10
2.027973
20
4.199164
10
2.021104
20
4.199388
10
2.014235
20
4.199577
10
2.007364
20
4.199732
10
2.000493
20
4.199851
10
1.993621
20
4.199936
10
1.986749
20
4.199985
10
1.979877
20
4.200000
10
1.973005
20
4.199979
10
1.966133
20
4.199924
10
1.959262
20
4.199834
10
1.952390
20
4.199708
10
1.945520
20
4.199548
10
1.938651
20
4.199352
10
1.931782
20
4.199122
10
1.924915
20
4.198857
10
1.918050
20
4.198557
10
1.911186
20
4.198221
10
1.904323
20
4.197851
10
1.897463
20
4.197446
10
1.890605
20
4.197006
10
1.883749
20
4.196531
10
1.876896
20
4.196022
10
1.870045
20
4.195477
10
1.863198
20
4.194897
10
1.856353
20
4.194283
10
1.849512
20
4.193634
10
1.842674
20
4.192950
10
1.835839
20
4.192231
10
1.829008
20
4.191478
10
1.822181
20
4.190689
10
1.815359
20
4.189866
10
1.808540
20
4.189008
10
1.801726
20
4.188116
10
1.794917
20
4.187189
10
1.788112
20
4.186227
10
1.781313
20
4.185230
10
1.774518
20
4.184199
10
1.767729
20
4.183134
10
1.760946
20
4.182033
10
1.754168
20
4.180899
10
1.747396
20
4.179730
10
1.740630
20
4.178526
10
1.733870
20
4.177288
10
1.727117
20
4.176015
10
1.720370
20
4.174708
10
1.713630
20
4.173367
10
1.706897
20
4.171992
10
1.700171
20
4.170582
10
1.693452
20
4.169138
10
1.686741
20
4.167660
10
1.680037
20
4.166148
10
1.673341
20
4.164602
10
1.666653
20
4.163021
10
1.659973
20
4.161407
10
1.653301
20
4.159758
10
1.646638
20
4.158076
10
1.639984
20
4.156360
10
1.633338
20
4.154609
10
1.626702
20
4.152825
10
1.620074
20
4.151008
10
1.613456
20
4.149156
10
1.606848
20
4.147271
10
1.600249
20
4.145353
10
1.593660
20
4.143400
10
1.587081
20
4.141415
10
1.580512
20
4.139395
10
1.573953
20
4.137343
10
1.567405
20
4.135257
10
1.560868
20
4.133137
10
1.554342
20
4.130985
10
1.547826
20
4.128799
10
1.541322
20
4.126580
10
1.534829
20
4.124328
10
1.528348
20
4.122043
10
1.521879
20
4.119725
10
1.515421
20
4.117374
10
1.508976
20
4.114991
10
1.502542
20
4.112574
10
1.496121
20
4.110125
10
1.489713
20
4.107643
10
1.483317
20
4.105129
10
1.476935
20
4.102582
10
1.470565
20
4.100002
10
1.464208
20
4.097390
10
1.457865
20
4.094746
10
1.451536
20
4.092070
10
1.445220
20
4.089361
10
1.438918
20
4.086621
10
1.432630
20
4.083848
10
1.426356
20
4.081043
10
1.420096
20
4.078206
10
1.413851
20
4.075338
10
1.407621
20
4.072438
10
1.401406
20
4.069506
10
1.395205
20
4.066542
10
1.389020
20
4.063547
10
1.382850
20
4.060521
10
1.376696
20
4.057463
10
1.370557
20
4.054374
10
1.364434
20
4.051254
10
1.358327
20
4.048102
10
1.352236
20
4.044920
10
1.346162
20
4.041706
10
1.340103
20
4.038462
10
1.334062
20
4.035187
10
1.328037
20
4.031881
10
1.322029
20
4.028545
10
1.316038
20
4.025178
10
1.310065
20
4.021780
10
1.304108
20
4.018352
10
1.298170
20
4.014894
10
1.292249
20
4.011406
10
1.286345
20
4.007887
10
1.280460
20
4.004339
10
1.274593
20
4.000761
10
1.268744
20
3.997153
10
1.262914
20
3.993515
10
1.257102
20
3.989847
10
1.251309
20
3.986150
10
1.245535
20
3.982424
10
1.239780
20
3.978668
10
1.234044
20
3.974883
10
1.228328
20
3.971069
10
1.222631
20
3.967225
10
1.216953
20
3.963353
10
1.211295
20
3.959452
10
1.205658
20
3.955522
10
1.200040
20
3.951564
10
1.194443
20
3.947577
10
1.188866
20
3.943561
10
1.183309
20
3.939518
10
1.177773
20
3.935446
10
1.172258
20
3.931345
10
1.166764
20
3.927217
10
1.161291
20
3.923061
10
1.155839
20
3.918877
10
1.150409
20
3.914666
10
1.145000
20
3.910427
10
1.139613
20
3.906160
10
1.134247
20
3.901866
10
1.128904
20
3.897545
10
1.123582
20
3.893196
10
1.118283
20
3.888821
10
1.113006
20
3.884418
10
1.107751
20
3.879989
10
1.102520
20
3.875533
10
1.097311
20
3.871051
10
1.092124
20
3.866542
10
1.086961
20
3.862007
10
1.081821
20
3.857445
10
1.076704
20
3.852858
10
1.071611
20
3.848244
10
1.066541
20
3.843605
10
1.061495
20
3.838939
10
1.056473
20
3.834249
10
1.051474
20
3.829532
10
1.046500
20
3.824791
10
1.041550
20
3.820024
10
1.036624
20
3.815232
10
1.031723
20
3.810414
10
1.026846
20
3.805572
10
1.021994
20
3.800706
10
1.017167
20
3.795814
10
1.012365
20
3.790898
10
1.007588
20
3.785958
10
1.002836
20
3.780994
10
0.998110
20
3.776005
10
0.993408
20
3.770992
10
0.988733
20
3.765956
10
0.984083
20
3.760895
10
0.979459
20
3.755812
10
0.974861
20
3.750704
10
0.970289
20
3.745574
10
0.965743
20
3.740420
10
0.961224
20
3.735243
10
0.956731
20
3.730043
10
0.952264
20
3.724820
10
0.947824
20
3.719575
10
0.943411
20
3.714307
10
0.939024
20
3.709017
10
0.934665
20
3.703704
10
0.930333
20
3.698369
10
0.926028
20
3.693013
10
0.921750
20
3.687634
10
0.917500
20
3.682234
10
0.913277
20
3.676812
10
0.909082
20
3.671369
10
0.904915
20
3.665904
10
0.900775
20
3.660419
10
0.896664
20
3.654912
10
0.892581
20
3.649385
10
0.888525
20
3.643836
10
0.884499
20
3.638268
10
0.880500
20
3.632678
10
0.876530
20
3.627069
10
0.872589
20
3.621439
10
0.868676
20
3.615790
10
0.864792
20
3.610120
10
0.860937
20
3.604431
10
0.857111
20
3.598722
10
0.853315
20
3.592994
10
0.849547
20
3.587247
10
0.845809
20
3.581480
10
0.842100
20
3.575695
10
0.838420
20
3.569891
10
0.834771
20
3.564068
10
0.831150
20
3.558226
10
0.827560
20
3.552367
10
0.824000
20
3.546489
10
0.820469
20
3.540593
10
0.816969
20
3.534679
10
0.813498
20
3.528747
10
0.810058
20
3.522798
10
0.806649
20
3.516831
10
0.803269
20
3.510847
10
0.799921
20
3.504846
10
0.796602
20
3.498828
10
0.793315
20
3.492794
10
0.790058
20
3.486742
10
0.786832
20
3.480674
10
0.783637
20
3.474590
10
0.780473
20
3.468489
10
0.777340
20
3.462373
10
0.774239
20
3.456240
10
0.771168
20
3.450092
10
0.768129
20
3.443928
10
0.765122
20
3.437749
10
0.762145
20
3.431555
10
0.759201
20
3.425346
10
0.756288
20
3.419121
10
0.753406
20
3.412882
10
0.750557
20
3.406629
10
0.747739
20
3.400361
10
0.744954
20
3.394078
10
0.742200
20
3.387782
10
0.739479
20
3.381472
10
0.736789
20
3.375148
10
0.734132
20
3.368810
10
0.731507
20
3.362459
10
0.728915
20
3.356094
10
0.726355
20
3.349717
10
0.723827
20
3.343326
10
0.721332
20
3.336923
10
0.718870
20
3.330507
10
0.716440
20
3.324079
10
0.714043
20
3.317638
10
0.711679
20
3.311185
10
0.709348
20
3.304721
10
0.707050
20
3.298244
10
0.704784
20
3.291756
10
0.702552
20
3.285256
10
0.700353
20
3.278746
10
0.698187
20
3.272224
10
0.696054
20
3.265691
10
0.693955
20
3.259147
10
0.691889
20
3.252593
10
0.689856
20
3.246028
10
0.687857
20
3.239453
10
0.685891
20
3.232868
10
0.683959
20
3.226273
10
0.682060
20
3.219668
10
0.680195
20
3.213054
10
0.678364
20
3.206430
10
0.676566
20
3.199798
10
0.674803
20
3.193155
10
0.673073
20
3.186505
10
0.671377
20
3.179845
10
0.669715
20
3.173177
10
0.668086
20
3.166500
10
0.666492
20
3.159816
10
0.664932
20
3.153123
10
0.663406
20
3.146422
10
0.661914
20
3.139714
10
0.660457
20
3.132998
10
0.659033
20
3.126275
10
0.657644
20
3.119545
10
0.656289
20
3.112807
10
0.654968
20
3.106063
10
0.653682
20
3.099312
10
0.652430
20
3.092555
10
0.651212
20
3.085792
10
0.650029
20
3.079022
10
0.648881
20
3.072247
10
0.647767
20
3.065465
10
0.646687
20
3.058678
10
0.645642
20
3.051886
10
0.644632
20
3.045089
10
0.643656
20
3.038286
10
0.642715
20
3.031479
10
0.641808
20
3.024666
10
0.640937
20
3.017850
10
0.640099
20
3.011029
10
0.639297
20
3.004204
10
0.638530
20
2.997374
10
0.637797
20
2.990541
10
0.637099
20
2.983705
10
0.636435
20
2.976865
10
0.635807
20
2.970021
10
0.635214
20
2.963175
10
0.634655
20
2.956325
10
0.634131
20
2.949473
10
0.633642
20
2.942618
10
0.633188
20
2.935761
10
0.632769
20
2.928902
10
0.632385
20
2.922040
10
0.632036
20
2.915177
10
0.631721
20
2.908312
10
0.631442
20
2.901445
10
0.631197
20
2.894578
10
0.630988
20
2.887709
10
0.630814
20
2.880839
10
0.630674
20
2.873968
10
0.630570
20
2.867096
10
0.630500
20
2.860225
10
0.630465
20
2.853352
10
0.630466
20
2.846480
10
0.630501
20
2.839608
10
0.630572
20
2.832736
10
0.630677
20
2.825865
10
0.630817
20
2.818994
10
0.630993
20
2.812124
10
0.631203
20
2.805255
10
0.631448
20
2.798387
10
0.631728
20
2.791521
10
0.632044
20
2.784656
10
0.632394
20
2.777793
10
0.632779
20
2.770931
10
0.633199
20
2.764072
10
0.633654
20
2.757215
10
0.634143
20
2.750360
10
0.634668
20
2.743508
10
0.635228
20
2.736659
10
0.635822
20
2.729812
10
0.636451
20
2.722969
10
0.637115
20
2.716129
10
0.637814
20
2.709292
10
0.638548
20
2.702459
10
0.639316
20
2.695630
10
0.640119
20
2.688805
10
0.640957
20
2.681984
10
0.641830
20
2.675168
10
0.642737
20
2.668356
10
0.643679
20
2.661548
10
0.644656
20
2.654746
10
0.645667
20
2.647948
10
0.646713
20
2.641156
10
0.647793
20
2.634369
10
0.648908
20
2.627588
10
0.650058
20
2.620813
10
0.651242
20
2.614044
10
0.652460
20
2.607280
10
0.653713
20
2.600523
10
0.655000
20
2.593773
10
0.656322
20
2.587029
10
0.657677
20
2.580291
10
0.659067
20
2.573561
10
0.660492
20
2.566838
10
0.661950
20
2.560123
10
0.663443
20
2.553415
10
0.664970
20
2.546714
10
0.666531
20
2.540022
10
0.668126
20
2.533337
10
0.669755
20
2.526661
10
0.671418
20
2.519993
10
0.673114
20
2.513333
10
0.674845
20
2.506683
10
0.676610
20
2.500041
10
0.678408
20
2.493408
10
0.680240
20
2.486785
10
0.682106
20
2.480171
10
0.684005
20
2.473566
10
0.685939
20
2.466971
10
0.687905
20
2.460387
10
0.689905
20
2.453812
10
0.691939
20
2.447247
10
0.694006
20
2.440693
10
0.696106
20
2.434150
10
0.698239
20
2.427617
10
0.700406
20
2.421096
10
0.702606
20
2.414585
10
0.704839
20
2.408086
10
0.707105
20
2.401598
10
0.709404
20
2.395122
10
0.711736
20
2.388657
10
0.714101
20
2.382205
10
0.716499
20
2.375765
10
0.718929
20
2.369337
10
0.721393
20
2.362921
10
0.723888
20
2.356518
10
0.726417
20
2.350128
10
0.728978
20
2.343751
10
0.731571
20
2.337386
10
0.734196
20
2.331036
10
0.736854
20
2.324698
10
0.739545
20
2.318374
10
0.742267
20
2.312064
10
0.745021
20
2.305768
10
0.747808
20
2.299486
10
0.750626
20
2.293219
10
0.753476
20
2.286966
10
0.756358
20
2.280727
10
0.759272
20
2.274503
10
0.762217
20
2.268294
10
0.765194
20
2.262100
10
0.768203
20
2.255921
10
0.771243
20
2.249758
10
0.774314
20
2.243610
10
0.777416
20
2.237478
10
0.780550
20
2.231362
10
0.783715
20
2.225262
10
0.786910
20
2.219178
10
0.790137
20
2.213110
10
0.793395
20
2.207059
10
0.796683
20
2.201025
10
0.800002
20
2.195007
10
0.803351
20
2.189007
10
0.806731
20
2.183023
10
0.810142
20
2.177057
10
0.813583
20
2.171108
10
0.817054
20
2.165177
10
0.820555
20
2.159263
10
0.824086
20
2.153368
10
0.827647
20
2.147490
10
0.831238
20
2.141631
10
0.834859
20
2.135790
10
0.838510
20
2.129968
10
0.842190
20
2.124164
10
0.845899
20
2.118379
10
0.849638
20
2.112613
10
0.853407
20
2.106866
10
0.857204
20
2.101138
10
0.861031
20
2.095430
10
0.864887
20
2.089741
10
0.868771
20
2.084072
10
0.872684
20
2.078423
10
0.876626
20
2.072794
10
0.880597
20
2.067185
10
0.884596
20
2.061597
10
0.888624
20
2.056028
10
0.892680
20
2.050481
10
0.896764
20
2.044954
10
0.900876
20
2.039447
10
0.905016
20
2.033962
10
0.909184
20
2.028498
10
0.913380
20
2.023056
10
0.917603
20
2.017634
10
0.921854
20
2.012235
10
0.926132
20
2.006857
10
0.930438
20
2.001501
10
0.934771
20
1.996166
10
0.939131
20
1.990854
10
0.943518
20
1.985565
10
0.947932
20
1.980297
10
0.952372
20
1.975052
10
0.956840
20
1.969830
10
0.961333
20
1.964631
10
0.965854
20
1.959455
10
0.970400
20
1.954301
10
0.974973
20
1.949171
10
0.979571
20
1.944064
10
0.984196
20
1.938981
10
0.988846
20
1.933921
10
0.993523
20
1.928885
10
0.998224
20
1.923873
10
1.002951
20
1.918885
10
1.007704
20
1.913921
10
1.012482
20
1.908982
10
1.017284
20
1.904066
10
1.022112
20
1.899176
10
1.026965
20
1.894309
10
1.031842
20
1.889468
10
1.036744
20
1.884651
10
1.041670
20
1.879860
10
1.046621
20
1.875094
10
1.051596
20
1.870353
10
1.056595
20
1.865637
10
1.061618
20
1.860947
10
1.066664
20
1.856282
10
1.071735
20
1.851643
10
1.076829
20
1.847030
10
1.081946
20
1.842443
10
1.087087
20
1.837883
10
1.092250
20
1.833348
10
1.097437
20
1.828840
10
1.102647
20
1.824358
10
1.107879
20
1.819903
10
1.113134
20
1.815474
10
1.118412
20
1.811072
10
1.123711
20
1.806698
10
1.129033
20
1.802350
10
1.134378
20
1.798029
10
1.139744
20
1.793736
10
1.145131
20
1.789470
10
1.150541
20
1.785231
10
1.155972
20
1.781020
10
1.161424
20
1.776837
10
1.166898
20
1.772682
10
1.172392
20
1.768554
10
1.177908
20
1.764455
10
1.183444
20
1.760384
10
1.189001
20
1.756341
10
1.194579
20
1.752326
10
1.200177
20
1.748339
10
1.205795
20
1.744382
10
1.211433
20
1.740453
10
1.217091
20
1.736552
10
1.222769
20
1.732681
10
1.228467
20
1.728838
10
1.234184
20
1.725025
10
1.239920
20
1.721240
10
1.245675
20
1.717485
10
1.251450
20
1.713759
10
1.257244
20
1.710063
10
1.263056
20
1.706396
10
1.268887
20
1.702759
10
1.274736
20
1.699152
10
1.280603
20
1.695574
10
1.286489
20
1.692027
10
1.292393
20
1.688509
10
1.298314
20
1.685021
10
1.304253
20
1.681564
10
1.310210
20
1.678137
10
1.316184
20
1.674740
10
1.322175
20
1.671374
10
1.328184
20
1.668038
10
1.334209
20
1.664733
10
1.340251
20
1.661459
10
1.346309
20
1.658215
10
1.352384
20
1.655002
10
1.358476
20
1.651821
10
1.364583
20
1.648670
10
1.370706
20
1.645550
10
1.376846
20
1.642462
10
1.383000
20
1.639405
10
1.389171
20
1.636379
10
1.395356
20
1.633385
10
1.401557
20
1.630422
10
1.407773
20
1.627491
10
1.414003
20
1.624592
10
1.420249
20
1.621724
10
1.426508
20
1.618888
10
1.432783
20
1.616084
10
1.439071
20
1.613312
10
1.445373
20
1.610572
10
1.451689
20
1.607865
10
1.458019
20
1.605189
10
1.464363
20
1.602546
10
1.470720
20
1.599935
10
1.477090
20
1.597356
10
1.483473
20
1.594810
10
1.489869
20
1.592296
10
1.496278
20
1.589815
10
1.502699
20
1.587367
10
1.509132
20
1.584951
10
1.515578
20
1.582568
10
1.522036
20
1.580218
10
1.528506
20
1.577901
10
1.534987
20
1.575617
10
1.541480
20
1.573365
10
1.547985
20
1.571147
10
1.554500
20
1.568962
10
4.769306
20
0.500000
10
5.902752
20
0.500000
0
LWPOLYLINE
8
0
100
AcDbEntity
100
AcDbPolyline
90
723
70
1
10
14.518567
20
0.500000
10
11.601096
20
3.751574
10
11.596494
20
3.756677
10
11.591865
20
3.761757
10
11.587211
20
3.766813
10
11.582531
20
3.771846
10
11.577826
20
3.776854
10
11.573095
20
3.781839
10
11.568339
20
3.786799
10
11.563557
20
3.791736
10
11.558751
20
3.796647
10
11.553920
20
3.801535
10
11.549063
20
3.806397
10
11.544183
20
3.811235
10
11.539277
20
3.816048
10
11.534347
20
3.820836
10
11.529393
20
3.825598
10
11.524415
20
3.830336
10
11.519412
20
3.835048
10
11.514386
20
3.839734
10
11.509336
20
3.844395
10
11.504262
20
3.849030
10
11.499165
20
3.853639
10
11.494044
20
3.858222
10
11.488900
20
3.862779
10
11.483733
20
3.867310
10
11.478543
20
3.871815
10
11.473330
20
3.876292
10
11.468094
20
3.880744
10
11.462836
20
3.885168
10
11.457555
20
3.889566
10
11.452252
20
3.893937
10
11.446927
20
3.898281
10
11.441579
20
3.902598
10
11.436210
20
3.906887
10
11.430819
20
3.911149
10
11.425407
20
3.915383
10
11.419973
20
3.919590
10
11.414517
20
3.923770
10
11.409041
20
3.927921
10
11.403543
20
3.932044
10
11.398024
20
3.936140
10
11.392485
20
3.940207
10
11.386925
20
3.944246
10
11.381344
20
3.948256
10
11.375743
20
3.952239
10
11.370122
20
3.956192
10
11.364481
20
3.960117
10
11.358820
20
3.964013
10
11.353140
20
3.967881
10
11.347439
20
3.971719
10
11.341719
20
3.975528
10
11.335980
20
3.979308
10
11.330222
20
3.983059
10
11.324445
20
3.986781
10
11.318648
20
3.990473
10
11.312833
20
3.994135
10
11.307000
20
3.997768
10
11.301148
20
4.001371
10
11.295278
20
4.004944
10
11.289389
20
4.008488
10
11.283483
20
4.012001
10
11.277559
20
4.015484
10
11.271617
20
4.018937
10
11.265658
20
4.022360
10
11.259682
20
4.025752
10
11.253688
20
4.029114
10
11.247677
20
4.032445
10
11.241649
20
4.035746
10
11.235605
20
4.039016
10
11.229544
20
4.042255
10
11.223467
20
4.045463
10
11.217373
20
4.048640
10
11.211263
20
4.051786
10
11.205138
20
4.054901
10
11.198996
20
4.057985
10
11.192839
20
4.061038
10
11.186667
20
4.064059
10
11.180479
20
4.067048
10
11.174276
20
4.070006
10
11.168058
20
4.072933
10
11.161825
20
4.075828
10
11.155578
20
4.078691
10
11.149316
20
4.081522
10
11.143040
20
4.084321
10
11.136749
20
4.087089
10
11.130445
20
4.089824
10
11.124127
20
4.092527
10
11.117795
20
4.095198
10
11.111449
20
4.097837
10
11.105090
20
4.100443
10
11.098719
20
4.103017
10
11.092334
20
4.105558
10
11.085936
20
4.108067
10
11.079525
20
4.110544
10
11.073102
20
4.112987
10
11.066667
20
4.115398
10
11.060219
20
4.117776
10
11.053759
20
4.120122
10
11.047288
20
4.122434
10
11.040805
20
4.124713
10
11.034310
20
4.126960
10
11.027804
20
4.129173
10
11.021287
20
4.131353
10
11.014759
20
4.133500
10
11.008220
20
4.135614
10
11.001670
20
4.137694
10
10.995110
20
4.139741
10
10.988539
20
4.141754
10
10.981958
20
4.143735
10
10.975367
20
4.145681
10
10.968767
20
4.147594
10
10.962157
20
4.149473
10
10.955537
20
4.151319
10
10.948908
20
4.153131
10
10.942270
20
4.154909
10
10.935623
20
4.156654
10
10.928967
20
4.158364
10
10.922302
20
4.160041
10
10.915629
20
4.161683
10
10.908948
20
4.163292
10
10.902259
20
4.164867
10
10.895561
20
4.166407
10
10.888856
20
4.167914
10
10.882144
20
4.169386
10
10.875424
20
4.170824
10
10.868696
20
4.172228
10
10.861962
20
4.173598
10
10.855221
20
4.174933
10
10.848473
20
4.176234
10
10.841718
20
4.177501
10
10.834958
20
4.178733
10
10.828191
20
4.179931
10
10.821418
20
4.181094
10
10.814639
20
4.182223
10
10.807854
20
4.183317
10
10.801064
20
4.184377
10
10.794269
20
4.185402
10
10.787468
20
4.186393
10
10.780663
20
4.187349
10
10.773853
20
4.188270
10
10.767038
20
4.189157
10
10.760219
20
4.190008
10
10.753396
20
4.190826
10
10.746568
20
4.191608
10
10.739737
20
4.192356
10
10.732901
20
4.193069
10
10.726063
20
4.193747
10
10.719221
20
4.194390
10
10.712376
20
4.194998
10
10.705527
20
4.195572
10
10.698676
20
4.196111
10
10.691823
20
4.196615
10
10.684966
20
4.197083
10
10.678108
20
4.197518
10
10.671247
20
4.197917
10
10.664385
20
4.198281
10
10.657521
20
4.198610
10
10.650655
20
4.198904
10
10.643787
20
4.199164
10
10.636919
20
4.199388
10
10.630049
20
4.199577
10
10.623179
20
4.199732
10
10.616308
20
4.199851
10
10.609436
20
4.199936
10
10.602564
20
4.199985
10
10.595692
20
4.200000
10
10.588820
20
4.199979
10
10.581948
20
4.199924
10
10.575076
20
4.199834
10
10.568205
20
4.199708
10
10.561335
20
4.199548
10
10.554465
20
4.199352
10
10.547597
20
4.199122
10
10.540730
20
4.198857
10
10.533864
20
4.198557
10
10.527000
20
4.198221
10
10.520138
20
4.197851
10
10.513278
20
4.197446
10
10.506420
20
4.197006
10
10.499564
20
4.196531
10
10.492711
20
4.196022
10
10.485860
20
4.195477
10
10.479012
20
4.194897
10
10.472168
20
4.194283
10
10.465326
20
4.193634
10
10.458488
20
4.192950
10
10.451654
20
4.192231
10
10.444823
20
4.191478
10
10.437996
20
4.190689
10
10.431173
20
4.189866
10
10.424355
20
4.189008
10
10.417541
20
4.188116
10
10.410731
20
4.187189
10
10.403927
20
4.186227
10
10.397127
20
4.185230
10
10.390333
20
4.184199
10
10.383544
20
4.183134
10
10.376760
20
4.182033
10
10.369982
20
4.180899
10
10.363210
20
4.179730
10
10.356444
20
4.178526
10
10.349685
20
4.177288
10
10.342931
20
4.176015
10
10.336184
20
4.174708
10
10.329444
20
4.173367
10
10.322711
20
4.171992
10
10.315985
20
4.170582
10
10.309266
20
4.169138
10
10.302555
20
4.167660
10
10.295851
20
4.166148
10
10.289155
20
4.164602
10
10.282467
20
4.163021
10
10.275788
20
4.161407
10
10.269116
20
4.159758
10
10.262453
20
4.158076
10
10.255798
20
4.156360
10
10.249153
20
4.154609
10
10.242516
20
4.152825
10
10.235889
20
4.151008
10
10.229271
20
4.149156
10
10.222662
20
4.147271
10
10.216063
20
4.145353
10
10.209474
20
4.143400
10
10.202895
20
4.141415
10
10.196326
20
4.139395
10
10.189768
20
4.137343
10
10.183220
20
4.135257
10
10.176683
20
4.133137
10
10.170156
20
4.130985
10
10.163641
20
4.128799
10
10.157137
20
4.126580
10
10.150644
20
4.124328
10
10.144163
20
4.122043
10
10.137693
20
4.119725
10
10.131236
20
4.117374
10
10.124790
20
4.114991
10
10.118357
20
4.112574
10
10.111936
20
4.110125
10
10.105527
20
4.107643
10
10.099132
20
4.105129
10
10.092749
20
4.102582
10
10.086379
20
4.100002
10
10.080023
20
4.097390
10
10.073680
20
4.094746
10
10.067350
20
4.092070
10
10.061034
20
4.089361
10
10.054732
20
4.086621
10
10.048444
20
4.083848
10
10.042170
20
4.081043
10
10.035911
20
4.078206
10
10.029666
20
4.075338
10
10.023436
20
4.072438
10
10.017220
20
4.069506
10
10.011020
20
4.066542
10
10.004835
20
4.063547
10
9.998665
20
4.060521
10
9.992510
20
4.057463
10
9.986372
20
4.054374
10
9.980249
20
4.051254
10
9.974142
20
4.048102
10
9.968051
20
4.044920
10
9.961976
20
4.041706
10
9.955918
20
4.038462
10
9.949876
20
4.035187
10
9.943852
20
4.031881
10
9.937844
20
4.028545
10
9.931853
20
4.025178
10
9.925879
20
4.021780
10
9.919923
20
4.018352
10
9.913984
20
4.014894
10
9.908063
20
4.011406
10
9.902160
20
4.007887
10
9.896275
20
4.004339
10
9.890408
20
4.000761
10
9.884559
20
3.997153
10
9.878728
20
3.993515
10
9.872917
20
3.989847
10
9.867124
20
3.986150
10
9.861350
20
3.982424
10
9.855594
20
3.978668
10
9.849859
20
3.974883
10
9.844142
20
3.971069
10
9.838445
20
3.967225
10
9.832768
20
3.963353
10
9.827110
20
3.959452
10
9.821472
20
3.955522
10
9.815855
20
3.951564
10
9.810257
20
3.947577
10
9.804680
20
3.943561
10
9.799124
20
3.939518
10
9.793588
20
3.935446
10
9.788073
20
3.931345
10
9.782579
20
3.927217
10
9.777106
20
3.923061
10
9.771654
20
3.918877
10
9.766223
20
3.914666
10
9.760814
20
3.910427
10
9.755427
20
3.906160
10
9.750062
20
3.901866
10
9.744718
20
3.897545
10
9.739397
20
3.893196
10
9.734097
20
3.888821
10
9.728820
20
3.884418
10
9.723566
20
3.879989
10
9.718334
20
3.875533
10
9.713125
20
3.871051
10
9.707939
20
3.866542
10
9.702776
20
3.862007
10
9.697636
20
3.857445
10
9.692519
20
3.852858
10
9.687425
20
3.848244
10
9.682356
20
3.843605
10
9.677310
20
3.838939
10
9.672287
20
3.834249
10
9.667289
20
3.829532
10
9.662315
20
3.824791
10
9.657365
20
3.820024
10
9.652439
20
3.815232
10
9.647538
20
3.810414
10
9.642661
20
3.805572
10
9.637809
20
3.800706
10
9.632982
20
3.795814
10
9.628180
20
3.790898
10
9.623402
20
3.785958
10
9.618651
20
3.780994
10
9.613924
20
3.776005
10
9.609223
20
3.770992
10
9.604547
20
3.765956
10
9.599898
20
3.760895
10
9.595274
20
3.755812
10
9.590675
20
3.750704
10
9.586103
20
3.745574
10
9.581558
20
3.740420
10
9.577038
20
3.735243
10
9.572545
20
3.730043
10
9.568078
20
3.724820
10
9.563638
20
3.719575
10
9.559225
20
3.714307
10
9.554839
20
3.709017
10
9.550480
20
3.703704
10
9.546147
20
3.698369
10
9.541842
20
3.693013
10
9.537565
20
3.687634
10
9.533314
20
3.682234
10
9.529092
20
3.676812
10
9.524897
20
3.671369
10
9.520729
20
3.665904
10
9.516590
20
3.660419
10
9.512478
20
3.654912
10
9.508395
20
3.649385
10
9.504340
20
3.643836
10
9.500313
20
3.638268
10
9.496315
20
3.632678
10
9.492345
20
3.627069
10
9.488403
20
3.621439
10
9.484491
20
3.615790
10
9.480607
20
3.610120
10
9.476752
20
3.604431
10
9.472926
20
3.598722
10
9.469129
20
3.592994
10
9.465361
20
3.587247
10
9.461623
20
3.581480
10
9.457914
20
3.575695
10
9.454235
20
3.569891
10
9.450585
20
3.564068
10
9.446965
20
3.558226
10
9.443375
20
3.552367
10
9.439814
20
3.546489
10
9.436284
20
3.540593
10
9.432783
20
3.534679
10
9.429313
20
3.528747
10
9.425873
20
3.522798
10
9.422463
20
3.516831
10
9.419084
20
3.510847
10
9.415735
20
3.504846
10
9.412417
20
3.498828
10
9.409129
20
3.492794
10
9.405873
20
3.486742
10
9.402647
20
3.480674
10
9.399452
20
3.474590
10
9.396288
20
3.468489
10
9.393155
20
3.462373
10
9.390053
20
3.456240
10
9.386983
20
3.450092
10
9.383944
20
3.443928
10
9.380936
20
3.437749
10
9.377960
20
3.431555
10
9.375015
20
3.425346
10
9.372102
20
3.419121
10
9.369221
20
3.412882
10
9.366371
20
3.406629
10
9.363554
20
3.400361
10
9.360768
20
3.394078
10
9.358015
20
3.387782
10
9.355293
20
3.381472
10
9.352604
20
3.375148
10
9.349947
20
3.368810
10
9.347322
20
3.362459
10
9.344729
20
3.356094
10
9.342169
20
3.349717
10
9.339642
20
3.343326
10
9.337147
20
3.336923
10
9.334684
20
3.330507
10
9.332255
20
3.324079
10
9.329858
20
3.317638
10
9.327494
20
3.311185
10
9.325162
20
3.304721
10
9.322864
20
3.298244
10
9.320599
20
3.291756
10
9.318367
20
3.285256
10
9.316167
20
3.278746
10
9.314001
20
3.272224
10
9.311869
20
3.265691
10
9.309769
20
3.259147
10
9.307703
20
3.252593
10
9.305671
20
3.246028
10
9.303671
20
3.239453
10
9.301706
20
3.232868
10
9.299773
20
3.226273
10
9.297875
20
3.219668
10
9.296010
20
3.213054
10
9.294178
20
3.206430
10
9.292381
20
3.199798
10
9.290617
20
3.193155
10
9.288887
20
3.186505
10
9.287191
20
3.179845
10
9.285529
20
3.173177
10
9.283901
20
3.166500
10
9.282307
20
3.159816
10
9.280747
20
3.153123
10
9.279221
20
3.146422
10
9.277729
20
3.139714
10
9.276271
20
3.132998
10
9.274848
20
3.126275
10
9.273458
20
3.119545
10
9.272103
20
3.112807
10
9.270783
20
3.106063
10
9.269496
20
3.099312
10
9.268244
20
3.092555
10
9.267027
20
3.085792
10
9.265844
20
3.079022
10
9.264695
20
3.072247
10
9.263581
20
3.065465
10
9.262502
20
3.058678
10
9.261457
20
3.051886
10
9.260446
20
3.045089
10
9.259470
20
3.038286
10
9.258529
20
3.031479
10
9.257623
20
3.024666
10
9.256751
20
3.017850
10
9.255914
20
3.011029
10
9.255112
20
3.004204
10
9.254344
20
2.997374
10
9.253611
20
2.990541
10
9.252913
20
2.983705
10
9.252250
20
2.976865
10
9.251622
20
2.970021
10
9.251028
20
2.963175
10
9.250469
20
2.956325
10
9.249945
20
2.949473
10
9.249457
20
2.942618
10
9.249003
20
2.935761
10
9.248583
20
2.928902
10
9.248199
20
2.922040
10
9.247850
20
2.915177
10
9.247536
20
2.908312
10
9.247256
20
2.901445
10
9.247012
20
2.894578
10
9.246802
20
2.887709
10
9.246628
20
2.880839
10
9.246488
20
2.873968
10
9.246384
20
2.867096
10
9.246314
20
2.860225
10
9.246280
20
2.853352
10
9.246280
20
2.846480
10
9.246316
20
2.839608
10
9.246386
20
2.832736
10
9.246491
20
2.825865
10
9.246632
20
2.818994
10
9.246807
20
2.812124
10
9.247017
20
2.805255
10
9.247263
20
2.798387
10
9.247543
20
2.791521
10
9.247858
20
2.784656
10
9.248208
20
2.777793
10
9.248593
20
2.770931
10
9.249013
20
2.764072
10
9.249468
20
2.757215
10
9.249958
20
2.750360
10
9.250482
20
2.743508
10
9.251042
20
2.736659
10
9.251636
20
2.729812
10
9.252266
20
2.722969
10
9.252930
20
2.716129
10
9.253629
20
2.709292
10
9.254362
20
2.702459
10
9.255131
20
2.695630
10
9.255934
20
2.688805
10
9.256772
20
2.681984
10
9.257644
20
2.675168
10
9.258552
20
2.668356
10
9.259494
20
2.661548
10
9.260470
20
2.654746
10
9.261482
20
2.647948
10
9.262528
20
2.641156
10
9.263608
20
2.634369
10
9.264723
20
2.627588
10
9.265872
20
2.620813
10
9.267056
20
2.614044
10
9.268275
20
2.607280
10
9.269527
20
2.600523
10
9.270814
20
2.593773
10
9.272136
20
2.587029
10
9.273492
20
2.580291
10
9.274882
20
2.573561
10
9.276306
20
2.566838
10
9.277765
20
2.560123
10
9.279257
20
2.553415
10
9.280784
20
2.546714
10
9.282345
20
2.540022
10
9.283940
20
2.533337
10
9.285569
20
2.526661
10
9.287232
20
2.519993
10
9.288929
20
2.513333
10
9.290660
20
2.506683
10
9.292424
20
2.500041
10
9.294223
20
2.493408
10
9.296055
20
2.486785
10
9.297921
20
2.480171
10
9.299820
20
2.473566
10
9.301753
20
2.466971
10
9.303720
20
2.460387
10
9.305720
20
2.453812
10
9.307753
20
2.447247
10
9.309820
20
2.440693
10
9.311920
20
2.434150
10
9.314054
20
2.427617
10
9.316221
20
2.421096
10
9.318420
20
2.414585
10
9.320654
20
2.408086
10
9.322920
20
2.401598
10
9.325219
20
2.395122
10
9.327551
20
2.388657
10
9.329916
20
2.382205
10
9.332313
20
2.375765
10
9.334744
20
2.369337
10
9.337207
20
2.362921
10
9.339703
20
2.356518
10
9.342231
20
2.350128
10
9.344792
20
2.343751
10
9.347385
20
2.337386
10
9.350011
20
2.331036
10
9.352669
20
2.324698
10
9.355359
20
2.318374
10
9.358081
20
2.312064
10
9.360836
20
2.305768
10
9.363622
20
2.299486
10
9.366440
20
2.293219
10
9.369291
20
2.286966
10
9.372173
20
2.280727
10
9.375086
20
2.274503
10
9.378032
20
2.268294
10
9.381009
20
2.262100
10
9.384017
20
2.255921
10
9.387057
20
2.249758
10
9.390128
20
2.243610
10
9.393231
20
2.237478
10
9.396364
20
2.231362
10
9.399529
20
2.225262
10
9.402725
20
2.219178
10
9.405952
20
2.213110
10
9.409209
20
2.207059
10
9.412497
20
2.201025
10
9.415816
20
2.195007
10
9.419166
20
2.189007
10
9.422546
20
2.183023
10
9.425956
20
2.177057
10
9.429397
20
2.171108
10
9.432868
20
2.165177
10
9.436369
20
2.159263
10
9.439900
20
2.153368
10
9.443462
20
2.147490
10
9.447053
20
2.141631
10
9.450674
20
2.135790
10
9.454324
20
2.129968
10
9.458004
20
2.124164
10
9.461714
20
2.118379
10
9.465453
20
2.112613
10
9.469221
20
2.106866
10
9.473019
20
2.101138
10
9.476845
20
2.095430
10
9.480701
20
2.089741
10
9.484586
20
2.084072
10
9.488499
20
2.078423
10
9.492441
20
2.072794
10
9.496412
20
2.067185
10
9.500411
20
2.061597
10
9.504438
20
2.056028
10
9.508494
20
2.050481
10
9.512578
20
2.044954
10
9.516690
20
2.039447
10
9.520830
20
2.033962
10
9.524998
20
2.028498
10
9.529194
20
2.023056
10
9.533418
20
2.017634
10
9.537669
20
2.012235
10
9.541947
20
2.006857
10
9.546253
20
2.001501
10
9.550585
20
1.996166
10
9.554945
20
1.990854
10
9.559332
20
1.985565
10
9.563746
20
1.980297
10
9.568187
20
1.975052
10
9.572654
20
1.969830
10
9.577148
20
1.964631
10
9.581668
20
1.959455
10
9.586214
20
1.954301
10
9.590787
20
1.949171
10
9.595386
20
1.944064
10
9.600010
20
1.938981
10
9.604661
20
1.933921
10
9.609337
20
1.928885
10
9.614039
20
1.923873
10
9.618766
20
1.918885
10
9.623518
20
1.913921
10
9.628296
20
1.908982
10
9.633099
20
1.904066
10
9.637927
20
1.899176
10
9.642779
20
1.894309
10
9.647657
20
1.889468
10
9.652558
20
1.884651
10
9.657485
20
1.879860
10
9.662435
20
1.875094
10
9.667410
20
1.870353
10
9.672409
20
1.865637
10
9.677432
20
1.860947
10
9.682479
20
1.856282
10
9.687549
20
1.851643
10
9.692643
20
1.847030
10
9.697760
20
1.842443
10
9.702901
20
1.837883
10
9.708065
20
1.833348
10
9.713252
20
1.828840
10
9.718461
20
1.824358
10
9.723694
20
1.819903
10
9.728949
20
1.815474
10
9.734226
20
1.811072
10
9.739526
20
1.806698
10
9.744848
20
1.802350
10
9.750192
20
1.798029
10
9.755558
20
1.793736
10
9.760946
20
1.789470
10
9.766355
20
1.785231
10
9.771786
20
1.781020
10
9.777239
20
1.776837
10
9.782712
20
1.772682
10
9.788207
20
1.768554
10
9.793722
20
1.764455
10
9.799259
20
1.760384
10
9.804816
20
1.756341
10
9.810393
20
1.752326
10
9.815991
20
1.748339
10
9.821609
20
1.744382
10
9.827247
20
1.740453
10
9.832906
20
1.736552
10
9.838583
20
1.732681
10
9.844281
20
1.728838
10
9.849998
20
1.725025
10
9.855734
20
1.721240
10
9.861490
20
1.717485
10
9.867264
20
1.713759
10
9.873058
20
1.710063
10
9.878870
20
1.706396
10
9.884701
20
1.702759
10
9.890550
20
1.699152
10
9.896418
20
1.695574
10
9.902303
20
1.692027
10
9.908207
20
1.688509
10
9.914129
20
1.685021
10
9.920068
20
1.681564
10
9.926024
20
1.678137
10
9.931998
20
1.674740
10
9.937990
20
1.671374
10
9.943998
20
1.668038
10
9.950023
20
1.664733
10
9.956065
20
1.661459
10
9.962124
20
1.658215
10
9.968199
20
1.655002
10
9.974290
20
1.651821
10
9.980397
20
1.648670
10
9.986521
20
1.645550
10
9.992660
20
1.642462
10
9.998815
20
1.639405
10
10.004985
20
1.636379
10
10.011171
20
1.633385
10
10.017371
20
1.630422
10
10.023587
20
1.627491
10
10.029818
20
1.624592
10
10.036063
20
1.621724
10
10.042323
20
1.618888
10
10.048597
20
1.616084
10
10.054885
20
1.613312
10
10.061188
20
1.610572
10
10.067504
20
1.607865
10
10.073834
20
1.605189
10
10.080177
20
1.602546
10
10.086534
20
1.599935
10
10.092904
20
1.597356
10
10.099287
20
1.594810
10
10.105683
20
1.592296
10
10.112092
20
1.589815
10
10.118513
20
1.587367
10
10.124947
20
1.584951
10
10.131393
20
1.582568
10
10.137851
20
1.580218
10
10.144320
20
1.577901
10
10.150802
20
1.575617
10
10.157295
20
1.573365
10
10.163799
20
1.571147
10
10.170315
20
1.568962
10
13.385120
20
0.500000
10
14.518567
20
0.500000
0
LWPOLYLINE
8
0
100
AcDbEntity
100
AcDbPolyline
90
723
70
1
10
23.134381
20
0.500000
10
20.216911
20
3.751574
10
20.212308
20
3.756677
10
20.207680
20
3.761757
10
20.203026
20
3.766813
10
20.198346
20
3.771846
10
20.193640
20
3.776854
10
20.188910
20
3.781839
10
20.184153
20
3.786799
10
20.179372
20
3.791736
10
20.174566
20
3.796647
10
20.169734
20
3.801535
10
20.164878
20
3.806397
10
20.159997
20
3.811235
10
20.155092
20
3.816048
10
20.150162
20
3.820836
10
20.145208
20
3.825598
10
20.140229
20
3.830336
10
20.135227
20
3.835048
10
20.130200
20
3.839734
10
20.125150
20
3.844395
10
20.120076
20
3.849030
10
20.114979
20
3.853639
10
20.109858
20
3.858222
10
20.104714
20
3.862779
10
20.099547
20
3.867310
10
20.094357
20
3.871815
10
20.089144
20
3.876292
10
20.083909
20
3.880744
10
20.078650
20
3.885168
10
20.073369
20
3.889566
10
20.068066
20
3.893937
10
20.062741
20
3.898281
10
20.057394
20
3.902598
10
20.052025
20
3.906887
10
20.046634
20
3.911149
10
20.041221
20
3.915383
10
20.035787
20
3.919590
10
20.030332
20
3.923770
10
20.024855
20
3.927921
10
20.019357
20
3.932044
10
20.013839
20
3.936140
10
20.008299
20
3.940207
10
20.002739
20
3.944246
10
19.997159
20
3.948256
10
19.991558
20
3.952239
10
19.985937
20
3.956192
10
19.980296
20
3.960117
10
19.974635
20
3.964013
10
19.968954
20
3.967881
10
19.963254
20
3.971719
10
19.957534
20
3.975528
10
19.951795
20
3.979308
10
19.946036
20
3.983059
10
19.940259
20
3.986781
10
19.934463
20
3.990473
10
19.928648
20
3.994135
10
19.922814
20
3.997768
10
19.916962
20
4.001371
10
19.911092
20
4.004944
10
19.905204
20
4.008488
10
19.899298
20
4.012001
10
19.893374
20
4.015484
10
19.887432
20
4.018937
10
19.881473
20
4.022360
10
19.875496
20
4.025752
10
19.869502
20
4.029114
10
19.863492
20
4.032445
10
19.857464
20
4.035746
10
19.851419
20
4.039016
10
19.845358
20
4.042255
10
19.839281
20
4.045463
10
19.833187
20
4.048640
10
19.827078
20
4.051786
10
19.820952
20
4.054901
10
19.814811
20
4.057985
10
19.808654
20
4.061038
10
19.802481
20
4.064059
10
19.796293
20
4.067048
10
19.790090
20
4.070006
10
19.783872
20
4.072933
10
19.777640
20
4.075828
10
19.771392
20
4.078691
10
19.765130
20
4.081522
10
19.758854
20
4.084321
10
19.752564
20
4.087089
10
19.746259
20
4.089824
10
19.739941
20
4.092527
10
19.733609
20
4.095198
10
19.727264
20
4.097837
10
19.720905
20
4.100443
10
19.714533
20
4.103017
10
19.708148
20
4.105558
10
19.701750
20
4.108067
10
19.695340
20
4.110544
10
19.688917
20
4.112987
10
19.682481
20
4.115398
10
19.676034
20
4.117776
10
19.669574
20
4.120122
10
19.663102
20
4.122434
10
19.656619
20
4.124713
10
19.650125
20
4.126960
10
19.643619
20
4.129173
10
19.637101
20
4.131353
10
19.630573
20
4.133500
10
19.624034
20
4.135614
10
19.617484
20
4.137694
10
19.610924
20
4.139741
10
19.604353
20
4.141754
10
19.597773
20
4.143735
10
19.591182
20
4.145681
10
19.584581
20
4.147594
10
19.577971
20
4.149473
10
19.571351
20
4.151319
10
19.564722
20
4.153131
10
19.558084
20
4.154909
10
19.551437
20
4.156654
10
19.544781
20
4.158364
10
19.538117
20
4.160041
10
19.531444
20
4.161683
10
19.524762
20
4.163292
10
19.518073
20
4.164867
10
19.511376
20
4.166407
10
19.504671
20
4.167914
10
19.497958
20
4.169386
10
19.491238
20
4.170824
10
19.484511
20
4.172228
10
19.477776
20
4.173598
10
19.471035
20
4.174933
10
19.464287
20
4.176234
10
19.457533
20
4.177501
10
19.450772
20
4.178733
10
19.444005
20
4.179931
10
19.437232
20
4.181094
10
19.430453
20
4.182223
10
19.423669
20
4.183317
10
19.416879
20
4.184377
10
19.410083
20
4.185402
10
19.403283
20
4.186393
10
19.396478
20
4.187349
10
19.389667
20
4.188270
10
19.382853
20
4.189157
10
19.376033
20
4.190008
10
19.369210
20
4.190826
10
19.362382
20
4.191608
10
19.355551
20
4.192356
10
19.348716
20
4.193069
10
19.341877
20
4.193747
10
19.335035
20
4.194390
10
19.328190
20
4.194998
10
19.321342
20
4.195572
10
19.314491
20
4.196111
10
19.307637
20
4.196615
10
19.300781
20
4.197083
10
19.293922
20
4.197518
10
19.287062
20
4.197917
10
19.280199
20
4.198281
10
19.273335
20
4.198610
10
19.266469
20
4.198904
10
19.259602
20
4.199164
10
19.252733
20
4.199388
10
19.245864
20
4.199577
10
19.238993
20
4.199732
10
19.232122
20
4.199851
10
19.225250
20
4.199936
10
19.218378
20
4.199985
10
19.211506
20
4.200000
10
19.204634
20
4.199979
10
19.197762
20
4.199924
10
19.190890
20
4.199834
10
19.184019
20
4.199708
10
19.177149
20
4.199548
10
19.170280
20
4.199352
10
19.163411
20
4.199122
10
19.156544
20
4.198857
10
19.149679
20
4.198557
10
19.142815
20
4.198221
10
19.135952
20
4.197851
10
19.129092
20
4.197446
10
19.122234
20
4.197006
10
19.115378
20
4.196531
10
19.108525
20
4.196022
10
19.101674
20
4.195477
10
19.094827
20
4.194897
10
19.087982
20
4.194283
10
19.081141
20
4.193634
10
19.074302
20
4.192950
10
19.067468
20
4.192231
10
19.060637
20
4.191478
10
19.053810
20
4.190689
10
19.046988
20
4.189866
10
19.040169
20
4.189008
10
19.033355
20
4.188116
10
19.026546
20
4.187189
10
19.019741
20
4.186227
10
19.012942
20
4.185230
10
19.006147
20
4.184199
10
18.999358
20
4.183134
10
18.992575
20
4.182033
10
18.985797
20
4.180899
10
18.979025
20
4.179730
10
18.972259
20
4.178526
10
18.965499
20
4.177288
10
18.958746
20
4.176015
10
18.951999
20
4.174708
10
18.945259
20
4.173367
10
18.938526
20
4.171992
10
18.931800
20
4.170582
10
18.925081
20
4.169138
10
18.918370
20
4.167660
10
18.911666
20
4.166148
10
18.904970
20
4.164602
10
18.898282
20
4.163021
10
18.891602
20
4.161407
10
18.884930
20
4.159758
10
18.878267
20
4.158076
10
18.871613
20
4.156360
10
18.864967
20
4.154609
10
18.858331
20
4.152825
10
18.851703
20
4.151008
10
18.845085
20
4.149156
10
18.838477
20
4.147271
10
18.831878
20
4.145353
10
18.825289
20
4.143400
10
18.818710
20
4.141415
10
18.812141
20
4.139395
10
18.805582
20
4.137343
10
18.799034
20
4.135257
10
18.792497
20
4.133137
10
18.785971
20
4.130985
10
18.779455
20
4.128799
10
18.772951
20
4.126580
10
18.766458
20
4.124328
10
18.759977
20
4.122043
10
18.753508
20
4.119725
10
18.747050
20
4.117374
10
18.740605
20
4.114991
10
18.734171
20
4.112574
10
18.727750
20
4.110125
10
18.721342
20
4.107643
10
18.714946
20
4.105129
10
18.708563
20
4.102582
10
18.702194
20
4.100002
10
18.695837
20
4.097390
10
18.689494
20
4.094746
10
18.683164
20
4.092070
10
18.676849
20
4.089361
10
18.670547
20
4.086621
10
18.664259
20
4.083848
10
18.657985
20
4.081043
10
18.651725
20
4.078206
10
18.645480
20
4.075338
10
18.639250
20
4.072438
10
18.633035
20
4.069506
10
18.626834
20
4.066542
10
18.620649
20
4.063547
10
18.614479
20
4.060521
10
18.608325
20
4.057463
10
18.602186
20
4.054374
10
18.596063
20
4.051254
10
18.589956
20
4.048102
10
18.583865
20
4.044920
10
18.577791
20
4.041706
10
18.571732
20
4.038462
10
18.565691
20
4.035187
10
18.559666
20
4.031881
10
18.553658
20
4.028545
10
18.547667
20
4.025178
10
18.541694
20
4.021780
10
18.535737
20
4.018352
10
18.529799
20
4.014894
10
18.523878
20
4.011406
10
18.517974
20
4.007887
10
18.512089
20
4.004339
10
18.506222
20
4.000761
10
18.500373
20
3.997153
10
18.494543
20
3.993515
10
18.488731
20
3.989847
10
18.482938
20
3.986150
10
18.477164
20
3.982424
10
18.471409
20
3.978668
10
18.465673
20
3.974883
10
18.459956
20
3.971069
10
18.454259
20
3.967225
10
18.448582
20
3.963353
10
18.442924
20
3.959452
10
18.437287
20
3.955522
10
18.431669
20
3.951564
10
18.426072
20
3.947577
10
18.420495
20
3.943561
10
18.414938
20
3.939518
10
18.409402
20
3.935446
10
18.403887
20
3.931345
10
18.398393
20
3.927217
10
18.392920
20
3.923061
10
18.387468
20
3.918877
10
18.382038
20
3.914666
10
18.376629
20
3.910427
10
18.371242
20
3.906160
10
18.365876
20
3.901866
10
18.360533
20
3.897545
10
18.355211
20
3.893196
10
18.349912
20
3.888821
10
18.344635
20
3.884418
10
18.339380
20
3.879989
10
18.334149
20
3.875533
10
18.328939
20
3.871051
10
18.323753
20
3.866542
10
18.318590
20
3.862007
10
18.313450
20
3.857445
10
18.308333
20
3.852858
10
18.303240
20
3.848244
10
18.298170
20
3.843605
10
18.293124
20
3.838939
10
18.288102
20
3.834249
10
18.283103
20
3.829532
10
18.278129
20
3.824791
10
18.273179
20
3.820024
10
18.268253
20
3.815232
10
18.263352
20
3.810414
10
18.258475
20
3.805572
10
18.253623
20
3.800706
10
18.248796
20
3.795814
10
18.243994
20
3.790898
10
18.239217
20
3.785958
10
18.234465
20
3.780994
10
18.229738
20
3.776005
10
18.225037
20
3.770992
10
18.220362
20
3.765956
10
18.215712
20
3.760895
10
18.211088
20
3.755812
10
18.206490
20
3.750704
10
18.201918
20
3.745574
10
18.197372
20
3.740420
10
18.192853
20
3.735243
10
18.188359
20
3.730043
10
18.183893
20
3.724820
10
18.179453
20
3.719575
10
18.175040
20
3.714307
10
18.170653
20
3.709017
10
18.166294
20
3.703704
10
18.161962
20
3.698369
10
18.157657
20
3.693013
10
18.153379
20
3.687634
10
18.149129
20
3.682234
10
18.144906
20
3.676812
10
18.140711
20
3.671369
10
18.136544
20
3.665904
10
18.132404
20
3.660419
10
18.128293
20
3.654912
10
18.124210
20
3.649385
10
18.120154
20
3.643836
10
18.116128
20
3.638268
10
18.112129
20
3.632678
10
18.108159
20
3.627069
10
18.104218
20
3.621439
10
18.100305
20
3.615790
10
18.096421
20
3.610120
10
18.092566
20
3.604431
10
18.088740
20
3.598722
10
18.084944
20
3.592994
10
18.081176
20
3.587247
10
18.077438
20
3.581480
10
18.073729
20
3.575695
10
18.070049
20
3.569891
10
18.066400
20
3.564068
10
18.062779
20
3.558226
10
18.059189
20
3.552367
10
18.055629
20
3.546489
10
18.052098
20
3.540593
10
18.048598
20
3.534679
10
18.045127
20
3.528747
10
18.041687
20
3.522798
10
18.038278
20
3.516831
10
18.034898
20
3.510847
10
18.031550
20
3.504846
10
18.028231
20
3.498828
10
18.024944
20
3.492794
10
18.021687
20
3.486742
10
18.018461
20
3.480674
10
18.015266
20
3.474590
10
18.012102
20
3.468489
10
18.008969
20
3.462373
10
18.005868
20
3.456240
10
18.002797
20
3.450092
10
17.999758
20
3.443928
10
17.996750
20
3.437749
10
17.993774
20
3.431555
10
17.990830
20
3.425346
10
17.987917
20
3.419121
10
17.985035
20
3.412882
10
17.982186
20
3.406629
10
17.979368
20
3.400361
10
17.976583
20
3.394078
10
17.973829
20
3.387782
10
17.971108
20
3.381472
10
17.968418
20
3.375148
10
17.965761
20
3.368810
10
17.963136
20
3.362459
10
17.960544
20
3.356094
10
17.957984
20
3.349717
10
17.955456
20
3.343326
10
17.952961
20
3.336923
10
17.950499
20
3.330507
10
17.948069
20
3.324079
10
17.945672
20
3.317638
10
17.943308
20
3.311185
10
17.940977
20
3.304721
10
17.938679
20
3.298244
10
17.936413
20
3.291756
10
17.934181
20
3.285256
10
17.931982
20
3.278746
10
17.929816
20
3.272224
10
17.927683
20
3.265691
10
17.925584
20
3.259147
10
17.923518
20
3.252593
10
17.921485
20
3.246028
10
17.919486
20
3.239453
10
17.917520
20
3.232868
10
17.915588
20
3.226273
10
17.913689
20
3.219668
10
17.911824
20
3.213054
10
17.909993
20
3.206430
10
17.908195
20
3.199798
10
17.906432
20
3.193155
10
17.904702
20
3.186505
10
17.903006
20
3.179845
10
17.901344
20
3.173177
10
17.899715
20
3.166500
10
17.898121
20
3.159816
10
17.896561
20
3.153123
10
17.895035
20
3.146422
10
17.893543
20
3.139714
10
17.892086
20
3.132998
10
17.890662
20
3.126275
10
17.889273
20
3.119545
10
17.887918
20
3.112807
10
17.886597
20
3.106063
10
17.885311
20
3.099312
10
17.884059
20
3.092555
10
17.882841
20
3.085792
10
17.881658
20
3.079022
10
17.880510
20
3.072247
10
17.879396
20
3.065465
10
17.878316
20
3.058678
10
17.877271
20
3.051886
10
17.876261
20
3.045089
10
17.875285
20
3.038286
10
17.874344
20
3.031479
10
17.873437
20
3.024666
10
17.872565
20
3.017850
10
17.871728
20
3.011029
10
17.870926
20
3.004204
10
17.870158
20
2.997374
10
17.869426
20
2.990541
10
17.868728
20
2.983705
10
17.868064
20
2.976865
10
17.867436
20
2.970021
10
17.866842
20
2.963175
10
17.866284
20
2.956325
10
17.865760
20
2.949473
10
17.865271
20
2.942618
10
17.864817
20
2.935761
10
17.864398
20
2.928902
10
17.864014
20
2.922040
10
17.863664
20
2.915177
10
17.863350
20
2.908312
10
17.863071
20
2.901445
10
17.862826
20
2.894578
10
17.862617
20
2.887709
10
17.862442
20
2.880839
10
17.862303
20
2.873968
10
17.862198
20
2.867096
10
17.862129
20
2.860225
10
17.862094
20
2.853352
10
17.862095
20
2.846480
10
17.862130
20
2.839608
10
17.862201
20
2.832736
10
17.862306
20
2.825865
10
17.862446
20
2.818994
10
17.862622
20
2.812124
10
17.862832
20
2.805255
10
17.863077
20
2.798387
10
17.863357
20
2.791521
10
17.863673
20
2.784656
10
17.864023
20
2.777793
10
17.864408
20
2.770931
10
17.864828
20
2.764072
10
17.865282
20
2.757215
10
17.865772
20
2.750360
10
17.866297
20
2.743508
10
17.866856
20
2.736659
10
17.867451
20
2.729812
10
17.868080
20
2.722969
10
17.868744
20
2.716129
10
17.869443
20
2.709292
10
17.870177
20
2.702459
10
17.870945
20
2.695630
10
17.871748
20
2.688805
10
17.872586
20
2.681984
10
17.873459
20
2.675168
10
17.874366
20
2.668356
10
17.875308
20
2.661548
10
17.876285
20
2.654746
10
17.877296
20
2.647948
10
17.878342
20
2.641156
10
17.879422
20
2.634369
10
17.880537
20
2.627588
10
17.881687
20
2.620813
10
17.882871
20
2.614044
10
17.884089
20
2.607280
10
17.885342
20
2.600523
10
17.886629
20
2.593773
10
17.887950
20
2.587029
10
17.889306
20
2.580291
10
17.890696
20
2.573561
10
17.892121
20
2.566838
10
17.893579
20
2.560123
10
17.895072
20
2.553415
10
17.896599
20
2.546714
10
17.898160
20
2.540022
10
17.899755
20
2.533337
10
17.901384
20
2.526661
10
17.903047
20
2.519993
10
17.904743
20
2.513333
10
17.906474
20
2.506683
10
17.908239
20
2.500041
10
17.910037
20
2.493408
10
17.911869
20
2.486785
10
17.913735
20
2.480171
10
17.915634
20
2.473566
10
17.917567
20
2.466971
10
17.919534
20
2.460387
10
17.921534
20
2.453812
10
17.923568
20
2.447247
10
17.925635
20
2.440693
10
17.927735
20
2.434150
10
17.929868
20
2.427617
10
17.932035
20
2.421096
10
17.934235
20
2.414585
10
17.936468
20
2.408086
10
17.938734
20
2.401598
10
17.941033
20
2.395122
10
17.943365
20
2.388657
10
17.945730
20
2.382205
10
17.948128
20
2.375765
10
17.950558
20
2.369337
10
17.953021
20
2.362921
10
17.955517
20
2.356518
10
17.958046
20
2.350128
10
17.960606
20
2.343751
10
17.963200
20
2.337386
10
17.965825
20
2.331036
10
17.968483
20
2.324698
10
17.971173
20
2.318374
10
17.973896
20
2.312064
10
17.976650
20
2.305768
10
17.979437
20
2.299486
10
17.982255
20
2.293219
10
17.985105
20
2.286966
10
17.987987
20
2.280727
10
17.990901
20
2.274503
10
17.993846
20
2.268294
10
17.996823
20
2.262100
10
17.999832
20
2.255921
10
18.002872
20
2.249758
10
18.005943
20
2.243610
10
18.009045
20
2.237478
10
18.012179
20
2.231362
10
18.015344
20
2.225262
10
18.018539
20
2.219178
10
18.021766
20
2.213110
10
18.025024
20
2.207059
10
18.028312
20
2.201025
10
18.031631
20
2.195007
10
18.034980
20
2.189007
10
18.038360
20
2.183023
10
18.041771
20
2.177057
10
18.045212
20
2.171108
10
18.048683
20
2.165177
10
18.052184
20
2.159263
10
18.055715
20
2.153368
10
18.059276
20
2.147490
10
18.062867
20
2.141631
10
18.066488
20
2.135790
10
18.070139
20
2.129968
10
18.073819
20
2.124164
10
18.077528
20
2.118379
10
18.081267
20
2.112613
10
18.085036
20
2.106866
10
18.088833
20
2.101138
10
18.092660
20
2.095430
10
18.096515
20
2.089741
10
18.100400
20
2.084072
10
18.104313
20
2.078423
10
18.108255
20
2.072794
10
18.112226
20
2.067185
10
18.116225
20
2.061597
10
18.120253
20
2.056028
10
18.124309
20
2.050481
10
18.128393
20
2.044954
10
18.132505
20
2.039447
10
18.136645
20
2.033962
10
18.140813
20
2.028498
10
18.145009
20
2.023056
10
18.149232
20
2.017634
10
18.153483
20
2.012235
10
18.157761
20
2.006857
10
18.162067
20
2.001501
10
18.166400
20
1.996166
10
18.170760
20
1.990854
10
18.175147
20
1.985565
10
18.179561
20
1.980297
10
18.184001
20
1.975052
10
18.188469
20
1.969830
10
18.192962
20
1.964631
10
18.197482
20
1.959455
10
18.202029
20
1.954301
10
18.206602
20
1.949171
10
18.211200
20
1.944064
10
18.215825
20
1.938981
10
18.220475
20
1.933921
10
18.225152
20
1.928885
10
18.229853
20
1.923873
10
18.234580
20
1.918885
10
18.239333
20
1.913921
10
18.244111
20
1.908982
10
18.248913
20
1.904066
10
18.253741
20
1.899176
10
18.258594
20
1.894309
10
18.263471
20
1.889468
10
18.268373
20
1.884651
10
18.273299
20
1.879860
10
18.278250
20
1.875094
10
18.283225
20
1.870353
10
18.288224
20
1.865637
10
18.293247
20
1.860947
10
18.298293
20
1.856282
10
18.303364
20
1.851643
10
18.308458
20
1.847030
10
18.313575
20
1.842443
10
18.318715
20
1.837883
10
18.323879
20
1.833348
10
18.329066
20
1.828840
10
18.334276
20
1.824358
10
18.339508
20
1.819903
10
18.344763
20
1.815474
10
18.350041
20
1.811072
10
18.355340
20
1.806698
10
18.360662
20
1.802350
10
18.366007
20
1.798029
10
18.371373
20
1.793736
10
18.376760
20
1.789470
10
18.382170
20
1.785231
10
18.387601
20
1.781020
10
18.393053
20
1.776837
10
18.398527
20
1.772682
10
18.404021
20
1.768554
10
18.409537
20
1.764455
10
18.415073
20
1.760384
10
18.420630
20
1.756341
10
18.426208
20
1.752326
10
18.431806
20
1.748339
10
18.437424
20
1.744382
10
18.443062
20
1.740453
10
18.448720
20
1.736552
10
18.454398
20
1.732681
10
18.460095
20
1.728838
10
18.465812
20
1.725025
10
18.471549
20
1.721240
10
18.477304
20
1.717485
10
18.483079
20
1.713759
10
18.488872
20
1.710063
10
18.494685
20
1.706396
10
18.500515
20
1.702759
10
18.506365
20
1.699152
10
18.512232
20
1.695574
10
18.518118
20
1.692027
10
18.524022
20
1.688509
10
18.529943
20
1.685021
10
18.535882
20
1.681564
10
18.541839
20
1.678137
10
18.547813
20
1.674740
10
18.553804
20
1.671374
10
18.559813
20
1.668038
10
18.565838
20
1.664733
10
18.571880
20
1.661459
10
18.577938
20
1.658215
10
18.584013
20
1.655002
10
18.590105
20
1.651821
10
18.596212
20
1.648670
10
18.602335
20
1.645550
10
18.608474
20
1.642462
10
18.614629
20
1.639405
10
18.620800
20
1.636379
10
18.626985
20
1.633385
10
18.633186
20
1.630422
10
18.639402
20
1.627491
10
18.645632
20
1.624592
10
18.651878
20
1.621724
10
18.658137
20
1.618888
10
18.664411
20
1.616084
10
18.670700
20
1.613312
10
18.677002
20
1.610572
10
18.683318
20
1.607865
10
18.689648
20
1.605189
10
18.695992
20
1.602546
10
18.702349
20
1.599935
10
18.708719
20
1.597356
10
18.715102
20
1.594810
10
18.721498
20
1.592296
10
18.727907
20
1.589815
10
18.734328
20
1.587367
10
18.740761
20
1.584951
10
18.747207
20
1.582568
10
18.753665
20
1.580218
10
18.760135
20
1.577901
10
18.766616
20
1.575617
10
18.773109
20
1.573365
10
18.779614
20
1.571147
10
18.786129
20
1.568962
10
22.000935
20
0.500000
10
23.134381
20
0.500000
0
ENDSEC
0
EOF
