999
stair4_large (staircase 4 stages, R=3.0 w_v)
0
SECTION
2
HEADER
9
$INSUNITS
70
4
0
ENDSEC
0
SECTION
2
ENTITIES
0
LWPOLYLINE
8
0
100
AcDbEntity
100
AcDbPolyline
90
1076
70
1
10
-0.233955
20
-0.464455
10
-0.249972
20
-0.514303
10
-0.267610
20
-0.563600
10
-0.286853
20
-0.612293
10
-0.307678
20
-0.660331
10
-0.330063
20
-0.707662
10
-0.353986
20
-0.754235
10
-0.379419
20
-0.800000
10
-0.406336
20
-0.844909
10
-0.434708
20
-0.888912
10
-0.464505
20
-0.931964
10
-0.495695
20
-0.974018
10
-0.528243
20
-1.015029
10
-0.562116
20
-1.054953
10
-0.597277
20
-1.093748
10
-0.633689
20
-1.131371
10
-0.671312
20
-1.167783
10
-0.710107
20
-1.202944
10
-0.750031
20
-1.236817
10
-0.791042
20
-1.269365
10
-0.833096
20
-1.300555
10
-0.876147
20
-1.330351
10
-0.920151
20
-1.358723
10
-0.965060
20
-1.385641
10
-1.010825
20
-1.411074
10
-1.057398
20
-1.434996
10
-1.104729
20
-1.457382
10
-1.152766
20
-1.478207
10
-1.201460
20
-1.497449
10
-1.250757
20
-1.515088
10
-1.300604
20
-1.531105
10
-1.350949
20
-1.545481
10
-1.401738
20
-1.558203
10
-1.452915
20
-1.569256
10
-1.504427
20
-1.578629
10
-1.556218
20
-1.586312
10
-1.608232
20
-1.592296
10
-1.660415
20
-1.596574
10
-1.712709
20
-1.599143
10
-1.765060
20
-1.600000
10
-1.817410
20
-1.599143
10
-1.869705
20
-1.596574
10
-1.921887
20
-1.592296
10
-1.973902
20
-1.586312
10
-2.025693
20
-1.578629
10
-2.077204
20
-1.569256
10
-2.128382
20
-1.558203
10
-2.179170
20
-1.545481
10
-2.229515
20
-1.531105
10
-2.279363
20
-1.515088
10
-2.328660
20
-1.497449
10
-2.377353
20
-1.478207
10
-2.425391
20
-1.457382
10
-2.472722
20
-1.434996
10
-2.519295
20
-1.411074
10
-2.565060
20
-1.385641
10
-2.609968
20
-1.358723
10
-2.653972
20
-1.330351
10
-2.697024
20
-1.300555
10
-2.739078
20
-1.269365
10
-2.780089
20
-1.236817
10
-2.820013
20
-1.202944
10
-2.858808
20
-1.167783
10
-2.896431
20
-1.131371
10
-2.932842
20
-1.093748
10
-2.968004
20
-1.054953
10
-3.001877
20
-1.015029
10
-3.034425
20
-0.974018
10
-3.065615
20
-0.931964
10
-3.095411
20
-0.888912
10
-3.123783
20
-0.844909
10
-3.150700
20
-0.800000
10
-3.176134
20
-0.754235
10
-3.200056
20
-0.707662
10
-3.222442
20
-0.660331
10
-3.243267
20
-0.612293
10
-3.262509
20
-0.563600
10
-3.280148
20
-0.514303
10
-3.296164
20
-0.464455
10
-3.310541
20
-0.414110
10
-3.323263
20
-0.363322
10
-3.334316
20
-0.312145
10
-3.343689
20
-0.260633
10
-3.351372
20
-0.208842
10
-3.357355
20
-0.156827
10
-3.361634
20
-0.104645
10
-3.364203
20
-0.052351
10
-3.365060
20
0.000000
10
-3.364203
20
0.052351
10
-3.361634
20
0.104645
10
-3.357355
20
0.156827
10
-3.351372
20
0.208842
10
-3.343689
20
0.260633
10
-3.334316
20
0.312145
10
-3.323263
20
0.363322
10
-3.310541
20
0.414110
10
-3.296164
20
0.464455
10
-3.280148
20
0.514303
10
-3.262509
20
0.563600
10
-3.243267
20
0.612293
10
-3.222442
20
0.660331
10
-3.200056
20
0.707662
10
-3.176134
20
0.754235
10
-3.150700
20
0.800000
10
-3.123783
20
0.844909
10
-3.095411
20
0.888912
10
-3.065615
20
0.931964
10
-3.034425
20
0.974018
10
-3.001877
20
1.015029
10
-2.968004
20
1.054953
10
-2.932842
20
1.093748
10
-2.896431
20
1.131371
10
-2.858808
20
1.167783
10
-2.820013
20
1.202944
10
-2.780089
20
1.236817
10
-2.739078
20
1.269365
10
-2.697024
20
1.300555
10
-2.653972
20
1.330351
10
-2.609968
20
1.358723
10
-2.565060
20
1.385641
10
-2.519295
20
1.411074
10
-2.472722
20
1.434996
10
-2.425391
20
1.457382
10
-2.377353
20
1.478207
10
-2.328660
20
1.497449
10
-2.279363
20
1.515088
10
-2.229515
20
1.531105
10
-2.179170
20
1.545481
10
-2.128382
20
1.558203
10
-2.077204
20
1.569256
10
-2.025693
20
1.578629
10
-1.973902
20
1.586312
10
-1.921887
20
1.592296
10
-1.869705
20
1.596574
10
-1.817410
20
1.599143
10
-1.765060
20
1.600000
10
-1.712709
20
1.599143
10
-1.660415
20
1.596574
10
-1.608232
20
1.592296
10
-1.556218
20
1.586312
10
-1.504427
20
1.578629
10
-1.452915
20
1.569256
10
-1.401738
20
1.558203
10
-1.350949
20
1.545481
10
-1.300604
20
1.531105
10
-1.250757
20
1.515088
10
-1.201460
20
1.497449
10
-1.152766
20
1.478207
10
-1.104729
20
1.457382
10
-1.057398
20
1.434996
10
-1.010825
20
1.411074
10
-0.965060
20
1.385641
10
-0.920151
20
1.358723
10
-0.876147
20
1.330351
10
-0.833096
20
1.300555
10
-0.791042
20
1.269365
10
-0.750031
20
1.236817
10
-0.710107
20
1.202944
10
-0.671312
20
1.167783
10
-0.633689
20
1.131371
10
-0.597277
20
1.093748
10
-0.562116
20
1.054953
10
-0.528243
20
1.015029
10
-0.495695
20
0.974018
10
-0.464505
20
0.931964
10
-0.434708
20
0.888912
10
-0.406336
20
0.844909
10
-0.379419
20
0.800000
10
-0.353986
20
0.754235
10
-0.330063
20
0.707662
10
-0.307678
20
0.660331
10
-0.297881
20
0.637732
10
1.213932
20
1.312416
10
0.730603
20
1.264536
10
0.669502
20
1.259113
10
0.608303
20
1.254941
10
0.547031
20
1.252021
10
0.485713
20
1.250355
10
0.424373
20
1.249942
10
0.363038
20
1.250783
10
0.301732
20
1.252879
10
0.240483
20
1.256227
10
0.179314
20
1.260828
10
0.118253
20
1.266677
10
0.057324
20
1.273774
10
-0.003448
20
1.282116
10
-0.064036
20
1.291698
10
-0.124415
20
1.302517
10
-0.184561
20
1.314568
10
-0.244448
20
1.327846
10
-0.304050
20
1.342346
10
-0.363344
20
1.358062
10
-0.422304
20
1.374986
10
-0.480906
20
1.393113
10
-0.539125
20
1.412434
10
-0.596937
20
1.432941
10
-0.654317
20
1.454626
10
-0.711242
20
1.477480
10
-0.767687
20
1.501493
10
-0.823630
20
1.526655
10
-0.879047
20
1.552955
10
-0.933915
20
1.580383
10
-0.988210
20
1.608927
10
-1.041910
20
1.638575
10
-1.094993
20
1.669315
10
-1.147436
20
1.701134
10
-1.199218
20
1.734019
10
-1.250317
20
1.767955
10
-1.300711
20
1.802929
10
-1.350379
20
1.838926
10
-1.399301
20
1.875931
10
-1.447456
20
1.913928
10
-1.494824
20
1.952903
10
-1.541386
20
1.992837
10
-1.587121
20
2.033715
10
-1.632011
20
2.075520
10
-1.676037
20
2.118234
10
-1.719180
20
2.161839
10
-1.761422
20
2.206317
10
-1.802747
20
2.251649
10
-1.843136
20
2.297817
10
-1.882572
20
2.344801
10
-1.921040
20
2.392582
10
-1.958523
20
2.441139
10
-1.995005
20
2.490452
10
-2.030471
20
2.540501
10
-2.064906
20
2.591264
10
-2.098297
20
2.642721
10
-2.130628
20
2.694850
10
-2.161887
20
2.747629
10
-2.192060
20
2.801036
10
-2.221134
20
2.855049
10
-2.249099
20
2.909645
10
-2.275941
20
2.964801
10
-2.301650
20
3.020495
10
-2.326215
20
3.076703
10
-2.349625
20
3.133401
10
-2.371872
20
3.190566
10
-2.392944
20
3.248174
10
-2.412835
20
3.306201
10
-2.431535
20
3.364622
10
-2.449037
20
3.423413
10
-2.465333
20
3.482550
10
-2.480416
20
3.542008
10
-2.494281
20
3.601762
10
-2.506921
20
3.661786
10
-2.518331
20
3.722057
10
-2.528506
20
3.782548
10
-2.537443
20
3.843235
10
-2.545137
20
3.904092
10
-2.551585
20
3.965093
10
-2.556784
20
4.026213
10
-2.560732
20
4.087427
10
-2.563429
20
4.148709
10
-2.564871
20
4.210033
10
-2.565060
20
4.271374
10
-2.563994
20
4.332706
10
-2.561675
20
4.394003
10
-2.558102
20
4.455240
10
-2.553279
20
4.516391
10
-2.547206
20
4.577431
10
-2.539886
20
4.638334
10
-2.531323
20
4.699074
10
-2.521520
20
4.759627
10
-2.510480
20
4.819967
10
-2.498210
20
4.880068
10
-2.484713
20
4.939906
10
-2.469995
20
4.999455
10
-2.454063
20
5.058691
10
-2.436923
20
5.117589
10
-2.418582
20
5.176124
10
-2.399049
20
5.234272
10
-2.378330
20
5.292008
10
-2.356436
20
5.349309
10
-2.333374
20
5.406150
10
-2.309155
20
5.462508
10
-2.283789
20
5.518358
10
-2.257287
20
5.573679
10
-2.229658
20
5.628446
10
-2.200916
20
5.682636
10
-2.171072
20
5.736228
10
-2.140138
20
5.789198
10
-2.108128
20
5.841525
10
-2.075055
20
5.893186
10
-2.040932
20
5.944160
10
-2.005774
20
5.994426
10
-1.969596
20
6.043962
10
-1.932412
20
6.092749
10
-1.894239
20
6.140765
10
-1.855092
20
6.187990
10
-1.814988
20
6.234406
10
-1.773943
20
6.279991
10
-1.731974
20
6.324728
10
-1.689100
20
6.368597
10
-1.645338
20
6.411581
10
-1.600706
20
6.453661
10
-1.555223
20
6.494819
10
-1.508907
20
6.535039
10
-1.461780
20
6.574304
10
-1.413859
20
6.612597
10
-1.365165
20
6.649902
10
-1.315719
20
6.686204
10
-1.265541
20
6.721487
10
-1.214652
20
6.755736
10
-1.163074
20
6.788939
10
-1.110827
20
6.821079
10
-1.057934
20
6.852145
10
-1.004417
20
6.882123
10
-0.950298
20
6.911000
10
-0.895600
20
6.938765
10
-0.840346
20
6.965405
10
-0.784559
20
6.990910
10
-0.728262
20
7.015270
10
-0.671479
20
7.038473
10
-0.614233
20
7.060510
10
-0.556548
20
7.081372
10
-0.498449
20
7.101051
10
-0.439960
20
7.119537
10
-0.381105
20
7.136824
10
-0.321909
20
7.152904
10
-0.262397
20
7.167770
10
-0.202593
20
7.181416
10
-0.142522
20
7.193837
10
-0.082210
20
7.205027
10
-0.021682
20
7.214981
10
0.039037
20
7.223696
10
0.099921
20
7.231167
10
0.160946
20
7.237392
10
0.222085
20
7.242368
10
0.283312
20
7.246093
10
0.344604
20
7.248565
10
0.405933
20
7.249784
10
0.467274
20
7.249748
10
0.528601
20
7.248459
10
0.589890
20
7.245915
10
0.651113
20
7.242119
10
0.712247
20
7.237072
10
0.773264
20
7.230777
10
0.834139
20
7.223235
10
0.894848
20
7.214449
10
0.955365
20
7.204425
10
1.015664
20
7.193165
10
1.075720
20
7.180675
10
1.135508
20
7.166959
10
1.195003
20
7.152024
10
1.254180
20
7.135876
10
1.313015
20
7.118521
10
1.371483
20
7.099966
10
1.429559
20
7.080221
10
1.487219
20
7.059291
10
1.544439
20
7.037188
10
1.601196
20
7.013919
10
1.657465
20
6.989494
10
19.082220
20
-0.786734
10
23.785937
20
1.312416
10
23.302608
20
1.264536
10
23.241507
20
1.259113
10
23.180308
20
1.254941
10
23.119036
20
1.252021
10
23.057718
20
1.250355
10
22.996378
20
1.249942
10
22.935043
20
1.250783
10
22.873737
20
1.252879
10
22.812488
20
1.256227
10
22.751319
20
1.260828
10
22.690258
20
1.266677
10
22.629328
20
1.273774
10
22.568557
20
1.282116
10
22.507969
20
1.291698
10
22.447589
20
1.302517
10
22.387444
20
1.314568
10
22.327557
20
1.327846
10
22.267954
20
1.342346
10
22.208660
20
1.358062
10
22.149700
20
1.374986
10
22.091099
20
1.393113
10
22.032880
20
1.412434
10
21.975068
20
1.432941
10
21.917688
20
1.454626
10
21.860763
20
1.477480
10
21.804317
20
1.501493
10
21.748374
20
1.526655
10
21.692958
20
1.552955
10
21.638090
20
1.580383
10
21.583795
20
1.608927
10
21.530095
20
1.638575
10
21.477012
20
1.669315
10
21.424568
20
1.701134
10
21.372787
20
1.734019
10
21.321688
20
1.767955
10
21.271294
20
1.802929
10
21.221626
20
1.838926
10
21.172704
20
1.875931
10
21.124549
20
1.913928
10
21.077180
20
1.952903
10
21.030619
20
1.992837
10
20.984884
20
2.033715
10
20.939994
20
2.075520
10
20.895968
20
2.118234
10
20.852825
20
2.161839
10
20.810582
20
2.206317
10
20.769258
20
2.251649
10
20.728869
20
2.297817
10
20.689432
20
2.344801
10
20.650965
20
2.392582
10
20.613482
20
2.441139
10
20.577000
20
2.490452
10
20.541534
20
2.540501
10
20.507098
20
2.591264
10
20.473708
20
2.642721
10
20.441377
20
2.694850
10
20.410118
20
2.747629
10
20.379945
20
2.801036
10
20.350870
20
2.855049
10
20.322906
20
2.909645
10
20.296064
20
2.964801
10
20.270355
20
3.020495
10
20.245790
20
3.076703
10
20.222379
20
3.133401
10
20.200133
20
3.190566
10
20.179060
20
3.248174
10
20.159170
20
3.306201
10
20.140470
20
3.364622
10
20.122968
20
3.423413
10
20.106672
20
3.482550
10
20.091588
20
3.542008
10
20.077724
20
3.601762
10
20.065084
20
3.661786
10
20.053674
20
3.722057
10
20.043498
20
3.782548
10
20.034562
20
3.843235
10
20.026868
20
3.904092
10
20.020420
20
3.965093
10
20.015221
20
4.026213
10
20.011272
20
4.087427
10
20.008576
20
4.148709
10
20.007133
20
4.210033
10
20.006945
20
4.271374
10
20.008011
20
4.332706
10
20.010330
20
4.394003
10
20.013902
20
4.455240
10
20.018726
20
4.516391
10
20.024799
20
4.577431
10
20.032118
20
4.638334
10
20.040681
20
4.699074
10
20.050485
20
4.759627
10
20.061524
20
4.819967
10
20.073795
20
4.880068
10
20.087292
20
4.939906
10
20.102010
20
4.999455
10
20.117942
20
5.058691
10
20.135082
20
5.117589
10
20.153422
20
5.176124
10
20.172956
20
5.234272
10
20.193674
20
5.292008
10
20.215569
20
5.349309
10
20.238630
20
5.406150
10
20.262849
20
5.462508
10
20.288215
20
5.518358
10
20.314718
20
5.573679
10
20.342346
20
5.628446
10
20.371088
20
5.682636
10
20.400933
20
5.736228
10
20.431866
20
5.789198
10
20.463877
20
5.841525
10
20.496950
20
5.893186
10
20.531073
20
5.944160
10
20.566231
20
5.994426
10
20.602409
20
6.043962
10
20.639592
20
6.092749
10
20.677766
20
6.140765
10
20.716913
20
6.187990
10
20.757017
20
6.234406
10
20.798062
20
6.279991
10
20.840030
20
6.324728
10
20.882905
20
6.368597
10
20.926667
20
6.411581
10
20.971299
20
6.453661
10
21.016782
20
6.494819
10
21.063097
20
6.535039
10
21.110225
20
6.574304
10
21.158146
20
6.612597
10
21.206839
20
6.649902
10
21.256286
20
6.686204
10
21.306464
20
6.721487
10
21.357353
20
6.755736
10
21.408931
20
6.788939
10
21.461178
20
6.821079
10
21.514071
20
6.852145
10
21.567588
20
6.882123
10
21.621706
20
6.911000
10
21.676404
20
6.938765
10
21.731658
20
6.965405
10
21.787446
20
6.990910
10
21.843743
20
7.015270
10
21.900526
20
7.038473
10
21.957772
20
7.060510
10
22.015456
20
7.081372
10
22.073555
20
7.101051
10
22.132045
20
7.119537
10
22.190900
20
7.136824
10
22.250096
20
7.152904
10
22.309608
20
7.167770
10
22.369412
20
7.181416
10
22.429483
20
7.193837
10
22.489794
20
7.205027
10
22.550322
20
7.214981
10
22.611041
20
7.223696
10
22.671926
20
7.231167
10
22.732950
20
7.237392
10
22.794089
20
7.242368
10
22.855317
20
7.246093
10
22.916608
20
7.248565
10
22.977937
20
7.249784
10
23.039279
20
7.249748
10
23.100606
20
7.248459
10
23.161895
20
7.245915
10
23.223118
20
7.242119
10
23.284251
20
7.237072
10
23.345268
20
7.230777
10
23.406144
20
7.223235
10
23.466853
20
7.214449
10
23.527369
20
7.204425
10
23.587668
20
7.193165
10
23.647724
20
7.180675
10
23.707512
20
7.166959
10
23.767008
20
7.152024
10
23.826185
20
7.135876
10
23.885020
20
7.118521
10
23.943487
20
7.099966
10
24.001564
20
7.080221
10
24.059224
20
7.059291
10
24.116444
20
7.037188
10
24.173201
20
7.013919
10
24.229469
20
6.989494
10
41.654225
20
-0.786734
10
42.500977
20
-0.408850
10
42.489573
20
-0.363322
10
42.478520
20
-0.312145
10
42.469147
20
-0.260633
10
42.461464
20
-0.208842
10
42.455481
20
-0.156827
10
42.451202
20
-0.104645
10
42.448633
20
-0.052351
10
42.447776
20
0.000000
10
42.448633
20
0.052351
10
42.451202
20
0.104645
10
42.455481
20
0.156827
10
42.461464
20
0.208842
10
42.469147
20
0.260633
10
42.478520
20
0.312145
10
42.489573
20
0.363322
10
42.502295
20
0.414110
10
42.516672
20
0.464455
10
42.532688
20
0.514303
10
42.550327
20
0.563600
10
42.569569
20
0.612293
10
42.590394
20
0.660331
10
42.612780
20
0.707662
10
42.636702
20
0.754235
10
42.662136
20
0.800000
10
42.689053
20
0.844909
10
42.717425
20
0.888912
10
42.747222
20
0.931964
10
42.778411
20
0.974018
10
42.810960
20
1.015029
10
42.844833
20
1.054953
10
42.879994
20
1.093748
10
42.916405
20
1.131371
10
42.954029
20
1.167783
10
42.992823
20
1.202944
10
43.032747
20
1.236817
10
43.073758
20
1.269365
10
43.115812
20
1.300555
10
43.158864
20
1.330351
10
43.202868
20
1.358723
10
43.247776
20
1.385641
10
43.293541
20
1.411074
10
43.340114
20
1.434996
10
43.387445
20
1.457382
10
43.435483
20
1.478207
10
43.484176
20
1.497449
10
43.533473
20
1.515088
10
43.583321
20
1.531105
10
43.633666
20
1.545481
10
43.684454
20
1.558203
10
43.735632
20
1.569256
10
43.787143
20
1.578629
10
43.838934
20
1.586312
10
43.890949
20
1.592296
10
43.943131
20
1.596574
10
43.995426
20
1.599143
10
44.047776
20
1.600000
10
44.100127
20
1.599143
10
44.152421
20
1.596574
10
44.204604
20
1.592296
10
44.256618
20
1.586312
10
44.308409
20
1.578629
10
44.359921
20
1.569256
10
44.411098
20
1.558203
10
44.461887
20
1.545481
10
44.512232
20
1.531105
10
44.562079
20
1.515088
10
44.611376
20
1.497449
10
44.660070
20
1.478207
10
44.708107
20
1.457382
10
44.755438
20
1.434996
10
44.802011
20
1.411074
10
44.847776
20
1.385641
10
44.892685
20
1.358723
10
44.936689
20
1.330351
10
44.979741
20
1.300555
10
45.021795
20
1.269365
10
45.062805
20
1.236817
10
45.102730
20
1.202944
10
45.141524
20
1.167783
10
45.179147
20
1.131371
10
45.215559
20
1.093748
10
45.250720
20
1.054953
10
45.284593
20
1.015029
10
45.317142
20
0.974018
10
45.348331
20
0.931964
10
45.378128
20
0.888912
10
45.406500
20
0.844909
10
45.433417
20
0.800000
10
45.458850
20
0.754235
10
45.482773
20
0.707662
10
45.505158
20
0.660331
10
45.525983
20
0.612293
10
45.545226
20
0.563600
10
45.562864
20
0.514303
10
45.578881
20
0.464455
10
45.593258
20
0.414110
10
45.605979
20
0.363322
10
45.617033
20
0.312145
10
45.626406
20
0.260633
10
45.634088
20
0.208842
10
45.640072
20
0.156827
10
45.644351
20
0.104645
10
45.646920
20
0.052351
10
45.647776
20
0.000000
10
45.646920
20
-0.052351
10
45.644351
20
-0.104645
10
45.640072
20
-0.156827
10
45.634088
20
-0.208842
10
45.626406
20
-0.260633
10
45.617033
20
-0.312145
10
45.605979
20
-0.363322
10
45.593258
20
-0.414110
10
45.578881
20
-0.464455
10
45.562864
20
-0.514303
10
45.545226
20
-0.563600
10
45.525983
20
-0.612293
10
45.505158
20
-0.660331
10
45.482773
20
-0.707662
10
45.458850
20
-0.754235
10
45.433417
20
-0.800000
10
45.406500
20
-0.844909
10
45.378128
20
-0.888912
10
45.348331
20
-0.931964
10
45.317142
20
-0.974018
10
45.284593
20
-1.015029
10
45.250720
20
-1.054953
10
45.215559
20
-1.093748
10
45.179147
20
-1.131371
10
45.141524
20
-1.167783
10
45.102730
20
-1.202944
10
45.062805
20
-1.236817
10
45.021795
20
-1.269365
10
44.979741
20
-1.300555
10
44.936689
20
-1.330351
10
44.892685
20
-1.358723
10
44.847776
20
-1.385641
10
44.802011
20
-1.411074
10
44.755438
20
-1.434996
10
44.708107
20
-1.457382
10
44.660070
20
-1.478207
10
44.611376
20
-1.497449
10
44.562079
20
-1.515088
10
44.512232
20
-1.531105
10
44.461887
20
-1.545481
10
44.411098
20
-1.558203
10
44.359921
20
-1.569256
10
44.308409
20
-1.578629
10
44.256618
20
-1.586312
10
44.204604
20
-1.592296
10
44.152421
20
-1.596574
10
44.100127
20
-1.599143
10
44.047776
20
-1.600000
10
43.995426
20
-1.599143
10
43.943131
20
-1.596574
10
43.890949
20
-1.592296
10
43.838934
20
-1.586312
10
43.787143
20
-1.578629
10
43.735632
20
-1.569256
10
43.684454
20
-1.558203
10
43.633666
20
-1.545481
10
43.583321
20
-1.531105
10
43.533473
20
-1.515088
10
43.484176
20
-1.497449
10
43.435483
20
-1.478207
10
43.387445
20
-1.457382
10
43.340114
20
-1.434996
10
43.293541
20
-1.411074
10
43.247776
20
-1.385641
10
43.202868
20
-1.358723
10
43.158864
20
-1.330351
10
43.115812
20
-1.300555
10
43.073758
20
-1.269365
10
43.056764
20
-1.255878
10
35.515472
20
-4.621367
10
35.459203
20
-4.645792
10
35.402446
20
-4.669061
10
35.345226
20
-4.691164
10
35.287566
20
-4.712093
10
35.229490
20
-4.731839
10
35.171022
20
-4.750394
10
35.112187
20
-4.767749
10
35.053010
20
-4.783897
10
34.993515
20
-4.798832
10
34.933727
20
-4.812548
10
34.873671
20
-4.825038
10
34.813372
20
-4.836298
10
34.752855
20
-4.846322
10
34.692146
20
-4.855108
10
34.631271
20
-4.862650
10
34.570254
20
-4.868945
10
34.509120
20
-4.873992
10
34.447897
20
-4.877788
10
34.386608
20
-4.880332
10
34.325281
20
-4.881621
10
34.263940
20
-4.881657
10
34.202611
20
-4.880438
10
34.141319
20
-4.877966
10
34.080092
20
-4.874241
10
34.018953
20
-4.869265
10
33.957928
20
-4.863040
10
33.897044
20
-4.855569
10
33.836325
20
-4.846854
10
33.775797
20
-4.836900
10
33.715485
20
-4.825710
10
33.655414
20
-4.813289
10
33.595610
20
-4.799643
10
33.536098
20
-4.784777
10
33.476902
20
-4.768697
10
33.418047
20
-4.751410
10
33.359558
20
-4.732924
10
33.301459
20
-4.713245
10
33.243774
20
-4.692383
10
33.186528
20
-4.670346
10
33.129745
20
-4.647143
10
33.073448
20
-4.622783
10
33.017661
20
-4.597278
10
32.962407
20
-4.570637
10
32.907709
20
-4.542873
10
32.853590
20
-4.513996
10
32.800073
20
-4.484018
10
32.747180
20
-4.452952
10
32.694934
20
-4.420811
10
32.643355
20
-4.387609
10
32.592466
20
-4.353360
10
32.542288
20
-4.318076
10
32.492842
20
-4.281775
10
32.444148
20
-4.244470
10
32.396227
20
-4.206177
10
32.349100
20
-4.166912
10
32.302785
20
-4.126692
10
32.257301
20
-4.085534
10
32.212669
20
-4.043454
10
32.168907
20
-4.000470
10
32.126033
20
-3.956601
10
32.084064
20
-3.911864
10
32.043019
20
-3.866279
10
32.002915
20
-3.819863
10
31.963768
20
-3.772638
10
31.925595
20
-3.724622
10
31.888411
20
-3.675835
10
31.852233
20
-3.626299
10
31.817075
20
-3.576033
10
31.782952
20
-3.525059
10
31.749879
20
-3.473397
10
31.717869
20
-3.421071
10
31.686935
20
-3.368101
10
31.657091
20
-3.314509
10
31.628349
20
-3.260318
10
31.600720
20
-3.205552
10
31.574218
20
-3.150231
10
31.548852
20
-3.094381
10
31.524633
20
-3.038023
10
31.501571
20
-2.981182
10
31.479677
20
-2.923881
10
31.458958
20
-2.866145
10
31.439425
20
-2.807997
10
31.421084
20
-2.749462
10
31.403944
20
-2.690564
10
31.388012
20
-2.631328
10
31.373294
20
-2.571779
10
31.359797
20
-2.511941
10
31.347527
20
-2.451840
10
31.336487
20
-2.391500
10
31.326684
20
-2.330947
10
31.318121
20
-2.270207
10
31.310801
20
-2.209304
10
31.304728
20
-2.148264
10
31.299905
20
-2.087113
10
31.296332
20
-2.025876
10
31.294013
20
-1.964579
10
31.292947
20
-1.903247
10
31.293136
20
-1.841906
10
31.294578
20
-1.780582
10
31.297275
20
-1.719300
10
31.301223
20
-1.658086
10
31.306423
20
-1.596966
10
31.312870
20
-1.535964
10
31.320564
20
-1.475108
10
31.329501
20
-1.414421
10
31.339676
20
-1.353930
10
31.351086
20
-1.293659
10
31.363726
20
-1.233635
10
31.377591
20
-1.173881
10
31.392674
20
-1.114423
10
31.408970
20
-1.055286
10
31.426472
20
-0.996495
10
31.445172
20
-0.938073
10
31.465063
20
-0.880047
10
31.486135
20
-0.822439
10
31.508382
20
-0.765274
10
31.531792
20
-0.708576
10
31.556357
20
-0.652368
10
31.582066
20
-0.596674
10
31.608908
20
-0.541518
10
31.636873
20
-0.486922
10
31.665947
20
-0.432909
10
31.696120
20
-0.379502
10
31.727379
20
-0.326723
10
31.759710
20
-0.274594
10
31.793101
20
-0.223137
10
31.827536
20
-0.172374
10
31.863002
20
-0.122325
10
31.899484
20
-0.073011
10
31.936967
20
-0.024454
10
31.975435
20
0.023326
10
32.014871
20
0.070310
10
32.055260
20
0.116478
10
32.096585
20
0.161810
10
32.138827
20
0.206288
10
32.181970
20
0.249893
10
32.225996
20
0.292607
10
32.270886
20
0.334412
10
32.316621
20
0.375290
10
32.363183
20
0.415224
10
32.410551
20
0.454199
10
32.458706
20
0.492196
10
32.507628
20
0.529201
10
32.557297
20
0.565198
10
32.607691
20
0.600172
10
32.658789
20
0.634109
10
32.710571
20
0.666993
10
32.763014
20
0.698812
10
32.816097
20
0.729552
10
32.869797
20
0.759200
10
32.924092
20
0.787744
10
32.978960
20
0.815172
10
33.034377
20
0.841472
10
33.090320
20
0.866634
10
33.146765
20
0.890647
10
33.203690
20
0.913501
10
33.261071
20
0.935186
10
33.318882
20
0.955693
10
33.377101
20
0.975014
10
33.435703
20
0.993141
10
33.494663
20
1.010065
10
33.553957
20
1.025781
10
33.613559
20
1.040281
10
33.673446
20
1.053559
10
33.733592
20
1.065610
10
33.793971
20
1.076429
10
33.854559
20
1.086011
10
33.915331
20
1.094353
10
33.976260
20
1.101450
10
34.037321
20
1.107300
10
34.098490
20
1.111900
10
34.159740
20
1.115248
10
34.221045
20
1.117344
10
34.282380
20
1.118185
10
34.343720
20
1.117773
10
34.405038
20
1.116106
10
34.466310
20
1.113186
10
34.527509
20
1.109014
10
34.588610
20
1.103591
10
35.071940
20
1.055711
10
30.368222
20
3.154861
10
12.943467
20
-4.621367
10
12.887198
20
-4.645792
10
12.830442
20
-4.669061
10
12.773221
20
-4.691164
10
12.715561
20
-4.712093
10
12.657485
20
-4.731839
10
12.599017
20
-4.750394
10
12.540183
20
-4.767749
10
12.481005
20
-4.783897
10
12.421510
20
-4.798832
10
12.361722
20
-4.812548
10
12.301666
20
-4.825038
10
12.241367
20
-4.836298
10
12.180851
20
-4.846322
10
12.120142
20
-4.855108
10
12.059266
20
-4.862650
10
11.998249
20
-4.868945
10
11.937116
20
-4.873992
10
11.875892
20
-4.877788
10
11.814604
20
-4.880332
10
11.753276
20
-4.881621
10
11.691935
20
-4.881657
10
11.630606
20
-4.880438
10
11.569315
20
-4.877966
10
11.508087
20
-4.874241
10
11.446948
20
-4.869265
10
11.385923
20
-4.863040
10
11.325039
20
-4.855569
10
11.264320
20
-4.846854
10
11.203792
20
-4.836900
10
11.143480
20
-4.825710
10
11.083410
20
-4.813289
10
11.023606
20
-4.799643
10
10.964093
20
-4.784777
10
10.904897
20
-4.768697
10
10.846042
20
-4.751410
10
10.787553
20
-4.732924
10
10.729454
20
-4.713245
10
10.671770
20
-4.692383
10
10.614524
20
-4.670346
10
10.557740
20
-4.647143
10
10.501443
20
-4.622783
10
10.445656
20
-4.597278
10
10.390402
20
-4.570637
10
10.335704
20
-4.542873
10
10.281585
20
-4.513996
10
10.228068
20
-4.484018
10
10.175176
20
-4.452952
10
10.122929
20
-4.420811
10
10.071350
20
-4.387609
10
10.020461
20
-4.353360
10
9.970283
20
-4.318076
10
9.920837
20
-4.281775
10
9.872143
20
-4.244470
10
9.824223
20
-4.206177
10
9.777095
20
-4.166912
10
9.730780
20
-4.126692
10
9.685297
20
-4.085534
10
9.640665
20
-4.043454
10
9.596902
20
-4.000470
10
9.554028
20
-3.956601
10
9.512060
20
-3.911864
10
9.471015
20
-3.866279
10
9.430910
20
-3.819863
10
9.391763
20
-3.772638
10
9.353590
20
-3.724622
10
9.316407
20
-3.675835
10
9.280228
20
-3.626299
10
9.245070
20
-3.576033
10
9.210948
20
-3.525059
10
9.177874
20
-3.473397
10
9.145864
20
-3.421071
10
9.114930
20
-3.368101
10
9.085086
20
-3.314509
10
9.056344
20
-3.260318
10
9.028716
20
-3.205552
10
9.002213
20
-3.150231
10
8.976847
20
-3.094381
10
8.952628
20
-3.038023
10
8.929567
20
-2.981182
10
8.907672
20
-2.923881
10
8.886954
20
-2.866145
10
8.867420
20
-2.807997
10
8.849079
20
-2.749462
10
8.831940
20
-2.690564
10
8.816007
20
-2.631328
10
8.801290
20
-2.571779
10
8.787793
20
-2.511941
10
8.775522
20
-2.451840
10
8.764483
20
-2.391500
10
8.754679
20
-2.330947
10
8.746116
20
-2.270207
10
8.738796
20
-2.209304
10
8.732723
20
-2.148264
10
8.727900
20
-2.087113
10
8.724328
20
-2.025876
10
8.722008
20
-1.964579
10
8.720942
20
-1.903247
10
8.721131
20
-1.841906
10
8.722574
20
-1.780582
10
8.725270
20
-1.719300
10
8.729218
20
-1.658086
10
8.734418
20
-1.596966
10
8.740866
20
-1.535964
10
8.748560
20
-1.475108
10
8.757496
20
-1.414421
10
8.767671
20
-1.353930
10
8.779082
20
-1.293659
10
8.791722
20
-1.233635
10
8.805586
20
-1.173881
10
8.820670
20
-1.114423
10
8.836966
20
-1.055286
10
8.854467
20
-0.996495
10
8.873167
20
-0.938073
10
8.893058
20
-0.880047
10
8.914131
20
-0.822439
10
8.936377
20
-0.765274
10
8.959788
20
-0.708576
10
8.984352
20
-0.652368
10
9.010061
20
-0.596674
10
9.036904
20
-0.541518
10
9.064868
20
-0.486922
10
9.093943
20
-0.432909
10
9.124116
20
-0.379502
10
9.155374
20
-0.326723
10
9.187706
20
-0.274594
10
9.221096
20
-0.223137
10
9.255532
20
-0.172374
10
9.290998
20
-0.122325
10
9.327480
20
-0.073011
10
9.364962
20
-0.024454
10
9.403430
20
0.023326
10
9.442867
20
0.070310
10
9.483256
20
0.116478
10
9.524580
20
0.161810
10
9.566823
20
0.206288
10
9.609966
20
0.249893
10
9.653992
20
0.292607
10
9.698881
20
0.334412
10
9.744617
20
0.375290
10
9.791178
20
0.415224
10
9.838546
20
0.454199
10
9.886701
20
0.492196
10
9.935623
20
0.529201
10
9.985292
20
0.565198
10
10.035686
20
0.600172
10
10.086784
20
0.634109
10
10.138566
20
0.666993
10
10.191009
20
0.698812
10
10.244092
20
0.729552
10
10.297792
20
0.759200
10
10.352088
20
0.787744
10
10.406955
20
0.815172
10
10.462372
20
0.841472
10
10.518315
20
0.866634
10
10.574761
20
0.890647
10
10.631686
20
0.913501
10
10.689066
20
0.935186
10
10.746877
20
0.955693
10
10.805096
20
0.975014
10
10.863698
20
0.993141
10
10.922658
20
1.010065
10
10.981952
20
1.025781
10
11.041555
20
1.040281
10
11.101441
20
1.053559
10
11.161587
20
1.065610
10
11.221967
20
1.076429
10
11.282555
20
1.086011
10
11.343326
20
1.094353
10
11.404255
20
1.101450
10
11.465317
20
1.107300
10
11.526485
20
1.111900
10
11.587735
20
1.115248
10
11.649040
20
1.117344
10
11.710376
20
1.118185
10
11.771715
20
1.117773
10
11.833034
20
1.116106
10
11.894305
20
1.113186
10
11.955504
20
1.109014
10
12.016605
20
1.103591
10
12.499935
20
1.055711
10
7.796218
20
3.154861
10
-0.222287
20
-0.423595
10
-0.233955
20
-0.464455
0
LWPOLYLINE
8
0
100
AcDbEntity
100
AcDbPolyline
90
183
70
1
10
34.408497
20
0.114858
10
34.367649
20
0.116805
10
34.326770
20
0.117916
10
34.285877
20
0.118191
10
34.244987
20
0.117630
10
34.204117
20
0.116233
10
34.163283
20
0.114001
10
34.122504
20
0.110934
10
34.081797
20
0.107034
10
34.041177
20
0.102303
10
34.000663
20
0.096742
10
33.960271
20
0.090354
10
33.920018
20
0.083141
10
33.879921
20
0.075107
10
33.839996
20
0.066255
10
33.800261
20
0.056588
10
33.760732
20
0.046111
10
33.721425
20
0.034828
10
33.682358
20
0.022744
10
33.643545
20
0.009863
10
33.605004
20
-0.003808
10
33.566750
20
-0.018265
10
33.528800
20
-0.033501
10
33.491170
20
-0.049509
10
33.453875
20
-0.066284
10
33.416930
20
-0.083817
10
33.380352
20
-0.102103
10
33.344155
20
-0.121132
10
33.308355
20
-0.140898
10
33.272966
20
-0.161391
10
33.238004
20
-0.182603
10
33.203483
20
-0.204526
10
33.169417
20
-0.227151
10
33.135821
20
-0.250467
10
33.102709
20
-0.274465
10
33.070094
20
-0.299135
10
33.037991
20
-0.324466
10
33.006412
20
-0.350449
10
32.975371
20
-0.377072
10
32.944881
20
-0.404324
10
32.914954
20
-0.432194
10
32.885604
20
-0.460670
10
32.856842
20
-0.489740
10
32.828680
20
-0.519392
10
32.801130
20
-0.549614
10
32.774204
20
-0.580392
10
32.747913
20
-0.611715
10
32.722268
20
-0.643568
10
32.697280
20
-0.675940
10
32.672958
20
-0.708815
10
32.649314
20
-0.742181
10
32.626357
20
-0.776023
10
32.604097
20
-0.810328
10
32.582543
20
-0.845081
10
32.561704
20
-0.880267
10
32.541588
20
-0.915872
10
32.522205
20
-0.951880
10
32.503562
20
-0.988277
10
32.485667
20
-1.025048
10
32.468528
20
-1.062178
10
32.452152
20
-1.099649
10
32.436545
20
-1.137448
10
32.421714
20
-1.175558
10
32.407665
20
-1.213963
10
32.394405
20
-1.252648
10
32.381938
20
-1.291595
10
32.370270
20
-1.330790
10
32.359406
20
-1.370214
10
32.349351
20
-1.409853
10
32.340108
20
-1.449688
10
32.331681
20
-1.489705
10
32.324074
20
-1.529885
10
32.317291
20
-1.570213
10
32.311333
20
-1.610671
10
32.306204
20
-1.651242
10
32.301905
20
-1.691909
10
32.298439
20
-1.732656
10
32.295807
20
-1.773466
10
32.294009
20
-1.814320
10
32.293047
20
-1.855203
10
32.292922
20
-1.896097
10
32.293632
20
-1.936985
10
32.295178
20
-1.977850
10
32.297560
20
-2.018674
10
32.300776
20
-2.059442
10
32.304824
20
-2.100135
10
32.309704
20
-2.140737
10
32.315413
20
-2.181230
10
32.321948
20
-2.221599
10
32.329308
20
-2.261825
10
32.337488
20
-2.301893
10
32.346486
20
-2.341785
10
32.356298
20
-2.381484
10
32.366920
20
-2.420975
10
32.378346
20
-2.460240
10
32.390573
20
-2.499263
10
32.403596
20
-2.538029
10
32.417408
20
-2.576520
10
32.432004
20
-2.614720
10
32.447379
20
-2.652614
10
32.463525
20
-2.690186
10
32.480435
20
-2.727420
10
32.498104
20
-2.764300
10
32.516523
20
-2.800811
10
32.535684
20
-2.836938
10
32.555580
20
-2.872666
10
32.576203
20
-2.907979
10
32.597543
20
-2.942864
10
32.619592
20
-2.977305
10
32.642340
20
-3.011287
10
32.665779
20
-3.044798
10
32.689898
20
-3.077822
10
32.714687
20
-3.110347
10
32.740135
20
-3.142357
10
32.766233
20
-3.173841
10
32.792970
20
-3.204785
10
32.820333
20
-3.235175
10
32.848312
20
-3.264999
10
32.876895
20
-3.294246
10
32.906070
20
-3.322901
10
32.935824
20
-3.350955
10
32.966147
20
-3.378394
10
32.997023
20
-3.405207
10
33.028442
20
-3.431383
10
33.060389
20
-3.456912
10
33.092851
20
-3.481782
10
33.125815
20
-3.505983
10
33.159267
20
-3.529505
10
33.193193
20
-3.552338
10
33.227579
20
-3.574473
10
33.262410
20
-3.595900
10
33.297672
20
-3.616611
10
33.333350
20
-3.636596
10
33.369429
20
-3.655847
10
33.405895
20
-3.674357
10
33.442731
20
-3.692117
10
33.479922
20
-3.709121
10
33.517454
20
-3.725361
10
33.555309
20
-3.740829
10
33.593473
20
-3.755521
10
33.631929
20
-3.769429
10
33.670662
20
-3.782548
10
33.709655
20
-3.794872
10
33.748891
20
-3.806397
10
33.788355
20
-3.817117
10
33.828030
20
-3.827027
10
33.867900
20
-3.836125
10
33.907947
20
-3.844405
10
33.948155
20
-3.851865
10
33.988507
20
-3.858501
10
34.028986
20
-3.864311
10
34.069576
20
-3.869292
10
34.110259
20
-3.873442
10
34.151018
20
-3.876760
10
34.191836
20
-3.879243
10
34.232697
20
-3.880891
10
34.273583
20
-3.881703
10
34.314477
20
-3.881680
10
34.355362
20
-3.880820
10
34.396221
20
-3.879124
10
34.437037
20
-3.876594
10
34.477793
20
-3.873229
10
34.518471
20
-3.869032
10
34.559054
20
-3.864004
10
34.599527
20
-3.858147
10
34.639871
20
-3.851464
10
34.680071
20
-3.843958
10
34.720108
20
-3.835631
10
34.759967
20
-3.826487
10
34.799630
20
-3.816530
10
34.839082
20
-3.805765
10
34.878305
20
-3.794195
10
34.917283
20
-3.781825
10
34.956001
20
-3.768661
10
34.994441
20
-3.754708
10
35.032588
20
-3.739973
10
35.070425
20
-3.724460
10
35.107938
20
-3.708177
10
40.427332
20
-1.334265
10
37.966118
20
-0.235888
10
34.490030
20
0.108462
10
34.449296
20
0.112077
10
34.408497
20
0.114858
0
LWPOLYLINE
8
0
100
AcDbEntity
100
AcDbPolyline
90
183
70
1
10
23.669998
20
6.136788
10
23.631281
20
6.149952
10
23.592303
20
6.162322
10
23.553079
20
6.173892
10
23.513628
20
6.184657
10
23.473964
20
6.194614
10
23.434106
20
6.203758
10
23.394068
20
6.212085
10
23.353869
20
6.219591
10
23.313525
20
6.226274
10
23.273052
20
6.232131
10
23.232468
20
6.237159
10
23.191790
20
6.241356
10
23.151035
20
6.244721
10
23.110219
20
6.247251
10
23.069360
20
6.248947
10
23.028475
20
6.249807
10
22.987581
20
6.249831
10
22.946695
20
6.249018
10
22.905834
20
6.247370
10
22.865016
20
6.244887
10
22.824256
20
6.241569
10
22.783573
20
6.237419
10
22.742984
20
6.232438
10
22.702504
20
6.226629
10
22.662152
20
6.219992
10
22.621944
20
6.212532
10
22.581897
20
6.204252
10
22.542028
20
6.195155
10
22.502353
20
6.185244
10
22.462889
20
6.174524
10
22.423652
20
6.162999
10
22.384660
20
6.150675
10
22.345927
20
6.137556
10
22.307471
20
6.123648
10
22.269307
20
6.108956
10
22.231451
20
6.093488
10
22.193920
20
6.077248
10
22.156728
20
6.060245
10
22.119892
20
6.042484
10
22.083427
20
6.023974
10
22.047348
20
6.004723
10
22.011670
20
5.984738
10
21.976408
20
5.964027
10
21.941577
20
5.942600
10
21.907191
20
5.920465
10
21.873265
20
5.897632
10
21.839813
20
5.874110
10
21.806849
20
5.849909
10
21.774387
20
5.825039
10
21.742439
20
5.799511
10
21.711021
20
5.773334
10
21.680144
20
5.746521
10
21.649822
20
5.719082
10
21.620067
20
5.691029
10
21.590893
20
5.662373
10
21.562310
20
5.633127
10
21.534331
20
5.603302
10
21.506967
20
5.572912
10
21.480231
20
5.541968
10
21.454133
20
5.510484
10
21.428684
20
5.478474
10
21.403895
20
5.445949
10
21.379776
20
5.412925
10
21.356338
20
5.379415
10
21.333589
20
5.345432
10
21.311540
20
5.310991
10
21.290200
20
5.276106
10
21.269578
20
5.240793
10
21.249682
20
5.205065
10
21.230520
20
5.168938
10
21.212101
20
5.132427
10
21.194433
20
5.095547
10
21.177522
20
5.058313
10
21.161376
20
5.020741
10
21.146002
20
4.982847
10
21.131406
20
4.944647
10
21.117593
20
4.906156
10
21.104571
20
4.867391
10
21.092344
20
4.828367
10
21.080917
20
4.789102
10
21.070296
20
4.749611
10
21.060484
20
4.709912
10
21.051486
20
4.670020
10
21.043306
20
4.629952
10
21.035946
20
4.589726
10
21.029410
20
4.549358
10
21.023702
20
4.508864
10
21.018822
20
4.468262
10
21.014773
20
4.427569
10
21.011558
20
4.386801
10
21.009176
20
4.345977
10
21.007630
20
4.305112
10
21.006919
20
4.264224
10
21.007045
20
4.223330
10
21.008007
20
4.182447
10
21.009804
20
4.141593
10
21.012437
20
4.100783
10
21.015903
20
4.060036
10
21.020201
20
4.019369
10
21.025331
20
3.978798
10
21.031288
20
3.938340
10
21.038072
20
3.898012
10
21.045679
20
3.857832
10
21.054105
20
3.817816
10
21.063348
20
3.777980
10
21.073404
20
3.738341
10
21.084268
20
3.698917
10
21.095936
20
3.659722
10
21.108402
20
3.620775
10
21.121663
20
3.582090
10
21.135711
20
3.543685
10
21.150542
20
3.505575
10
21.166149
20
3.467776
10
21.182526
20
3.430305
10
21.199665
20
3.393175
10
21.217560
20
3.356405
10
21.236203
20
3.320007
10
21.255586
20
3.283999
10
21.275701
20
3.248394
10
21.296541
20
3.213208
10
21.318095
20
3.178455
10
21.340355
20
3.144151
10
21.363312
20
3.110308
10
21.386956
20
3.076942
10
21.411277
20
3.044067
10
21.436266
20
3.011696
10
21.461911
20
2.979842
10
21.488202
20
2.948519
10
21.515128
20
2.917741
10
21.542678
20
2.887519
10
21.570839
20
2.857867
10
21.599601
20
2.828797
10
21.628952
20
2.800321
10
21.658879
20
2.772451
10
21.689369
20
2.745199
10
21.720410
20
2.718576
10
21.751988
20
2.692593
10
21.784092
20
2.667262
10
21.816707
20
2.642592
10
21.849819
20
2.618594
10
21.883415
20
2.595278
10
21.917481
20
2.572654
10
21.952002
20
2.550731
10
21.986964
20
2.529518
10
22.022352
20
2.509025
10
22.058153
20
2.489259
10
22.094349
20
2.470230
10
22.130928
20
2.451945
10
22.167872
20
2.434411
10
22.205168
20
2.417636
10
22.242798
20
2.401628
10
22.280748
20
2.386392
10
22.319002
20
2.371935
10
22.357543
20
2.358264
10
22.396355
20
2.345383
10
22.435423
20
2.333299
10
22.474730
20
2.322016
10
22.514259
20
2.311539
10
22.553994
20
2.301872
10
22.593919
20
2.293020
10
22.634016
20
2.284986
10
22.674269
20
2.277773
10
22.714661
20
2.271385
10
22.755175
20
2.265824
10
22.795794
20
2.261093
10
22.836502
20
2.257193
10
22.877281
20
2.254126
10
22.918114
20
2.251894
10
22.958984
20
2.250497
10
22.999875
20
2.249936
10
23.040768
20
2.250211
10
23.081647
20
2.251322
10
23.122494
20
2.253269
10
23.163294
20
2.256050
10
23.204028
20
2.259665
10
26.680116
20
2.604015
10
29.141330
20
3.702392
10
23.821936
20
6.076304
10
23.784423
20
6.092587
10
23.746585
20
6.108100
10
23.708439
20
6.122835
10
23.669998
20
6.136788
0
LWPOLYLINE
8
0
100
AcDbEntity
100
AcDbPolyline
90
183
70
1
10
11.795644
20
0.116805
10
11.754765
20
0.117916
10
11.713872
20
0.118191
10
11.672982
20
0.117630
10
11.632112
20
0.116233
10
11.591279
20
0.114001
10
11.550500
20
0.110934
10
11.509792
20
0.107034
10
11.469173
20
0.102303
10
11.428658
20
0.096742
10
11.388266
20
0.090354
10
11.348013
20
0.083141
10
11.307916
20
0.075107
10
11.267992
20
0.066255
10
11.228257
20
0.056588
10
11.188727
20
0.046111
10
11.149421
20
0.034828
10
11.110353
20
0.022744
10
11.071540
20
0.009863
10
11.032999
20
-0.003808
10
10.994746
20
-0.018265
10
10.956796
20
-0.033501
10
10.919165
20
-0.049509
10
10.881870
20
-0.066284
10
10.844925
20
-0.083817
10
10.808347
20
-0.102103
10
10.772150
20
-0.121132
10
10.736350
20
-0.140898
10
10.700961
20
-0.161391
10
10.665999
20
-0.182603
10
10.631478
20
-0.204526
10
10.597412
20
-0.227151
10
10.563816
20
-0.250467
10
10.530704
20
-0.274465
10
10.498090
20
-0.299135
10
10.465986
20
-0.324466
10
10.434407
20
-0.350449
10
10.403366
20
-0.377072
10
10.372876
20
-0.404324
10
10.342950
20
-0.432194
10
10.313599
20
-0.460670
10
10.284837
20
-0.489740
10
10.256675
20
-0.519392
10
10.229126
20
-0.549614
10
10.202200
20
-0.580392
10
10.175909
20
-0.611715
10
10.150264
20
-0.643568
10
10.125275
20
-0.675940
10
10.100954
20
-0.708815
10
10.077310
20
-0.742181
10
10.054353
20
-0.776023
10
10.032092
20
-0.810328
10
10.010538
20
-0.845081
10
9.989699
20
-0.880267
10
9.969584
20
-0.915872
10
9.950201
20
-0.951880
10
9.931558
20
-0.988277
10
9.913663
20
-1.025048
10
9.896524
20
-1.062178
10
9.880147
20
-1.099649
10
9.864540
20
-1.137448
10
9.849709
20
-1.175558
10
9.835661
20
-1.213963
10
9.822400
20
-1.252648
10
9.809933
20
-1.291595
10
9.798266
20
-1.330790
10
9.787402
20
-1.370214
10
9.777346
20
-1.409853
10
9.768103
20
-1.449688
10
9.759676
20
-1.489705
10
9.752070
20
-1.529885
10
9.745286
20
-1.570213
10
9.739328
20
-1.610671
10
9.734199
20
-1.651242
10
9.729900
20
-1.691909
10
9.726434
20
-1.732656
10
9.723802
20
-1.773466
10
9.722004
20
-1.814320
10
9.721043
20
-1.855203
10
9.720917
20
-1.896097
10
9.721627
20
-1.936985
10
9.723174
20
-1.977850
10
9.725555
20
-2.018674
10
9.728771
20
-2.059442
10
9.732819
20
-2.100135
10
9.737699
20
-2.140737
10
9.743408
20
-2.181230
10
9.749944
20
-2.221599
10
9.757303
20
-2.261825
10
9.765484
20
-2.301893
10
9.774482
20
-2.341785
10
9.784294
20
-2.381484
10
9.794915
20
-2.420975
10
9.806342
20
-2.460240
10
9.818569
20
-2.499263
10
9.831591
20
-2.538029
10
9.845403
20
-2.576520
10
9.860000
20
-2.614720
10
9.875374
20
-2.652614
10
9.891520
20
-2.690186
10
9.908431
20
-2.727420
10
9.926099
20
-2.764300
10
9.944518
20
-2.800811
10
9.963679
20
-2.836938
10
9.983575
20
-2.872666
10
10.004198
20
-2.907979
10
10.025538
20
-2.942864
10
10.047587
20
-2.977305
10
10.070336
20
-3.011287
10
10.093774
20
-3.044798
10
10.117893
20
-3.077822
10
10.142682
20
-3.110347
10
10.168131
20
-3.142357
10
10.194229
20
-3.173841
10
10.220965
20
-3.204785
10
10.248328
20
-3.235175
10
10.276307
20
-3.264999
10
10.304890
20
-3.294246
10
10.334065
20
-3.322901
10
10.363820
20
-3.350955
10
10.394142
20
-3.378394
10
10.425019
20
-3.405207
10
10.456437
20
-3.431383
10
10.488384
20
-3.456912
10
10.520847
20
-3.481782
10
10.553811
20
-3.505983
10
10.587263
20
-3.529505
10
10.621189
20
-3.552338
10
10.655574
20
-3.574473
10
10.690406
20
-3.595900
10
10.725668
20
-3.616611
10
10.761346
20
-3.636596
10
10.797425
20
-3.655847
10
10.833890
20
-3.674357
10
10.870726
20
-3.692117
10
10.907917
20
-3.709121
10
10.945449
20
-3.725361
10
10.983304
20
-3.740829
10
11.021468
20
-3.755521
10
11.059925
20
-3.769429
10
11.098657
20
-3.782548
10
11.137650
20
-3.794872
10
11.176887
20
-3.806397
10
11.216351
20
-3.817117
10
11.256026
20
-3.827027
10
11.295895
20
-3.836125
10
11.335942
20
-3.844405
10
11.376150
20
-3.851865
10
11.416502
20
-3.858501
10
11.456981
20
-3.864311
10
11.497571
20
-3.869292
10
11.538254
20
-3.873442
10
11.579013
20
-3.876760
10
11.619832
20
-3.879243
10
11.660693
20
-3.880891
10
11.701579
20
-3.881703
10
11.742473
20
-3.881680
10
11.783358
20
-3.880820
10
11.824217
20
-3.879124
10
11.865032
20
-3.876594
10
11.905788
20
-3.873229
10
11.946466
20
-3.869032
10
11.987050
20
-3.864004
10
12.027522
20
-3.858147
10
12.067867
20
-3.851464
10
12.108066
20
-3.843958
10
12.148103
20
-3.835631
10
12.187962
20
-3.826487
10
12.227625
20
-3.816530
10
12.267077
20
-3.805765
10
12.306300
20
-3.794195
10
12.345279
20
-3.781825
10
12.383996
20
-3.768661
10
12.422436
20
-3.754708
10
12.460583
20
-3.739973
10
12.498421
20
-3.724460
10
12.535933
20
-3.708177
10
17.855328
20
-1.334265
10
15.394114
20
-0.235888
10
11.918026
20
0.108462
10
11.877292
20
0.112077
10
11.836492
20
0.114858
10
11.795644
20
0.116805
0
LWPOLYLINE
8
0
100
AcDbEntity
100
AcDbPolyline
90
183
70
1
10
1.097994
20
6.136788
10
1.059276
20
6.149952
10
1.020298
20
6.162322
10
0.981075
20
6.173892
10
0.941623
20
6.184657
10
0.901960
20
6.194614
10
0.862101
20
6.203758
10
0.822064
20
6.212085
10
0.781864
20
6.219591
10
0.741520
20
6.226274
10
0.701047
20
6.232131
10
0.660464
20
6.237159
10
0.619786
20
6.241356
10
0.579030
20
6.244721
10
0.538214
20
6.247251
10
0.497355
20
6.248947
10
0.456470
20
6.249807
10
0.415576
20
6.249831
10
0.374690
20
6.249018
10
0.333829
20
6.247370
10
0.293011
20
6.244887
10
0.252252
20
6.241569
10
0.211569
20
6.237419
10
0.170979
20
6.232438
10
0.130500
20
6.226629
10
0.090148
20
6.219992
10
0.049940
20
6.212532
10
0.009893
20
6.204252
10
-0.029977
20
6.195155
10
-0.069652
20
6.185244
10
-0.109116
20
6.174524
10
-0.148352
20
6.162999
10
-0.187345
20
6.150675
10
-0.226078
20
6.137556
10
-0.264534
20
6.123648
10
-0.302698
20
6.108956
10
-0.340553
20
6.093488
10
-0.378085
20
6.077248
10
-0.415276
20
6.060245
10
-0.452112
20
6.042484
10
-0.488578
20
6.023974
10
-0.524657
20
6.004723
10
-0.560335
20
5.984738
10
-0.595597
20
5.964027
10
-0.630428
20
5.942600
10
-0.664814
20
5.920465
10
-0.698740
20
5.897632
10
-0.732192
20
5.874110
10
-0.765156
20
5.849909
10
-0.797618
20
5.825039
10
-0.829565
20
5.799511
10
-0.860984
20
5.773334
10
-0.891861
20
5.746521
10
-0.922183
20
5.719082
10
-0.951937
20
5.691029
10
-0.981112
20
5.662373
10
-1.009695
20
5.633127
10
-1.037674
20
5.603302
10
-1.065037
20
5.572912
10
-1.091774
20
5.541968
10
-1.117872
20
5.510484
10
-1.143320
20
5.478474
10
-1.168109
20
5.445949
10
-1.192228
20
5.412925
10
-1.215667
20
5.379415
10
-1.238415
20
5.345432
10
-1.260464
20
5.310991
10
-1.281804
20
5.276106
10
-1.302427
20
5.240793
10
-1.322323
20
5.205065
10
-1.341484
20
5.168938
10
-1.359903
20
5.132427
10
-1.377572
20
5.095547
10
-1.394482
20
5.058313
10
-1.410628
20
5.020741
10
-1.426003
20
4.982847
10
-1.440599
20
4.944647
10
-1.454411
20
4.906156
10
-1.467434
20
4.867391
10
-1.479661
20
4.828367
10
-1.491087
20
4.789102
10
-1.501709
20
4.749611
10
-1.511521
20
4.709912
10
-1.520519
20
4.670020
10
-1.528699
20
4.629952
10
-1.536059
20
4.589726
10
-1.542594
20
4.549358
10
-1.548303
20
4.508864
10
-1.553183
20
4.468262
10
-1.557231
20
4.427569
10
-1.560447
20
4.386801
10
-1.562829
20
4.345977
10
-1.564375
20
4.305112
10
-1.565085
20
4.264224
10
-1.564960
20
4.223330
10
-1.563998
20
4.182447
10
-1.562200
20
4.141593
10
-1.559568
20
4.100783
10
-1.556102
20
4.060036
10
-1.551803
20
4.019369
10
-1.546674
20
3.978798
10
-1.540716
20
3.938340
10
-1.533933
20
3.898012
10
-1.526326
20
3.857832
10
-1.517899
20
3.817816
10
-1.508656
20
3.777980
10
-1.498601
20
3.738341
10
-1.487737
20
3.698917
10
-1.476069
20
3.659722
10
-1.463602
20
3.620775
10
-1.450342
20
3.582090
10
-1.436293
20
3.543685
10
-1.421462
20
3.505575
10
-1.405855
20
3.467776
10
-1.389479
20
3.430305
10
-1.372340
20
3.393175
10
-1.354445
20
3.356405
10
-1.335802
20
3.320007
10
-1.316419
20
3.283999
10
-1.296303
20
3.248394
10
-1.275464
20
3.213208
10
-1.253910
20
3.178455
10
-1.231650
20
3.144151
10
-1.208693
20
3.110308
10
-1.185049
20
3.076942
10
-1.160727
20
3.044067
10
-1.135739
20
3.011696
10
-1.110094
20
2.979842
10
-1.083803
20
2.948519
10
-1.056877
20
2.917741
10
-1.029327
20
2.887519
10
-1.001165
20
2.857867
10
-0.972403
20
2.828797
10
-0.943053
20
2.800321
10
-0.913126
20
2.772451
10
-0.882636
20
2.745199
10
-0.851595
20
2.718576
10
-0.820016
20
2.692593
10
-0.787913
20
2.667262
10
-0.755298
20
2.642592
10
-0.722186
20
2.618594
10
-0.688590
20
2.595278
10
-0.654524
20
2.572654
10
-0.620003
20
2.550731
10
-0.585041
20
2.529518
10
-0.549652
20
2.509025
10
-0.513852
20
2.489259
10
-0.477655
20
2.470230
10
-0.441077
20
2.451945
10
-0.404132
20
2.434411
10
-0.366837
20
2.417636
10
-0.329207
20
2.401628
10
-0.291257
20
2.386392
10
-0.253003
20
2.371935
10
-0.214462
20
2.358264
10
-0.175650
20
2.345383
10
-0.136582
20
2.333299
10
-0.097275
20
2.322016
10
-0.057746
20
2.311539
10
-0.018011
20
2.301872
10
0.021914
20
2.293020
10
0.062011
20
2.284986
10
0.102264
20
2.277773
10
0.142656
20
2.271385
10
0.183170
20
2.265824
10
0.223790
20
2.261093
10
0.264497
20
2.257193
10
0.305276
20
2.254126
10
0.346109
20
2.251894
10
0.386980
20
2.250497
10
0.427870
20
2.249936
10
0.468763
20
2.250211
10
0.509642
20
2.251322
10
0.550490
20
2.253269
10
0.591289
20
2.256050
10
0.632023
20
2.259665
10
4.108111
20
2.604015
10
6.569325
20
3.702392
10
1.249931
20
6.076304
10
1.212418
20
6.092587
10
1.174581
20
6.108100
10
1.136434
20
6.122835
10
1.097994
20
6.136788
0
ENDSEC
0
EOF
