999
stair4_small (staircase 4 stages, R=1.9 w_v)
0
SECTION
2
HEADER
9
$INSUNITS
70
4
0
ENDSEC
0
SECTION
2
ENTITIES
0
LWPOLYLINE
8
0
100
AcDbEntity
100
AcDbPolyline
90
1019
70
1
10
1.219714
20
-0.052351
10
1.217145
20
-0.104645
10
1.212866
20
-0.156827
10
1.206882
20
-0.208842
10
1.199200
20
-0.260633
10
1.189827
20
-0.312145
10
1.178774
20
-0.363322
10
1.166052
20
-0.414110
10
1.151675
20
-0.464455
10
1.135659
20
-0.514303
10
1.118020
20
-0.563600
10
1.098778
20
-0.612293
10
1.077953
20
-0.660331
10
1.055567
20
-0.707662
10
1.031645
20
-0.754235
10
1.006211
20
-0.800000
10
0.979294
20
-0.844909
10
0.950922
20
-0.888912
10
0.921125
20
-0.931964
10
0.889936
20
-0.974018
10
0.857387
20
-1.015029
10
0.823514
20
-1.054953
10
0.788353
20
-1.093748
10
0.751942
20
-1.131371
10
0.714318
20
-1.167783
10
0.675524
20
-1.202944
10
0.635600
20
-1.236817
10
0.594589
20
-1.269365
10
0.552535
20
-1.300555
10
0.509483
20
-1.330351
10
0.465479
20
-1.358723
10
0.420571
20
-1.385641
10
0.374805
20
-1.411074
10
0.328233
20
-1.434996
10
0.280902
20
-1.457382
10
0.232864
20
-1.478207
10
0.184171
20
-1.497449
10
0.134874
20
-1.515088
10
0.085026
20
-1.531105
10
0.034681
20
-1.545481
10
-0.016107
20
-1.558203
10
-0.067285
20
-1.569256
10
-0.118797
20
-1.578629
10
-0.170587
20
-1.586312
10
-0.222602
20
-1.592296
10
-0.274784
20
-1.596574
10
-0.327079
20
-1.599143
10
-0.379429
20
-1.600000
10
-0.431780
20
-1.599143
10
-0.484074
20
-1.596574
10
-0.536257
20
-1.592296
10
-0.588271
20
-1.586312
10
-0.640062
20
-1.578629
10
-0.691574
20
-1.569256
10
-0.742751
20
-1.558203
10
-0.793540
20
-1.545481
10
-0.843885
20
-1.531105
10
-0.893732
20
-1.515088
10
-0.943029
20
-1.497449
10
-0.991723
20
-1.478207
10
-1.039761
20
-1.457382
10
-1.087091
20
-1.434996
10
-1.133664
20
-1.411074
10
-1.179429
20
-1.385641
10
-1.224338
20
-1.358723
10
-1.268342
20
-1.330351
10
-1.311394
20
-1.300555
10
-1.353448
20
-1.269365
10
-1.394459
20
-1.236817
10
-1.434383
20
-1.202944
10
-1.473177
20
-1.167783
10
-1.510800
20
-1.131371
10
-1.547212
20
-1.093748
10
-1.582373
20
-1.054953
10
-1.616246
20
-1.015029
10
-1.648795
20
-0.974018
10
-1.679984
20
-0.931964
10
-1.709781
20
-0.888912
10
-1.738153
20
-0.844909
10
-1.765070
20
-0.800000
10
-1.790503
20
-0.754235
10
-1.814426
20
-0.707662
10
-1.836811
20
-0.660331
10
-1.857637
20
-0.612293
10
-1.876879
20
-0.563600
10
-1.894518
20
-0.514303
10
-1.910534
20
-0.464455
10
-1.924911
20
-0.414110
10
-1.937632
20
-0.363322
10
-1.948686
20
-0.312145
10
-1.958059
20
-0.260633
10
-1.965741
20
-0.208842
10
-1.971725
20
-0.156827
10
-1.976004
20
-0.104645
10
-1.978573
20
-0.052351
10
-1.979429
20
0.000000
10
-1.978573
20
0.052351
10
-1.976004
20
0.104645
10
-1.971725
20
0.156827
10
-1.965741
20
0.208842
10
-1.958059
20
0.260633
10
-1.948686
20
0.312145
10
-1.937632
20
0.363322
10
-1.924911
20
0.414110
10
-1.910534
20
0.464455
10
-1.894518
20
0.514303
10
-1.876879
20
0.563600
10
-1.857637
20
0.612293
10
-1.836811
20
0.660331
10
-1.814426
20
0.707662
10
-1.790503
20
0.754235
10
-1.765070
20
0.800000
10
-1.738153
20
0.844909
10
-1.709781
20
0.888912
10
-1.679984
20
0.931964
10
-1.648795
20
0.974018
10
-1.616246
20
1.015029
10
-1.582373
20
1.054953
10
-1.547212
20
1.093748
10
-1.510800
20
1.131371
10
-1.473177
20
1.167783
10
-1.434383
20
1.202944
10
-1.394459
20
1.236817
10
-1.353448
20
1.269365
10
-1.311394
20
1.300555
10
-1.268342
20
1.330351
10
-1.224338
20
1.358723
10
-1.179429
20
1.385641
10
-1.133664
20
1.411074
10
-1.087091
20
1.434996
10
-1.039761
20
1.457382
10
-0.991723
20
1.478207
10
-0.943029
20
1.497449
10
-0.893732
20
1.515088
10
-0.843885
20
1.531105
10
-0.793540
20
1.545481
10
-0.742751
20
1.558203
10
-0.691574
20
1.569256
10
-0.640062
20
1.578629
10
-0.588271
20
1.586312
10
-0.536257
20
1.592296
10
-0.484074
20
1.596574
10
-0.431780
20
1.599143
10
-0.379429
20
1.600000
10
-0.344507
20
1.599429
10
-0.346759
20
1.600924
10
-0.378675
20
1.623074
10
-0.410131
20
1.645872
10
-0.441115
20
1.669309
10
-0.471614
20
1.693374
10
-0.501613
20
1.718057
10
-0.531102
20
1.743349
10
-0.560068
20
1.769239
10
-0.588498
20
1.795715
10
-0.616381
20
1.822767
10
-0.643705
20
1.850384
10
-0.670459
20
1.878553
10
-0.696631
20
1.907264
10
-0.722211
20
1.936503
10
-0.747187
20
1.966260
10
-0.771550
20
1.996521
10
-0.795289
20
2.027274
10
-0.818394
20
2.058505
10
-0.840856
20
2.090203
10
-0.862665
20
2.122353
10
-0.883813
20
2.154942
10
-0.904289
20
2.187957
10
-0.924086
20
2.221384
10
-0.943196
20
2.255209
10
-0.961610
20
2.289417
10
-0.979321
20
2.323994
10
-0.996321
20
2.358927
10
-1.012603
20
2.394199
10
-1.028161
20
2.429798
10
-1.042987
20
2.465706
10
-1.057077
20
2.501911
10
-1.070423
20
2.538396
10
-1.083020
20
2.575146
10
-1.094864
20
2.612146
10
-1.105948
20
2.649381
10
-1.116269
20
2.686834
10
-1.125822
20
2.724491
10
-1.134603
20
2.762335
10
-1.142608
20
2.800350
10
-1.149834
20
2.838522
10
-1.156279
20
2.876833
10
-1.161939
20
2.915268
10
-1.166811
20
2.953810
10
-1.170895
20
2.992445
10
-1.174188
20
3.031154
10
-1.176689
20
3.069923
10
-1.178396
20
3.108735
10
-1.179310
20
3.147574
10
-1.179429
20
3.186423
10
-1.178754
20
3.225266
10
-1.177285
20
3.264088
10
-1.175023
20
3.302871
10
-1.171968
20
3.341600
10
-1.168122
20
3.380259
10
-1.163486
20
3.418831
10
-1.158063
20
3.457300
10
-1.151854
20
3.495650
10
-1.144862
20
3.533865
10
-1.137091
20
3.571929
10
-1.128543
20
3.609826
10
-1.119222
20
3.647541
10
-1.109131
20
3.685057
10
-1.098276
20
3.722359
10
-1.086660
20
3.759431
10
-1.074289
20
3.796258
10
-1.061167
20
3.832824
10
-1.047301
20
3.869115
10
-1.032695
20
3.905114
10
-1.017357
20
3.940807
10
-1.001291
20
3.976179
10
-0.984506
20
4.011216
10
-0.967008
20
4.045901
10
-0.948805
20
4.080222
10
-0.929904
20
4.114163
10
-0.910312
20
4.147711
10
-0.890039
20
4.180851
10
-0.869093
20
4.213570
10
-0.847482
20
4.245854
10
-0.825215
20
4.277689
10
-0.802302
20
4.309062
10
-0.778753
20
4.339960
10
-0.754576
20
4.370370
10
-0.729783
20
4.400280
10
-0.704384
20
4.429676
10
-0.678389
20
4.458547
10
-0.651808
20
4.486880
10
-0.624655
20
4.514664
10
-0.596939
20
4.541887
10
-0.568672
20
4.568538
10
-0.539866
20
4.594605
10
-0.510533
20
4.620077
10
-0.480685
20
4.644945
10
-0.450335
20
4.669197
10
-0.419496
20
4.692824
10
-0.388180
20
4.715815
10
-0.356401
20
4.738161
10
-0.324171
20
4.759852
10
-0.291505
20
4.780880
10
-0.258415
20
4.801236
10
-0.224916
20
4.820911
10
-0.191022
20
4.839897
10
-0.156747
20
4.858186
10
-0.122105
20
4.875770
10
-0.087111
20
4.892642
10
-0.051779
20
4.908796
10
-0.016124
20
4.924223
10
0.019839
20
4.938919
10
0.056095
20
4.952876
10
0.092628
20
4.966088
10
0.129424
20
4.978551
10
0.166467
20
4.990260
10
0.203742
20
5.001208
10
0.241233
20
5.011392
10
0.278924
20
5.020807
10
0.316800
20
5.029449
10
0.354845
20
5.037316
10
0.393042
20
5.044403
10
0.431376
20
5.050707
10
0.469832
20
5.056226
10
0.508392
20
5.060958
10
0.547041
20
5.064901
10
0.585762
20
5.068052
10
0.624540
20
5.070411
10
0.663358
20
5.071977
10
0.702199
20
5.072749
10
0.741049
20
5.072727
10
0.779890
20
5.071910
10
0.818705
20
5.070299
10
0.857480
20
5.067895
10
0.896198
20
5.064698
10
0.934842
20
5.060711
10
0.973397
20
5.055934
10
1.011846
20
5.050370
10
1.050173
20
5.044022
10
1.088362
20
5.036890
10
1.126398
20
5.028980
10
1.164263
20
5.020293
10
1.201944
20
5.010834
10
1.239423
20
5.000607
10
1.276685
20
4.989616
10
1.313714
20
4.977865
10
1.350496
20
4.965359
10
1.387014
20
4.952104
10
1.423254
20
4.938105
10
1.459199
20
4.923368
10
1.494836
20
4.907899
10
14.255211
20
-0.786734
10
18.958928
20
1.312416
10
18.652819
20
1.282092
10
18.614122
20
1.278658
10
18.575363
20
1.276015
10
18.536557
20
1.274166
10
18.497722
20
1.273110
10
18.458874
20
1.272849
10
18.420028
20
1.273382
10
18.381201
20
1.274709
10
18.342410
20
1.276830
10
18.303670
20
1.279743
10
18.264998
20
1.283448
10
18.226409
20
1.287943
10
18.187921
20
1.293226
10
18.149548
20
1.299294
10
18.111308
20
1.306146
10
18.073215
20
1.313779
10
18.035287
20
1.322188
10
17.997539
20
1.331372
10
17.959986
20
1.341325
10
17.922645
20
1.352044
10
17.885530
20
1.363524
10
17.848658
20
1.375761
10
17.812044
20
1.388749
10
17.775703
20
1.402482
10
17.739651
20
1.416956
10
17.703902
20
1.432165
10
17.668472
20
1.448100
10
17.633374
20
1.464757
10
17.598625
20
1.482128
10
17.564238
20
1.500206
10
17.530228
20
1.518983
10
17.496609
20
1.538452
10
17.463394
20
1.558604
10
17.430599
20
1.579431
10
17.398237
20
1.600924
10
17.366321
20
1.623074
10
17.334864
20
1.645872
10
17.303880
20
1.669309
10
17.273382
20
1.693374
10
17.243382
20
1.718057
10
17.213893
20
1.743349
10
17.184927
20
1.769239
10
17.156497
20
1.795715
10
17.128614
20
1.822767
10
17.101290
20
1.850384
10
17.074537
20
1.878553
10
17.048364
20
1.907264
10
17.022785
20
1.936503
10
16.997808
20
1.966260
10
16.973445
20
1.996521
10
16.949706
20
2.027274
10
16.926601
20
2.058505
10
16.904139
20
2.090203
10
16.882330
20
2.122353
10
16.861183
20
2.154942
10
16.840706
20
2.187957
10
16.820909
20
2.221384
10
16.801800
20
2.255209
10
16.783386
20
2.289417
10
16.765675
20
2.323994
10
16.748675
20
2.358927
10
16.732392
20
2.394199
10
16.716835
20
2.429798
10
16.702008
20
2.465706
10
16.687919
20
2.501911
10
16.674573
20
2.538396
10
16.661975
20
2.575146
10
16.650132
20
2.612146
10
16.639047
20
2.649381
10
16.628727
20
2.686834
10
16.619174
20
2.724491
10
16.610393
20
2.762335
10
16.602388
20
2.800350
10
16.595161
20
2.838522
10
16.588717
20
2.876833
10
16.583057
20
2.915268
10
16.578184
20
2.953810
10
16.574101
20
2.992445
10
16.570808
20
3.031154
10
16.568307
20
3.069923
10
16.566599
20
3.108735
10
16.565686
20
3.147574
10
16.565566
20
3.186423
10
16.566241
20
3.225266
10
16.567710
20
3.264088
10
16.569973
20
3.302871
10
16.573027
20
3.341600
10
16.576874
20
3.380259
10
16.581509
20
3.418831
10
16.586933
20
3.457300
10
16.593142
20
3.495650
10
16.600133
20
3.533865
10
16.607905
20
3.571929
10
16.616453
20
3.609826
10
16.625774
20
3.647541
10
16.635864
20
3.685057
10
16.646720
20
3.722359
10
16.658335
20
3.759431
10
16.670707
20
3.796258
10
16.683828
20
3.832824
10
16.697695
20
3.869115
10
16.712300
20
3.905114
10
16.727639
20
3.940807
10
16.743704
20
3.976179
10
16.760489
20
4.011216
10
16.777987
20
4.045901
10
16.796190
20
4.080222
10
16.815092
20
4.114163
10
16.834683
20
4.147711
10
16.854956
20
4.180851
10
16.875903
20
4.213570
10
16.897514
20
4.245854
10
16.919781
20
4.277689
10
16.942693
20
4.309062
10
16.966243
20
4.339960
10
16.990419
20
4.370370
10
17.015212
20
4.400280
10
17.040612
20
4.429676
10
17.066607
20
4.458547
10
17.093187
20
4.486880
10
17.120341
20
4.514664
10
17.148057
20
4.541887
10
17.176324
20
4.568538
10
17.205130
20
4.594605
10
17.234463
20
4.620077
10
17.264310
20
4.644945
10
17.294660
20
4.669197
10
17.325499
20
4.692824
10
17.356815
20
4.715815
10
17.388595
20
4.738161
10
17.420824
20
4.759852
10
17.453491
20
4.780880
10
17.486580
20
4.801236
10
17.520079
20
4.820911
10
17.553973
20
4.839897
10
17.588249
20
4.858186
10
17.622891
20
4.875770
10
17.657885
20
4.892642
10
17.693217
20
4.908796
10
17.728872
20
4.924223
10
17.764834
20
4.938919
10
17.801090
20
4.952876
10
17.837624
20
4.966088
10
17.874420
20
4.978551
10
17.911463
20
4.990260
10
17.948737
20
5.001208
10
17.986228
20
5.011392
10
18.023920
20
5.020807
10
18.061795
20
5.029449
10
18.099840
20
5.037316
10
18.138038
20
5.044403
10
18.176372
20
5.050707
10
18.214827
20
5.056226
10
18.253387
20
5.060958
10
18.292036
20
5.064901
10
18.330758
20
5.068052
10
18.369535
20
5.070411
10
18.408353
20
5.071977
10
18.447195
20
5.072749
10
18.486044
20
5.072727
10
18.524885
20
5.071910
10
18.563701
20
5.070299
10
18.602476
20
5.067895
10
18.641194
20
5.064698
10
18.679838
20
5.060711
10
18.718392
20
5.055934
10
18.756841
20
5.050370
10
18.795168
20
5.044022
10
18.833358
20
5.036890
10
18.871393
20
5.028980
10
18.909259
20
5.020293
10
18.946939
20
5.010834
10
18.984418
20
5.000607
10
19.021680
20
4.989616
10
19.058710
20
4.977865
10
19.095491
20
4.965359
10
19.132010
20
4.952104
10
19.168249
20
4.938105
10
19.204195
20
4.923368
10
19.239832
20
4.907899
10
32.000206
20
-0.786734
10
32.846959
20
-0.408850
10
32.835555
20
-0.363322
10
32.824501
20
-0.312145
10
32.815129
20
-0.260633
10
32.807446
20
-0.208842
10
32.801462
20
-0.156827
10
32.797184
20
-0.104645
10
32.794615
20
-0.052351
10
32.793758
20
0.000000
10
32.794615
20
0.052351
10
32.797184
20
0.104645
10
32.801462
20
0.156827
10
32.807446
20
0.208842
10
32.815129
20
0.260633
10
32.824501
20
0.312145
10
32.835555
20
0.363322
10
32.848277
20
0.414110
10
32.862653
20
0.464455
10
32.878670
20
0.514303
10
32.896308
20
0.563600
10
32.915551
20
0.612293
10
32.936376
20
0.660331
10
32.958761
20
0.707662
10
32.982684
20
0.754235
10
33.008117
20
0.800000
10
33.035034
20
0.844909
10
33.063406
20
0.888912
10
33.093203
20
0.931964
10
33.124393
20
0.974018
10
33.156941
20
1.015029
10
33.190814
20
1.054953
10
33.225975
20
1.093748
10
33.262387
20
1.131371
10
33.300010
20
1.167783
10
33.338805
20
1.202944
10
33.378729
20
1.236817
10
33.419740
20
1.269365
10
33.461794
20
1.300555
10
33.504845
20
1.330351
10
33.548849
20
1.358723
10
33.593758
20
1.385641
10
33.639523
20
1.411074
10
33.686096
20
1.434996
10
33.733427
20
1.457382
10
33.781464
20
1.478207
10
33.830158
20
1.497449
10
33.879455
20
1.515088
10
33.929302
20
1.531105
10
33.979647
20
1.545481
10
34.030436
20
1.558203
10
34.081613
20
1.569256
10
34.133125
20
1.578629
10
34.184916
20
1.586312
10
34.236930
20
1.592296
10
34.289113
20
1.596574
10
34.341407
20
1.599143
10
34.393758
20
1.600000
10
34.446108
20
1.599143
10
34.498403
20
1.596574
10
34.550585
20
1.592296
10
34.602600
20
1.586312
10
34.654391
20
1.578629
10
34.705902
20
1.569256
10
34.757080
20
1.558203
10
34.807868
20
1.545481
10
34.858213
20
1.531105
10
34.908061
20
1.515088
10
34.957358
20
1.497449
10
35.006051
20
1.478207
10
35.054089
20
1.457382
10
35.101420
20
1.434996
10
35.147993
20
1.411074
10
35.193758
20
1.385641
10
35.238666
20
1.358723
10
35.282670
20
1.330351
10
35.325722
20
1.300555
10
35.367776
20
1.269365
10
35.408787
20
1.236817
10
35.448711
20
1.202944
10
35.487506
20
1.167783
10
35.525129
20
1.131371
10
35.561540
20
1.093748
10
35.596702
20
1.054953
10
35.630575
20
1.015029
10
35.663123
20
0.974018
10
35.694313
20
0.931964
10
35.724109
20
0.888912
10
35.752481
20
0.844909
10
35.779399
20
0.800000
10
35.804832
20
0.754235
10
35.828754
20
0.707662
10
35.851140
20
0.660331
10
35.871965
20
0.612293
10
35.891207
20
0.563600
10
35.908846
20
0.514303
10
35.924862
20
0.464455
10
35.939239
20
0.414110
10
35.951961
20
0.363322
10
35.963014
20
0.312145
10
35.972387
20
0.260633
10
35.980070
20
0.208842
10
35.986053
20
0.156827
10
35.990332
20
0.104645
10
35.992901
20
0.052351
10
35.993758
20
0.000000
10
35.992901
20
-0.052351
10
35.990332
20
-0.104645
10
35.986053
20
-0.156827
10
35.980070
20
-0.208842
10
35.972387
20
-0.260633
10
35.963014
20
-0.312145
10
35.951961
20
-0.363322
10
35.939239
20
-0.414110
10
35.924862
20
-0.464455
10
35.908846
20
-0.514303
10
35.891207
20
-0.563600
10
35.871965
20
-0.612293
10
35.851140
20
-0.660331
10
35.828754
20
-0.707662
10
35.804832
20
-0.754235
10
35.779399
20
-0.800000
10
35.752481
20
-0.844909
10
35.724109
20
-0.888912
10
35.694313
20
-0.931964
10
35.663123
20
-0.974018
10
35.630575
20
-1.015029
10
35.596702
20
-1.054953
10
35.561540
20
-1.093748
10
35.525129
20
-1.131371
10
35.487506
20
-1.167783
10
35.448711
20
-1.202944
10
35.408787
20
-1.236817
10
35.367776
20
-1.269365
10
35.325722
20
-1.300555
10
35.282670
20
-1.330351
10
35.238666
20
-1.358723
10
35.193758
20
-1.385641
10
35.147993
20
-1.411074
10
35.101420
20
-1.434996
10
35.054089
20
-1.457382
10
35.006051
20
-1.478207
10
34.957358
20
-1.497449
10
34.908061
20
-1.515088
10
34.858213
20
-1.531105
10
34.807868
20
-1.545481
10
34.757080
20
-1.558203
10
34.705902
20
-1.569256
10
34.654391
20
-1.578629
10
34.602600
20
-1.586312
10
34.550585
20
-1.592296
10
34.498403
20
-1.596574
10
34.446108
20
-1.599143
10
34.393758
20
-1.600000
10
34.341407
20
-1.599143
10
34.289113
20
-1.596574
10
34.236930
20
-1.592296
10
34.184916
20
-1.586312
10
34.133125
20
-1.578629
10
34.081613
20
-1.569256
10
34.030436
20
-1.558203
10
33.979647
20
-1.545481
10
33.929302
20
-1.531105
10
33.879455
20
-1.515088
10
33.830158
20
-1.497449
10
33.781464
20
-1.478207
10
33.733427
20
-1.457382
10
33.686096
20
-1.434996
10
33.639523
20
-1.411074
10
33.593758
20
-1.385641
10
33.548849
20
-1.358723
10
33.504845
20
-1.330351
10
33.461794
20
-1.300555
10
33.419740
20
-1.269365
10
33.402746
20
-1.255878
10
28.112329
20
-3.616858
10
28.076693
20
-3.632327
10
28.040747
20
-3.647064
10
28.004507
20
-3.661063
10
27.967989
20
-3.674318
10
27.931208
20
-3.686824
10
27.894178
20
-3.698575
10
27.856916
20
-3.709566
10
27.819437
20
-3.719794
10
27.781757
20
-3.729252
10
27.743891
20
-3.737939
10
27.705855
20
-3.745849
10
27.667666
20
-3.752981
10
27.629339
20
-3.759330
10
27.590890
20
-3.764893
10
27.552336
20
-3.769670
10
27.513691
20
-3.773657
10
27.474974
20
-3.776854
10
27.436199
20
-3.779258
10
27.397383
20
-3.780869
10
27.358542
20
-3.781686
10
27.319693
20
-3.781708
10
27.280851
20
-3.780936
10
27.242033
20
-3.779371
10
27.203255
20
-3.777011
10
27.164534
20
-3.773860
10
27.125885
20
-3.769917
10
27.087325
20
-3.765186
10
27.048870
20
-3.759666
10
27.010535
20
-3.753362
10
26.972338
20
-3.746275
10
26.934293
20
-3.738409
10
26.896417
20
-3.729766
10
26.858726
20
-3.720351
10
26.821235
20
-3.710167
10
26.783960
20
-3.699219
10
26.746917
20
-3.687510
10
26.710121
20
-3.675047
10
26.673588
20
-3.661835
10
26.637332
20
-3.647878
10
26.601369
20
-3.633182
10
26.565714
20
-3.617755
10
26.530383
20
-3.601601
10
26.495388
20
-3.584729
10
26.460746
20
-3.567145
10
26.426471
20
-3.548856
10
26.392577
20
-3.529870
10
26.359078
20
-3.510195
10
26.325989
20
-3.489839
10
26.293322
20
-3.468811
10
26.261092
20
-3.447120
10
26.229313
20
-3.424774
10
26.197997
20
-3.401783
10
26.167158
20
-3.378156
10
26.136808
20
-3.353904
10
26.106960
20
-3.329037
10
26.077628
20
-3.303564
10
26.048822
20
-3.277497
10
26.020555
20
-3.250846
10
25.992839
20
-3.223623
10
25.965685
20
-3.195839
10
25.939105
20
-3.167506
10
25.913110
20
-3.138635
10
25.887710
20
-3.109239
10
25.862917
20
-3.079329
10
25.838741
20
-3.048919
10
25.815191
20
-3.018021
10
25.792278
20
-2.986648
10
25.770012
20
-2.954813
10
25.748401
20
-2.922529
10
25.727454
20
-2.889810
10
25.707181
20
-2.856670
10
25.687590
20
-2.823122
10
25.668688
20
-2.789181
10
25.650485
20
-2.754860
10
25.632987
20
-2.720175
10
25.616202
20
-2.685138
10
25.600137
20
-2.649766
10
25.584798
20
-2.614073
10
25.570192
20
-2.578074
10
25.556326
20
-2.541783
10
25.543204
20
-2.505217
10
25.530833
20
-2.468390
10
25.519217
20
-2.431318
10
25.508362
20
-2.394016
10
25.498272
20
-2.356500
10
25.488951
20
-2.318785
10
25.480402
20
-2.280888
10
25.472631
20
-2.242824
10
25.465639
20
-2.204609
10
25.459430
20
-2.166259
10
25.454007
20
-2.127790
10
25.449371
20
-2.089218
10
25.445525
20
-2.050559
10
25.442470
20
-2.011830
10
25.440208
20
-1.973047
10
25.438739
20
-1.934225
10
25.438064
20
-1.895382
10
25.438183
20
-1.856533
10
25.439097
20
-1.817694
10
25.440805
20
-1.778882
10
25.443305
20
-1.740113
10
25.446598
20
-1.701404
10
25.450682
20
-1.662770
10
25.455555
20
-1.624227
10
25.461215
20
-1.585792
10
25.467659
20
-1.547481
10
25.474885
20
-1.509310
10
25.482891
20
-1.471294
10
25.491672
20
-1.433450
10
25.501224
20
-1.395793
10
25.511545
20
-1.358340
10
25.522630
20
-1.321105
10
25.534473
20
-1.284105
10
25.547070
20
-1.247355
10
25.560416
20
-1.210870
10
25.574506
20
-1.174666
10
25.589332
20
-1.138757
10
25.604890
20
-1.103158
10
25.621172
20
-1.067886
10
25.638173
20
-1.032953
10
25.655883
20
-0.998376
10
25.674297
20
-0.964168
10
25.693407
20
-0.930343
10
25.713204
20
-0.896917
10
25.733681
20
-0.863902
10
25.754828
20
-0.831312
10
25.776637
20
-0.799162
10
25.799099
20
-0.767464
10
25.822204
20
-0.736233
10
25.845943
20
-0.705480
10
25.870306
20
-0.675219
10
25.895283
20
-0.645462
10
25.920862
20
-0.616223
10
25.947034
20
-0.587512
10
25.973788
20
-0.559343
10
26.001112
20
-0.531726
10
26.028995
20
-0.504674
10
26.057425
20
-0.478198
10
26.086391
20
-0.452308
10
26.115880
20
-0.427017
10
26.145880
20
-0.402333
10
26.176378
20
-0.378268
10
26.207362
20
-0.354831
10
26.238819
20
-0.332033
10
26.270735
20
-0.309883
10
26.303097
20
-0.288390
10
26.335892
20
-0.267563
10
26.369106
20
-0.247411
10
26.402725
20
-0.227943
10
26.436736
20
-0.209165
10
26.471123
20
-0.191087
10
26.505872
20
-0.173716
10
26.540969
20
-0.157059
10
26.576400
20
-0.141124
10
26.612149
20
-0.125916
10
26.648201
20
-0.111442
10
26.684542
20
-0.097708
10
26.721156
20
-0.084720
10
26.758028
20
-0.072483
10
26.795142
20
-0.061003
10
26.832484
20
-0.050284
10
26.870037
20
-0.040331
10
26.907785
20
-0.031147
10
26.945713
20
-0.022738
10
26.983805
20
-0.015105
10
27.022046
20
-0.008253
10
27.060418
20
-0.002185
10
27.098907
20
0.003098
10
27.137495
20
0.007593
10
27.176168
20
0.011298
10
27.214908
20
0.014211
10
27.253699
20
0.016332
10
27.292526
20
0.017659
10
27.331372
20
0.018192
10
27.370220
20
0.017931
10
27.409055
20
0.016875
10
27.447860
20
0.015026
10
27.486620
20
0.012383
10
27.525317
20
0.008949
10
27.831426
20
-0.021375
10
23.127709
20
2.077775
10
10.367334
20
-3.616858
10
10.331697
20
-3.632327
10
10.295751
20
-3.647064
10
10.259512
20
-3.661063
10
10.222994
20
-3.674318
10
10.186212
20
-3.686824
10
10.149183
20
-3.698575
10
10.111920
20
-3.709566
10
10.074441
20
-3.719794
10
10.036761
20
-3.729252
10
9.998895
20
-3.737939
10
9.960860
20
-3.745849
10
9.922671
20
-3.752981
10
9.884344
20
-3.759330
10
9.845895
20
-3.764893
10
9.807340
20
-3.769670
10
9.768696
20
-3.773657
10
9.729978
20
-3.776854
10
9.691203
20
-3.779258
10
9.652387
20
-3.780869
10
9.613546
20
-3.781686
10
9.574697
20
-3.781708
10
9.535855
20
-3.780936
10
9.497038
20
-3.779371
10
9.458260
20
-3.777011
10
9.419539
20
-3.773860
10
9.380890
20
-3.769917
10
9.342330
20
-3.765186
10
9.303874
20
-3.759666
10
9.265540
20
-3.753362
10
9.227342
20
-3.746275
10
9.189298
20
-3.738409
10
9.151422
20
-3.729766
10
9.113731
20
-3.720351
10
9.076240
20
-3.710167
10
9.038965
20
-3.699219
10
9.001922
20
-3.687510
10
8.965126
20
-3.675047
10
8.928592
20
-3.661835
10
8.892337
20
-3.647878
10
8.856374
20
-3.633182
10
8.820719
20
-3.617755
10
8.785387
20
-3.601601
10
8.750393
20
-3.584729
10
8.715751
20
-3.567145
10
8.681476
20
-3.548856
10
8.647582
20
-3.529870
10
8.614083
20
-3.510195
10
8.580993
20
-3.489839
10
8.548327
20
-3.468811
10
8.516097
20
-3.447120
10
8.484318
20
-3.424774
10
8.453002
20
-3.401783
10
8.422162
20
-3.378156
10
8.391813
20
-3.353904
10
8.361965
20
-3.329037
10
8.332632
20
-3.303564
10
8.303826
20
-3.277497
10
8.275559
20
-3.250846
10
8.247843
20
-3.223623
10
8.220689
20
-3.195839
10
8.194109
20
-3.167506
10
8.168114
20
-3.138635
10
8.142715
20
-3.109239
10
8.117922
20
-3.079329
10
8.093745
20
-3.048919
10
8.070196
20
-3.018021
10
8.047283
20
-2.986648
10
8.025016
20
-2.954813
10
8.003405
20
-2.922529
10
7.982459
20
-2.889810
10
7.962185
20
-2.856670
10
7.942594
20
-2.823122
10
7.923693
20
-2.789181
10
7.905489
20
-2.754860
10
7.887991
20
-2.720175
10
7.871206
20
-2.685138
10
7.855141
20
-2.649766
10
7.839803
20
-2.614073
10
7.825197
20
-2.578074
10
7.811330
20
-2.541783
10
7.798209
20
-2.505217
10
7.785838
20
-2.468390
10
7.774222
20
-2.431318
10
7.763367
20
-2.394016
10
7.753276
20
-2.356500
10
7.743955
20
-2.318785
10
7.735407
20
-2.280888
10
7.727635
20
-2.242824
10
7.720644
20
-2.204609
10
7.714435
20
-2.166259
10
7.709012
20
-2.127790
10
7.704376
20
-2.089218
10
7.700530
20
-2.050559
10
7.697475
20
-2.011830
10
7.695212
20
-1.973047
10
7.693743
20
-1.934225
10
7.693068
20
-1.895382
10
7.693188
20
-1.856533
10
7.694102
20
-1.817694
10
7.695809
20
-1.778882
10
7.698310
20
-1.740113
10
7.701603
20
-1.701404
10
7.705686
20
-1.662770
10
7.710559
20
-1.624227
10
7.716219
20
-1.585792
10
7.722663
20
-1.547481
10
7.729890
20
-1.509310
10
7.737895
20
-1.471294
10
7.746676
20
-1.433450
10
7.756229
20
-1.395793
10
7.766550
20
-1.358340
10
7.777634
20
-1.321105
10
7.789477
20
-1.284105
10
7.802075
20
-1.247355
10
7.815421
20
-1.210870
10
7.829510
20
-1.174666
10
7.844337
20
-1.138757
10
7.859895
20
-1.103158
10
7.876177
20
-1.067886
10
7.893177
20
-1.032953
10
7.910888
20
-0.998376
10
7.929302
20
-0.964168
10
7.948411
20
-0.930343
10
7.968209
20
-0.896917
10
7.988685
20
-0.863902
10
8.009832
20
-0.831312
10
8.031641
20
-0.799162
10
8.054103
20
-0.767464
10
8.077209
20
-0.736233
10
8.100948
20
-0.705480
10
8.125311
20
-0.675219
10
8.150287
20
-0.645462
10
8.175867
20
-0.616223
10
8.202039
20
-0.587512
10
8.228792
20
-0.559343
10
8.256117
20
-0.531726
10
8.283999
20
-0.504674
10
8.312430
20
-0.478198
10
8.341395
20
-0.452308
10
8.370884
20
-0.427017
10
8.400884
20
-0.402333
10
8.431382
20
-0.378268
10
8.462366
20
-0.354831
10
8.493823
20
-0.332033
10
8.525739
20
-0.309883
10
8.558102
20
-0.288390
10
8.590897
20
-0.267563
10
8.624111
20
-0.247411
10
8.657730
20
-0.227943
10
8.691740
20
-0.209165
10
8.726127
20
-0.191087
10
8.760876
20
-0.173716
10
8.795974
20
-0.157059
10
8.831404
20
-0.141124
10
8.867153
20
-0.125916
10
8.903206
20
-0.111442
10
8.939547
20
-0.097708
10
8.976161
20
-0.084720
10
9.013033
20
-0.072483
10
9.050147
20
-0.061003
10
9.087488
20
-0.050284
10
9.125041
20
-0.040331
10
9.162789
20
-0.031147
10
9.200718
20
-0.022738
10
9.238810
20
-0.015105
10
9.277050
20
-0.008253
10
9.315423
20
-0.002185
10
9.353911
20
0.003098
10
9.392500
20
0.007593
10
9.431172
20
0.011298
10
9.469912
20
0.014211
10
9.508704
20
0.016332
10
9.547530
20
0.017659
10
9.586376
20
0.018192
10
9.625225
20
0.017931
10
9.664060
20
0.016875
10
9.702865
20
0.015026
10
9.741624
20
0.012383
10
9.780322
20
0.008949
10
10.086430
20
-0.021375
10
5.382713
20
2.077775
10
1.206136
20
0.213874
10
1.206882
20
0.208842
10
1.212866
20
0.156827
10
1.217145
20
0.104645
10
1.219714
20
0.052351
10
1.220571
20
0.000000
10
1.219714
20
-0.052351
0
LWPOLYLINE
8
0
100
AcDbEntity
100
AcDbPolyline
90
18
70
1
10
0.594589
20
1.269365
10
0.635600
20
1.236817
10
0.675524
20
1.202944
10
0.714318
20
1.167783
10
0.751942
20
1.131371
10
0.768926
20
1.113821
10
1.213932
20
1.312416
10
0.907824
20
1.282092
10
0.869127
20
1.278658
10
0.830367
20
1.276015
10
0.791562
20
1.274166
10
0.752727
20
1.273110
10
0.713878
20
1.272849
10
0.675033
20
1.273382
10
0.636206
20
1.274709
10
0.597414
20
1.276830
10
0.583070
20
1.277909
10
0.594589
20
1.269365
0
LWPOLYLINE
8
0
100
AcDbEntity
100
AcDbPolyline
90
183
70
1
10
27.390047
20
-0.983302
10
27.371666
20
-0.982426
10
27.353270
20
-0.981926
10
27.334868
20
-0.981802
10
27.316468
20
-0.982054
10
27.298076
20
-0.982683
10
27.279701
20
-0.983688
10
27.261351
20
-0.985068
10
27.243032
20
-0.986823
10
27.224753
20
-0.988952
10
27.206522
20
-0.991454
10
27.188346
20
-0.994329
10
27.170232
20
-0.997574
10
27.152188
20
-1.001190
10
27.134222
20
-1.005173
10
27.116341
20
-1.009523
10
27.098553
20
-1.014238
10
27.080865
20
-1.019315
10
27.063285
20
-1.024753
10
27.045819
20
-1.030550
10
27.028475
20
-1.036702
10
27.011261
20
-1.043207
10
26.994184
20
-1.050063
10
26.977250
20
-1.057267
10
26.960467
20
-1.064816
10
26.943842
20
-1.072706
10
26.927382
20
-1.080934
10
26.911093
20
-1.089498
10
26.894983
20
-1.098392
10
26.879058
20
-1.107614
10
26.863325
20
-1.117160
10
26.847791
20
-1.127025
10
26.832461
20
-1.137206
10
26.817343
20
-1.147698
10
26.802443
20
-1.158497
10
26.787766
20
-1.169599
10
26.773320
20
-1.180998
10
26.759109
20
-1.192690
10
26.745141
20
-1.204671
10
26.731420
20
-1.216934
10
26.717953
20
-1.229475
10
26.704745
20
-1.242290
10
26.691802
20
-1.255371
10
26.679130
20
-1.268714
10
26.666732
20
-1.282314
10
26.654616
20
-1.296165
10
26.642785
20
-1.310260
10
26.631244
20
-1.324594
10
26.620000
20
-1.339161
10
26.609055
20
-1.353955
10
26.598415
20
-1.368970
10
26.588084
20
-1.384199
10
26.578067
20
-1.399636
10
26.568368
20
-1.415274
10
26.558990
20
-1.431108
10
26.549938
20
-1.447130
10
26.541216
20
-1.463334
10
26.532827
20
-1.479713
10
26.524774
20
-1.496260
10
26.517061
20
-1.512968
10
26.509692
20
-1.529830
10
26.502669
20
-1.546840
10
26.495995
20
-1.563989
10
26.489673
20
-1.581272
10
26.483706
20
-1.598680
10
26.478096
20
-1.616206
10
26.472845
20
-1.633843
10
26.467956
20
-1.651584
10
26.463431
20
-1.669422
10
26.459272
20
-1.687348
10
26.455480
20
-1.705355
10
26.452057
20
-1.723436
10
26.449004
20
-1.741584
10
26.446323
20
-1.759790
10
26.444015
20
-1.778047
10
26.442081
20
-1.796347
10
26.440521
20
-1.814683
10
26.439337
20
-1.833048
10
26.438528
20
-1.851432
10
26.438095
20
-1.869829
10
26.438038
20
-1.888232
10
26.438358
20
-1.906631
10
26.439054
20
-1.925020
10
26.440126
20
-1.943391
10
26.441573
20
-1.961737
10
26.443395
20
-1.980049
10
26.445590
20
-1.998320
10
26.448159
20
-2.016542
10
26.451100
20
-2.034708
10
26.454412
20
-2.052809
10
26.458093
20
-2.070840
10
26.462143
20
-2.088791
10
26.466558
20
-2.106656
10
26.471337
20
-2.124427
10
26.476479
20
-2.142096
10
26.481982
20
-2.159657
10
26.487842
20
-2.177101
10
26.494057
20
-2.194422
10
26.500626
20
-2.211612
10
26.507544
20
-2.228664
10
26.514810
20
-2.245572
10
26.522420
20
-2.262327
10
26.530370
20
-2.278923
10
26.538659
20
-2.295353
10
26.547281
20
-2.311610
10
26.556235
20
-2.327688
10
26.565515
20
-2.343579
10
26.575118
20
-2.359277
10
26.585040
20
-2.374775
10
26.595277
20
-2.390067
10
26.605824
20
-2.405147
10
26.616678
20
-2.420008
10
26.627833
20
-2.434644
10
26.639285
20
-2.449049
10
26.651029
20
-2.463217
10
26.663060
20
-2.477141
10
26.675373
20
-2.490817
10
26.687964
20
-2.504238
10
26.700826
20
-2.517399
10
26.713955
20
-2.530294
10
26.727345
20
-2.542918
10
26.740990
20
-2.555265
10
26.754884
20
-2.567331
10
26.769022
20
-2.579111
10
26.783399
20
-2.590598
10
26.798007
20
-2.601790
10
26.812841
20
-2.612680
10
26.827894
20
-2.623265
10
26.843161
20
-2.633540
10
26.858634
20
-2.643501
10
26.874308
20
-2.653143
10
26.890176
20
-2.662463
10
26.906231
20
-2.671456
10
26.922467
20
-2.680119
10
26.938876
20
-2.688449
10
26.955452
20
-2.696441
10
26.972189
20
-2.704092
10
26.989078
20
-2.711400
10
27.006113
20
-2.718361
10
27.023287
20
-2.724972
10
27.040592
20
-2.731231
10
27.058022
20
-2.737135
10
27.075568
20
-2.742681
10
27.093225
20
-2.747867
10
27.110984
20
-2.752691
10
27.128837
20
-2.757150
10
27.146779
20
-2.761244
10
27.164800
20
-2.764970
10
27.182893
20
-2.768327
10
27.201052
20
-2.771314
10
27.219267
20
-2.773928
10
27.237533
20
-2.776170
10
27.255840
20
-2.778037
10
27.274182
20
-2.779530
10
27.292550
20
-2.780647
10
27.310937
20
-2.781389
10
27.329336
20
-2.781755
10
27.347738
20
-2.781744
10
27.366137
20
-2.781357
10
27.384523
20
-2.780594
10
27.402890
20
-2.779455
10
27.421230
20
-2.777941
10
27.439535
20
-2.776052
10
27.457798
20
-2.773790
10
27.476011
20
-2.771154
10
27.494166
20
-2.768147
10
27.512255
20
-2.764769
10
27.530272
20
-2.761022
10
27.548209
20
-2.756907
10
27.566057
20
-2.752427
10
27.583810
20
-2.747582
10
27.601461
20
-2.742376
10
27.619001
20
-2.736809
10
27.636424
20
-2.730886
10
27.653722
20
-2.724607
10
27.670888
20
-2.717976
10
27.687915
20
-2.710995
10
27.704796
20
-2.703668
10
30.773314
20
-1.334265
10
30.725605
20
-1.312974
10
27.426737
20
-0.986180
10
27.408407
20
-0.984553
10
27.390047
20
-0.983302
0
LWPOLYLINE
8
0
100
AcDbEntity
100
AcDbPolyline
90
183
70
1
10
18.763926
20
4.021926
10
18.746503
20
4.027850
10
18.728963
20
4.033417
10
18.711313
20
4.038623
10
18.693559
20
4.043468
10
18.675711
20
4.047948
10
18.657774
20
4.052063
10
18.639758
20
4.055810
10
18.621668
20
4.059188
10
18.603513
20
4.062195
10
18.585300
20
4.064831
10
18.567038
20
4.067093
10
18.548733
20
4.068982
10
18.530393
20
4.070496
10
18.512026
20
4.071635
10
18.493639
20
4.072398
10
18.475241
20
4.072785
10
18.456838
20
4.072796
10
18.438440
20
4.072430
10
18.420052
20
4.071688
10
18.401684
20
4.070571
10
18.383342
20
4.069078
10
18.365035
20
4.067210
10
18.346770
20
4.064969
10
18.328554
20
4.062355
10
18.310395
20
4.059368
10
18.292302
20
4.056011
10
18.274281
20
4.052285
10
18.256340
20
4.048191
10
18.238486
20
4.043732
10
18.220727
20
4.038908
10
18.203071
20
4.033722
10
18.185524
20
4.028176
10
18.168094
20
4.022272
10
18.150789
20
4.016013
10
18.133615
20
4.009402
10
18.116580
20
4.002441
10
18.099691
20
3.995133
10
18.082955
20
3.987482
10
18.066378
20
3.979490
10
18.049969
20
3.971160
10
18.033733
20
3.962497
10
18.017678
20
3.953504
10
18.001811
20
3.944184
10
17.986137
20
3.934542
10
17.970663
20
3.924581
10
17.955396
20
3.914306
10
17.940343
20
3.903721
10
17.925509
20
3.892831
10
17.910901
20
3.881639
10
17.896525
20
3.870152
10
17.882386
20
3.858372
10
17.868492
20
3.846306
10
17.854847
20
3.833959
10
17.841457
20
3.821335
10
17.828329
20
3.808440
10
17.815466
20
3.795279
10
17.802876
20
3.781858
10
17.790562
20
3.768182
10
17.778531
20
3.754257
10
17.766787
20
3.740090
10
17.755335
20
3.725685
10
17.744180
20
3.711049
10
17.733326
20
3.696188
10
17.722779
20
3.681108
10
17.712542
20
3.665816
10
17.702620
20
3.650318
10
17.693017
20
3.634620
10
17.683737
20
3.618729
10
17.674784
20
3.602651
10
17.666161
20
3.586394
10
17.657873
20
3.569964
10
17.649922
20
3.553368
10
17.642312
20
3.536613
10
17.635046
20
3.519705
10
17.628128
20
3.502653
10
17.621559
20
3.485463
10
17.615344
20
3.468142
10
17.609484
20
3.450698
10
17.603982
20
3.433137
10
17.598840
20
3.415468
10
17.594060
20
3.397697
10
17.589645
20
3.379832
10
17.585596
20
3.361881
10
17.581914
20
3.343850
10
17.578603
20
3.325748
10
17.575662
20
3.307583
10
17.573093
20
3.289361
10
17.570897
20
3.271090
10
17.569075
20
3.252778
10
17.567628
20
3.234432
10
17.566556
20
3.216061
10
17.565860
20
3.197672
10
17.565541
20
3.179273
10
17.565597
20
3.160870
10
17.566030
20
3.142473
10
17.566839
20
3.124088
10
17.568023
20
3.105724
10
17.569583
20
3.087388
10
17.571518
20
3.069088
10
17.573826
20
3.050831
10
17.576507
20
3.032625
10
17.579559
20
3.014477
10
17.582982
20
2.996396
10
17.586774
20
2.978389
10
17.590934
20
2.960463
10
17.595459
20
2.942625
10
17.600348
20
2.924884
10
17.605598
20
2.907247
10
17.611208
20
2.889721
10
17.617175
20
2.872312
10
17.623497
20
2.855030
10
17.630171
20
2.837881
10
17.637194
20
2.820871
10
17.644564
20
2.804009
10
17.652276
20
2.787301
10
17.660329
20
2.770754
10
17.668718
20
2.754375
10
17.677441
20
2.738171
10
17.686493
20
2.722149
10
17.695870
20
2.706315
10
17.705570
20
2.690677
10
17.715587
20
2.675240
10
17.725917
20
2.660011
10
17.736557
20
2.644996
10
17.747502
20
2.630202
10
17.758747
20
2.615635
10
17.770287
20
2.601301
10
17.782118
20
2.587205
10
17.794235
20
2.573355
10
17.806632
20
2.559755
10
17.819305
20
2.546412
10
17.832248
20
2.533330
10
17.845455
20
2.520516
10
17.858922
20
2.507975
10
17.872643
20
2.495711
10
17.886611
20
2.483731
10
17.900822
20
2.472039
10
17.915268
20
2.460640
10
17.929945
20
2.449538
10
17.944845
20
2.438739
10
17.959964
20
2.428247
10
17.975293
20
2.418066
10
17.990828
20
2.408201
10
18.006561
20
2.398655
10
18.022486
20
2.389433
10
18.038596
20
2.380538
10
18.054884
20
2.371975
10
18.071344
20
2.363747
10
18.087969
20
2.355857
10
18.104752
20
2.348308
10
18.121686
20
2.341104
10
18.138764
20
2.334248
10
18.155978
20
2.327743
10
18.173321
20
2.321591
10
18.190787
20
2.315794
10
18.208367
20
2.310356
10
18.226055
20
2.305279
10
18.243843
20
2.300564
10
18.261724
20
2.296214
10
18.279690
20
2.292231
10
18.297734
20
2.288615
10
18.315848
20
2.285370
10
18.334024
20
2.282495
10
18.352256
20
2.279993
10
18.370534
20
2.277864
10
18.388853
20
2.276109
10
18.407203
20
2.274729
10
18.425578
20
2.273724
10
18.443970
20
2.273095
10
18.462371
20
2.272843
10
18.480772
20
2.272967
10
18.499168
20
2.273467
10
18.517549
20
2.274343
10
18.535909
20
2.275594
10
18.554239
20
2.277221
10
21.853107
20
2.604015
10
21.900816
20
2.625306
10
18.832298
20
3.994709
10
18.815417
20
4.002036
10
18.798390
20
4.009017
10
18.781224
20
4.015648
10
18.763926
20
4.021926
0
LWPOLYLINE
8
0
100
AcDbEntity
100
AcDbPolyline
90
183
70
1
10
9.626670
20
-0.982426
10
9.608275
20
-0.981926
10
9.589873
20
-0.981802
10
9.571472
20
-0.982054
10
9.553081
20
-0.982683
10
9.534706
20
-0.983688
10
9.516355
20
-0.985068
10
9.498037
20
-0.986823
10
9.479758
20
-0.988952
10
9.461527
20
-0.991454
10
9.443350
20
-0.994329
10
9.425236
20
-0.997574
10
9.407193
20
-1.001190
10
9.389227
20
-1.005173
10
9.371346
20
-1.009523
10
9.353558
20
-1.014238
10
9.335870
20
-1.019315
10
9.318289
20
-1.024753
10
9.300823
20
-1.030550
10
9.283480
20
-1.036702
10
9.266266
20
-1.043207
10
9.249188
20
-1.050063
10
9.232255
20
-1.057267
10
9.215472
20
-1.064816
10
9.198847
20
-1.072706
10
9.182386
20
-1.080934
10
9.166098
20
-1.089498
10
9.149988
20
-1.098392
10
9.134063
20
-1.107614
10
9.118330
20
-1.117160
10
9.102795
20
-1.127025
10
9.087466
20
-1.137206
10
9.072348
20
-1.147698
10
9.057447
20
-1.158497
10
9.042771
20
-1.169599
10
9.028324
20
-1.180998
10
9.014114
20
-1.192690
10
9.000145
20
-1.204671
10
8.986425
20
-1.216934
10
8.972958
20
-1.229475
10
8.959750
20
-1.242290
10
8.946807
20
-1.255371
10
8.934134
20
-1.268714
10
8.921737
20
-1.282314
10
8.909620
20
-1.296165
10
8.897789
20
-1.310260
10
8.886249
20
-1.324594
10
8.875004
20
-1.339161
10
8.864059
20
-1.353955
10
8.853420
20
-1.368970
10
8.843089
20
-1.384199
10
8.833072
20
-1.399636
10
8.823372
20
-1.415274
10
8.813995
20
-1.431108
10
8.804943
20
-1.447130
10
8.796220
20
-1.463334
10
8.787831
20
-1.479713
10
8.779778
20
-1.496260
10
8.772066
20
-1.512968
10
8.764696
20
-1.529830
10
8.757673
20
-1.546840
10
8.750999
20
-1.563989
10
8.744677
20
-1.581272
10
8.738710
20
-1.598680
10
8.733100
20
-1.616206
10
8.727850
20
-1.633843
10
8.722961
20
-1.651584
10
8.718436
20
-1.669422
10
8.714277
20
-1.687348
10
8.710485
20
-1.705355
10
8.707062
20
-1.723436
10
8.704009
20
-1.741584
10
8.701328
20
-1.759790
10
8.699020
20
-1.778047
10
8.697085
20
-1.796347
10
8.695526
20
-1.814683
10
8.694341
20
-1.833048
10
8.693532
20
-1.851432
10
8.693099
20
-1.869829
10
8.693043
20
-1.888232
10
8.693363
20
-1.906631
10
8.694058
20
-1.925020
10
8.695130
20
-1.943391
10
8.696577
20
-1.961737
10
8.698399
20
-1.980049
10
8.700595
20
-1.998320
10
8.703164
20
-2.016542
10
8.706105
20
-2.034708
10
8.709417
20
-2.052809
10
8.713098
20
-2.070840
10
8.717147
20
-2.088791
10
8.721562
20
-2.106656
10
8.726342
20
-2.124427
10
8.731484
20
-2.142096
10
8.736986
20
-2.159657
10
8.742846
20
-2.177101
10
8.749062
20
-2.194422
10
8.755630
20
-2.211612
10
8.762549
20
-2.228664
10
8.769814
20
-2.245572
10
8.777424
20
-2.262327
10
8.785375
20
-2.278923
10
8.793663
20
-2.295353
10
8.802286
20
-2.311610
10
8.811239
20
-2.327688
10
8.820519
20
-2.343579
10
8.830122
20
-2.359277
10
8.840044
20
-2.374775
10
8.850281
20
-2.390067
10
8.860829
20
-2.405147
10
8.871682
20
-2.420008
10
8.882837
20
-2.434644
10
8.894289
20
-2.449049
10
8.906033
20
-2.463217
10
8.918064
20
-2.477141
10
8.930378
20
-2.490817
10
8.942969
20
-2.504238
10
8.955831
20
-2.517399
10
8.968960
20
-2.530294
10
8.982349
20
-2.542918
10
8.995994
20
-2.555265
10
9.009889
20
-2.567331
10
9.024027
20
-2.579111
10
9.038403
20
-2.590598
10
9.053011
20
-2.601790
10
9.067845
20
-2.612680
10
9.082898
20
-2.623265
10
9.098165
20
-2.633540
10
9.113639
20
-2.643501
10
9.129313
20
-2.653143
10
9.145181
20
-2.662463
10
9.161236
20
-2.671456
10
9.177471
20
-2.680119
10
9.193881
20
-2.688449
10
9.210457
20
-2.696441
10
9.227193
20
-2.704092
10
9.244082
20
-2.711400
10
9.261117
20
-2.718361
10
9.278291
20
-2.724972
10
9.295596
20
-2.731231
10
9.313026
20
-2.737135
10
9.330573
20
-2.742681
10
9.348229
20
-2.747867
10
9.365988
20
-2.752691
10
9.383842
20
-2.757150
10
9.401783
20
-2.761244
10
9.419804
20
-2.764970
10
9.437898
20
-2.768327
10
9.456056
20
-2.771314
10
9.474272
20
-2.773928
10
9.492537
20
-2.776170
10
9.510844
20
-2.778037
10
9.529186
20
-2.779530
10
9.547555
20
-2.780647
10
9.565942
20
-2.781389
10
9.584341
20
-2.781755
10
9.602743
20
-2.781744
10
9.621141
20
-2.781357
10
9.639528
20
-2.780594
10
9.657895
20
-2.779455
10
9.676235
20
-2.777941
10
9.694540
20
-2.776052
10
9.712803
20
-2.773790
10
9.731015
20
-2.771154
10
9.749170
20
-2.768147
10
9.767260
20
-2.764769
10
9.785277
20
-2.761022
10
9.803213
20
-2.756907
10
9.821062
20
-2.752427
10
9.838815
20
-2.747582
10
9.856465
20
-2.742376
10
9.874006
20
-2.736809
10
9.891428
20
-2.730886
10
9.908727
20
-2.724607
10
9.925893
20
-2.717976
10
9.942920
20
-2.710995
10
9.959800
20
-2.703668
10
13.028319
20
-1.334265
10
12.980609
20
-1.312974
10
9.681742
20
-0.986180
10
9.663411
20
-0.984553
10
9.645052
20
-0.983302
10
9.626670
20
-0.982426
0
LWPOLYLINE
8
0
100
AcDbEntity
100
AcDbPolyline
90
183
70
1
10
1.018931
20
4.021926
10
1.001508
20
4.027850
10
0.983968
20
4.033417
10
0.966317
20
4.038623
10
0.948564
20
4.043468
10
0.930715
20
4.047948
10
0.912779
20
4.052063
10
0.894762
20
4.055810
10
0.876672
20
4.059188
10
0.858518
20
4.062195
10
0.840305
20
4.064831
10
0.822042
20
4.067093
10
0.803737
20
4.068982
10
0.785397
20
4.070496
10
0.767030
20
4.071635
10
0.748644
20
4.072398
10
0.730245
20
4.072785
10
0.711843
20
4.072796
10
0.693444
20
4.072430
10
0.675057
20
4.071688
10
0.656688
20
4.070571
10
0.638347
20
4.069078
10
0.620039
20
4.067210
10
0.601774
20
4.064969
10
0.583558
20
4.062355
10
0.565400
20
4.059368
10
0.547306
20
4.056011
10
0.529285
20
4.052285
10
0.511344
20
4.048191
10
0.493490
20
4.043732
10
0.475732
20
4.038908
10
0.458075
20
4.033722
10
0.440528
20
4.028176
10
0.423099
20
4.022272
10
0.405793
20
4.016013
10
0.388619
20
4.009402
10
0.371584
20
4.002441
10
0.354695
20
3.995133
10
0.337959
20
3.987482
10
0.321383
20
3.979490
10
0.304974
20
3.971160
10
0.288738
20
3.962497
10
0.272683
20
3.953504
10
0.256815
20
3.944184
10
0.241141
20
3.934542
10
0.225667
20
3.924581
10
0.210401
20
3.914306
10
0.195347
20
3.903721
10
0.180513
20
3.892831
10
0.165905
20
3.881639
10
0.151529
20
3.870152
10
0.137391
20
3.858372
10
0.123496
20
3.846306
10
0.109851
20
3.833959
10
0.096462
20
3.821335
10
0.083333
20
3.808440
10
0.070471
20
3.795279
10
0.057880
20
3.781858
10
0.045567
20
3.768182
10
0.033535
20
3.754257
10
0.021791
20
3.740090
10
0.010339
20
3.725685
10
-0.000816
20
3.711049
10
-0.011669
20
3.696188
10
-0.022217
20
3.681108
10
-0.032453
20
3.665816
10
-0.042375
20
3.650318
10
-0.051978
20
3.634620
10
-0.061259
20
3.618729
10
-0.070212
20
3.602651
10
-0.078834
20
3.586394
10
-0.087123
20
3.569964
10
-0.095074
20
3.553368
10
-0.102684
20
3.536613
10
-0.109949
20
3.519705
10
-0.116868
20
3.502653
10
-0.123436
20
3.485463
10
-0.129652
20
3.468142
10
-0.135512
20
3.450698
10
-0.141014
20
3.433137
10
-0.146156
20
3.415468
10
-0.150935
20
3.397697
10
-0.155351
20
3.379832
10
-0.159400
20
3.361881
10
-0.163081
20
3.343850
10
-0.166393
20
3.325748
10
-0.169334
20
3.307583
10
-0.171903
20
3.289361
10
-0.174099
20
3.271090
10
-0.175921
20
3.252778
10
-0.177368
20
3.234432
10
-0.178439
20
3.216061
10
-0.179135
20
3.197672
10
-0.179455
20
3.179273
10
-0.179398
20
3.160870
10
-0.178966
20
3.142473
10
-0.178157
20
3.124088
10
-0.176972
20
3.105724
10
-0.175412
20
3.087388
10
-0.173478
20
3.069088
10
-0.171170
20
3.050831
10
-0.168489
20
3.032625
10
-0.165436
20
3.014477
10
-0.162013
20
2.996396
10
-0.158221
20
2.978389
10
-0.154062
20
2.960463
10
-0.149537
20
2.942625
10
-0.144648
20
2.924884
10
-0.139397
20
2.907247
10
-0.133787
20
2.889721
10
-0.127820
20
2.872312
10
-0.121498
20
2.855030
10
-0.114825
20
2.837881
10
-0.107801
20
2.820871
10
-0.100432
20
2.804009
10
-0.092719
20
2.787301
10
-0.084667
20
2.770754
10
-0.076277
20
2.754375
10
-0.067555
20
2.738171
10
-0.058503
20
2.722149
10
-0.049125
20
2.706315
10
-0.039426
20
2.690677
10
-0.029409
20
2.675240
10
-0.019078
20
2.660011
10
-0.008438
20
2.644996
10
0.002506
20
2.630202
10
0.013751
20
2.615635
10
0.025291
20
2.601301
10
0.037122
20
2.587205
10
0.049239
20
2.573355
10
0.061636
20
2.559755
10
0.074309
20
2.546412
10
0.087252
20
2.533330
10
0.100460
20
2.520516
10
0.113927
20
2.507975
10
0.127647
20
2.495711
10
0.141616
20
2.483731
10
0.155826
20
2.472039
10
0.170273
20
2.460640
10
0.184949
20
2.449538
10
0.199850
20
2.438739
10
0.214968
20
2.428247
10
0.230298
20
2.418066
10
0.245832
20
2.408201
10
0.261565
20
2.398655
10
0.277490
20
2.389433
10
0.293600
20
2.380538
10
0.309889
20
2.371975
10
0.326349
20
2.363747
10
0.342974
20
2.355857
10
0.359757
20
2.348308
10
0.376691
20
2.341104
10
0.393768
20
2.334248
10
0.410982
20
2.327743
10
0.428326
20
2.321591
10
0.445791
20
2.315794
10
0.463372
20
2.310356
10
0.481060
20
2.305279
10
0.498848
20
2.300564
10
0.516729
20
2.296214
10
0.534695
20
2.292231
10
0.552738
20
2.288615
10
0.570852
20
2.285370
10
0.589029
20
2.282495
10
0.607260
20
2.279993
10
0.625539
20
2.277864
10
0.643857
20
2.276109
10
0.662208
20
2.274729
10
0.680583
20
2.273724
10
0.698974
20
2.273095
10
0.717375
20
2.272843
10
0.735777
20
2.272967
10
0.754172
20
2.273467
10
0.772554
20
2.274343
10
0.790914
20
2.275594
10
0.809244
20
2.277221
10
4.108111
20
2.604015
10
4.155821
20
2.625306
10
1.087302
20
3.994709
10
1.070422
20
4.002036
10
1.053395
20
4.009017
10
1.036229
20
4.015648
10
1.018931
20
4.021926
0
ENDSEC
0
EOF
