999
gamboa valve valve only, w_v = 1.0 mm
0
SECTION
2
HEADER
9
$INSUNITS
70
4
0
ENDSEC
0
SECTION
2
ENTITIES
0
LWPOLYLINE
8
0
100
AcDbEntity
100
AcDbPolyline
90
251
70
1
10
7.840935
20
-0.162759
10
8.143524
20
-0.500000
10
9.581778
20
-2.102960
10
8.837466
20
-2.770792
10
6.800001
20
-0.500000
10
-0.500000
20
-0.500000
10
-0.500000
20
0.500000
10
1.600000
20
0.500000
10
1.238974
20
0.620046
10
1.204912
20
0.631662
10
1.171033
20
0.643798
10
1.137343
20
0.656452
10
1.103851
20
0.669621
10
1.070564
20
0.683300
10
1.037491
20
0.697488
10
1.004639
20
0.712181
10
0.972016
20
0.727375
10
0.939629
20
0.743067
10
0.907486
20
0.759253
10
0.875595
20
0.775929
10
0.843963
20
0.793091
10
0.812598
20
0.810737
10
0.781507
20
0.828860
10
0.750696
20
0.847457
10
0.720174
20
0.866524
10
0.689948
20
0.886056
10
0.660025
20
0.906049
10
0.630411
20
0.926497
10
0.601113
20
0.947397
10
0.572139
20
0.968743
10
0.543496
20
0.990530
10
0.515189
20
1.012753
10
0.487226
20
1.035407
10
0.459613
20
1.058486
10
0.432357
20
1.081986
10
0.405464
20
1.105900
10
0.378940
20
1.130224
10
0.352792
20
1.154950
10
0.327026
20
1.180074
10
0.301647
20
1.205590
10
0.276662
20
1.231492
10
0.252077
20
1.257773
10
0.227897
20
1.284427
10
0.204128
20
1.311449
10
0.180776
20
1.338831
10
0.157845
20
1.366568
10
0.135342
20
1.394653
10
0.113272
20
1.423079
10
0.091640
20
1.451839
10
0.070450
20
1.480928
10
0.049709
20
1.510337
10
0.029420
20
1.540061
10
0.009589
20
1.570092
10
-0.009779
20
1.600423
10
-0.028682
20
1.631047
10
-0.047112
20
1.661958
10
-0.065068
20
1.693146
10
-0.082544
20
1.724606
10
-0.099535
20
1.756330
10
-0.116040
20
1.788311
10
-0.132052
20
1.820540
10
-0.147569
20
1.853011
10
-0.162587
20
1.885715
10
-0.177102
20
1.918646
10
-0.191112
20
1.951795
10
-0.204612
20
1.985155
10
-0.217599
20
2.018718
10
-0.230071
20
2.052475
10
-0.242025
20
2.086420
10
-0.253458
20
2.120544
10
-0.264366
20
2.154839
10
-0.274748
20
2.189296
10
-0.284602
20
2.223909
10
-0.293924
20
2.258669
10
-0.302713
20
2.293567
10
-0.310966
20
2.328596
10
-0.318682
20
2.363747
10
-0.325858
20
2.399012
10
-0.332494
20
2.434383
10
-0.338587
20
2.469851
10
-0.344137
20
2.505409
10
-0.349141
20
2.541047
10
-0.353599
20
2.576758
10
-0.357510
20
2.612532
10
-0.360872
20
2.648363
10
-0.363685
20
2.684241
10
-0.365949
20
2.720157
10
-0.367662
20
2.756105
10
-0.368825
20
2.792074
10
-0.369436
20
2.828056
10
-0.369497
20
2.864044
10
-0.369006
20
2.900029
10
-0.367965
20
2.936002
10
-0.366372
20
2.971954
10
-0.364229
20
3.007879
10
-0.361537
20
3.043766
10
-0.358295
20
3.079607
10
-0.354505
20
3.115395
10
-0.350167
20
3.151121
10
-0.345282
20
3.186775
10
-0.339852
20
3.222351
10
-0.333878
20
3.257840
10
-0.327361
20
3.293233
10
-0.320303
20
3.328522
10
-0.312705
20
3.363699
10
-0.304570
20
3.398755
10
-0.295899
20
3.433683
10
-0.286694
20
3.468473
10
-0.276957
20
3.503119
10
-0.266690
20
3.537612
10
-0.255897
20
3.571943
10
-0.244579
20
3.606105
10
-0.232740
20
3.640089
10
-0.220381
20
3.673889
10
-0.207506
20
3.707495
10
-0.194119
20
3.740900
10
-0.180221
20
3.774096
10
-0.165816
20
3.807075
10
-0.150908
20
3.839830
10
-0.135500
20
3.872353
10
-0.119596
20
3.904636
10
-0.103200
20
3.936672
10
-0.086315
20
3.968453
10
-0.068945
20
3.999971
10
-0.051095
20
4.031220
10
-0.032768
20
4.062192
10
-0.013969
20
4.092880
10
0.005298
20
4.123276
10
0.025028
20
4.153373
10
0.045217
20
4.183165
10
0.065859
20
4.212644
10
0.086951
20
4.241804
10
0.108486
20
4.270637
10
0.130461
20
4.299137
10
0.152869
20
4.327297
10
0.175706
20
4.355111
10
0.198966
20
4.382572
10
0.222644
20
4.409673
10
0.246735
20
4.436408
10
0.271231
20
4.462772
10
0.296129
20
4.488757
10
0.321422
20
4.514358
10
0.347104
20
4.539569
10
0.373169
20
4.564383
10
0.399610
20
4.588796
10
0.426423
20
4.612800
10
0.453600
20
4.636391
10
0.481135
20
4.659564
10
0.509022
20
4.682311
10
0.537253
20
4.704630
10
0.565824
20
4.726513
10
0.594725
20
4.747956
10
0.623952
20
4.768954
10
0.653498
20
4.789502
10
0.683354
20
4.809595
10
0.713514
20
4.829228
10
0.743972
20
4.848398
10
0.774719
20
4.867099
10
0.805750
20
4.885326
10
0.837056
20
4.903077
10
0.868630
20
4.920346
10
0.900464
20
4.937129
10
0.932552
20
4.953423
10
0.964886
20
4.969223
10
0.997458
20
4.984527
10
1.030261
20
4.999330
10
1.063286
20
5.013629
10
1.096526
20
5.027420
10
1.129974
20
5.040701
10
1.163621
20
5.053468
10
1.197460
20
5.065719
10
1.231482
20
5.077449
10
1.265680
20
5.088658
10
1.300046
20
5.099341
10
1.334571
20
5.109497
10
1.369248
20
5.119123
10
1.404068
20
5.128217
10
1.439023
20
5.136776
10
1.474105
20
5.144799
10
1.509306
20
5.152284
10
1.544618
20
5.159229
10
1.580031
20
5.165633
10
1.615539
20
5.171493
10
1.651132
20
5.176809
10
1.686802
20
5.181580
10
1.722541
20
5.185803
10
1.758341
20
5.189479
10
1.794193
20
5.192606
10
1.830088
20
5.195184
10
1.866019
20
5.197212
10
1.901977
20
5.198689
10
1.937953
20
5.199616
10
1.973939
20
5.199991
10
2.009926
20
5.199815
10
2.045907
20
5.199089
10
2.081872
20
5.197811
10
2.117814
20
5.195983
10
2.153723
20
5.193604
10
2.189591
20
5.190676
10
2.225411
20
5.187199
10
2.261173
20
5.183174
10
2.296869
20
5.178602
10
2.332492
20
5.173483
10
2.368031
20
5.167820
10
2.403480
20
5.161613
10
2.438829
20
5.154864
10
2.474071
20
5.147575
10
2.509197
20
5.139746
10
2.544199
20
5.131381
10
2.579069
20
5.122481
10
2.613799
20
5.113047
10
2.648380
20
5.103083
10
2.682804
20
5.092591
10
2.717064
20
5.081573
10
2.751151
20
5.070031
10
2.785057
20
5.057969
10
2.818775
20
5.045388
10
2.852296
20
5.032293
10
2.885612
20
5.018687
10
2.918716
20
5.004571
10
2.951601
20
4.989951
10
2.984257
20
4.974828
10
3.016678
20
4.959207
10
3.048856
20
4.943092
10
3.080783
20
4.926485
10
3.112453
20
4.909392
10
3.143857
20
4.891816
10
3.174988
20
4.873761
10
3.205838
20
4.855231
10
3.236402
20
4.836231
10
3.266671
20
4.816765
10
3.296638
20
4.796838
10
3.326297
20
4.776454
10
3.355640
20
4.755619
10
3.384661
20
4.734336
10
3.413352
20
4.712612
10
3.441707
20
4.690451
10
3.469720
20
4.667858
10
3.497383
20
4.644839
10
3.524690
20
4.621399
10
3.551636
20
4.597544
10
3.578213
20
4.573279
10
3.604415
20
4.548610
10
3.630236
20
4.523542
10
3.655671
20
4.498082
10
3.680712
20
4.472235
10
3.705355
20
4.446008
10
3.729593
20
4.419407
10
6.647064
20
1.167833
10
7.246276
20
0.500000
10
7.840935
20
-0.162759
0
LWPOLYLINE
8
0
100
AcDbEntity
100
AcDbPolyline
90
243
70
1
10
5.902752
20
0.500000
10
2.985282
20
3.751574
10
2.971358
20
3.766856
10
2.957201
20
3.781922
10
2.942816
20
3.796770
10
2.928204
20
3.811396
10
2.913371
20
3.825797
10
2.898318
20
3.839969
10
2.883051
20
3.853908
10
2.867572
20
3.867612
10
2.851884
20
3.881078
10
2.835993
20
3.894302
10
2.819900
20
3.907280
10
2.803611
20
3.920011
10
2.787129
20
3.932491
10
2.770458
20
3.944717
10
2.753601
20
3.956686
10
2.736563
20
3.968396
10
2.719348
20
3.979844
10
2.701959
20
3.991026
10
2.684401
20
4.001941
10
2.666678
20
4.012586
10
2.648795
20
4.022958
10
2.630754
20
4.033055
10
2.612561
20
4.042875
10
2.594220
20
4.052414
10
2.575735
20
4.061672
10
2.557110
20
4.070646
10
2.538350
20
4.079333
10
2.519459
20
4.087732
10
2.500442
20
4.095841
10
2.481302
20
4.103658
10
2.462046
20
4.111181
10
2.442676
20
4.118407
10
2.423198
20
4.125337
10
2.403616
20
4.131967
10
2.383935
20
4.138297
10
2.364159
20
4.144324
10
2.344294
20
4.150048
10
2.324343
20
4.155468
10
2.304311
20
4.160581
10
2.284203
20
4.165386
10
2.264024
20
4.169883
10
2.243779
20
4.174071
10
2.223472
20
4.177948
10
2.203108
20
4.181514
10
2.182691
20
4.184767
10
2.162228
20
4.187707
10
2.141721
20
4.190334
10
2.121177
20
4.192646
10
2.100600
20
4.194644
10
2.079995
20
4.196326
10
2.059366
20
4.197692
10
2.038719
20
4.198742
10
2.018058
20
4.199476
10
1.997388
20
4.199894
10
1.976714
20
4.199995
10
1.956042
20
4.199779
10
1.935374
20
4.199247
10
1.914718
20
4.198398
10
1.894077
20
4.197233
10
1.873456
20
4.195753
10
1.852860
20
4.193956
10
1.832295
20
4.191844
10
1.811764
20
4.189418
10
1.791272
20
4.186678
10
1.770825
20
4.183624
10
1.750427
20
4.180257
10
1.730083
20
4.176579
10
1.709798
20
4.172589
10
1.689576
20
4.168289
10
1.669422
20
4.163680
10
1.649342
20
4.158763
10
1.629339
20
4.153539
10
1.609418
20
4.148009
10
1.589584
20
4.142175
10
1.569842
20
4.136037
10
1.550197
20
4.129599
10
1.530652
20
4.122860
10
1.511213
20
4.115822
10
1.491883
20
4.108488
10
1.472669
20
4.100858
10
1.453573
20
4.092936
10
1.434601
20
4.084721
10
1.415757
20
4.076218
10
1.397046
20
4.067426
10
1.378471
20
4.058349
10
1.360038
20
4.048989
10
1.341749
20
4.039347
10
1.323611
20
4.029427
10
1.305627
20
4.019230
10
1.287801
20
4.008759
10
1.270138
20
3.998016
10
1.252641
20
3.987004
10
1.235314
20
3.975725
10
1.218163
20
3.964182
10
1.201190
20
3.952378
10
1.184400
20
3.940315
10
1.167797
20
3.927997
10
1.151384
20
3.915425
10
1.135166
20
3.902604
10
1.119146
20
3.889537
10
1.103328
20
3.876225
10
1.087716
20
3.862672
10
1.072313
20
3.848883
10
1.057123
20
3.834858
10
1.042149
20
3.820603
10
1.027396
20
3.806121
10
1.012866
20
3.791414
10
0.998563
20
3.776486
10
0.984491
20
3.761341
10
0.970652
20
3.745982
10
0.957049
20
3.730413
10
0.943687
20
3.714638
10
0.930568
20
3.698660
10
0.917695
20
3.682483
10
0.905071
20
3.666111
10
0.892700
20
3.649547
10
0.880583
20
3.632796
10
0.868725
20
3.615861
10
0.857127
20
3.598746
10
0.845793
20
3.581456
10
0.834725
20
3.563995
10
0.823926
20
3.546366
10
0.813397
20
3.528573
10
0.803143
20
3.510622
10
0.793164
20
3.492515
10
0.783464
20
3.474258
10
0.774045
20
3.455855
10
0.764909
20
3.437309
10
0.756058
20
3.418626
10
0.747493
20
3.399809
10
0.739218
20
3.380864
10
0.731235
20
3.361794
10
0.723544
20
3.342603
10
0.716148
20
3.323298
10
0.709048
20
3.303881
10
0.702246
20
3.284358
10
0.695745
20
3.264733
10
0.689544
20
3.245011
10
0.683647
20
3.225196
10
0.678053
20
3.205293
10
0.672765
20
3.185307
10
0.667784
20
3.165242
10
0.663110
20
3.145104
10
0.658746
20
3.124896
10
0.654691
20
3.104623
10
0.650947
20
3.084291
10
0.647515
20
3.063904
10
0.644396
20
3.043467
10
0.641590
20
3.022984
10
0.639098
20
3.002461
10
0.636920
20
2.981902
10
0.635058
20
2.961312
10
0.633511
20
2.940696
10
0.632280
20
2.920059
10
0.631366
20
2.899405
10
0.630767
20
2.878740
10
0.630485
20
2.858068
10
0.630520
20
2.837394
10
0.630871
20
2.816723
10
0.631539
20
2.796060
10
0.632523
20
2.775410
10
0.633824
20
2.754777
10
0.635440
20
2.734166
10
0.637371
20
2.713582
10
0.639618
20
2.693031
10
0.642179
20
2.672516
10
0.645054
20
2.652043
10
0.648242
20
2.631617
10
0.651742
20
2.611241
10
0.655554
20
2.590922
10
0.659677
20
2.570663
10
0.664110
20
2.550470
10
0.668851
20
2.530347
10
0.673900
20
2.510299
10
0.679255
20
2.490331
10
0.684915
20
2.470447
10
0.690879
20
2.450652
10
0.697146
20
2.430951
10
0.703714
20
2.411348
10
0.710581
20
2.391848
10
0.717746
20
2.372455
10
0.725207
20
2.353174
10
0.732962
20
2.334010
10
0.741010
20
2.314967
10
0.749349
20
2.296049
10
0.757976
20
2.277261
10
0.766890
20
2.258608
10
0.776088
20
2.240093
10
0.785570
20
2.221722
10
0.795331
20
2.203497
10
0.805370
20
2.185424
10
0.815685
20
2.167508
10
0.826273
20
2.149751
10
0.837131
20
2.132158
10
0.848258
20
2.114734
10
0.859651
20
2.097482
10
0.871306
20
2.080407
10
0.883221
20
2.063512
10
0.895394
20
2.046801
10
0.907821
20
2.030279
10
0.920499
20
2.013949
10
0.933427
20
1.997816
10
0.946599
20
1.981882
10
0.960014
20
1.966151
10
0.973669
20
1.950628
10
0.987560
20
1.935316
10
1.001683
20
1.920219
10
1.016036
20
1.905339
10
1.030615
20
1.890681
10
1.045417
20
1.876248
10
1.060439
20
1.862043
10
1.075676
20
1.848070
10
1.091125
20
1.834332
10
1.106783
20
1.820833
10
1.122645
20
1.807574
10
1.138709
20
1.794560
10
1.154970
20
1.781794
10
1.171425
20
1.769278
10
1.188070
20
1.757015
10
1.204900
20
1.745009
10
1.221912
20
1.733262
10
1.239103
20
1.721777
10
1.256467
20
1.710556
10
1.274001
20
1.699603
10
1.291700
20
1.688919
10
1.309561
20
1.678508
10
1.327579
20
1.668372
10
1.345751
20
1.658512
10
1.364071
20
1.648932
10
1.382536
20
1.639634
10
1.401141
20
1.630620
10
1.419882
20
1.621891
10
1.438755
20
1.613451
10
1.457754
20
1.605300
10
1.476876
20
1.597442
10
1.496117
20
1.589877
10
1.515470
20
1.582608
10
1.534933
20
1.575636
10
1.554500
20
1.568962
10
4.769306
20
0.500000
10
5.902752
20
0.500000
0
ENDSEC
0
EOF
