  0
SECTION
  2
HEADER
  9
$ACADVER
  1
AC1024
  9
$ACADMAINTVER
 70
6
  9
$DWGCODEPAGE
  3
ANSI_1252
  9
$LASTSAVEDBY
  1
ezdxf
  9
$INSBASE
 10
0.0
 20
0.0
 30
0.0
  9
$EXTMIN
 10
1e+20
 20
1e+20
 30
1e+20
  9
$EXTMAX
 10
-1e+20
 20
-1e+20
 30
-1e+20
  9
$LIMMIN
 10
0.0
 20
0.0
  9
$LIMMAX
 10
420.0
 20
297.0
  9
$ORTHOMODE
 70
0
  9
$REGENMODE
 70
1
  9
$FILLMODE
 70
1
  9
$QTEXTMODE
 70
0
  9
$MIRRTEXT
 70
1
  9
$LTSCALE
 40
1.0
  9
$ATTMODE
 70
1
  9
$TEXTSIZE
 40
2.5
  9
$TRACEWID
 40
1.0
  9
$TEXTSTYLE
  7
Standard
  9
$CLAYER
  8
0
  9
$CELTYPE
  6
ByLayer
  9
$CECOLOR
 62
256
  9
$CELTSCALE
 40
1.0
  9
$DISPSILH
 70
0
  9
$DIMSCALE
 40
1.0
  9
$DIMASZ
 40
2.5
  9
$DIMEXO
 40
0.625
  9
$DIMDLI
 40
3.75
  9
$DIMRND
 40
0.0
  9
$DIMDLE
 40
0.0
  9
$DIMEXE
 40
1.25
  9
$DIMTP
 40
0.0
  9
$DIMTM
 40
0.0
  9
$DIMTXT
 40
2.5
  9
$DIMCEN
 40
2.5
  9
$DIMTSZ
 40
0.0
  9
$DIMTOL
 70
0
  9
$DIMLIM
 70
0
  9
$DIMTIH
 70
0
  9
$DIMTOH
 70
0
  9
$DIMSE1
 70
0
  9
$DIMSE2
 70
0
  9
$DIMTAD
 70
1
  9
$DIMZIN
 70
8
  9
$DIMBLK
  1

  9
$DIMASO
 70
1
  9
$DIMSHO
 70
1
  9
$DIMPOST
  1

  9
$DIMAPOST
  1

  9
$DIMALT
 70
0
  9
$DIMALTD
 70
3
  9
$DIMALTF
 40
0.03937007874
  9
$DIMLFAC
 40
1.0
  9
$DIMTOFL
 70
1
  9
$DIMTVP
 40
0.0
  9
$DIMTIX
 70
0
  9
$DIMSOXD
 70
0
  9
$DIMSAH
 70
0
  9
$DIMBLK1
  1

  9
$DIMBLK2
  1

  9
$DIMSTYLE
  2
ISO-25
  9
$DIMCLRD
 70
0
  9
$DIMCLRE
 70
0
  9
$DIMCLRT
 70
0
  9
$DIMTFAC
 40
1.0
  9
$DIMGAP
 40
0.625
  9
$DIMJUST
 70
0
  9
$DIMSD1
 70
0
  9
$DIMSD2
 70
0
  9
$DIMTOLJ
 70
0
  9
$DIMTZIN
 70
8
  9
$DIMALTZ
 70
0
  9
$DIMALTTZ
 70
0
  9
$DIMUPT
 70
0
  9
$DIMDEC
 70
2
  9
$DIMTDEC
 70
2
  9
$DIMALTU
 70
2
  9
$DIMALTTD
 70
3
  9
$DIMTXSTY
  7
Standard
  9
$DIMAUNIT
 70
0
  9
$DIMADEC
 70
0
  9
$DIMALTRND
 40
0.0
  9
$DIMAZIN
 70
0
  9
$DIMDSEP
 70
44
  9
$DIMATFIT
 70
3
  9
$DIMFRAC
 70
0
  9
$DIMLDRBLK
  1

  9
$DIMLUNIT
 70
2
  9
$DIMLWD
 70
-2
  9
$DIMLWE
 70
-2
  9
$DIMTMOVE
 70
0
  9
$DIMFXL
 40
1.0
  9
$DIMFXLON
 70
0
  9
$DIMJOGANG
 40
0.785398163397
  9
$DIMTFILL
 70
0
  9
$DIMTFILLCLR
 70
0
  9
$DIMARCSYM
 70
0
  9
$DIMLTYPE
  6

  9
$DIMLTEX1
  6

  9
$DIMLTEX2
  6

  9
$DIMTXTDIRECTION
 70
0
  9
$LUNITS
 70
2
  9
$LUPREC
 70
4
  9
$SKETCHINC
 40
1.0
  9
$FILLETRAD
 40
10.0
  9
$AUNITS
 70
0
  9
$AUPREC
 70
2
  9
$MENU
  1
.
  9
$ELEVATION
 40
0.0
  9
$PELEVATION
 40
0.0
  9
$THICKNESS
 40
0.0
  9
$LIMCHECK
 70
0
  9
$CHAMFERA
 40
0.0
  9
$CHAMFERB
 40
0.0
  9
$CHAMFERC
 40
0.0
  9
$CHAMFERD
 40
0.0
  9
$SKPOLY
 70
0
  9
$TDCREATE
 40
2461322.808425926
  9
$TDUCREATE
 40
2458532.153996898
  9
$TDUPDATE
 40
2461322.808425926
  9
$TDUUPDATE
 40
2458532.1544311
  9
$TDINDWG
 40
0.0
  9
$TDUSRTIMER
 40
0.0
  9
$USRTIMER
 70
1
  9
$ANGBASE
 50
0.0
  9
$ANGDIR
 70
0
  9
$PDMODE
 70
0
  9
$PDSIZE
 40
0.0
  9
$PLINEWID
 40
0.0
  9
$SPLFRAME
 70
0
  9
$SPLINETYPE
 70
6
  9
$SPLINESEGS
 70
8
  9
$HANDSEED
  5
54
  9
$SURFTAB1
 70
6
  9
$SURFTAB2
 70
6
  9
$SURFTYPE
 70
6
  9
$SURFU
 70
6
  9
$SURFV
 70
6
  9
$UCSBASE
  2

  9
$UCSNAME
  2

  9
$UCSORG
 10
0.0
 20
0.0
 30
0.0
  9
$UCSXDIR
 10
1.0
 20
0.0
 30
0.0
  9
$UCSYDIR
 10
0.0
 20
1.0
 30
0.0
  9
$UCSORTHOREF
  2

  9
$UCSORTHOVIEW
 70
0
  9
$UCSORGTOP
 10
0.0
 20
0.0
 30
0.0
  9
$UCSORGBOTTOM
 10
0.0
 20
0.0
 30
0.0
  9
$UCSORGLEFT
 10
0.0
 20
0.0
 30
0.0
  9
$UCSORGRIGHT
 10
0.0
 20
0.0
 30
0.0
  9
$UCSORGFRONT
 10
0.0
 20
0.0
 30
0.0
  9
$UCSORGBACK
 10
0.0
 20
0.0
 30
0.0
  9
$PUCSBASE
  2

  9
$PUCSNAME
  2

  9
$PUCSORG
 10
0.0
 20
0.0
 30
0.0
  9
$PUCSXDIR
 10
1.0
 20
0.0
 30
0.0
  9
$PUCSYDIR
 10
0.0
 20
1.0
 30
0.0
  9
$PUCSORTHOREF
  2

  9
$PUCSORTHOVIEW
 70
0
  9
$PUCSORGTOP
 10
0.0
 20
0.0
 30
0.0
  9
$PUCSORGBOTTOM
 10
0.0
 20
0.0
 30
0.0
  9
$PUCSORGLEFT
 10
0.0
 20
0.0
 30
0.0
  9
$PUCSORGRIGHT
 10
0.0
 20
0.0
 30
0.0
  9
$PUCSORGFRONT
 10
0.0
 20
0.0
 30
0.0
  9
$PUCSORGBACK
 10
0.0
 20
0.0
 30
0.0
  9
$USERI1
 70
0
  9
$USERI2
 70
0
  9
$USERI3
 70
0
  9
$USERI4
 70
0
  9
$USERI5
 70
0
  9
$USERR1
 40
0.0
  9
$USERR2
 40
0.0
  9
$USERR3
 40
0.0
  9
$USERR4
 40
0.0
  9
$USERR5
 40
0.0
  9
$WORLDVIEW
 70
1
  9
$SHADEDGE
 70
3
  9
$SHADEDIF
 70
70
  9
$TILEMODE
 70
1
  9
$MAXACTVP
 70
64
  9
$PINSBASE
 10
0.0
 20
0.0
 30
0.0
  9
$PLIMCHECK
 70
0
  9
$PEXTMIN
 10
1e+20
 20
1e+20
 30
1e+20
  9
$PEXTMAX
 10
-1e+20
 20
-1e+20
 30
-1e+20
  9
$PLIMMIN
 10
0.0
 20
0.0
  9
$PLIMMAX
 10
420.0
 20
297.0
  9
$UNITMODE
 70
0
  9
$VISRETAIN
 70
1
  9
$PLINEGEN
 70
0
  9
$PSLTSCALE
 70
1
  9
$TREEDEPTH
 70
3020
  9
$CMLSTYLE
  2
Standard
  9
$CMLJUST
 70
0
  9
$CMLSCALE
 40
20.0
  9
$PROXYGRAPHICS
 70
1
  9
$MEASUREMENT
 70
1
  9
$CELWEIGHT
370
-1
  9
$ENDCAPS
280
0
  9
$JOINSTYLE
280
0
  9
$LWDISPLAY
290
0
  9
$INSUNITS
 70
4
  9
$HYPERLINKBASE
  1

  9
$STYLESHEET
  1

  9
$XEDIT
290
1
  9
$CEPSNTYPE
380
0
  9
$PSTYLEMODE
290
1
  9
$FINGERPRINTGUID
  2
{76F133F2-C915-4E5F-8A8F-7DE79BDBAE27}
  9
$VERSIONGUID
  2
{32CE86DF-1723-4841-BEE4-D9A90CA7D0C5}
  9
$EXTNAMES
290
1
  9
$PSVPSCALE
 40
0.0
  9
$OLESTARTUP
290
0
  9
$SORTENTS
280
127
  9
$INDEXCTL
280
0
  9
$HIDETEXT
280
1
  9
$XCLIPFRAME
280
1
  9
$HALOGAP
280
0
  9
$OBSCOLOR
 70
257
  9
$OBSLTYPE
280
0
  9
$INTERSECTIONDISPLAY
280
0
  9
$INTERSECTIONCOLOR
 70
257
  9
$DIMASSOC
280
2
  9
$PROJECTNAME
  1

  9
$CAMERADISPLAY
290
0
  9
$LENSLENGTH
 40
50.0
  9
$CAMERAHEIGHT
 40
0.0
  9
$STEPSPERSEC
 40
24.0
  9
$STEPSIZE
 40
100.0
  9
$3DDWFPREC
 40
2.0
  9
$PSOLWIDTH
 40
0.005
  9
$PSOLHEIGHT
 40
0.08
  9
$LOFTANG1
 40
1.570796326795
  9
$LOFTANG2
 40
1.570796326795
  9
$LOFTMAG1
 40
0.0
  9
$LOFTMAG2
 40
0.0
  9
$LOFTPARAM
 70
7
  9
$LOFTNORMALS
280
1
  9
$LATITUDE
 40
37.795
  9
$LONGITUDE
 40
-122.394
  9
$NORTHDIRECTION
 40
0.0
  9
$TIMEZONE
 70
-8000
  9
$LIGHTGLYPHDISPLAY
280
1
  9
$TILEMODELIGHTSYNCH
280
1
  9
$CMATERIAL
347
20
  9
$SOLIDHIST
280
0
  9
$SHOWHIST
280
1
  9
$DWFFRAME
280
2
  9
$DGNFRAME
280
2
  9
$REALWORLDSCALE
290
1
  9
$INTERFERECOLOR
 62
256
  9
$CSHADOW
280
0
  9
$SHADOWPLANELOCATION
 40
0.0
  0
ENDSEC
  0
SECTION
  2
CLASSES
  0
CLASS
  1
ACDBDICTIONARYWDFLT
  2
AcDbDictionaryWithDefault
  3
ObjectDBX Classes
 90
0
 91
0
280
0
281
0
  0
CLASS
  1
SUN
  2
AcDbSun
  3
SCENEOE
 90
1153
 91
0
280
0
281
0
  0
CLASS
  1
VISUALSTYLE
  2
AcDbVisualStyle
  3
ObjectDBX Classes
 90
4095
 91
0
280
0
281
0
  0
CLASS
  1
MATERIAL
  2
AcDbMaterial
  3
ObjectDBX Classes
 90
1153
 91
0
280
0
281
0
  0
CLASS
  1
SCALE
  2
AcDbScale
  3
ObjectDBX Classes
 90
1153
 91
0
280
0
281
0
  0
CLASS
  1
TABLESTYLE
  2
AcDbTableStyle
  3
ObjectDBX Classes
 90
4095
 91
0
280
0
281
0
  0
CLASS
  1
MLEADERSTYLE
  2
AcDbMLeaderStyle
  3
ACDB_MLEADERSTYLE_CLASS
 90
4095
 91
0
280
0
281
0
  0
CLASS
  1
DICTIONARYVAR
  2
AcDbDictionaryVar
  3
ObjectDBX Classes
 90
0
 91
0
280
0
281
0
  0
CLASS
  1
CELLSTYLEMAP
  2
AcDbCellStyleMap
  3
ObjectDBX Classes
 90
1152
 91
0
280
0
281
0
  0
CLASS
  1
MENTALRAYRENDERSETTINGS
  2
AcDbMentalRayRenderSettings
  3
SCENEOE
 90
1024
 91
0
280
0
281
0
  0
CLASS
  1
ACDBDETAILVIEWSTYLE
  2
AcDbDetailViewStyle
  3
ObjectDBX Classes
 90
1025
 91
0
280
0
281
0
  0
CLASS
  1
ACDBSECTIONVIEWSTYLE
  2
AcDbSectionViewStyle
  3
ObjectDBX Classes
 90
1025
 91
0
280
0
281
0
  0
CLASS
  1
RASTERVARIABLES
  2
AcDbRasterVariables
  3
ISM
 90
0
 91
0
280
0
281
0
  0
CLASS
  1
LAYOUT
  2
AcDbLayout
  3
ObjectDBX Classes
 90
0
 91
0
280
0
281
0
  0
CLASS
  1
ACDBPLACEHOLDER
  2
AcDbPlaceHolder
  3
ObjectDBX Classes
 90
0
 91
0
280
0
281
0
  0
ENDSEC
  0
SECTION
  2
TABLES
  0
TABLE
  2
VPORT
  5
8
330
0
100
AcDbSymbolTable
 70
1
  0
VPORT
  5
23
330
8
100
AcDbSymbolTableRecord
100
AcDbViewportTableRecord
  2
*Active
 70
0
 10
0.0
 20
0.0
 11
1.0
 21
1.0
 12
0.0
 22
0.0
 13
0.0
 23
0.0
 14
0.5
 24
0.5
 15
0.5
 25
0.5
 16
0.0
 26
0.0
 36
1.0
 17
0.0
 27
0.0
 37
0.0
 40
1000.0
 41
1.34
 42
50.0
 43
0.0
 44
0.0
 50
0.0
 51
0.0
 71
0
 72
1000
 73
1
 74
3
 75
0
 76
0
 77
0
 78
0
281
0
 65
0
146
0.0
  0
ENDTAB
  0
TABLE
  2
LTYPE
  5
2
330
0
100
AcDbSymbolTable
 70
3
  0
LTYPE
  5
24
330
2
100
AcDbSymbolTableRecord
100
AcDbLinetypeTableRecord
  2
ByBlock
 70
0
  3

 72
65
 73
0
 40
0.0
  0
LTYPE
  5
25
330
2
100
AcDbSymbolTableRecord
100
AcDbLinetypeTableRecord
  2
ByLayer
 70
0
  3

 72
65
 73
0
 40
0.0
  0
LTYPE
  5
26
330
2
100
AcDbSymbolTableRecord
100
AcDbLinetypeTableRecord
  2
Continuous
 70
0
  3

 72
65
 73
0
 40
0.0
  0
ENDTAB
  0
TABLE
  2
LAYER
  5
1
330
0
100
AcDbSymbolTable
 70
4
  0
LAYER
  5
27
330
1
100
AcDbSymbolTableRecord
100
AcDbLayerTableRecord
  2
0
 70
0
 62
7
  6
Continuous
370
-3
390
13
347
21
  0
LAYER
  5
28
330
1
100
AcDbSymbolTableRecord
100
AcDbLayerTableRecord
  2
Defpoints
 70
0
 62
7
  6
Continuous
290
0
370
-3
390
13
347
21
  0
LAYER
  5
2F
330
1
100
AcDbSymbolTableRecord
100
AcDbLayerTableRecord
  2
OUTER
 70
0
 62
5
  6
Continuous
370
-3
390
13
347
21
  0
LAYER
  5
30
330
1
100
AcDbSymbolTableRecord
100
AcDbLayerTableRecord
  2
ISLAND
 70
0
 62
1
  6
Continuous
370
-3
390
13
347
21
  0
ENDTAB
  0
TABLE
  2
STYLE
  5
5
330
0
100
AcDbSymbolTable
 70
1
  0
STYLE
  5
29
330
5
100
AcDbSymbolTableRecord
100
AcDbTextStyleTableRecord
  2
Standard
 70
0
 40
0.0
 41
1.0
 50
0.0
 71
0
 42
2.5
  3
txt
  4

  0
ENDTAB
  0
TABLE
  2
VIEW
  5
7
330
0
100
AcDbSymbolTable
 70
0
  0
ENDTAB
  0
TABLE
  2
UCS
  5
6
330
0
100
AcDbSymbolTable
 70
0
  0
ENDTAB
  0
TABLE
  2
APPID
  5
3
330
0
100
AcDbSymbolTable
 70
3
  0
APPID
  5
2A
330
3
100
AcDbSymbolTableRecord
100
AcDbRegAppTableRecord
  2
ACAD
 70
0
  0
APPID
  5
51
330
3
100
AcDbSymbolTableRecord
100
AcDbRegAppTableRecord
  2
HATCHBACKGROUNDCOLOR
 70
0
  0
APPID
  5
52
330
3
100
AcDbSymbolTableRecord
100
AcDbRegAppTableRecord
  2
EZDXF
 70
0
  0
ENDTAB
  0
TABLE
  2
DIMSTYLE
  5
4
330
0
100
AcDbSymbolTable
 70
1
100
AcDbDimStyleTable
  0
DIMSTYLE
105
2B
330
4
100
AcDbSymbolTableRecord
100
AcDbDimStyleTableRecord
  2
Standard
 70
0
 40
1.0
 41
2.5
 42
0.625
 43
3.75
 44
1.25
 45
0.0
 46
0.0
 47
0.0
 48
0.0
 49
2.5
140
2.5
141
2.5
142
0.0
143
0.03937007874
144
1.0
145
0.0
146
1.0
147
0.625
148
0.0
 69
0
 70
0
 71
0
 72
0
 73
0
 74
0
 75
0
 76
0
 77
1
 78
8
 79
3
170
0
171
3
172
1
173
0
174
0
175
0
176
0
177
0
178
0
179
2
271
2
272
2
273
2
274
3
275
0
276
0
277
2
278
44
279
0
280
0
281
0
282
0
283
0
284
8
285
0
286
0
288
0
289
3
290
0
371
-2
372
-2
  0
ENDTAB
  0
TABLE
  2
BLOCK_RECORD
  5
9
330
0
100
AcDbSymbolTable
 70
2
  0
BLOCK_RECORD
  5
17
330
9
100
AcDbSymbolTableRecord
100
AcDbBlockTableRecord
  2
*Model_Space
340
1A
 70
0
280
1
281
0
  0
BLOCK_RECORD
  5
1B
330
9
100
AcDbSymbolTableRecord
100
AcDbBlockTableRecord
  2
*Paper_Space
340
1E
 70
0
280
1
281
0
  0
ENDTAB
  0
ENDSEC
  0
SECTION
  2
BLOCKS
  0
BLOCK
  5
18
330
17
100
AcDbEntity
  8
0
100
AcDbBlockBegin
  2
*Model_Space
 70
0
 10
0.0
 20
0.0
 30
0.0
  3
*Model_Space
  1

  0
ENDBLK
  5
19
330
17
100
AcDbEntity
  8
0
100
AcDbBlockEnd
  0
BLOCK
  5
1C
330
1B
100
AcDbEntity
  8
0
100
AcDbBlockBegin
  2
*Paper_Space
 70
0
 10
0.0
 20
0.0
 30
0.0
  3
*Paper_Space
  1

  0
ENDBLK
  5
1D
330
1B
100
AcDbEntity
  8
0
100
AcDbBlockEnd
  0
ENDSEC
  0
SECTION
  2
ENTITIES
  0
LWPOLYLINE
  5
31
330
17
100
AcDbEntity
  8
OUTER
100
AcDbPolyline
 90
1160
 70
1
 10
48.69883085537106
 20
-0.31
 10
48.70962199407701
 20
-0.33888548374723315
 10
48.71939451055085
 20
-0.368131299989071
 10
48.72813640595139
 20
-0.3977015402770474
 10
48.73583694684936
 20
-0.427559897830025
 10
48.74248667840603
 20
-0.45766971211219915
 10
48.748077435982026
 20
-0.4879940138454508
 10
48.75260235516197
 20
-0.5184955704007759
 10
48.756055880182764
 20
-0.5491369315130626
 10
48.758433770754976
 20
-0.5798804752630818
 10
48.75973310726917
 20
-0.6106884542702431
 10
48.75995229438064
 20
-0.6415230420393851
 10
48.75909106296818
 20
-0.6723463794047158
 10
48.757150470464545
 20
-0.7031206210138536
 10
48.754132899558094
 20
-0.7338079817949192
 10
48.75004205526729
 20
-0.7643707833496067
 10
48.74488296039165
 20
-0.7947715002152815
 10
48.73866194934464
 20
-0.8249728059393021
 10
48.73138666037622
 20
-0.854937618908996
 10
48.723066026194466
 20
-0.8846291478810144
 10
48.713710262997864
 20
-0.9140109371541674
 10
48.703330857931725
 20
-0.9430469113302771
 10
48.691940554984065
 20
-0.9717014196080903
 10
48.67955333933837
 20
-0.9999392795558601
 10
48.66618442020238
 20
-1.0277258203088604
 10
48.651850212133986
 20
-1.0550269251387907
 10
48.63656831488721
 20
-1.0818090733428007
 10
48.62035749180292
 20
-1.1080393814007108
 10
48.603237646771
 20
-1.1336856433498843
 10
48.58522979979197
 20
-1.158716370328191
 10
48.56635606116837
 20
-1.1831008292364988
 10
48.5466396043574
 20
-1.2068090804732308
 10
48.52610463751819
 20
-1.229812014694654
 10
48.504776373788644
 20
-1.2520813885557645
 10
48.48268100032843
 20
-1.2735898593878852
 10
48.459845646165924
 20
-1.294311018770405
 10
48.43629834888885
 20
-1.3142194249554284
 10
48.412068020219266
 20
-1.3332906341055317
 10
48.38718441051536
 20
-1.3515012303062717
 10
48.36167807224348
 20
-1.3688288543165932
 10
48.335580322465376
 20
-1.3852522310218385
 10
48.308923204386666
 20
-1.4007511955556495
 10
48.281739448013674
 20
-1.415306718058691
 10
48.254062429967064
 20
-1.428900927043794
 10
48.22592613250154
 20
-1.4415171313388357
 10
48.1973651017819
 20
-1.4531398405804081
 10
48.168414405466734
 20
-1.4637547842331164
 10
48.13910958965189
 20
-1.4733489291111543
 10
48.109486635226375
 20
-1.4819104953806455
 10
48.07958191369455
 20
-1.4894289710230963
 10
48.04943214251857
 20
-1.4958951247422116
 10
48.01907434003625
 20
-1.5013010172982144
 10
47.9885457800093
 20
-1.5056400112557657
 10
47.95788394585809
 20
-1.5089067791335045
 10
47.927126484638976
 20
-1.511097309945209
 10
47.8963111608206
 20
-1.5122089141245452
 10
47.865475809916205
 20
-1.5122402268273574
 10
47.83465829202856
 20
-1.5111912096074427
 10
47.80389644536481
 20
-1.5090631504637575
 10
47.77322803977815
 20
-1.5058586622589911
 10
47.7426907303934
 20
-1.5015816795114558
 10
47.71232201137353
 20
-1.4962374535642264
 10
47.682159169883754
 20
-1.489832546137462
 10
47.65223924030978
 20
-1.4823748212718297
 10
44.031767713072426
 20
-0.5122723993287068
 10
44.035451170855794
 20
-0.542999882369491
 10
44.0380519066312
 20
-0.5738378824455364
 10
44.039566703915575
 20
-0.6047482603864615
 10
44.03999368926993
 20
-0.6356927875079219
 10
44.03933233461633
 20
-0.6666331928912677
 10
44.03758345789103
 20
-0.697531210715447
 10
44.034749222032836
 20
-0.7283486275825973
 10
44.03083313230811
 20
-0.7590473297788063
 10
44.025840031975584
 20
-0.7895893504115827
 10
44.01977609629643
 20
-0.819936916365753
 10
44.012648824896935
 20
-0.850052495019691
 10
44.00446703249328
 20
-0.879898840664125
 10
43.995240837989854
 20
-0.909439040566099
 10
43.984981651964624
 20
-0.9386365606211196
 10
43.97370216255699
 20
-0.967455290537039
 10
43.961416319775616
 20
-0.9958595884937751
 10
43.948139318245644
 20
-1.0238143252236516
 10
43.93388757841659
 20
-1.0512849274578304
 10
43.918678726254214
 20
-1.0782374206851102
 10
43.90253157144145
 20
-1.1046384711702015
 10
43.88546608411538
 20
-1.130455427179525
 10
43.86750337016896
 20
-1.1556563593635283
 10
43.848665645148145
 20
-1.1802101002455938
 10
43.82897620677659
 20
-1.2040862827686936
 10
43.808459406142006
 20
-1.2272553778521145
 10
43.787140617579745
 20
-1.2496887309118134
 10
43.76504620729082
 20
-1.271358597299226
 10
43.742203500733325
 20
-1.2922381766147089
 10
43.71864074882738
 20
-1.3123016458531704
 10
43.694387093015614
 20
-1.331524191340903
 10
43.669472529222176
 20
-1.3498820394241142
 10
43.64392787075503
 20
-1.3673524858712023
 10
43.617784710197334
 20
-1.3839139239524172
 10
43.591075380335
 20
-1.3995458711621778
 10
43.56383291416887
 20
-1.4142289945509883
 10
43.53609100406084
 20
-1.4279451346356389
 10
43.50788396006454
 20
-1.440677327858105
 10
43.47924666749205
 20
-1.4524098275653798
 10
43.45021454376921
 20
-1.4631281234842874
 10
43.420823494632785
 20
-1.4728189596671917
 10
43.391109869723735
 20
-1.4814703508864056
 10
43.36111041763147
 20
-1.48907159745703
 10
43.3308622404447
 20
-1.4956132984698842
 10
43.30040274786512
 20
-1.501087363418162
 10
43.26976961094059
 20
-1.5054870222034384
 10
43.239000715475186
 20
-1.50880683350865
 10
43.20813411517353
 20
-1.5110426915276913
 10
43.177207984577585
 20
-1.5121918310433067
 10
43.146260571853944
 20
-1.5122528308469982
 10
43.115330151490035
 20
-1.511225615496717
 10
43.084454976957865
 20
-1.5091114554101672
 10
43.05367323340364
 20
-1.5059129652936059
 10
43.023022990422
 20
-1.5016341009080811
 10
42.99254215497305
 20
-1.4962801541771107
 10
42.96226842450067
 20
-1.4898577466418474
 10
42.932239240309784
 20
-1.4823748212718297
 10
39.31176771307243
 20
-0.5122723993287068
 10
39.315451170855795
 20
-0.542999882369491
 10
39.318051906631204
 20
-0.5738378824455364
 10
39.31956670391558
 20
-0.6047482603864615
 10
39.31999368926993
 20
-0.6356927875079219
 10
39.319332334616334
 20
-0.6666331928912677
 10
39.31758345789103
 20
-0.697531210715447
 10
39.31474922203284
 20
-0.7283486275825973
 10
39.31083313230811
 20
-0.7590473297788063
 10
39.305840031975585
 20
-0.7895893504115827
 10
39.29977609629643
 20
-0.819936916365753
 10
39.292648824896936
 20
-0.850052495019691
 10
39.28446703249328
 20
-0.879898840664125
 10
39.275240837989855
 20
-0.909439040566099
 10
39.264981651964625
 20
-0.9386365606211196
 10
39.25370216255699
 20
-0.967455290537039
 10
39.241416319775624
 20
-0.9958595884937751
 10
39.228139318245645
 20
-1.0238143252236516
 10
39.21388757841659
 20
-1.0512849274578304
 10
39.198678726254215
 20
-1.0782374206851102
 10
39.18253157144145
 20
-1.1046384711702015
 10
39.16546608411538
 20
-1.130455427179525
 10
39.14750337016896
 20
-1.1556563593635283
 10
39.128665645148146
 20
-1.1802101002455938
 10
39.10897620677659
 20
-1.2040862827686936
 10
39.08845940614201
 20
-1.2272553778521145
 10
39.067140617579746
 20
-1.2496887309118134
 10
39.045046207290824
 20
-1.271358597299226
 10
39.022203500733326
 20
-1.2922381766147089
 10
38.998640748827384
 20
-1.3123016458531704
 10
38.974387093015615
 20
-1.331524191340903
 10
38.94947252922218
 20
-1.3498820394241142
 10
38.92392787075503
 20
-1.3673524858712023
 10
38.89778471019733
 20
-1.3839139239524172
 10
38.871075380335
 20
-1.3995458711621778
 10
38.84383291416887
 20
-1.4142289945509883
 10
38.816091004060844
 20
-1.4279451346356389
 10
38.78788396006454
 20
-1.440677327858105
 10
38.75924666749205
 20
-1.4524098275653798
 10
38.730214543769215
 20
-1.4631281234842874
 10
38.700823494632786
 20
-1.4728189596671917
 10
38.671109869723736
 20
-1.4814703508864056
 10
38.641110417631474
 20
-1.48907159745703
 10
38.6108622404447
 20
-1.4956132984698842
 10
38.58040274786512
 20
-1.501087363418162
 10
38.549769610940594
 20
-1.5054870222034384
 10
38.51900071547519
 20
-1.50880683350865
 10
38.48813411517352
 20
-1.5110426915276913
 10
38.457207984577586
 20
-1.5121918310433067
 10
38.426260571853945
 20
-1.5122528308469982
 10
38.395330151490036
 20
-1.511225615496717
 10
38.364454976957866
 20
-1.5091114554101672
 10
38.333673233403644
 20
-1.5059129652936059
 10
38.303022990422
 20
-1.5016341009080811
 10
38.27254215497305
 20
-1.4962801541771107
 10
38.24226842450067
 20
-1.4898577466418474
 10
38.212239240309785
 20
-1.4823748212718297
 10
34.59176771307242
 20
-0.5122723993287037
 10
34.595451170855796
 20
-0.5429998823694888
 10
34.5980519066312
 20
-0.5738378824455332
 10
34.59956670391557
 20
-0.6047482603864591
 10
34.59999368926992
 20
-0.6356927875079188
 10
34.599332334616335
 20
-0.666633192891265
 10
34.59758345789103
 20
-0.6975312107154445
 10
34.59474922203283
 20
-0.7283486275825947
 10
34.590833132308106
 20
-0.7590473297788035
 10
34.585840031975586
 20
-0.7895893504115804
 10
34.57977609629643
 20
-0.8199369163657504
 10
34.57264882489694
 20
-0.8500524950196884
 10
34.564467032493276
 20
-0.8798988406641232
 10
34.55524083798985
 20
-0.9094390405660968
 10
34.54498165196462
 20
-0.9386365606211176
 10
34.53370216255699
 20
-0.9674552905370373
 10
34.52141631977562
 20
-0.9958595884937729
 10
34.50813931824565
 20
-1.0238143252236498
 10
34.49388757841659
 20
-1.0512849274578284
 10
34.47867872625421
 20
-1.0782374206851082
 10
34.46253157144145
 20
-1.1046384711702002
 10
34.44546608411538
 20
-1.1304554271795233
 10
34.427503370168964
 20
-1.155656359363527
 10
34.40866564514814
 20
-1.1802101002455925
 10
34.38897620677659
 20
-1.2040862827686922
 10
34.36845940614201
 20
-1.2272553778521131
 10
34.34714061757975
 20
-1.2496887309118123
 10
34.325046207290825
 20
-1.271358597299225
 10
34.30220350073332
 20
-1.2922381766147077
 10
34.278640748827385
 20
-1.3123016458531696
 10
34.254387093015616
 20
-1.3315241913409026
 10
34.22947252922218
 20
-1.3498820394241133
 10
34.20392787075503
 20
-1.3673524858712014
 10
34.17778471019733
 20
-1.383913923952417
 10
34.151075380335
 20
-1.399545871162177
 10
34.12383291416887
 20
-1.414228994550988
 10
34.096091004060845
 20
-1.4279451346356384
 10
34.06788396006454
 20
-1.4406773278581042
 10
34.03924666749205
 20
-1.4524098275653796
 10
34.01021454376921
 20
-1.4631281234842874
 10
33.98082349463279
 20
-1.4728189596671912
 10
33.95110986972374
 20
-1.4814703508864053
 10
33.92111041763147
 20
-1.4890715974570299
 10
33.890862240444704
 20
-1.495613298469884
 10
33.86040274786512
 20
-1.5010873634181618
 10
33.829769610940595
 20
-1.5054870222034382
 10
33.79900071547519
 20
-1.50880683350865
 10
33.768134115173524
 20
-1.5110426915276913
 10
33.73720798457758
 20
-1.5121918310433067
 10
33.70626057185394
 20
-1.5122528308469982
 10
33.67533015149004
 20
-1.5112256154967172
 10
33.64445497695786
 20
-1.5091114554101672
 10
33.613673233403645
 20
-1.5059129652936059
 10
33.583022990421995
 20
-1.5016341009080811
 10
33.552542154973054
 20
-1.4962801541771107
 10
33.522268424500666
 20
-1.4898577466418474
 10
33.492239240309786
 20
-1.4823748212718297
 10
29.871767713072423
 20
-0.5122723993287073
 10
29.875451170855797
 20
-0.5429998823694915
 10
29.8780519066312
 20
-0.5738378824455367
 10
29.879566703915575
 20
-0.6047482603864622
 10
29.879993689269927
 20
-0.6356927875079222
 10
29.879332334616333
 20
-0.6666331928912681
 10
29.87758345789103
 20
-0.697531210715447
 10
29.874749222032836
 20
-0.7283486275825978
 10
29.870833132308107
 20
-0.7590473297788063
 10
29.865840031975587
 20
-0.7895893504115831
 10
29.859776096296432
 20
-0.819936916365753
 10
29.852648824896935
 20
-0.8500524950196915
 10
29.844467032493277
 20
-0.8798988406641254
 10
29.83524083798985
 20
-0.9094390405660994
 10
29.824981651964624
 20
-0.9386365606211202
 10
29.81370216255699
 20
-0.967455290537039
 10
29.80141631977562
 20
-0.9958595884937754
 10
29.788139318245644
 20
-1.0238143252236516
 10
29.773887578416588
 20
-1.0512849274578309
 10
29.75867872625421
 20
-1.0782374206851102
 10
29.74253157144145
 20
-1.1046384711702015
 10
29.72546608411538
 20
-1.1304554271795255
 10
29.70750337016896
 20
-1.1556563593635283
 10
29.68866564514814
 20
-1.1802101002455938
 10
29.668976206776588
 20
-1.2040862827686936
 10
29.64845940614201
 20
-1.2272553778521145
 10
29.627140617579744
 20
-1.2496887309118134
 10
29.605046207290822
 20
-1.2713585972992263
 10
29.58220350073332
 20
-1.2922381766147089
 10
29.558640748827383
 20
-1.3123016458531704
 10
29.534387093015614
 20
-1.3315241913409035
 10
29.509472529222176
 20
-1.3498820394241142
 10
29.483927870755032
 20
-1.3673524858712023
 10
29.45778471019733
 20
-1.3839139239524172
 10
29.431075380335
 20
-1.3995458711621778
 10
29.403832914168873
 20
-1.4142289945509883
 10
29.376091004060847
 20
-1.4279451346356389
 10
29.347883960064543
 20
-1.440677327858105
 10
29.319246667492052
 20
-1.4524098275653798
 10
29.29021454376921
 20
-1.4631281234842874
 10
29.260823494632785
 20
-1.4728189596671917
 10
29.231109869723735
 20
-1.4814703508864056
 10
29.20111041763147
 20
-1.48907159745703
 10
29.170862240444702
 20
-1.4956132984698842
 10
29.14040274786512
 20
-1.5010873634181618
 10
29.109769610940596
 20
-1.5054870222034384
 10
29.079000715475186
 20
-1.50880683350865
 10
29.048134115173525
 20
-1.5110426915276913
 10
29.017207984577585
 20
-1.5121918310433067
 10
28.98626057185394
 20
-1.5122528308469982
 10
28.95533015149004
 20
-1.5112256154967172
 10
28.924454976957865
 20
-1.5091114554101672
 10
28.893673233403643
 20
-1.5059129652936059
 10
28.863022990422
 20
-1.5016341009080811
 10
28.832542154973055
 20
-1.4962801541771107
 10
28.80226842450067
 20
-1.4898577466418474
 10
28.772239240309784
 20
-1.4823748212718297
 10
25.151767713072424
 20
-0.5122723993287073
 10
25.155451170855798
 20
-0.5429998823694915
 10
25.1580519066312
 20
-0.5738378824455367
 10
25.159566703915576
 20
-0.6047482603864622
 10
25.15999368926993
 20
-0.6356927875079222
 10
25.159332334616334
 20
-0.6666331928912681
 10
25.157583457891032
 20
-0.697531210715447
 10
25.154749222032837
 20
-0.7283486275825978
 10
25.150833132308108
 20
-0.7590473297788063
 10
25.145840031975588
 20
-0.7895893504115831
 10
25.139776096296433
 20
-0.819936916365753
 10
25.132648824896936
 20
-0.8500524950196915
 10
25.12446703249328
 20
-0.8798988406641254
 10
25.11524083798985
 20
-0.9094390405660994
 10
25.104981651964625
 20
-0.9386365606211202
 10
25.09370216255699
 20
-0.967455290537039
 10
25.08141631977562
 20
-0.9958595884937754
 10
25.068139318245645
 20
-1.0238143252236516
 10
25.05388757841659
 20
-1.0512849274578309
 10
25.03867872625421
 20
-1.0782374206851102
 10
25.02253157144145
 20
-1.1046384711702015
 10
25.00546608411538
 20
-1.1304554271795255
 10
24.987503370168962
 20
-1.1556563593635283
 10
24.968665645148143
 20
-1.1802101002455938
 10
24.94897620677659
 20
-1.2040862827686936
 10
24.92845940614201
 20
-1.2272553778521145
 10
24.907140617579746
 20
-1.2496887309118134
 10
24.885046207290824
 20
-1.2713585972992263
 10
24.862203500733322
 20
-1.2922381766147089
 10
24.838640748827384
 20
-1.3123016458531704
 10
24.814387093015615
 20
-1.3315241913409035
 10
24.789472529222177
 20
-1.3498820394241142
 10
24.763927870755033
 20
-1.3673524858712023
 10
24.73778471019733
 20
-1.3839139239524172
 10
24.711075380335
 20
-1.3995458711621778
 10
24.683832914168875
 20
-1.4142289945509883
 10
24.656091004060848
 20
-1.4279451346356389
 10
24.627883960064544
 20
-1.440677327858105
 10
24.599246667492054
 20
-1.4524098275653798
 10
24.57021454376921
 20
-1.4631281234842874
 10
24.540823494632786
 20
-1.4728189596671917
 10
24.511109869723736
 20
-1.4814703508864056
 10
24.48111041763147
 20
-1.48907159745703
 10
24.450862240444703
 20
-1.4956132984698842
 10
24.420402747865122
 20
-1.5010873634181618
 10
24.389769610940597
 20
-1.5054870222034384
 10
24.359000715475187
 20
-1.50880683350865
 10
24.328134115173526
 20
-1.5110426915276913
 10
24.297207984577586
 20
-1.5121918310433067
 10
24.26626057185394
 20
-1.5122528308469982
 10
24.23533015149004
 20
-1.5112256154967172
 10
24.204454976957866
 20
-1.5091114554101672
 10
24.173673233403644
 20
-1.5059129652936059
 10
24.143022990422
 20
-1.5016341009080811
 10
24.112542154973056
 20
-1.4962801541771107
 10
24.082268424500672
 20
-1.4898577466418474
 10
24.052239240309785
 20
-1.4823748212718297
 10
20.43176771307242
 20
-0.5122723993287068
 10
20.435451170855796
 20
-0.542999882369491
 10
20.4380519066312
 20
-0.5738378824455364
 10
20.439566703915574
 20
-0.6047482603864615
 10
20.439993689269926
 20
-0.6356927875079219
 10
20.43933233461633
 20
-0.6666331928912677
 10
20.43758345789103
 20
-0.697531210715447
 10
20.434749222032835
 20
-0.7283486275825973
 10
20.430833132308106
 20
-0.7590473297788063
 10
20.425840031975586
 20
-0.7895893504115827
 10
20.41977609629643
 20
-0.819936916365753
 10
20.412648824896934
 20
-0.850052495019691
 10
20.404467032493276
 20
-0.879898840664125
 10
20.39524083798985
 20
-0.909439040566099
 10
20.384981651964623
 20
-0.9386365606211196
 10
20.373702162556988
 20
-0.967455290537039
 10
20.361416319775618
 20
-0.9958595884937751
 10
20.348139318245643
 20
-1.0238143252236516
 10
20.333887578416586
 20
-1.0512849274578304
 10
20.31867872625421
 20
-1.0782374206851102
 10
20.30253157144145
 20
-1.1046384711702015
 10
20.285466084115377
 20
-1.130455427179525
 10
20.26750337016896
 20
-1.1556563593635283
 10
20.24866564514814
 20
-1.1802101002455938
 10
20.228976206776586
 20
-1.2040862827686936
 10
20.20845940614201
 20
-1.2272553778521145
 10
20.187140617579743
 20
-1.2496887309118134
 10
20.16504620729082
 20
-1.271358597299226
 10
20.14220350073332
 20
-1.2922381766147089
 10
20.11864074882738
 20
-1.3123016458531704
 10
20.094387093015612
 20
-1.331524191340903
 10
20.069472529222175
 20
-1.3498820394241142
 10
20.04392787075503
 20
-1.3673524858712023
 10
20.01778471019733
 20
-1.3839139239524172
 10
19.991075380334998
 20
-1.3995458711621778
 10
19.963832914168872
 20
-1.4142289945509883
 10
19.936091004060845
 20
-1.4279451346356389
 10
19.907883960064538
 20
-1.440677327858105
 10
19.87924666749205
 20
-1.4524098275653798
 10
19.85021454376921
 20
-1.4631281234842874
 10
19.820823494632783
 20
-1.4728189596671917
 10
19.791109869723734
 20
-1.4814703508864056
 10
19.761110417631468
 20
-1.48907159745703
 10
19.7308622404447
 20
-1.4956132984698842
 10
19.70040274786512
 20
-1.501087363418162
 10
19.669769610940595
 20
-1.5054870222034384
 10
19.639000715475184
 20
-1.50880683350865
 10
19.608134115173524
 20
-1.5110426915276913
 10
19.577207984577583
 20
-1.5121918310433067
 10
19.54626057185394
 20
-1.5122528308469982
 10
19.515330151490037
 20
-1.511225615496717
 10
19.484454976957863
 20
-1.5091114554101672
 10
19.45367323340364
 20
-1.5059129652936059
 10
19.423022990421998
 20
-1.5016341009080811
 10
19.392542154973054
 20
-1.4962801541771107
 10
19.36226842450067
 20
-1.4898577466418474
 10
19.332239240309782
 20
-1.4823748212718297
 10
15.711767713072426
 20
-0.5122723993287073
 10
15.7154511708558
 20
-0.5429998823694915
 10
15.718051906631203
 20
-0.5738378824455367
 10
15.719566703915575
 20
-0.6047482603864622
 10
15.719993689269934
 20
-0.6356927875079222
 10
15.71933233461634
 20
-0.6666331928912681
 10
15.717583457891031
 20
-0.697531210715447
 10
15.714749222032836
 20
-0.7283486275825978
 10
15.71083313230811
 20
-0.7590473297788063
 10
15.70584003197559
 20
-0.7895893504115831
 10
15.699776096296432
 20
-0.819936916365753
 10
15.692648824896942
 20
-0.8500524950196915
 10
15.68446703249328
 20
-0.8798988406641254
 10
15.675240837989854
 20
-0.9094390405660994
 10
15.664981651964624
 20
-0.9386365606211202
 10
15.65370216255699
 20
-0.967455290537039
 10
15.641416319775622
 20
-0.9958595884937754
 10
15.628139318245651
 20
-1.0238143252236516
 10
15.613887578416595
 20
-1.0512849274578309
 10
15.598678726254214
 20
-1.0782374206851102
 10
15.582531571441457
 20
-1.1046384711702015
 10
15.565466084115386
 20
-1.1304554271795255
 10
15.547503370168961
 20
-1.1556563593635283
 10
15.528665645148145
 20
-1.1802101002455938
 10
15.508976206776588
 20
-1.2040862827686936
 10
15.488459406142013
 20
-1.2272553778521145
 10
15.467140617579751
 20
-1.2496887309118134
 10
15.445046207290822
 20
-1.2713585972992263
 10
15.422203500733325
 20
-1.2922381766147089
 10
15.398640748827383
 20
-1.3123016458531704
 10
15.37438709301562
 20
-1.3315241913409035
 10
15.349472529222176
 20
-1.3498820394241142
 10
15.323927870755035
 20
-1.3673524858712023
 10
15.297784710197334
 20
-1.3839139239524172
 10
15.271075380334999
 20
-1.3995458711621778
 10
15.243832914168877
 20
-1.4142289945509883
 10
15.21609100406085
 20
-1.4279451346356389
 10
15.187883960064546
 20
-1.440677327858105
 10
15.159246667492056
 20
-1.4524098275653798
 10
15.130214543769213
 20
-1.4631281234842874
 10
15.100823494632792
 20
-1.4728189596671917
 10
15.071109869723742
 20
-1.4814703508864056
 10
15.041110417631472
 20
-1.48907159745703
 10
15.010862240444709
 20
-1.4956132984698842
 10
14.98040274786512
 20
-1.5010873634181618
 10
14.9497696109406
 20
-1.5054870222034384
 10
14.919000715475185
 20
-1.50880683350865
 10
14.888134115173528
 20
-1.5110426915276913
 10
14.857207984577585
 20
-1.5121918310433067
 10
14.826260571853943
 20
-1.5122528308469982
 10
14.795330151490042
 20
-1.5112256154967172
 10
14.764454976957872
 20
-1.5091114554101672
 10
14.73367323340365
 20
-1.5059129652936059
 10
14.703022990422
 20
-1.5016341009080811
 10
14.672542154973058
 20
-1.4962801541771107
 10
14.642268424500678
 20
-1.4898577466418474
 10
14.612239240309783
 20
-1.4823748212718297
 10
10.991767713072427
 20
-0.5122723993287073
 10
10.995451170855802
 20
-0.5429998823694915
 10
10.998051906631204
 20
-0.5738378824455367
 10
10.999566703915576
 20
-0.6047482603864622
 10
10.999993689269935
 20
-0.6356927875079222
 10
10.99933233461634
 20
-0.6666331928912681
 10
10.997583457891032
 20
-0.697531210715447
 10
10.994749222032837
 20
-0.7283486275825978
 10
10.990833132308111
 20
-0.7590473297788063
 10
10.985840031975592
 20
-0.7895893504115831
 10
10.979776096296433
 20
-0.819936916365753
 10
10.972648824896943
 20
-0.8500524950196915
 10
10.964467032493282
 20
-0.8798988406641254
 10
10.955240837989855
 20
-0.9094390405660994
 10
10.944981651964625
 20
-0.9386365606211202
 10
10.93370216255699
 20
-0.967455290537039
 10
10.921416319775624
 20
-0.9958595884937754
 10
10.908139318245652
 20
-1.0238143252236516
 10
10.893887578416596
 20
-1.0512849274578309
 10
10.878678726254215
 20
-1.0782374206851102
 10
10.862531571441458
 20
-1.1046384711702015
 10
10.845466084115387
 20
-1.1304554271795255
 10
10.827503370168962
 20
-1.1556563593635283
 10
10.808665645148146
 20
-1.1802101002455938
 10
10.788976206776589
 20
-1.2040862827686936
 10
10.768459406142014
 20
-1.2272553778521145
 10
10.747140617579753
 20
-1.2496887309118134
 10
10.725046207290823
 20
-1.2713585972992263
 10
10.702203500733326
 20
-1.2922381766147089
 10
10.678640748827384
 20
-1.3123016458531704
 10
10.654387093015622
 20
-1.3315241913409035
 10
10.629472529222177
 20
-1.3498820394241142
 10
10.603927870755037
 20
-1.3673524858712023
 10
10.577784710197335
 20
-1.3839139239524172
 10
10.551075380335
 20
-1.3995458711621778
 10
10.523832914168878
 20
-1.4142289945509883
 10
10.496091004060851
 20
-1.4279451346356389
 10
10.467883960064547
 20
-1.440677327858105
 10
10.439246667492057
 20
-1.4524098275653798
 10
10.410214543769214
 20
-1.4631281234842874
 10
10.380823494632793
 20
-1.4728189596671917
 10
10.351109869723743
 20
-1.4814703508864056
 10
10.321110417631473
 20
-1.48907159745703
 10
10.29086224044471
 20
-1.4956132984698842
 10
10.260402747865122
 20
-1.5010873634181618
 10
10.2297696109406
 20
-1.5054870222034384
 10
10.199000715475186
 20
-1.50880683350865
 10
10.16813411517353
 20
-1.5110426915276913
 10
10.137207984577586
 20
-1.5121918310433067
 10
10.106260571853944
 20
-1.5122528308469982
 10
10.075330151490043
 20
-1.5112256154967172
 10
10.044454976957873
 20
-1.5091114554101672
 10
10.013673233403651
 20
-1.5059129652936059
 10
9.983022990422
 20
-1.5016341009080811
 10
9.95254215497306
 20
-1.4962801541771107
 10
9.922268424500679
 20
-1.4898577466418474
 10
9.892239240309785
 20
-1.4823748212718297
 10
6.271767713072428
 20
-0.5122723993287073
 10
6.275451170855803
 20
-0.5429998823694915
 10
6.278051906631205
 20
-0.5738378824455367
 10
6.279566703915577
 20
-0.6047482603864622
 10
6.279993689269936
 20
-0.6356927875079222
 10
6.279332334616342
 20
-0.6666331928912681
 10
6.2775834578910334
 20
-0.697531210715447
 10
6.274749222032838
 20
-0.7283486275825978
 10
6.270833132308113
 20
-0.7590473297788063
 10
6.265840031975593
 20
-0.7895893504115831
 10
6.259776096296434
 20
-0.819936916365753
 10
6.252648824896944
 20
-0.8500524950196915
 10
6.244467032493283
 20
-0.8798988406641254
 10
6.235240837989856
 20
-0.9094390405660994
 10
6.224981651964626
 20
-0.9386365606211202
 10
6.2137021625569915
 20
-0.967455290537039
 10
6.201416319775625
 20
-0.9958595884937754
 10
6.188139318245653
 20
-1.0238143252236516
 10
6.173887578416597
 20
-1.0512849274578309
 10
6.158678726254216
 20
-1.0782374206851102
 10
6.1425315714414594
 20
-1.1046384711702015
 10
6.125466084115388
 20
-1.1304554271795255
 10
6.107503370168963
 20
-1.1556563593635283
 10
6.088665645148147
 20
-1.1802101002455938
 10
6.06897620677659
 20
-1.2040862827686936
 10
6.048459406142015
 20
-1.2272553778521145
 10
6.027140617579754
 20
-1.2496887309118134
 10
6.005046207290825
 20
-1.2713585972992263
 10
5.982203500733327
 20
-1.2922381766147089
 10
5.958640748827385
 20
-1.3123016458531704
 10
5.934387093015623
 20
-1.3315241913409035
 10
5.909472529222178
 20
-1.3498820394241142
 10
5.883927870755038
 20
-1.3673524858712023
 10
5.857784710197336
 20
-1.3839139239524172
 10
5.831075380335001
 20
-1.3995458711621778
 10
5.803832914168879
 20
-1.4142289945509883
 10
5.776091004060852
 20
-1.4279451346356389
 10
5.747883960064549
 20
-1.440677327858105
 10
5.719246667492058
 20
-1.4524098275653798
 10
5.6902145437692155
 20
-1.4631281234842874
 10
5.660823494632794
 20
-1.4728189596671917
 10
5.631109869723744
 20
-1.4814703508864056
 10
5.6011104176314745
 20
-1.48907159745703
 10
5.570862240444711
 20
-1.4956132984698842
 10
5.540402747865123
 20
-1.5010873634181618
 10
5.509769610940602
 20
-1.5054870222034384
 10
5.479000715475188
 20
-1.50880683350865
 10
5.448134115173531
 20
-1.5110426915276913
 10
5.417207984577587
 20
-1.5121918310433067
 10
5.386260571853946
 20
-1.5122528308469982
 10
5.355330151490044
 20
-1.5112256154967172
 10
5.324454976957874
 20
-1.5091114554101672
 10
5.293673233403652
 20
-1.5059129652936059
 10
5.263022990422002
 20
-1.5016341009080811
 10
5.232542154973061
 20
-1.4962801541771107
 10
5.20226842450068
 20
-1.4898577466418474
 10
5.172239240309786
 20
-1.4823748212718297
 10
0.7968768418088388
 20
-0.31
 10
0.0
 20
-0.31
 10
0.0
 20
0.31
 10
0.7968768418088388
 20
0.31
 10
5.172239240309786
 20
1.4823748212718297
 10
5.20226842450068
 20
1.4898577466418474
 10
5.232542154973061
 20
1.4962801541771107
 10
5.263022990422002
 20
1.5016341009080811
 10
5.293673233403652
 20
1.5059129652936059
 10
5.324454976957874
 20
1.5091114554101672
 10
5.355330151490044
 20
1.5112256154967172
 10
5.386260571853946
 20
1.5122528308469982
 10
5.417207984577587
 20
1.5121918310433067
 10
5.448134115173531
 20
1.5110426915276913
 10
5.479000715475188
 20
1.50880683350865
 10
5.509769610940602
 20
1.5054870222034384
 10
5.540402747865123
 20
1.5010873634181618
 10
5.570862240444711
 20
1.4956132984698842
 10
5.6011104176314745
 20
1.48907159745703
 10
5.631109869723744
 20
1.4814703508864056
 10
5.660823494632794
 20
1.4728189596671917
 10
5.6902145437692155
 20
1.4631281234842874
 10
5.719246667492058
 20
1.4524098275653798
 10
5.747883960064549
 20
1.440677327858105
 10
5.776091004060852
 20
1.4279451346356389
 10
5.803832914168879
 20
1.4142289945509883
 10
5.831075380335001
 20
1.3995458711621778
 10
5.857784710197336
 20
1.3839139239524172
 10
5.883927870755038
 20
1.3673524858712023
 10
5.909472529222178
 20
1.3498820394241142
 10
5.934387093015623
 20
1.3315241913409035
 10
5.958640748827385
 20
1.3123016458531704
 10
5.982203500733327
 20
1.2922381766147089
 10
6.005046207290825
 20
1.2713585972992263
 10
6.027140617579754
 20
1.2496887309118134
 10
6.048459406142015
 20
1.2272553778521145
 10
6.06897620677659
 20
1.2040862827686936
 10
6.088665645148147
 20
1.1802101002455938
 10
6.107503370168963
 20
1.1556563593635283
 10
6.125466084115388
 20
1.1304554271795255
 10
6.1425315714414594
 20
1.1046384711702015
 10
6.158678726254216
 20
1.0782374206851102
 10
6.173887578416597
 20
1.0512849274578309
 10
6.188139318245653
 20
1.0238143252236516
 10
6.201416319775625
 20
0.9958595884937754
 10
6.2137021625569915
 20
0.967455290537039
 10
6.224981651964626
 20
0.9386365606211202
 10
6.235240837989856
 20
0.9094390405660994
 10
6.244467032493283
 20
0.8798988406641254
 10
6.252648824896944
 20
0.8500524950196915
 10
6.259776096296434
 20
0.819936916365753
 10
6.265840031975593
 20
0.7895893504115831
 10
6.270833132308113
 20
0.7590473297788063
 10
6.274749222032838
 20
0.7283486275825978
 10
6.2775834578910334
 20
0.697531210715447
 10
6.279332334616342
 20
0.6666331928912681
 10
6.279993689269936
 20
0.6356927875079222
 10
6.279566703915577
 20
0.6047482603864622
 10
6.278051906631205
 20
0.5738378824455367
 10
6.275451170855803
 20
0.5429998823694915
 10
6.271767713072428
 20
0.5122723993287073
 10
9.892239240309785
 20
1.4823748212718297
 10
9.922268424500679
 20
1.4898577466418474
 10
9.95254215497306
 20
1.4962801541771107
 10
9.983022990422
 20
1.5016341009080811
 10
10.013673233403651
 20
1.5059129652936059
 10
10.044454976957873
 20
1.5091114554101672
 10
10.075330151490043
 20
1.5112256154967172
 10
10.106260571853944
 20
1.5122528308469982
 10
10.137207984577586
 20
1.5121918310433067
 10
10.16813411517353
 20
1.5110426915276913
 10
10.199000715475186
 20
1.50880683350865
 10
10.2297696109406
 20
1.5054870222034384
 10
10.260402747865122
 20
1.5010873634181618
 10
10.29086224044471
 20
1.4956132984698842
 10
10.321110417631473
 20
1.48907159745703
 10
10.351109869723743
 20
1.4814703508864056
 10
10.380823494632793
 20
1.4728189596671917
 10
10.410214543769214
 20
1.4631281234842874
 10
10.439246667492057
 20
1.4524098275653798
 10
10.467883960064547
 20
1.440677327858105
 10
10.496091004060851
 20
1.4279451346356389
 10
10.523832914168878
 20
1.4142289945509883
 10
10.551075380335
 20
1.3995458711621778
 10
10.577784710197335
 20
1.3839139239524172
 10
10.603927870755037
 20
1.3673524858712023
 10
10.629472529222177
 20
1.3498820394241142
 10
10.654387093015622
 20
1.3315241913409035
 10
10.678640748827384
 20
1.3123016458531704
 10
10.702203500733326
 20
1.2922381766147089
 10
10.725046207290823
 20
1.2713585972992263
 10
10.747140617579753
 20
1.2496887309118134
 10
10.768459406142014
 20
1.2272553778521145
 10
10.788976206776589
 20
1.2040862827686936
 10
10.808665645148146
 20
1.1802101002455938
 10
10.827503370168962
 20
1.1556563593635283
 10
10.845466084115387
 20
1.1304554271795255
 10
10.862531571441458
 20
1.1046384711702015
 10
10.878678726254215
 20
1.0782374206851102
 10
10.893887578416596
 20
1.0512849274578309
 10
10.908139318245652
 20
1.0238143252236516
 10
10.921416319775624
 20
0.9958595884937754
 10
10.93370216255699
 20
0.967455290537039
 10
10.944981651964625
 20
0.9386365606211202
 10
10.955240837989855
 20
0.9094390405660994
 10
10.964467032493282
 20
0.8798988406641254
 10
10.972648824896943
 20
0.8500524950196915
 10
10.979776096296433
 20
0.819936916365753
 10
10.985840031975592
 20
0.7895893504115831
 10
10.990833132308111
 20
0.7590473297788063
 10
10.994749222032837
 20
0.7283486275825978
 10
10.997583457891032
 20
0.697531210715447
 10
10.99933233461634
 20
0.6666331928912681
 10
10.999993689269935
 20
0.6356927875079222
 10
10.999566703915576
 20
0.6047482603864622
 10
10.998051906631204
 20
0.5738378824455367
 10
10.995451170855802
 20
0.5429998823694915
 10
10.991767713072427
 20
0.5122723993287073
 10
14.612239240309783
 20
1.4823748212718297
 10
14.642268424500678
 20
1.4898577466418474
 10
14.672542154973058
 20
1.4962801541771107
 10
14.703022990422
 20
1.5016341009080811
 10
14.73367323340365
 20
1.5059129652936059
 10
14.764454976957872
 20
1.5091114554101672
 10
14.795330151490042
 20
1.5112256154967172
 10
14.826260571853943
 20
1.5122528308469982
 10
14.857207984577585
 20
1.5121918310433067
 10
14.888134115173528
 20
1.5110426915276913
 10
14.919000715475185
 20
1.50880683350865
 10
14.9497696109406
 20
1.5054870222034384
 10
14.98040274786512
 20
1.5010873634181618
 10
15.010862240444709
 20
1.4956132984698842
 10
15.041110417631472
 20
1.48907159745703
 10
15.071109869723742
 20
1.4814703508864056
 10
15.100823494632792
 20
1.4728189596671917
 10
15.130214543769213
 20
1.4631281234842874
 10
15.159246667492056
 20
1.4524098275653798
 10
15.187883960064546
 20
1.440677327858105
 10
15.21609100406085
 20
1.4279451346356389
 10
15.243832914168877
 20
1.4142289945509883
 10
15.271075380334999
 20
1.3995458711621778
 10
15.297784710197334
 20
1.3839139239524172
 10
15.323927870755035
 20
1.3673524858712023
 10
15.349472529222176
 20
1.3498820394241142
 10
15.37438709301562
 20
1.3315241913409035
 10
15.398640748827383
 20
1.3123016458531704
 10
15.422203500733325
 20
1.2922381766147089
 10
15.445046207290822
 20
1.2713585972992263
 10
15.467140617579751
 20
1.2496887309118134
 10
15.488459406142013
 20
1.2272553778521145
 10
15.508976206776588
 20
1.2040862827686936
 10
15.528665645148145
 20
1.1802101002455938
 10
15.547503370168961
 20
1.1556563593635283
 10
15.565466084115386
 20
1.1304554271795255
 10
15.582531571441457
 20
1.1046384711702015
 10
15.598678726254214
 20
1.0782374206851102
 10
15.613887578416595
 20
1.0512849274578309
 10
15.628139318245651
 20
1.0238143252236516
 10
15.641416319775622
 20
0.9958595884937754
 10
15.65370216255699
 20
0.967455290537039
 10
15.664981651964624
 20
0.9386365606211202
 10
15.675240837989854
 20
0.9094390405660994
 10
15.68446703249328
 20
0.8798988406641254
 10
15.692648824896942
 20
0.8500524950196915
 10
15.699776096296432
 20
0.819936916365753
 10
15.70584003197559
 20
0.7895893504115831
 10
15.71083313230811
 20
0.7590473297788063
 10
15.714749222032836
 20
0.7283486275825978
 10
15.717583457891031
 20
0.697531210715447
 10
15.71933233461634
 20
0.6666331928912681
 10
15.719993689269934
 20
0.6356927875079222
 10
15.719566703915575
 20
0.6047482603864622
 10
15.718051906631203
 20
0.5738378824455367
 10
15.7154511708558
 20
0.5429998823694915
 10
15.711767713072426
 20
0.5122723993287073
 10
19.332239240309782
 20
1.4823748212718297
 10
19.36226842450067
 20
1.4898577466418474
 10
19.392542154973054
 20
1.4962801541771107
 10
19.423022990421998
 20
1.5016341009080811
 10
19.45367323340364
 20
1.5059129652936059
 10
19.484454976957863
 20
1.5091114554101672
 10
19.515330151490037
 20
1.511225615496717
 10
19.54626057185394
 20
1.5122528308469982
 10
19.577207984577583
 20
1.5121918310433067
 10
19.608134115173524
 20
1.5110426915276913
 10
19.639000715475184
 20
1.50880683350865
 10
19.669769610940595
 20
1.5054870222034384
 10
19.70040274786512
 20
1.501087363418162
 10
19.7308622404447
 20
1.4956132984698842
 10
19.761110417631468
 20
1.48907159745703
 10
19.791109869723734
 20
1.4814703508864056
 10
19.820823494632783
 20
1.4728189596671917
 10
19.85021454376921
 20
1.4631281234842874
 10
19.87924666749205
 20
1.4524098275653798
 10
19.907883960064538
 20
1.440677327858105
 10
19.936091004060845
 20
1.4279451346356389
 10
19.963832914168872
 20
1.4142289945509883
 10
19.991075380334998
 20
1.3995458711621778
 10
20.01778471019733
 20
1.3839139239524172
 10
20.04392787075503
 20
1.3673524858712023
 10
20.069472529222175
 20
1.3498820394241142
 10
20.094387093015612
 20
1.331524191340903
 10
20.11864074882738
 20
1.3123016458531704
 10
20.14220350073332
 20
1.2922381766147089
 10
20.16504620729082
 20
1.271358597299226
 10
20.187140617579743
 20
1.2496887309118134
 10
20.20845940614201
 20
1.2272553778521145
 10
20.228976206776586
 20
1.2040862827686936
 10
20.24866564514814
 20
1.1802101002455938
 10
20.26750337016896
 20
1.1556563593635283
 10
20.285466084115377
 20
1.130455427179525
 10
20.30253157144145
 20
1.1046384711702015
 10
20.31867872625421
 20
1.0782374206851102
 10
20.333887578416586
 20
1.0512849274578304
 10
20.348139318245643
 20
1.0238143252236516
 10
20.361416319775618
 20
0.9958595884937751
 10
20.373702162556988
 20
0.967455290537039
 10
20.384981651964623
 20
0.9386365606211196
 10
20.39524083798985
 20
0.909439040566099
 10
20.404467032493276
 20
0.879898840664125
 10
20.412648824896934
 20
0.850052495019691
 10
20.41977609629643
 20
0.819936916365753
 10
20.425840031975586
 20
0.7895893504115827
 10
20.430833132308106
 20
0.7590473297788063
 10
20.434749222032835
 20
0.7283486275825973
 10
20.43758345789103
 20
0.697531210715447
 10
20.43933233461633
 20
0.6666331928912677
 10
20.439993689269926
 20
0.6356927875079219
 10
20.439566703915574
 20
0.6047482603864615
 10
20.4380519066312
 20
0.5738378824455364
 10
20.435451170855796
 20
0.542999882369491
 10
20.43176771307242
 20
0.5122723993287068
 10
24.052239240309785
 20
1.4823748212718297
 10
24.082268424500672
 20
1.4898577466418474
 10
24.112542154973056
 20
1.4962801541771107
 10
24.143022990422
 20
1.5016341009080811
 10
24.173673233403644
 20
1.5059129652936059
 10
24.204454976957866
 20
1.5091114554101672
 10
24.23533015149004
 20
1.5112256154967172
 10
24.26626057185394
 20
1.5122528308469982
 10
24.297207984577586
 20
1.5121918310433067
 10
24.328134115173526
 20
1.5110426915276913
 10
24.359000715475187
 20
1.50880683350865
 10
24.389769610940597
 20
1.5054870222034384
 10
24.420402747865122
 20
1.5010873634181618
 10
24.450862240444703
 20
1.4956132984698842
 10
24.48111041763147
 20
1.48907159745703
 10
24.511109869723736
 20
1.4814703508864056
 10
24.540823494632786
 20
1.4728189596671917
 10
24.57021454376921
 20
1.4631281234842874
 10
24.599246667492054
 20
1.4524098275653798
 10
24.627883960064544
 20
1.440677327858105
 10
24.656091004060848
 20
1.4279451346356389
 10
24.683832914168875
 20
1.4142289945509883
 10
24.711075380335
 20
1.3995458711621778
 10
24.73778471019733
 20
1.3839139239524172
 10
24.763927870755033
 20
1.3673524858712023
 10
24.789472529222177
 20
1.3498820394241142
 10
24.814387093015615
 20
1.3315241913409035
 10
24.838640748827384
 20
1.3123016458531704
 10
24.862203500733322
 20
1.2922381766147089
 10
24.885046207290824
 20
1.2713585972992263
 10
24.907140617579746
 20
1.2496887309118134
 10
24.92845940614201
 20
1.2272553778521145
 10
24.94897620677659
 20
1.2040862827686936
 10
24.968665645148143
 20
1.1802101002455938
 10
24.987503370168962
 20
1.1556563593635283
 10
25.00546608411538
 20
1.1304554271795255
 10
25.02253157144145
 20
1.1046384711702015
 10
25.03867872625421
 20
1.0782374206851102
 10
25.05388757841659
 20
1.0512849274578309
 10
25.068139318245645
 20
1.0238143252236516
 10
25.08141631977562
 20
0.9958595884937754
 10
25.09370216255699
 20
0.967455290537039
 10
25.104981651964625
 20
0.9386365606211202
 10
25.11524083798985
 20
0.9094390405660994
 10
25.12446703249328
 20
0.8798988406641254
 10
25.132648824896936
 20
0.8500524950196915
 10
25.139776096296433
 20
0.819936916365753
 10
25.145840031975588
 20
0.7895893504115831
 10
25.150833132308108
 20
0.7590473297788063
 10
25.154749222032837
 20
0.7283486275825978
 10
25.157583457891032
 20
0.697531210715447
 10
25.159332334616334
 20
0.6666331928912681
 10
25.15999368926993
 20
0.6356927875079222
 10
25.159566703915576
 20
0.6047482603864622
 10
25.1580519066312
 20
0.5738378824455367
 10
25.155451170855798
 20
0.5429998823694915
 10
25.151767713072424
 20
0.5122723993287073
 10
28.772239240309784
 20
1.4823748212718297
 10
28.80226842450067
 20
1.4898577466418474
 10
28.832542154973055
 20
1.4962801541771107
 10
28.863022990422
 20
1.5016341009080811
 10
28.893673233403643
 20
1.5059129652936059
 10
28.924454976957865
 20
1.5091114554101672
 10
28.95533015149004
 20
1.5112256154967172
 10
28.98626057185394
 20
1.5122528308469982
 10
29.017207984577585
 20
1.5121918310433067
 10
29.048134115173525
 20
1.5110426915276913
 10
29.079000715475186
 20
1.50880683350865
 10
29.109769610940596
 20
1.5054870222034384
 10
29.14040274786512
 20
1.5010873634181618
 10
29.170862240444702
 20
1.4956132984698842
 10
29.20111041763147
 20
1.48907159745703
 10
29.231109869723735
 20
1.4814703508864056
 10
29.260823494632785
 20
1.4728189596671917
 10
29.29021454376921
 20
1.4631281234842874
 10
29.319246667492052
 20
1.4524098275653798
 10
29.347883960064543
 20
1.440677327858105
 10
29.376091004060847
 20
1.4279451346356389
 10
29.403832914168873
 20
1.4142289945509883
 10
29.431075380335
 20
1.3995458711621778
 10
29.45778471019733
 20
1.3839139239524172
 10
29.483927870755032
 20
1.3673524858712023
 10
29.509472529222176
 20
1.3498820394241142
 10
29.534387093015614
 20
1.3315241913409035
 10
29.558640748827383
 20
1.3123016458531704
 10
29.58220350073332
 20
1.2922381766147089
 10
29.605046207290822
 20
1.2713585972992263
 10
29.627140617579744
 20
1.2496887309118134
 10
29.64845940614201
 20
1.2272553778521145
 10
29.668976206776588
 20
1.2040862827686936
 10
29.68866564514814
 20
1.1802101002455938
 10
29.70750337016896
 20
1.1556563593635283
 10
29.72546608411538
 20
1.1304554271795255
 10
29.74253157144145
 20
1.1046384711702015
 10
29.75867872625421
 20
1.0782374206851102
 10
29.773887578416588
 20
1.0512849274578309
 10
29.788139318245644
 20
1.0238143252236516
 10
29.80141631977562
 20
0.9958595884937754
 10
29.81370216255699
 20
0.967455290537039
 10
29.824981651964624
 20
0.9386365606211202
 10
29.83524083798985
 20
0.9094390405660994
 10
29.844467032493277
 20
0.8798988406641254
 10
29.852648824896935
 20
0.8500524950196915
 10
29.859776096296432
 20
0.819936916365753
 10
29.865840031975587
 20
0.7895893504115831
 10
29.870833132308107
 20
0.7590473297788063
 10
29.874749222032836
 20
0.7283486275825978
 10
29.87758345789103
 20
0.697531210715447
 10
29.879332334616333
 20
0.6666331928912681
 10
29.879993689269927
 20
0.6356927875079222
 10
29.879566703915575
 20
0.6047482603864622
 10
29.8780519066312
 20
0.5738378824455367
 10
29.875451170855797
 20
0.5429998823694915
 10
29.871767713072423
 20
0.5122723993287073
 10
33.492239240309786
 20
1.4823748212718297
 10
33.522268424500666
 20
1.4898577466418474
 10
33.552542154973054
 20
1.4962801541771107
 10
33.583022990421995
 20
1.5016341009080811
 10
33.613673233403645
 20
1.5059129652936059
 10
33.64445497695786
 20
1.5091114554101672
 10
33.67533015149004
 20
1.5112256154967172
 10
33.70626057185394
 20
1.5122528308469982
 10
33.73720798457758
 20
1.5121918310433067
 10
33.768134115173524
 20
1.5110426915276913
 10
33.79900071547519
 20
1.50880683350865
 10
33.829769610940595
 20
1.5054870222034382
 10
33.86040274786512
 20
1.5010873634181618
 10
33.890862240444704
 20
1.495613298469884
 10
33.92111041763147
 20
1.4890715974570299
 10
33.95110986972374
 20
1.4814703508864053
 10
33.98082349463279
 20
1.4728189596671912
 10
34.01021454376921
 20
1.4631281234842874
 10
34.03924666749205
 20
1.4524098275653796
 10
34.06788396006454
 20
1.4406773278581042
 10
34.096091004060845
 20
1.4279451346356384
 10
34.12383291416887
 20
1.414228994550988
 10
34.151075380335
 20
1.399545871162177
 10
34.17778471019733
 20
1.383913923952417
 10
34.20392787075503
 20
1.3673524858712014
 10
34.22947252922218
 20
1.3498820394241133
 10
34.254387093015616
 20
1.3315241913409026
 10
34.278640748827385
 20
1.3123016458531696
 10
34.30220350073332
 20
1.2922381766147077
 10
34.325046207290825
 20
1.271358597299225
 10
34.34714061757975
 20
1.2496887309118123
 10
34.36845940614201
 20
1.2272553778521131
 10
34.38897620677659
 20
1.2040862827686922
 10
34.40866564514814
 20
1.1802101002455925
 10
34.427503370168964
 20
1.155656359363527
 10
34.44546608411538
 20
1.1304554271795233
 10
34.46253157144145
 20
1.1046384711702002
 10
34.47867872625421
 20
1.0782374206851082
 10
34.49388757841659
 20
1.0512849274578284
 10
34.50813931824565
 20
1.0238143252236498
 10
34.52141631977562
 20
0.9958595884937729
 10
34.53370216255699
 20
0.9674552905370373
 10
34.54498165196462
 20
0.9386365606211176
 10
34.55524083798985
 20
0.9094390405660968
 10
34.564467032493276
 20
0.8798988406641232
 10
34.57264882489694
 20
0.8500524950196884
 10
34.57977609629643
 20
0.8199369163657504
 10
34.585840031975586
 20
0.7895893504115804
 10
34.590833132308106
 20
0.7590473297788035
 10
34.59474922203283
 20
0.7283486275825947
 10
34.59758345789103
 20
0.6975312107154445
 10
34.599332334616335
 20
0.666633192891265
 10
34.59999368926992
 20
0.6356927875079188
 10
34.59956670391557
 20
0.6047482603864591
 10
34.5980519066312
 20
0.5738378824455332
 10
34.595451170855796
 20
0.5429998823694888
 10
34.59176771307242
 20
0.5122723993287037
 10
38.212239240309785
 20
1.4823748212718297
 10
38.24226842450067
 20
1.4898577466418474
 10
38.27254215497305
 20
1.4962801541771107
 10
38.303022990422
 20
1.5016341009080811
 10
38.333673233403644
 20
1.5059129652936059
 10
38.364454976957866
 20
1.5091114554101672
 10
38.395330151490036
 20
1.511225615496717
 10
38.426260571853945
 20
1.5122528308469982
 10
38.457207984577586
 20
1.5121918310433067
 10
38.48813411517352
 20
1.5110426915276913
 10
38.51900071547519
 20
1.50880683350865
 10
38.549769610940594
 20
1.5054870222034384
 10
38.58040274786512
 20
1.501087363418162
 10
38.6108622404447
 20
1.4956132984698842
 10
38.641110417631474
 20
1.48907159745703
 10
38.671109869723736
 20
1.4814703508864056
 10
38.700823494632786
 20
1.4728189596671917
 10
38.730214543769215
 20
1.4631281234842874
 10
38.75924666749205
 20
1.4524098275653798
 10
38.78788396006454
 20
1.440677327858105
 10
38.816091004060844
 20
1.4279451346356389
 10
38.84383291416887
 20
1.4142289945509883
 10
38.871075380335
 20
1.3995458711621778
 10
38.89778471019733
 20
1.3839139239524172
 10
38.92392787075503
 20
1.3673524858712023
 10
38.94947252922218
 20
1.3498820394241142
 10
38.974387093015615
 20
1.331524191340903
 10
38.998640748827384
 20
1.3123016458531704
 10
39.022203500733326
 20
1.2922381766147089
 10
39.045046207290824
 20
1.271358597299226
 10
39.067140617579746
 20
1.2496887309118134
 10
39.08845940614201
 20
1.2272553778521145
 10
39.10897620677659
 20
1.2040862827686936
 10
39.128665645148146
 20
1.1802101002455938
 10
39.14750337016896
 20
1.1556563593635283
 10
39.16546608411538
 20
1.130455427179525
 10
39.18253157144145
 20
1.1046384711702015
 10
39.198678726254215
 20
1.0782374206851102
 10
39.21388757841659
 20
1.0512849274578304
 10
39.228139318245645
 20
1.0238143252236516
 10
39.241416319775624
 20
0.9958595884937751
 10
39.25370216255699
 20
0.967455290537039
 10
39.264981651964625
 20
0.9386365606211196
 10
39.275240837989855
 20
0.909439040566099
 10
39.28446703249328
 20
0.879898840664125
 10
39.292648824896936
 20
0.850052495019691
 10
39.29977609629643
 20
0.819936916365753
 10
39.305840031975585
 20
0.7895893504115827
 10
39.31083313230811
 20
0.7590473297788063
 10
39.31474922203284
 20
0.7283486275825973
 10
39.31758345789103
 20
0.697531210715447
 10
39.319332334616334
 20
0.6666331928912677
 10
39.31999368926993
 20
0.6356927875079219
 10
39.31956670391558
 20
0.6047482603864615
 10
39.318051906631204
 20
0.5738378824455364
 10
39.315451170855795
 20
0.542999882369491
 10
39.31176771307243
 20
0.5122723993287068
 10
42.932239240309784
 20
1.4823748212718297
 10
42.96226842450067
 20
1.4898577466418474
 10
42.99254215497305
 20
1.4962801541771107
 10
43.023022990422
 20
1.5016341009080811
 10
43.05367323340364
 20
1.5059129652936059
 10
43.084454976957865
 20
1.5091114554101672
 10
43.115330151490035
 20
1.511225615496717
 10
43.146260571853944
 20
1.5122528308469982
 10
43.177207984577585
 20
1.5121918310433067
 10
43.20813411517353
 20
1.5110426915276913
 10
43.239000715475186
 20
1.50880683350865
 10
43.26976961094059
 20
1.5054870222034384
 10
43.30040274786512
 20
1.501087363418162
 10
43.3308622404447
 20
1.4956132984698842
 10
43.36111041763147
 20
1.48907159745703
 10
43.391109869723735
 20
1.4814703508864056
 10
43.420823494632785
 20
1.4728189596671917
 10
43.45021454376921
 20
1.4631281234842874
 10
43.47924666749205
 20
1.4524098275653798
 10
43.50788396006454
 20
1.440677327858105
 10
43.53609100406084
 20
1.4279451346356389
 10
43.56383291416887
 20
1.4142289945509883
 10
43.591075380335
 20
1.3995458711621778
 10
43.617784710197334
 20
1.3839139239524172
 10
43.64392787075503
 20
1.3673524858712023
 10
43.669472529222176
 20
1.3498820394241142
 10
43.694387093015614
 20
1.331524191340903
 10
43.71864074882738
 20
1.3123016458531704
 10
43.742203500733325
 20
1.2922381766147089
 10
43.76504620729082
 20
1.271358597299226
 10
43.787140617579745
 20
1.2496887309118134
 10
43.808459406142006
 20
1.2272553778521145
 10
43.82897620677659
 20
1.2040862827686936
 10
43.848665645148145
 20
1.1802101002455938
 10
43.86750337016896
 20
1.1556563593635283
 10
43.88546608411538
 20
1.130455427179525
 10
43.90253157144145
 20
1.1046384711702015
 10
43.918678726254214
 20
1.0782374206851102
 10
43.93388757841659
 20
1.0512849274578304
 10
43.948139318245644
 20
1.0238143252236516
 10
43.961416319775616
 20
0.9958595884937751
 10
43.97370216255699
 20
0.967455290537039
 10
43.984981651964624
 20
0.9386365606211196
 10
43.995240837989854
 20
0.909439040566099
 10
44.00446703249328
 20
0.879898840664125
 10
44.012648824896935
 20
0.850052495019691
 10
44.01977609629643
 20
0.819936916365753
 10
44.025840031975584
 20
0.7895893504115827
 10
44.03083313230811
 20
0.7590473297788063
 10
44.034749222032836
 20
0.7283486275825973
 10
44.03758345789103
 20
0.697531210715447
 10
44.03933233461633
 20
0.6666331928912677
 10
44.03999368926993
 20
0.6356927875079219
 10
44.039566703915575
 20
0.6047482603864615
 10
44.0380519066312
 20
0.5738378824455364
 10
44.035451170855794
 20
0.542999882369491
 10
44.031767713072426
 20
0.5122723993287068
 10
47.65223924030978
 20
1.4823748212718297
 10
47.682159169883754
 20
1.489832546137462
 10
47.71232201137353
 20
1.4962374535642264
 10
47.7426907303934
 20
1.5015816795114558
 10
47.77322803977815
 20
1.5058586622589911
 10
47.80389644536481
 20
1.5090631504637575
 10
47.83465829202856
 20
1.5111912096074427
 10
47.865475809916205
 20
1.5122402268273574
 10
47.8963111608206
 20
1.5122089141245452
 10
47.927126484638976
 20
1.511097309945209
 10
47.95788394585809
 20
1.5089067791335045
 10
47.9885457800093
 20
1.5056400112557657
 10
48.01907434003625
 20
1.5013010172982144
 10
48.04943214251857
 20
1.4958951247422116
 10
48.07958191369455
 20
1.4894289710230963
 10
48.109486635226375
 20
1.4819104953806455
 10
48.13910958965189
 20
1.4733489291111543
 10
48.168414405466734
 20
1.4637547842331164
 10
48.1973651017819
 20
1.4531398405804081
 10
48.22592613250154
 20
1.4415171313388357
 10
48.254062429967064
 20
1.428900927043794
 10
48.281739448013674
 20
1.415306718058691
 10
48.308923204386666
 20
1.4007511955556495
 10
48.335580322465376
 20
1.3852522310218385
 10
48.36167807224348
 20
1.3688288543165932
 10
48.38718441051536
 20
1.3515012303062717
 10
48.412068020219266
 20
1.3332906341055317
 10
48.43629834888885
 20
1.3142194249554284
 10
48.459845646165924
 20
1.294311018770405
 10
48.48268100032843
 20
1.2735898593878852
 10
48.504776373788644
 20
1.2520813885557645
 10
48.52610463751819
 20
1.229812014694654
 10
48.5466396043574
 20
1.2068090804732308
 10
48.56635606116837
 20
1.1831008292364988
 10
48.58522979979197
 20
1.158716370328191
 10
48.603237646771
 20
1.1336856433498843
 10
48.62035749180292
 20
1.1080393814007108
 10
48.63656831488721
 20
1.0818090733428007
 10
48.651850212133986
 20
1.0550269251387907
 10
48.66618442020238
 20
1.0277258203088604
 10
48.67955333933837
 20
0.9999392795558601
 10
48.691940554984065
 20
0.9717014196080903
 10
48.703330857931725
 20
0.9430469113302771
 10
48.713710262997864
 20
0.9140109371541674
 10
48.723066026194466
 20
0.8846291478810144
 10
48.73138666037622
 20
0.854937618908996
 10
48.73866194934464
 20
0.8249728059393021
 10
48.74488296039165
 20
0.7947715002152815
 10
48.75004205526729
 20
0.7643707833496067
 10
48.754132899558094
 20
0.7338079817949192
 10
48.757150470464545
 20
0.7031206210138536
 10
48.75909106296818
 20
0.6723463794047158
 10
48.75995229438064
 20
0.6415230420393851
 10
48.75973310726917
 20
0.6106884542702431
 10
48.758433770754976
 20
0.5798804752630818
 10
48.756055880182764
 20
0.5491369315130626
 10
48.75260235516197
 20
0.5184955704007759
 10
48.748077435982026
 20
0.4879940138454508
 10
48.74248667840603
 20
0.45766971211219915
 10
48.73583694684936
 20
0.427559897830025
 10
48.72813640595139
 20
0.3977015402770474
 10
48.71939451055085
 20
0.368131299989071
 10
48.70962199407701
 20
0.33888548374723315
 10
48.69883085537106
 20
0.31
 10
50.0
 20
0.31
 10
50.0
 20
-0.31
  0
LWPOLYLINE
  5
32
330
17
100
AcDbEntity
  8
ISLAND
100
AcDbPolyline
 90
68
 70
1
 10
47.749528388480556
 20
1.197494731712886
 10
45.63905208300936
 20
0.6323600941374495
 10
47.500649902680365
 20
0.13354646172506626
 10
48.3993754159788
 20
0.3743592372306292
 10
48.40565851648125
 20
0.3872415023278438
 10
48.41389281500241
 20
0.4057360396136708
 10
48.42147664736838
 20
0.4245066834011754
 10
48.428400773847606
 20
0.4435305645522987
 10
48.43465675845856
 20
0.4627845053982623
 10
48.44023697924766
 20
0.4822450479779874
 10
48.445134637575435
 20
0.5018884826180077
 10
48.44934376639964
 20
0.5216908768190535
 10
48.45285923754518
 20
0.5416281044141156
 10
48.455676767951964
 20
0.561675874962464
 10
48.45779292489321
 20
0.5818097633438077
 10
48.459205130157656
 20
0.6020052395165422
 10
48.45991166319071
 20
0.6222376984038251
 10
48.45991166319071
 20
0.642482489871074
 10
48.459205130157656
 20
0.6627149487583568
 10
48.45779292489321
 20
0.6829104249310911
 10
48.455676767951964
 20
0.703044313312435
 10
48.45285923754518
 20
0.7230920838607834
 10
48.44934376639964
 20
0.7430293114558455
 10
48.445134637575435
 20
0.7628317056568912
 10
48.44023697924766
 20
0.7824751402969116
 10
48.43465675845856
 20
0.8019356828766369
 10
48.428400773847606
 20
0.8211896237226004
 10
48.42147664736838
 20
0.8402135048737238
 10
48.41389281500241
 20
0.8589841486612282
 10
48.40565851648125
 20
0.8774786859470551
 10
48.39678378402925
 20
0.8956745839863867
 10
48.38727943014085
 20
0.9135496738803249
 10
48.377157034407226
 20
0.9310821775852809
 10
48.36642892940834
 20
0.9482507344461653
 10
48.35510818568761
 20
0.9650344272210563
 10
48.34320859582743
 20
0.9814128075656376
 10
48.33074465764504
 20
0.9973659209463553
 10
48.31773155652921
 20
1.0128743309519437
 10
48.30418514693912
 20
1.0279191429736985
 10
48.290121933088194
 20
1.042482027225647
 10
48.27555904883625
 20
1.0565452410765683
 10
48.260514236814494
 20
1.0700916506666573
 10
48.24500582680891
 20
1.0831047517824923
 10
48.22905271342819
 20
1.0955686899648793
 10
48.212674333083605
 20
1.1074682798250646
 10
48.19589064030872
 20
1.1187890235457956
 10
48.17872208344783
 20
1.1295171285446746
 10
48.161189579742874
 20
1.1396395242782993
 10
48.14331448984894
 20
1.149143878166703
 10
48.1251185918096
 20
1.1580186106187065
 10
48.10662405452378
 20
1.1662529091398648
 10
48.08785341073627
 20
1.1738367415058264
 10
48.06882952958515
 20
1.1807608679850534
 10
48.04957558873919
 20
1.18701685259601
 10
48.03011504615946
 20
1.1925970733851092
 10
48.01047161151944
 20
1.197494731712886
 10
47.9906692173184
 20
1.2017038605370947
 10
47.97073198972333
 20
1.2052193316826294
 10
47.95068421917499
 20
1.2080368620894162
 10
47.93055033079364
 20
1.210153019030662
 10
47.910354854620905
 20
1.2115652242951023
 10
47.89012239573363
 20
1.2122717573281565
 10
47.86987760426638
 20
1.2122717573281565
 10
47.84964514537909
 20
1.2115652242951023
 10
47.829449669206355
 20
1.210153019030662
 10
47.80931578082502
 20
1.2080368620894162
 10
47.789268010276665
 20
1.2052193316826294
 10
47.76933078268161
 20
1.2017038605370947
  0
LWPOLYLINE
  5
33
330
17
100
AcDbEntity
  8
ISLAND
100
AcDbPolyline
 90
69
 70
1
 10
43.069268010276666
 20
1.2052193316826294
 10
43.04933078268161
 20
1.2017038605370947
 10
43.02952838848056
 20
1.197494731712886
 10
43.00988495384054
 20
1.1925970733851092
 10
40.91905208300936
 20
0.6323600941374495
 10
42.78064990268036
 20
0.13354646172506626
 10
43.679375415978804
 20
0.3743592372306291
 10
43.685658516481254
 20
0.3872415023278438
 10
43.693892815002414
 20
0.4057360396136708
 10
43.70147664736838
 20
0.4245066834011754
 10
43.7084007738476
 20
0.4435305645522987
 10
43.71465675845856
 20
0.4627845053982623
 10
43.72023697924766
 20
0.4822450479779874
 10
43.72513463757544
 20
0.5018884826180077
 10
43.729343766399644
 20
0.5216908768190535
 10
43.73285923754518
 20
0.5416281044141156
 10
43.735676767951965
 20
0.561675874962464
 10
43.73779292489321
 20
0.5818097633438077
 10
43.73920513015765
 20
0.6020052395165422
 10
43.73991166319071
 20
0.6222376984038251
 10
43.73991166319071
 20
0.642482489871074
 10
43.73920513015765
 20
0.6627149487583568
 10
43.73779292489321
 20
0.6829104249310911
 10
43.735676767951965
 20
0.703044313312435
 10
43.73285923754518
 20
0.7230920838607834
 10
43.729343766399644
 20
0.7430293114558455
 10
43.72513463757544
 20
0.7628317056568912
 10
43.72023697924766
 20
0.7824751402969116
 10
43.71465675845856
 20
0.8019356828766369
 10
43.7084007738476
 20
0.8211896237226004
 10
43.70147664736838
 20
0.8402135048737238
 10
43.693892815002414
 20
0.8589841486612282
 10
43.685658516481254
 20
0.8774786859470551
 10
43.676783784029254
 20
0.8956745839863867
 10
43.66727943014085
 20
0.9135496738803249
 10
43.65715703440723
 20
0.9310821775852809
 10
43.646428929408344
 20
0.9482507344461653
 10
43.63510818568761
 20
0.9650344272210563
 10
43.62320859582743
 20
0.9814128075656376
 10
43.61074465764504
 20
0.9973659209463553
 10
43.59773155652921
 20
1.0128743309519437
 10
43.58418514693912
 20
1.0279191429736985
 10
43.570121933088195
 20
1.042482027225647
 10
43.55555904883625
 20
1.0565452410765683
 10
43.540514236814495
 20
1.0700916506666573
 10
43.52500582680891
 20
1.0831047517824923
 10
43.50905271342819
 20
1.0955686899648793
 10
43.492674333083606
 20
1.1074682798250646
 10
43.47589064030872
 20
1.1187890235457956
 10
43.45872208344783
 20
1.1295171285446746
 10
43.441189579742876
 20
1.1396395242782993
 10
43.423314489848934
 20
1.149143878166703
 10
43.405118591809604
 20
1.1580186106187065
 10
43.38662405452378
 20
1.1662529091398648
 10
43.367853410736274
 20
1.1738367415058264
 10
43.34882952958515
 20
1.1807608679850534
 10
43.32957558873919
 20
1.18701685259601
 10
43.31011504615946
 20
1.1925970733851092
 10
43.29047161151944
 20
1.197494731712886
 10
43.2706692173184
 20
1.2017038605370947
 10
43.250731989723334
 20
1.2052193316826294
 10
43.23068421917499
 20
1.2080368620894162
 10
43.210550330793644
 20
1.210153019030662
 10
43.19035485462091
 20
1.2115652242951023
 10
43.17012239573363
 20
1.2122717573281565
 10
43.14987760426638
 20
1.2122717573281565
 10
43.129645145379094
 20
1.2115652242951023
 10
43.109449669206356
 20
1.210153019030662
 10
43.08931578082502
 20
1.2080368620894162
  0
LWPOLYLINE
  5
34
330
17
100
AcDbEntity
  8
ISLAND
100
AcDbPolyline
 90
69
 70
1
 10
38.34926801027667
 20
1.2052193316826294
 10
38.32933078268161
 20
1.2017038605370947
 10
38.30952838848056
 20
1.197494731712886
 10
38.28988495384054
 20
1.1925970733851092
 10
36.19905208300936
 20
0.6323600941374495
 10
38.06064990268037
 20
0.13354646172506626
 10
38.959375415978805
 20
0.37435923723062936
 10
38.965658516481255
 20
0.3872415023278438
 10
38.973892815002415
 20
0.4057360396136708
 10
38.98147664736838
 20
0.4245066834011754
 10
38.9884007738476
 20
0.4435305645522987
 10
38.99465675845856
 20
0.4627845053982623
 10
39.00023697924766
 20
0.4822450479779874
 10
39.00513463757544
 20
0.5018884826180077
 10
39.009343766399645
 20
0.5216908768190535
 10
39.01285923754518
 20
0.5416281044141156
 10
39.015676767951966
 20
0.561675874962464
 10
39.017792924893214
 20
0.5818097633438077
 10
39.01920513015766
 20
0.6020052395165422
 10
39.01991166319071
 20
0.6222376984038251
 10
39.01991166319071
 20
0.642482489871074
 10
39.01920513015766
 20
0.6627149487583568
 10
39.017792924893214
 20
0.6829104249310911
 10
39.015676767951966
 20
0.703044313312435
 10
39.01285923754518
 20
0.7230920838607834
 10
39.009343766399645
 20
0.7430293114558455
 10
39.00513463757544
 20
0.7628317056568912
 10
39.00023697924766
 20
0.7824751402969116
 10
38.99465675845856
 20
0.8019356828766369
 10
38.9884007738476
 20
0.8211896237226004
 10
38.98147664736838
 20
0.8402135048737238
 10
38.973892815002415
 20
0.8589841486612282
 10
38.965658516481255
 20
0.8774786859470551
 10
38.956783784029255
 20
0.8956745839863867
 10
38.94727943014085
 20
0.9135496738803249
 10
38.93715703440723
 20
0.9310821775852809
 10
38.926428929408345
 20
0.9482507344461653
 10
38.915108185687615
 20
0.9650344272210563
 10
38.90320859582743
 20
0.9814128075656376
 10
38.890744657645044
 20
0.9973659209463553
 10
38.87773155652921
 20
1.0128743309519437
 10
38.86418514693912
 20
1.0279191429736985
 10
38.8501219330882
 20
1.042482027225647
 10
38.83555904883625
 20
1.0565452410765683
 10
38.820514236814496
 20
1.0700916506666573
 10
38.80500582680891
 20
1.0831047517824923
 10
38.78905271342819
 20
1.0955686899648793
 10
38.77267433308361
 20
1.1074682798250646
 10
38.75589064030872
 20
1.1187890235457956
 10
38.73872208344783
 20
1.1295171285446746
 10
38.72118957974288
 20
1.1396395242782993
 10
38.703314489848935
 20
1.149143878166703
 10
38.685118591809605
 20
1.1580186106187065
 10
38.66662405452378
 20
1.1662529091398648
 10
38.647853410736275
 20
1.1738367415058264
 10
38.628829529585154
 20
1.1807608679850534
 10
38.60957558873919
 20
1.18701685259601
 10
38.59011504615946
 20
1.1925970733851092
 10
38.570471611519444
 20
1.197494731712886
 10
38.5506692173184
 20
1.2017038605370947
 10
38.530731989723336
 20
1.2052193316826294
 10
38.51068421917499
 20
1.2080368620894162
 10
38.490550330793646
 20
1.210153019030662
 10
38.47035485462091
 20
1.2115652242951023
 10
38.45012239573363
 20
1.2122717573281565
 10
38.42987760426638
 20
1.2122717573281565
 10
38.409645145379095
 20
1.2115652242951023
 10
38.38944966920636
 20
1.210153019030662
 10
38.36931578082502
 20
1.2080368620894162
  0
LWPOLYLINE
  5
35
330
17
100
AcDbEntity
  8
ISLAND
100
AcDbPolyline
 90
69
 70
1
 10
33.62926801027666
 20
1.2052193316826294
 10
33.6093307826816
 20
1.2017038605370947
 10
33.58952838848056
 20
1.197494731712886
 10
33.569884953840536
 20
1.1925970733851092
 10
31.47905208300936
 20
0.6323600941374495
 10
33.340649902680354
 20
0.1335464617250663
 10
34.2393754159788
 20
0.37435923723062986
 10
34.24565851648126
 20
0.3872415023278438
 10
34.253892815002416
 20
0.4057360396136708
 10
34.261476647368376
 20
0.4245066834011754
 10
34.2684007738476
 20
0.4435305645522987
 10
34.27465675845856
 20
0.4627845053982623
 10
34.28023697924766
 20
0.4822450479779874
 10
34.28513463757544
 20
0.5018884826180077
 10
34.28934376639964
 20
0.5216908768190535
 10
34.29285923754518
 20
0.5416281044141156
 10
34.29567676795197
 20
0.561675874962464
 10
34.297792924893216
 20
0.5818097633438077
 10
34.29920513015765
 20
0.6020052395165422
 10
34.299911663190706
 20
0.6222376984038251
 10
34.299911663190706
 20
0.642482489871074
 10
34.29920513015765
 20
0.6627149487583568
 10
34.297792924893216
 20
0.6829104249310911
 10
34.29567676795197
 20
0.703044313312435
 10
34.29285923754518
 20
0.7230920838607834
 10
34.28934376639964
 20
0.7430293114558455
 10
34.28513463757544
 20
0.7628317056568912
 10
34.28023697924766
 20
0.7824751402969116
 10
34.27465675845856
 20
0.8019356828766369
 10
34.2684007738476
 20
0.8211896237226004
 10
34.261476647368376
 20
0.8402135048737238
 10
34.253892815002416
 20
0.8589841486612282
 10
34.24565851648126
 20
0.8774786859470551
 10
34.23678378402926
 20
0.8956745839863867
 10
34.22727943014085
 20
0.9135496738803249
 10
34.21715703440722
 20
0.9310821775852809
 10
34.20642892940835
 20
0.9482507344461653
 10
34.195108185687616
 20
0.9650344272210563
 10
34.18320859582743
 20
0.9814128075656376
 10
34.170744657645045
 20
0.9973659209463553
 10
34.15773155652921
 20
1.0128743309519437
 10
34.144185146939115
 20
1.0279191429736985
 10
34.1301219330882
 20
1.042482027225647
 10
34.115559048836246
 20
1.0565452410765683
 10
34.10051423681449
 20
1.0700916506666573
 10
34.0850058268089
 20
1.0831047517824923
 10
34.069052713428185
 20
1.0955686899648793
 10
34.05267433308361
 20
1.1074682798250646
 10
34.035890640308715
 20
1.1187890235457956
 10
34.01872208344783
 20
1.1295171285446746
 10
34.00118957974287
 20
1.1396395242782993
 10
33.98331448984894
 20
1.149143878166703
 10
33.965118591809606
 20
1.1580186106187065
 10
33.94662405452378
 20
1.1662529091398648
 10
33.927853410736276
 20
1.1738367415058264
 10
33.90882952958515
 20
1.1807608679850534
 10
33.88957558873919
 20
1.18701685259601
 10
33.87011504615946
 20
1.1925970733851092
 10
33.85047161151944
 20
1.197494731712886
 10
33.830669217318395
 20
1.2017038605370947
 10
33.81073198972334
 20
1.2052193316826294
 10
33.790684219174985
 20
1.2080368620894162
 10
33.77055033079364
 20
1.210153019030662
 10
33.75035485462091
 20
1.2115652242951023
 10
33.73012239573362
 20
1.2122717573281565
 10
33.709877604266374
 20
1.2122717573281565
 10
33.68964514537909
 20
1.2115652242951023
 10
33.66944966920636
 20
1.210153019030662
 10
33.64931578082501
 20
1.2080368620894162
  0
LWPOLYLINE
  5
36
330
17
100
AcDbEntity
  8
ISLAND
100
AcDbPolyline
 90
69
 70
1
 10
28.909268010276666
 20
1.2052193316826294
 10
28.889330782681604
 20
1.2017038605370947
 10
28.869528388480557
 20
1.197494731712886
 10
28.849884953840537
 20
1.1925970733851092
 10
26.75905208300936
 20
0.6323600941374495
 10
28.62064990268036
 20
0.1335464617250663
 10
29.519375415978804
 20
0.37435923723062986
 10
29.525658516481258
 20
0.3872415023278438
 10
29.533892815002414
 20
0.4057360396136708
 10
29.541476647368377
 20
0.4245066834011754
 10
29.548400773847604
 20
0.4435305645522987
 10
29.55465675845856
 20
0.4627845053982623
 10
29.56023697924766
 20
0.4822450479779874
 10
29.565134637575436
 20
0.5018884826180077
 10
29.569343766399644
 20
0.5216908768190535
 10
29.57285923754518
 20
0.5416281044141156
 10
29.57567676795197
 20
0.561675874962464
 10
29.577792924893213
 20
0.5818097633438077
 10
29.579205130157654
 20
0.6020052395165422
 10
29.579911663190707
 20
0.6222376984038251
 10
29.579911663190707
 20
0.642482489871074
 10
29.579205130157654
 20
0.6627149487583568
 10
29.577792924893213
 20
0.6829104249310911
 10
29.57567676795197
 20
0.703044313312435
 10
29.57285923754518
 20
0.7230920838607834
 10
29.569343766399644
 20
0.7430293114558455
 10
29.565134637575436
 20
0.7628317056568912
 10
29.56023697924766
 20
0.7824751402969116
 10
29.55465675845856
 20
0.8019356828766369
 10
29.548400773847604
 20
0.8211896237226004
 10
29.541476647368377
 20
0.8402135048737238
 10
29.533892815002414
 20
0.8589841486612282
 10
29.525658516481258
 20
0.8774786859470551
 10
29.516783784029254
 20
0.8956745839863867
 10
29.507279430140848
 20
0.9135496738803249
 10
29.497157034407223
 20
0.9310821775852809
 10
29.486428929408348
 20
0.9482507344461653
 10
29.475108185687617
 20
0.9650344272210563
 10
29.463208595827428
 20
0.9814128075656376
 10
29.450744657645043
 20
0.9973659209463553
 10
29.437731556529208
 20
1.0128743309519437
 10
29.42418514693912
 20
1.0279191429736985
 10
29.4101219330882
 20
1.042482027225647
 10
29.395559048836247
 20
1.0565452410765683
 10
29.380514236814495
 20
1.0700916506666573
 10
29.365005826808908
 20
1.0831047517824923
 10
29.349052713428186
 20
1.0955686899648793
 10
29.332674333083606
 20
1.1074682798250646
 10
29.315890640308716
 20
1.1187890235457956
 10
29.29872208344783
 20
1.1295171285446746
 10
29.281189579742875
 20
1.1396395242782993
 10
29.263314489848938
 20
1.149143878166703
 10
29.245118591809607
 20
1.1580186106187065
 10
29.22662405452378
 20
1.1662529091398648
 10
29.207853410736274
 20
1.1738367415058264
 10
29.18882952958515
 20
1.1807608679850534
 10
29.16957558873919
 20
1.18701685259601
 10
29.150115046159463
 20
1.1925970733851092
 10
29.130471611519443
 20
1.197494731712886
 10
29.110669217318396
 20
1.2017038605370947
 10
29.090731989723334
 20
1.2052193316826294
 10
29.070684219174986
 20
1.2080368620894162
 10
29.05055033079364
 20
1.210153019030662
 10
29.030354854620906
 20
1.2115652242951023
 10
29.010122395733625
 20
1.2122717573281565
 10
28.989877604266375
 20
1.2122717573281565
 10
28.969645145379094
 20
1.2115652242951023
 10
28.94944966920636
 20
1.210153019030662
 10
28.929315780825014
 20
1.2080368620894162
  0
LWPOLYLINE
  5
37
330
17
100
AcDbEntity
  8
ISLAND
100
AcDbPolyline
 90
4
 70
1
 10
46.83994109146248
 20
0.0
 10
45.05949658723592
 20
0.4770686670759371
 10
43.27905208300936
 20
0.0
 10
45.05949658723592
 20
-0.4770686670759371
  0
LWPOLYLINE
  5
38
330
17
100
AcDbEntity
  8
ISLAND
100
AcDbPolyline
 90
4
 70
1
 10
42.11994109146248
 20
0.0
 10
40.33949658723592
 20
0.47706866707593715
 10
38.55905208300936
 20
0.0
 10
40.33949658723592
 20
-0.47706866707593715
  0
LWPOLYLINE
  5
39
330
17
100
AcDbEntity
  8
ISLAND
100
AcDbPolyline
 90
4
 70
1
 10
37.39994109146248
 20
0.0
 10
35.61949658723592
 20
0.47706866707593687
 10
33.83905208300936
 20
0.0
 10
35.61949658723592
 20
-0.47706866707593687
  0
LWPOLYLINE
  5
3A
330
17
100
AcDbEntity
  8
ISLAND
100
AcDbPolyline
 90
4
 70
1
 10
32.67994109146248
 20
0.0
 10
30.89949658723592
 20
0.47706866707593715
 10
29.11905208300936
 20
0.0
 10
30.89949658723592
 20
-0.47706866707593715
  0
LWPOLYLINE
  5
3B
330
17
100
AcDbEntity
  8
ISLAND
100
AcDbPolyline
 90
4
 70
1
 10
27.95994109146248
 20
0.0
 10
26.17949658723592
 20
0.47706866707593715
 10
24.399052083009362
 20
0.0
 10
26.17949658723592
 20
-0.47706866707593715
  0
LWPOLYLINE
  5
3C
330
17
100
AcDbEntity
  8
ISLAND
100
AcDbPolyline
 90
69
 70
1
 10
48.43465675845856
 20
-0.4627845053982622
 10
48.428400773847606
 20
-0.44353056455229867
 10
48.42147664736838
 20
-0.4245066834011753
 10
48.41389281500241
 20
-0.4057360396136709
 10
48.40565851648125
 20
-0.38724150232784393
 10
48.3993754159788
 20
-0.3743592372306292
 10
47.500649902680365
 20
-0.13354646172506626
 10
45.63905208300936
 20
-0.6323600941374495
 10
47.72988495384054
 20
-1.1925970733851092
 10
47.749528388480556
 20
-1.197494731712886
 10
47.76933078268161
 20
-1.2017038605370947
 10
47.789268010276665
 20
-1.2052193316826294
 10
47.80931578082502
 20
-1.2080368620894162
 10
47.829449669206355
 20
-1.210153019030662
 10
47.84964514537909
 20
-1.2115652242951023
 10
47.86987760426638
 20
-1.2122717573281565
 10
47.89012239573363
 20
-1.2122717573281565
 10
47.910354854620905
 20
-1.2115652242951023
 10
47.93055033079364
 20
-1.210153019030662
 10
47.95068421917499
 20
-1.2080368620894162
 10
47.97073198972333
 20
-1.2052193316826294
 10
47.9906692173184
 20
-1.2017038605370947
 10
48.01047161151944
 20
-1.197494731712886
 10
48.03011504615946
 20
-1.1925970733851092
 10
48.04957558873919
 20
-1.18701685259601
 10
48.06882952958515
 20
-1.1807608679850534
 10
48.08785341073627
 20
-1.1738367415058266
 10
48.10662405452378
 20
-1.1662529091398648
 10
48.1251185918096
 20
-1.1580186106187065
 10
48.14331448984894
 20
-1.149143878166703
 10
48.161189579742874
 20
-1.139639524278299
 10
48.17872208344783
 20
-1.1295171285446748
 10
48.19589064030872
 20
-1.1187890235457956
 10
48.212674333083605
 20
-1.1074682798250648
 10
48.22905271342819
 20
-1.0955686899648793
 10
48.24500582680891
 20
-1.0831047517824928
 10
48.260514236814494
 20
-1.0700916506666573
 10
48.27555904883625
 20
-1.0565452410765683
 10
48.290121933088194
 20
-1.0424820272256472
 10
48.30418514693912
 20
-1.0279191429736987
 10
48.31773155652921
 20
-1.0128743309519437
 10
48.33074465764504
 20
-0.9973659209463552
 10
48.34320859582743
 20
-0.9814128075656374
 10
48.35510818568761
 20
-0.9650344272210561
 10
48.36642892940834
 20
-0.9482507344461654
 10
48.377157034407226
 20
-0.9310821775852811
 10
48.38727943014085
 20
-0.913549673880325
 10
48.39678378402925
 20
-0.8956745839863867
 10
48.40565851648125
 20
-0.8774786859470552
 10
48.41389281500241
 20
-0.8589841486612283
 10
48.42147664736838
 20
-0.8402135048737236
 10
48.428400773847606
 20
-0.8211896237226004
 10
48.43465675845856
 20
-0.8019356828766367
 10
48.44023697924766
 20
-0.7824751402969117
 10
48.445134637575435
 20
-0.7628317056568914
 10
48.44934376639964
 20
-0.7430293114558456
 10
48.45285923754518
 20
-0.7230920838607835
 10
48.455676767951964
 20
-0.7030443133124351
 10
48.45779292489321
 20
-0.6829104249310913
 10
48.459205130157656
 20
-0.6627149487583569
 10
48.45991166319071
 20
-0.6424824898710739
 10
48.45991166319071
 20
-0.622237698403825
 10
48.459205130157656
 20
-0.6020052395165423
 10
48.45779292489321
 20
-0.581809763343808
 10
48.455676767951964
 20
-0.5616758749624641
 10
48.45285923754518
 20
-0.5416281044141157
 10
48.44934376639964
 20
-0.5216908768190536
 10
48.445134637575435
 20
-0.5018884826180079
 10
48.44023697924766
 20
-0.4822450479779875
  0
LWPOLYLINE
  5
3D
330
17
100
AcDbEntity
  8
ISLAND
100
AcDbPolyline
 90
69
 70
1
 10
43.71465675845856
 20
-0.4627845053982622
 10
43.7084007738476
 20
-0.44353056455229867
 10
43.70147664736838
 20
-0.4245066834011753
 10
43.693892815002414
 20
-0.4057360396136709
 10
43.685658516481254
 20
-0.38724150232784393
 10
43.679375415978804
 20
-0.3743592372306291
 10
42.78064990268036
 20
-0.13354646172506626
 10
40.91905208300936
 20
-0.6323600941374495
 10
43.00988495384054
 20
-1.1925970733851092
 10
43.02952838848056
 20
-1.197494731712886
 10
43.04933078268161
 20
-1.2017038605370947
 10
43.069268010276666
 20
-1.2052193316826294
 10
43.08931578082502
 20
-1.2080368620894162
 10
43.109449669206356
 20
-1.210153019030662
 10
43.129645145379094
 20
-1.2115652242951023
 10
43.14987760426638
 20
-1.2122717573281565
 10
43.17012239573363
 20
-1.2122717573281565
 10
43.19035485462091
 20
-1.2115652242951023
 10
43.210550330793644
 20
-1.210153019030662
 10
43.23068421917499
 20
-1.2080368620894162
 10
43.250731989723334
 20
-1.2052193316826294
 10
43.2706692173184
 20
-1.2017038605370947
 10
43.29047161151944
 20
-1.197494731712886
 10
43.31011504615946
 20
-1.1925970733851092
 10
43.32957558873919
 20
-1.18701685259601
 10
43.34882952958515
 20
-1.1807608679850534
 10
43.367853410736274
 20
-1.1738367415058266
 10
43.38662405452378
 20
-1.1662529091398648
 10
43.405118591809604
 20
-1.1580186106187065
 10
43.423314489848934
 20
-1.149143878166703
 10
43.441189579742876
 20
-1.139639524278299
 10
43.45872208344783
 20
-1.1295171285446748
 10
43.47589064030872
 20
-1.1187890235457956
 10
43.492674333083606
 20
-1.1074682798250648
 10
43.50905271342819
 20
-1.0955686899648793
 10
43.52500582680891
 20
-1.0831047517824928
 10
43.540514236814495
 20
-1.0700916506666573
 10
43.55555904883625
 20
-1.0565452410765683
 10
43.570121933088195
 20
-1.0424820272256472
 10
43.58418514693912
 20
-1.0279191429736987
 10
43.59773155652921
 20
-1.0128743309519437
 10
43.61074465764504
 20
-0.9973659209463552
 10
43.62320859582743
 20
-0.9814128075656374
 10
43.63510818568761
 20
-0.9650344272210561
 10
43.646428929408344
 20
-0.9482507344461654
 10
43.65715703440723
 20
-0.9310821775852811
 10
43.66727943014085
 20
-0.913549673880325
 10
43.676783784029254
 20
-0.8956745839863867
 10
43.685658516481254
 20
-0.8774786859470552
 10
43.693892815002414
 20
-0.8589841486612283
 10
43.70147664736838
 20
-0.8402135048737236
 10
43.7084007738476
 20
-0.8211896237226004
 10
43.71465675845856
 20
-0.8019356828766367
 10
43.72023697924766
 20
-0.7824751402969117
 10
43.72513463757544
 20
-0.7628317056568914
 10
43.729343766399644
 20
-0.7430293114558456
 10
43.73285923754518
 20
-0.7230920838607835
 10
43.735676767951965
 20
-0.7030443133124351
 10
43.73779292489321
 20
-0.6829104249310913
 10
43.73920513015765
 20
-0.6627149487583569
 10
43.73991166319071
 20
-0.6424824898710739
 10
43.73991166319071
 20
-0.622237698403825
 10
43.73920513015765
 20
-0.6020052395165423
 10
43.73779292489321
 20
-0.581809763343808
 10
43.735676767951965
 20
-0.5616758749624641
 10
43.73285923754518
 20
-0.5416281044141157
 10
43.729343766399644
 20
-0.5216908768190536
 10
43.72513463757544
 20
-0.5018884826180079
 10
43.72023697924766
 20
-0.4822450479779875
  0
LWPOLYLINE
  5
3E
330
17
100
AcDbEntity
  8
ISLAND
100
AcDbPolyline
 90
69
 70
1
 10
38.99465675845856
 20
-0.4627845053982622
 10
38.9884007738476
 20
-0.44353056455229867
 10
38.98147664736838
 20
-0.4245066834011753
 10
38.973892815002415
 20
-0.4057360396136709
 10
38.965658516481255
 20
-0.38724150232784393
 10
38.959375415978805
 20
-0.37435923723062936
 10
38.06064990268037
 20
-0.13354646172506626
 10
36.19905208300936
 20
-0.6323600941374495
 10
38.28988495384054
 20
-1.1925970733851092
 10
38.30952838848056
 20
-1.197494731712886
 10
38.32933078268161
 20
-1.2017038605370947
 10
38.34926801027667
 20
-1.2052193316826294
 10
38.36931578082502
 20
-1.2080368620894162
 10
38.38944966920636
 20
-1.210153019030662
 10
38.409645145379095
 20
-1.2115652242951023
 10
38.42987760426638
 20
-1.2122717573281565
 10
38.45012239573363
 20
-1.2122717573281565
 10
38.47035485462091
 20
-1.2115652242951023
 10
38.490550330793646
 20
-1.210153019030662
 10
38.51068421917499
 20
-1.2080368620894162
 10
38.530731989723336
 20
-1.2052193316826294
 10
38.5506692173184
 20
-1.2017038605370947
 10
38.570471611519444
 20
-1.197494731712886
 10
38.59011504615946
 20
-1.1925970733851092
 10
38.60957558873919
 20
-1.18701685259601
 10
38.628829529585154
 20
-1.1807608679850534
 10
38.647853410736275
 20
-1.1738367415058266
 10
38.66662405452378
 20
-1.1662529091398648
 10
38.685118591809605
 20
-1.1580186106187065
 10
38.703314489848935
 20
-1.149143878166703
 10
38.72118957974288
 20
-1.139639524278299
 10
38.73872208344783
 20
-1.1295171285446748
 10
38.75589064030872
 20
-1.1187890235457956
 10
38.77267433308361
 20
-1.1074682798250648
 10
38.78905271342819
 20
-1.0955686899648793
 10
38.80500582680891
 20
-1.0831047517824928
 10
38.820514236814496
 20
-1.0700916506666573
 10
38.83555904883625
 20
-1.0565452410765683
 10
38.8501219330882
 20
-1.0424820272256472
 10
38.86418514693912
 20
-1.0279191429736987
 10
38.87773155652921
 20
-1.0128743309519437
 10
38.890744657645044
 20
-0.9973659209463552
 10
38.90320859582743
 20
-0.9814128075656374
 10
38.915108185687615
 20
-0.9650344272210561
 10
38.926428929408345
 20
-0.9482507344461654
 10
38.93715703440723
 20
-0.9310821775852811
 10
38.94727943014085
 20
-0.913549673880325
 10
38.956783784029255
 20
-0.8956745839863867
 10
38.965658516481255
 20
-0.8774786859470552
 10
38.973892815002415
 20
-0.8589841486612283
 10
38.98147664736838
 20
-0.8402135048737236
 10
38.9884007738476
 20
-0.8211896237226004
 10
38.99465675845856
 20
-0.8019356828766367
 10
39.00023697924766
 20
-0.7824751402969117
 10
39.00513463757544
 20
-0.7628317056568914
 10
39.009343766399645
 20
-0.7430293114558456
 10
39.01285923754518
 20
-0.7230920838607835
 10
39.015676767951966
 20
-0.7030443133124351
 10
39.017792924893214
 20
-0.6829104249310913
 10
39.01920513015766
 20
-0.6627149487583569
 10
39.01991166319071
 20
-0.6424824898710739
 10
39.01991166319071
 20
-0.622237698403825
 10
39.01920513015766
 20
-0.6020052395165423
 10
39.017792924893214
 20
-0.581809763343808
 10
39.015676767951966
 20
-0.5616758749624641
 10
39.01285923754518
 20
-0.5416281044141157
 10
39.009343766399645
 20
-0.5216908768190536
 10
39.00513463757544
 20
-0.5018884826180079
 10
39.00023697924766
 20
-0.4822450479779875
  0
LWPOLYLINE
  5
3F
330
17
100
AcDbEntity
  8
ISLAND
100
AcDbPolyline
 90
69
 70
1
 10
34.27465675845856
 20
-0.4627845053982622
 10
34.2684007738476
 20
-0.44353056455229867
 10
34.261476647368376
 20
-0.4245066834011753
 10
34.253892815002416
 20
-0.4057360396136709
 10
34.24565851648126
 20
-0.38724150232784393
 10
34.2393754159788
 20
-0.37435923723062986
 10
33.340649902680354
 20
-0.1335464617250663
 10
31.47905208300936
 20
-0.6323600941374495
 10
33.569884953840536
 20
-1.1925970733851092
 10
33.58952838848056
 20
-1.197494731712886
 10
33.6093307826816
 20
-1.2017038605370947
 10
33.62926801027666
 20
-1.2052193316826294
 10
33.64931578082501
 20
-1.2080368620894162
 10
33.66944966920636
 20
-1.210153019030662
 10
33.68964514537909
 20
-1.2115652242951023
 10
33.709877604266374
 20
-1.2122717573281565
 10
33.73012239573362
 20
-1.2122717573281565
 10
33.75035485462091
 20
-1.2115652242951023
 10
33.77055033079364
 20
-1.210153019030662
 10
33.790684219174985
 20
-1.2080368620894162
 10
33.81073198972334
 20
-1.2052193316826294
 10
33.830669217318395
 20
-1.2017038605370947
 10
33.85047161151944
 20
-1.197494731712886
 10
33.87011504615946
 20
-1.1925970733851092
 10
33.88957558873919
 20
-1.18701685259601
 10
33.90882952958515
 20
-1.1807608679850534
 10
33.927853410736276
 20
-1.1738367415058266
 10
33.94662405452378
 20
-1.1662529091398648
 10
33.965118591809606
 20
-1.1580186106187065
 10
33.98331448984894
 20
-1.149143878166703
 10
34.00118957974287
 20
-1.139639524278299
 10
34.01872208344783
 20
-1.1295171285446748
 10
34.035890640308715
 20
-1.1187890235457956
 10
34.0526743330836
 20
-1.1074682798250648
 10
34.069052713428185
 20
-1.0955686899648793
 10
34.0850058268089
 20
-1.0831047517824928
 10
34.10051423681449
 20
-1.0700916506666573
 10
34.115559048836246
 20
-1.0565452410765683
 10
34.1301219330882
 20
-1.0424820272256472
 10
34.144185146939115
 20
-1.0279191429736987
 10
34.15773155652921
 20
-1.0128743309519437
 10
34.170744657645045
 20
-0.9973659209463552
 10
34.18320859582743
 20
-0.9814128075656374
 10
34.195108185687616
 20
-0.9650344272210561
 10
34.20642892940835
 20
-0.9482507344461654
 10
34.21715703440722
 20
-0.9310821775852811
 10
34.22727943014085
 20
-0.913549673880325
 10
34.23678378402926
 20
-0.8956745839863867
 10
34.24565851648126
 20
-0.8774786859470552
 10
34.253892815002416
 20
-0.8589841486612283
 10
34.261476647368376
 20
-0.8402135048737236
 10
34.2684007738476
 20
-0.8211896237226004
 10
34.27465675845856
 20
-0.8019356828766367
 10
34.28023697924766
 20
-0.7824751402969117
 10
34.28513463757544
 20
-0.7628317056568914
 10
34.28934376639964
 20
-0.7430293114558456
 10
34.29285923754518
 20
-0.7230920838607835
 10
34.29567676795197
 20
-0.7030443133124351
 10
34.297792924893216
 20
-0.6829104249310913
 10
34.29920513015765
 20
-0.6627149487583569
 10
34.299911663190706
 20
-0.6424824898710739
 10
34.299911663190706
 20
-0.622237698403825
 10
34.29920513015765
 20
-0.6020052395165423
 10
34.297792924893216
 20
-0.581809763343808
 10
34.29567676795197
 20
-0.5616758749624641
 10
34.29285923754518
 20
-0.5416281044141157
 10
34.28934376639964
 20
-0.5216908768190536
 10
34.28513463757544
 20
-0.5018884826180079
 10
34.28023697924766
 20
-0.4822450479779875
  0
LWPOLYLINE
  5
40
330
17
100
AcDbEntity
  8
ISLAND
100
AcDbPolyline
 90
69
 70
1
 10
29.55465675845856
 20
-0.4627845053982622
 10
29.548400773847604
 20
-0.44353056455229867
 10
29.541476647368377
 20
-0.4245066834011753
 10
29.533892815002414
 20
-0.4057360396136709
 10
29.525658516481258
 20
-0.38724150232784393
 10
29.519375415978804
 20
-0.37435923723062986
 10
28.62064990268036
 20
-0.1335464617250663
 10
26.75905208300936
 20
-0.6323600941374495
 10
28.849884953840537
 20
-1.1925970733851092
 10
28.869528388480557
 20
-1.197494731712886
 10
28.889330782681604
 20
-1.2017038605370947
 10
28.909268010276666
 20
-1.2052193316826294
 10
28.929315780825014
 20
-1.2080368620894162
 10
28.94944966920636
 20
-1.210153019030662
 10
28.969645145379094
 20
-1.2115652242951023
 10
28.989877604266375
 20
-1.2122717573281565
 10
29.010122395733625
 20
-1.2122717573281565
 10
29.030354854620906
 20
-1.2115652242951023
 10
29.05055033079364
 20
-1.210153019030662
 10
29.070684219174986
 20
-1.2080368620894162
 10
29.090731989723334
 20
-1.2052193316826294
 10
29.110669217318396
 20
-1.2017038605370947
 10
29.130471611519443
 20
-1.197494731712886
 10
29.150115046159463
 20
-1.1925970733851092
 10
29.16957558873919
 20
-1.18701685259601
 10
29.18882952958515
 20
-1.1807608679850534
 10
29.207853410736274
 20
-1.1738367415058266
 10
29.22662405452378
 20
-1.1662529091398648
 10
29.245118591809607
 20
-1.1580186106187065
 10
29.263314489848938
 20
-1.149143878166703
 10
29.281189579742875
 20
-1.139639524278299
 10
29.29872208344783
 20
-1.1295171285446748
 10
29.315890640308716
 20
-1.1187890235457956
 10
29.332674333083606
 20
-1.1074682798250648
 10
29.34905271342819
 20
-1.0955686899648793
 10
29.365005826808904
 20
-1.0831047517824928
 10
29.380514236814495
 20
-1.0700916506666573
 10
29.395559048836247
 20
-1.0565452410765683
 10
29.4101219330882
 20
-1.0424820272256472
 10
29.42418514693912
 20
-1.0279191429736987
 10
29.437731556529208
 20
-1.0128743309519437
 10
29.450744657645043
 20
-0.9973659209463552
 10
29.463208595827428
 20
-0.9814128075656374
 10
29.475108185687617
 20
-0.9650344272210561
 10
29.486428929408344
 20
-0.9482507344461654
 10
29.497157034407223
 20
-0.9310821775852811
 10
29.507279430140848
 20
-0.913549673880325
 10
29.516783784029254
 20
-0.8956745839863867
 10
29.525658516481258
 20
-0.8774786859470552
 10
29.533892815002414
 20
-0.8589841486612283
 10
29.541476647368377
 20
-0.8402135048737236
 10
29.548400773847604
 20
-0.8211896237226004
 10
29.55465675845856
 20
-0.8019356828766367
 10
29.56023697924766
 20
-0.7824751402969117
 10
29.565134637575436
 20
-0.7628317056568914
 10
29.569343766399644
 20
-0.7430293114558456
 10
29.57285923754518
 20
-0.7230920838607835
 10
29.57567676795197
 20
-0.7030443133124351
 10
29.577792924893213
 20
-0.6829104249310913
 10
29.579205130157654
 20
-0.6627149487583569
 10
29.579911663190707
 20
-0.6424824898710739
 10
29.579911663190707
 20
-0.622237698403825
 10
29.579205130157654
 20
-0.6020052395165423
 10
29.577792924893213
 20
-0.581809763343808
 10
29.57567676795197
 20
-0.5616758749624641
 10
29.57285923754518
 20
-0.5416281044141157
 10
29.569343766399644
 20
-0.5216908768190536
 10
29.565134637575436
 20
-0.5018884826180079
 10
29.56023697924766
 20
-0.4822450479779875
  0
LWPOLYLINE
  5
41
330
17
100
AcDbEntity
  8
ISLAND
100
AcDbPolyline
 90
69
 70
1
 10
24.169330782681605
 20
1.2017038605370947
 10
24.149528388480558
 20
1.197494731712886
 10
24.129884953840538
 20
1.1925970733851092
 10
22.039052083009363
 20
0.6323600941374495
 10
23.90064990268036
 20
0.1335464617250663
 10
24.799375415978805
 20
0.37435923723062986
 10
24.80565851648126
 20
0.3872415023278438
 10
24.813892815002415
 20
0.4057360396136708
 10
24.821476647368378
 20
0.4245066834011754
 10
24.828400773847605
 20
0.4435305645522987
 10
24.83465675845856
 20
0.4627845053982623
 10
24.84023697924766
 20
0.4822450479779874
 10
24.845134637575438
 20
0.5018884826180077
 10
24.849343766399645
 20
0.5216908768190535
 10
24.852859237545182
 20
0.5416281044141156
 10
24.85567676795197
 20
0.561675874962464
 10
24.857792924893214
 20
0.5818097633438077
 10
24.859205130157655
 20
0.6020052395165422
 10
24.859911663190708
 20
0.6222376984038251
 10
24.859911663190708
 20
0.642482489871074
 10
24.859205130157655
 20
0.6627149487583568
 10
24.857792924893214
 20
0.6829104249310911
 10
24.85567676795197
 20
0.703044313312435
 10
24.852859237545182
 20
0.7230920838607834
 10
24.849343766399645
 20
0.7430293114558455
 10
24.845134637575438
 20
0.7628317056568912
 10
24.84023697924766
 20
0.7824751402969116
 10
24.83465675845856
 20
0.8019356828766369
 10
24.828400773847605
 20
0.8211896237226004
 10
24.821476647368378
 20
0.8402135048737238
 10
24.813892815002415
 20
0.8589841486612282
 10
24.80565851648126
 20
0.8774786859470551
 10
24.796783784029255
 20
0.8956745839863867
 10
24.78727943014085
 20
0.9135496738803249
 10
24.777157034407225
 20
0.9310821775852809
 10
24.76642892940835
 20
0.9482507344461653
 10
24.755108185687618
 20
0.9650344272210563
 10
24.74320859582743
 20
0.9814128075656376
 10
24.730744657645044
 20
0.9973659209463553
 10
24.71773155652921
 20
1.0128743309519437
 10
24.70418514693912
 20
1.0279191429736985
 10
24.6901219330882
 20
1.042482027225647
 10
24.67555904883625
 20
1.0565452410765683
 10
24.660514236814496
 20
1.0700916506666573
 10
24.64500582680891
 20
1.0831047517824923
 10
24.629052713428187
 20
1.0955686899648793
 10
24.612674333083607
 20
1.1074682798250646
 10
24.595890640308717
 20
1.1187890235457956
 10
24.578722083447833
 20
1.1295171285446746
 10
24.561189579742877
 20
1.1396395242782993
 10
24.54331448984894
 20
1.149143878166703
 10
24.52511859180961
 20
1.1580186106187065
 10
24.50662405452378
 20
1.1662529091398648
 10
24.487853410736275
 20
1.1738367415058264
 10
24.46882952958515
 20
1.1807608679850534
 10
24.44957558873919
 20
1.18701685259601
 10
24.430115046159464
 20
1.1925970733851092
 10
24.410471611519444
 20
1.197494731712886
 10
24.390669217318397
 20
1.2017038605370947
 10
24.370731989723335
 20
1.2052193316826294
 10
24.350684219174987
 20
1.2080368620894162
 10
24.330550330793642
 20
1.210153019030662
 10
24.310354854620908
 20
1.2115652242951023
 10
24.290122395733626
 20
1.2122717573281565
 10
24.269877604266377
 20
1.2122717573281565
 10
24.249645145379095
 20
1.2115652242951023
 10
24.22944966920636
 20
1.210153019030662
 10
24.209315780825015
 20
1.2080368620894162
 10
24.189268010276667
 20
1.2052193316826294
  0
LWPOLYLINE
  5
42
330
17
100
AcDbEntity
  8
ISLAND
100
AcDbPolyline
 90
69
 70
1
 10
19.469268010276664
 20
1.2052193316826294
 10
19.449330782681603
 20
1.2017038605370947
 10
19.429528388480556
 20
1.197494731712886
 10
19.409884953840535
 20
1.1925970733851092
 10
17.31905208300936
 20
0.6323600941374495
 10
19.18064990268036
 20
0.13354646172506615
 10
20.079375415978802
 20
0.37435923723062964
 10
20.085658516481256
 20
0.3872415023278438
 10
20.093892815002413
 20
0.4057360396136708
 10
20.101476647368376
 20
0.4245066834011754
 10
20.108400773847602
 20
0.4435305645522987
 10
20.11465675845856
 20
0.4627845053982623
 10
20.120236979247657
 20
0.4822450479779874
 10
20.125134637575435
 20
0.5018884826180077
 10
20.129343766399643
 20
0.5216908768190535
 10
20.13285923754518
 20
0.5416281044141156
 10
20.135676767951967
 20
0.561675874962464
 10
20.137792924893212
 20
0.5818097633438077
 10
20.139205130157652
 20
0.6020052395165422
 10
20.139911663190706
 20
0.6222376984038251
 10
20.139911663190706
 20
0.642482489871074
 10
20.139205130157652
 20
0.6627149487583568
 10
20.137792924893212
 20
0.6829104249310911
 10
20.135676767951967
 20
0.703044313312435
 10
20.13285923754518
 20
0.7230920838607834
 10
20.129343766399643
 20
0.7430293114558455
 10
20.125134637575435
 20
0.7628317056568912
 10
20.120236979247657
 20
0.7824751402969116
 10
20.11465675845856
 20
0.8019356828766369
 10
20.108400773847602
 20
0.8211896237226004
 10
20.101476647368376
 20
0.8402135048737238
 10
20.093892815002413
 20
0.8589841486612282
 10
20.085658516481256
 20
0.8774786859470551
 10
20.076783784029253
 20
0.8956745839863867
 10
20.067279430140847
 20
0.9135496738803249
 10
20.057157034407226
 20
0.9310821775852809
 10
20.046428929408343
 20
0.9482507344461653
 10
20.035108185687616
 20
0.9650344272210563
 10
20.023208595827427
 20
0.9814128075656376
 10
20.01074465764504
 20
0.9973659209463553
 10
19.997731556529207
 20
1.0128743309519437
 10
19.98418514693912
 20
1.0279191429736985
 10
19.970121933088198
 20
1.042482027225647
 10
19.955559048836246
 20
1.0565452410765683
 10
19.940514236814494
 20
1.0700916506666573
 10
19.925005826808906
 20
1.0831047517824923
 10
19.909052713428185
 20
1.0955686899648793
 10
19.892674333083605
 20
1.1074682798250646
 10
19.875890640308715
 20
1.1187890235457956
 10
19.85872208344783
 20
1.1295171285446746
 10
19.841189579742874
 20
1.1396395242782993
 10
19.823314489848936
 20
1.149143878166703
 10
19.805118591809602
 20
1.1580186106187065
 10
19.786624054523777
 20
1.1662529091398648
 10
19.767853410736272
 20
1.1738367415058264
 10
19.748829529585148
 20
1.1807608679850534
 10
19.729575588739188
 20
1.18701685259601
 10
19.710115046159462
 20
1.1925970733851092
 10
19.690471611519442
 20
1.197494731712886
 10
19.670669217318395
 20
1.2017038605370947
 10
19.650731989723333
 20
1.2052193316826294
 10
19.630684219174984
 20
1.2080368620894162
 10
19.61055033079364
 20
1.210153019030662
 10
19.590354854620905
 20
1.2115652242951023
 10
19.570122395733623
 20
1.2122717573281565
 10
19.549877604266374
 20
1.2122717573281565
 10
19.529645145379092
 20
1.2115652242951023
 10
19.509449669206358
 20
1.210153019030662
 10
19.489315780825013
 20
1.2080368620894162
  0
LWPOLYLINE
  5
43
330
17
100
AcDbEntity
  8
ISLAND
100
AcDbPolyline
 90
69
 70
1
 10
14.749268010276673
 20
1.2052193316826294
 10
14.729330782681608
 20
1.2017038605370947
 10
14.709528388480564
 20
1.197494731712886
 10
14.68988495384054
 20
1.1925970733851092
 10
12.599052083009369
 20
0.6323600941374495
 10
14.460649902680366
 20
0.13354646172506573
 10
15.359375415978803
 20
0.37435923723062775
 10
15.365658516481261
 20
0.3872415023278438
 10
15.37389281500242
 20
0.4057360396136708
 10
15.38147664736838
 20
0.4245066834011754
 10
15.388400773847607
 20
0.4435305645522987
 10
15.394656758458567
 20
0.4627845053982623
 10
15.400236979247666
 20
0.4822450479779874
 10
15.405134637575436
 20
0.5018884826180077
 10
15.409343766399651
 20
0.5216908768190535
 10
15.412859237545184
 20
0.5416281044141156
 10
15.415676767951972
 20
0.561675874962464
 10
15.417792924893213
 20
0.5818097633438077
 10
15.419205130157657
 20
0.6020052395165422
 10
15.41991166319071
 20
0.6222376984038251
 10
15.41991166319071
 20
0.642482489871074
 10
15.419205130157657
 20
0.6627149487583568
 10
15.417792924893213
 20
0.6829104249310911
 10
15.415676767951972
 20
0.703044313312435
 10
15.412859237545184
 20
0.7230920838607834
 10
15.409343766399651
 20
0.7430293114558455
 10
15.405134637575436
 20
0.7628317056568912
 10
15.400236979247666
 20
0.7824751402969116
 10
15.394656758458567
 20
0.8019356828766369
 10
15.388400773847607
 20
0.8211896237226004
 10
15.38147664736838
 20
0.8402135048737238
 10
15.37389281500242
 20
0.8589841486612282
 10
15.365658516481261
 20
0.8774786859470551
 10
15.356783784029254
 20
0.8956745839863867
 10
15.347279430140851
 20
0.9135496738803249
 10
15.337157034407227
 20
0.9310821775852809
 10
15.326428929408351
 20
0.9482507344461653
 10
15.31510818568762
 20
0.9650344272210563
 10
15.303208595827435
 20
0.9814128075656376
 10
15.29074465764505
 20
0.9973659209463553
 10
15.277731556529211
 20
1.0128743309519437
 10
15.26418514693912
 20
1.0279191429736985
 10
15.250121933088202
 20
1.042482027225647
 10
15.235559048836251
 20
1.0565452410765683
 10
15.220514236814495
 20
1.0700916506666573
 10
15.205005826808907
 20
1.0831047517824923
 10
15.18905271342819
 20
1.0955686899648793
 10
15.172674333083613
 20
1.1074682798250646
 10
15.15589064030872
 20
1.1187890235457956
 10
15.138722083447838
 20
1.1295171285446746
 10
15.121189579742875
 20
1.1396395242782993
 10
15.103314489848941
 20
1.149143878166703
 10
15.08511859180961
 20
1.1580186106187065
 10
15.066624054523786
 20
1.1662529091398648
 10
15.04785341073628
 20
1.1738367415058264
 10
15.028829529585153
 20
1.1807608679850534
 10
15.009575588739189
 20
1.18701685259601
 10
14.990115046159467
 20
1.1925970733851092
 10
14.970471611519443
 20
1.197494731712886
 10
14.9506692173184
 20
1.2017038605370947
 10
14.930731989723334
 20
1.2052193316826294
 10
14.910684219174989
 20
1.2080368620894162
 10
14.890550330793644
 20
1.210153019030662
 10
14.870354854620913
 20
1.2115652242951023
 10
14.850122395733628
 20
1.2122717573281565
 10
14.829877604266379
 20
1.2122717573281565
 10
14.809645145379093
 20
1.2115652242951023
 10
14.789449669206363
 20
1.210153019030662
 10
14.769315780825018
 20
1.2080368620894162
  0
LWPOLYLINE
  5
44
330
17
100
AcDbEntity
  8
ISLAND
100
AcDbPolyline
 90
69
 70
1
 10
10.029268010276674
 20
1.2052193316826294
 10
10.009330782681609
 20
1.2017038605370947
 10
9.989528388480565
 20
1.197494731712886
 10
9.969884953840541
 20
1.1925970733851092
 10
7.87905208300937
 20
0.6323600941374495
 10
9.740649902680367
 20
0.13354646172506573
 10
10.639375415978805
 20
0.37435923723062775
 10
10.645658516481262
 20
0.3872415023278438
 10
10.653892815002422
 20
0.4057360396136708
 10
10.661476647368382
 20
0.4245066834011754
 10
10.668400773847608
 20
0.4435305645522987
 10
10.674656758458568
 20
0.4627845053982623
 10
10.680236979247667
 20
0.4822450479779874
 10
10.685134637575437
 20
0.5018884826180077
 10
10.689343766399652
 20
0.5216908768190535
 10
10.692859237545186
 20
0.5416281044141156
 10
10.695676767951973
 20
0.561675874962464
 10
10.697792924893214
 20
0.5818097633438077
 10
10.699205130157658
 20
0.6020052395165422
 10
10.699911663190711
 20
0.6222376984038251
 10
10.699911663190711
 20
0.642482489871074
 10
10.699205130157658
 20
0.6627149487583568
 10
10.697792924893214
 20
0.6829104249310911
 10
10.695676767951973
 20
0.703044313312435
 10
10.692859237545186
 20
0.7230920838607834
 10
10.689343766399652
 20
0.7430293114558455
 10
10.685134637575437
 20
0.7628317056568912
 10
10.680236979247667
 20
0.7824751402969116
 10
10.674656758458568
 20
0.8019356828766369
 10
10.668400773847608
 20
0.8211896237226004
 10
10.661476647368382
 20
0.8402135048737238
 10
10.653892815002422
 20
0.8589841486612282
 10
10.645658516481262
 20
0.8774786859470551
 10
10.636783784029255
 20
0.8956745839863867
 10
10.627279430140852
 20
0.9135496738803249
 10
10.617157034407228
 20
0.9310821775852809
 10
10.606428929408352
 20
0.9482507344461653
 10
10.595108185687621
 20
0.9650344272210563
 10
10.583208595827436
 20
0.9814128075656376
 10
10.57074465764505
 20
0.9973659209463553
 10
10.557731556529212
 20
1.0128743309519437
 10
10.544185146939121
 20
1.0279191429736985
 10
10.530121933088203
 20
1.042482027225647
 10
10.515559048836252
 20
1.0565452410765683
 10
10.500514236814496
 20
1.0700916506666573
 10
10.485005826808909
 20
1.0831047517824923
 10
10.46905271342819
 20
1.0955686899648793
 10
10.452674333083614
 20
1.1074682798250646
 10
10.43589064030872
 20
1.1187890235457956
 10
10.41872208344784
 20
1.1295171285446746
 10
10.401189579742876
 20
1.1396395242782993
 10
10.383314489848942
 20
1.149143878166703
 10
10.365118591809612
 20
1.1580186106187065
 10
10.346624054523787
 20
1.1662529091398648
 10
10.327853410736282
 20
1.1738367415058264
 10
10.308829529585154
 20
1.1807608679850534
 10
10.28957558873919
 20
1.18701685259601
 10
10.270115046159468
 20
1.1925970733851092
 10
10.250471611519444
 20
1.197494731712886
 10
10.2306692173184
 20
1.2017038605370947
 10
10.210731989723335
 20
1.2052193316826294
 10
10.19068421917499
 20
1.2080368620894162
 10
10.170550330793645
 20
1.210153019030662
 10
10.150354854620915
 20
1.2115652242951023
 10
10.130122395733629
 20
1.2122717573281565
 10
10.10987760426638
 20
1.2122717573281565
 10
10.089645145379095
 20
1.2115652242951023
 10
10.069449669206364
 20
1.210153019030662
 10
10.049315780825019
 20
1.2080368620894162
  0
LWPOLYLINE
  5
45
330
17
100
AcDbEntity
  8
ISLAND
100
AcDbPolyline
 90
69
 70
1
 10
5.309268010276675
 20
1.2052193316826294
 10
5.28933078268161
 20
1.2017038605370947
 10
5.269528388480566
 20
1.197494731712886
 10
5.249884953840542
 20
1.1925970733851092
 10
3.159052083009371
 20
0.6323600941374495
 10
5.020649902680368
 20
0.13354646172506573
 10
5.919375415978806
 20
0.37435923723062775
 10
5.925658516481263
 20
0.3872415023278438
 10
5.933892815002423
 20
0.4057360396136708
 10
5.941476647368383
 20
0.4245066834011754
 10
5.9484007738476095
 20
0.4435305645522987
 10
5.954656758458569
 20
0.4627845053982623
 10
5.960236979247668
 20
0.4822450479779874
 10
5.965134637575439
 20
0.5018884826180077
 10
5.969343766399653
 20
0.5216908768190535
 10
5.972859237545187
 20
0.5416281044141156
 10
5.975676767951974
 20
0.561675874962464
 10
5.977792924893215
 20
0.5818097633438077
 10
5.979205130157659
 20
0.6020052395165422
 10
5.9799116631907125
 20
0.6222376984038251
 10
5.9799116631907125
 20
0.642482489871074
 10
5.979205130157659
 20
0.6627149487583568
 10
5.977792924893215
 20
0.6829104249310911
 10
5.975676767951974
 20
0.703044313312435
 10
5.972859237545187
 20
0.7230920838607834
 10
5.969343766399653
 20
0.7430293114558455
 10
5.965134637575439
 20
0.7628317056568912
 10
5.960236979247668
 20
0.7824751402969116
 10
5.954656758458569
 20
0.8019356828766369
 10
5.9484007738476095
 20
0.8211896237226004
 10
5.941476647368383
 20
0.8402135048737238
 10
5.933892815002423
 20
0.8589841486612282
 10
5.925658516481263
 20
0.8774786859470551
 10
5.916783784029256
 20
0.8956745839863867
 10
5.9072794301408535
 20
0.9135496738803249
 10
5.897157034407229
 20
0.9310821775852809
 10
5.886428929408353
 20
0.9482507344461653
 10
5.875108185687623
 20
0.9650344272210563
 10
5.863208595827437
 20
0.9814128075656376
 10
5.850744657645052
 20
0.9973659209463553
 10
5.837731556529214
 20
1.0128743309519437
 10
5.824185146939122
 20
1.0279191429736985
 10
5.810121933088205
 20
1.042482027225647
 10
5.795559048836253
 20
1.0565452410765683
 10
5.780514236814497
 20
1.0700916506666573
 10
5.76500582680891
 20
1.0831047517824923
 10
5.749052713428192
 20
1.0955686899648793
 10
5.732674333083615
 20
1.1074682798250646
 10
5.7158906403087215
 20
1.1187890235457956
 10
5.698722083447841
 20
1.1295171285446746
 10
5.6811895797428775
 20
1.1396395242782993
 10
5.663314489848943
 20
1.149143878166703
 10
5.645118591809613
 20
1.1580186106187065
 10
5.626624054523788
 20
1.1662529091398648
 10
5.607853410736283
 20
1.1738367415058264
 10
5.588829529585155
 20
1.1807608679850534
 10
5.569575588739191
 20
1.18701685259601
 10
5.550115046159469
 20
1.1925970733851092
 10
5.530471611519445
 20
1.197494731712886
 10
5.5106692173184015
 20
1.2017038605370947
 10
5.490731989723336
 20
1.2052193316826294
 10
5.470684219174991
 20
1.2080368620894162
 10
5.4505503307936465
 20
1.210153019030662
 10
5.430354854620916
 20
1.2115652242951023
 10
5.41012239573363
 20
1.2122717573281565
 10
5.389877604266381
 20
1.2122717573281565
 10
5.369645145379096
 20
1.2115652242951023
 10
5.349449669206365
 20
1.210153019030662
 10
5.32931578082502
 20
1.2080368620894162
  0
LWPOLYLINE
  5
46
330
17
100
AcDbEntity
  8
ISLAND
100
AcDbPolyline
 90
4
 70
1
 10
23.23994109146248
 20
0.0
 10
21.459496587235922
 20
0.47706866707593715
 10
19.679052083009363
 20
0.0
 10
21.459496587235922
 20
-0.47706866707593715
  0
LWPOLYLINE
  5
47
330
17
100
AcDbEntity
  8
ISLAND
100
AcDbPolyline
 90
4
 70
1
 10
18.519941091462478
 20
0.0
 10
16.73949658723592
 20
0.47706866707593665
 10
14.959052083009361
 20
0.0
 10
16.73949658723592
 20
-0.47706866707593665
  0
LWPOLYLINE
  5
48
330
17
100
AcDbEntity
  8
ISLAND
100
AcDbPolyline
 90
4
 70
1
 10
13.799941091462486
 20
0.0
 10
12.01949658723592
 20
0.47706866707593576
 10
10.239052083009362
 20
0.0
 10
12.01949658723592
 20
-0.47706866707593576
  0
LWPOLYLINE
  5
49
330
17
100
AcDbEntity
  8
ISLAND
100
AcDbPolyline
 90
4
 70
1
 10
9.079941091462487
 20
0.0
 10
7.299496587235922
 20
0.4770686670759376
 10
5.519052083009363
 20
0.0
 10
7.299496587235922
 20
-0.4770686670759376
  0
LWPOLYLINE
  5
4A
330
17
100
AcDbEntity
  8
ISLAND
100
AcDbPolyline
 90
4
 70
1
 10
4.359941091462488
 20
0.0
 10
2.579496587235923
 20
0.47706866707593576
 10
0.7990520830093644
 20
0.0
 10
2.579496587235923
 20
-0.47706866707593576
  0
LWPOLYLINE
  5
4B
330
17
100
AcDbEntity
  8
ISLAND
100
AcDbPolyline
 90
69
 70
1
 10
15.394656758458567
 20
-0.4627845053982622
 10
15.388400773847607
 20
-0.44353056455229867
 10
15.38147664736838
 20
-0.4245066834011753
 10
15.37389281500242
 20
-0.4057360396136709
 10
15.365658516481261
 20
-0.38724150232784393
 10
15.359375415978803
 20
-0.37435923723062775
 10
14.460649902680366
 20
-0.13354646172506573
 10
12.599052083009369
 20
-0.6323600941374495
 10
14.68988495384054
 20
-1.1925970733851092
 10
14.709528388480564
 20
-1.197494731712886
 10
14.729330782681608
 20
-1.2017038605370947
 10
14.749268010276673
 20
-1.2052193316826294
 10
14.769315780825018
 20
-1.2080368620894162
 10
14.789449669206363
 20
-1.210153019030662
 10
14.809645145379093
 20
-1.2115652242951023
 10
14.829877604266379
 20
-1.2122717573281565
 10
14.850122395733628
 20
-1.2122717573281565
 10
14.870354854620913
 20
-1.2115652242951023
 10
14.890550330793644
 20
-1.210153019030662
 10
14.910684219174989
 20
-1.2080368620894162
 10
14.930731989723334
 20
-1.2052193316826294
 10
14.9506692173184
 20
-1.2017038605370947
 10
14.970471611519443
 20
-1.197494731712886
 10
14.990115046159467
 20
-1.1925970733851092
 10
15.009575588739189
 20
-1.18701685259601
 10
15.028829529585153
 20
-1.1807608679850534
 10
15.04785341073628
 20
-1.1738367415058266
 10
15.066624054523786
 20
-1.1662529091398648
 10
15.08511859180961
 20
-1.1580186106187065
 10
15.103314489848941
 20
-1.149143878166703
 10
15.121189579742882
 20
-1.139639524278299
 10
15.138722083447831
 20
-1.1295171285446748
 10
15.15589064030872
 20
-1.1187890235457956
 10
15.172674333083613
 20
-1.1074682798250648
 10
15.18905271342819
 20
-1.0955686899648793
 10
15.205005826808907
 20
-1.0831047517824928
 10
15.220514236814495
 20
-1.0700916506666573
 10
15.235559048836251
 20
-1.0565452410765683
 10
15.250121933088202
 20
-1.0424820272256472
 10
15.26418514693912
 20
-1.0279191429736987
 10
15.277731556529211
 20
-1.0128743309519437
 10
15.29074465764505
 20
-0.9973659209463552
 10
15.303208595827435
 20
-0.9814128075656374
 10
15.31510818568762
 20
-0.9650344272210561
 10
15.326428929408351
 20
-0.9482507344461654
 10
15.337157034407227
 20
-0.9310821775852811
 10
15.347279430140851
 20
-0.913549673880325
 10
15.356783784029254
 20
-0.8956745839863867
 10
15.365658516481261
 20
-0.8774786859470552
 10
15.37389281500242
 20
-0.8589841486612283
 10
15.38147664736838
 20
-0.8402135048737236
 10
15.388400773847607
 20
-0.8211896237226004
 10
15.394656758458567
 20
-0.8019356828766367
 10
15.400236979247666
 20
-0.7824751402969117
 10
15.405134637575436
 20
-0.7628317056568914
 10
15.409343766399651
 20
-0.7430293114558456
 10
15.412859237545184
 20
-0.7230920838607835
 10
15.415676767951972
 20
-0.7030443133124351
 10
15.417792924893213
 20
-0.6829104249310913
 10
15.419205130157657
 20
-0.6627149487583569
 10
15.41991166319071
 20
-0.6424824898710739
 10
15.41991166319071
 20
-0.622237698403825
 10
15.419205130157657
 20
-0.6020052395165423
 10
15.417792924893213
 20
-0.581809763343808
 10
15.415676767951972
 20
-0.5616758749624641
 10
15.412859237545184
 20
-0.5416281044141157
 10
15.409343766399651
 20
-0.5216908768190536
 10
15.405134637575436
 20
-0.5018884826180079
 10
15.400236979247666
 20
-0.4822450479779875
  0
LWPOLYLINE
  5
4C
330
17
100
AcDbEntity
  8
ISLAND
100
AcDbPolyline
 90
69
 70
1
 10
10.674656758458568
 20
-0.4627845053982622
 10
10.668400773847608
 20
-0.44353056455229867
 10
10.661476647368382
 20
-0.4245066834011753
 10
10.653892815002422
 20
-0.4057360396136709
 10
10.645658516481262
 20
-0.38724150232784393
 10
10.639375415978805
 20
-0.37435923723062775
 10
9.740649902680367
 20
-0.13354646172506573
 10
7.87905208300937
 20
-0.6323600941374495
 10
9.969884953840541
 20
-1.1925970733851092
 10
9.989528388480565
 20
-1.197494731712886
 10
10.009330782681609
 20
-1.2017038605370947
 10
10.029268010276674
 20
-1.2052193316826294
 10
10.049315780825019
 20
-1.2080368620894162
 10
10.069449669206364
 20
-1.210153019030662
 10
10.089645145379095
 20
-1.2115652242951023
 10
10.10987760426638
 20
-1.2122717573281565
 10
10.130122395733629
 20
-1.2122717573281565
 10
10.150354854620915
 20
-1.2115652242951023
 10
10.170550330793645
 20
-1.210153019030662
 10
10.19068421917499
 20
-1.2080368620894162
 10
10.210731989723335
 20
-1.2052193316826294
 10
10.2306692173184
 20
-1.2017038605370947
 10
10.250471611519444
 20
-1.197494731712886
 10
10.270115046159468
 20
-1.1925970733851092
 10
10.28957558873919
 20
-1.18701685259601
 10
10.308829529585154
 20
-1.1807608679850534
 10
10.327853410736282
 20
-1.1738367415058266
 10
10.346624054523787
 20
-1.1662529091398648
 10
10.365118591809612
 20
-1.1580186106187065
 10
10.383314489848942
 20
-1.149143878166703
 10
10.401189579742883
 20
-1.139639524278299
 10
10.418722083447832
 20
-1.1295171285446748
 10
10.43589064030872
 20
-1.1187890235457956
 10
10.452674333083614
 20
-1.1074682798250648
 10
10.46905271342819
 20
-1.0955686899648793
 10
10.485005826808909
 20
-1.0831047517824928
 10
10.500514236814496
 20
-1.0700916506666573
 10
10.515559048836252
 20
-1.0565452410765683
 10
10.530121933088203
 20
-1.0424820272256472
 10
10.544185146939121
 20
-1.0279191429736987
 10
10.557731556529212
 20
-1.0128743309519437
 10
10.57074465764505
 20
-0.9973659209463552
 10
10.583208595827436
 20
-0.9814128075656374
 10
10.595108185687621
 20
-0.9650344272210561
 10
10.606428929408352
 20
-0.9482507344461654
 10
10.617157034407228
 20
-0.9310821775852811
 10
10.627279430140852
 20
-0.913549673880325
 10
10.636783784029255
 20
-0.8956745839863867
 10
10.645658516481262
 20
-0.8774786859470552
 10
10.653892815002422
 20
-0.8589841486612283
 10
10.661476647368382
 20
-0.8402135048737236
 10
10.668400773847608
 20
-0.8211896237226004
 10
10.674656758458568
 20
-0.8019356828766367
 10
10.680236979247667
 20
-0.7824751402969117
 10
10.685134637575437
 20
-0.7628317056568914
 10
10.689343766399652
 20
-0.7430293114558456
 10
10.692859237545186
 20
-0.7230920838607835
 10
10.695676767951973
 20
-0.7030443133124351
 10
10.697792924893214
 20
-0.6829104249310913
 10
10.699205130157658
 20
-0.6627149487583569
 10
10.699911663190711
 20
-0.6424824898710739
 10
10.699911663190711
 20
-0.622237698403825
 10
10.699205130157658
 20
-0.6020052395165423
 10
10.697792924893214
 20
-0.581809763343808
 10
10.695676767951973
 20
-0.5616758749624641
 10
10.692859237545186
 20
-0.5416281044141157
 10
10.689343766399652
 20
-0.5216908768190536
 10
10.685134637575437
 20
-0.5018884826180079
 10
10.680236979247667
 20
-0.4822450479779875
  0
LWPOLYLINE
  5
4D
330
17
100
AcDbEntity
  8
ISLAND
100
AcDbPolyline
 90
69
 70
1
 10
5.954656758458569
 20
-0.4627845053982622
 10
5.9484007738476095
 20
-0.44353056455229867
 10
5.941476647368383
 20
-0.4245066834011753
 10
5.933892815002423
 20
-0.4057360396136709
 10
5.925658516481263
 20
-0.38724150232784393
 10
5.919375415978806
 20
-0.37435923723062775
 10
5.020649902680368
 20
-0.13354646172506573
 10
3.159052083009371
 20
-0.6323600941374495
 10
5.249884953840542
 20
-1.1925970733851092
 10
5.269528388480566
 20
-1.197494731712886
 10
5.28933078268161
 20
-1.2017038605370947
 10
5.309268010276675
 20
-1.2052193316826294
 10
5.32931578082502
 20
-1.2080368620894162
 10
5.349449669206365
 20
-1.210153019030662
 10
5.369645145379096
 20
-1.2115652242951023
 10
5.389877604266381
 20
-1.2122717573281565
 10
5.41012239573363
 20
-1.2122717573281565
 10
5.430354854620916
 20
-1.2115652242951023
 10
5.4505503307936465
 20
-1.210153019030662
 10
5.470684219174991
 20
-1.2080368620894162
 10
5.490731989723336
 20
-1.2052193316826294
 10
5.5106692173184015
 20
-1.2017038605370947
 10
5.530471611519445
 20
-1.197494731712886
 10
5.550115046159469
 20
-1.1925970733851092
 10
5.569575588739191
 20
-1.18701685259601
 10
5.588829529585155
 20
-1.1807608679850534
 10
5.607853410736283
 20
-1.1738367415058266
 10
5.626624054523788
 20
-1.1662529091398648
 10
5.645118591809613
 20
-1.1580186106187065
 10
5.663314489848943
 20
-1.149143878166703
 10
5.681189579742885
 20
-1.139639524278299
 10
5.698722083447834
 20
-1.1295171285446748
 10
5.7158906403087215
 20
-1.1187890235457956
 10
5.732674333083615
 20
-1.1074682798250648
 10
5.749052713428192
 20
-1.0955686899648793
 10
5.76500582680891
 20
-1.0831047517824928
 10
5.780514236814497
 20
-1.0700916506666573
 10
5.795559048836253
 20
-1.0565452410765683
 10
5.810121933088205
 20
-1.0424820272256472
 10
5.824185146939122
 20
-1.0279191429736987
 10
5.837731556529214
 20
-1.0128743309519437
 10
5.850744657645052
 20
-0.9973659209463552
 10
5.863208595827437
 20
-0.9814128075656374
 10
5.875108185687623
 20
-0.9650344272210561
 10
5.886428929408353
 20
-0.9482507344461654
 10
5.897157034407229
 20
-0.9310821775852811
 10
5.9072794301408535
 20
-0.913549673880325
 10
5.916783784029256
 20
-0.8956745839863867
 10
5.925658516481263
 20
-0.8774786859470552
 10
5.933892815002423
 20
-0.8589841486612283
 10
5.941476647368383
 20
-0.8402135048737236
 10
5.9484007738476095
 20
-0.8211896237226004
 10
5.954656758458569
 20
-0.8019356828766367
 10
5.960236979247668
 20
-0.7824751402969117
 10
5.965134637575439
 20
-0.7628317056568914
 10
5.969343766399653
 20
-0.7430293114558456
 10
5.972859237545187
 20
-0.7230920838607835
 10
5.975676767951974
 20
-0.7030443133124351
 10
5.977792924893215
 20
-0.6829104249310913
 10
5.979205130157659
 20
-0.6627149487583569
 10
5.9799116631907125
 20
-0.6424824898710739
 10
5.9799116631907125
 20
-0.622237698403825
 10
5.979205130157659
 20
-0.6020052395165423
 10
5.977792924893215
 20
-0.581809763343808
 10
5.975676767951974
 20
-0.5616758749624641
 10
5.972859237545187
 20
-0.5416281044141157
 10
5.969343766399653
 20
-0.5216908768190536
 10
5.965134637575439
 20
-0.5018884826180079
 10
5.960236979247668
 20
-0.4822450479779875
  0
LWPOLYLINE
  5
4E
330
17
100
AcDbEntity
  8
ISLAND
100
AcDbPolyline
 90
69
 70
1
 10
20.11465675845856
 20
-0.4627845053982622
 10
20.108400773847602
 20
-0.44353056455229867
 10
20.101476647368376
 20
-0.4245066834011753
 10
20.093892815002413
 20
-0.4057360396136709
 10
20.085658516481256
 20
-0.38724150232784393
 10
20.079375415978802
 20
-0.37435923723062964
 10
19.18064990268036
 20
-0.13354646172506615
 10
17.31905208300936
 20
-0.6323600941374495
 10
19.409884953840535
 20
-1.1925970733851092
 10
19.429528388480556
 20
-1.197494731712886
 10
19.449330782681603
 20
-1.2017038605370947
 10
19.469268010276664
 20
-1.2052193316826294
 10
19.489315780825013
 20
-1.2080368620894162
 10
19.509449669206358
 20
-1.210153019030662
 10
19.529645145379092
 20
-1.2115652242951023
 10
19.549877604266374
 20
-1.2122717573281565
 10
19.570122395733623
 20
-1.2122717573281565
 10
19.590354854620905
 20
-1.2115652242951023
 10
19.61055033079364
 20
-1.210153019030662
 10
19.630684219174984
 20
-1.2080368620894162
 10
19.650731989723333
 20
-1.2052193316826294
 10
19.670669217318395
 20
-1.2017038605370947
 10
19.690471611519442
 20
-1.197494731712886
 10
19.710115046159462
 20
-1.1925970733851092
 10
19.729575588739188
 20
-1.18701685259601
 10
19.748829529585148
 20
-1.1807608679850534
 10
19.767853410736272
 20
-1.1738367415058266
 10
19.786624054523777
 20
-1.1662529091398648
 10
19.805118591809606
 20
-1.1580186106187065
 10
19.823314489848936
 20
-1.149143878166703
 10
19.841189579742874
 20
-1.139639524278299
 10
19.85872208344783
 20
-1.1295171285446748
 10
19.875890640308715
 20
-1.1187890235457956
 10
19.892674333083605
 20
-1.1074682798250648
 10
19.90905271342819
 20
-1.0955686899648793
 10
19.925005826808903
 20
-1.0831047517824928
 10
19.940514236814494
 20
-1.0700916506666573
 10
19.955559048836246
 20
-1.0565452410765683
 10
19.970121933088198
 20
-1.0424820272256472
 10
19.98418514693912
 20
-1.0279191429736987
 10
19.997731556529207
 20
-1.0128743309519437
 10
20.01074465764504
 20
-0.9973659209463552
 10
20.023208595827427
 20
-0.9814128075656374
 10
20.035108185687616
 20
-0.9650344272210561
 10
20.046428929408343
 20
-0.9482507344461654
 10
20.057157034407222
 20
-0.9310821775852811
 10
20.067279430140847
 20
-0.913549673880325
 10
20.076783784029253
 20
-0.8956745839863867
 10
20.085658516481256
 20
-0.8774786859470552
 10
20.093892815002413
 20
-0.8589841486612283
 10
20.101476647368376
 20
-0.8402135048737236
 10
20.108400773847602
 20
-0.8211896237226004
 10
20.11465675845856
 20
-0.8019356828766367
 10
20.120236979247657
 20
-0.7824751402969117
 10
20.125134637575435
 20
-0.7628317056568914
 10
20.129343766399643
 20
-0.7430293114558456
 10
20.13285923754518
 20
-0.7230920838607835
 10
20.135676767951967
 20
-0.7030443133124351
 10
20.137792924893212
 20
-0.6829104249310913
 10
20.139205130157652
 20
-0.6627149487583569
 10
20.139911663190706
 20
-0.6424824898710739
 10
20.139911663190706
 20
-0.622237698403825
 10
20.139205130157652
 20
-0.6020052395165423
 10
20.137792924893212
 20
-0.581809763343808
 10
20.135676767951967
 20
-0.5616758749624641
 10
20.13285923754518
 20
-0.5416281044141157
 10
20.129343766399643
 20
-0.5216908768190536
 10
20.125134637575435
 20
-0.5018884826180079
 10
20.120236979247657
 20
-0.4822450479779875
  0
LWPOLYLINE
  5
4F
330
17
100
AcDbEntity
  8
ISLAND
100
AcDbPolyline
 90
69
 70
1
 10
24.83465675845856
 20
-0.4627845053982622
 10
24.828400773847605
 20
-0.44353056455229867
 10
24.821476647368378
 20
-0.4245066834011753
 10
24.813892815002415
 20
-0.4057360396136709
 10
24.80565851648126
 20
-0.38724150232784393
 10
24.799375415978805
 20
-0.37435923723062986
 10
23.90064990268036
 20
-0.1335464617250663
 10
22.039052083009363
 20
-0.6323600941374495
 10
24.129884953840538
 20
-1.1925970733851092
 10
24.149528388480558
 20
-1.197494731712886
 10
24.169330782681605
 20
-1.2017038605370947
 10
24.189268010276667
 20
-1.2052193316826294
 10
24.209315780825015
 20
-1.2080368620894162
 10
24.22944966920636
 20
-1.210153019030662
 10
24.249645145379095
 20
-1.2115652242951023
 10
24.269877604266377
 20
-1.2122717573281565
 10
24.290122395733626
 20
-1.2122717573281565
 10
24.310354854620908
 20
-1.2115652242951023
 10
24.330550330793642
 20
-1.210153019030662
 10
24.350684219174987
 20
-1.2080368620894162
 10
24.370731989723335
 20
-1.2052193316826294
 10
24.390669217318397
 20
-1.2017038605370947
 10
24.410471611519444
 20
-1.197494731712886
 10
24.430115046159464
 20
-1.1925970733851092
 10
24.44957558873919
 20
-1.18701685259601
 10
24.46882952958515
 20
-1.1807608679850534
 10
24.487853410736275
 20
-1.1738367415058266
 10
24.50662405452378
 20
-1.1662529091398648
 10
24.52511859180961
 20
-1.1580186106187065
 10
24.54331448984894
 20
-1.149143878166703
 10
24.561189579742877
 20
-1.139639524278299
 10
24.578722083447833
 20
-1.1295171285446748
 10
24.595890640308717
 20
-1.1187890235457956
 10
24.612674333083607
 20
-1.1074682798250648
 10
24.62905271342819
 20
-1.0955686899648793
 10
24.645005826808905
 20
-1.0831047517824928
 10
24.660514236814496
 20
-1.0700916506666573
 10
24.67555904883625
 20
-1.0565452410765683
 10
24.6901219330882
 20
-1.0424820272256472
 10
24.70418514693912
 20
-1.0279191429736987
 10
24.71773155652921
 20
-1.0128743309519437
 10
24.730744657645044
 20
-0.9973659209463552
 10
24.74320859582743
 20
-0.9814128075656374
 10
24.755108185687618
 20
-0.9650344272210561
 10
24.766428929408345
 20
-0.9482507344461654
 10
24.777157034407225
 20
-0.9310821775852811
 10
24.78727943014085
 20
-0.913549673880325
 10
24.796783784029255
 20
-0.8956745839863867
 10
24.80565851648126
 20
-0.8774786859470552
 10
24.813892815002415
 20
-0.8589841486612283
 10
24.821476647368378
 20
-0.8402135048737236
 10
24.828400773847605
 20
-0.8211896237226004
 10
24.83465675845856
 20
-0.8019356828766367
 10
24.84023697924766
 20
-0.7824751402969117
 10
24.845134637575438
 20
-0.7628317056568914
 10
24.849343766399645
 20
-0.7430293114558456
 10
24.852859237545182
 20
-0.7230920838607835
 10
24.85567676795197
 20
-0.7030443133124351
 10
24.857792924893214
 20
-0.6829104249310913
 10
24.859205130157655
 20
-0.6627149487583569
 10
24.859911663190708
 20
-0.6424824898710739
 10
24.859911663190708
 20
-0.622237698403825
 10
24.859205130157655
 20
-0.6020052395165423
 10
24.857792924893214
 20
-0.581809763343808
 10
24.85567676795197
 20
-0.5616758749624641
 10
24.852859237545182
 20
-0.5416281044141157
 10
24.849343766399645
 20
-0.5216908768190536
 10
24.845134637575438
 20
-0.5018884826180079
 10
24.84023697924766
 20
-0.4822450479779875
  0
TEXT
  5
50
330
17
100
AcDbEntity
  8
OUTER
100
AcDbText
 10
0.0
 20
2.2
 30
0.0
 40
0.5
  1
SYMTVM-Reverse  Xia et al. 2025 ATE 258 124611 Fig.3/4  unit mm
 11
0.0
 21
2.2
 31
0.0
100
AcDbText
  0
ENDSEC
  0
SECTION
  2
OBJECTS
  0
DICTIONARY
  5
A
330
0
100
AcDbDictionary
281
1
  3
ACAD_COLOR
350
B
  3
ACAD_GROUP
350
C
  3
ACAD_LAYOUT
350
D
  3
ACAD_MATERIAL
350
E
  3
ACAD_MLEADERSTYLE
350
F
  3
ACAD_MLINESTYLE
350
10
  3
ACAD_PLOTSETTINGS
350
11
  3
ACAD_PLOTSTYLENAME
350
12
  3
ACAD_SCALELIST
350
14
  3
ACAD_TABLESTYLE
350
15
  3
ACAD_VISUALSTYLE
350
16
  3
EZDXF_META
350
2D
  0
DICTIONARY
  5
B
330
A
100
AcDbDictionary
281
1
  0
DICTIONARY
  5
C
330
A
100
AcDbDictionary
281
1
  0
DICTIONARY
  5
D
330
A
100
AcDbDictionary
281
1
  3
Model
350
1A
  3
Layout1
350
1E
  0
DICTIONARY
  5
E
330
A
100
AcDbDictionary
281
1
  3
ByBlock
350
1F
  3
ByLayer
350
20
  3
Global
350
21
  0
DICTIONARY
  5
F
330
A
100
AcDbDictionary
281
1
  3
Standard
350
2C
  0
DICTIONARY
  5
10
330
A
100
AcDbDictionary
281
1
  3
Standard
350
22
  0
DICTIONARY
  5
11
330
A
100
AcDbDictionary
281
1
  0
ACDBDICTIONARYWDFLT
  5
12
330
A
100
AcDbDictionary
281
1
  3
Normal
350
13
100
AcDbDictionaryWithDefault
340
13
  0
ACDBPLACEHOLDER
  5
13
330
12
  0
DICTIONARY
  5
14
330
A
100
AcDbDictionary
281
1
  0
DICTIONARY
  5
15
330
A
100
AcDbDictionary
281
1
  0
DICTIONARY
  5
16
330
A
100
AcDbDictionary
281
1
  0
LAYOUT
  5
1A
330
D
100
AcDbPlotSettings
  1

  4
A3
  6

 40
7.5
 41
20.0
 42
7.5
 43
20.0
 44
420.0
 45
297.0
 46
0.0
 47
0.0
 48
0.0
 49
0.0
140
0.0
141
0.0
142
1.0
143
1.0
 70
1024
 72
1
 73
0
 74
5
  7

 75
16
 76
0
 77
2
 78
300
147
1.0
148
0.0
149
0.0
100
AcDbLayout
  1
Model
 70
1
 71
0
 10
0.0
 20
0.0
 11
420.0
 21
297.0
 12
0.0
 22
0.0
 32
0.0
 14
1e+20
 24
1e+20
 34
1e+20
 15
-1e+20
 25
-1e+20
 35
-1e+20
146
0.0
 13
0.0
 23
0.0
 33
0.0
 16
1.0
 26
0.0
 36
0.0
 17
0.0
 27
1.0
 37
0.0
 76
1
330
17
  0
LAYOUT
  5
1E
330
D
100
AcDbPlotSettings
  1

  4
A3
  6

 40
7.5
 41
20.0
 42
7.5
 43
20.0
 44
420.0
 45
297.0
 46
0.0
 47
0.0
 48
0.0
 49
0.0
140
0.0
141
0.0
142
1.0
143
1.0
 70
0
 72
1
 73
0
 74
5
  7

 75
16
 76
0
 77
2
 78
300
147
1.0
148
0.0
149
0.0
100
AcDbLayout
  1
Layout1
 70
1
 71
1
 10
0.0
 20
0.0
 11
420.0
 21
297.0
 12
0.0
 22
0.0
 32
0.0
 14
1e+20
 24
1e+20
 34
1e+20
 15
-1e+20
 25
-1e+20
 35
-1e+20
146
0.0
 13
0.0
 23
0.0
 33
0.0
 16
1.0
 26
0.0
 36
0.0
 17
0.0
 27
1.0
 37
0.0
 76
1
330
1B
  0
MATERIAL
  5
1F
102
{ACAD_REACTORS
330
E
102
}
330
E
100
AcDbMaterial
  1
ByBlock
  2

 70
0
 40
1.0
 71
1
 41
1.0
 91
-1023410177
 42
1.0
 72
1
  3

 73
1
 74
1
 75
1
 44
0.5
 73
0
 45
1.0
 46
1.0
 77
1
  4

 78
1
 79
1
170
1
 48
1.0
171
1
  6

172
1
173
1
174
1
140
1.0
141
1.0
175
1
  7

176
1
177
1
178
1
143
1.0
179
1
  8

270
1
271
1
272
1
145
1.0
146
1.0
273
1
  9

274
1
275
1
276
1
 42
1.0
 72
1
  3

 73
1
 74
1
 75
1
 94
63
  0
MATERIAL
  5
20
102
{ACAD_REACTORS
330
E
102
}
330
E
100
AcDbMaterial
  1
ByLayer
  2

 70
0
 40
1.0
 71
1
 41
1.0
 91
-1023410177
 42
1.0
 72
1
  3

 73
1
 74
1
 75
1
 44
0.5
 73
0
 45
1.0
 46
1.0
 77
1
  4

 78
1
 79
1
170
1
 48
1.0
171
1
  6

172
1
173
1
174
1
140
1.0
141
1.0
175
1
  7

176
1
177
1
178
1
143
1.0
179
1
  8

270
1
271
1
272
1
145
1.0
146
1.0
273
1
  9

274
1
275
1
276
1
 42
1.0
 72
1
  3

 73
1
 74
1
 75
1
 94
63
  0
MATERIAL
  5
21
102
{ACAD_REACTORS
330
E
102
}
330
E
100
AcDbMaterial
  1
Global
  2

 70
0
 40
1.0
 71
1
 41
1.0
 91
-1023410177
 42
1.0
 72
1
  3

 73
1
 74
1
 75
1
 44
0.5
 73
0
 45
1.0
 46
1.0
 77
1
  4

 78
1
 79
1
170
1
 48
1.0
171
1
  6

172
1
173
1
174
1
140
1.0
141
1.0
175
1
  7

176
1
177
1
178
1
143
1.0
179
1
  8

270
1
271
1
272
1
145
1.0
146
1.0
273
1
  9

274
1
275
1
276
1
 42
1.0
 72
1
  3

 73
1
 74
1
 75
1
 94
63
  0
MLINESTYLE
  5
22
102
{ACAD_REACTORS
330
10
102
}
330
10
100
AcDbMlineStyle
  2
Standard
 70
0
  3

 62
256
 51
90.0
 52
90.0
 71
2
 49
0.5
 62
256
  6
BYLAYER
 49
-0.5
 62
256
  6
BYLAYER
  0
MLEADERSTYLE
  5
2C
102
{ACAD_REACTORS
330
F
102
}
330
F
100
AcDbMLeaderStyle
179
2
170
2
171
1
172
0
 90
2
 40
0.0
 41
0.0
173
1
 91
-1056964608
 92
-2
290
1
 42
2.0
291
1
 43
8.0
  3
Standard
 44
4.0
300

342
29
174
1
175
1
176
0
178
1
 93
-1056964608
 45
4.0
292
0
297
0
 46
4.0
 94
-1056964608
 47
1.0
 49
1.0
140
1.0
294
1
141
0.0
177
0
142
1.0
295
0
296
0
143
3.75
271
0
272
9
273
9
  0
DICTIONARY
  5
2D
330
A
100
AcDbDictionary
280
1
281
1
  3
CREATED_BY_EZDXF
350
2E
  3
WRITTEN_BY_EZDXF
350
53
  0
DICTIONARYVAR
  5
2E
330
2D
100
DictionaryVariables
280
0
  1
1.4.4 @ 2026-10-08T10:24:08.656008+00:00
  0
DICTIONARYVAR
  5
53
330
2D
100
DictionaryVariables
280
0
  1
1.4.4 @ 2026-10-08T10:24:08.661857+00:00
  0
ENDSEC
  0
EOF
