  0
SECTION
  2
HEADER
  9
$ACADVER
  1
AC1024
  9
$ACADMAINTVER
 70
6
  9
$DWGCODEPAGE
  3
ANSI_1252
  9
$LASTSAVEDBY
  1
ezdxf
  9
$INSBASE
 10
0.0
 20
0.0
 30
0.0
  9
$EXTMIN
 10
1e+20
 20
1e+20
 30
1e+20
  9
$EXTMAX
 10
-1e+20
 20
-1e+20
 30
-1e+20
  9
$LIMMIN
 10
0.0
 20
0.0
  9
$LIMMAX
 10
420.0
 20
297.0
  9
$ORTHOMODE
 70
0
  9
$REGENMODE
 70
1
  9
$FILLMODE
 70
1
  9
$QTEXTMODE
 70
0
  9
$MIRRTEXT
 70
1
  9
$LTSCALE
 40
1.0
  9
$ATTMODE
 70
1
  9
$TEXTSIZE
 40
2.5
  9
$TRACEWID
 40
1.0
  9
$TEXTSTYLE
  7
Standard
  9
$CLAYER
  8
0
  9
$CELTYPE
  6
ByLayer
  9
$CECOLOR
 62
256
  9
$CELTSCALE
 40
1.0
  9
$DISPSILH
 70
0
  9
$DIMSCALE
 40
1.0
  9
$DIMASZ
 40
2.5
  9
$DIMEXO
 40
0.625
  9
$DIMDLI
 40
3.75
  9
$DIMRND
 40
0.0
  9
$DIMDLE
 40
0.0
  9
$DIMEXE
 40
1.25
  9
$DIMTP
 40
0.0
  9
$DIMTM
 40
0.0
  9
$DIMTXT
 40
2.5
  9
$DIMCEN
 40
2.5
  9
$DIMTSZ
 40
0.0
  9
$DIMTOL
 70
0
  9
$DIMLIM
 70
0
  9
$DIMTIH
 70
0
  9
$DIMTOH
 70
0
  9
$DIMSE1
 70
0
  9
$DIMSE2
 70
0
  9
$DIMTAD
 70
1
  9
$DIMZIN
 70
8
  9
$DIMBLK
  1

  9
$DIMASO
 70
1
  9
$DIMSHO
 70
1
  9
$DIMPOST
  1

  9
$DIMAPOST
  1

  9
$DIMALT
 70
0
  9
$DIMALTD
 70
3
  9
$DIMALTF
 40
0.03937007874
  9
$DIMLFAC
 40
1.0
  9
$DIMTOFL
 70
1
  9
$DIMTVP
 40
0.0
  9
$DIMTIX
 70
0
  9
$DIMSOXD
 70
0
  9
$DIMSAH
 70
0
  9
$DIMBLK1
  1

  9
$DIMBLK2
  1

  9
$DIMSTYLE
  2
ISO-25
  9
$DIMCLRD
 70
0
  9
$DIMCLRE
 70
0
  9
$DIMCLRT
 70
0
  9
$DIMTFAC
 40
1.0
  9
$DIMGAP
 40
0.625
  9
$DIMJUST
 70
0
  9
$DIMSD1
 70
0
  9
$DIMSD2
 70
0
  9
$DIMTOLJ
 70
0
  9
$DIMTZIN
 70
8
  9
$DIMALTZ
 70
0
  9
$DIMALTTZ
 70
0
  9
$DIMUPT
 70
0
  9
$DIMDEC
 70
2
  9
$DIMTDEC
 70
2
  9
$DIMALTU
 70
2
  9
$DIMALTTD
 70
3
  9
$DIMTXSTY
  7
Standard
  9
$DIMAUNIT
 70
0
  9
$DIMADEC
 70
0
  9
$DIMALTRND
 40
0.0
  9
$DIMAZIN
 70
0
  9
$DIMDSEP
 70
44
  9
$DIMATFIT
 70
3
  9
$DIMFRAC
 70
0
  9
$DIMLDRBLK
  1

  9
$DIMLUNIT
 70
2
  9
$DIMLWD
 70
-2
  9
$DIMLWE
 70
-2
  9
$DIMTMOVE
 70
0
  9
$DIMFXL
 40
1.0
  9
$DIMFXLON
 70
0
  9
$DIMJOGANG
 40
0.785398163397
  9
$DIMTFILL
 70
0
  9
$DIMTFILLCLR
 70
0
  9
$DIMARCSYM
 70
0
  9
$DIMLTYPE
  6

  9
$DIMLTEX1
  6

  9
$DIMLTEX2
  6

  9
$DIMTXTDIRECTION
 70
0
  9
$LUNITS
 70
2
  9
$LUPREC
 70
4
  9
$SKETCHINC
 40
1.0
  9
$FILLETRAD
 40
10.0
  9
$AUNITS
 70
0
  9
$AUPREC
 70
2
  9
$MENU
  1
.
  9
$ELEVATION
 40
0.0
  9
$PELEVATION
 40
0.0
  9
$THICKNESS
 40
0.0
  9
$LIMCHECK
 70
0
  9
$CHAMFERA
 40
0.0
  9
$CHAMFERB
 40
0.0
  9
$CHAMFERC
 40
0.0
  9
$CHAMFERD
 40
0.0
  9
$SKPOLY
 70
0
  9
$TDCREATE
 40
2461322.8084143517
  9
$TDUCREATE
 40
2458532.153996898
  9
$TDUPDATE
 40
2461322.8084143517
  9
$TDUUPDATE
 40
2458532.1544311
  9
$TDINDWG
 40
0.0
  9
$TDUSRTIMER
 40
0.0
  9
$USRTIMER
 70
1
  9
$ANGBASE
 50
0.0
  9
$ANGDIR
 70
0
  9
$PDMODE
 70
0
  9
$PDSIZE
 40
0.0
  9
$PLINEWID
 40
0.0
  9
$SPLFRAME
 70
0
  9
$SPLINETYPE
 70
6
  9
$SPLINESEGS
 70
8
  9
$HANDSEED
  5
54
  9
$SURFTAB1
 70
6
  9
$SURFTAB2
 70
6
  9
$SURFTYPE
 70
6
  9
$SURFU
 70
6
  9
$SURFV
 70
6
  9
$UCSBASE
  2

  9
$UCSNAME
  2

  9
$UCSORG
 10
0.0
 20
0.0
 30
0.0
  9
$UCSXDIR
 10
1.0
 20
0.0
 30
0.0
  9
$UCSYDIR
 10
0.0
 20
1.0
 30
0.0
  9
$UCSORTHOREF
  2

  9
$UCSORTHOVIEW
 70
0
  9
$UCSORGTOP
 10
0.0
 20
0.0
 30
0.0
  9
$UCSORGBOTTOM
 10
0.0
 20
0.0
 30
0.0
  9
$UCSORGLEFT
 10
0.0
 20
0.0
 30
0.0
  9
$UCSORGRIGHT
 10
0.0
 20
0.0
 30
0.0
  9
$UCSORGFRONT
 10
0.0
 20
0.0
 30
0.0
  9
$UCSORGBACK
 10
0.0
 20
0.0
 30
0.0
  9
$PUCSBASE
  2

  9
$PUCSNAME
  2

  9
$PUCSORG
 10
0.0
 20
0.0
 30
0.0
  9
$PUCSXDIR
 10
1.0
 20
0.0
 30
0.0
  9
$PUCSYDIR
 10
0.0
 20
1.0
 30
0.0
  9
$PUCSORTHOREF
  2

  9
$PUCSORTHOVIEW
 70
0
  9
$PUCSORGTOP
 10
0.0
 20
0.0
 30
0.0
  9
$PUCSORGBOTTOM
 10
0.0
 20
0.0
 30
0.0
  9
$PUCSORGLEFT
 10
0.0
 20
0.0
 30
0.0
  9
$PUCSORGRIGHT
 10
0.0
 20
0.0
 30
0.0
  9
$PUCSORGFRONT
 10
0.0
 20
0.0
 30
0.0
  9
$PUCSORGBACK
 10
0.0
 20
0.0
 30
0.0
  9
$USERI1
 70
0
  9
$USERI2
 70
0
  9
$USERI3
 70
0
  9
$USERI4
 70
0
  9
$USERI5
 70
0
  9
$USERR1
 40
0.0
  9
$USERR2
 40
0.0
  9
$USERR3
 40
0.0
  9
$USERR4
 40
0.0
  9
$USERR5
 40
0.0
  9
$WORLDVIEW
 70
1
  9
$SHADEDGE
 70
3
  9
$SHADEDIF
 70
70
  9
$TILEMODE
 70
1
  9
$MAXACTVP
 70
64
  9
$PINSBASE
 10
0.0
 20
0.0
 30
0.0
  9
$PLIMCHECK
 70
0
  9
$PEXTMIN
 10
1e+20
 20
1e+20
 30
1e+20
  9
$PEXTMAX
 10
-1e+20
 20
-1e+20
 30
-1e+20
  9
$PLIMMIN
 10
0.0
 20
0.0
  9
$PLIMMAX
 10
420.0
 20
297.0
  9
$UNITMODE
 70
0
  9
$VISRETAIN
 70
1
  9
$PLINEGEN
 70
0
  9
$PSLTSCALE
 70
1
  9
$TREEDEPTH
 70
3020
  9
$CMLSTYLE
  2
Standard
  9
$CMLJUST
 70
0
  9
$CMLSCALE
 40
20.0
  9
$PROXYGRAPHICS
 70
1
  9
$MEASUREMENT
 70
1
  9
$CELWEIGHT
370
-1
  9
$ENDCAPS
280
0
  9
$JOINSTYLE
280
0
  9
$LWDISPLAY
290
0
  9
$INSUNITS
 70
4
  9
$HYPERLINKBASE
  1

  9
$STYLESHEET
  1

  9
$XEDIT
290
1
  9
$CEPSNTYPE
380
0
  9
$PSTYLEMODE
290
1
  9
$FINGERPRINTGUID
  2
{7D00CA1A-DAE8-469C-A39F-F390B146956F}
  9
$VERSIONGUID
  2
{EDEE44C4-56B2-4B66-89E0-6ED285A687DF}
  9
$EXTNAMES
290
1
  9
$PSVPSCALE
 40
0.0
  9
$OLESTARTUP
290
0
  9
$SORTENTS
280
127
  9
$INDEXCTL
280
0
  9
$HIDETEXT
280
1
  9
$XCLIPFRAME
280
1
  9
$HALOGAP
280
0
  9
$OBSCOLOR
 70
257
  9
$OBSLTYPE
280
0
  9
$INTERSECTIONDISPLAY
280
0
  9
$INTERSECTIONCOLOR
 70
257
  9
$DIMASSOC
280
2
  9
$PROJECTNAME
  1

  9
$CAMERADISPLAY
290
0
  9
$LENSLENGTH
 40
50.0
  9
$CAMERAHEIGHT
 40
0.0
  9
$STEPSPERSEC
 40
24.0
  9
$STEPSIZE
 40
100.0
  9
$3DDWFPREC
 40
2.0
  9
$PSOLWIDTH
 40
0.005
  9
$PSOLHEIGHT
 40
0.08
  9
$LOFTANG1
 40
1.570796326795
  9
$LOFTANG2
 40
1.570796326795
  9
$LOFTMAG1
 40
0.0
  9
$LOFTMAG2
 40
0.0
  9
$LOFTPARAM
 70
7
  9
$LOFTNORMALS
280
1
  9
$LATITUDE
 40
37.795
  9
$LONGITUDE
 40
-122.394
  9
$NORTHDIRECTION
 40
0.0
  9
$TIMEZONE
 70
-8000
  9
$LIGHTGLYPHDISPLAY
280
1
  9
$TILEMODELIGHTSYNCH
280
1
  9
$CMATERIAL
347
20
  9
$SOLIDHIST
280
0
  9
$SHOWHIST
280
1
  9
$DWFFRAME
280
2
  9
$DGNFRAME
280
2
  9
$REALWORLDSCALE
290
1
  9
$INTERFERECOLOR
 62
256
  9
$CSHADOW
280
0
  9
$SHADOWPLANELOCATION
 40
0.0
  0
ENDSEC
  0
SECTION
  2
CLASSES
  0
CLASS
  1
ACDBDICTIONARYWDFLT
  2
AcDbDictionaryWithDefault
  3
ObjectDBX Classes
 90
0
 91
0
280
0
281
0
  0
CLASS
  1
SUN
  2
AcDbSun
  3
SCENEOE
 90
1153
 91
0
280
0
281
0
  0
CLASS
  1
VISUALSTYLE
  2
AcDbVisualStyle
  3
ObjectDBX Classes
 90
4095
 91
0
280
0
281
0
  0
CLASS
  1
MATERIAL
  2
AcDbMaterial
  3
ObjectDBX Classes
 90
1153
 91
0
280
0
281
0
  0
CLASS
  1
SCALE
  2
AcDbScale
  3
ObjectDBX Classes
 90
1153
 91
0
280
0
281
0
  0
CLASS
  1
TABLESTYLE
  2
AcDbTableStyle
  3
ObjectDBX Classes
 90
4095
 91
0
280
0
281
0
  0
CLASS
  1
MLEADERSTYLE
  2
AcDbMLeaderStyle
  3
ACDB_MLEADERSTYLE_CLASS
 90
4095
 91
0
280
0
281
0
  0
CLASS
  1
DICTIONARYVAR
  2
AcDbDictionaryVar
  3
ObjectDBX Classes
 90
0
 91
0
280
0
281
0
  0
CLASS
  1
CELLSTYLEMAP
  2
AcDbCellStyleMap
  3
ObjectDBX Classes
 90
1152
 91
0
280
0
281
0
  0
CLASS
  1
MENTALRAYRENDERSETTINGS
  2
AcDbMentalRayRenderSettings
  3
SCENEOE
 90
1024
 91
0
280
0
281
0
  0
CLASS
  1
ACDBDETAILVIEWSTYLE
  2
AcDbDetailViewStyle
  3
ObjectDBX Classes
 90
1025
 91
0
280
0
281
0
  0
CLASS
  1
ACDBSECTIONVIEWSTYLE
  2
AcDbSectionViewStyle
  3
ObjectDBX Classes
 90
1025
 91
0
280
0
281
0
  0
CLASS
  1
RASTERVARIABLES
  2
AcDbRasterVariables
  3
ISM
 90
0
 91
0
280
0
281
0
  0
CLASS
  1
LAYOUT
  2
AcDbLayout
  3
ObjectDBX Classes
 90
0
 91
0
280
0
281
0
  0
CLASS
  1
ACDBPLACEHOLDER
  2
AcDbPlaceHolder
  3
ObjectDBX Classes
 90
0
 91
0
280
0
281
0
  0
ENDSEC
  0
SECTION
  2
TABLES
  0
TABLE
  2
VPORT
  5
8
330
0
100
AcDbSymbolTable
 70
1
  0
VPORT
  5
23
330
8
100
AcDbSymbolTableRecord
100
AcDbViewportTableRecord
  2
*Active
 70
0
 10
0.0
 20
0.0
 11
1.0
 21
1.0
 12
0.0
 22
0.0
 13
0.0
 23
0.0
 14
0.5
 24
0.5
 15
0.5
 25
0.5
 16
0.0
 26
0.0
 36
1.0
 17
0.0
 27
0.0
 37
0.0
 40
1000.0
 41
1.34
 42
50.0
 43
0.0
 44
0.0
 50
0.0
 51
0.0
 71
0
 72
1000
 73
1
 74
3
 75
0
 76
0
 77
0
 78
0
281
0
 65
0
146
0.0
  0
ENDTAB
  0
TABLE
  2
LTYPE
  5
2
330
0
100
AcDbSymbolTable
 70
3
  0
LTYPE
  5
24
330
2
100
AcDbSymbolTableRecord
100
AcDbLinetypeTableRecord
  2
ByBlock
 70
0
  3

 72
65
 73
0
 40
0.0
  0
LTYPE
  5
25
330
2
100
AcDbSymbolTableRecord
100
AcDbLinetypeTableRecord
  2
ByLayer
 70
0
  3

 72
65
 73
0
 40
0.0
  0
LTYPE
  5
26
330
2
100
AcDbSymbolTableRecord
100
AcDbLinetypeTableRecord
  2
Continuous
 70
0
  3

 72
65
 73
0
 40
0.0
  0
ENDTAB
  0
TABLE
  2
LAYER
  5
1
330
0
100
AcDbSymbolTable
 70
4
  0
LAYER
  5
27
330
1
100
AcDbSymbolTableRecord
100
AcDbLayerTableRecord
  2
0
 70
0
 62
7
  6
Continuous
370
-3
390
13
347
21
  0
LAYER
  5
28
330
1
100
AcDbSymbolTableRecord
100
AcDbLayerTableRecord
  2
Defpoints
 70
0
 62
7
  6
Continuous
290
0
370
-3
390
13
347
21
  0
LAYER
  5
2F
330
1
100
AcDbSymbolTableRecord
100
AcDbLayerTableRecord
  2
OUTER
 70
0
 62
5
  6
Continuous
370
-3
390
13
347
21
  0
LAYER
  5
30
330
1
100
AcDbSymbolTableRecord
100
AcDbLayerTableRecord
  2
ISLAND
 70
0
 62
1
  6
Continuous
370
-3
390
13
347
21
  0
ENDTAB
  0
TABLE
  2
STYLE
  5
5
330
0
100
AcDbSymbolTable
 70
1
  0
STYLE
  5
29
330
5
100
AcDbSymbolTableRecord
100
AcDbTextStyleTableRecord
  2
Standard
 70
0
 40
0.0
 41
1.0
 50
0.0
 71
0
 42
2.5
  3
txt
  4

  0
ENDTAB
  0
TABLE
  2
VIEW
  5
7
330
0
100
AcDbSymbolTable
 70
0
  0
ENDTAB
  0
TABLE
  2
UCS
  5
6
330
0
100
AcDbSymbolTable
 70
0
  0
ENDTAB
  0
TABLE
  2
APPID
  5
3
330
0
100
AcDbSymbolTable
 70
3
  0
APPID
  5
2A
330
3
100
AcDbSymbolTableRecord
100
AcDbRegAppTableRecord
  2
ACAD
 70
0
  0
APPID
  5
51
330
3
100
AcDbSymbolTableRecord
100
AcDbRegAppTableRecord
  2
HATCHBACKGROUNDCOLOR
 70
0
  0
APPID
  5
52
330
3
100
AcDbSymbolTableRecord
100
AcDbRegAppTableRecord
  2
EZDXF
 70
0
  0
ENDTAB
  0
TABLE
  2
DIMSTYLE
  5
4
330
0
100
AcDbSymbolTable
 70
1
100
AcDbDimStyleTable
  0
DIMSTYLE
105
2B
330
4
100
AcDbSymbolTableRecord
100
AcDbDimStyleTableRecord
  2
Standard
 70
0
 40
1.0
 41
2.5
 42
0.625
 43
3.75
 44
1.25
 45
0.0
 46
0.0
 47
0.0
 48
0.0
 49
2.5
140
2.5
141
2.5
142
0.0
143
0.03937007874
144
1.0
145
0.0
146
1.0
147
0.625
148
0.0
 69
0
 70
0
 71
0
 72
0
 73
0
 74
0
 75
0
 76
0
 77
1
 78
8
 79
3
170
0
171
3
172
1
173
0
174
0
175
0
176
0
177
0
178
0
179
2
271
2
272
2
273
2
274
3
275
0
276
0
277
2
278
44
279
0
280
0
281
0
282
0
283
0
284
8
285
0
286
0
288
0
289
3
290
0
371
-2
372
-2
  0
ENDTAB
  0
TABLE
  2
BLOCK_RECORD
  5
9
330
0
100
AcDbSymbolTable
 70
2
  0
BLOCK_RECORD
  5
17
330
9
100
AcDbSymbolTableRecord
100
AcDbBlockTableRecord
  2
*Model_Space
340
1A
 70
0
280
1
281
0
  0
BLOCK_RECORD
  5
1B
330
9
100
AcDbSymbolTableRecord
100
AcDbBlockTableRecord
  2
*Paper_Space
340
1E
 70
0
280
1
281
0
  0
ENDTAB
  0
ENDSEC
  0
SECTION
  2
BLOCKS
  0
BLOCK
  5
18
330
17
100
AcDbEntity
  8
0
100
AcDbBlockBegin
  2
*Model_Space
 70
0
 10
0.0
 20
0.0
 30
0.0
  3
*Model_Space
  1

  0
ENDBLK
  5
19
330
17
100
AcDbEntity
  8
0
100
AcDbBlockEnd
  0
BLOCK
  5
1C
330
1B
100
AcDbEntity
  8
0
100
AcDbBlockBegin
  2
*Paper_Space
 70
0
 10
0.0
 20
0.0
 30
0.0
  3
*Paper_Space
  1

  0
ENDBLK
  5
1D
330
1B
100
AcDbEntity
  8
0
100
AcDbBlockEnd
  0
ENDSEC
  0
SECTION
  2
ENTITIES
  0
LWPOLYLINE
  5
31
330
17
100
AcDbEntity
  8
OUTER
100
AcDbPolyline
 90
1160
 70
1
 10
1.3011691446289446
 20
0.31
 10
1.2903780059229923
 20
0.33888548374723315
 10
1.2806054894491543
 20
0.368131299989071
 10
1.2718635940486078
 20
0.3977015402770474
 10
1.2641630531506365
 20
0.427559897830025
 10
1.257513321593967
 20
0.45766971211219915
 10
1.2519225640179767
 20
0.4879940138454508
 10
1.2473976448380282
 20
0.5184955704007759
 10
1.2439441198172374
 20
0.5491369315130626
 10
1.2415662292450267
 20
0.5798804752630818
 10
1.2402668927308318
 20
0.6106884542702431
 10
1.2400477056193635
 20
0.6415230420393851
 10
1.2409089370318198
 20
0.6723463794047158
 10
1.2428495295354545
 20
0.7031206210138536
 10
1.2458671004419082
 20
0.7338079817949192
 10
1.2499579447327096
 20
0.7643707833496067
 10
1.2551170396083517
 20
0.7947715002152815
 10
1.2613380506553604
 20
0.8249728059393021
 10
1.2686133396237809
 20
0.854937618908996
 10
1.276933973805535
 20
0.8846291478810144
 10
1.2862897370021333
 20
0.9140109371541674
 10
1.296669142068275
 20
0.9430469113302771
 10
1.3080594450159369
 20
0.9717014196080903
 10
1.3204466606616307
 20
0.9999392795558601
 10
1.3338155797976197
 20
1.0277258203088604
 10
1.3481497878660111
 20
1.0550269251387907
 10
1.3634316851127932
 20
1.0818090733428007
 10
1.3796425081970767
 20
1.1080393814007108
 10
1.3967623532290023
 20
1.1336856433498843
 10
1.4147702002080345
 20
1.158716370328191
 10
1.4336439388316302
 20
1.1831008292364988
 10
1.4533603956425982
 20
1.2068090804732308
 10
1.4738953624818132
 20
1.229812014694654
 10
1.4952236262113554
 20
1.2520813885557645
 10
1.5173189996715748
 20
1.2735898593878852
 10
1.5401543538340783
 20
1.294311018770405
 10
1.5637016511111526
 20
1.3142194249554284
 10
1.587931979780731
 20
1.3332906341055317
 10
1.6128155894846379
 20
1.3515012303062717
 10
1.63832192775652
 20
1.3688288543165932
 10
1.6644196775346214
 20
1.3852522310218385
 10
1.6910767956133343
 20
1.4007511955556495
 10
1.7182605519863274
 20
1.415306718058691
 10
1.745937570032933
 20
1.428900927043794
 10
1.774073867498458
 20
1.4415171313388357
 10
1.8026348982181053
 20
1.4531398405804081
 10
1.8315855945332653
 20
1.4637547842331164
 10
1.8608904103481105
 20
1.4733489291111543
 10
1.8905133647736214
 20
1.4819104953806455
 10
1.9204180863054565
 20
1.4894289710230963
 10
1.9505678574814307
 20
1.4958951247422116
 10
1.980925659963753
 20
1.5013010172982144
 10
2.0114542199907035
 20
1.5056400112557657
 10
2.0421160541419052
 20
1.5089067791335045
 10
2.072873515361026
 20
1.511097309945209
 10
2.1036888391794
 20
1.5122089141245452
 10
2.1345241900837983
 20
1.5122402268273574
 10
2.16534170797144
 20
1.5111912096074427
 10
2.1961035546351844
 20
1.5090631504637575
 10
2.2267719602218516
 20
1.5058586622589911
 10
2.257309269606604
 20
1.5015816795114558
 10
2.287677988626472
 20
1.4962374535642264
 10
2.317840830116249
 20
1.489832546137462
 10
2.347760759690218
 20
1.4823748212718297
 10
5.968232286927577
 20
0.5122723993287068
 10
5.964548829144203
 20
0.542999882369491
 10
5.961948093368799
 20
0.5738378824455364
 10
5.9604332960844255
 20
0.6047482603864615
 10
5.960006310730072
 20
0.6356927875079219
 10
5.960667665383666
 20
0.6666331928912677
 10
5.96241654210897
 20
0.697531210715447
 10
5.9652507779671655
 20
0.7283486275825973
 10
5.969166867691891
 20
0.7590473297788063
 10
5.974159968024415
 20
0.7895893504115827
 10
5.980223903703568
 20
0.819936916365753
 10
5.987351175103064
 20
0.850052495019691
 10
5.995532967506723
 20
0.879898840664125
 10
6.004759162010148
 20
0.909439040566099
 10
6.015018348035378
 20
0.9386365606211196
 10
6.0262978374430105
 20
0.967455290537039
 10
6.038583680224382
 20
0.9958595884937751
 10
6.051860681754355
 20
1.0238143252236516
 10
6.066112421583411
 20
1.0512849274578304
 10
6.08132127374579
 20
1.0782374206851102
 10
6.09746842855855
 20
1.1046384711702015
 10
6.1145339158846195
 20
1.130455427179525
 10
6.1324966298310395
 20
1.1556563593635283
 10
6.151334354851858
 20
1.1802101002455938
 10
6.171023793223412
 20
1.2040862827686936
 10
6.19154059385799
 20
1.2272553778521145
 10
6.212859382420254
 20
1.2496887309118134
 10
6.234953792709177
 20
1.271358597299226
 10
6.257796499266678
 20
1.2922381766147089
 10
6.281359251172618
 20
1.3123016458531704
 10
6.3056129069843845
 20
1.331524191340903
 10
6.330527470777824
 20
1.3498820394241142
 10
6.356072129244969
 20
1.3673524858712023
 10
6.3822152898026685
 20
1.3839139239524172
 10
6.408924619665001
 20
1.3995458711621778
 10
6.436167085831127
 20
1.4142289945509883
 10
6.463908995939155
 20
1.4279451346356389
 10
6.492116039935459
 20
1.440677327858105
 10
6.520753332507948
 20
1.4524098275653798
 10
6.549785456230789
 20
1.4631281234842874
 10
6.579176505367213
 20
1.4728189596671917
 10
6.608890130276264
 20
1.4814703508864056
 10
6.63888958236853
 20
1.48907159745703
 10
6.669137759555296
 20
1.4956132984698842
 10
6.69959725213488
 20
1.501087363418162
 10
6.730230389059405
 20
1.5054870222034384
 10
6.760999284524816
 20
1.50880683350865
 10
6.791865884826474
 20
1.5110426915276913
 10
6.822792015422415
 20
1.5121918310433067
 10
6.853739428146059
 20
1.5122528308469982
 10
6.884669848509963
 20
1.511225615496717
 10
6.915545023042134
 20
1.5091114554101672
 10
6.946326766596355
 20
1.5059129652936059
 10
6.976977009578002
 20
1.5016341009080811
 10
7.007457845026945
 20
1.4962801541771107
 10
7.037731575499329
 20
1.4898577466418474
 10
7.067760759690218
 20
1.4823748212718297
 10
10.688232286927576
 20
0.5122723993287068
 10
10.684548829144202
 20
0.542999882369491
 10
10.681948093368797
 20
0.5738378824455364
 10
10.680433296084423
 20
0.6047482603864615
 10
10.680006310730072
 20
0.6356927875079219
 10
10.680667665383666
 20
0.6666331928912677
 10
10.68241654210897
 20
0.697531210715447
 10
10.685250777967164
 20
0.7283486275825973
 10
10.68916686769189
 20
0.7590473297788063
 10
10.694159968024413
 20
0.7895893504115827
 10
10.700223903703566
 20
0.819936916365753
 10
10.707351175103064
 20
0.850052495019691
 10
10.715532967506721
 20
0.879898840664125
 10
10.724759162010146
 20
0.909439040566099
 10
10.735018348035377
 20
0.9386365606211196
 10
10.74629783744301
 20
0.967455290537039
 10
10.75858368022438
 20
0.9958595884937751
 10
10.771860681754353
 20
1.0238143252236516
 10
10.786112421583411
 20
1.0512849274578304
 10
10.801321273745788
 20
1.0782374206851102
 10
10.817468428558549
 20
1.1046384711702015
 10
10.834533915884618
 20
1.130455427179525
 10
10.852496629831037
 20
1.1556563593635283
 10
10.871334354851857
 20
1.1802101002455938
 10
10.891023793223411
 20
1.2040862827686936
 10
10.911540593857989
 20
1.2272553778521145
 10
10.932859382420252
 20
1.2496887309118134
 10
10.954953792709176
 20
1.271358597299226
 10
10.977796499266677
 20
1.2922381766147089
 10
11.001359251172618
 20
1.3123016458531704
 10
11.025612906984383
 20
1.331524191340903
 10
11.050527470777823
 20
1.3498820394241142
 10
11.076072129244968
 20
1.3673524858712023
 10
11.102215289802668
 20
1.3839139239524172
 10
11.128924619665
 20
1.3995458711621778
 10
11.156167085831127
 20
1.4142289945509883
 10
11.183908995939154
 20
1.4279451346356389
 10
11.212116039935458
 20
1.440677327858105
 10
11.240753332507948
 20
1.4524098275653798
 10
11.269785456230787
 20
1.4631281234842874
 10
11.299176505367212
 20
1.4728189596671917
 10
11.328890130276262
 20
1.4814703508864056
 10
11.358889582368528
 20
1.48907159745703
 10
11.389137759555295
 20
1.4956132984698842
 10
11.419597252134878
 20
1.501087363418162
 10
11.450230389059405
 20
1.5054870222034384
 10
11.480999284524815
 20
1.50880683350865
 10
11.511865884826474
 20
1.5110426915276913
 10
11.542792015422414
 20
1.5121918310433067
 10
11.573739428146057
 20
1.5122528308469982
 10
11.604669848509962
 20
1.511225615496717
 10
11.635545023042134
 20
1.5091114554101672
 10
11.666326766596354
 20
1.5059129652936059
 10
11.696977009578001
 20
1.5016341009080811
 10
11.727457845026944
 20
1.4962801541771107
 10
11.757731575499328
 20
1.4898577466418474
 10
11.787760759690217
 20
1.4823748212718297
 10
15.408232286927579
 20
0.5122723993287037
 10
15.404548829144204
 20
0.5429998823694888
 10
15.401948093368802
 20
0.5738378824455332
 10
15.400433296084426
 20
0.6047482603864591
 10
15.400006310730074
 20
0.6356927875079188
 10
15.400667665383668
 20
0.666633192891265
 10
15.402416542108972
 20
0.6975312107154445
 10
15.405250777967167
 20
0.7283486275825947
 10
15.409166867691892
 20
0.7590473297788035
 10
15.414159968024416
 20
0.7895893504115804
 10
15.420223903703569
 20
0.8199369163657504
 10
15.427351175103064
 20
0.8500524950196884
 10
15.435532967506724
 20
0.8798988406641232
 10
15.444759162010149
 20
0.9094390405660968
 10
15.455018348035377
 20
0.9386365606211176
 10
15.466297837443012
 20
0.9674552905370373
 10
15.478583680224382
 20
0.9958595884937729
 10
15.491860681754355
 20
1.0238143252236498
 10
15.506112421583412
 20
1.0512849274578284
 10
15.521321273745789
 20
1.0782374206851082
 10
15.53746842855855
 20
1.1046384711702002
 10
15.554533915884619
 20
1.1304554271795233
 10
15.57249662983104
 20
1.155656359363527
 10
15.591334354851858
 20
1.1802101002455925
 10
15.611023793223413
 20
1.2040862827686922
 10
15.63154059385799
 20
1.2272553778521131
 10
15.652859382420253
 20
1.2496887309118123
 10
15.674953792709177
 20
1.271358597299225
 10
15.697796499266678
 20
1.2922381766147077
 10
15.721359251172618
 20
1.3123016458531696
 10
15.745612906984386
 20
1.3315241913409026
 10
15.770527470777825
 20
1.3498820394241133
 10
15.796072129244969
 20
1.3673524858712014
 10
15.822215289802669
 20
1.383913923952417
 10
15.848924619665
 20
1.399545871162177
 10
15.876167085831128
 20
1.414228994550988
 10
15.903908995939155
 20
1.4279451346356384
 10
15.932116039935458
 20
1.4406773278581042
 10
15.960753332507949
 20
1.4524098275653796
 10
15.98978545623079
 20
1.4631281234842874
 10
16.019176505367213
 20
1.4728189596671912
 10
16.048890130276266
 20
1.4814703508864053
 10
16.07888958236853
 20
1.4890715974570299
 10
16.109137759555296
 20
1.495613298469884
 10
16.13959725213488
 20
1.5010873634181618
 10
16.170230389059405
 20
1.5054870222034382
 10
16.200999284524816
 20
1.50880683350865
 10
16.231865884826476
 20
1.5110426915276913
 10
16.262792015422416
 20
1.5121918310433067
 10
16.29373942814606
 20
1.5122528308469982
 10
16.324669848509963
 20
1.5112256154967172
 10
16.355545023042136
 20
1.5091114554101672
 10
16.38632676659636
 20
1.5059129652936059
 10
16.416977009578
 20
1.5016341009080811
 10
16.447457845026946
 20
1.4962801541771107
 10
16.47773157549933
 20
1.4898577466418474
 10
16.507760759690218
 20
1.4823748212718297
 10
20.128232286927577
 20
0.5122723993287073
 10
20.124548829144203
 20
0.5429998823694915
 10
20.1219480933688
 20
0.5738378824455367
 10
20.120433296084425
 20
0.6047482603864622
 10
20.120006310730073
 20
0.6356927875079222
 10
20.120667665383667
 20
0.6666331928912681
 10
20.12241654210897
 20
0.697531210715447
 10
20.125250777967164
 20
0.7283486275825978
 10
20.129166867691893
 20
0.7590473297788063
 10
20.134159968024413
 20
0.7895893504115831
 10
20.140223903703568
 20
0.819936916365753
 10
20.147351175103065
 20
0.8500524950196915
 10
20.155532967506723
 20
0.8798988406641254
 10
20.16475916201015
 20
0.9094390405660994
 10
20.175018348035376
 20
0.9386365606211202
 10
20.18629783744301
 20
0.967455290537039
 10
20.19858368022438
 20
0.9958595884937754
 10
20.211860681754356
 20
1.0238143252236516
 10
20.226112421583412
 20
1.0512849274578309
 10
20.24132127374579
 20
1.0782374206851102
 10
20.25746842855855
 20
1.1046384711702015
 10
20.27453391588462
 20
1.1304554271795255
 10
20.29249662983104
 20
1.1556563593635283
 10
20.31133435485186
 20
1.1802101002455938
 10
20.331023793223412
 20
1.2040862827686936
 10
20.35154059385799
 20
1.2272553778521145
 10
20.372859382420256
 20
1.2496887309118134
 10
20.394953792709178
 20
1.2713585972992263
 10
20.41779649926668
 20
1.2922381766147089
 10
20.441359251172617
 20
1.3123016458531704
 10
20.465612906984386
 20
1.3315241913409035
 10
20.490527470777824
 20
1.3498820394241142
 10
20.516072129244968
 20
1.3673524858712023
 10
20.54221528980267
 20
1.3839139239524172
 10
20.568924619665
 20
1.3995458711621778
 10
20.596167085831127
 20
1.4142289945509883
 10
20.623908995939153
 20
1.4279451346356389
 10
20.652116039935457
 20
1.440677327858105
 10
20.680753332507948
 20
1.4524098275653798
 10
20.70978545623079
 20
1.4631281234842874
 10
20.739176505367215
 20
1.4728189596671917
 10
20.768890130276265
 20
1.4814703508864056
 10
20.79888958236853
 20
1.48907159745703
 10
20.829137759555298
 20
1.4956132984698842
 10
20.85959725213488
 20
1.5010873634181618
 10
20.890230389059404
 20
1.5054870222034384
 10
20.920999284524814
 20
1.50880683350865
 10
20.951865884826475
 20
1.5110426915276913
 10
20.982792015422415
 20
1.5121918310433067
 10
21.01373942814606
 20
1.5122528308469982
 10
21.04466984850996
 20
1.5112256154967172
 10
21.075545023042135
 20
1.5091114554101672
 10
21.106326766596357
 20
1.5059129652936059
 10
21.136977009578
 20
1.5016341009080811
 10
21.167457845026945
 20
1.4962801541771107
 10
21.19773157549933
 20
1.4898577466418474
 10
21.227760759690216
 20
1.4823748212718297
 10
24.848232286927576
 20
0.5122723993287073
 10
24.844548829144202
 20
0.5429998823694915
 10
24.8419480933688
 20
0.5738378824455367
 10
24.840433296084424
 20
0.6047482603864622
 10
24.84000631073007
 20
0.6356927875079222
 10
24.840667665383666
 20
0.6666331928912681
 10
24.842416542108968
 20
0.697531210715447
 10
24.845250777967163
 20
0.7283486275825978
 10
24.849166867691892
 20
0.7590473297788063
 10
24.854159968024412
 20
0.7895893504115831
 10
24.860223903703567
 20
0.819936916365753
 10
24.867351175103064
 20
0.8500524950196915
 10
24.87553296750672
 20
0.8798988406641254
 10
24.88475916201015
 20
0.9094390405660994
 10
24.895018348035375
 20
0.9386365606211202
 10
24.90629783744301
 20
0.967455290537039
 10
24.91858368022438
 20
0.9958595884937754
 10
24.931860681754355
 20
1.0238143252236516
 10
24.94611242158341
 20
1.0512849274578309
 10
24.96132127374579
 20
1.0782374206851102
 10
24.97746842855855
 20
1.1046384711702015
 10
24.99453391588462
 20
1.1304554271795255
 10
25.012496629831038
 20
1.1556563593635283
 10
25.031334354851857
 20
1.1802101002455938
 10
25.05102379322341
 20
1.2040862827686936
 10
25.07154059385799
 20
1.2272553778521145
 10
25.092859382420254
 20
1.2496887309118134
 10
25.114953792709176
 20
1.2713585972992263
 10
25.137796499266678
 20
1.2922381766147089
 10
25.161359251172616
 20
1.3123016458531704
 10
25.185612906984385
 20
1.3315241913409035
 10
25.210527470777823
 20
1.3498820394241142
 10
25.236072129244967
 20
1.3673524858712023
 10
25.26221528980267
 20
1.3839139239524172
 10
25.288924619665
 20
1.3995458711621778
 10
25.316167085831125
 20
1.4142289945509883
 10
25.343908995939152
 20
1.4279451346356389
 10
25.372116039935456
 20
1.440677327858105
 10
25.400753332507946
 20
1.4524098275653798
 10
25.42978545623079
 20
1.4631281234842874
 10
25.459176505367214
 20
1.4728189596671917
 10
25.488890130276264
 20
1.4814703508864056
 10
25.51888958236853
 20
1.48907159745703
 10
25.549137759555297
 20
1.4956132984698842
 10
25.579597252134878
 20
1.5010873634181618
 10
25.610230389059403
 20
1.5054870222034384
 10
25.640999284524813
 20
1.50880683350865
 10
25.671865884826474
 20
1.5110426915276913
 10
25.702792015422414
 20
1.5121918310433067
 10
25.73373942814606
 20
1.5122528308469982
 10
25.76466984850996
 20
1.5112256154967172
 10
25.795545023042134
 20
1.5091114554101672
 10
25.826326766596356
 20
1.5059129652936059
 10
25.856977009578
 20
1.5016341009080811
 10
25.887457845026944
 20
1.4962801541771107
 10
25.917731575499328
 20
1.4898577466418474
 10
25.947760759690215
 20
1.4823748212718297
 10
29.56823228692758
 20
0.5122723993287068
 10
29.564548829144204
 20
0.542999882369491
 10
29.5619480933688
 20
0.5738378824455364
 10
29.560433296084426
 20
0.6047482603864615
 10
29.560006310730074
 20
0.6356927875079219
 10
29.56066766538367
 20
0.6666331928912677
 10
29.56241654210897
 20
0.697531210715447
 10
29.565250777967165
 20
0.7283486275825973
 10
29.569166867691894
 20
0.7590473297788063
 10
29.574159968024414
 20
0.7895893504115827
 10
29.58022390370357
 20
0.819936916365753
 10
29.587351175103066
 20
0.850052495019691
 10
29.595532967506724
 20
0.879898840664125
 10
29.60475916201015
 20
0.909439040566099
 10
29.615018348035377
 20
0.9386365606211196
 10
29.626297837443012
 20
0.967455290537039
 10
29.638583680224382
 20
0.9958595884937751
 10
29.651860681754357
 20
1.0238143252236516
 10
29.666112421583414
 20
1.0512849274578304
 10
29.68132127374579
 20
1.0782374206851102
 10
29.69746842855855
 20
1.1046384711702015
 10
29.714533915884623
 20
1.130455427179525
 10
29.73249662983104
 20
1.1556563593635283
 10
29.75133435485186
 20
1.1802101002455938
 10
29.771023793223414
 20
1.2040862827686936
 10
29.79154059385799
 20
1.2272553778521145
 10
29.812859382420257
 20
1.2496887309118134
 10
29.83495379270918
 20
1.271358597299226
 10
29.85779649926668
 20
1.2922381766147089
 10
29.88135925117262
 20
1.3123016458531704
 10
29.905612906984388
 20
1.331524191340903
 10
29.930527470777825
 20
1.3498820394241142
 10
29.95607212924497
 20
1.3673524858712023
 10
29.98221528980267
 20
1.3839139239524172
 10
30.008924619665002
 20
1.3995458711621778
 10
30.036167085831128
 20
1.4142289945509883
 10
30.063908995939155
 20
1.4279451346356389
 10
30.092116039935462
 20
1.440677327858105
 10
30.12075333250795
 20
1.4524098275653798
 10
30.14978545623079
 20
1.4631281234842874
 10
30.179176505367217
 20
1.4728189596671917
 10
30.208890130276266
 20
1.4814703508864056
 10
30.238889582368532
 20
1.48907159745703
 10
30.2691377595553
 20
1.4956132984698842
 10
30.29959725213488
 20
1.501087363418162
 10
30.330230389059405
 20
1.5054870222034384
 10
30.360999284524816
 20
1.50880683350865
 10
30.391865884826476
 20
1.5110426915276913
 10
30.422792015422417
 20
1.5121918310433067
 10
30.45373942814606
 20
1.5122528308469982
 10
30.484669848509963
 20
1.511225615496717
 10
30.515545023042137
 20
1.5091114554101672
 10
30.54632676659636
 20
1.5059129652936059
 10
30.576977009578002
 20
1.5016341009080811
 10
30.607457845026946
 20
1.4962801541771107
 10
30.63773157549933
 20
1.4898577466418474
 10
30.667760759690218
 20
1.4823748212718297
 10
34.288232286927574
 20
0.5122723993287073
 10
34.2845488291442
 20
0.5429998823694915
 10
34.2819480933688
 20
0.5738378824455367
 10
34.280433296084425
 20
0.6047482603864622
 10
34.280006310730066
 20
0.6356927875079222
 10
34.28066766538366
 20
0.6666331928912681
 10
34.28241654210897
 20
0.697531210715447
 10
34.285250777967164
 20
0.7283486275825978
 10
34.28916686769189
 20
0.7590473297788063
 10
34.29415996802441
 20
0.7895893504115831
 10
34.30022390370357
 20
0.819936916365753
 10
34.30735117510306
 20
0.8500524950196915
 10
34.31553296750672
 20
0.8798988406641254
 10
34.324759162010146
 20
0.9094390405660994
 10
34.335018348035376
 20
0.9386365606211202
 10
34.34629783744301
 20
0.967455290537039
 10
34.35858368022438
 20
0.9958595884937754
 10
34.37186068175435
 20
1.0238143252236516
 10
34.386112421583405
 20
1.0512849274578309
 10
34.401321273745786
 20
1.0782374206851102
 10
34.41746842855854
 20
1.1046384711702015
 10
34.434533915884614
 20
1.1304554271795255
 10
34.45249662983104
 20
1.1556563593635283
 10
34.471334354851855
 20
1.1802101002455938
 10
34.49102379322341
 20
1.2040862827686936
 10
34.51154059385799
 20
1.2272553778521145
 10
34.53285938242025
 20
1.2496887309118134
 10
34.55495379270918
 20
1.2713585972992263
 10
34.577796499266675
 20
1.2922381766147089
 10
34.60135925117262
 20
1.3123016458531704
 10
34.62561290698438
 20
1.3315241913409035
 10
34.650527470777824
 20
1.3498820394241142
 10
34.676072129244965
 20
1.3673524858712023
 10
34.702215289802666
 20
1.3839139239524172
 10
34.728924619665
 20
1.3995458711621778
 10
34.75616708583112
 20
1.4142289945509883
 10
34.78390899593915
 20
1.4279451346356389
 10
34.812116039935454
 20
1.440677327858105
 10
34.840753332507944
 20
1.4524098275653798
 10
34.86978545623079
 20
1.4631281234842874
 10
34.89917650536721
 20
1.4728189596671917
 10
34.92889013027626
 20
1.4814703508864056
 10
34.95888958236853
 20
1.48907159745703
 10
34.98913775955529
 20
1.4956132984698842
 10
35.01959725213488
 20
1.5010873634181618
 10
35.0502303890594
 20
1.5054870222034384
 10
35.080999284524815
 20
1.50880683350865
 10
35.11186588482647
 20
1.5110426915276913
 10
35.142792015422415
 20
1.5121918310433067
 10
35.17373942814606
 20
1.5122528308469982
 10
35.20466984850996
 20
1.5112256154967172
 10
35.23554502304213
 20
1.5091114554101672
 10
35.26632676659635
 20
1.5059129652936059
 10
35.296977009578
 20
1.5016341009080811
 10
35.32745784502694
 20
1.4962801541771107
 10
35.35773157549932
 20
1.4898577466418474
 10
35.38776075969022
 20
1.4823748212718297
 10
39.00823228692757
 20
0.5122723993287073
 10
39.0045488291442
 20
0.5429998823694915
 10
39.001948093368796
 20
0.5738378824455367
 10
39.000433296084424
 20
0.6047482603864622
 10
39.000006310730065
 20
0.6356927875079222
 10
39.00066766538366
 20
0.6666331928912681
 10
39.00241654210897
 20
0.697531210715447
 10
39.00525077796716
 20
0.7283486275825978
 10
39.00916686769189
 20
0.7590473297788063
 10
39.01415996802441
 20
0.7895893504115831
 10
39.02022390370357
 20
0.819936916365753
 10
39.02735117510306
 20
0.8500524950196915
 10
39.03553296750672
 20
0.8798988406641254
 10
39.044759162010145
 20
0.9094390405660994
 10
39.055018348035375
 20
0.9386365606211202
 10
39.06629783744301
 20
0.967455290537039
 10
39.07858368022438
 20
0.9958595884937754
 10
39.09186068175435
 20
1.0238143252236516
 10
39.106112421583404
 20
1.0512849274578309
 10
39.121321273745785
 20
1.0782374206851102
 10
39.13746842855854
 20
1.1046384711702015
 10
39.15453391588461
 20
1.1304554271795255
 10
39.17249662983104
 20
1.1556563593635283
 10
39.191334354851854
 20
1.1802101002455938
 10
39.21102379322341
 20
1.2040862827686936
 10
39.231540593857986
 20
1.2272553778521145
 10
39.25285938242025
 20
1.2496887309118134
 10
39.27495379270918
 20
1.2713585972992263
 10
39.297796499266674
 20
1.2922381766147089
 10
39.321359251172616
 20
1.3123016458531704
 10
39.34561290698438
 20
1.3315241913409035
 10
39.37052747077782
 20
1.3498820394241142
 10
39.39607212924496
 20
1.3673524858712023
 10
39.422215289802665
 20
1.3839139239524172
 10
39.448924619665
 20
1.3995458711621778
 10
39.47616708583112
 20
1.4142289945509883
 10
39.50390899593915
 20
1.4279451346356389
 10
39.53211603993545
 20
1.440677327858105
 10
39.56075333250794
 20
1.4524098275653798
 10
39.589785456230786
 20
1.4631281234842874
 10
39.61917650536721
 20
1.4728189596671917
 10
39.64889013027626
 20
1.4814703508864056
 10
39.67888958236853
 20
1.48907159745703
 10
39.70913775955529
 20
1.4956132984698842
 10
39.73959725213488
 20
1.5010873634181618
 10
39.7702303890594
 20
1.5054870222034384
 10
39.80099928452481
 20
1.50880683350865
 10
39.83186588482647
 20
1.5110426915276913
 10
39.862792015422414
 20
1.5121918310433067
 10
39.893739428146056
 20
1.5122528308469982
 10
39.92466984850996
 20
1.5112256154967172
 10
39.95554502304213
 20
1.5091114554101672
 10
39.98632676659635
 20
1.5059129652936059
 10
40.016977009578
 20
1.5016341009080811
 10
40.04745784502694
 20
1.4962801541771107
 10
40.07773157549932
 20
1.4898577466418474
 10
40.107760759690215
 20
1.4823748212718297
 10
43.72823228692757
 20
0.5122723993287073
 10
43.7245488291442
 20
0.5429998823694915
 10
43.721948093368795
 20
0.5738378824455367
 10
43.72043329608442
 20
0.6047482603864622
 10
43.720006310730064
 20
0.6356927875079222
 10
43.72066766538366
 20
0.6666331928912681
 10
43.72241654210897
 20
0.697531210715447
 10
43.72525077796716
 20
0.7283486275825978
 10
43.72916686769189
 20
0.7590473297788063
 10
43.73415996802441
 20
0.7895893504115831
 10
43.740223903703566
 20
0.819936916365753
 10
43.747351175103056
 20
0.8500524950196915
 10
43.75553296750672
 20
0.8798988406641254
 10
43.764759162010144
 20
0.9094390405660994
 10
43.775018348035374
 20
0.9386365606211202
 10
43.78629783744301
 20
0.967455290537039
 10
43.798583680224375
 20
0.9958595884937754
 10
43.81186068175435
 20
1.0238143252236516
 10
43.8261124215834
 20
1.0512849274578309
 10
43.841321273745784
 20
1.0782374206851102
 10
43.85746842855854
 20
1.1046384711702015
 10
43.87453391588461
 20
1.1304554271795255
 10
43.89249662983104
 20
1.1556563593635283
 10
43.91133435485185
 20
1.1802101002455938
 10
43.93102379322341
 20
1.2040862827686936
 10
43.951540593857985
 20
1.2272553778521145
 10
43.972859382420246
 20
1.2496887309118134
 10
43.994953792709175
 20
1.2713585972992263
 10
44.01779649926667
 20
1.2922381766147089
 10
44.041359251172615
 20
1.3123016458531704
 10
44.06561290698438
 20
1.3315241913409035
 10
44.09052747077782
 20
1.3498820394241142
 10
44.11607212924496
 20
1.3673524858712023
 10
44.142215289802664
 20
1.3839139239524172
 10
44.168924619665
 20
1.3995458711621778
 10
44.19616708583112
 20
1.4142289945509883
 10
44.22390899593915
 20
1.4279451346356389
 10
44.25211603993545
 20
1.440677327858105
 10
44.28075333250794
 20
1.4524098275653798
 10
44.309785456230784
 20
1.4631281234842874
 10
44.339176505367206
 20
1.4728189596671917
 10
44.368890130276256
 20
1.4814703508864056
 10
44.398889582368525
 20
1.48907159745703
 10
44.42913775955529
 20
1.4956132984698842
 10
44.45959725213488
 20
1.5010873634181618
 10
44.4902303890594
 20
1.5054870222034384
 10
44.52099928452481
 20
1.50880683350865
 10
44.55186588482647
 20
1.5110426915276913
 10
44.58279201542241
 20
1.5121918310433067
 10
44.613739428146054
 20
1.5122528308469982
 10
44.644669848509956
 20
1.5112256154967172
 10
44.675545023042126
 20
1.5091114554101672
 10
44.70632676659635
 20
1.5059129652936059
 10
44.736977009578
 20
1.5016341009080811
 10
44.76745784502694
 20
1.4962801541771107
 10
44.79773157549932
 20
1.4898577466418474
 10
44.827760759690214
 20
1.4823748212718297
 10
49.20312315819116
 20
0.31
 10
50.0
 20
0.31
 10
50.0
 20
-0.31
 10
49.20312315819116
 20
-0.31
 10
44.827760759690214
 20
-1.4823748212718297
 10
44.79773157549932
 20
-1.4898577466418474
 10
44.76745784502694
 20
-1.4962801541771107
 10
44.736977009578
 20
-1.5016341009080811
 10
44.70632676659635
 20
-1.5059129652936059
 10
44.675545023042126
 20
-1.5091114554101672
 10
44.644669848509956
 20
-1.5112256154967172
 10
44.613739428146054
 20
-1.5122528308469982
 10
44.58279201542241
 20
-1.5121918310433067
 10
44.55186588482647
 20
-1.5110426915276913
 10
44.52099928452481
 20
-1.50880683350865
 10
44.4902303890594
 20
-1.5054870222034384
 10
44.45959725213488
 20
-1.5010873634181618
 10
44.42913775955529
 20
-1.4956132984698842
 10
44.398889582368525
 20
-1.48907159745703
 10
44.368890130276256
 20
-1.4814703508864056
 10
44.339176505367206
 20
-1.4728189596671917
 10
44.309785456230784
 20
-1.4631281234842874
 10
44.28075333250794
 20
-1.4524098275653798
 10
44.25211603993545
 20
-1.440677327858105
 10
44.22390899593915
 20
-1.4279451346356389
 10
44.19616708583112
 20
-1.4142289945509883
 10
44.168924619665
 20
-1.3995458711621778
 10
44.142215289802664
 20
-1.3839139239524172
 10
44.11607212924496
 20
-1.3673524858712023
 10
44.09052747077782
 20
-1.3498820394241142
 10
44.06561290698438
 20
-1.3315241913409035
 10
44.041359251172615
 20
-1.3123016458531704
 10
44.01779649926667
 20
-1.2922381766147089
 10
43.994953792709175
 20
-1.2713585972992263
 10
43.972859382420246
 20
-1.2496887309118134
 10
43.951540593857985
 20
-1.2272553778521145
 10
43.93102379322341
 20
-1.2040862827686936
 10
43.91133435485185
 20
-1.1802101002455938
 10
43.89249662983104
 20
-1.1556563593635283
 10
43.87453391588461
 20
-1.1304554271795255
 10
43.85746842855854
 20
-1.1046384711702015
 10
43.841321273745784
 20
-1.0782374206851102
 10
43.8261124215834
 20
-1.0512849274578309
 10
43.81186068175435
 20
-1.0238143252236516
 10
43.798583680224375
 20
-0.9958595884937754
 10
43.78629783744301
 20
-0.967455290537039
 10
43.775018348035374
 20
-0.9386365606211202
 10
43.764759162010144
 20
-0.9094390405660994
 10
43.75553296750672
 20
-0.8798988406641254
 10
43.747351175103056
 20
-0.8500524950196915
 10
43.740223903703566
 20
-0.819936916365753
 10
43.73415996802441
 20
-0.7895893504115831
 10
43.72916686769189
 20
-0.7590473297788063
 10
43.72525077796716
 20
-0.7283486275825978
 10
43.72241654210897
 20
-0.697531210715447
 10
43.72066766538366
 20
-0.6666331928912681
 10
43.720006310730064
 20
-0.6356927875079222
 10
43.72043329608442
 20
-0.6047482603864622
 10
43.721948093368795
 20
-0.5738378824455367
 10
43.7245488291442
 20
-0.5429998823694915
 10
43.72823228692757
 20
-0.5122723993287073
 10
40.107760759690215
 20
-1.4823748212718297
 10
40.07773157549932
 20
-1.4898577466418474
 10
40.04745784502694
 20
-1.4962801541771107
 10
40.016977009578
 20
-1.5016341009080811
 10
39.98632676659635
 20
-1.5059129652936059
 10
39.95554502304213
 20
-1.5091114554101672
 10
39.92466984850996
 20
-1.5112256154967172
 10
39.893739428146056
 20
-1.5122528308469982
 10
39.862792015422414
 20
-1.5121918310433067
 10
39.83186588482647
 20
-1.5110426915276913
 10
39.80099928452481
 20
-1.50880683350865
 10
39.7702303890594
 20
-1.5054870222034384
 10
39.73959725213488
 20
-1.5010873634181618
 10
39.70913775955529
 20
-1.4956132984698842
 10
39.67888958236853
 20
-1.48907159745703
 10
39.64889013027626
 20
-1.4814703508864056
 10
39.61917650536721
 20
-1.4728189596671917
 10
39.589785456230786
 20
-1.4631281234842874
 10
39.56075333250794
 20
-1.4524098275653798
 10
39.53211603993545
 20
-1.440677327858105
 10
39.50390899593915
 20
-1.4279451346356389
 10
39.47616708583112
 20
-1.4142289945509883
 10
39.448924619665
 20
-1.3995458711621778
 10
39.422215289802665
 20
-1.3839139239524172
 10
39.39607212924496
 20
-1.3673524858712023
 10
39.37052747077782
 20
-1.3498820394241142
 10
39.34561290698438
 20
-1.3315241913409035
 10
39.321359251172616
 20
-1.3123016458531704
 10
39.297796499266674
 20
-1.2922381766147089
 10
39.27495379270918
 20
-1.2713585972992263
 10
39.25285938242025
 20
-1.2496887309118134
 10
39.231540593857986
 20
-1.2272553778521145
 10
39.21102379322341
 20
-1.2040862827686936
 10
39.191334354851854
 20
-1.1802101002455938
 10
39.17249662983104
 20
-1.1556563593635283
 10
39.15453391588461
 20
-1.1304554271795255
 10
39.13746842855854
 20
-1.1046384711702015
 10
39.121321273745785
 20
-1.0782374206851102
 10
39.106112421583404
 20
-1.0512849274578309
 10
39.09186068175435
 20
-1.0238143252236516
 10
39.07858368022438
 20
-0.9958595884937754
 10
39.06629783744301
 20
-0.967455290537039
 10
39.055018348035375
 20
-0.9386365606211202
 10
39.044759162010145
 20
-0.9094390405660994
 10
39.03553296750672
 20
-0.8798988406641254
 10
39.02735117510306
 20
-0.8500524950196915
 10
39.02022390370357
 20
-0.819936916365753
 10
39.01415996802441
 20
-0.7895893504115831
 10
39.00916686769189
 20
-0.7590473297788063
 10
39.00525077796716
 20
-0.7283486275825978
 10
39.00241654210897
 20
-0.697531210715447
 10
39.00066766538366
 20
-0.6666331928912681
 10
39.000006310730065
 20
-0.6356927875079222
 10
39.000433296084424
 20
-0.6047482603864622
 10
39.001948093368796
 20
-0.5738378824455367
 10
39.0045488291442
 20
-0.5429998823694915
 10
39.00823228692757
 20
-0.5122723993287073
 10
35.38776075969022
 20
-1.4823748212718297
 10
35.35773157549932
 20
-1.4898577466418474
 10
35.32745784502694
 20
-1.4962801541771107
 10
35.296977009578
 20
-1.5016341009080811
 10
35.26632676659635
 20
-1.5059129652936059
 10
35.23554502304213
 20
-1.5091114554101672
 10
35.20466984850996
 20
-1.5112256154967172
 10
35.17373942814606
 20
-1.5122528308469982
 10
35.142792015422415
 20
-1.5121918310433067
 10
35.11186588482647
 20
-1.5110426915276913
 10
35.080999284524815
 20
-1.50880683350865
 10
35.0502303890594
 20
-1.5054870222034384
 10
35.01959725213488
 20
-1.5010873634181618
 10
34.98913775955529
 20
-1.4956132984698842
 10
34.95888958236853
 20
-1.48907159745703
 10
34.92889013027626
 20
-1.4814703508864056
 10
34.89917650536721
 20
-1.4728189596671917
 10
34.86978545623079
 20
-1.4631281234842874
 10
34.840753332507944
 20
-1.4524098275653798
 10
34.812116039935454
 20
-1.440677327858105
 10
34.78390899593915
 20
-1.4279451346356389
 10
34.75616708583112
 20
-1.4142289945509883
 10
34.728924619665
 20
-1.3995458711621778
 10
34.702215289802666
 20
-1.3839139239524172
 10
34.676072129244965
 20
-1.3673524858712023
 10
34.650527470777824
 20
-1.3498820394241142
 10
34.62561290698438
 20
-1.3315241913409035
 10
34.60135925117262
 20
-1.3123016458531704
 10
34.577796499266675
 20
-1.2922381766147089
 10
34.55495379270918
 20
-1.2713585972992263
 10
34.53285938242025
 20
-1.2496887309118134
 10
34.51154059385799
 20
-1.2272553778521145
 10
34.49102379322341
 20
-1.2040862827686936
 10
34.471334354851855
 20
-1.1802101002455938
 10
34.45249662983104
 20
-1.1556563593635283
 10
34.434533915884614
 20
-1.1304554271795255
 10
34.41746842855854
 20
-1.1046384711702015
 10
34.401321273745786
 20
-1.0782374206851102
 10
34.386112421583405
 20
-1.0512849274578309
 10
34.37186068175435
 20
-1.0238143252236516
 10
34.35858368022438
 20
-0.9958595884937754
 10
34.34629783744301
 20
-0.967455290537039
 10
34.335018348035376
 20
-0.9386365606211202
 10
34.324759162010146
 20
-0.9094390405660994
 10
34.31553296750672
 20
-0.8798988406641254
 10
34.30735117510306
 20
-0.8500524950196915
 10
34.30022390370357
 20
-0.819936916365753
 10
34.29415996802441
 20
-0.7895893504115831
 10
34.28916686769189
 20
-0.7590473297788063
 10
34.285250777967164
 20
-0.7283486275825978
 10
34.28241654210897
 20
-0.697531210715447
 10
34.28066766538366
 20
-0.6666331928912681
 10
34.280006310730066
 20
-0.6356927875079222
 10
34.280433296084425
 20
-0.6047482603864622
 10
34.2819480933688
 20
-0.5738378824455367
 10
34.2845488291442
 20
-0.5429998823694915
 10
34.288232286927574
 20
-0.5122723993287073
 10
30.667760759690218
 20
-1.4823748212718297
 10
30.63773157549933
 20
-1.4898577466418474
 10
30.607457845026946
 20
-1.4962801541771107
 10
30.576977009578002
 20
-1.5016341009080811
 10
30.54632676659636
 20
-1.5059129652936059
 10
30.515545023042137
 20
-1.5091114554101672
 10
30.484669848509963
 20
-1.511225615496717
 10
30.45373942814606
 20
-1.5122528308469982
 10
30.422792015422417
 20
-1.5121918310433067
 10
30.391865884826476
 20
-1.5110426915276913
 10
30.360999284524816
 20
-1.50880683350865
 10
30.330230389059405
 20
-1.5054870222034384
 10
30.29959725213488
 20
-1.501087363418162
 10
30.2691377595553
 20
-1.4956132984698842
 10
30.238889582368532
 20
-1.48907159745703
 10
30.208890130276266
 20
-1.4814703508864056
 10
30.179176505367217
 20
-1.4728189596671917
 10
30.14978545623079
 20
-1.4631281234842874
 10
30.12075333250795
 20
-1.4524098275653798
 10
30.092116039935462
 20
-1.440677327858105
 10
30.063908995939155
 20
-1.4279451346356389
 10
30.036167085831128
 20
-1.4142289945509883
 10
30.008924619665002
 20
-1.3995458711621778
 10
29.98221528980267
 20
-1.3839139239524172
 10
29.95607212924497
 20
-1.3673524858712023
 10
29.930527470777825
 20
-1.3498820394241142
 10
29.905612906984388
 20
-1.331524191340903
 10
29.88135925117262
 20
-1.3123016458531704
 10
29.85779649926668
 20
-1.2922381766147089
 10
29.83495379270918
 20
-1.271358597299226
 10
29.812859382420257
 20
-1.2496887309118134
 10
29.79154059385799
 20
-1.2272553778521145
 10
29.771023793223414
 20
-1.2040862827686936
 10
29.75133435485186
 20
-1.1802101002455938
 10
29.73249662983104
 20
-1.1556563593635283
 10
29.714533915884623
 20
-1.130455427179525
 10
29.69746842855855
 20
-1.1046384711702015
 10
29.68132127374579
 20
-1.0782374206851102
 10
29.666112421583414
 20
-1.0512849274578304
 10
29.651860681754357
 20
-1.0238143252236516
 10
29.638583680224382
 20
-0.9958595884937751
 10
29.626297837443012
 20
-0.967455290537039
 10
29.615018348035377
 20
-0.9386365606211196
 10
29.60475916201015
 20
-0.909439040566099
 10
29.595532967506724
 20
-0.879898840664125
 10
29.587351175103066
 20
-0.850052495019691
 10
29.58022390370357
 20
-0.819936916365753
 10
29.574159968024414
 20
-0.7895893504115827
 10
29.569166867691894
 20
-0.7590473297788063
 10
29.565250777967165
 20
-0.7283486275825973
 10
29.56241654210897
 20
-0.697531210715447
 10
29.56066766538367
 20
-0.6666331928912677
 10
29.560006310730074
 20
-0.6356927875079219
 10
29.560433296084426
 20
-0.6047482603864615
 10
29.5619480933688
 20
-0.5738378824455364
 10
29.564548829144204
 20
-0.542999882369491
 10
29.56823228692758
 20
-0.5122723993287068
 10
25.947760759690215
 20
-1.4823748212718297
 10
25.917731575499328
 20
-1.4898577466418474
 10
25.887457845026944
 20
-1.4962801541771107
 10
25.856977009578
 20
-1.5016341009080811
 10
25.826326766596356
 20
-1.5059129652936059
 10
25.795545023042134
 20
-1.5091114554101672
 10
25.76466984850996
 20
-1.5112256154967172
 10
25.73373942814606
 20
-1.5122528308469982
 10
25.702792015422414
 20
-1.5121918310433067
 10
25.671865884826474
 20
-1.5110426915276913
 10
25.640999284524813
 20
-1.50880683350865
 10
25.610230389059403
 20
-1.5054870222034384
 10
25.579597252134878
 20
-1.5010873634181618
 10
25.549137759555297
 20
-1.4956132984698842
 10
25.51888958236853
 20
-1.48907159745703
 10
25.488890130276264
 20
-1.4814703508864056
 10
25.459176505367214
 20
-1.4728189596671917
 10
25.42978545623079
 20
-1.4631281234842874
 10
25.400753332507946
 20
-1.4524098275653798
 10
25.372116039935456
 20
-1.440677327858105
 10
25.343908995939152
 20
-1.4279451346356389
 10
25.316167085831125
 20
-1.4142289945509883
 10
25.288924619665
 20
-1.3995458711621778
 10
25.26221528980267
 20
-1.3839139239524172
 10
25.236072129244967
 20
-1.3673524858712023
 10
25.210527470777823
 20
-1.3498820394241142
 10
25.185612906984385
 20
-1.3315241913409035
 10
25.161359251172616
 20
-1.3123016458531704
 10
25.137796499266678
 20
-1.2922381766147089
 10
25.114953792709176
 20
-1.2713585972992263
 10
25.092859382420254
 20
-1.2496887309118134
 10
25.07154059385799
 20
-1.2272553778521145
 10
25.05102379322341
 20
-1.2040862827686936
 10
25.031334354851857
 20
-1.1802101002455938
 10
25.012496629831038
 20
-1.1556563593635283
 10
24.99453391588462
 20
-1.1304554271795255
 10
24.97746842855855
 20
-1.1046384711702015
 10
24.96132127374579
 20
-1.0782374206851102
 10
24.94611242158341
 20
-1.0512849274578309
 10
24.931860681754355
 20
-1.0238143252236516
 10
24.91858368022438
 20
-0.9958595884937754
 10
24.90629783744301
 20
-0.967455290537039
 10
24.895018348035375
 20
-0.9386365606211202
 10
24.88475916201015
 20
-0.9094390405660994
 10
24.87553296750672
 20
-0.8798988406641254
 10
24.867351175103064
 20
-0.8500524950196915
 10
24.860223903703567
 20
-0.819936916365753
 10
24.854159968024412
 20
-0.7895893504115831
 10
24.849166867691892
 20
-0.7590473297788063
 10
24.845250777967163
 20
-0.7283486275825978
 10
24.842416542108968
 20
-0.697531210715447
 10
24.840667665383666
 20
-0.6666331928912681
 10
24.84000631073007
 20
-0.6356927875079222
 10
24.840433296084424
 20
-0.6047482603864622
 10
24.8419480933688
 20
-0.5738378824455367
 10
24.844548829144202
 20
-0.5429998823694915
 10
24.848232286927576
 20
-0.5122723993287073
 10
21.227760759690216
 20
-1.4823748212718297
 10
21.19773157549933
 20
-1.4898577466418474
 10
21.167457845026945
 20
-1.4962801541771107
 10
21.136977009578
 20
-1.5016341009080811
 10
21.106326766596357
 20
-1.5059129652936059
 10
21.075545023042135
 20
-1.5091114554101672
 10
21.04466984850996
 20
-1.5112256154967172
 10
21.01373942814606
 20
-1.5122528308469982
 10
20.982792015422415
 20
-1.5121918310433067
 10
20.951865884826475
 20
-1.5110426915276913
 10
20.920999284524814
 20
-1.50880683350865
 10
20.890230389059404
 20
-1.5054870222034384
 10
20.85959725213488
 20
-1.5010873634181618
 10
20.829137759555298
 20
-1.4956132984698842
 10
20.79888958236853
 20
-1.48907159745703
 10
20.768890130276265
 20
-1.4814703508864056
 10
20.739176505367215
 20
-1.4728189596671917
 10
20.70978545623079
 20
-1.4631281234842874
 10
20.680753332507948
 20
-1.4524098275653798
 10
20.652116039935457
 20
-1.440677327858105
 10
20.623908995939153
 20
-1.4279451346356389
 10
20.596167085831127
 20
-1.4142289945509883
 10
20.568924619665
 20
-1.3995458711621778
 10
20.54221528980267
 20
-1.3839139239524172
 10
20.516072129244968
 20
-1.3673524858712023
 10
20.490527470777824
 20
-1.3498820394241142
 10
20.465612906984386
 20
-1.3315241913409035
 10
20.441359251172617
 20
-1.3123016458531704
 10
20.41779649926668
 20
-1.2922381766147089
 10
20.394953792709178
 20
-1.2713585972992263
 10
20.372859382420256
 20
-1.2496887309118134
 10
20.35154059385799
 20
-1.2272553778521145
 10
20.331023793223412
 20
-1.2040862827686936
 10
20.31133435485186
 20
-1.1802101002455938
 10
20.29249662983104
 20
-1.1556563593635283
 10
20.27453391588462
 20
-1.1304554271795255
 10
20.25746842855855
 20
-1.1046384711702015
 10
20.24132127374579
 20
-1.0782374206851102
 10
20.226112421583412
 20
-1.0512849274578309
 10
20.211860681754356
 20
-1.0238143252236516
 10
20.19858368022438
 20
-0.9958595884937754
 10
20.18629783744301
 20
-0.967455290537039
 10
20.175018348035376
 20
-0.9386365606211202
 10
20.16475916201015
 20
-0.9094390405660994
 10
20.155532967506723
 20
-0.8798988406641254
 10
20.147351175103065
 20
-0.8500524950196915
 10
20.140223903703568
 20
-0.819936916365753
 10
20.134159968024413
 20
-0.7895893504115831
 10
20.129166867691893
 20
-0.7590473297788063
 10
20.125250777967164
 20
-0.7283486275825978
 10
20.12241654210897
 20
-0.697531210715447
 10
20.120667665383667
 20
-0.6666331928912681
 10
20.120006310730073
 20
-0.6356927875079222
 10
20.120433296084425
 20
-0.6047482603864622
 10
20.1219480933688
 20
-0.5738378824455367
 10
20.124548829144203
 20
-0.5429998823694915
 10
20.128232286927577
 20
-0.5122723993287073
 10
16.507760759690218
 20
-1.4823748212718297
 10
16.47773157549933
 20
-1.4898577466418474
 10
16.447457845026946
 20
-1.4962801541771107
 10
16.416977009578
 20
-1.5016341009080811
 10
16.38632676659636
 20
-1.5059129652936059
 10
16.355545023042136
 20
-1.5091114554101672
 10
16.324669848509963
 20
-1.5112256154967172
 10
16.29373942814606
 20
-1.5122528308469982
 10
16.262792015422416
 20
-1.5121918310433067
 10
16.231865884826476
 20
-1.5110426915276913
 10
16.200999284524816
 20
-1.50880683350865
 10
16.170230389059405
 20
-1.5054870222034382
 10
16.13959725213488
 20
-1.5010873634181618
 10
16.109137759555296
 20
-1.495613298469884
 10
16.07888958236853
 20
-1.4890715974570299
 10
16.048890130276266
 20
-1.4814703508864053
 10
16.019176505367213
 20
-1.4728189596671912
 10
15.98978545623079
 20
-1.4631281234842874
 10
15.960753332507949
 20
-1.4524098275653796
 10
15.932116039935458
 20
-1.4406773278581042
 10
15.903908995939155
 20
-1.4279451346356384
 10
15.876167085831128
 20
-1.414228994550988
 10
15.848924619665
 20
-1.399545871162177
 10
15.822215289802669
 20
-1.383913923952417
 10
15.796072129244969
 20
-1.3673524858712014
 10
15.770527470777825
 20
-1.3498820394241133
 10
15.745612906984386
 20
-1.3315241913409026
 10
15.721359251172618
 20
-1.3123016458531696
 10
15.697796499266678
 20
-1.2922381766147077
 10
15.674953792709177
 20
-1.271358597299225
 10
15.652859382420253
 20
-1.2496887309118123
 10
15.63154059385799
 20
-1.2272553778521131
 10
15.611023793223413
 20
-1.2040862827686922
 10
15.591334354851858
 20
-1.1802101002455925
 10
15.57249662983104
 20
-1.155656359363527
 10
15.554533915884619
 20
-1.1304554271795233
 10
15.53746842855855
 20
-1.1046384711702002
 10
15.521321273745789
 20
-1.0782374206851082
 10
15.506112421583412
 20
-1.0512849274578284
 10
15.491860681754355
 20
-1.0238143252236498
 10
15.478583680224382
 20
-0.9958595884937729
 10
15.466297837443012
 20
-0.9674552905370373
 10
15.455018348035377
 20
-0.9386365606211176
 10
15.444759162010149
 20
-0.9094390405660968
 10
15.435532967506724
 20
-0.8798988406641232
 10
15.427351175103064
 20
-0.8500524950196884
 10
15.420223903703569
 20
-0.8199369163657504
 10
15.414159968024416
 20
-0.7895893504115804
 10
15.409166867691892
 20
-0.7590473297788035
 10
15.405250777967167
 20
-0.7283486275825947
 10
15.402416542108972
 20
-0.6975312107154445
 10
15.400667665383668
 20
-0.666633192891265
 10
15.400006310730074
 20
-0.6356927875079188
 10
15.400433296084426
 20
-0.6047482603864591
 10
15.401948093368802
 20
-0.5738378824455332
 10
15.404548829144204
 20
-0.5429998823694888
 10
15.408232286927579
 20
-0.5122723993287037
 10
11.787760759690217
 20
-1.4823748212718297
 10
11.757731575499328
 20
-1.4898577466418474
 10
11.727457845026944
 20
-1.4962801541771107
 10
11.696977009578001
 20
-1.5016341009080811
 10
11.666326766596354
 20
-1.5059129652936059
 10
11.635545023042134
 20
-1.5091114554101672
 10
11.604669848509962
 20
-1.511225615496717
 10
11.573739428146057
 20
-1.5122528308469982
 10
11.542792015422414
 20
-1.5121918310433067
 10
11.511865884826474
 20
-1.5110426915276913
 10
11.480999284524815
 20
-1.50880683350865
 10
11.450230389059405
 20
-1.5054870222034384
 10
11.419597252134878
 20
-1.501087363418162
 10
11.389137759555295
 20
-1.4956132984698842
 10
11.358889582368528
 20
-1.48907159745703
 10
11.328890130276262
 20
-1.4814703508864056
 10
11.299176505367212
 20
-1.4728189596671917
 10
11.269785456230787
 20
-1.4631281234842874
 10
11.240753332507948
 20
-1.4524098275653798
 10
11.212116039935458
 20
-1.440677327858105
 10
11.183908995939154
 20
-1.4279451346356389
 10
11.156167085831127
 20
-1.4142289945509883
 10
11.128924619665
 20
-1.3995458711621778
 10
11.102215289802668
 20
-1.3839139239524172
 10
11.076072129244968
 20
-1.3673524858712023
 10
11.050527470777823
 20
-1.3498820394241142
 10
11.025612906984383
 20
-1.331524191340903
 10
11.001359251172618
 20
-1.3123016458531704
 10
10.977796499266677
 20
-1.2922381766147089
 10
10.954953792709176
 20
-1.271358597299226
 10
10.932859382420252
 20
-1.2496887309118134
 10
10.911540593857989
 20
-1.2272553778521145
 10
10.891023793223411
 20
-1.2040862827686936
 10
10.871334354851857
 20
-1.1802101002455938
 10
10.852496629831037
 20
-1.1556563593635283
 10
10.834533915884618
 20
-1.130455427179525
 10
10.817468428558549
 20
-1.1046384711702015
 10
10.801321273745788
 20
-1.0782374206851102
 10
10.786112421583411
 20
-1.0512849274578304
 10
10.771860681754353
 20
-1.0238143252236516
 10
10.75858368022438
 20
-0.9958595884937751
 10
10.74629783744301
 20
-0.967455290537039
 10
10.735018348035377
 20
-0.9386365606211196
 10
10.724759162010146
 20
-0.909439040566099
 10
10.715532967506721
 20
-0.879898840664125
 10
10.707351175103064
 20
-0.850052495019691
 10
10.700223903703566
 20
-0.819936916365753
 10
10.694159968024413
 20
-0.7895893504115827
 10
10.68916686769189
 20
-0.7590473297788063
 10
10.685250777967164
 20
-0.7283486275825973
 10
10.68241654210897
 20
-0.697531210715447
 10
10.680667665383666
 20
-0.6666331928912677
 10
10.680006310730072
 20
-0.6356927875079219
 10
10.680433296084423
 20
-0.6047482603864615
 10
10.681948093368797
 20
-0.5738378824455364
 10
10.684548829144202
 20
-0.542999882369491
 10
10.688232286927576
 20
-0.5122723993287068
 10
7.067760759690218
 20
-1.4823748212718297
 10
7.037731575499329
 20
-1.4898577466418474
 10
7.007457845026945
 20
-1.4962801541771107
 10
6.976977009578002
 20
-1.5016341009080811
 10
6.946326766596355
 20
-1.5059129652936059
 10
6.915545023042134
 20
-1.5091114554101672
 10
6.884669848509963
 20
-1.511225615496717
 10
6.853739428146059
 20
-1.5122528308469982
 10
6.822792015422415
 20
-1.5121918310433067
 10
6.791865884826474
 20
-1.5110426915276913
 10
6.760999284524816
 20
-1.50880683350865
 10
6.730230389059405
 20
-1.5054870222034384
 10
6.69959725213488
 20
-1.501087363418162
 10
6.669137759555296
 20
-1.4956132984698842
 10
6.63888958236853
 20
-1.48907159745703
 10
6.608890130276264
 20
-1.4814703508864056
 10
6.579176505367213
 20
-1.4728189596671917
 10
6.549785456230789
 20
-1.4631281234842874
 10
6.520753332507948
 20
-1.4524098275653798
 10
6.492116039935459
 20
-1.440677327858105
 10
6.463908995939155
 20
-1.4279451346356389
 10
6.436167085831127
 20
-1.4142289945509883
 10
6.408924619665001
 20
-1.3995458711621778
 10
6.3822152898026685
 20
-1.3839139239524172
 10
6.356072129244969
 20
-1.3673524858712023
 10
6.330527470777824
 20
-1.3498820394241142
 10
6.3056129069843845
 20
-1.331524191340903
 10
6.281359251172618
 20
-1.3123016458531704
 10
6.257796499266678
 20
-1.2922381766147089
 10
6.234953792709177
 20
-1.271358597299226
 10
6.212859382420254
 20
-1.2496887309118134
 10
6.19154059385799
 20
-1.2272553778521145
 10
6.171023793223412
 20
-1.2040862827686936
 10
6.151334354851858
 20
-1.1802101002455938
 10
6.1324966298310395
 20
-1.1556563593635283
 10
6.1145339158846195
 20
-1.130455427179525
 10
6.09746842855855
 20
-1.1046384711702015
 10
6.08132127374579
 20
-1.0782374206851102
 10
6.066112421583411
 20
-1.0512849274578304
 10
6.051860681754355
 20
-1.0238143252236516
 10
6.038583680224382
 20
-0.9958595884937751
 10
6.0262978374430105
 20
-0.967455290537039
 10
6.015018348035378
 20
-0.9386365606211196
 10
6.004759162010148
 20
-0.909439040566099
 10
5.995532967506723
 20
-0.879898840664125
 10
5.987351175103064
 20
-0.850052495019691
 10
5.980223903703568
 20
-0.819936916365753
 10
5.974159968024415
 20
-0.7895893504115827
 10
5.969166867691891
 20
-0.7590473297788063
 10
5.9652507779671655
 20
-0.7283486275825973
 10
5.96241654210897
 20
-0.697531210715447
 10
5.960667665383666
 20
-0.6666331928912677
 10
5.960006310730072
 20
-0.6356927875079219
 10
5.9604332960844255
 20
-0.6047482603864615
 10
5.961948093368799
 20
-0.5738378824455364
 10
5.964548829144203
 20
-0.542999882369491
 10
5.968232286927577
 20
-0.5122723993287068
 10
2.347760759690218
 20
-1.4823748212718297
 10
2.317840830116249
 20
-1.489832546137462
 10
2.287677988626472
 20
-1.4962374535642264
 10
2.257309269606604
 20
-1.5015816795114558
 10
2.2267719602218516
 20
-1.5058586622589911
 10
2.1961035546351844
 20
-1.5090631504637575
 10
2.16534170797144
 20
-1.5111912096074427
 10
2.1345241900837983
 20
-1.5122402268273574
 10
2.1036888391794
 20
-1.5122089141245452
 10
2.072873515361026
 20
-1.511097309945209
 10
2.0421160541419052
 20
-1.5089067791335045
 10
2.0114542199907035
 20
-1.5056400112557657
 10
1.980925659963753
 20
-1.5013010172982144
 10
1.9505678574814307
 20
-1.4958951247422116
 10
1.9204180863054565
 20
-1.4894289710230963
 10
1.8905133647736214
 20
-1.4819104953806455
 10
1.8608904103481105
 20
-1.4733489291111543
 10
1.8315855945332653
 20
-1.4637547842331164
 10
1.8026348982181053
 20
-1.4531398405804081
 10
1.774073867498458
 20
-1.4415171313388357
 10
1.745937570032933
 20
-1.428900927043794
 10
1.7182605519863274
 20
-1.415306718058691
 10
1.6910767956133343
 20
-1.4007511955556495
 10
1.6644196775346214
 20
-1.3852522310218385
 10
1.63832192775652
 20
-1.3688288543165932
 10
1.6128155894846379
 20
-1.3515012303062717
 10
1.587931979780731
 20
-1.3332906341055317
 10
1.5637016511111526
 20
-1.3142194249554284
 10
1.5401543538340783
 20
-1.294311018770405
 10
1.5173189996715748
 20
-1.2735898593878852
 10
1.4952236262113554
 20
-1.2520813885557645
 10
1.4738953624818132
 20
-1.229812014694654
 10
1.4533603956425982
 20
-1.2068090804732308
 10
1.4336439388316302
 20
-1.1831008292364988
 10
1.4147702002080345
 20
-1.158716370328191
 10
1.3967623532290023
 20
-1.1336856433498843
 10
1.3796425081970767
 20
-1.1080393814007108
 10
1.3634316851127932
 20
-1.0818090733428007
 10
1.3481497878660111
 20
-1.0550269251387907
 10
1.3338155797976197
 20
-1.0277258203088604
 10
1.3204466606616307
 20
-0.9999392795558601
 10
1.3080594450159369
 20
-0.9717014196080903
 10
1.296669142068275
 20
-0.9430469113302771
 10
1.2862897370021333
 20
-0.9140109371541674
 10
1.276933973805535
 20
-0.8846291478810144
 10
1.2686133396237809
 20
-0.854937618908996
 10
1.2613380506553604
 20
-0.8249728059393021
 10
1.2551170396083517
 20
-0.7947715002152815
 10
1.2499579447327096
 20
-0.7643707833496067
 10
1.2458671004419082
 20
-0.7338079817949192
 10
1.2428495295354545
 20
-0.7031206210138536
 10
1.2409089370318198
 20
-0.6723463794047158
 10
1.2400477056193635
 20
-0.6415230420393851
 10
1.2402668927308318
 20
-0.6106884542702431
 10
1.2415662292450267
 20
-0.5798804752630818
 10
1.2439441198172374
 20
-0.5491369315130626
 10
1.2473976448380282
 20
-0.5184955704007759
 10
1.2519225640179767
 20
-0.4879940138454508
 10
1.257513321593967
 20
-0.45766971211219915
 10
1.2641630531506365
 20
-0.427559897830025
 10
1.2718635940486078
 20
-0.3977015402770474
 10
1.2806054894491543
 20
-0.368131299989071
 10
1.2903780059229923
 20
-0.33888548374723315
 10
1.3011691446289446
 20
-0.31
 10
0.0
 20
-0.31
 10
0.0
 20
0.31
  0
LWPOLYLINE
  5
32
330
17
100
AcDbEntity
  8
ISLAND
100
AcDbPolyline
 90
68
 70
1
 10
2.250471611519442
 20
-1.197494731712886
 10
4.360947916990638
 20
-0.6323600941374495
 10
2.4993500973196383
 20
-0.13354646172506626
 10
1.6006245840211994
 20
-0.3743592372306292
 10
1.5943414835187433
 20
-0.3872415023278438
 10
1.5861071849975847
 20
-0.4057360396136708
 10
1.5785233526316231
 20
-0.4245066834011754
 10
1.5715992261523963
 20
-0.4435305645522987
 10
1.5653432415414397
 20
-0.4627845053982623
 10
1.5597630207523405
 20
-0.4822450479779874
 10
1.5548653624245636
 20
-0.5018884826180077
 10
1.550656233600355
 20
-0.5216908768190535
 10
1.5471407624548204
 20
-0.5416281044141156
 10
1.5443232320480333
 20
-0.561675874962464
 10
1.5422070751067878
 20
-0.5818097633438077
 10
1.5407948698423475
 20
-0.6020052395165422
 10
1.5400883368092932
 20
-0.6222376984038251
 10
1.5400883368092932
 20
-0.642482489871074
 10
1.5407948698423475
 20
-0.6627149487583568
 10
1.5422070751067878
 20
-0.6829104249310911
 10
1.5443232320480333
 20
-0.703044313312435
 10
1.5471407624548204
 20
-0.7230920838607834
 10
1.550656233600355
 20
-0.7430293114558455
 10
1.5548653624245636
 20
-0.7628317056568912
 10
1.5597630207523405
 20
-0.7824751402969116
 10
1.5653432415414397
 20
-0.8019356828766369
 10
1.5715992261523963
 20
-0.8211896237226004
 10
1.5785233526316231
 20
-0.8402135048737238
 10
1.5861071849975847
 20
-0.8589841486612282
 10
1.5943414835187433
 20
-0.8774786859470551
 10
1.6032162159707468
 20
-0.8956745839863867
 10
1.6127205698591505
 20
-0.9135496738803249
 10
1.622842965592775
 20
-0.9310821775852809
 10
1.6335710705916542
 20
-0.9482507344461653
 10
1.644891814312385
 20
-0.9650344272210563
 10
1.6567914041725702
 20
-0.9814128075656376
 10
1.669255342354957
 20
-0.9973659209463553
 10
1.6822684434707922
 20
-1.0128743309519437
 10
1.6958148530608812
 20
-1.0279191429736985
 10
1.7098780669118026
 20
-1.042482027225647
 10
1.7244409511637508
 20
-1.0565452410765683
 10
1.7394857631855059
 20
-1.0700916506666573
 10
1.7549941731910943
 20
-1.0831047517824923
 10
1.770947286571812
 20
-1.0955686899648793
 10
1.7873256669163933
 20
-1.1074682798250646
 10
1.8041093596912845
 20
-1.1187890235457956
 10
1.8212779165521686
 20
-1.1295171285446746
 10
1.8388104202571247
 20
-1.1396395242782993
 10
1.8566855101510629
 20
-1.149143878166703
 10
1.8748814081903946
 20
-1.1580186106187065
 10
1.8933759454762213
 20
-1.1662529091398648
 10
1.9121465892637257
 20
-1.1738367415058264
 10
1.9311704704148493
 20
-1.1807608679850534
 10
1.9504244112608127
 20
-1.18701685259601
 10
1.969884953840538
 20
-1.1925970733851092
 10
1.9895283884805584
 20
-1.197494731712886
 10
2.0093307826816043
 20
-1.2017038605370947
 10
2.0292680102766663
 20
-1.2052193316826294
 10
2.049315780825015
 20
-1.2080368620894162
 10
2.0694496692063584
 20
-1.210153019030662
 10
2.0896451453790923
 20
-1.2115652242951023
 10
2.1098776042663756
 20
-1.2122717573281565
 10
2.130122395733624
 20
-1.2122717573281565
 10
2.1503548546209075
 20
-1.2115652242951023
 10
2.170550330793642
 20
-1.210153019030662
 10
2.190684219174986
 20
-1.2080368620894162
 10
2.210731989723334
 20
-1.2052193316826294
 10
2.2306692173183964
 20
-1.2017038605370947
  0
LWPOLYLINE
  5
33
330
17
100
AcDbEntity
  8
ISLAND
100
AcDbPolyline
 90
69
 70
1
 10
6.930731989723333
 20
-1.2052193316826294
 10
6.950669217318396
 20
-1.2017038605370947
 10
6.970471611519441
 20
-1.197494731712886
 10
6.990115046159461
 20
-1.1925970733851092
 10
9.080947916990638
 20
-0.6323600941374495
 10
7.219350097319638
 20
-0.13354646172506626
 10
6.320624584021199
 20
-0.3743592372306291
 10
6.314341483518743
 20
-0.3872415023278438
 10
6.306107184997584
 20
-0.4057360396136708
 10
6.298523352631623
 20
-0.4245066834011754
 10
6.291599226152396
 20
-0.4435305645522987
 10
6.285343241541439
 20
-0.4627845053982623
 10
6.27976302075234
 20
-0.4822450479779874
 10
6.274865362424563
 20
-0.5018884826180077
 10
6.270656233600355
 20
-0.5216908768190535
 10
6.2671407624548205
 20
-0.5416281044141156
 10
6.264323232048033
 20
-0.561675874962464
 10
6.2622070751067875
 20
-0.5818097633438077
 10
6.260794869842347
 20
-0.6020052395165422
 10
6.260088336809293
 20
-0.6222376984038251
 10
6.260088336809293
 20
-0.642482489871074
 10
6.260794869842347
 20
-0.6627149487583568
 10
6.2622070751067875
 20
-0.6829104249310911
 10
6.264323232048033
 20
-0.703044313312435
 10
6.26714076245482
 20
-0.7230920838607834
 10
6.270656233600355
 20
-0.7430293114558455
 10
6.274865362424563
 20
-0.7628317056568912
 10
6.27976302075234
 20
-0.7824751402969116
 10
6.285343241541439
 20
-0.8019356828766369
 10
6.291599226152396
 20
-0.8211896237226004
 10
6.298523352631623
 20
-0.8402135048737238
 10
6.306107184997584
 20
-0.8589841486612282
 10
6.314341483518743
 20
-0.8774786859470551
 10
6.323216215970747
 20
-0.8956745839863867
 10
6.33272056985915
 20
-0.9135496738803249
 10
6.342842965592775
 20
-0.9310821775852809
 10
6.353571070591654
 20
-0.9482507344461653
 10
6.364891814312385
 20
-0.9650344272210563
 10
6.37679140417257
 20
-0.9814128075656376
 10
6.389255342354957
 20
-0.9973659209463553
 10
6.402268443470792
 20
-1.0128743309519437
 10
6.415814853060881
 20
-1.0279191429736985
 10
6.429878066911802
 20
-1.042482027225647
 10
6.444440951163751
 20
-1.0565452410765683
 10
6.459485763185506
 20
-1.0700916506666573
 10
6.474994173191094
 20
-1.0831047517824923
 10
6.490947286571812
 20
-1.0955686899648793
 10
6.507325666916393
 20
-1.1074682798250646
 10
6.524109359691284
 20
-1.1187890235457956
 10
6.541277916552168
 20
-1.1295171285446746
 10
6.5588104202571245
 20
-1.1396395242782993
 10
6.576685510151062
 20
-1.149143878166703
 10
6.594881408190394
 20
-1.1580186106187065
 10
6.613375945476221
 20
-1.1662529091398648
 10
6.6321465892637255
 20
-1.1738367415058264
 10
6.651170470414849
 20
-1.1807608679850534
 10
6.670424411260813
 20
-1.18701685259601
 10
6.689884953840538
 20
-1.1925970733851092
 10
6.709528388480558
 20
-1.197494731712886
 10
6.729330782681604
 20
-1.2017038605370947
 10
6.749268010276666
 20
-1.2052193316826294
 10
6.769315780825014
 20
-1.2080368620894162
 10
6.789449669206358
 20
-1.210153019030662
 10
6.8096451453790925
 20
-1.2115652242951023
 10
6.829877604266375
 20
-1.2122717573281565
 10
6.850122395733624
 20
-1.2122717573281565
 10
6.870354854620907
 20
-1.2115652242951023
 10
6.8905503307936415
 20
-1.210153019030662
 10
6.9106842191749855
 20
-1.2080368620894162
  0
LWPOLYLINE
  5
34
330
17
100
AcDbEntity
  8
ISLAND
100
AcDbPolyline
 90
69
 70
1
 10
11.650731989723333
 20
-1.2052193316826294
 10
11.670669217318395
 20
-1.2017038605370947
 10
11.69047161151944
 20
-1.197494731712886
 10
11.71011504615946
 20
-1.1925970733851092
 10
13.800947916990637
 20
-0.6323600941374495
 10
11.939350097319636
 20
-0.13354646172506626
 10
11.040624584021197
 20
-0.37435923723062936
 10
11.034341483518741
 20
-0.3872415023278438
 10
11.026107184997583
 20
-0.4057360396136708
 10
11.018523352631622
 20
-0.4245066834011754
 10
11.011599226152395
 20
-0.4435305645522987
 10
11.005343241541437
 20
-0.4627845053982623
 10
10.99976302075234
 20
-0.4822450479779874
 10
10.994865362424562
 20
-0.5018884826180077
 10
10.990656233600355
 20
-0.5216908768190535
 10
10.98714076245482
 20
-0.5416281044141156
 10
10.984323232048032
 20
-0.561675874962464
 10
10.982207075106786
 20
-0.5818097633438077
 10
10.980794869842345
 20
-0.6020052395165422
 10
10.980088336809292
 20
-0.6222376984038251
 10
10.980088336809292
 20
-0.642482489871074
 10
10.980794869842345
 20
-0.6627149487583568
 10
10.982207075106786
 20
-0.6829104249310911
 10
10.984323232048032
 20
-0.703044313312435
 10
10.98714076245482
 20
-0.7230920838607834
 10
10.990656233600355
 20
-0.7430293114558455
 10
10.994865362424562
 20
-0.7628317056568912
 10
10.99976302075234
 20
-0.7824751402969116
 10
11.005343241541437
 20
-0.8019356828766369
 10
11.011599226152395
 20
-0.8211896237226004
 10
11.018523352631622
 20
-0.8402135048737238
 10
11.026107184997583
 20
-0.8589841486612282
 10
11.034341483518741
 20
-0.8774786859470551
 10
11.043216215970745
 20
-0.8956745839863867
 10
11.052720569859149
 20
-0.9135496738803249
 10
11.062842965592774
 20
-0.9310821775852809
 10
11.073571070591653
 20
-0.9482507344461653
 10
11.084891814312384
 20
-0.9650344272210563
 10
11.096791404172569
 20
-0.9814128075656376
 10
11.109255342354956
 20
-0.9973659209463553
 10
11.12226844347079
 20
-1.0128743309519437
 10
11.13581485306088
 20
-1.0279191429736985
 10
11.149878066911802
 20
-1.042482027225647
 10
11.16444095116375
 20
-1.0565452410765683
 10
11.179485763185504
 20
-1.0700916506666573
 10
11.194994173191093
 20
-1.0831047517824923
 10
11.21094728657181
 20
-1.0955686899648793
 10
11.227325666916391
 20
-1.1074682798250646
 10
11.244109359691283
 20
-1.1187890235457956
 10
11.261277916552167
 20
-1.1295171285446746
 10
11.278810420257123
 20
-1.1396395242782993
 10
11.296685510151061
 20
-1.149143878166703
 10
11.314881408190393
 20
-1.1580186106187065
 10
11.33337594547622
 20
-1.1662529091398648
 10
11.352146589263725
 20
-1.1738367415058264
 10
11.371170470414848
 20
-1.1807608679850534
 10
11.390424411260812
 20
-1.18701685259601
 10
11.409884953840537
 20
-1.1925970733851092
 10
11.429528388480557
 20
-1.197494731712886
 10
11.449330782681603
 20
-1.2017038605370947
 10
11.469268010276664
 20
-1.2052193316826294
 10
11.489315780825013
 20
-1.2080368620894162
 10
11.509449669206356
 20
-1.210153019030662
 10
11.52964514537909
 20
-1.2115652242951023
 10
11.549877604266374
 20
-1.2122717573281565
 10
11.570122395733623
 20
-1.2122717573281565
 10
11.590354854620907
 20
-1.2115652242951023
 10
11.61055033079364
 20
-1.210153019030662
 10
11.630684219174984
 20
-1.2080368620894162
  0
LWPOLYLINE
  5
35
330
17
100
AcDbEntity
  8
ISLAND
100
AcDbPolyline
 90
69
 70
1
 10
16.370731989723335
 20
-1.2052193316826294
 10
16.390669217318397
 20
-1.2017038605370947
 10
16.410471611519444
 20
-1.197494731712886
 10
16.430115046159464
 20
-1.1925970733851092
 10
18.52094791699064
 20
-0.6323600941374495
 10
16.659350097319642
 20
-0.1335464617250663
 10
15.7606245840212
 20
-0.37435923723062986
 10
15.754341483518743
 20
-0.3872415023278438
 10
15.746107184997586
 20
-0.4057360396136708
 10
15.738523352631624
 20
-0.4245066834011754
 10
15.731599226152397
 20
-0.4435305645522987
 10
15.72534324154144
 20
-0.4627845053982623
 10
15.719763020752342
 20
-0.4822450479779874
 10
15.714865362424565
 20
-0.5018884826180077
 10
15.710656233600357
 20
-0.5216908768190535
 10
15.707140762454822
 20
-0.5416281044141156
 10
15.704323232048035
 20
-0.561675874962464
 10
15.702207075106788
 20
-0.5818097633438077
 10
15.700794869842348
 20
-0.6020052395165422
 10
15.700088336809294
 20
-0.6222376984038251
 10
15.700088336809294
 20
-0.642482489871074
 10
15.700794869842348
 20
-0.6627149487583568
 10
15.702207075106788
 20
-0.6829104249310911
 10
15.704323232048035
 20
-0.703044313312435
 10
15.707140762454822
 20
-0.7230920838607834
 10
15.710656233600357
 20
-0.7430293114558455
 10
15.714865362424565
 20
-0.7628317056568912
 10
15.719763020752342
 20
-0.7824751402969116
 10
15.72534324154144
 20
-0.8019356828766369
 10
15.731599226152397
 20
-0.8211896237226004
 10
15.738523352631624
 20
-0.8402135048737238
 10
15.746107184997586
 20
-0.8589841486612282
 10
15.754341483518743
 20
-0.8774786859470551
 10
15.763216215970747
 20
-0.8956745839863867
 10
15.772720569859151
 20
-0.9135496738803249
 10
15.782842965592776
 20
-0.9310821775852809
 10
15.793571070591655
 20
-0.9482507344461653
 10
15.804891814312386
 20
-0.9650344272210563
 10
15.816791404172571
 20
-0.9814128075656376
 10
15.829255342354958
 20
-0.9973659209463553
 10
15.842268443470793
 20
-1.0128743309519437
 10
15.855814853060883
 20
-1.0279191429736985
 10
15.869878066911804
 20
-1.042482027225647
 10
15.884440951163752
 20
-1.0565452410765683
 10
15.899485763185506
 20
-1.0700916506666573
 10
15.914994173191095
 20
-1.0831047517824923
 10
15.930947286571813
 20
-1.0955686899648793
 10
15.947325666916393
 20
-1.1074682798250646
 10
15.964109359691285
 20
-1.1187890235457956
 10
15.98127791655217
 20
-1.1295171285446746
 10
15.998810420257126
 20
-1.1396395242782993
 10
16.016685510151063
 20
-1.149143878166703
 10
16.034881408190394
 20
-1.1580186106187065
 10
16.053375945476223
 20
-1.1662529091398648
 10
16.072146589263728
 20
-1.1738367415058264
 10
16.091170470414852
 20
-1.1807608679850534
 10
16.110424411260812
 20
-1.18701685259601
 10
16.129884953840538
 20
-1.1925970733851092
 10
16.149528388480558
 20
-1.197494731712886
 10
16.169330782681605
 20
-1.2017038605370947
 10
16.189268010276667
 20
-1.2052193316826294
 10
16.209315780825015
 20
-1.2080368620894162
 10
16.22944966920636
 20
-1.210153019030662
 10
16.249645145379095
 20
-1.2115652242951023
 10
16.269877604266377
 20
-1.2122717573281565
 10
16.290122395733626
 20
-1.2122717573281565
 10
16.310354854620908
 20
-1.2115652242951023
 10
16.330550330793642
 20
-1.210153019030662
 10
16.350684219174987
 20
-1.2080368620894162
  0
LWPOLYLINE
  5
36
330
17
100
AcDbEntity
  8
ISLAND
100
AcDbPolyline
 90
69
 70
1
 10
21.090731989723334
 20
-1.2052193316826294
 10
21.110669217318396
 20
-1.2017038605370947
 10
21.130471611519443
 20
-1.197494731712886
 10
21.150115046159463
 20
-1.1925970733851092
 10
23.24094791699064
 20
-0.6323600941374495
 10
21.37935009731964
 20
-0.1335464617250663
 10
20.480624584021196
 20
-0.37435923723062986
 10
20.474341483518742
 20
-0.3872415023278438
 10
20.466107184997586
 20
-0.4057360396136708
 10
20.458523352631623
 20
-0.4245066834011754
 10
20.451599226152396
 20
-0.4435305645522987
 10
20.44534324154144
 20
-0.4627845053982623
 10
20.43976302075234
 20
-0.4822450479779874
 10
20.434865362424564
 20
-0.5018884826180077
 10
20.430656233600356
 20
-0.5216908768190535
 10
20.42714076245482
 20
-0.5416281044141156
 10
20.42432323204803
 20
-0.561675874962464
 10
20.422207075106787
 20
-0.5818097633438077
 10
20.420794869842346
 20
-0.6020052395165422
 10
20.420088336809293
 20
-0.6222376984038251
 10
20.420088336809293
 20
-0.642482489871074
 10
20.420794869842346
 20
-0.6627149487583568
 10
20.422207075106787
 20
-0.6829104249310911
 10
20.42432323204803
 20
-0.703044313312435
 10
20.42714076245482
 20
-0.7230920838607834
 10
20.430656233600356
 20
-0.7430293114558455
 10
20.434865362424564
 20
-0.7628317056568912
 10
20.43976302075234
 20
-0.7824751402969116
 10
20.44534324154144
 20
-0.8019356828766369
 10
20.451599226152396
 20
-0.8211896237226004
 10
20.458523352631623
 20
-0.8402135048737238
 10
20.466107184997586
 20
-0.8589841486612282
 10
20.474341483518742
 20
-0.8774786859470551
 10
20.483216215970746
 20
-0.8956745839863867
 10
20.492720569859152
 20
-0.9135496738803249
 10
20.502842965592777
 20
-0.9310821775852809
 10
20.513571070591652
 20
-0.9482507344461653
 10
20.524891814312383
 20
-0.9650344272210563
 10
20.536791404172572
 20
-0.9814128075656376
 10
20.549255342354957
 20
-0.9973659209463553
 10
20.562268443470792
 20
-1.0128743309519437
 10
20.57581485306088
 20
-1.0279191429736985
 10
20.5898780669118
 20
-1.042482027225647
 10
20.604440951163753
 20
-1.0565452410765683
 10
20.619485763185505
 20
-1.0700916506666573
 10
20.634994173191092
 20
-1.0831047517824923
 10
20.650947286571814
 20
-1.0955686899648793
 10
20.667325666916394
 20
-1.1074682798250646
 10
20.684109359691284
 20
-1.1187890235457956
 10
20.70127791655217
 20
-1.1295171285446746
 10
20.718810420257125
 20
-1.1396395242782993
 10
20.736685510151062
 20
-1.149143878166703
 10
20.754881408190393
 20
-1.1580186106187065
 10
20.77337594547622
 20
-1.1662529091398648
 10
20.792146589263726
 20
-1.1738367415058264
 10
20.81117047041485
 20
-1.1807608679850534
 10
20.83042441126081
 20
-1.18701685259601
 10
20.849884953840537
 20
-1.1925970733851092
 10
20.869528388480557
 20
-1.197494731712886
 10
20.889330782681604
 20
-1.2017038605370947
 10
20.909268010276666
 20
-1.2052193316826294
 10
20.929315780825014
 20
-1.2080368620894162
 10
20.94944966920636
 20
-1.210153019030662
 10
20.969645145379094
 20
-1.2115652242951023
 10
20.989877604266375
 20
-1.2122717573281565
 10
21.010122395733625
 20
-1.2122717573281565
 10
21.030354854620906
 20
-1.2115652242951023
 10
21.05055033079364
 20
-1.210153019030662
 10
21.070684219174986
 20
-1.2080368620894162
  0
LWPOLYLINE
  5
37
330
17
100
AcDbEntity
  8
ISLAND
100
AcDbPolyline
 90
4
 70
1
 10
3.160058908537521
 20
0.0
 10
4.9405034127640794
 20
-0.4770686670759371
 10
6.720947916990639
 20
0.0
 10
4.9405034127640794
 20
0.4770686670759371
  0
LWPOLYLINE
  5
38
330
17
100
AcDbEntity
  8
ISLAND
100
AcDbPolyline
 90
4
 70
1
 10
7.880058908537521
 20
0.0
 10
9.660503412764081
 20
-0.47706866707593715
 10
11.440947916990638
 20
0.0
 10
9.660503412764081
 20
0.47706866707593715
  0
LWPOLYLINE
  5
39
330
17
100
AcDbEntity
  8
ISLAND
100
AcDbPolyline
 90
4
 70
1
 10
12.60005890853752
 20
0.0
 10
14.380503412764076
 20
-0.47706866707593687
 10
16.160947916990636
 20
0.0
 10
14.380503412764076
 20
0.47706866707593687
  0
LWPOLYLINE
  5
3A
330
17
100
AcDbEntity
  8
ISLAND
100
AcDbPolyline
 90
4
 70
1
 10
17.320058908537522
 20
0.0
 10
19.10050341276408
 20
-0.47706866707593715
 10
20.88094791699064
 20
0.0
 10
19.10050341276408
 20
0.47706866707593715
  0
LWPOLYLINE
  5
3B
330
17
100
AcDbEntity
  8
ISLAND
100
AcDbPolyline
 90
4
 70
1
 10
22.04005890853752
 20
0.0
 10
23.82050341276408
 20
-0.47706866707593715
 10
25.600947916990638
 20
0.0
 10
23.82050341276408
 20
0.47706866707593715
  0
LWPOLYLINE
  5
3C
330
17
100
AcDbEntity
  8
ISLAND
100
AcDbPolyline
 90
69
 70
1
 10
1.5653432415414397
 20
0.4627845053982622
 10
1.5715992261523963
 20
0.44353056455229867
 10
1.5785233526316231
 20
0.4245066834011753
 10
1.5861071849975847
 20
0.4057360396136709
 10
1.5943414835187433
 20
0.38724150232784393
 10
1.6006245840211994
 20
0.3743592372306292
 10
2.4993500973196383
 20
0.13354646172506626
 10
4.360947916990638
 20
0.6323600941374495
 10
2.270115046159462
 20
1.1925970733851092
 10
2.250471611519442
 20
1.197494731712886
 10
2.230669217318396
 20
1.2017038605370947
 10
2.210731989723334
 20
1.2052193316826294
 10
2.190684219174986
 20
1.2080368620894162
 10
2.170550330793642
 20
1.210153019030662
 10
2.1503548546209075
 20
1.2115652242951023
 10
2.1301223957336246
 20
1.2122717573281565
 10
2.1098776042663756
 20
1.2122717573281565
 10
2.0896451453790927
 20
1.2115652242951023
 10
2.0694496692063584
 20
1.210153019030662
 10
2.0493157808250144
 20
1.2080368620894162
 10
2.0292680102766663
 20
1.2052193316826294
 10
2.0093307826816043
 20
1.2017038605370947
 10
1.9895283884805584
 20
1.197494731712886
 10
1.969884953840538
 20
1.1925970733851092
 10
1.950424411260813
 20
1.18701685259601
 10
1.9311704704148493
 20
1.1807608679850534
 10
1.912146589263726
 20
1.1738367415058266
 10
1.8933759454762213
 20
1.1662529091398648
 10
1.8748814081903946
 20
1.1580186106187065
 10
1.856685510151063
 20
1.149143878166703
 10
1.8388104202571247
 20
1.139639524278299
 10
1.8212779165521686
 20
1.1295171285446748
 10
1.8041093596912843
 20
1.1187890235457956
 10
1.7873256669163933
 20
1.1074682798250648
 10
1.770947286571812
 20
1.0955686899648793
 10
1.7549941731910945
 20
1.0831047517824928
 10
1.739485763185506
 20
1.0700916506666573
 10
1.724440951163751
 20
1.0565452410765683
 10
1.7098780669118026
 20
1.0424820272256472
 10
1.6958148530608812
 20
1.0279191429736987
 10
1.6822684434707924
 20
1.0128743309519437
 10
1.669255342354957
 20
0.9973659209463552
 10
1.6567914041725702
 20
0.9814128075656374
 10
1.644891814312385
 20
0.9650344272210561
 10
1.6335710705916542
 20
0.9482507344461654
 10
1.622842965592775
 20
0.9310821775852811
 10
1.6127205698591505
 20
0.913549673880325
 10
1.6032162159707468
 20
0.8956745839863867
 10
1.5943414835187433
 20
0.8774786859470552
 10
1.5861071849975847
 20
0.8589841486612283
 10
1.5785233526316231
 20
0.8402135048737236
 10
1.5715992261523963
 20
0.8211896237226004
 10
1.5653432415414397
 20
0.8019356828766367
 10
1.5597630207523405
 20
0.7824751402969117
 10
1.5548653624245636
 20
0.7628317056568914
 10
1.550656233600355
 20
0.7430293114558456
 10
1.5471407624548204
 20
0.7230920838607835
 10
1.5443232320480333
 20
0.7030443133124351
 10
1.5422070751067878
 20
0.6829104249310913
 10
1.5407948698423475
 20
0.6627149487583569
 10
1.5400883368092932
 20
0.6424824898710739
 10
1.5400883368092932
 20
0.622237698403825
 10
1.5407948698423475
 20
0.6020052395165423
 10
1.5422070751067878
 20
0.581809763343808
 10
1.5443232320480333
 20
0.5616758749624641
 10
1.5471407624548204
 20
0.5416281044141157
 10
1.550656233600355
 20
0.5216908768190536
 10
1.5548653624245636
 20
0.5018884826180079
 10
1.5597630207523405
 20
0.4822450479779875
  0
LWPOLYLINE
  5
3D
330
17
100
AcDbEntity
  8
ISLAND
100
AcDbPolyline
 90
69
 70
1
 10
6.285343241541439
 20
0.4627845053982622
 10
6.291599226152396
 20
0.44353056455229867
 10
6.298523352631623
 20
0.4245066834011753
 10
6.306107184997584
 20
0.4057360396136709
 10
6.314341483518743
 20
0.38724150232784393
 10
6.320624584021199
 20
0.3743592372306291
 10
7.219350097319638
 20
0.13354646172506626
 10
9.080947916990638
 20
0.6323600941374495
 10
6.990115046159461
 20
1.1925970733851092
 10
6.970471611519441
 20
1.197494731712886
 10
6.950669217318396
 20
1.2017038605370947
 10
6.930731989723334
 20
1.2052193316826294
 10
6.9106842191749855
 20
1.2080368620894162
 10
6.8905503307936415
 20
1.210153019030662
 10
6.870354854620907
 20
1.2115652242951023
 10
6.850122395733624
 20
1.2122717573281565
 10
6.829877604266375
 20
1.2122717573281565
 10
6.8096451453790925
 20
1.2115652242951023
 10
6.789449669206358
 20
1.210153019030662
 10
6.769315780825014
 20
1.2080368620894162
 10
6.749268010276666
 20
1.2052193316826294
 10
6.729330782681604
 20
1.2017038605370947
 10
6.7095283884805585
 20
1.197494731712886
 10
6.689884953840537
 20
1.1925970733851092
 10
6.670424411260813
 20
1.18701685259601
 10
6.651170470414849
 20
1.1807608679850534
 10
6.6321465892637255
 20
1.1738367415058266
 10
6.613375945476221
 20
1.1662529091398648
 10
6.594881408190394
 20
1.1580186106187065
 10
6.576685510151063
 20
1.149143878166703
 10
6.5588104202571245
 20
1.139639524278299
 10
6.541277916552168
 20
1.1295171285446748
 10
6.524109359691284
 20
1.1187890235457956
 10
6.507325666916393
 20
1.1074682798250648
 10
6.490947286571812
 20
1.0955686899648793
 10
6.474994173191094
 20
1.0831047517824928
 10
6.459485763185506
 20
1.0700916506666573
 10
6.444440951163751
 20
1.0565452410765683
 10
6.429878066911803
 20
1.0424820272256472
 10
6.415814853060881
 20
1.0279191429736987
 10
6.402268443470792
 20
1.0128743309519437
 10
6.389255342354957
 20
0.9973659209463552
 10
6.37679140417257
 20
0.9814128075656374
 10
6.364891814312385
 20
0.9650344272210561
 10
6.353571070591654
 20
0.9482507344461654
 10
6.342842965592775
 20
0.9310821775852811
 10
6.33272056985915
 20
0.913549673880325
 10
6.323216215970747
 20
0.8956745839863867
 10
6.314341483518743
 20
0.8774786859470552
 10
6.306107184997584
 20
0.8589841486612283
 10
6.298523352631623
 20
0.8402135048737236
 10
6.291599226152396
 20
0.8211896237226004
 10
6.285343241541439
 20
0.8019356828766367
 10
6.27976302075234
 20
0.7824751402969117
 10
6.274865362424563
 20
0.7628317056568914
 10
6.270656233600355
 20
0.7430293114558456
 10
6.2671407624548205
 20
0.7230920838607835
 10
6.264323232048033
 20
0.7030443133124351
 10
6.2622070751067875
 20
0.6829104249310913
 10
6.260794869842347
 20
0.6627149487583569
 10
6.260088336809293
 20
0.6424824898710739
 10
6.260088336809293
 20
0.622237698403825
 10
6.260794869842347
 20
0.6020052395165423
 10
6.2622070751067875
 20
0.581809763343808
 10
6.264323232048033
 20
0.5616758749624641
 10
6.26714076245482
 20
0.5416281044141157
 10
6.270656233600355
 20
0.5216908768190536
 10
6.274865362424563
 20
0.5018884826180079
 10
6.27976302075234
 20
0.4822450479779875
  0
LWPOLYLINE
  5
3E
330
17
100
AcDbEntity
  8
ISLAND
100
AcDbPolyline
 90
69
 70
1
 10
11.005343241541437
 20
0.4627845053982622
 10
11.011599226152395
 20
0.44353056455229867
 10
11.018523352631622
 20
0.4245066834011753
 10
11.026107184997583
 20
0.4057360396136709
 10
11.034341483518741
 20
0.38724150232784393
 10
11.040624584021197
 20
0.37435923723062936
 10
11.939350097319636
 20
0.13354646172506626
 10
13.800947916990637
 20
0.6323600941374495
 10
11.71011504615946
 20
1.1925970733851092
 10
11.69047161151944
 20
1.197494731712886
 10
11.670669217318395
 20
1.2017038605370947
 10
11.650731989723333
 20
1.2052193316826294
 10
11.630684219174984
 20
1.2080368620894162
 10
11.610550330793641
 20
1.210153019030662
 10
11.590354854620907
 20
1.2115652242951023
 10
11.570122395733623
 20
1.2122717573281565
 10
11.549877604266374
 20
1.2122717573281565
 10
11.52964514537909
 20
1.2115652242951023
 10
11.509449669206356
 20
1.210153019030662
 10
11.489315780825013
 20
1.2080368620894162
 10
11.469268010276664
 20
1.2052193316826294
 10
11.449330782681603
 20
1.2017038605370947
 10
11.429528388480557
 20
1.197494731712886
 10
11.409884953840537
 20
1.1925970733851092
 10
11.390424411260812
 20
1.18701685259601
 10
11.371170470414848
 20
1.1807608679850534
 10
11.352146589263725
 20
1.1738367415058266
 10
11.33337594547622
 20
1.1662529091398648
 10
11.314881408190393
 20
1.1580186106187065
 10
11.296685510151061
 20
1.149143878166703
 10
11.278810420257123
 20
1.139639524278299
 10
11.261277916552167
 20
1.1295171285446748
 10
11.244109359691283
 20
1.1187890235457956
 10
11.227325666916393
 20
1.1074682798250648
 10
11.21094728657181
 20
1.0955686899648793
 10
11.194994173191093
 20
1.0831047517824928
 10
11.179485763185504
 20
1.0700916506666573
 10
11.16444095116375
 20
1.0565452410765683
 10
11.149878066911802
 20
1.0424820272256472
 10
11.13581485306088
 20
1.0279191429736987
 10
11.12226844347079
 20
1.0128743309519437
 10
11.109255342354956
 20
0.9973659209463552
 10
11.096791404172569
 20
0.9814128075656374
 10
11.084891814312384
 20
0.9650344272210561
 10
11.073571070591653
 20
0.9482507344461654
 10
11.062842965592774
 20
0.9310821775852811
 10
11.052720569859149
 20
0.913549673880325
 10
11.043216215970745
 20
0.8956745839863867
 10
11.034341483518741
 20
0.8774786859470552
 10
11.026107184997583
 20
0.8589841486612283
 10
11.018523352631622
 20
0.8402135048737236
 10
11.011599226152395
 20
0.8211896237226004
 10
11.005343241541437
 20
0.8019356828766367
 10
10.99976302075234
 20
0.7824751402969117
 10
10.994865362424562
 20
0.7628317056568914
 10
10.990656233600355
 20
0.7430293114558456
 10
10.98714076245482
 20
0.7230920838607835
 10
10.984323232048032
 20
0.7030443133124351
 10
10.982207075106786
 20
0.6829104249310913
 10
10.980794869842345
 20
0.6627149487583569
 10
10.980088336809292
 20
0.6424824898710739
 10
10.980088336809292
 20
0.622237698403825
 10
10.980794869842345
 20
0.6020052395165423
 10
10.982207075106786
 20
0.581809763343808
 10
10.984323232048032
 20
0.5616758749624641
 10
10.98714076245482
 20
0.5416281044141157
 10
10.990656233600355
 20
0.5216908768190536
 10
10.994865362424562
 20
0.5018884826180079
 10
10.99976302075234
 20
0.4822450479779875
  0
LWPOLYLINE
  5
3F
330
17
100
AcDbEntity
  8
ISLAND
100
AcDbPolyline
 90
69
 70
1
 10
15.72534324154144
 20
0.4627845053982622
 10
15.731599226152397
 20
0.44353056455229867
 10
15.738523352631624
 20
0.4245066834011753
 10
15.746107184997586
 20
0.4057360396136709
 10
15.754341483518743
 20
0.38724150232784393
 10
15.7606245840212
 20
0.37435923723062986
 10
16.659350097319642
 20
0.1335464617250663
 10
18.52094791699064
 20
0.6323600941374495
 10
16.430115046159464
 20
1.1925970733851092
 10
16.410471611519444
 20
1.197494731712886
 10
16.390669217318397
 20
1.2017038605370947
 10
16.370731989723335
 20
1.2052193316826294
 10
16.350684219174987
 20
1.2080368620894162
 10
16.330550330793642
 20
1.210153019030662
 10
16.310354854620908
 20
1.2115652242951023
 10
16.290122395733626
 20
1.2122717573281565
 10
16.269877604266377
 20
1.2122717573281565
 10
16.249645145379095
 20
1.2115652242951023
 10
16.22944966920636
 20
1.210153019030662
 10
16.209315780825015
 20
1.2080368620894162
 10
16.189268010276667
 20
1.2052193316826294
 10
16.169330782681605
 20
1.2017038605370947
 10
16.149528388480558
 20
1.197494731712886
 10
16.129884953840538
 20
1.1925970733851092
 10
16.110424411260812
 20
1.18701685259601
 10
16.091170470414852
 20
1.1807608679850534
 10
16.072146589263728
 20
1.1738367415058266
 10
16.053375945476223
 20
1.1662529091398648
 10
16.034881408190394
 20
1.1580186106187065
 10
16.016685510151063
 20
1.149143878166703
 10
15.998810420257126
 20
1.139639524278299
 10
15.98127791655217
 20
1.1295171285446748
 10
15.964109359691285
 20
1.1187890235457956
 10
15.947325666916395
 20
1.1074682798250648
 10
15.930947286571813
 20
1.0955686899648793
 10
15.914994173191095
 20
1.0831047517824928
 10
15.899485763185506
 20
1.0700916506666573
 10
15.884440951163752
 20
1.0565452410765683
 10
15.869878066911804
 20
1.0424820272256472
 10
15.855814853060883
 20
1.0279191429736987
 10
15.842268443470793
 20
1.0128743309519437
 10
15.829255342354958
 20
0.9973659209463552
 10
15.816791404172571
 20
0.9814128075656374
 10
15.804891814312386
 20
0.9650344272210561
 10
15.793571070591655
 20
0.9482507344461654
 10
15.782842965592776
 20
0.9310821775852811
 10
15.772720569859151
 20
0.913549673880325
 10
15.763216215970747
 20
0.8956745839863867
 10
15.754341483518743
 20
0.8774786859470552
 10
15.746107184997586
 20
0.8589841486612283
 10
15.738523352631624
 20
0.8402135048737236
 10
15.731599226152397
 20
0.8211896237226004
 10
15.72534324154144
 20
0.8019356828766367
 10
15.719763020752342
 20
0.7824751402969117
 10
15.714865362424565
 20
0.7628317056568914
 10
15.710656233600357
 20
0.7430293114558456
 10
15.707140762454822
 20
0.7230920838607835
 10
15.704323232048035
 20
0.7030443133124351
 10
15.702207075106788
 20
0.6829104249310913
 10
15.700794869842348
 20
0.6627149487583569
 10
15.700088336809294
 20
0.6424824898710739
 10
15.700088336809294
 20
0.622237698403825
 10
15.700794869842348
 20
0.6020052395165423
 10
15.702207075106788
 20
0.581809763343808
 10
15.704323232048035
 20
0.5616758749624641
 10
15.707140762454822
 20
0.5416281044141157
 10
15.710656233600357
 20
0.5216908768190536
 10
15.714865362424565
 20
0.5018884826180079
 10
15.719763020752342
 20
0.4822450479779875
  0
LWPOLYLINE
  5
40
330
17
100
AcDbEntity
  8
ISLAND
100
AcDbPolyline
 90
69
 70
1
 10
20.44534324154144
 20
0.4627845053982622
 10
20.451599226152396
 20
0.44353056455229867
 10
20.458523352631623
 20
0.4245066834011753
 10
20.466107184997586
 20
0.4057360396136709
 10
20.474341483518742
 20
0.38724150232784393
 10
20.480624584021196
 20
0.37435923723062986
 10
21.37935009731964
 20
0.1335464617250663
 10
23.24094791699064
 20
0.6323600941374495
 10
21.150115046159463
 20
1.1925970733851092
 10
21.130471611519443
 20
1.197494731712886
 10
21.110669217318396
 20
1.2017038605370947
 10
21.090731989723334
 20
1.2052193316826294
 10
21.070684219174986
 20
1.2080368620894162
 10
21.05055033079364
 20
1.210153019030662
 10
21.030354854620906
 20
1.2115652242951023
 10
21.010122395733625
 20
1.2122717573281565
 10
20.989877604266375
 20
1.2122717573281565
 10
20.969645145379094
 20
1.2115652242951023
 10
20.94944966920636
 20
1.210153019030662
 10
20.929315780825014
 20
1.2080368620894162
 10
20.909268010276666
 20
1.2052193316826294
 10
20.889330782681604
 20
1.2017038605370947
 10
20.869528388480557
 20
1.197494731712886
 10
20.849884953840537
 20
1.1925970733851092
 10
20.83042441126081
 20
1.18701685259601
 10
20.81117047041485
 20
1.1807608679850534
 10
20.792146589263726
 20
1.1738367415058266
 10
20.77337594547622
 20
1.1662529091398648
 10
20.754881408190393
 20
1.1580186106187065
 10
20.736685510151062
 20
1.149143878166703
 10
20.718810420257125
 20
1.139639524278299
 10
20.70127791655217
 20
1.1295171285446748
 10
20.684109359691284
 20
1.1187890235457956
 10
20.667325666916394
 20
1.1074682798250648
 10
20.65094728657181
 20
1.0955686899648793
 10
20.634994173191096
 20
1.0831047517824928
 10
20.619485763185505
 20
1.0700916506666573
 10
20.604440951163753
 20
1.0565452410765683
 10
20.5898780669118
 20
1.0424820272256472
 10
20.57581485306088
 20
1.0279191429736987
 10
20.562268443470792
 20
1.0128743309519437
 10
20.549255342354957
 20
0.9973659209463552
 10
20.536791404172572
 20
0.9814128075656374
 10
20.524891814312383
 20
0.9650344272210561
 10
20.513571070591656
 20
0.9482507344461654
 10
20.502842965592777
 20
0.9310821775852811
 10
20.492720569859152
 20
0.913549673880325
 10
20.483216215970746
 20
0.8956745839863867
 10
20.474341483518742
 20
0.8774786859470552
 10
20.466107184997586
 20
0.8589841486612283
 10
20.458523352631623
 20
0.8402135048737236
 10
20.451599226152396
 20
0.8211896237226004
 10
20.44534324154144
 20
0.8019356828766367
 10
20.43976302075234
 20
0.7824751402969117
 10
20.434865362424564
 20
0.7628317056568914
 10
20.430656233600356
 20
0.7430293114558456
 10
20.42714076245482
 20
0.7230920838607835
 10
20.42432323204803
 20
0.7030443133124351
 10
20.422207075106787
 20
0.6829104249310913
 10
20.420794869842346
 20
0.6627149487583569
 10
20.420088336809293
 20
0.6424824898710739
 10
20.420088336809293
 20
0.622237698403825
 10
20.420794869842346
 20
0.6020052395165423
 10
20.422207075106787
 20
0.581809763343808
 10
20.42432323204803
 20
0.5616758749624641
 10
20.42714076245482
 20
0.5416281044141157
 10
20.430656233600356
 20
0.5216908768190536
 10
20.434865362424564
 20
0.5018884826180079
 10
20.43976302075234
 20
0.4822450479779875
  0
LWPOLYLINE
  5
41
330
17
100
AcDbEntity
  8
ISLAND
100
AcDbPolyline
 90
69
 70
1
 10
25.830669217318395
 20
-1.2017038605370947
 10
25.850471611519442
 20
-1.197494731712886
 10
25.870115046159462
 20
-1.1925970733851092
 10
27.960947916990637
 20
-0.6323600941374495
 10
26.09935009731964
 20
-0.1335464617250663
 10
25.200624584021195
 20
-0.37435923723062986
 10
25.19434148351874
 20
-0.3872415023278438
 10
25.186107184997585
 20
-0.4057360396136708
 10
25.178523352631622
 20
-0.4245066834011754
 10
25.171599226152395
 20
-0.4435305645522987
 10
25.16534324154144
 20
-0.4627845053982623
 10
25.15976302075234
 20
-0.4822450479779874
 10
25.154865362424562
 20
-0.5018884826180077
 10
25.150656233600355
 20
-0.5216908768190535
 10
25.147140762454818
 20
-0.5416281044141156
 10
25.14432323204803
 20
-0.561675874962464
 10
25.142207075106786
 20
-0.5818097633438077
 10
25.140794869842345
 20
-0.6020052395165422
 10
25.140088336809292
 20
-0.6222376984038251
 10
25.140088336809292
 20
-0.642482489871074
 10
25.140794869842345
 20
-0.6627149487583568
 10
25.142207075106786
 20
-0.6829104249310911
 10
25.14432323204803
 20
-0.703044313312435
 10
25.147140762454818
 20
-0.7230920838607834
 10
25.150656233600355
 20
-0.7430293114558455
 10
25.154865362424562
 20
-0.7628317056568912
 10
25.15976302075234
 20
-0.7824751402969116
 10
25.16534324154144
 20
-0.8019356828766369
 10
25.171599226152395
 20
-0.8211896237226004
 10
25.178523352631622
 20
-0.8402135048737238
 10
25.186107184997585
 20
-0.8589841486612282
 10
25.19434148351874
 20
-0.8774786859470551
 10
25.203216215970745
 20
-0.8956745839863867
 10
25.21272056985915
 20
-0.9135496738803249
 10
25.222842965592775
 20
-0.9310821775852809
 10
25.23357107059165
 20
-0.9482507344461653
 10
25.244891814312382
 20
-0.9650344272210563
 10
25.25679140417257
 20
-0.9814128075656376
 10
25.269255342354956
 20
-0.9973659209463553
 10
25.28226844347079
 20
-1.0128743309519437
 10
25.29581485306088
 20
-1.0279191429736985
 10
25.3098780669118
 20
-1.042482027225647
 10
25.32444095116375
 20
-1.0565452410765683
 10
25.339485763185504
 20
-1.0700916506666573
 10
25.35499417319109
 20
-1.0831047517824923
 10
25.370947286571813
 20
-1.0955686899648793
 10
25.387325666916393
 20
-1.1074682798250646
 10
25.404109359691283
 20
-1.1187890235457956
 10
25.421277916552167
 20
-1.1295171285446746
 10
25.438810420257123
 20
-1.1396395242782993
 10
25.45668551015106
 20
-1.149143878166703
 10
25.47488140819039
 20
-1.1580186106187065
 10
25.49337594547622
 20
-1.1662529091398648
 10
25.512146589263725
 20
-1.1738367415058264
 10
25.53117047041485
 20
-1.1807608679850534
 10
25.55042441126081
 20
-1.18701685259601
 10
25.569884953840536
 20
-1.1925970733851092
 10
25.589528388480556
 20
-1.197494731712886
 10
25.609330782681603
 20
-1.2017038605370947
 10
25.629268010276665
 20
-1.2052193316826294
 10
25.649315780825013
 20
-1.2080368620894162
 10
25.669449669206358
 20
-1.210153019030662
 10
25.689645145379092
 20
-1.2115652242951023
 10
25.709877604266374
 20
-1.2122717573281565
 10
25.730122395733623
 20
-1.2122717573281565
 10
25.750354854620905
 20
-1.2115652242951023
 10
25.77055033079364
 20
-1.210153019030662
 10
25.790684219174985
 20
-1.2080368620894162
 10
25.810731989723333
 20
-1.2052193316826294
  0
LWPOLYLINE
  5
42
330
17
100
AcDbEntity
  8
ISLAND
100
AcDbPolyline
 90
69
 70
1
 10
30.530731989723336
 20
-1.2052193316826294
 10
30.550669217318397
 20
-1.2017038605370947
 10
30.570471611519444
 20
-1.197494731712886
 10
30.590115046159465
 20
-1.1925970733851092
 10
32.68094791699064
 20
-0.6323600941374495
 10
30.81935009731964
 20
-0.13354646172506615
 10
29.920624584021198
 20
-0.37435923723062964
 10
29.914341483518744
 20
-0.3872415023278438
 10
29.906107184997587
 20
-0.4057360396136708
 10
29.898523352631624
 20
-0.4245066834011754
 10
29.891599226152398
 20
-0.4435305645522987
 10
29.88534324154144
 20
-0.4627845053982623
 10
29.879763020752343
 20
-0.4822450479779874
 10
29.874865362424565
 20
-0.5018884826180077
 10
29.870656233600357
 20
-0.5216908768190535
 10
29.86714076245482
 20
-0.5416281044141156
 10
29.864323232048033
 20
-0.561675874962464
 10
29.862207075106788
 20
-0.5818097633438077
 10
29.860794869842348
 20
-0.6020052395165422
 10
29.860088336809294
 20
-0.6222376984038251
 10
29.860088336809294
 20
-0.642482489871074
 10
29.860794869842348
 20
-0.6627149487583568
 10
29.862207075106788
 20
-0.6829104249310911
 10
29.864323232048033
 20
-0.703044313312435
 10
29.86714076245482
 20
-0.7230920838607834
 10
29.870656233600357
 20
-0.7430293114558455
 10
29.874865362424565
 20
-0.7628317056568912
 10
29.879763020752343
 20
-0.7824751402969116
 10
29.88534324154144
 20
-0.8019356828766369
 10
29.891599226152398
 20
-0.8211896237226004
 10
29.898523352631624
 20
-0.8402135048737238
 10
29.906107184997587
 20
-0.8589841486612282
 10
29.914341483518744
 20
-0.8774786859470551
 10
29.923216215970747
 20
-0.8956745839863867
 10
29.932720569859153
 20
-0.9135496738803249
 10
29.942842965592774
 20
-0.9310821775852809
 10
29.953571070591657
 20
-0.9482507344461653
 10
29.964891814312384
 20
-0.9650344272210563
 10
29.976791404172573
 20
-0.9814128075656376
 10
29.98925534235496
 20
-0.9973659209463553
 10
30.002268443470793
 20
-1.0128743309519437
 10
30.01581485306088
 20
-1.0279191429736985
 10
30.029878066911802
 20
-1.042482027225647
 10
30.044440951163754
 20
-1.0565452410765683
 10
30.059485763185506
 20
-1.0700916506666573
 10
30.074994173191094
 20
-1.0831047517824923
 10
30.090947286571815
 20
-1.0955686899648793
 10
30.107325666916395
 20
-1.1074682798250646
 10
30.124109359691285
 20
-1.1187890235457956
 10
30.14127791655217
 20
-1.1295171285446746
 10
30.158810420257126
 20
-1.1396395242782993
 10
30.176685510151064
 20
-1.149143878166703
 10
30.194881408190398
 20
-1.1580186106187065
 10
30.213375945476223
 20
-1.1662529091398648
 10
30.232146589263728
 20
-1.1738367415058264
 10
30.251170470414852
 20
-1.1807608679850534
 10
30.270424411260812
 20
-1.18701685259601
 10
30.289884953840538
 20
-1.1925970733851092
 10
30.309528388480558
 20
-1.197494731712886
 10
30.329330782681605
 20
-1.2017038605370947
 10
30.349268010276667
 20
-1.2052193316826294
 10
30.369315780825016
 20
-1.2080368620894162
 10
30.38944966920636
 20
-1.210153019030662
 10
30.409645145379095
 20
-1.2115652242951023
 10
30.429877604266377
 20
-1.2122717573281565
 10
30.450122395733626
 20
-1.2122717573281565
 10
30.470354854620908
 20
-1.2115652242951023
 10
30.490550330793642
 20
-1.210153019030662
 10
30.510684219174987
 20
-1.2080368620894162
  0
LWPOLYLINE
  5
43
330
17
100
AcDbEntity
  8
ISLAND
100
AcDbPolyline
 90
69
 70
1
 10
35.25073198972333
 20
-1.2052193316826294
 10
35.27066921731839
 20
-1.2017038605370947
 10
35.290471611519436
 20
-1.197494731712886
 10
35.31011504615946
 20
-1.1925970733851092
 10
37.40094791699063
 20
-0.6323600941374495
 10
35.539350097319634
 20
-0.13354646172506573
 10
34.6406245840212
 20
-0.37435923723062775
 10
34.63434148351874
 20
-0.3872415023278438
 10
34.62610718499758
 20
-0.4057360396136708
 10
34.61852335263162
 20
-0.4245066834011754
 10
34.61159922615239
 20
-0.4435305645522987
 10
34.60534324154143
 20
-0.4627845053982623
 10
34.599763020752334
 20
-0.4822450479779874
 10
34.594865362424564
 20
-0.5018884826180077
 10
34.59065623360035
 20
-0.5216908768190535
 10
34.587140762454816
 20
-0.5416281044141156
 10
34.58432323204803
 20
-0.561675874962464
 10
34.58220707510679
 20
-0.5818097633438077
 10
34.58079486984234
 20
-0.6020052395165422
 10
34.58008833680929
 20
-0.6222376984038251
 10
34.58008833680929
 20
-0.642482489871074
 10
34.58079486984234
 20
-0.6627149487583568
 10
34.58220707510679
 20
-0.6829104249310911
 10
34.58432323204803
 20
-0.703044313312435
 10
34.587140762454816
 20
-0.7230920838607834
 10
34.59065623360035
 20
-0.7430293114558455
 10
34.594865362424564
 20
-0.7628317056568912
 10
34.599763020752334
 20
-0.7824751402969116
 10
34.60534324154143
 20
-0.8019356828766369
 10
34.61159922615239
 20
-0.8211896237226004
 10
34.61852335263162
 20
-0.8402135048737238
 10
34.62610718499758
 20
-0.8589841486612282
 10
34.63434148351874
 20
-0.8774786859470551
 10
34.643216215970746
 20
-0.8956745839863867
 10
34.65272056985915
 20
-0.9135496738803249
 10
34.66284296559277
 20
-0.9310821775852809
 10
34.67357107059165
 20
-0.9482507344461653
 10
34.68489181431238
 20
-0.9650344272210563
 10
34.696791404172565
 20
-0.9814128075656376
 10
34.70925534235495
 20
-0.9973659209463553
 10
34.72226844347079
 20
-1.0128743309519437
 10
34.73581485306088
 20
-1.0279191429736985
 10
34.7498780669118
 20
-1.042482027225647
 10
34.76444095116375
 20
-1.0565452410765683
 10
34.779485763185505
 20
-1.0700916506666573
 10
34.79499417319109
 20
-1.0831047517824923
 10
34.81094728657181
 20
-1.0955686899648793
 10
34.82732566691639
 20
-1.1074682798250646
 10
34.84410935969128
 20
-1.1187890235457956
 10
34.86127791655216
 20
-1.1295171285446746
 10
34.878810420257125
 20
-1.1396395242782993
 10
34.89668551015106
 20
-1.149143878166703
 10
34.91488140819039
 20
-1.1580186106187065
 10
34.933375945476214
 20
-1.1662529091398648
 10
34.95214658926372
 20
-1.1738367415058264
 10
34.97117047041485
 20
-1.1807608679850534
 10
34.99042441126081
 20
-1.18701685259601
 10
35.00988495384053
 20
-1.1925970733851092
 10
35.02952838848056
 20
-1.197494731712886
 10
35.0493307826816
 20
-1.2017038605370947
 10
35.069268010276666
 20
-1.2052193316826294
 10
35.08931578082501
 20
-1.2080368620894162
 10
35.109449669206356
 20
-1.210153019030662
 10
35.12964514537909
 20
-1.2115652242951023
 10
35.14987760426637
 20
-1.2122717573281565
 10
35.17012239573362
 20
-1.2122717573281565
 10
35.19035485462091
 20
-1.2115652242951023
 10
35.21055033079364
 20
-1.210153019030662
 10
35.23068421917498
 20
-1.2080368620894162
  0
LWPOLYLINE
  5
44
330
17
100
AcDbEntity
  8
ISLAND
100
AcDbPolyline
 90
69
 70
1
 10
39.970731989723326
 20
-1.2052193316826294
 10
39.99066921731839
 20
-1.2017038605370947
 10
40.010471611519435
 20
-1.197494731712886
 10
40.03011504615946
 20
-1.1925970733851092
 10
42.12094791699063
 20
-0.6323600941374495
 10
40.25935009731963
 20
-0.13354646172506573
 10
39.360624584021195
 20
-0.37435923723062775
 10
39.35434148351874
 20
-0.3872415023278438
 10
39.34610718499758
 20
-0.4057360396136708
 10
39.33852335263162
 20
-0.4245066834011754
 10
39.33159922615239
 20
-0.4435305645522987
 10
39.32534324154143
 20
-0.4627845053982623
 10
39.31976302075233
 20
-0.4822450479779874
 10
39.31486536242456
 20
-0.5018884826180077
 10
39.31065623360035
 20
-0.5216908768190535
 10
39.307140762454814
 20
-0.5416281044141156
 10
39.30432323204803
 20
-0.561675874962464
 10
39.302207075106786
 20
-0.5818097633438077
 10
39.30079486984234
 20
-0.6020052395165422
 10
39.30008833680929
 20
-0.6222376984038251
 10
39.30008833680929
 20
-0.642482489871074
 10
39.30079486984234
 20
-0.6627149487583568
 10
39.302207075106786
 20
-0.6829104249310911
 10
39.30432323204803
 20
-0.703044313312435
 10
39.307140762454814
 20
-0.7230920838607834
 10
39.31065623360035
 20
-0.7430293114558455
 10
39.31486536242456
 20
-0.7628317056568912
 10
39.31976302075233
 20
-0.7824751402969116
 10
39.32534324154143
 20
-0.8019356828766369
 10
39.33159922615239
 20
-0.8211896237226004
 10
39.33852335263162
 20
-0.8402135048737238
 10
39.34610718499758
 20
-0.8589841486612282
 10
39.35434148351874
 20
-0.8774786859470551
 10
39.363216215970745
 20
-0.8956745839863867
 10
39.37272056985915
 20
-0.9135496738803249
 10
39.38284296559277
 20
-0.9310821775852809
 10
39.39357107059165
 20
-0.9482507344461653
 10
39.40489181431238
 20
-0.9650344272210563
 10
39.416791404172564
 20
-0.9814128075656376
 10
39.42925534235495
 20
-0.9973659209463553
 10
39.44226844347079
 20
-1.0128743309519437
 10
39.45581485306088
 20
-1.0279191429736985
 10
39.4698780669118
 20
-1.042482027225647
 10
39.48444095116375
 20
-1.0565452410765683
 10
39.499485763185504
 20
-1.0700916506666573
 10
39.51499417319109
 20
-1.0831047517824923
 10
39.53094728657181
 20
-1.0955686899648793
 10
39.547325666916386
 20
-1.1074682798250646
 10
39.56410935969128
 20
-1.1187890235457956
 10
39.58127791655216
 20
-1.1295171285446746
 10
39.598810420257124
 20
-1.1396395242782993
 10
39.61668551015106
 20
-1.149143878166703
 10
39.63488140819039
 20
-1.1580186106187065
 10
39.65337594547621
 20
-1.1662529091398648
 10
39.67214658926372
 20
-1.1738367415058264
 10
39.691170470414846
 20
-1.1807608679850534
 10
39.71042441126081
 20
-1.18701685259601
 10
39.72988495384053
 20
-1.1925970733851092
 10
39.749528388480556
 20
-1.197494731712886
 10
39.7693307826816
 20
-1.2017038605370947
 10
39.789268010276665
 20
-1.2052193316826294
 10
39.80931578082501
 20
-1.2080368620894162
 10
39.829449669206355
 20
-1.210153019030662
 10
39.849645145379085
 20
-1.2115652242951023
 10
39.86987760426637
 20
-1.2122717573281565
 10
39.89012239573362
 20
-1.2122717573281565
 10
39.910354854620905
 20
-1.2115652242951023
 10
39.930550330793636
 20
-1.210153019030662
 10
39.95068421917498
 20
-1.2080368620894162
  0
LWPOLYLINE
  5
45
330
17
100
AcDbEntity
  8
ISLAND
100
AcDbPolyline
 90
69
 70
1
 10
44.690731989723325
 20
-1.2052193316826294
 10
44.71066921731839
 20
-1.2017038605370947
 10
44.730471611519434
 20
-1.197494731712886
 10
44.75011504615946
 20
-1.1925970733851092
 10
46.84094791699063
 20
-0.6323600941374495
 10
44.97935009731963
 20
-0.13354646172506573
 10
44.080624584021194
 20
-0.37435923723062775
 10
44.07434148351874
 20
-0.3872415023278438
 10
44.06610718499758
 20
-0.4057360396136708
 10
44.05852335263162
 20
-0.4245066834011754
 10
44.05159922615239
 20
-0.4435305645522987
 10
44.04534324154143
 20
-0.4627845053982623
 10
44.03976302075233
 20
-0.4822450479779874
 10
44.03486536242456
 20
-0.5018884826180077
 10
44.03065623360035
 20
-0.5216908768190535
 10
44.02714076245481
 20
-0.5416281044141156
 10
44.024323232048026
 20
-0.561675874962464
 10
44.022207075106785
 20
-0.5818097633438077
 10
44.02079486984234
 20
-0.6020052395165422
 10
44.02008833680929
 20
-0.6222376984038251
 10
44.02008833680929
 20
-0.642482489871074
 10
44.02079486984234
 20
-0.6627149487583568
 10
44.022207075106785
 20
-0.6829104249310911
 10
44.024323232048026
 20
-0.703044313312435
 10
44.02714076245481
 20
-0.7230920838607834
 10
44.03065623360035
 20
-0.7430293114558455
 10
44.03486536242456
 20
-0.7628317056568912
 10
44.03976302075233
 20
-0.7824751402969116
 10
44.04534324154143
 20
-0.8019356828766369
 10
44.05159922615239
 20
-0.8211896237226004
 10
44.05852335263162
 20
-0.8402135048737238
 10
44.06610718499758
 20
-0.8589841486612282
 10
44.07434148351874
 20
-0.8774786859470551
 10
44.083216215970744
 20
-0.8956745839863867
 10
44.09272056985915
 20
-0.9135496738803249
 10
44.10284296559277
 20
-0.9310821775852809
 10
44.11357107059165
 20
-0.9482507344461653
 10
44.12489181431238
 20
-0.9650344272210563
 10
44.13679140417256
 20
-0.9814128075656376
 10
44.14925534235495
 20
-0.9973659209463553
 10
44.162268443470786
 20
-1.0128743309519437
 10
44.17581485306088
 20
-1.0279191429736985
 10
44.189878066911795
 20
-1.042482027225647
 10
44.20444095116375
 20
-1.0565452410765683
 10
44.2194857631855
 20
-1.0700916506666573
 10
44.23499417319109
 20
-1.0831047517824923
 10
44.25094728657181
 20
-1.0955686899648793
 10
44.267325666916385
 20
-1.1074682798250646
 10
44.28410935969128
 20
-1.1187890235457956
 10
44.30127791655216
 20
-1.1295171285446746
 10
44.31881042025712
 20
-1.1396395242782993
 10
44.33668551015106
 20
-1.149143878166703
 10
44.35488140819039
 20
-1.1580186106187065
 10
44.37337594547621
 20
-1.1662529091398648
 10
44.39214658926372
 20
-1.1738367415058264
 10
44.411170470414845
 20
-1.1807608679850534
 10
44.43042441126081
 20
-1.18701685259601
 10
44.44988495384053
 20
-1.1925970733851092
 10
44.469528388480555
 20
-1.197494731712886
 10
44.4893307826816
 20
-1.2017038605370947
 10
44.509268010276664
 20
-1.2052193316826294
 10
44.52931578082501
 20
-1.2080368620894162
 10
44.54944966920635
 20
-1.210153019030662
 10
44.569645145379084
 20
-1.2115652242951023
 10
44.58987760426637
 20
-1.2122717573281565
 10
44.61012239573362
 20
-1.2122717573281565
 10
44.630354854620904
 20
-1.2115652242951023
 10
44.650550330793635
 20
-1.210153019030662
 10
44.67068421917498
 20
-1.2080368620894162
  0
LWPOLYLINE
  5
46
330
17
100
AcDbEntity
  8
ISLAND
100
AcDbPolyline
 90
4
 70
1
 10
26.76005890853752
 20
0.0
 10
28.540503412764078
 20
-0.47706866707593715
 10
30.320947916990637
 20
0.0
 10
28.540503412764078
 20
0.47706866707593715
  0
LWPOLYLINE
  5
47
330
17
100
AcDbEntity
  8
ISLAND
100
AcDbPolyline
 90
4
 70
1
 10
31.480058908537522
 20
0.0
 10
33.26050341276408
 20
-0.47706866707593665
 10
35.04094791699064
 20
0.0
 10
33.26050341276408
 20
0.47706866707593665
  0
LWPOLYLINE
  5
48
330
17
100
AcDbEntity
  8
ISLAND
100
AcDbPolyline
 90
4
 70
1
 10
36.200058908537514
 20
0.0
 10
37.98050341276408
 20
-0.47706866707593576
 10
39.76094791699064
 20
0.0
 10
37.98050341276408
 20
0.47706866707593576
  0
LWPOLYLINE
  5
49
330
17
100
AcDbEntity
  8
ISLAND
100
AcDbPolyline
 90
4
 70
1
 10
40.92005890853751
 20
0.0
 10
42.70050341276408
 20
-0.4770686670759376
 10
44.48094791699064
 20
0.0
 10
42.70050341276408
 20
0.4770686670759376
  0
LWPOLYLINE
  5
4A
330
17
100
AcDbEntity
  8
ISLAND
100
AcDbPolyline
 90
4
 70
1
 10
45.64005890853751
 20
0.0
 10
47.42050341276408
 20
-0.47706866707593576
 10
49.200947916990636
 20
0.0
 10
47.42050341276408
 20
0.47706866707593576
  0
LWPOLYLINE
  5
4B
330
17
100
AcDbEntity
  8
ISLAND
100
AcDbPolyline
 90
69
 70
1
 10
34.60534324154143
 20
0.4627845053982622
 10
34.61159922615239
 20
0.44353056455229867
 10
34.61852335263162
 20
0.4245066834011753
 10
34.62610718499758
 20
0.4057360396136709
 10
34.63434148351874
 20
0.38724150232784393
 10
34.6406245840212
 20
0.37435923723062775
 10
35.539350097319634
 20
0.13354646172506573
 10
37.40094791699063
 20
0.6323600941374495
 10
35.31011504615946
 20
1.1925970733851092
 10
35.290471611519436
 20
1.197494731712886
 10
35.27066921731839
 20
1.2017038605370947
 10
35.25073198972333
 20
1.2052193316826294
 10
35.23068421917498
 20
1.2080368620894162
 10
35.21055033079364
 20
1.210153019030662
 10
35.19035485462091
 20
1.2115652242951023
 10
35.17012239573362
 20
1.2122717573281565
 10
35.14987760426637
 20
1.2122717573281565
 10
35.12964514537909
 20
1.2115652242951023
 10
35.109449669206356
 20
1.210153019030662
 10
35.08931578082501
 20
1.2080368620894162
 10
35.069268010276666
 20
1.2052193316826294
 10
35.0493307826816
 20
1.2017038605370947
 10
35.02952838848056
 20
1.197494731712886
 10
35.00988495384053
 20
1.1925970733851092
 10
34.99042441126081
 20
1.18701685259601
 10
34.97117047041485
 20
1.1807608679850534
 10
34.95214658926372
 20
1.1738367415058266
 10
34.933375945476214
 20
1.1662529091398648
 10
34.91488140819039
 20
1.1580186106187065
 10
34.89668551015106
 20
1.149143878166703
 10
34.87881042025712
 20
1.139639524278299
 10
34.86127791655217
 20
1.1295171285446748
 10
34.84410935969128
 20
1.1187890235457956
 10
34.82732566691639
 20
1.1074682798250648
 10
34.81094728657181
 20
1.0955686899648793
 10
34.79499417319109
 20
1.0831047517824928
 10
34.779485763185505
 20
1.0700916506666573
 10
34.76444095116375
 20
1.0565452410765683
 10
34.7498780669118
 20
1.0424820272256472
 10
34.73581485306088
 20
1.0279191429736987
 10
34.72226844347079
 20
1.0128743309519437
 10
34.70925534235495
 20
0.9973659209463552
 10
34.696791404172565
 20
0.9814128075656374
 10
34.68489181431238
 20
0.9650344272210561
 10
34.67357107059165
 20
0.9482507344461654
 10
34.66284296559277
 20
0.9310821775852811
 10
34.65272056985915
 20
0.913549673880325
 10
34.643216215970746
 20
0.8956745839863867
 10
34.63434148351874
 20
0.8774786859470552
 10
34.62610718499758
 20
0.8589841486612283
 10
34.61852335263162
 20
0.8402135048737236
 10
34.61159922615239
 20
0.8211896237226004
 10
34.60534324154143
 20
0.8019356828766367
 10
34.599763020752334
 20
0.7824751402969117
 10
34.594865362424564
 20
0.7628317056568914
 10
34.59065623360035
 20
0.7430293114558456
 10
34.587140762454816
 20
0.7230920838607835
 10
34.58432323204803
 20
0.7030443133124351
 10
34.58220707510679
 20
0.6829104249310913
 10
34.58079486984234
 20
0.6627149487583569
 10
34.58008833680929
 20
0.6424824898710739
 10
34.58008833680929
 20
0.622237698403825
 10
34.58079486984234
 20
0.6020052395165423
 10
34.58220707510679
 20
0.581809763343808
 10
34.58432323204803
 20
0.5616758749624641
 10
34.587140762454816
 20
0.5416281044141157
 10
34.59065623360035
 20
0.5216908768190536
 10
34.594865362424564
 20
0.5018884826180079
 10
34.599763020752334
 20
0.4822450479779875
  0
LWPOLYLINE
  5
4C
330
17
100
AcDbEntity
  8
ISLAND
100
AcDbPolyline
 90
69
 70
1
 10
39.32534324154143
 20
0.4627845053982622
 10
39.33159922615239
 20
0.44353056455229867
 10
39.33852335263162
 20
0.4245066834011753
 10
39.34610718499758
 20
0.4057360396136709
 10
39.35434148351874
 20
0.38724150232784393
 10
39.360624584021195
 20
0.37435923723062775
 10
40.25935009731963
 20
0.13354646172506573
 10
42.12094791699063
 20
0.6323600941374495
 10
40.03011504615946
 20
1.1925970733851092
 10
40.010471611519435
 20
1.197494731712886
 10
39.99066921731839
 20
1.2017038605370947
 10
39.970731989723326
 20
1.2052193316826294
 10
39.95068421917498
 20
1.2080368620894162
 10
39.930550330793636
 20
1.210153019030662
 10
39.910354854620905
 20
1.2115652242951023
 10
39.89012239573362
 20
1.2122717573281565
 10
39.86987760426637
 20
1.2122717573281565
 10
39.849645145379085
 20
1.2115652242951023
 10
39.829449669206355
 20
1.210153019030662
 10
39.80931578082501
 20
1.2080368620894162
 10
39.789268010276665
 20
1.2052193316826294
 10
39.7693307826816
 20
1.2017038605370947
 10
39.749528388480556
 20
1.197494731712886
 10
39.72988495384053
 20
1.1925970733851092
 10
39.71042441126081
 20
1.18701685259601
 10
39.691170470414846
 20
1.1807608679850534
 10
39.67214658926372
 20
1.1738367415058266
 10
39.65337594547621
 20
1.1662529091398648
 10
39.63488140819039
 20
1.1580186106187065
 10
39.61668551015106
 20
1.149143878166703
 10
39.59881042025712
 20
1.139639524278299
 10
39.58127791655217
 20
1.1295171285446748
 10
39.56410935969128
 20
1.1187890235457956
 10
39.547325666916386
 20
1.1074682798250648
 10
39.53094728657181
 20
1.0955686899648793
 10
39.51499417319109
 20
1.0831047517824928
 10
39.499485763185504
 20
1.0700916506666573
 10
39.48444095116375
 20
1.0565452410765683
 10
39.4698780669118
 20
1.0424820272256472
 10
39.45581485306088
 20
1.0279191429736987
 10
39.44226844347079
 20
1.0128743309519437
 10
39.42925534235495
 20
0.9973659209463552
 10
39.416791404172564
 20
0.9814128075656374
 10
39.40489181431238
 20
0.9650344272210561
 10
39.39357107059165
 20
0.9482507344461654
 10
39.38284296559277
 20
0.9310821775852811
 10
39.37272056985915
 20
0.913549673880325
 10
39.363216215970745
 20
0.8956745839863867
 10
39.35434148351874
 20
0.8774786859470552
 10
39.34610718499758
 20
0.8589841486612283
 10
39.33852335263162
 20
0.8402135048737236
 10
39.33159922615239
 20
0.8211896237226004
 10
39.32534324154143
 20
0.8019356828766367
 10
39.31976302075233
 20
0.7824751402969117
 10
39.31486536242456
 20
0.7628317056568914
 10
39.31065623360035
 20
0.7430293114558456
 10
39.307140762454814
 20
0.7230920838607835
 10
39.30432323204803
 20
0.7030443133124351
 10
39.302207075106786
 20
0.6829104249310913
 10
39.30079486984234
 20
0.6627149487583569
 10
39.30008833680929
 20
0.6424824898710739
 10
39.30008833680929
 20
0.622237698403825
 10
39.30079486984234
 20
0.6020052395165423
 10
39.302207075106786
 20
0.581809763343808
 10
39.30432323204803
 20
0.5616758749624641
 10
39.307140762454814
 20
0.5416281044141157
 10
39.31065623360035
 20
0.5216908768190536
 10
39.31486536242456
 20
0.5018884826180079
 10
39.31976302075233
 20
0.4822450479779875
  0
LWPOLYLINE
  5
4D
330
17
100
AcDbEntity
  8
ISLAND
100
AcDbPolyline
 90
69
 70
1
 10
44.04534324154143
 20
0.4627845053982622
 10
44.05159922615239
 20
0.44353056455229867
 10
44.05852335263162
 20
0.4245066834011753
 10
44.06610718499758
 20
0.4057360396136709
 10
44.07434148351874
 20
0.38724150232784393
 10
44.080624584021194
 20
0.37435923723062775
 10
44.97935009731963
 20
0.13354646172506573
 10
46.84094791699063
 20
0.6323600941374495
 10
44.75011504615946
 20
1.1925970733851092
 10
44.730471611519434
 20
1.197494731712886
 10
44.71066921731839
 20
1.2017038605370947
 10
44.690731989723325
 20
1.2052193316826294
 10
44.67068421917498
 20
1.2080368620894162
 10
44.650550330793635
 20
1.210153019030662
 10
44.630354854620904
 20
1.2115652242951023
 10
44.61012239573362
 20
1.2122717573281565
 10
44.58987760426637
 20
1.2122717573281565
 10
44.569645145379084
 20
1.2115652242951023
 10
44.54944966920635
 20
1.210153019030662
 10
44.52931578082501
 20
1.2080368620894162
 10
44.509268010276664
 20
1.2052193316826294
 10
44.4893307826816
 20
1.2017038605370947
 10
44.469528388480555
 20
1.197494731712886
 10
44.44988495384053
 20
1.1925970733851092
 10
44.43042441126081
 20
1.18701685259601
 10
44.411170470414845
 20
1.1807608679850534
 10
44.39214658926372
 20
1.1738367415058266
 10
44.37337594547621
 20
1.1662529091398648
 10
44.35488140819039
 20
1.1580186106187065
 10
44.33668551015106
 20
1.149143878166703
 10
44.318810420257115
 20
1.139639524278299
 10
44.301277916552166
 20
1.1295171285446748
 10
44.28410935969128
 20
1.1187890235457956
 10
44.267325666916385
 20
1.1074682798250648
 10
44.25094728657181
 20
1.0955686899648793
 10
44.23499417319109
 20
1.0831047517824928
 10
44.2194857631855
 20
1.0700916506666573
 10
44.20444095116375
 20
1.0565452410765683
 10
44.189878066911795
 20
1.0424820272256472
 10
44.17581485306088
 20
1.0279191429736987
 10
44.162268443470786
 20
1.0128743309519437
 10
44.14925534235495
 20
0.9973659209463552
 10
44.13679140417256
 20
0.9814128075656374
 10
44.12489181431238
 20
0.9650344272210561
 10
44.11357107059165
 20
0.9482507344461654
 10
44.10284296559277
 20
0.9310821775852811
 10
44.09272056985915
 20
0.913549673880325
 10
44.083216215970744
 20
0.8956745839863867
 10
44.07434148351874
 20
0.8774786859470552
 10
44.06610718499758
 20
0.8589841486612283
 10
44.05852335263162
 20
0.8402135048737236
 10
44.05159922615239
 20
0.8211896237226004
 10
44.04534324154143
 20
0.8019356828766367
 10
44.03976302075233
 20
0.7824751402969117
 10
44.03486536242456
 20
0.7628317056568914
 10
44.03065623360035
 20
0.7430293114558456
 10
44.02714076245481
 20
0.7230920838607835
 10
44.024323232048026
 20
0.7030443133124351
 10
44.022207075106785
 20
0.6829104249310913
 10
44.02079486984234
 20
0.6627149487583569
 10
44.02008833680929
 20
0.6424824898710739
 10
44.02008833680929
 20
0.622237698403825
 10
44.02079486984234
 20
0.6020052395165423
 10
44.022207075106785
 20
0.581809763343808
 10
44.024323232048026
 20
0.5616758749624641
 10
44.02714076245481
 20
0.5416281044141157
 10
44.03065623360035
 20
0.5216908768190536
 10
44.03486536242456
 20
0.5018884826180079
 10
44.03976302075233
 20
0.4822450479779875
  0
LWPOLYLINE
  5
4E
330
17
100
AcDbEntity
  8
ISLAND
100
AcDbPolyline
 90
69
 70
1
 10
29.88534324154144
 20
0.4627845053982622
 10
29.891599226152398
 20
0.44353056455229867
 10
29.898523352631624
 20
0.4245066834011753
 10
29.906107184997587
 20
0.4057360396136709
 10
29.914341483518744
 20
0.38724150232784393
 10
29.920624584021198
 20
0.37435923723062964
 10
30.81935009731964
 20
0.13354646172506615
 10
32.68094791699064
 20
0.6323600941374495
 10
30.590115046159465
 20
1.1925970733851092
 10
30.570471611519444
 20
1.197494731712886
 10
30.550669217318397
 20
1.2017038605370947
 10
30.530731989723336
 20
1.2052193316826294
 10
30.510684219174987
 20
1.2080368620894162
 10
30.490550330793642
 20
1.210153019030662
 10
30.470354854620908
 20
1.2115652242951023
 10
30.450122395733626
 20
1.2122717573281565
 10
30.429877604266377
 20
1.2122717573281565
 10
30.409645145379095
 20
1.2115652242951023
 10
30.38944966920636
 20
1.210153019030662
 10
30.369315780825016
 20
1.2080368620894162
 10
30.349268010276667
 20
1.2052193316826294
 10
30.329330782681605
 20
1.2017038605370947
 10
30.309528388480558
 20
1.197494731712886
 10
30.289884953840538
 20
1.1925970733851092
 10
30.270424411260812
 20
1.18701685259601
 10
30.251170470414852
 20
1.1807608679850534
 10
30.232146589263728
 20
1.1738367415058266
 10
30.213375945476223
 20
1.1662529091398648
 10
30.194881408190394
 20
1.1580186106187065
 10
30.176685510151064
 20
1.149143878166703
 10
30.158810420257126
 20
1.139639524278299
 10
30.14127791655217
 20
1.1295171285446748
 10
30.124109359691285
 20
1.1187890235457956
 10
30.107325666916395
 20
1.1074682798250648
 10
30.09094728657181
 20
1.0955686899648793
 10
30.074994173191097
 20
1.0831047517824928
 10
30.059485763185506
 20
1.0700916506666573
 10
30.044440951163754
 20
1.0565452410765683
 10
30.029878066911802
 20
1.0424820272256472
 10
30.01581485306088
 20
1.0279191429736987
 10
30.002268443470793
 20
1.0128743309519437
 10
29.98925534235496
 20
0.9973659209463552
 10
29.976791404172573
 20
0.9814128075656374
 10
29.964891814312384
 20
0.9650344272210561
 10
29.953571070591657
 20
0.9482507344461654
 10
29.942842965592778
 20
0.9310821775852811
 10
29.932720569859153
 20
0.913549673880325
 10
29.923216215970747
 20
0.8956745839863867
 10
29.914341483518744
 20
0.8774786859470552
 10
29.906107184997587
 20
0.8589841486612283
 10
29.898523352631624
 20
0.8402135048737236
 10
29.891599226152398
 20
0.8211896237226004
 10
29.88534324154144
 20
0.8019356828766367
 10
29.879763020752343
 20
0.7824751402969117
 10
29.874865362424565
 20
0.7628317056568914
 10
29.870656233600357
 20
0.7430293114558456
 10
29.86714076245482
 20
0.7230920838607835
 10
29.864323232048033
 20
0.7030443133124351
 10
29.862207075106788
 20
0.6829104249310913
 10
29.860794869842348
 20
0.6627149487583569
 10
29.860088336809294
 20
0.6424824898710739
 10
29.860088336809294
 20
0.622237698403825
 10
29.860794869842348
 20
0.6020052395165423
 10
29.862207075106788
 20
0.581809763343808
 10
29.864323232048033
 20
0.5616758749624641
 10
29.86714076245482
 20
0.5416281044141157
 10
29.870656233600357
 20
0.5216908768190536
 10
29.874865362424565
 20
0.5018884826180079
 10
29.879763020752343
 20
0.4822450479779875
  0
LWPOLYLINE
  5
4F
330
17
100
AcDbEntity
  8
ISLAND
100
AcDbPolyline
 90
69
 70
1
 10
25.16534324154144
 20
0.4627845053982622
 10
25.171599226152395
 20
0.44353056455229867
 10
25.178523352631622
 20
0.4245066834011753
 10
25.186107184997585
 20
0.4057360396136709
 10
25.19434148351874
 20
0.38724150232784393
 10
25.200624584021195
 20
0.37435923723062986
 10
26.09935009731964
 20
0.1335464617250663
 10
27.960947916990637
 20
0.6323600941374495
 10
25.870115046159462
 20
1.1925970733851092
 10
25.850471611519442
 20
1.197494731712886
 10
25.830669217318395
 20
1.2017038605370947
 10
25.810731989723333
 20
1.2052193316826294
 10
25.790684219174985
 20
1.2080368620894162
 10
25.77055033079364
 20
1.210153019030662
 10
25.750354854620905
 20
1.2115652242951023
 10
25.730122395733623
 20
1.2122717573281565
 10
25.709877604266374
 20
1.2122717573281565
 10
25.689645145379092
 20
1.2115652242951023
 10
25.669449669206358
 20
1.210153019030662
 10
25.649315780825013
 20
1.2080368620894162
 10
25.629268010276665
 20
1.2052193316826294
 10
25.609330782681603
 20
1.2017038605370947
 10
25.589528388480556
 20
1.197494731712886
 10
25.569884953840536
 20
1.1925970733851092
 10
25.55042441126081
 20
1.18701685259601
 10
25.53117047041485
 20
1.1807608679850534
 10
25.512146589263725
 20
1.1738367415058266
 10
25.49337594547622
 20
1.1662529091398648
 10
25.47488140819039
 20
1.1580186106187065
 10
25.45668551015106
 20
1.149143878166703
 10
25.438810420257123
 20
1.139639524278299
 10
25.421277916552167
 20
1.1295171285446748
 10
25.404109359691283
 20
1.1187890235457956
 10
25.387325666916393
 20
1.1074682798250648
 10
25.37094728657181
 20
1.0955686899648793
 10
25.354994173191095
 20
1.0831047517824928
 10
25.339485763185504
 20
1.0700916506666573
 10
25.32444095116375
 20
1.0565452410765683
 10
25.3098780669118
 20
1.0424820272256472
 10
25.29581485306088
 20
1.0279191429736987
 10
25.28226844347079
 20
1.0128743309519437
 10
25.269255342354956
 20
0.9973659209463552
 10
25.25679140417257
 20
0.9814128075656374
 10
25.244891814312382
 20
0.9650344272210561
 10
25.233571070591655
 20
0.9482507344461654
 10
25.222842965592775
 20
0.9310821775852811
 10
25.21272056985915
 20
0.913549673880325
 10
25.203216215970745
 20
0.8956745839863867
 10
25.19434148351874
 20
0.8774786859470552
 10
25.186107184997585
 20
0.8589841486612283
 10
25.178523352631622
 20
0.8402135048737236
 10
25.171599226152395
 20
0.8211896237226004
 10
25.16534324154144
 20
0.8019356828766367
 10
25.15976302075234
 20
0.7824751402969117
 10
25.154865362424562
 20
0.7628317056568914
 10
25.150656233600355
 20
0.7430293114558456
 10
25.147140762454818
 20
0.7230920838607835
 10
25.14432323204803
 20
0.7030443133124351
 10
25.142207075106786
 20
0.6829104249310913
 10
25.140794869842345
 20
0.6627149487583569
 10
25.140088336809292
 20
0.6424824898710739
 10
25.140088336809292
 20
0.622237698403825
 10
25.140794869842345
 20
0.6020052395165423
 10
25.142207075106786
 20
0.581809763343808
 10
25.14432323204803
 20
0.5616758749624641
 10
25.147140762454818
 20
0.5416281044141157
 10
25.150656233600355
 20
0.5216908768190536
 10
25.154865362424562
 20
0.5018884826180079
 10
25.15976302075234
 20
0.4822450479779875
  0
TEXT
  5
50
330
17
100
AcDbEntity
  8
OUTER
100
AcDbText
 10
0.0
 20
2.2
 30
0.0
 40
0.5
  1
SYMTVM-Forward  Xia et al. 2025 ATE 258 124611 Fig.3/4  unit mm
 11
0.0
 21
2.2
 31
0.0
100
AcDbText
  0
ENDSEC
  0
SECTION
  2
OBJECTS
  0
DICTIONARY
  5
A
330
0
100
AcDbDictionary
281
1
  3
ACAD_COLOR
350
B
  3
ACAD_GROUP
350
C
  3
ACAD_LAYOUT
350
D
  3
ACAD_MATERIAL
350
E
  3
ACAD_MLEADERSTYLE
350
F
  3
ACAD_MLINESTYLE
350
10
  3
ACAD_PLOTSETTINGS
350
11
  3
ACAD_PLOTSTYLENAME
350
12
  3
ACAD_SCALELIST
350
14
  3
ACAD_TABLESTYLE
350
15
  3
ACAD_VISUALSTYLE
350
16
  3
EZDXF_META
350
2D
  0
DICTIONARY
  5
B
330
A
100
AcDbDictionary
281
1
  0
DICTIONARY
  5
C
330
A
100
AcDbDictionary
281
1
  0
DICTIONARY
  5
D
330
A
100
AcDbDictionary
281
1
  3
Model
350
1A
  3
Layout1
350
1E
  0
DICTIONARY
  5
E
330
A
100
AcDbDictionary
281
1
  3
ByBlock
350
1F
  3
ByLayer
350
20
  3
Global
350
21
  0
DICTIONARY
  5
F
330
A
100
AcDbDictionary
281
1
  3
Standard
350
2C
  0
DICTIONARY
  5
10
330
A
100
AcDbDictionary
281
1
  3
Standard
350
22
  0
DICTIONARY
  5
11
330
A
100
AcDbDictionary
281
1
  0
ACDBDICTIONARYWDFLT
  5
12
330
A
100
AcDbDictionary
281
1
  3
Normal
350
13
100
AcDbDictionaryWithDefault
340
13
  0
ACDBPLACEHOLDER
  5
13
330
12
  0
DICTIONARY
  5
14
330
A
100
AcDbDictionary
281
1
  0
DICTIONARY
  5
15
330
A
100
AcDbDictionary
281
1
  0
DICTIONARY
  5
16
330
A
100
AcDbDictionary
281
1
  0
LAYOUT
  5
1A
330
D
100
AcDbPlotSettings
  1

  4
A3
  6

 40
7.5
 41
20.0
 42
7.5
 43
20.0
 44
420.0
 45
297.0
 46
0.0
 47
0.0
 48
0.0
 49
0.0
140
0.0
141
0.0
142
1.0
143
1.0
 70
1024
 72
1
 73
0
 74
5
  7

 75
16
 76
0
 77
2
 78
300
147
1.0
148
0.0
149
0.0
100
AcDbLayout
  1
Model
 70
1
 71
0
 10
0.0
 20
0.0
 11
420.0
 21
297.0
 12
0.0
 22
0.0
 32
0.0
 14
1e+20
 24
1e+20
 34
1e+20
 15
-1e+20
 25
-1e+20
 35
-1e+20
146
0.0
 13
0.0
 23
0.0
 33
0.0
 16
1.0
 26
0.0
 36
0.0
 17
0.0
 27
1.0
 37
0.0
 76
1
330
17
  0
LAYOUT
  5
1E
330
D
100
AcDbPlotSettings
  1

  4
A3
  6

 40
7.5
 41
20.0
 42
7.5
 43
20.0
 44
420.0
 45
297.0
 46
0.0
 47
0.0
 48
0.0
 49
0.0
140
0.0
141
0.0
142
1.0
143
1.0
 70
0
 72
1
 73
0
 74
5
  7

 75
16
 76
0
 77
2
 78
300
147
1.0
148
0.0
149
0.0
100
AcDbLayout
  1
Layout1
 70
1
 71
1
 10
0.0
 20
0.0
 11
420.0
 21
297.0
 12
0.0
 22
0.0
 32
0.0
 14
1e+20
 24
1e+20
 34
1e+20
 15
-1e+20
 25
-1e+20
 35
-1e+20
146
0.0
 13
0.0
 23
0.0
 33
0.0
 16
1.0
 26
0.0
 36
0.0
 17
0.0
 27
1.0
 37
0.0
 76
1
330
1B
  0
MATERIAL
  5
1F
102
{ACAD_REACTORS
330
E
102
}
330
E
100
AcDbMaterial
  1
ByBlock
  2

 70
0
 40
1.0
 71
1
 41
1.0
 91
-1023410177
 42
1.0
 72
1
  3

 73
1
 74
1
 75
1
 44
0.5
 73
0
 45
1.0
 46
1.0
 77
1
  4

 78
1
 79
1
170
1
 48
1.0
171
1
  6

172
1
173
1
174
1
140
1.0
141
1.0
175
1
  7

176
1
177
1
178
1
143
1.0
179
1
  8

270
1
271
1
272
1
145
1.0
146
1.0
273
1
  9

274
1
275
1
276
1
 42
1.0
 72
1
  3

 73
1
 74
1
 75
1
 94
63
  0
MATERIAL
  5
20
102
{ACAD_REACTORS
330
E
102
}
330
E
100
AcDbMaterial
  1
ByLayer
  2

 70
0
 40
1.0
 71
1
 41
1.0
 91
-1023410177
 42
1.0
 72
1
  3

 73
1
 74
1
 75
1
 44
0.5
 73
0
 45
1.0
 46
1.0
 77
1
  4

 78
1
 79
1
170
1
 48
1.0
171
1
  6

172
1
173
1
174
1
140
1.0
141
1.0
175
1
  7

176
1
177
1
178
1
143
1.0
179
1
  8

270
1
271
1
272
1
145
1.0
146
1.0
273
1
  9

274
1
275
1
276
1
 42
1.0
 72
1
  3

 73
1
 74
1
 75
1
 94
63
  0
MATERIAL
  5
21
102
{ACAD_REACTORS
330
E
102
}
330
E
100
AcDbMaterial
  1
Global
  2

 70
0
 40
1.0
 71
1
 41
1.0
 91
-1023410177
 42
1.0
 72
1
  3

 73
1
 74
1
 75
1
 44
0.5
 73
0
 45
1.0
 46
1.0
 77
1
  4

 78
1
 79
1
170
1
 48
1.0
171
1
  6

172
1
173
1
174
1
140
1.0
141
1.0
175
1
  7

176
1
177
1
178
1
143
1.0
179
1
  8

270
1
271
1
272
1
145
1.0
146
1.0
273
1
  9

274
1
275
1
276
1
 42
1.0
 72
1
  3

 73
1
 74
1
 75
1
 94
63
  0
MLINESTYLE
  5
22
102
{ACAD_REACTORS
330
10
102
}
330
10
100
AcDbMlineStyle
  2
Standard
 70
0
  3

 62
256
 51
90.0
 52
90.0
 71
2
 49
0.5
 62
256
  6
BYLAYER
 49
-0.5
 62
256
  6
BYLAYER
  0
MLEADERSTYLE
  5
2C
102
{ACAD_REACTORS
330
F
102
}
330
F
100
AcDbMLeaderStyle
179
2
170
2
171
1
172
0
 90
2
 40
0.0
 41
0.0
173
1
 91
-1056964608
 92
-2
290
1
 42
2.0
291
1
 43
8.0
  3
Standard
 44
4.0
300

342
29
174
1
175
1
176
0
178
1
 93
-1056964608
 45
4.0
292
0
297
0
 46
4.0
 94
-1056964608
 47
1.0
 49
1.0
140
1.0
294
1
141
0.0
177
0
142
1.0
295
0
296
0
143
3.75
271
0
272
9
273
9
  0
DICTIONARY
  5
2D
330
A
100
AcDbDictionary
280
1
281
1
  3
CREATED_BY_EZDXF
350
2E
  3
WRITTEN_BY_EZDXF
350
53
  0
DICTIONARYVAR
  5
2E
330
2D
100
DictionaryVariables
280
0
  1
1.4.4 @ 2026-10-08T10:24:07.844805+00:00
  0
DICTIONARYVAR
  5
53
330
2D
100
DictionaryVariables
280
0
  1
1.4.4 @ 2026-10-08T10:24:07.850332+00:00
  0
ENDSEC
  0
EOF
