  0
SECTION
  2
HEADER
  9
$ACADVER
  1
AC1024
  9
$ACADMAINTVER
 70
6
  9
$DWGCODEPAGE
  3
ANSI_1252
  9
$LASTSAVEDBY
  1
ezdxf
  9
$INSBASE
 10
0.0
 20
0.0
 30
0.0
  9
$EXTMIN
 10
1e+20
 20
1e+20
 30
1e+20
  9
$EXTMAX
 10
-1e+20
 20
-1e+20
 30
-1e+20
  9
$LIMMIN
 10
0.0
 20
0.0
  9
$LIMMAX
 10
420.0
 20
297.0
  9
$ORTHOMODE
 70
0
  9
$REGENMODE
 70
1
  9
$FILLMODE
 70
1
  9
$QTEXTMODE
 70
0
  9
$MIRRTEXT
 70
1
  9
$LTSCALE
 40
1.0
  9
$ATTMODE
 70
1
  9
$TEXTSIZE
 40
2.5
  9
$TRACEWID
 40
1.0
  9
$TEXTSTYLE
  7
Standard
  9
$CLAYER
  8
0
  9
$CELTYPE
  6
ByLayer
  9
$CECOLOR
 62
256
  9
$CELTSCALE
 40
1.0
  9
$DISPSILH
 70
0
  9
$DIMSCALE
 40
1.0
  9
$DIMASZ
 40
2.5
  9
$DIMEXO
 40
0.625
  9
$DIMDLI
 40
3.75
  9
$DIMRND
 40
0.0
  9
$DIMDLE
 40
0.0
  9
$DIMEXE
 40
1.25
  9
$DIMTP
 40
0.0
  9
$DIMTM
 40
0.0
  9
$DIMTXT
 40
2.5
  9
$DIMCEN
 40
2.5
  9
$DIMTSZ
 40
0.0
  9
$DIMTOL
 70
0
  9
$DIMLIM
 70
0
  9
$DIMTIH
 70
0
  9
$DIMTOH
 70
0
  9
$DIMSE1
 70
0
  9
$DIMSE2
 70
0
  9
$DIMTAD
 70
1
  9
$DIMZIN
 70
8
  9
$DIMBLK
  1

  9
$DIMASO
 70
1
  9
$DIMSHO
 70
1
  9
$DIMPOST
  1

  9
$DIMAPOST
  1

  9
$DIMALT
 70
0
  9
$DIMALTD
 70
3
  9
$DIMALTF
 40
0.03937007874
  9
$DIMLFAC
 40
1.0
  9
$DIMTOFL
 70
1
  9
$DIMTVP
 40
0.0
  9
$DIMTIX
 70
0
  9
$DIMSOXD
 70
0
  9
$DIMSAH
 70
0
  9
$DIMBLK1
  1

  9
$DIMBLK2
  1

  9
$DIMSTYLE
  2
ISO-25
  9
$DIMCLRD
 70
0
  9
$DIMCLRE
 70
0
  9
$DIMCLRT
 70
0
  9
$DIMTFAC
 40
1.0
  9
$DIMGAP
 40
0.625
  9
$DIMJUST
 70
0
  9
$DIMSD1
 70
0
  9
$DIMSD2
 70
0
  9
$DIMTOLJ
 70
0
  9
$DIMTZIN
 70
8
  9
$DIMALTZ
 70
0
  9
$DIMALTTZ
 70
0
  9
$DIMUPT
 70
0
  9
$DIMDEC
 70
2
  9
$DIMTDEC
 70
2
  9
$DIMALTU
 70
2
  9
$DIMALTTD
 70
3
  9
$DIMTXSTY
  7
Standard
  9
$DIMAUNIT
 70
0
  9
$DIMADEC
 70
0
  9
$DIMALTRND
 40
0.0
  9
$DIMAZIN
 70
0
  9
$DIMDSEP
 70
44
  9
$DIMATFIT
 70
3
  9
$DIMFRAC
 70
0
  9
$DIMLDRBLK
  1

  9
$DIMLUNIT
 70
2
  9
$DIMLWD
 70
-2
  9
$DIMLWE
 70
-2
  9
$DIMTMOVE
 70
0
  9
$DIMFXL
 40
1.0
  9
$DIMFXLON
 70
0
  9
$DIMJOGANG
 40
0.785398163397
  9
$DIMTFILL
 70
0
  9
$DIMTFILLCLR
 70
0
  9
$DIMARCSYM
 70
0
  9
$DIMLTYPE
  6

  9
$DIMLTEX1
  6

  9
$DIMLTEX2
  6

  9
$DIMTXTDIRECTION
 70
0
  9
$LUNITS
 70
2
  9
$LUPREC
 70
4
  9
$SKETCHINC
 40
1.0
  9
$FILLETRAD
 40
10.0
  9
$AUNITS
 70
0
  9
$AUPREC
 70
2
  9
$MENU
  1
.
  9
$ELEVATION
 40
0.0
  9
$PELEVATION
 40
0.0
  9
$THICKNESS
 40
0.0
  9
$LIMCHECK
 70
0
  9
$CHAMFERA
 40
0.0
  9
$CHAMFERB
 40
0.0
  9
$CHAMFERC
 40
0.0
  9
$CHAMFERD
 40
0.0
  9
$SKPOLY
 70
0
  9
$TDCREATE
 40
2461324.513159722
  9
$TDUCREATE
 40
2458532.153996898
  9
$TDUPDATE
 40
2461324.513159722
  9
$TDUUPDATE
 40
2458532.1544311
  9
$TDINDWG
 40
0.0
  9
$TDUSRTIMER
 40
0.0
  9
$USRTIMER
 70
1
  9
$ANGBASE
 50
0.0
  9
$ANGDIR
 70
0
  9
$PDMODE
 70
0
  9
$PDSIZE
 40
0.0
  9
$PLINEWID
 40
0.0
  9
$SPLFRAME
 70
0
  9
$SPLINETYPE
 70
6
  9
$SPLINESEGS
 70
8
  9
$HANDSEED
  5
40
  9
$SURFTAB1
 70
6
  9
$SURFTAB2
 70
6
  9
$SURFTYPE
 70
6
  9
$SURFU
 70
6
  9
$SURFV
 70
6
  9
$UCSBASE
  2

  9
$UCSNAME
  2

  9
$UCSORG
 10
0.0
 20
0.0
 30
0.0
  9
$UCSXDIR
 10
1.0
 20
0.0
 30
0.0
  9
$UCSYDIR
 10
0.0
 20
1.0
 30
0.0
  9
$UCSORTHOREF
  2

  9
$UCSORTHOVIEW
 70
0
  9
$UCSORGTOP
 10
0.0
 20
0.0
 30
0.0
  9
$UCSORGBOTTOM
 10
0.0
 20
0.0
 30
0.0
  9
$UCSORGLEFT
 10
0.0
 20
0.0
 30
0.0
  9
$UCSORGRIGHT
 10
0.0
 20
0.0
 30
0.0
  9
$UCSORGFRONT
 10
0.0
 20
0.0
 30
0.0
  9
$UCSORGBACK
 10
0.0
 20
0.0
 30
0.0
  9
$PUCSBASE
  2

  9
$PUCSNAME
  2

  9
$PUCSORG
 10
0.0
 20
0.0
 30
0.0
  9
$PUCSXDIR
 10
1.0
 20
0.0
 30
0.0
  9
$PUCSYDIR
 10
0.0
 20
1.0
 30
0.0
  9
$PUCSORTHOREF
  2

  9
$PUCSORTHOVIEW
 70
0
  9
$PUCSORGTOP
 10
0.0
 20
0.0
 30
0.0
  9
$PUCSORGBOTTOM
 10
0.0
 20
0.0
 30
0.0
  9
$PUCSORGLEFT
 10
0.0
 20
0.0
 30
0.0
  9
$PUCSORGRIGHT
 10
0.0
 20
0.0
 30
0.0
  9
$PUCSORGFRONT
 10
0.0
 20
0.0
 30
0.0
  9
$PUCSORGBACK
 10
0.0
 20
0.0
 30
0.0
  9
$USERI1
 70
0
  9
$USERI2
 70
0
  9
$USERI3
 70
0
  9
$USERI4
 70
0
  9
$USERI5
 70
0
  9
$USERR1
 40
0.0
  9
$USERR2
 40
0.0
  9
$USERR3
 40
0.0
  9
$USERR4
 40
0.0
  9
$USERR5
 40
0.0
  9
$WORLDVIEW
 70
1
  9
$SHADEDGE
 70
3
  9
$SHADEDIF
 70
70
  9
$TILEMODE
 70
1
  9
$MAXACTVP
 70
64
  9
$PINSBASE
 10
0.0
 20
0.0
 30
0.0
  9
$PLIMCHECK
 70
0
  9
$PEXTMIN
 10
1e+20
 20
1e+20
 30
1e+20
  9
$PEXTMAX
 10
-1e+20
 20
-1e+20
 30
-1e+20
  9
$PLIMMIN
 10
0.0
 20
0.0
  9
$PLIMMAX
 10
420.0
 20
297.0
  9
$UNITMODE
 70
0
  9
$VISRETAIN
 70
1
  9
$PLINEGEN
 70
0
  9
$PSLTSCALE
 70
1
  9
$TREEDEPTH
 70
3020
  9
$CMLSTYLE
  2
Standard
  9
$CMLJUST
 70
0
  9
$CMLSCALE
 40
20.0
  9
$PROXYGRAPHICS
 70
1
  9
$MEASUREMENT
 70
1
  9
$CELWEIGHT
370
-1
  9
$ENDCAPS
280
0
  9
$JOINSTYLE
280
0
  9
$LWDISPLAY
290
0
  9
$INSUNITS
 70
4
  9
$HYPERLINKBASE
  1

  9
$STYLESHEET
  1

  9
$XEDIT
290
1
  9
$CEPSNTYPE
380
0
  9
$PSTYLEMODE
290
1
  9
$FINGERPRINTGUID
  2
{83C7B4DE-DDAA-480C-BBD6-53F984B9E473}
  9
$VERSIONGUID
  2
{B3A236E0-D74E-4C66-A5C6-DD11B01878CB}
  9
$EXTNAMES
290
1
  9
$PSVPSCALE
 40
0.0
  9
$OLESTARTUP
290
0
  9
$SORTENTS
280
127
  9
$INDEXCTL
280
0
  9
$HIDETEXT
280
1
  9
$XCLIPFRAME
280
1
  9
$HALOGAP
280
0
  9
$OBSCOLOR
 70
257
  9
$OBSLTYPE
280
0
  9
$INTERSECTIONDISPLAY
280
0
  9
$INTERSECTIONCOLOR
 70
257
  9
$DIMASSOC
280
2
  9
$PROJECTNAME
  1

  9
$CAMERADISPLAY
290
0
  9
$LENSLENGTH
 40
50.0
  9
$CAMERAHEIGHT
 40
0.0
  9
$STEPSPERSEC
 40
24.0
  9
$STEPSIZE
 40
100.0
  9
$3DDWFPREC
 40
2.0
  9
$PSOLWIDTH
 40
0.005
  9
$PSOLHEIGHT
 40
0.08
  9
$LOFTANG1
 40
1.570796326795
  9
$LOFTANG2
 40
1.570796326795
  9
$LOFTMAG1
 40
0.0
  9
$LOFTMAG2
 40
0.0
  9
$LOFTPARAM
 70
7
  9
$LOFTNORMALS
280
1
  9
$LATITUDE
 40
37.795
  9
$LONGITUDE
 40
-122.394
  9
$NORTHDIRECTION
 40
0.0
  9
$TIMEZONE
 70
-8000
  9
$LIGHTGLYPHDISPLAY
280
1
  9
$TILEMODELIGHTSYNCH
280
1
  9
$CMATERIAL
347
20
  9
$SOLIDHIST
280
0
  9
$SHOWHIST
280
1
  9
$DWFFRAME
280
2
  9
$DGNFRAME
280
2
  9
$REALWORLDSCALE
290
1
  9
$INTERFERECOLOR
 62
256
  9
$CSHADOW
280
0
  9
$SHADOWPLANELOCATION
 40
0.0
  0
ENDSEC
  0
SECTION
  2
CLASSES
  0
CLASS
  1
ACDBDICTIONARYWDFLT
  2
AcDbDictionaryWithDefault
  3
ObjectDBX Classes
 90
0
 91
0
280
0
281
0
  0
CLASS
  1
SUN
  2
AcDbSun
  3
SCENEOE
 90
1153
 91
0
280
0
281
0
  0
CLASS
  1
VISUALSTYLE
  2
AcDbVisualStyle
  3
ObjectDBX Classes
 90
4095
 91
0
280
0
281
0
  0
CLASS
  1
MATERIAL
  2
AcDbMaterial
  3
ObjectDBX Classes
 90
1153
 91
0
280
0
281
0
  0
CLASS
  1
SCALE
  2
AcDbScale
  3
ObjectDBX Classes
 90
1153
 91
0
280
0
281
0
  0
CLASS
  1
TABLESTYLE
  2
AcDbTableStyle
  3
ObjectDBX Classes
 90
4095
 91
0
280
0
281
0
  0
CLASS
  1
MLEADERSTYLE
  2
AcDbMLeaderStyle
  3
ACDB_MLEADERSTYLE_CLASS
 90
4095
 91
0
280
0
281
0
  0
CLASS
  1
DICTIONARYVAR
  2
AcDbDictionaryVar
  3
ObjectDBX Classes
 90
0
 91
0
280
0
281
0
  0
CLASS
  1
CELLSTYLEMAP
  2
AcDbCellStyleMap
  3
ObjectDBX Classes
 90
1152
 91
0
280
0
281
0
  0
CLASS
  1
MENTALRAYRENDERSETTINGS
  2
AcDbMentalRayRenderSettings
  3
SCENEOE
 90
1024
 91
0
280
0
281
0
  0
CLASS
  1
ACDBDETAILVIEWSTYLE
  2
AcDbDetailViewStyle
  3
ObjectDBX Classes
 90
1025
 91
0
280
0
281
0
  0
CLASS
  1
ACDBSECTIONVIEWSTYLE
  2
AcDbSectionViewStyle
  3
ObjectDBX Classes
 90
1025
 91
0
280
0
281
0
  0
CLASS
  1
RASTERVARIABLES
  2
AcDbRasterVariables
  3
ISM
 90
0
 91
0
280
0
281
0
  0
CLASS
  1
LAYOUT
  2
AcDbLayout
  3
ObjectDBX Classes
 90
0
 91
0
280
0
281
0
  0
CLASS
  1
ACDBPLACEHOLDER
  2
AcDbPlaceHolder
  3
ObjectDBX Classes
 90
0
 91
0
280
0
281
0
  0
ENDSEC
  0
SECTION
  2
TABLES
  0
TABLE
  2
VPORT
  5
8
330
0
100
AcDbSymbolTable
 70
1
  0
VPORT
  5
23
330
8
100
AcDbSymbolTableRecord
100
AcDbViewportTableRecord
  2
*Active
 70
0
 10
0.0
 20
0.0
 11
1.0
 21
1.0
 12
0.0
 22
0.0
 13
0.0
 23
0.0
 14
0.5
 24
0.5
 15
0.5
 25
0.5
 16
0.0
 26
0.0
 36
1.0
 17
0.0
 27
0.0
 37
0.0
 40
1000.0
 41
1.34
 42
50.0
 43
0.0
 44
0.0
 50
0.0
 51
0.0
 71
0
 72
1000
 73
1
 74
3
 75
0
 76
0
 77
0
 78
0
281
0
 65
0
146
0.0
  0
ENDTAB
  0
TABLE
  2
LTYPE
  5
2
330
0
100
AcDbSymbolTable
 70
3
  0
LTYPE
  5
24
330
2
100
AcDbSymbolTableRecord
100
AcDbLinetypeTableRecord
  2
ByBlock
 70
0
  3

 72
65
 73
0
 40
0.0
  0
LTYPE
  5
25
330
2
100
AcDbSymbolTableRecord
100
AcDbLinetypeTableRecord
  2
ByLayer
 70
0
  3

 72
65
 73
0
 40
0.0
  0
LTYPE
  5
26
330
2
100
AcDbSymbolTableRecord
100
AcDbLinetypeTableRecord
  2
Continuous
 70
0
  3

 72
65
 73
0
 40
0.0
  0
ENDTAB
  0
TABLE
  2
LAYER
  5
1
330
0
100
AcDbSymbolTable
 70
4
  0
LAYER
  5
27
330
1
100
AcDbSymbolTableRecord
100
AcDbLayerTableRecord
  2
0
 70
0
 62
7
  6
Continuous
370
-3
390
13
347
21
  0
LAYER
  5
28
330
1
100
AcDbSymbolTableRecord
100
AcDbLayerTableRecord
  2
Defpoints
 70
0
 62
7
  6
Continuous
290
0
370
-3
390
13
347
21
  0
LAYER
  5
2F
330
1
100
AcDbSymbolTableRecord
100
AcDbLayerTableRecord
  2
OUTER
 70
0
 62
5
  6
Continuous
370
-3
390
13
347
21
  0
LAYER
  5
30
330
1
100
AcDbSymbolTableRecord
100
AcDbLayerTableRecord
  2
ISLAND
 70
0
 62
1
  6
Continuous
370
-3
390
13
347
21
  0
ENDTAB
  0
TABLE
  2
STYLE
  5
5
330
0
100
AcDbSymbolTable
 70
1
  0
STYLE
  5
29
330
5
100
AcDbSymbolTableRecord
100
AcDbTextStyleTableRecord
  2
Standard
 70
0
 40
0.0
 41
1.0
 50
0.0
 71
0
 42
2.5
  3
txt
  4

  0
ENDTAB
  0
TABLE
  2
VIEW
  5
7
330
0
100
AcDbSymbolTable
 70
0
  0
ENDTAB
  0
TABLE
  2
UCS
  5
6
330
0
100
AcDbSymbolTable
 70
0
  0
ENDTAB
  0
TABLE
  2
APPID
  5
3
330
0
100
AcDbSymbolTable
 70
3
  0
APPID
  5
2A
330
3
100
AcDbSymbolTableRecord
100
AcDbRegAppTableRecord
  2
ACAD
 70
0
  0
APPID
  5
3D
330
3
100
AcDbSymbolTableRecord
100
AcDbRegAppTableRecord
  2
HATCHBACKGROUNDCOLOR
 70
0
  0
APPID
  5
3E
330
3
100
AcDbSymbolTableRecord
100
AcDbRegAppTableRecord
  2
EZDXF
 70
0
  0
ENDTAB
  0
TABLE
  2
DIMSTYLE
  5
4
330
0
100
AcDbSymbolTable
 70
1
100
AcDbDimStyleTable
  0
DIMSTYLE
105
2B
330
4
100
AcDbSymbolTableRecord
100
AcDbDimStyleTableRecord
  2
Standard
 70
0
 40
1.0
 41
2.5
 42
0.625
 43
3.75
 44
1.25
 45
0.0
 46
0.0
 47
0.0
 48
0.0
 49
2.5
140
2.5
141
2.5
142
0.0
143
0.03937007874
144
1.0
145
0.0
146
1.0
147
0.625
148
0.0
 69
0
 70
0
 71
0
 72
0
 73
0
 74
0
 75
0
 76
0
 77
1
 78
8
 79
3
170
0
171
3
172
1
173
0
174
0
175
0
176
0
177
0
178
0
179
2
271
2
272
2
273
2
274
3
275
0
276
0
277
2
278
44
279
0
280
0
281
0
282
0
283
0
284
8
285
0
286
0
288
0
289
3
290
0
371
-2
372
-2
  0
ENDTAB
  0
TABLE
  2
BLOCK_RECORD
  5
9
330
0
100
AcDbSymbolTable
 70
2
  0
BLOCK_RECORD
  5
17
330
9
100
AcDbSymbolTableRecord
100
AcDbBlockTableRecord
  2
*Model_Space
340
1A
 70
0
280
1
281
0
  0
BLOCK_RECORD
  5
1B
330
9
100
AcDbSymbolTableRecord
100
AcDbBlockTableRecord
  2
*Paper_Space
340
1E
 70
0
280
1
281
0
  0
ENDTAB
  0
ENDSEC
  0
SECTION
  2
BLOCKS
  0
BLOCK
  5
18
330
17
100
AcDbEntity
  8
0
100
AcDbBlockBegin
  2
*Model_Space
 70
0
 10
0.0
 20
0.0
 30
0.0
  3
*Model_Space
  1

  0
ENDBLK
  5
19
330
17
100
AcDbEntity
  8
0
100
AcDbBlockEnd
  0
BLOCK
  5
1C
330
1B
100
AcDbEntity
  8
0
100
AcDbBlockBegin
  2
*Paper_Space
 70
0
 10
0.0
 20
0.0
 30
0.0
  3
*Paper_Space
  1

  0
ENDBLK
  5
1D
330
1B
100
AcDbEntity
  8
0
100
AcDbBlockEnd
  0
ENDSEC
  0
SECTION
  2
ENTITIES
  0
LWPOLYLINE
  5
31
330
17
100
AcDbEntity
  8
OUTER
100
AcDbPolyline
 90
828
 70
1
 10
49.34
 20
-0.3593059114498377
 10
48.36914981555968
 20
-0.09916738855744711
 10
48.394573451816974
 20
-0.08151255745046848
 10
48.41936047995215
 20
-0.06297455383127426
 10
48.443480234521076
 20
-0.043576312119878446
 10
48.46690287560177
 20
-0.023341830985829093
 10
48.48959942571103
 20
-0.0022961436580870576
 10
48.51154180565415
 20
0.019534713045005536
 10
48.53270286926328
 20
0.04212373092735744
 10
48.55305643698153
 20
0.06544296382850534
 10
48.57257732825113
 20
0.08946356219740015
 10
48.59124139266577
 20
0.11415580878383147
 10
48.60902553984846
 20
0.13948915540332618
 10
48.62590776801792
 20
0.1654322607300523
 10
48.64186719120823
 20
0.1919530290709544
 10
48.65688406510807
 20
0.21901865007316312
 10
48.67093981148756
 20
0.24659563931555484
 10
48.68401704118234
 20
0.27464987973423227
 10
48.69609957560684
 20
0.30314666383068883
 10
48.707172466769606
 20
0.332050736610431
 10
48.71722201576639
 20
0.36132633919894125
 10
48.7262357897278
 20
0.39093725308101557
 10
48.73420263720075
 20
0.4208468449087547
 10
48.741112701944516
 20
0.45101811182276086
 10
48.746957435124465
 20
0.48141372723048564
 10
48.75172960588833
 20
0.5119960869850839
 10
48.75542331031189
 20
0.542727355907641
 10
48.75803397870304
 20
0.573569514595233
 10
48.75955838125524
 20
0.6044844064568914
 10
48.759994632043274
 20
0.6354337849192947
 10
48.75934219135645
 20
0.666379360743786
 10
48.7576018663663
 20
0.6972828493961667
 10
48.75477581012798
 20
0.728106018410676
 10
48.75086751891661
 20
0.7588107346895511
 10
48.745881827901805
 20
0.7893590116796556
 10
48.739824905165875
 20
0.8197130563678038
 10
48.73270424407287
 20
0.849835316036656
 10
48.72452865399815
 20
0.8796885247233163
 10
48.715308249429796
 20
0.9092357493231829
 10
48.705054437455395
 20
0.9384404352819946
 10
48.6937799036497
 20
0.967266451819548
 10
48.68149859638056
 20
0.9956781366291485
 10
48.66822570955261
 20
1.023640339997477
 10
48.653977663810046
 20
1.0511184682903023
 10
48.63877208622168
 20
1.0780785267502395
 10
48.622627788473494
 20
1.1044871615535963
 10
48.60556474359565
 20
1.1303117010742894
 10
48.587604061252705
 20
1.155520196303775
 10
48.56876796162764
 20
1.1800814603769842
 10
48.549079747932026
 20
1.2039651071553723
 10
48.52856377757625
 20
1.2271415888193398
 10
48.50724543203563
 20
1.2495822324235228
 10
48.485151085449516
 20
1.2712592753697276
 10
48.462308071992325
 20
1.2921458997536215
 10
48.43874465205692
 20
1.312216265542689
 10
48.414489977292035
 20
1.3314455425444076
 10
48.38957405453712
 20
1.3498099411250957
 10
48.36402770869918
 20
1.3672867416414176
 10
48.3378825446175
 20
1.3838543225481548
 10
48.311170907963536
 20
1.3994921871474464
 10
48.28392584522422
 20
1.4141809889464219
 10
48.25618106281826
 20
1.4279025555918516
 10
48.227970885396026
 20
1.4406399113521968
 10
48.19933021337459
 20
1.4523772981192562
 10
48.17029447976038
 20
1.4631001949034181
 10
48.140899606313035
 20
1.472795335798403
 10
48.11118195910452
 20
1.4814507263932737
 10
48.08117830352863
 20
1.4890556586114012
 10
48.05092575881637
 20
1.4956007239580398
 10
48.020461752113675
 20
1.5010778251601078
 10
47.98982397217817
 20
1.5054801861837883
 10
47.95905032275223
 20
1.5088023606175458
 10
47.928178875670106
 20
1.5110402384101902
 10
47.89724782375711
 20
1.5121910509556575
 10
47.86629543357909
 20
1.5122533745182096
 10
47.83535999810066
 20
1.5112271319938175
 10
47.80447978931082
 20
1.5091135930055528
 10
47.77369301087448
 20
1.505915372332863
 10
47.74303775086856
 20
1.5016364266766815
 10
47.712551934661015
 20
1.4962820497643636
 10
47.68227327799125
 20
1.4898588658005196
 10
47.65223924030978
 20
1.4823748212718297
 10
40.33949658723592
 20
-0.47706866707593715
 10
38.92914981555968
 20
-0.09916738855744711
 10
38.95457345181698
 20
-0.08151255745046815
 10
38.97936047995215
 20
-0.06297455383127415
 10
39.00348023452108
 20
-0.043576312119878224
 10
39.02690287560177
 20
-0.02334183098582876
 10
39.04959942571103
 20
-0.0022961436580867245
 10
39.07154180565415
 20
0.01953471304500609
 10
39.092702869263285
 20
0.04212373092735777
 10
39.11305643698153
 20
0.06544296382850556
 10
39.13257732825113
 20
0.0894635621974007
 10
39.151241392665774
 20
0.11415580878383169
 10
39.16902553984846
 20
0.13948915540332651
 10
39.18590776801792
 20
0.16543226073005274
 10
39.20186719120823
 20
0.19195302907095468
 10
39.216884065108076
 20
0.21901865007316346
 10
39.23093981148756
 20
0.24659563931555523
 10
39.24401704118234
 20
0.27464987973423227
 10
39.25609957560684
 20
0.3031466638306892
 10
39.26717246676961
 20
0.3320507366104314
 10
39.27722201576639
 20
0.36132633919894164
 10
39.286235789727805
 20
0.3909372530810167
 10
39.294202637200755
 20
0.42084684490875507
 10
39.30111270194452
 20
0.4510181118227612
 10
39.30695743512447
 20
0.48141372723048637
 10
39.31172960588833
 20
0.5119960869850843
 10
39.31542331031189
 20
0.5427273559076413
 10
39.31803397870304
 20
0.5735695145952334
 10
39.31955838125524
 20
0.6044844064568914
 10
39.319994632043276
 20
0.6354337849192951
 10
39.319342191356455
 20
0.6663793607437865
 10
39.3176018663663
 20
0.6972828493961667
 10
39.31477581012798
 20
0.7281060184106763
 10
39.31086751891661
 20
0.7588107346895514
 10
39.30588182790181
 20
0.7893590116796556
 10
39.29982490516588
 20
0.819713056367805
 10
39.29270424407287
 20
0.8498353160366563
 10
39.28452865399815
 20
0.8796885247233166
 10
39.2753082494298
 20
0.9092357493231836
 10
39.2650544374554
 20
0.9384404352819946
 10
39.2537799036497
 20
0.9672664518195484
 10
39.24149859638055
 20
0.9956781366291488
 10
39.22822570955261
 20
1.023640339997477
 10
39.21397766381005
 20
1.0511184682903028
 10
39.19877208622168
 20
1.07807852675024
 10
39.182627788473496
 20
1.1044871615535963
 10
39.16556474359565
 20
1.13031170107429
 10
39.14760406125271
 20
1.1555201963037756
 10
39.128767961627645
 20
1.1800814603769845
 10
39.10907974793203
 20
1.203965107155373
 10
39.088563777576255
 20
1.22714158881934
 10
39.067245432035634
 20
1.249582232423523
 10
39.04515108544952
 20
1.271259275369728
 10
39.02230807199233
 20
1.2921458997536215
 10
38.99874465205692
 20
1.312216265542689
 10
38.97448997729204
 20
1.331445542544408
 10
38.94957405453712
 20
1.3498099411250957
 10
38.92402770869918
 20
1.367286741641418
 10
38.8978825446175
 20
1.3838543225481552
 10
38.87117090796354
 20
1.3994921871474464
 10
38.84392584522422
 20
1.414180988946422
 10
38.81618106281826
 20
1.4279025555918516
 10
38.78797088539603
 20
1.440639911352197
 10
38.75933021337459
 20
1.4523772981192564
 10
38.73029447976038
 20
1.4631001949034181
 10
38.70089960631303
 20
1.4727953357984034
 10
38.67118195910452
 20
1.4814507263932737
 10
38.641178303528626
 20
1.4890556586114017
 10
38.610925758816364
 20
1.4956007239580398
 10
38.58046175211368
 20
1.5010778251601078
 10
38.549823972178174
 20
1.5054801861837885
 10
38.519050322752236
 20
1.5088023606175458
 10
38.48817887567011
 20
1.5110402384101902
 10
38.457247823757115
 20
1.5121910509556575
 10
38.42629543357909
 20
1.5122533745182096
 10
38.39535999810066
 20
1.5112271319938175
 10
38.36447978931081
 20
1.5091135930055528
 10
38.333693010874484
 20
1.505915372332863
 10
38.30303775086856
 20
1.5016364266766815
 10
38.27255193466102
 20
1.4962820497643636
 10
38.242273277991245
 20
1.4898588658005192
 10
38.212239240309785
 20
1.4823748212718297
 10
30.899496587235923
 20
-0.47706866707593715
 10
29.489149815559678
 20
-0.09916738855744711
 10
29.514573451816972
 20
-0.08151255745046881
 10
29.539360479952148
 20
-0.06297455383127482
 10
29.563480234521077
 20
-0.043576312119879
 10
29.58690287560177
 20
-0.023341830985829204
 10
29.60959942571103
 20
-0.0022961436580872796
 10
29.631541805654148
 20
0.01953471304500498
 10
29.652702869263283
 20
0.04212373092735722
 10
29.67305643698153
 20
0.06544296382850467
 10
29.692577328251126
 20
0.08946356219739982
 10
29.71124139266577
 20
0.1141558087838308
 10
29.729025539848465
 20
0.1394891554033259
 10
29.74590776801792
 20
0.16543226073005202
 10
29.76186719120823
 20
0.1919530290709533
 10
29.776884065108078
 20
0.2190186500731628
 10
29.790939811487554
 20
0.24659563931555417
 10
29.80401704118234
 20
0.2746498797342316
 10
29.816099575606835
 20
0.30314666383068845
 10
29.827172466769603
 20
0.33205073661043066
 10
29.837222015766386
 20
0.36132633919894086
 10
29.846235789727803
 20
0.39093725308101557
 10
29.854202637200753
 20
0.42084684490875435
 10
29.861112701944514
 20
0.4510181118227601
 10
29.866957435124462
 20
0.48141372723048526
 10
29.87172960588833
 20
0.5119960869850831
 10
29.875423310311888
 20
0.5427273559076405
 10
29.87803397870304
 20
0.5735695145952326
 10
29.87955838125524
 20
0.6044844064568903
 10
29.879994632043275
 20
0.6354337849192944
 10
29.879342191356454
 20
0.6663793607437857
 10
29.8776018663663
 20
0.6972828493961659
 10
29.874775810127982
 20
0.7281060184106756
 10
29.870867518916604
 20
0.7588107346895507
 10
29.86588182790181
 20
0.7893590116796549
 10
29.85982490516588
 20
0.8197130563678038
 10
29.852704244072875
 20
0.8498353160366555
 10
29.844528653998154
 20
0.8796885247233158
 10
29.835308249429797
 20
0.9092357493231829
 10
29.825054437455396
 20
0.9384404352819942
 10
29.813779903649696
 20
0.9672664518195476
 10
29.801498596380554
 20
0.9956781366291485
 10
29.788225709552613
 20
1.0236403399974758
 10
29.773977663810047
 20
1.051118468290302
 10
29.75877208622168
 20
1.0780785267502395
 10
29.74262778847349
 20
1.1044871615535956
 10
29.725564743595648
 20
1.1303117010742894
 10
29.707604061252702
 20
1.1555201963037747
 10
29.688767961627644
 20
1.180081460376984
 10
29.669079747932024
 20
1.2039651071553723
 10
29.64856377757625
 20
1.2271415888193395
 10
29.627245432035632
 20
1.2495822324235226
 10
29.605151085449513
 20
1.2712592753697276
 10
29.582308071992326
 20
1.2921458997536213
 10
29.558744652056923
 20
1.3122162655426883
 10
29.534489977292036
 20
1.3314455425444076
 10
29.509574054537126
 20
1.349809941125095
 10
29.48402770869918
 20
1.3672867416414176
 10
29.4578825446175
 20
1.3838543225481548
 10
29.431170907963537
 20
1.399492187147446
 10
29.403925845224215
 20
1.4141809889464219
 10
29.376181062818254
 20
1.4279025555918516
 10
29.347970885396027
 20
1.4406399113521964
 10
29.319330213374588
 20
1.4523772981192562
 10
29.290294479760377
 20
1.4631001949034181
 10
29.260899606313032
 20
1.472795335798403
 10
29.23118195910452
 20
1.4814507263932737
 10
29.20117830352863
 20
1.4890556586114012
 10
29.170925758816367
 20
1.4956007239580396
 10
29.14046175211368
 20
1.5010778251601078
 10
29.109823972178177
 20
1.5054801861837883
 10
29.07905032275223
 20
1.5088023606175458
 10
29.04817887567011
 20
1.5110402384101902
 10
29.017247823757113
 20
1.5121910509556575
 10
28.98629543357909
 20
1.5122533745182096
 10
28.955359998100658
 20
1.5112271319938175
 10
28.924479789310816
 20
1.5091135930055528
 10
28.89369301087448
 20
1.505915372332863
 10
28.86303775086856
 20
1.5016364266766815
 10
28.83255193466102
 20
1.4962820497643636
 10
28.802273277991247
 20
1.4898588658005196
 10
28.772239240309784
 20
1.4823748212718297
 10
21.459496587235922
 20
-0.47706866707593715
 10
20.049149815559677
 20
-0.09916738855744711
 10
20.07457345181697
 20
-0.08151255745046881
 10
20.099360479952146
 20
-0.06297455383127482
 10
20.123480234521075
 20
-0.043576312119879
 10
20.146902875601768
 20
-0.023341830985829204
 10
20.169599425711027
 20
-0.0022961436580872796
 10
20.191541805654147
 20
0.01953471304500498
 10
20.212702869263282
 20
0.04212373092735722
 10
20.233056436981528
 20
0.06544296382850467
 10
20.252577328251125
 20
0.08946356219739982
 10
20.271241392665768
 20
0.1141558087838308
 10
20.289025539848463
 20
0.1394891554033259
 10
20.305907768017917
 20
0.16543226073005202
 10
20.321867191208227
 20
0.1919530290709533
 10
20.336884065108077
 20
0.2190186500731628
 10
20.350939811487553
 20
0.24659563931555417
 10
20.36401704118234
 20
0.2746498797342316
 10
20.376099575606833
 20
0.30314666383068845
 10
20.387172466769602
 20
0.33205073661043066
 10
20.397222015766385
 20
0.36132633919894086
 10
20.406235789727802
 20
0.39093725308101557
 10
20.414202637200752
 20
0.42084684490875435
 10
20.421112701944512
 20
0.4510181118227601
 10
20.42695743512446
 20
0.48141372723048526
 10
20.43172960588833
 20
0.5119960869850831
 10
20.435423310311887
 20
0.5427273559076405
 10
20.43803397870304
 20
0.5735695145952326
 10
20.43955838125524
 20
0.6044844064568903
 10
20.439994632043273
 20
0.6354337849192944
 10
20.439342191356452
 20
0.6663793607437857
 10
20.4376018663663
 20
0.6972828493961659
 10
20.43477581012798
 20
0.7281060184106756
 10
20.430867518916603
 20
0.7588107346895507
 10
20.425881827901808
 20
0.7893590116796549
 10
20.41982490516588
 20
0.8197130563678038
 10
20.412704244072874
 20
0.8498353160366555
 10
20.404528653998153
 20
0.8796885247233158
 10
20.395308249429796
 20
0.9092357493231829
 10
20.385054437455395
 20
0.9384404352819942
 10
20.373779903649694
 20
0.9672664518195476
 10
20.361498596380553
 20
0.9956781366291485
 10
20.34822570955261
 20
1.0236403399974758
 10
20.333977663810046
 20
1.051118468290302
 10
20.318772086221678
 20
1.0780785267502395
 10
20.30262778847349
 20
1.1044871615535956
 10
20.285564743595646
 20
1.1303117010742894
 10
20.2676040612527
 20
1.1555201963037747
 10
20.248767961627642
 20
1.180081460376984
 10
20.229079747932023
 20
1.2039651071553723
 10
20.20856377757625
 20
1.2271415888193395
 10
20.18724543203563
 20
1.2495822324235226
 10
20.165151085449512
 20
1.2712592753697276
 10
20.142308071992325
 20
1.2921458997536213
 10
20.11874465205692
 20
1.3122162655426883
 10
20.094489977292035
 20
1.3314455425444076
 10
20.069574054537124
 20
1.349809941125095
 10
20.04402770869918
 20
1.3672867416414176
 10
20.0178825446175
 20
1.3838543225481548
 10
19.991170907963536
 20
1.399492187147446
 10
19.963925845224214
 20
1.4141809889464219
 10
19.936181062818253
 20
1.4279025555918516
 10
19.907970885396026
 20
1.4406399113521964
 10
19.879330213374587
 20
1.4523772981192562
 10
19.850294479760375
 20
1.4631001949034181
 10
19.82089960631303
 20
1.472795335798403
 10
19.79118195910452
 20
1.4814507263932737
 10
19.761178303528627
 20
1.4890556586114012
 10
19.730925758816365
 20
1.4956007239580396
 10
19.70046175211368
 20
1.5010778251601078
 10
19.669823972178175
 20
1.5054801861837883
 10
19.63905032275223
 20
1.5088023606175458
 10
19.60817887567011
 20
1.5110402384101902
 10
19.577247823757112
 20
1.5121910509556575
 10
19.54629543357909
 20
1.5122533745182096
 10
19.515359998100656
 20
1.5112271319938175
 10
19.484479789310814
 20
1.5091135930055528
 10
19.453693010874478
 20
1.505915372332863
 10
19.42303775086856
 20
1.5016364266766815
 10
19.392551934661018
 20
1.4962820497643636
 10
19.362273277991246
 20
1.4898588658005196
 10
19.332239240309782
 20
1.4823748212718297
 10
12.019496587235913
 20
-0.4770686670759367
 10
10.609149815559682
 20
-0.09916738855744711
 10
10.634573451816976
 20
-0.08151255745046881
 10
10.659360479952149
 20
-0.06297455383127482
 10
10.683480234521085
 20
-0.043576312119879
 10
10.706902875601777
 20
-0.023341830985829204
 10
10.72959942571103
 20
-0.0022961436580872796
 10
10.75154180565415
 20
0.01953471304500498
 10
10.772702869263291
 20
0.04212373092735722
 10
10.79305643698153
 20
0.06544296382850467
 10
10.81257732825113
 20
0.08946356219739982
 10
10.831241392665774
 20
0.1141558087838308
 10
10.84902553984847
 20
0.1394891554033259
 10
10.865907768017927
 20
0.16543226073005202
 10
10.88186719120823
 20
0.1919530290709533
 10
10.896884065108082
 20
0.2190186500731628
 10
10.910939811487559
 20
0.24659563931555417
 10
10.924017041182346
 20
0.2746498797342316
 10
10.936099575606839
 20
0.30314666383068845
 10
10.947172466769608
 20
0.33205073661043066
 10
10.95722201576639
 20
0.36132633919894086
 10
10.966235789727811
 20
0.39093725308101557
 10
10.974202637200754
 20
0.42084684490875435
 10
10.981112701944518
 20
0.4510181118227601
 10
10.986957435124467
 20
0.48141372723048526
 10
10.991729605888338
 20
0.5119960869850831
 10
10.995423310311892
 20
0.5427273559076405
 10
10.998033978703042
 20
0.5735695145952326
 10
10.999558381255241
 20
0.6044844064568903
 10
10.999994632043276
 20
0.6354337849192944
 10
10.999342191356455
 20
0.6663793607437857
 10
10.99760186636631
 20
0.6972828493961659
 10
10.994775810127983
 20
0.7281060184106756
 10
10.990867518916609
 20
0.7588107346895507
 10
10.985881827901814
 20
0.7893590116796549
 10
10.979824905165884
 20
0.8197130563678038
 10
10.97270424407288
 20
0.8498353160366555
 10
10.964528653998158
 20
0.8796885247233158
 10
10.955308249429798
 20
0.9092357493231829
 10
10.945054437455397
 20
0.9384404352819942
 10
10.9337799036497
 20
0.9672664518195476
 10
10.921498596380559
 20
0.9956781366291485
 10
10.908225709552617
 20
1.0236403399974758
 10
10.893977663810055
 20
1.051118468290302
 10
10.87877208622168
 20
1.0780785267502395
 10
10.862627788473496
 20
1.1044871615535956
 10
10.845564743595652
 20
1.1303117010742894
 10
10.827604061252707
 20
1.1555201963037747
 10
10.808767961627645
 20
1.180081460376984
 10
10.789079747932028
 20
1.2039651071553723
 10
10.768563777576254
 20
1.2271415888193395
 10
10.74724543203564
 20
1.2495822324235226
 10
10.725151085449518
 20
1.2712592753697276
 10
10.702308071992327
 20
1.2921458997536213
 10
10.678744652056928
 20
1.3122162655426883
 10
10.654489977292045
 20
1.3314455425444076
 10
10.62957405453713
 20
1.349809941125095
 10
10.604027708699185
 20
1.3672867416414176
 10
10.577882544617509
 20
1.3838543225481548
 10
10.551170907963545
 20
1.399492187147446
 10
10.52392584522422
 20
1.4141809889464219
 10
10.496181062818259
 20
1.4279025555918516
 10
10.467970885396035
 20
1.4406399113521964
 10
10.439330213374596
 20
1.4523772981192562
 10
10.410294479760381
 20
1.4631001949034181
 10
10.380899606313037
 20
1.472795335798403
 10
10.35118195910453
 20
1.4814507263932737
 10
10.321178303528633
 20
1.4890556586114012
 10
10.290925758816371
 20
1.4956007239580396
 10
10.260461752113684
 20
1.5010778251601078
 10
10.229823972178181
 20
1.5054801861837883
 10
10.199050322752235
 20
1.5088023606175458
 10
10.168178875670115
 20
1.5110402384101902
 10
10.137247823757122
 20
1.5121910509556575
 10
10.106295433579092
 20
1.5122533745182096
 10
10.075359998100659
 20
1.5112271319938175
 10
10.04447978931082
 20
1.5091135930055528
 10
10.013693010874483
 20
1.505915372332863
 10
9.983037750868561
 20
1.5016364266766815
 10
9.952551934661024
 20
1.4962820497643636
 10
9.922273277991252
 20
1.4898588658005196
 10
9.892239240309785
 20
1.4823748212718297
 10
2.5794965872359157
 20
-0.4770686670759367
 10
0.7990520830093644
 20
-0.0
 10
0.0
 20
-0.0
 10
0.0
 20
-0.31058285412302417
 10
0.7990520830093644
 20
-0.31058285412302417
 10
5.172239240309786
 20
-1.4823748212718297
 10
5.202273277991253
 20
-1.4898588658005196
 10
5.232551934661025
 20
-1.4962820497643636
 10
5.263037750868563
 20
-1.5016364266766815
 10
5.293693010874485
 20
-1.505915372332863
 10
5.324479789310821
 20
-1.5091135930055528
 10
5.35535999810066
 20
-1.5112271319938175
 10
5.386295433579093
 20
-1.5122533745182096
 10
5.417247823757123
 20
-1.5121910509556575
 10
5.448178875670116
 20
-1.5110402384101902
 10
5.4790503227522365
 20
-1.5088023606175458
 10
5.509823972178182
 20
-1.5054801861837885
 10
5.540461752113686
 20
-1.5010778251601078
 10
5.570925758816372
 20
-1.4956007239580398
 10
5.601178303528634
 20
-1.4890556586114014
 10
5.631181959104531
 20
-1.4814507263932737
 10
5.660899606313038
 20
-1.4727953357984032
 10
5.690294479760382
 20
-1.4631001949034181
 10
5.71933021337459
 20
-1.4523772981192564
 10
5.747970885396029
 20
-1.4406399113521968
 10
5.77618106281826
 20
-1.4279025555918516
 10
5.803925845224221
 20
-1.414180988946422
 10
5.831170907963546
 20
-1.3994921871474464
 10
5.85788254461751
 20
-1.3838543225481548
 10
5.884027708699186
 20
-1.3672867416414178
 10
5.909574054537131
 20
-1.3498099411250954
 10
5.934489977292046
 20
-1.3314455425444078
 10
5.958744652056929
 20
-1.3122162655426888
 10
5.982308071992328
 20
-1.2921458997536215
 10
6.005151085449519
 20
-1.2712592753697276
 10
6.027245432035642
 20
-1.2495822324235228
 10
6.0485637775762555
 20
-1.22714158881934
 10
6.0690797479320295
 20
-1.2039651071553723
 10
6.088767961627646
 20
-1.1800814603769845
 10
6.107604061252708
 20
-1.1555201963037751
 10
6.125564743595653
 20
-1.1303117010742891
 10
6.142627788473497
 20
-1.1044871615535965
 10
6.158772086221681
 20
-1.0780785267502393
 10
6.1739776638100565
 20
-1.0511184682903023
 10
6.1882257095526185
 20
-1.0236403399974767
 10
6.20149859638056
 20
-0.9956781366291487
 10
6.2137799036497015
 20
-0.9672664518195482
 10
6.225054437455398
 20
-0.9384404352819948
 10
6.235308249429799
 20
-0.9092357493231831
 10
6.2445286539981595
 20
-0.879688524723316
 10
6.252704244072881
 20
-0.8498353160366562
 10
6.259824905165885
 20
-0.819713056367804
 10
6.265881827901815
 20
-0.7893590116796555
 10
6.27086751891661
 20
-0.7588107346895513
 10
6.274775810127984
 20
-0.7281060184106755
 10
6.277601866366311
 20
-0.6972828493961665
 10
6.279342191356456
 20
-0.6663793607437858
 10
6.279994632043277
 20
-0.6354337849192946
 10
6.279558381255242
 20
-0.6044844064568913
 10
6.278033978703043
 20
-0.5735695145952332
 10
6.2754233103118935
 20
-0.5427273559076408
 10
6.271729605888339
 20
-0.5119960869850837
 10
6.266957435124468
 20
-0.48141372723048587
 10
6.261112701944519
 20
-0.45101811182276064
 10
6.2542026372007555
 20
-0.4208468449087549
 10
6.2462357897278125
 20
-0.3909372530810158
 10
6.237222015766392
 20
-0.3613263391989414
 10
6.227172466769609
 20
-0.33205073661043116
 10
6.21609957560684
 20
-0.30314666383068833
 10
6.204017041182347
 20
-0.27464987973423216
 10
6.19093981148756
 20
-0.24659563931555473
 10
6.176884065108084
 20
-0.21901865007316296
 10
6.161867191208238
 20
-0.1919530290709539
 10
6.145907768017928
 20
-0.16543226073005252
 10
6.12902553984847
 20
-0.1394891554033264
 10
6.111241392665775
 20
-0.11415580878383091
 10
6.0925773282511315
 20
-0.08946356219740026
 10
6.073056436981538
 20
-0.06544296382850512
 10
6.0527028692632925
 20
-0.04212373092735722
 10
6.03154180565415
 20
-0.019534713045005425
 10
6.009599425711031
 20
0.0022961436580868355
 10
5.986902875601778
 20
0.023341830985829204
 10
5.963480234521086
 20
0.04357631211987856
 10
5.93936047995215
 20
0.0629745538312747
 10
5.9145734518169775
 20
0.08151255745046859
 10
5.8891498155596835
 20
0.09916738855744733
 10
7.299496587235922
 20
0.4770686670759367
 10
14.612239240309783
 20
-1.4823748212718297
 10
14.64227327799125
 20
-1.4898588658005196
 10
14.672551934661023
 20
-1.4962820497643636
 10
14.70303775086856
 20
-1.5016364266766815
 10
14.733693010874482
 20
-1.505915372332863
 10
14.764479789310819
 20
-1.5091135930055528
 10
14.795359998100658
 20
-1.5112271319938175
 10
14.82629543357909
 20
-1.5122533745182096
 10
14.85724782375712
 20
-1.5121910509556575
 10
14.888178875670114
 20
-1.5110402384101902
 10
14.919050322752234
 20
-1.5088023606175458
 10
14.94982397217818
 20
-1.5054801861837885
 10
14.980461752113683
 20
-1.5010778251601078
 10
15.01092575881637
 20
-1.4956007239580398
 10
15.041178303528632
 20
-1.4890556586114014
 10
15.071181959104528
 20
-1.4814507263932737
 10
15.100899606313035
 20
-1.4727953357984032
 10
15.13029447976038
 20
-1.4631001949034181
 10
15.159330213374588
 20
-1.4523772981192564
 10
15.187970885396027
 20
-1.4406399113521968
 10
15.216181062818258
 20
-1.4279025555918516
 10
15.243925845224219
 20
-1.414180988946422
 10
15.271170907963544
 20
-1.3994921871474464
 10
15.297882544617508
 20
-1.3838543225481548
 10
15.324027708699184
 20
-1.3672867416414178
 10
15.349574054537129
 20
-1.3498099411250954
 10
15.374489977292043
 20
-1.3314455425444078
 10
15.398744652056926
 20
-1.3122162655426888
 10
15.422308071992326
 20
-1.2921458997536215
 10
15.445151085449517
 20
-1.2712592753697276
 10
15.46724543203564
 20
-1.2495822324235228
 10
15.488563777576253
 20
-1.22714158881934
 10
15.509079747932027
 20
-1.2039651071553723
 10
15.528767961627644
 20
-1.1800814603769845
 10
15.547604061252706
 20
-1.1555201963037751
 10
15.565564743595651
 20
-1.1303117010742891
 10
15.582627788473495
 20
-1.1044871615535965
 10
15.598772086221679
 20
-1.0780785267502393
 10
15.613977663810054
 20
-1.0511184682903023
 10
15.628225709552616
 20
-1.0236403399974767
 10
15.641498596380558
 20
-0.9956781366291487
 10
15.6537799036497
 20
-0.9672664518195482
 10
15.665054437455396
 20
-0.9384404352819948
 10
15.675308249429797
 20
-0.9092357493231831
 10
15.684528653998157
 20
-0.879688524723316
 10
15.692704244072878
 20
-0.8498353160366562
 10
15.699824905165883
 20
-0.819713056367804
 10
15.705881827901813
 20
-0.7893590116796555
 10
15.710867518916608
 20
-0.7588107346895513
 10
15.714775810127982
 20
-0.7281060184106755
 10
15.717601866366309
 20
-0.6972828493961665
 10
15.719342191356453
 20
-0.6663793607437858
 10
15.719994632043274
 20
-0.6354337849192946
 10
15.71955838125524
 20
-0.6044844064568913
 10
15.71803397870304
 20
-0.5735695145952332
 10
15.715423310311891
 20
-0.5427273559076408
 10
15.711729605888337
 20
-0.5119960869850837
 10
15.706957435124465
 20
-0.48141372723048587
 10
15.701112701944517
 20
-0.45101811182276064
 10
15.694202637200753
 20
-0.4208468449087549
 10
15.68623578972781
 20
-0.3909372530810158
 10
15.67722201576639
 20
-0.3613263391989414
 10
15.667172466769607
 20
-0.33205073661043116
 10
15.656099575606838
 20
-0.30314666383068833
 10
15.644017041182344
 20
-0.27464987973423216
 10
15.630939811487558
 20
-0.24659563931555473
 10
15.616884065108081
 20
-0.21901865007316296
 10
15.601867191208235
 20
-0.1919530290709539
 10
15.585907768017925
 20
-0.16543226073005252
 10
15.569025539848468
 20
-0.1394891554033264
 10
15.551241392665773
 20
-0.11415580878383091
 10
15.53257732825113
 20
-0.08946356219740026
 10
15.513056436981536
 20
-0.06544296382850512
 10
15.49270286926329
 20
-0.04212373092735722
 10
15.471541805654148
 20
-0.019534713045005425
 10
15.449599425711028
 20
0.0022961436580868355
 10
15.426902875601776
 20
0.023341830985829204
 10
15.403480234521084
 20
0.04357631211987856
 10
15.379360479952148
 20
0.0629745538312747
 10
15.354573451816975
 20
0.08151255745046859
 10
15.329149815559681
 20
0.09916738855744733
 10
16.73949658723592
 20
0.47706866707593576
 10
24.05223924030978
 20
-1.4823748212718297
 10
24.08227327799125
 20
-1.4898588658005196
 10
24.112551934661017
 20
-1.4962820497643636
 10
24.14303775086856
 20
-1.5016364266766815
 10
24.17369301087448
 20
-1.505915372332863
 10
24.204479789310817
 20
-1.5091135930055528
 10
24.23535999810066
 20
-1.5112271319938175
 10
24.26629543357909
 20
-1.5122533745182096
 10
24.297247823757115
 20
-1.5121910509556575
 10
24.32817887567011
 20
-1.5110402384101902
 10
24.359050322752232
 20
-1.5088023606175458
 10
24.389823972178174
 20
-1.5054801861837885
 10
24.42046175211368
 20
-1.5010778251601078
 10
24.450925758816368
 20
-1.4956007239580398
 10
24.48117830352863
 20
-1.4890556586114014
 10
24.511181959104523
 20
-1.4814507263932737
 10
24.540899606313033
 20
-1.4727953357984032
 10
24.570294479760378
 20
-1.4631001949034181
 10
24.59933021337459
 20
-1.4523772981192564
 10
24.627970885396028
 20
-1.4406399113521968
 10
24.656181062818256
 20
-1.4279025555918516
 10
24.683925845224216
 20
-1.414180988946422
 10
24.711170907963538
 20
-1.3994921871474464
 10
24.737882544617502
 20
-1.3838543225481548
 10
24.76402770869918
 20
-1.3672867416414178
 10
24.789574054537123
 20
-1.3498099411250954
 10
24.814489977292038
 20
-1.3314455425444078
 10
24.838744652056924
 20
-1.3122162655426888
 10
24.862308071992327
 20
-1.2921458997536215
 10
24.885151085449515
 20
-1.2712592753697276
 10
24.907245432035634
 20
-1.2495822324235228
 10
24.92856377757625
 20
-1.22714158881934
 10
24.949079747932025
 20
-1.2039651071553723
 10
24.968767961627645
 20
-1.1800814603769845
 10
24.987604061252704
 20
-1.1555201963037751
 10
25.00556474359565
 20
-1.1303117010742891
 10
25.022627788473493
 20
-1.1044871615535965
 10
25.03877208622168
 20
-1.0780785267502393
 10
25.05397766381005
 20
-1.0511184682903023
 10
25.06822570955261
 20
-1.0236403399974767
 10
25.081498596380555
 20
-0.9956781366291487
 10
25.093779903649697
 20
-0.9672664518195482
 10
25.105054437455397
 20
-0.9384404352819948
 10
25.1153082494298
 20
-0.9092357493231831
 10
25.124528653998155
 20
-0.879688524723316
 10
25.132704244072876
 20
-0.8498353160366562
 10
25.13982490516588
 20
-0.819713056367804
 10
25.14588182790181
 20
-0.7893590116796555
 10
25.150867518916606
 20
-0.7588107346895513
 10
25.154775810127983
 20
-0.7281060184106755
 10
25.157601866366303
 20
-0.6972828493961665
 10
25.159342191356455
 20
-0.6663793607437858
 10
25.159994632043276
 20
-0.6354337849192946
 10
25.15955838125524
 20
-0.6044844064568913
 10
25.158033978703042
 20
-0.5735695145952332
 10
25.15542331031189
 20
-0.5427273559076408
 10
25.15172960588833
 20
-0.5119960869850837
 10
25.146957435124463
 20
-0.48141372723048587
 10
25.141112701944515
 20
-0.45101811182276064
 10
25.134202637200755
 20
-0.4208468449087549
 10
25.126235789727804
 20
-0.3909372530810158
 10
25.117222015766387
 20
-0.3613263391989414
 10
25.107172466769605
 20
-0.33205073661043116
 10
25.096099575606836
 20
-0.30314666383068833
 10
25.084017041182342
 20
-0.27464987973423216
 10
25.070939811487555
 20
-0.24659563931555473
 10
25.05688406510808
 20
-0.21901865007316296
 10
25.04186719120823
 20
-0.1919530290709539
 10
25.02590776801792
 20
-0.16543226073005252
 10
25.009025539848466
 20
-0.1394891554033264
 10
24.99124139266577
 20
-0.11415580878383091
 10
24.972577328251127
 20
-0.08946356219740026
 10
24.95305643698153
 20
-0.06544296382850512
 10
24.932702869263284
 20
-0.04212373092735722
 10
24.91154180565415
 20
-0.019534713045005425
 10
24.88959942571103
 20
0.0022961436580868355
 10
24.86690287560177
 20
0.023341830985829204
 10
24.843480234521078
 20
0.04357631211987856
 10
24.81936047995215
 20
0.0629745538312747
 10
24.794573451816973
 20
0.08151255745046859
 10
24.76914981555968
 20
0.09916738855744733
 10
26.17949658723592
 20
0.47706866707593715
 10
33.49223924030978
 20
-1.4823748212718297
 10
33.522273277991246
 20
-1.4898588658005196
 10
33.55255193466101
 20
-1.4962820497643636
 10
33.583037750868556
 20
-1.5016364266766815
 10
33.61369301087448
 20
-1.505915372332863
 10
33.644479789310815
 20
-1.5091135930055528
 10
33.67535999810066
 20
-1.5112271319938175
 10
33.706295433579086
 20
-1.5122533745182096
 10
33.737247823757116
 20
-1.5121910509556575
 10
33.7681788756701
 20
-1.5110402384101902
 10
33.79905032275223
 20
-1.5088023606175458
 10
33.829823972178175
 20
-1.5054801861837885
 10
33.86046175211368
 20
-1.5010778251601078
 10
33.890925758816365
 20
-1.4956007239580398
 10
33.92117830352863
 20
-1.4890556586114014
 10
33.95118195910452
 20
-1.4814507263932737
 10
33.98089960631303
 20
-1.4727953357984032
 10
34.010294479760375
 20
-1.4631001949034181
 10
34.03933021337458
 20
-1.4523772981192564
 10
34.06797088539602
 20
-1.4406399113521968
 10
34.09618106281825
 20
-1.4279025555918516
 10
34.123925845224214
 20
-1.414180988946422
 10
34.15117090796353
 20
-1.3994921871474464
 10
34.1778825446175
 20
-1.3838543225481548
 10
34.20402770869918
 20
-1.3672867416414178
 10
34.229574054537125
 20
-1.3498099411250954
 10
34.25448997729204
 20
-1.3314455425444078
 10
34.27874465205692
 20
-1.3122162655426888
 10
34.30230807199232
 20
-1.2921458997536215
 10
34.32515108544951
 20
-1.2712592753697276
 10
34.347245432035635
 20
-1.2495822324235228
 10
34.36856377757625
 20
-1.22714158881934
 10
34.38907974793202
 20
-1.2039651071553723
 10
34.40876796162764
 20
-1.1800814603769845
 10
34.4276040612527
 20
-1.1555201963037751
 10
34.44556474359565
 20
-1.1303117010742891
 10
34.46262778847349
 20
-1.1044871615535965
 10
34.47877208622168
 20
-1.0780785267502393
 10
34.49397766381004
 20
-1.0511184682903023
 10
34.50822570955261
 20
-1.0236403399974767
 10
34.52149859638055
 20
-0.9956781366291487
 10
34.533779903649695
 20
-0.9672664518195482
 10
34.54505443745539
 20
-0.9384404352819948
 10
34.5553082494298
 20
-0.9092357493231831
 10
34.56452865399815
 20
-0.879688524723316
 10
34.572704244072874
 20
-0.8498353160366562
 10
34.57982490516588
 20
-0.819713056367804
 10
34.58588182790181
 20
-0.7893590116796555
 10
34.5908675189166
 20
-0.7588107346895513
 10
34.59477581012798
 20
-0.7281060184106755
 10
34.597601866366304
 20
-0.6972828493961665
 10
34.59934219135645
 20
-0.6663793607437858
 10
34.59999463204328
 20
-0.6354337849192946
 10
34.599558381255235
 20
-0.6044844064568913
 10
34.59803397870304
 20
-0.5735695145952332
 10
34.59542331031189
 20
-0.5427273559076408
 10
34.59172960588833
 20
-0.5119960869850837
 10
34.58695743512446
 20
-0.48141372723048587
 10
34.58111270194451
 20
-0.45101811182276064
 10
34.57420263720075
 20
-0.4208468449087549
 10
34.5662357897278
 20
-0.3909372530810158
 10
34.557222015766385
 20
-0.3613263391989414
 10
34.5471724667696
 20
-0.33205073661043116
 10
34.53609957560683
 20
-0.30314666383068833
 10
34.52401704118234
 20
-0.27464987973423216
 10
34.51093981148755
 20
-0.24659563931555473
 10
34.49688406510808
 20
-0.21901865007316296
 10
34.481867191208224
 20
-0.1919530290709539
 10
34.465907768017914
 20
-0.16543226073005252
 10
34.44902553984846
 20
-0.1394891554033264
 10
34.43124139266577
 20
-0.11415580878383091
 10
34.412577328251125
 20
-0.08946356219740026
 10
34.393056436981524
 20
-0.06544296382850512
 10
34.372702869263286
 20
-0.04212373092735722
 10
34.35154180565414
 20
-0.019534713045005425
 10
34.329599425711024
 20
0.0022961436580868355
 10
34.306902875601764
 20
0.023341830985829204
 10
34.28348023452108
 20
0.04357631211987856
 10
34.25936047995215
 20
0.0629745538312747
 10
34.23457345181697
 20
0.08151255745046859
 10
34.20914981555968
 20
0.09916738855744733
 10
35.61949658723592
 20
0.47706866707593737
 10
42.932239240309784
 20
-1.4823748212718297
 10
42.96227327799125
 20
-1.4898588658005196
 10
42.992551934661016
 20
-1.4962820497643636
 10
43.02303775086856
 20
-1.5016364266766815
 10
43.05369301087448
 20
-1.505915372332863
 10
43.08447978931081
 20
-1.5091135930055528
 10
43.11535999810066
 20
-1.5112271319938175
 10
43.14629543357909
 20
-1.5122533745182096
 10
43.177247823757114
 20
-1.5121910509556575
 10
43.20817887567011
 20
-1.5110402384101902
 10
43.239050322752234
 20
-1.5088023606175458
 10
43.26982397217817
 20
-1.5054801861837885
 10
43.30046175211368
 20
-1.5010778251601078
 10
43.33092575881636
 20
-1.4956007239580398
 10
43.36117830352863
 20
-1.4890556586114014
 10
43.39118195910452
 20
-1.4814507263932737
 10
43.42089960631303
 20
-1.4727953357984032
 10
43.45029447976038
 20
-1.4631001949034181
 10
43.47933021337459
 20
-1.4523772981192564
 10
43.50797088539603
 20
-1.440639911352197
 10
43.53618106281825
 20
-1.4279025555918516
 10
43.56392584522422
 20
-1.414180988946422
 10
43.59117090796354
 20
-1.3994921871474464
 10
43.6178825446175
 20
-1.3838543225481552
 10
43.64402770869918
 20
-1.3672867416414178
 10
43.66957405453712
 20
-1.3498099411250954
 10
43.69448997729204
 20
-1.331445542544408
 10
43.71874465205692
 20
-1.312216265542689
 10
43.742308071992326
 20
-1.2921458997536215
 10
43.76515108544952
 20
-1.271259275369728
 10
43.78724543203563
 20
-1.2495822324235228
 10
43.80856377757625
 20
-1.22714158881934
 10
43.82907974793203
 20
-1.2039651071553725
 10
43.848767961627644
 20
-1.180081460376985
 10
43.867604061252706
 20
-1.1555201963037751
 10
43.88556474359565
 20
-1.1303117010742898
 10
43.902627788473495
 20
-1.1044871615535965
 10
43.91877208622168
 20
-1.0780785267502393
 10
43.93397766381005
 20
-1.051118468290303
 10
43.94822570955261
 20
-1.0236403399974767
 10
43.96149859638056
 20
-0.9956781366291491
 10
43.9737799036497
 20
-0.9672664518195486
 10
43.985054437455396
 20
-0.9384404352819948
 10
43.9953082494298
 20
-0.9092357493231834
 10
44.00452865399815
 20
-0.8796885247233164
 10
44.01270424407287
 20
-0.8498353160366562
 10
44.019824905165876
 20
-0.8197130563678043
 10
44.025881827901806
 20
-0.7893590116796558
 10
44.03086751891661
 20
-0.7588107346895513
 10
44.03477581012798
 20
-0.7281060184106762
 10
44.0376018663663
 20
-0.6972828493961669
 10
44.039342191356454
 20
-0.6663793607437858
 10
44.039994632043275
 20
-0.6354337849192954
 10
44.03955838125524
 20
-0.6044844064568913
 10
44.03803397870304
 20
-0.5735695145952336
 10
44.03542331031189
 20
-0.5427273559076415
 10
44.03172960588833
 20
-0.5119960869850837
 10
44.026957435124466
 20
-0.48141372723048625
 10
44.02111270194451
 20
-0.451018111822761
 10
44.01420263720075
 20
-0.4208468449087549
 10
44.0062357897278
 20
-0.3909372530810161
 10
43.99722201576639
 20
-0.3613263391989418
 10
43.9871724667696
 20
-0.33205073661043116
 10
43.97609957560684
 20
-0.3031466638306894
 10
43.96401704118234
 20
-0.2746498797342325
 10
43.95093981148755
 20
-0.24659563931555506
 10
43.936884065108075
 20
-0.21901865007316335
 10
43.92186719120823
 20
-0.19195302907095418
 10
43.90590776801792
 20
-0.1654322607300529
 10
43.88902553984846
 20
-0.13948915540332668
 10
43.87124139266577
 20
-0.11415580878383125
 10
43.85257732825113
 20
-0.08946356219740059
 10
43.83305643698153
 20
-0.06544296382850545
 10
43.81270286926328
 20
-0.04212373092735755
 10
43.79154180565415
 20
-0.019534713045005758
 10
43.76959942571103
 20
0.0022961436580866135
 10
43.74690287560177
 20
0.02334183098582865
 10
43.72348023452108
 20
0.04357631211987856
 10
43.69936047995215
 20
0.06297455383127426
 10
43.674573451816975
 20
0.08151255745046804
 10
43.64914981555968
 20
0.09916738855744689
 10
45.05949658723592
 20
0.4770686670759371
 10
49.34
 20
-0.6698887655728626
 10
50.0
 20
-0.6698887655728626
 10
50.0
 20
-0.3593059114498377
210
0.0
220
-1.0
230
0.0
  0
LWPOLYLINE
  5
32
330
17
100
AcDbEntity
  8
ISLAND
100
AcDbPolyline
 90
107
 70
1
 10
43.02952838848056
 20
-1.197494731712886
 10
43.00988495384054
 20
-1.1925970733851092
 10
40.91905208300936
 20
-0.6323600941374495
 10
43.00988495384054
 20
-0.07212311488978995
 10
43.02952838848056
 20
-0.06722545656201317
 10
43.04933078268161
 20
-0.06301632773780452
 10
43.069268010276666
 20
-0.05950085659226967
 10
43.08931578082502
 20
-0.056683326185482774
 10
43.109449669206356
 20
-0.05456716924423721
 10
43.129645145379094
 20
-0.0531549639797968
 10
43.14987760426638
 20
-0.052448430946742675
 10
43.17012239573363
 20
-0.052448430946742675
 10
43.19035485462091
 20
-0.0531549639797968
 10
43.210550330793644
 20
-0.05456716924423721
 10
43.23068421917499
 20
-0.056683326185482774
 10
43.250731989723334
 20
-0.05950085659226967
 10
43.2706692173184
 20
-0.06301632773780452
 10
43.29047161151944
 20
-0.06722545656201317
 10
43.31011504615946
 20
-0.07212311488978995
 10
43.32957558873919
 20
-0.07770333567888899
 10
43.34882952958515
 20
-0.08395932028984576
 10
43.367853410736274
 20
-0.09088344676907256
 10
43.38662405452378
 20
-0.09846727913503417
 10
43.405118591809604
 20
-0.10670157765619259
 10
43.423314489848934
 20
-0.11557631010819625
 10
43.441189579742876
 20
-0.1250806639966
 10
43.45872208344783
 20
-0.1352030597302244
 10
43.47589064030872
 20
-0.1459311647291036
 10
43.492674333083606
 20
-0.1572519084498344
 10
43.50905271342819
 20
-0.1691514983100198
 10
43.52500582680891
 20
-0.18161543649240636
 10
43.540514236814495
 20
-0.19462853760824173
 10
43.55555904883625
 20
-0.20817494719833063
 10
43.570121933088195
 20
-0.22223816104925198
 10
43.58418514693912
 20
-0.23680104530120044
 10
43.59773155652921
 20
-0.25184585732295534
 10
43.61074465764504
 20
-0.2673542673285439
 10
43.62320859582743
 20
-0.28330738070926165
 10
43.63510818568761
 20
-0.2996857610538429
 10
43.646428929408344
 20
-0.3164694538287337
 10
43.65715703440723
 20
-0.333638010689618
 10
43.66727943014085
 20
-0.351170514394574
 10
43.676783784029254
 20
-0.36904560428851235
 10
43.685658516481254
 20
-0.3872415023278438
 10
43.693892815002414
 20
-0.4057360396136708
 10
43.70147664736838
 20
-0.4245066834011754
 10
43.7084007738476
 20
-0.4435305645522987
 10
43.71465675845856
 20
-0.4627845053982623
 10
43.72023697924766
 20
-0.4822450479779874
 10
43.72513463757544
 20
-0.5018884826180077
 10
43.729343766399644
 20
-0.5216908768190535
 10
43.73285923754518
 20
-0.5416281044141156
 10
43.735676767951965
 20
-0.561675874962464
 10
43.73779292489321
 20
-0.5818097633438077
 10
43.73920513015765
 20
-0.6020052395165422
 10
43.73991166319071
 20
-0.6222376984038251
 10
43.73991166319071
 20
-0.642482489871074
 10
43.73920513015765
 20
-0.6627149487583568
 10
43.73779292489321
 20
-0.6829104249310911
 10
43.735676767951965
 20
-0.703044313312435
 10
43.73285923754518
 20
-0.7230920838607834
 10
43.729343766399644
 20
-0.7430293114558455
 10
43.72513463757544
 20
-0.7628317056568912
 10
43.72023697924766
 20
-0.7824751402969116
 10
43.71465675845856
 20
-0.8019356828766369
 10
43.7084007738476
 20
-0.8211896237226004
 10
43.70147664736838
 20
-0.8402135048737238
 10
43.693892815002414
 20
-0.8589841486612282
 10
43.685658516481254
 20
-0.8774786859470551
 10
43.676783784029254
 20
-0.8956745839863866
 10
43.66727943014085
 20
-0.9135496738803249
 10
43.65715703440723
 20
-0.9310821775852809
 10
43.646428929408344
 20
-0.9482507344461653
 10
43.63510818568761
 20
-0.9650344272210563
 10
43.62320859582743
 20
-0.9814128075656376
 10
43.61074465764504
 20
-0.9973659209463553
 10
43.59773155652921
 20
-1.0128743309519437
 10
43.58418514693912
 20
-1.0279191429736985
 10
43.570121933088195
 20
-1.042482027225647
 10
43.55555904883625
 20
-1.0565452410765683
 10
43.540514236814495
 20
-1.0700916506666573
 10
43.52500582680891
 20
-1.0831047517824923
 10
43.50905271342819
 20
-1.0955686899648793
 10
43.492674333083606
 20
-1.1074682798250646
 10
43.47589064030872
 20
-1.1187890235457956
 10
43.45872208344783
 20
-1.1295171285446746
 10
43.441189579742876
 20
-1.139639524278299
 10
43.423314489848934
 20
-1.149143878166703
 10
43.405118591809604
 20
-1.1580186106187065
 10
43.38662405452378
 20
-1.1662529091398648
 10
43.367853410736274
 20
-1.1738367415058264
 10
43.34882952958515
 20
-1.1807608679850534
 10
43.32957558873919
 20
-1.18701685259601
 10
43.31011504615946
 20
-1.1925970733851092
 10
43.29047161151944
 20
-1.197494731712886
 10
43.2706692173184
 20
-1.2017038605370947
 10
43.250731989723334
 20
-1.2052193316826294
 10
43.23068421917499
 20
-1.2080368620894162
 10
43.210550330793644
 20
-1.210153019030662
 10
43.19035485462091
 20
-1.2115652242951023
 10
43.17012239573363
 20
-1.2122717573281565
 10
43.14987760426638
 20
-1.2122717573281565
 10
43.129645145379094
 20
-1.2115652242951023
 10
43.109449669206356
 20
-1.210153019030662
 10
43.08931578082502
 20
-1.2080368620894162
 10
43.069268010276666
 20
-1.2052193316826294
 10
43.04933078268161
 20
-1.2017038605370947
210
0.0
220
-1.0
230
0.0
  0
LWPOLYLINE
  5
33
330
17
100
AcDbEntity
  8
ISLAND
100
AcDbPolyline
 90
107
 70
1
 10
33.58952838848056
 20
-1.197494731712886
 10
33.569884953840536
 20
-1.1925970733851092
 10
31.47905208300936
 20
-0.6323600941374495
 10
33.569884953840536
 20
-0.07212311488978995
 10
33.58952838848056
 20
-0.06722545656201317
 10
33.6093307826816
 20
-0.06301632773780452
 10
33.62926801027666
 20
-0.05950085659226967
 10
33.64931578082501
 20
-0.056683326185482774
 10
33.66944966920636
 20
-0.05456716924423721
 10
33.68964514537909
 20
-0.0531549639797968
 10
33.709877604266374
 20
-0.052448430946742675
 10
33.73012239573362
 20
-0.052448430946742675
 10
33.75035485462091
 20
-0.0531549639797968
 10
33.77055033079364
 20
-0.05456716924423721
 10
33.790684219174985
 20
-0.056683326185482774
 10
33.81073198972334
 20
-0.05950085659226967
 10
33.830669217318395
 20
-0.06301632773780452
 10
33.85047161151944
 20
-0.06722545656201317
 10
33.87011504615946
 20
-0.07212311488978995
 10
33.88957558873919
 20
-0.07770333567888899
 10
33.90882952958515
 20
-0.08395932028984576
 10
33.927853410736276
 20
-0.09088344676907256
 10
33.94662405452378
 20
-0.09846727913503417
 10
33.965118591809606
 20
-0.10670157765619259
 10
33.98331448984894
 20
-0.11557631010819625
 10
34.00118957974287
 20
-0.1250806639966
 10
34.01872208344783
 20
-0.1352030597302244
 10
34.035890640308715
 20
-0.1459311647291036
 10
34.0526743330836
 20
-0.1572519084498344
 10
34.069052713428185
 20
-0.1691514983100198
 10
34.0850058268089
 20
-0.18161543649240636
 10
34.10051423681449
 20
-0.19462853760824173
 10
34.115559048836246
 20
-0.20817494719833063
 10
34.1301219330882
 20
-0.22223816104925198
 10
34.144185146939115
 20
-0.23680104530120044
 10
34.15773155652921
 20
-0.25184585732295534
 10
34.170744657645045
 20
-0.2673542673285439
 10
34.18320859582743
 20
-0.28330738070926165
 10
34.195108185687616
 20
-0.2996857610538429
 10
34.20642892940835
 20
-0.3164694538287337
 10
34.21715703440722
 20
-0.333638010689618
 10
34.22727943014085
 20
-0.351170514394574
 10
34.23678378402926
 20
-0.36904560428851235
 10
34.24565851648126
 20
-0.3872415023278438
 10
34.253892815002416
 20
-0.4057360396136708
 10
34.261476647368376
 20
-0.4245066834011754
 10
34.2684007738476
 20
-0.4435305645522987
 10
34.27465675845856
 20
-0.4627845053982623
 10
34.28023697924766
 20
-0.4822450479779874
 10
34.28513463757544
 20
-0.5018884826180077
 10
34.28934376639964
 20
-0.5216908768190535
 10
34.29285923754518
 20
-0.5416281044141156
 10
34.29567676795197
 20
-0.561675874962464
 10
34.297792924893216
 20
-0.5818097633438077
 10
34.29920513015765
 20
-0.6020052395165422
 10
34.299911663190706
 20
-0.6222376984038251
 10
34.299911663190706
 20
-0.642482489871074
 10
34.29920513015765
 20
-0.6627149487583568
 10
34.297792924893216
 20
-0.6829104249310911
 10
34.29567676795197
 20
-0.703044313312435
 10
34.29285923754518
 20
-0.7230920838607834
 10
34.28934376639964
 20
-0.7430293114558455
 10
34.28513463757544
 20
-0.7628317056568912
 10
34.28023697924766
 20
-0.7824751402969116
 10
34.27465675845856
 20
-0.8019356828766369
 10
34.2684007738476
 20
-0.8211896237226004
 10
34.261476647368376
 20
-0.8402135048737238
 10
34.253892815002416
 20
-0.8589841486612282
 10
34.24565851648126
 20
-0.8774786859470551
 10
34.23678378402926
 20
-0.8956745839863866
 10
34.22727943014085
 20
-0.9135496738803249
 10
34.21715703440722
 20
-0.9310821775852809
 10
34.20642892940835
 20
-0.9482507344461653
 10
34.195108185687616
 20
-0.9650344272210563
 10
34.18320859582743
 20
-0.9814128075656376
 10
34.170744657645045
 20
-0.9973659209463553
 10
34.15773155652921
 20
-1.0128743309519437
 10
34.144185146939115
 20
-1.0279191429736985
 10
34.1301219330882
 20
-1.042482027225647
 10
34.115559048836246
 20
-1.0565452410765683
 10
34.10051423681449
 20
-1.0700916506666573
 10
34.0850058268089
 20
-1.0831047517824923
 10
34.069052713428185
 20
-1.0955686899648793
 10
34.05267433308361
 20
-1.1074682798250646
 10
34.035890640308715
 20
-1.1187890235457956
 10
34.01872208344783
 20
-1.1295171285446746
 10
34.00118957974287
 20
-1.139639524278299
 10
33.98331448984894
 20
-1.149143878166703
 10
33.965118591809606
 20
-1.1580186106187065
 10
33.94662405452378
 20
-1.1662529091398648
 10
33.927853410736276
 20
-1.1738367415058264
 10
33.90882952958515
 20
-1.1807608679850534
 10
33.88957558873919
 20
-1.18701685259601
 10
33.87011504615946
 20
-1.1925970733851092
 10
33.85047161151944
 20
-1.197494731712886
 10
33.830669217318395
 20
-1.2017038605370947
 10
33.81073198972334
 20
-1.2052193316826294
 10
33.790684219174985
 20
-1.2080368620894162
 10
33.77055033079364
 20
-1.210153019030662
 10
33.75035485462091
 20
-1.2115652242951023
 10
33.73012239573362
 20
-1.2122717573281565
 10
33.709877604266374
 20
-1.2122717573281565
 10
33.68964514537909
 20
-1.2115652242951023
 10
33.66944966920636
 20
-1.210153019030662
 10
33.64931578082501
 20
-1.2080368620894162
 10
33.62926801027666
 20
-1.2052193316826294
 10
33.6093307826816
 20
-1.2017038605370947
210
0.0
220
-1.0
230
0.0
  0
LWPOLYLINE
  5
34
330
17
100
AcDbEntity
  8
ISLAND
100
AcDbPolyline
 90
107
 70
1
 10
24.149528388480558
 20
-1.197494731712886
 10
24.129884953840538
 20
-1.1925970733851092
 10
22.039052083009363
 20
-0.6323600941374495
 10
24.129884953840538
 20
-0.07212311488978995
 10
24.149528388480558
 20
-0.06722545656201317
 10
24.169330782681605
 20
-0.06301632773780452
 10
24.189268010276667
 20
-0.05950085659226967
 10
24.209315780825015
 20
-0.056683326185482774
 10
24.22944966920636
 20
-0.05456716924423721
 10
24.249645145379095
 20
-0.0531549639797968
 10
24.269877604266377
 20
-0.052448430946742675
 10
24.290122395733626
 20
-0.052448430946742675
 10
24.310354854620908
 20
-0.0531549639797968
 10
24.330550330793642
 20
-0.05456716924423721
 10
24.350684219174987
 20
-0.056683326185482774
 10
24.370731989723335
 20
-0.05950085659226967
 10
24.390669217318397
 20
-0.06301632773780452
 10
24.410471611519444
 20
-0.06722545656201317
 10
24.430115046159464
 20
-0.07212311488978995
 10
24.44957558873919
 20
-0.07770333567888899
 10
24.46882952958515
 20
-0.08395932028984576
 10
24.487853410736275
 20
-0.09088344676907256
 10
24.50662405452378
 20
-0.09846727913503417
 10
24.52511859180961
 20
-0.10670157765619259
 10
24.54331448984894
 20
-0.11557631010819625
 10
24.561189579742877
 20
-0.1250806639966
 10
24.578722083447833
 20
-0.1352030597302244
 10
24.595890640308717
 20
-0.1459311647291036
 10
24.612674333083607
 20
-0.1572519084498344
 10
24.62905271342819
 20
-0.1691514983100198
 10
24.645005826808905
 20
-0.18161543649240636
 10
24.660514236814496
 20
-0.19462853760824173
 10
24.67555904883625
 20
-0.20817494719833063
 10
24.6901219330882
 20
-0.22223816104925198
 10
24.70418514693912
 20
-0.23680104530120044
 10
24.71773155652921
 20
-0.25184585732295534
 10
24.730744657645044
 20
-0.2673542673285439
 10
24.74320859582743
 20
-0.28330738070926165
 10
24.755108185687618
 20
-0.2996857610538429
 10
24.766428929408345
 20
-0.3164694538287337
 10
24.777157034407225
 20
-0.333638010689618
 10
24.78727943014085
 20
-0.351170514394574
 10
24.796783784029255
 20
-0.36904560428851235
 10
24.80565851648126
 20
-0.3872415023278438
 10
24.813892815002415
 20
-0.4057360396136708
 10
24.821476647368378
 20
-0.4245066834011754
 10
24.828400773847605
 20
-0.4435305645522987
 10
24.83465675845856
 20
-0.4627845053982623
 10
24.84023697924766
 20
-0.4822450479779874
 10
24.845134637575438
 20
-0.5018884826180077
 10
24.849343766399645
 20
-0.5216908768190535
 10
24.852859237545182
 20
-0.5416281044141156
 10
24.85567676795197
 20
-0.561675874962464
 10
24.857792924893214
 20
-0.5818097633438077
 10
24.859205130157655
 20
-0.6020052395165422
 10
24.859911663190708
 20
-0.6222376984038251
 10
24.859911663190708
 20
-0.642482489871074
 10
24.859205130157655
 20
-0.6627149487583568
 10
24.857792924893214
 20
-0.6829104249310911
 10
24.85567676795197
 20
-0.703044313312435
 10
24.852859237545182
 20
-0.7230920838607834
 10
24.849343766399645
 20
-0.7430293114558455
 10
24.845134637575438
 20
-0.7628317056568912
 10
24.84023697924766
 20
-0.7824751402969116
 10
24.83465675845856
 20
-0.8019356828766369
 10
24.828400773847605
 20
-0.8211896237226004
 10
24.821476647368378
 20
-0.8402135048737238
 10
24.813892815002415
 20
-0.8589841486612282
 10
24.80565851648126
 20
-0.8774786859470551
 10
24.796783784029255
 20
-0.8956745839863866
 10
24.78727943014085
 20
-0.9135496738803249
 10
24.777157034407225
 20
-0.9310821775852809
 10
24.76642892940835
 20
-0.9482507344461653
 10
24.755108185687618
 20
-0.9650344272210563
 10
24.74320859582743
 20
-0.9814128075656376
 10
24.730744657645044
 20
-0.9973659209463553
 10
24.71773155652921
 20
-1.0128743309519437
 10
24.70418514693912
 20
-1.0279191429736985
 10
24.6901219330882
 20
-1.042482027225647
 10
24.67555904883625
 20
-1.0565452410765683
 10
24.660514236814496
 20
-1.0700916506666573
 10
24.64500582680891
 20
-1.0831047517824923
 10
24.629052713428187
 20
-1.0955686899648793
 10
24.612674333083607
 20
-1.1074682798250646
 10
24.595890640308717
 20
-1.1187890235457956
 10
24.578722083447833
 20
-1.1295171285446746
 10
24.561189579742877
 20
-1.139639524278299
 10
24.54331448984894
 20
-1.149143878166703
 10
24.52511859180961
 20
-1.1580186106187065
 10
24.50662405452378
 20
-1.1662529091398648
 10
24.487853410736275
 20
-1.1738367415058264
 10
24.46882952958515
 20
-1.1807608679850534
 10
24.44957558873919
 20
-1.18701685259601
 10
24.430115046159464
 20
-1.1925970733851092
 10
24.410471611519444
 20
-1.197494731712886
 10
24.390669217318397
 20
-1.2017038605370947
 10
24.370731989723335
 20
-1.2052193316826294
 10
24.350684219174987
 20
-1.2080368620894162
 10
24.330550330793642
 20
-1.210153019030662
 10
24.310354854620908
 20
-1.2115652242951023
 10
24.290122395733626
 20
-1.2122717573281565
 10
24.269877604266377
 20
-1.2122717573281565
 10
24.249645145379095
 20
-1.2115652242951023
 10
24.22944966920636
 20
-1.210153019030662
 10
24.209315780825015
 20
-1.2080368620894162
 10
24.189268010276667
 20
-1.2052193316826294
 10
24.169330782681605
 20
-1.2017038605370947
210
0.0
220
-1.0
230
0.0
  0
LWPOLYLINE
  5
35
330
17
100
AcDbEntity
  8
ISLAND
100
AcDbPolyline
 90
107
 70
1
 10
14.729330782681608
 20
-1.2017038605370947
 10
14.709528388480564
 20
-1.197494731712886
 10
14.68988495384054
 20
-1.1925970733851092
 10
12.599052083009369
 20
-0.6323600941374495
 10
14.68988495384054
 20
-0.07212311488978995
 10
14.709528388480564
 20
-0.06722545656201317
 10
14.729330782681608
 20
-0.06301632773780452
 10
14.749268010276673
 20
-0.05950085659226967
 10
14.769315780825018
 20
-0.056683326185482774
 10
14.789449669206363
 20
-0.05456716924423721
 10
14.809645145379093
 20
-0.0531549639797968
 10
14.829877604266379
 20
-0.052448430946742675
 10
14.850122395733628
 20
-0.052448430946742675
 10
14.870354854620913
 20
-0.0531549639797968
 10
14.890550330793644
 20
-0.05456716924423721
 10
14.910684219174989
 20
-0.056683326185482774
 10
14.930731989723334
 20
-0.05950085659226967
 10
14.9506692173184
 20
-0.06301632773780452
 10
14.970471611519443
 20
-0.06722545656201317
 10
14.990115046159467
 20
-0.07212311488978995
 10
15.009575588739189
 20
-0.07770333567888899
 10
15.028829529585153
 20
-0.08395932028984576
 10
15.04785341073628
 20
-0.09088344676907256
 10
15.066624054523786
 20
-0.09846727913503417
 10
15.08511859180961
 20
-0.10670157765619259
 10
15.103314489848941
 20
-0.11557631010819625
 10
15.121189579742882
 20
-0.1250806639966
 10
15.138722083447831
 20
-0.1352030597302244
 10
15.15589064030872
 20
-0.1459311647291036
 10
15.172674333083613
 20
-0.1572519084498344
 10
15.18905271342819
 20
-0.1691514983100198
 10
15.205005826808907
 20
-0.18161543649240636
 10
15.220514236814495
 20
-0.19462853760824173
 10
15.235559048836251
 20
-0.20817494719833063
 10
15.250121933088202
 20
-0.22223816104925198
 10
15.26418514693912
 20
-0.23680104530120044
 10
15.277731556529211
 20
-0.25184585732295534
 10
15.29074465764505
 20
-0.2673542673285439
 10
15.303208595827435
 20
-0.28330738070926165
 10
15.31510818568762
 20
-0.2996857610538429
 10
15.326428929408351
 20
-0.3164694538287337
 10
15.337157034407227
 20
-0.333638010689618
 10
15.347279430140851
 20
-0.351170514394574
 10
15.356783784029254
 20
-0.36904560428851235
 10
15.365658516481261
 20
-0.3872415023278438
 10
15.37389281500242
 20
-0.4057360396136708
 10
15.38147664736838
 20
-0.4245066834011754
 10
15.388400773847607
 20
-0.4435305645522987
 10
15.394656758458567
 20
-0.4627845053982623
 10
15.400236979247666
 20
-0.4822450479779874
 10
15.405134637575436
 20
-0.5018884826180077
 10
15.409343766399651
 20
-0.5216908768190535
 10
15.412859237545184
 20
-0.5416281044141156
 10
15.415676767951972
 20
-0.561675874962464
 10
15.417792924893213
 20
-0.5818097633438077
 10
15.419205130157657
 20
-0.6020052395165422
 10
15.41991166319071
 20
-0.6222376984038251
 10
15.41991166319071
 20
-0.642482489871074
 10
15.419205130157657
 20
-0.6627149487583568
 10
15.417792924893213
 20
-0.6829104249310911
 10
15.415676767951972
 20
-0.703044313312435
 10
15.412859237545184
 20
-0.7230920838607834
 10
15.409343766399651
 20
-0.7430293114558455
 10
15.405134637575436
 20
-0.7628317056568912
 10
15.400236979247666
 20
-0.7824751402969116
 10
15.394656758458567
 20
-0.8019356828766369
 10
15.388400773847607
 20
-0.8211896237226004
 10
15.38147664736838
 20
-0.8402135048737238
 10
15.37389281500242
 20
-0.8589841486612282
 10
15.365658516481261
 20
-0.8774786859470551
 10
15.356783784029254
 20
-0.8956745839863866
 10
15.347279430140851
 20
-0.9135496738803249
 10
15.337157034407227
 20
-0.9310821775852809
 10
15.326428929408351
 20
-0.9482507344461653
 10
15.31510818568762
 20
-0.9650344272210563
 10
15.303208595827435
 20
-0.9814128075656376
 10
15.29074465764505
 20
-0.9973659209463553
 10
15.277731556529211
 20
-1.0128743309519437
 10
15.26418514693912
 20
-1.0279191429736985
 10
15.250121933088202
 20
-1.042482027225647
 10
15.235559048836251
 20
-1.0565452410765683
 10
15.220514236814495
 20
-1.0700916506666573
 10
15.205005826808907
 20
-1.0831047517824923
 10
15.18905271342819
 20
-1.0955686899648793
 10
15.172674333083613
 20
-1.1074682798250646
 10
15.15589064030872
 20
-1.1187890235457956
 10
15.138722083447838
 20
-1.1295171285446746
 10
15.121189579742875
 20
-1.139639524278299
 10
15.103314489848941
 20
-1.149143878166703
 10
15.08511859180961
 20
-1.1580186106187065
 10
15.066624054523786
 20
-1.1662529091398648
 10
15.04785341073628
 20
-1.1738367415058264
 10
15.028829529585153
 20
-1.1807608679850534
 10
15.009575588739189
 20
-1.18701685259601
 10
14.990115046159467
 20
-1.1925970733851092
 10
14.970471611519443
 20
-1.197494731712886
 10
14.9506692173184
 20
-1.2017038605370947
 10
14.930731989723334
 20
-1.2052193316826294
 10
14.910684219174989
 20
-1.2080368620894162
 10
14.890550330793644
 20
-1.210153019030662
 10
14.870354854620913
 20
-1.2115652242951023
 10
14.850122395733628
 20
-1.2122717573281565
 10
14.829877604266379
 20
-1.2122717573281565
 10
14.809645145379093
 20
-1.2115652242951023
 10
14.789449669206363
 20
-1.210153019030662
 10
14.769315780825018
 20
-1.2080368620894162
 10
14.749268010276673
 20
-1.2052193316826294
210
0.0
220
-1.0
230
0.0
  0
LWPOLYLINE
  5
36
330
17
100
AcDbEntity
  8
ISLAND
100
AcDbPolyline
 90
107
 70
1
 10
5.28933078268161
 20
-1.2017038605370947
 10
5.269528388480566
 20
-1.197494731712886
 10
5.249884953840542
 20
-1.1925970733851092
 10
3.159052083009371
 20
-0.6323600941374495
 10
5.249884953840542
 20
-0.07212311488978995
 10
5.269528388480566
 20
-0.06722545656201317
 10
5.28933078268161
 20
-0.06301632773780452
 10
5.309268010276675
 20
-0.05950085659226967
 10
5.32931578082502
 20
-0.056683326185482774
 10
5.349449669206365
 20
-0.05456716924423721
 10
5.369645145379096
 20
-0.0531549639797968
 10
5.389877604266381
 20
-0.052448430946742675
 10
5.41012239573363
 20
-0.052448430946742675
 10
5.430354854620916
 20
-0.0531549639797968
 10
5.4505503307936465
 20
-0.05456716924423721
 10
5.470684219174991
 20
-0.056683326185482774
 10
5.490731989723336
 20
-0.05950085659226967
 10
5.5106692173184015
 20
-0.06301632773780452
 10
5.530471611519445
 20
-0.06722545656201317
 10
5.550115046159469
 20
-0.07212311488978995
 10
5.569575588739191
 20
-0.07770333567888899
 10
5.588829529585155
 20
-0.08395932028984576
 10
5.607853410736283
 20
-0.09088344676907256
 10
5.626624054523788
 20
-0.09846727913503417
 10
5.645118591809613
 20
-0.10670157765619259
 10
5.663314489848943
 20
-0.11557631010819625
 10
5.681189579742885
 20
-0.1250806639966
 10
5.698722083447834
 20
-0.1352030597302244
 10
5.7158906403087215
 20
-0.1459311647291036
 10
5.732674333083615
 20
-0.1572519084498344
 10
5.749052713428192
 20
-0.1691514983100198
 10
5.76500582680891
 20
-0.18161543649240636
 10
5.780514236814497
 20
-0.19462853760824173
 10
5.795559048836253
 20
-0.20817494719833063
 10
5.810121933088205
 20
-0.22223816104925198
 10
5.824185146939122
 20
-0.23680104530120044
 10
5.837731556529214
 20
-0.25184585732295534
 10
5.850744657645052
 20
-0.2673542673285439
 10
5.863208595827437
 20
-0.28330738070926165
 10
5.875108185687623
 20
-0.2996857610538429
 10
5.886428929408353
 20
-0.3164694538287337
 10
5.897157034407229
 20
-0.333638010689618
 10
5.9072794301408535
 20
-0.351170514394574
 10
5.916783784029256
 20
-0.36904560428851235
 10
5.925658516481263
 20
-0.3872415023278438
 10
5.933892815002423
 20
-0.4057360396136708
 10
5.941476647368383
 20
-0.4245066834011754
 10
5.9484007738476095
 20
-0.4435305645522987
 10
5.954656758458569
 20
-0.4627845053982623
 10
5.960236979247668
 20
-0.4822450479779874
 10
5.965134637575439
 20
-0.5018884826180077
 10
5.969343766399653
 20
-0.5216908768190535
 10
5.972859237545187
 20
-0.5416281044141156
 10
5.975676767951974
 20
-0.561675874962464
 10
5.977792924893215
 20
-0.5818097633438077
 10
5.979205130157659
 20
-0.6020052395165422
 10
5.9799116631907125
 20
-0.6222376984038251
 10
5.9799116631907125
 20
-0.642482489871074
 10
5.979205130157659
 20
-0.6627149487583568
 10
5.977792924893215
 20
-0.6829104249310911
 10
5.975676767951974
 20
-0.703044313312435
 10
5.972859237545187
 20
-0.7230920838607834
 10
5.969343766399653
 20
-0.7430293114558455
 10
5.965134637575439
 20
-0.7628317056568912
 10
5.960236979247668
 20
-0.7824751402969116
 10
5.954656758458569
 20
-0.8019356828766369
 10
5.9484007738476095
 20
-0.8211896237226004
 10
5.941476647368383
 20
-0.8402135048737238
 10
5.933892815002423
 20
-0.8589841486612282
 10
5.925658516481263
 20
-0.8774786859470551
 10
5.916783784029256
 20
-0.8956745839863866
 10
5.9072794301408535
 20
-0.9135496738803249
 10
5.897157034407229
 20
-0.9310821775852809
 10
5.886428929408353
 20
-0.9482507344461653
 10
5.875108185687623
 20
-0.9650344272210563
 10
5.863208595827437
 20
-0.9814128075656376
 10
5.850744657645052
 20
-0.9973659209463553
 10
5.837731556529214
 20
-1.0128743309519437
 10
5.824185146939122
 20
-1.0279191429736985
 10
5.810121933088205
 20
-1.042482027225647
 10
5.795559048836253
 20
-1.0565452410765683
 10
5.780514236814497
 20
-1.0700916506666573
 10
5.76500582680891
 20
-1.0831047517824923
 10
5.749052713428192
 20
-1.0955686899648793
 10
5.732674333083615
 20
-1.1074682798250646
 10
5.7158906403087215
 20
-1.1187890235457956
 10
5.698722083447841
 20
-1.1295171285446746
 10
5.6811895797428775
 20
-1.139639524278299
 10
5.663314489848943
 20
-1.149143878166703
 10
5.645118591809613
 20
-1.1580186106187065
 10
5.626624054523788
 20
-1.1662529091398648
 10
5.607853410736283
 20
-1.1738367415058264
 10
5.588829529585155
 20
-1.1807608679850534
 10
5.569575588739191
 20
-1.18701685259601
 10
5.550115046159469
 20
-1.1925970733851092
 10
5.530471611519445
 20
-1.197494731712886
 10
5.5106692173184015
 20
-1.2017038605370947
 10
5.490731989723336
 20
-1.2052193316826294
 10
5.470684219174991
 20
-1.2080368620894162
 10
5.4505503307936465
 20
-1.210153019030662
 10
5.430354854620916
 20
-1.2115652242951023
 10
5.41012239573363
 20
-1.2122717573281565
 10
5.389877604266381
 20
-1.2122717573281565
 10
5.369645145379096
 20
-1.2115652242951023
 10
5.349449669206365
 20
-1.210153019030662
 10
5.32931578082502
 20
-1.2080368620894162
 10
5.309268010276675
 20
-1.2052193316826294
210
0.0
220
-1.0
230
0.0
  0
LWPOLYLINE
  5
37
330
17
100
AcDbEntity
  8
ISLAND
100
AcDbPolyline
 90
106
 70
1
 10
45.63905208300936
 20
0.6323600941374495
 10
47.72988495384054
 20
1.1925970733851092
 10
47.749528388480556
 20
1.197494731712886
 10
47.76933078268161
 20
1.2017038605370947
 10
47.789268010276665
 20
1.2052193316826294
 10
47.80931578082502
 20
1.2080368620894162
 10
47.829449669206355
 20
1.210153019030662
 10
47.84964514537909
 20
1.2115652242951023
 10
47.86987760426638
 20
1.2122717573281565
 10
47.89012239573363
 20
1.2122717573281565
 10
47.910354854620905
 20
1.2115652242951023
 10
47.93055033079364
 20
1.210153019030662
 10
47.95068421917499
 20
1.2080368620894162
 10
47.97073198972333
 20
1.2052193316826294
 10
47.9906692173184
 20
1.2017038605370947
 10
48.01047161151944
 20
1.197494731712886
 10
48.03011504615946
 20
1.1925970733851092
 10
48.04957558873919
 20
1.18701685259601
 10
48.06882952958515
 20
1.1807608679850534
 10
48.08785341073627
 20
1.1738367415058266
 10
48.10662405452378
 20
1.1662529091398648
 10
48.1251185918096
 20
1.1580186106187065
 10
48.14331448984894
 20
1.149143878166703
 10
48.161189579742874
 20
1.139639524278299
 10
48.17872208344783
 20
1.1295171285446748
 10
48.19589064030872
 20
1.1187890235457956
 10
48.212674333083605
 20
1.1074682798250648
 10
48.22905271342819
 20
1.0955686899648793
 10
48.24500582680891
 20
1.0831047517824928
 10
48.260514236814494
 20
1.0700916506666573
 10
48.27555904883625
 20
1.0565452410765683
 10
48.290121933088194
 20
1.0424820272256472
 10
48.30418514693912
 20
1.0279191429736987
 10
48.31773155652921
 20
1.0128743309519437
 10
48.33074465764504
 20
0.9973659209463552
 10
48.34320859582743
 20
0.9814128075656374
 10
48.35510818568761
 20
0.9650344272210561
 10
48.36642892940834
 20
0.9482507344461654
 10
48.377157034407226
 20
0.9310821775852811
 10
48.38727943014085
 20
0.913549673880325
 10
48.39678378402925
 20
0.8956745839863867
 10
48.40565851648125
 20
0.8774786859470552
 10
48.41389281500241
 20
0.8589841486612283
 10
48.42147664736838
 20
0.8402135048737236
 10
48.428400773847606
 20
0.8211896237226004
 10
48.43465675845856
 20
0.8019356828766367
 10
48.44023697924766
 20
0.7824751402969117
 10
48.445134637575435
 20
0.7628317056568914
 10
48.44934376639964
 20
0.7430293114558456
 10
48.45285923754518
 20
0.7230920838607835
 10
48.455676767951964
 20
0.7030443133124351
 10
48.45779292489321
 20
0.6829104249310913
 10
48.459205130157656
 20
0.6627149487583569
 10
48.45991166319071
 20
0.6424824898710739
 10
48.45991166319071
 20
0.622237698403825
 10
48.459205130157656
 20
0.6020052395165423
 10
48.45779292489321
 20
0.581809763343808
 10
48.455676767951964
 20
0.5616758749624641
 10
48.45285923754518
 20
0.5416281044141157
 10
48.44934376639964
 20
0.5216908768190536
 10
48.445134637575435
 20
0.5018884826180079
 10
48.44023697924766
 20
0.4822450479779875
 10
48.43465675845856
 20
0.4627845053982622
 10
48.428400773847606
 20
0.44353056455229867
 10
48.42147664736838
 20
0.4245066834011753
 10
48.41389281500241
 20
0.4057360396136709
 10
48.40565851648125
 20
0.38724150232784393
 10
48.39678378402925
 20
0.3690456042885125
 10
48.38727943014085
 20
0.35117051439457414
 10
48.377157034407226
 20
0.3336380106896181
 10
48.36642892940834
 20
0.31646945382873387
 10
48.35510818568761
 20
0.29968576105384276
 10
48.34320859582743
 20
0.2833073807092615
 10
48.33074465764504
 20
0.2673542673285437
 10
48.31773155652921
 20
0.25184585732295545
 10
48.30418514693912
 20
0.2368010453012005
 10
48.290121933088194
 20
0.22223816104925204
 10
48.27555904883625
 20
0.20817494719833068
 10
48.260514236814494
 20
0.19462853760824178
 10
48.24500582680891
 20
0.18161543649240663
 10
48.22905271342819
 20
0.16915149831001974
 10
48.212674333083605
 20
0.15725190844983444
 10
48.19589064030872
 20
0.14593116472910356
 10
48.17872208344783
 20
0.13520305973022456
 10
48.161189579742874
 20
0.1250806639966
 10
48.14331448984894
 20
0.11557631010819625
 10
48.1251185918096
 20
0.10670157765619248
 10
48.10662405452378
 20
0.09846727913503417
 10
48.08785341073627
 20
0.09088344676907267
 10
48.06882952958515
 20
0.08395932028984576
 10
48.04957558873919
 20
0.0777033356788891
 10
48.03011504615946
 20
0.07212311488978995
 10
48.01047161151944
 20
0.06722545656201317
 10
47.9906692173184
 20
0.06301632773780452
 10
47.97073198972333
 20
0.05950085659226978
 10
47.95068421917499
 20
0.056683326185482774
 10
47.93055033079364
 20
0.05456716924423721
 10
47.910354854620905
 20
0.0531549639797968
 10
47.89012239573363
 20
0.052448430946742675
 10
47.86987760426638
 20
0.052448430946742675
 10
47.84964514537909
 20
0.0531549639797968
 10
47.829449669206355
 20
0.05456716924423721
 10
47.80931578082502
 20
0.056683326185482774
 10
47.789268010276665
 20
0.05950085659226967
 10
47.76933078268161
 20
0.06301632773780452
 10
47.749528388480556
 20
0.06722545656201317
210
0.0
220
-1.0
230
0.0
  0
LWPOLYLINE
  5
38
330
17
100
AcDbEntity
  8
ISLAND
100
AcDbPolyline
 90
106
 70
1
 10
36.19905208300936
 20
0.6323600941374495
 10
38.28988495384054
 20
1.1925970733851092
 10
38.30952838848056
 20
1.197494731712886
 10
38.32933078268161
 20
1.2017038605370947
 10
38.34926801027667
 20
1.2052193316826294
 10
38.36931578082502
 20
1.2080368620894162
 10
38.38944966920636
 20
1.210153019030662
 10
38.409645145379095
 20
1.2115652242951023
 10
38.42987760426638
 20
1.2122717573281565
 10
38.45012239573363
 20
1.2122717573281565
 10
38.47035485462091
 20
1.2115652242951023
 10
38.490550330793646
 20
1.210153019030662
 10
38.51068421917499
 20
1.2080368620894162
 10
38.530731989723336
 20
1.2052193316826294
 10
38.5506692173184
 20
1.2017038605370947
 10
38.570471611519444
 20
1.197494731712886
 10
38.59011504615946
 20
1.1925970733851092
 10
38.60957558873919
 20
1.18701685259601
 10
38.628829529585154
 20
1.1807608679850534
 10
38.647853410736275
 20
1.1738367415058266
 10
38.66662405452378
 20
1.1662529091398648
 10
38.685118591809605
 20
1.1580186106187065
 10
38.703314489848935
 20
1.149143878166703
 10
38.72118957974288
 20
1.139639524278299
 10
38.73872208344783
 20
1.1295171285446748
 10
38.75589064030872
 20
1.1187890235457956
 10
38.77267433308361
 20
1.1074682798250648
 10
38.78905271342819
 20
1.0955686899648793
 10
38.80500582680891
 20
1.0831047517824928
 10
38.820514236814496
 20
1.0700916506666573
 10
38.83555904883625
 20
1.0565452410765683
 10
38.8501219330882
 20
1.0424820272256472
 10
38.86418514693912
 20
1.0279191429736987
 10
38.87773155652921
 20
1.0128743309519437
 10
38.890744657645044
 20
0.9973659209463552
 10
38.90320859582743
 20
0.9814128075656374
 10
38.915108185687615
 20
0.9650344272210561
 10
38.926428929408345
 20
0.9482507344461654
 10
38.93715703440723
 20
0.9310821775852811
 10
38.94727943014085
 20
0.913549673880325
 10
38.956783784029255
 20
0.8956745839863867
 10
38.965658516481255
 20
0.8774786859470552
 10
38.973892815002415
 20
0.8589841486612283
 10
38.98147664736838
 20
0.8402135048737236
 10
38.9884007738476
 20
0.8211896237226004
 10
38.99465675845856
 20
0.8019356828766367
 10
39.00023697924766
 20
0.7824751402969117
 10
39.00513463757544
 20
0.7628317056568914
 10
39.009343766399645
 20
0.7430293114558456
 10
39.01285923754518
 20
0.7230920838607835
 10
39.015676767951966
 20
0.7030443133124351
 10
39.017792924893214
 20
0.6829104249310913
 10
39.01920513015766
 20
0.6627149487583569
 10
39.01991166319071
 20
0.6424824898710739
 10
39.01991166319071
 20
0.622237698403825
 10
39.01920513015766
 20
0.6020052395165423
 10
39.017792924893214
 20
0.581809763343808
 10
39.015676767951966
 20
0.5616758749624641
 10
39.01285923754518
 20
0.5416281044141157
 10
39.009343766399645
 20
0.5216908768190536
 10
39.00513463757544
 20
0.5018884826180079
 10
39.00023697924766
 20
0.4822450479779875
 10
38.99465675845856
 20
0.4627845053982622
 10
38.9884007738476
 20
0.44353056455229867
 10
38.98147664736838
 20
0.4245066834011753
 10
38.973892815002415
 20
0.4057360396136709
 10
38.965658516481255
 20
0.38724150232784393
 10
38.956783784029255
 20
0.3690456042885125
 10
38.94727943014085
 20
0.35117051439457414
 10
38.93715703440723
 20
0.3336380106896181
 10
38.926428929408345
 20
0.31646945382873387
 10
38.915108185687615
 20
0.29968576105384276
 10
38.90320859582743
 20
0.2833073807092615
 10
38.890744657645044
 20
0.2673542673285437
 10
38.87773155652921
 20
0.25184585732295545
 10
38.86418514693912
 20
0.2368010453012005
 10
38.8501219330882
 20
0.22223816104925204
 10
38.83555904883625
 20
0.20817494719833068
 10
38.820514236814496
 20
0.19462853760824178
 10
38.80500582680891
 20
0.18161543649240663
 10
38.78905271342819
 20
0.16915149831001974
 10
38.77267433308361
 20
0.15725190844983444
 10
38.75589064030872
 20
0.14593116472910356
 10
38.73872208344783
 20
0.13520305973022456
 10
38.72118957974288
 20
0.1250806639966
 10
38.703314489848935
 20
0.11557631010819625
 10
38.685118591809605
 20
0.10670157765619248
 10
38.66662405452378
 20
0.09846727913503417
 10
38.647853410736275
 20
0.09088344676907267
 10
38.628829529585154
 20
0.08395932028984576
 10
38.60957558873919
 20
0.0777033356788891
 10
38.59011504615946
 20
0.07212311488978995
 10
38.570471611519444
 20
0.06722545656201317
 10
38.5506692173184
 20
0.06301632773780452
 10
38.530731989723336
 20
0.05950085659226978
 10
38.51068421917499
 20
0.056683326185482774
 10
38.490550330793646
 20
0.05456716924423721
 10
38.47035485462091
 20
0.0531549639797968
 10
38.45012239573363
 20
0.052448430946742675
 10
38.42987760426638
 20
0.052448430946742675
 10
38.409645145379095
 20
0.0531549639797968
 10
38.38944966920636
 20
0.05456716924423721
 10
38.36931578082502
 20
0.056683326185482774
 10
38.34926801027667
 20
0.05950085659226967
 10
38.32933078268161
 20
0.06301632773780452
 10
38.30952838848056
 20
0.06722545656201317
210
0.0
220
-1.0
230
0.0
  0
LWPOLYLINE
  5
39
330
17
100
AcDbEntity
  8
ISLAND
100
AcDbPolyline
 90
106
 70
1
 10
26.75905208300936
 20
0.6323600941374495
 10
28.849884953840537
 20
1.1925970733851092
 10
28.869528388480557
 20
1.197494731712886
 10
28.889330782681604
 20
1.2017038605370947
 10
28.909268010276666
 20
1.2052193316826294
 10
28.929315780825014
 20
1.2080368620894162
 10
28.94944966920636
 20
1.210153019030662
 10
28.969645145379094
 20
1.2115652242951023
 10
28.989877604266375
 20
1.2122717573281565
 10
29.010122395733625
 20
1.2122717573281565
 10
29.030354854620906
 20
1.2115652242951023
 10
29.05055033079364
 20
1.210153019030662
 10
29.070684219174986
 20
1.2080368620894162
 10
29.090731989723334
 20
1.2052193316826294
 10
29.110669217318396
 20
1.2017038605370947
 10
29.130471611519443
 20
1.197494731712886
 10
29.150115046159463
 20
1.1925970733851092
 10
29.16957558873919
 20
1.18701685259601
 10
29.18882952958515
 20
1.1807608679850534
 10
29.207853410736274
 20
1.1738367415058266
 10
29.22662405452378
 20
1.1662529091398648
 10
29.245118591809607
 20
1.1580186106187065
 10
29.263314489848938
 20
1.149143878166703
 10
29.281189579742875
 20
1.139639524278299
 10
29.29872208344783
 20
1.1295171285446748
 10
29.315890640308716
 20
1.1187890235457956
 10
29.332674333083606
 20
1.1074682798250648
 10
29.34905271342819
 20
1.0955686899648793
 10
29.365005826808904
 20
1.0831047517824928
 10
29.380514236814495
 20
1.0700916506666573
 10
29.395559048836247
 20
1.0565452410765683
 10
29.4101219330882
 20
1.0424820272256472
 10
29.42418514693912
 20
1.0279191429736987
 10
29.437731556529208
 20
1.0128743309519437
 10
29.450744657645043
 20
0.9973659209463552
 10
29.463208595827428
 20
0.9814128075656374
 10
29.475108185687617
 20
0.9650344272210561
 10
29.486428929408344
 20
0.9482507344461654
 10
29.497157034407223
 20
0.9310821775852811
 10
29.507279430140848
 20
0.913549673880325
 10
29.516783784029254
 20
0.8956745839863867
 10
29.525658516481258
 20
0.8774786859470552
 10
29.533892815002414
 20
0.8589841486612283
 10
29.541476647368377
 20
0.8402135048737236
 10
29.548400773847604
 20
0.8211896237226004
 10
29.55465675845856
 20
0.8019356828766367
 10
29.56023697924766
 20
0.7824751402969117
 10
29.565134637575436
 20
0.7628317056568914
 10
29.569343766399644
 20
0.7430293114558456
 10
29.57285923754518
 20
0.7230920838607835
 10
29.57567676795197
 20
0.7030443133124351
 10
29.577792924893213
 20
0.6829104249310913
 10
29.579205130157654
 20
0.6627149487583569
 10
29.579911663190707
 20
0.6424824898710739
 10
29.579911663190707
 20
0.622237698403825
 10
29.579205130157654
 20
0.6020052395165423
 10
29.577792924893213
 20
0.581809763343808
 10
29.57567676795197
 20
0.5616758749624641
 10
29.57285923754518
 20
0.5416281044141157
 10
29.569343766399644
 20
0.5216908768190536
 10
29.565134637575436
 20
0.5018884826180079
 10
29.56023697924766
 20
0.4822450479779875
 10
29.55465675845856
 20
0.4627845053982622
 10
29.548400773847604
 20
0.44353056455229867
 10
29.541476647368377
 20
0.4245066834011753
 10
29.533892815002414
 20
0.4057360396136709
 10
29.525658516481258
 20
0.38724150232784393
 10
29.516783784029254
 20
0.3690456042885125
 10
29.507279430140848
 20
0.35117051439457414
 10
29.497157034407223
 20
0.3336380106896181
 10
29.486428929408348
 20
0.31646945382873387
 10
29.475108185687617
 20
0.29968576105384276
 10
29.463208595827428
 20
0.2833073807092615
 10
29.450744657645043
 20
0.2673542673285437
 10
29.437731556529208
 20
0.25184585732295545
 10
29.42418514693912
 20
0.2368010453012005
 10
29.4101219330882
 20
0.22223816104925204
 10
29.395559048836247
 20
0.20817494719833068
 10
29.380514236814495
 20
0.19462853760824178
 10
29.365005826808908
 20
0.18161543649240663
 10
29.349052713428186
 20
0.16915149831001974
 10
29.332674333083606
 20
0.15725190844983444
 10
29.315890640308716
 20
0.14593116472910356
 10
29.29872208344783
 20
0.13520305973022456
 10
29.281189579742875
 20
0.1250806639966
 10
29.263314489848938
 20
0.11557631010819625
 10
29.245118591809607
 20
0.10670157765619248
 10
29.22662405452378
 20
0.09846727913503417
 10
29.207853410736274
 20
0.09088344676907267
 10
29.18882952958515
 20
0.08395932028984576
 10
29.16957558873919
 20
0.0777033356788891
 10
29.150115046159463
 20
0.07212311488978995
 10
29.130471611519443
 20
0.06722545656201317
 10
29.110669217318396
 20
0.06301632773780452
 10
29.090731989723334
 20
0.05950085659226978
 10
29.070684219174986
 20
0.056683326185482774
 10
29.05055033079364
 20
0.05456716924423721
 10
29.030354854620906
 20
0.0531549639797968
 10
29.010122395733625
 20
0.052448430946742675
 10
28.989877604266375
 20
0.052448430946742675
 10
28.969645145379094
 20
0.0531549639797968
 10
28.94944966920636
 20
0.05456716924423721
 10
28.929315780825014
 20
0.056683326185482774
 10
28.909268010276666
 20
0.05950085659226967
 10
28.889330782681604
 20
0.06301632773780452
 10
28.869528388480557
 20
0.06722545656201317
210
0.0
220
-1.0
230
0.0
  0
LWPOLYLINE
  5
3A
330
17
100
AcDbEntity
  8
ISLAND
100
AcDbPolyline
 90
106
 70
1
 10
19.429528388480556
 20
0.06722545656201317
 10
17.31905208300936
 20
0.6323600941374495
 10
19.409884953840535
 20
1.1925970733851092
 10
19.429528388480556
 20
1.197494731712886
 10
19.449330782681603
 20
1.2017038605370947
 10
19.469268010276664
 20
1.2052193316826294
 10
19.489315780825013
 20
1.2080368620894162
 10
19.509449669206358
 20
1.210153019030662
 10
19.529645145379092
 20
1.2115652242951023
 10
19.549877604266374
 20
1.2122717573281565
 10
19.570122395733623
 20
1.2122717573281565
 10
19.590354854620905
 20
1.2115652242951023
 10
19.61055033079364
 20
1.210153019030662
 10
19.630684219174984
 20
1.2080368620894162
 10
19.650731989723333
 20
1.2052193316826294
 10
19.670669217318395
 20
1.2017038605370947
 10
19.690471611519442
 20
1.197494731712886
 10
19.710115046159462
 20
1.1925970733851092
 10
19.729575588739188
 20
1.18701685259601
 10
19.748829529585148
 20
1.1807608679850534
 10
19.767853410736272
 20
1.1738367415058266
 10
19.786624054523777
 20
1.1662529091398648
 10
19.805118591809606
 20
1.1580186106187065
 10
19.823314489848936
 20
1.149143878166703
 10
19.841189579742874
 20
1.139639524278299
 10
19.85872208344783
 20
1.1295171285446748
 10
19.875890640308715
 20
1.1187890235457956
 10
19.892674333083605
 20
1.1074682798250648
 10
19.90905271342819
 20
1.0955686899648793
 10
19.925005826808903
 20
1.0831047517824928
 10
19.940514236814494
 20
1.0700916506666573
 10
19.955559048836246
 20
1.0565452410765683
 10
19.970121933088198
 20
1.0424820272256472
 10
19.98418514693912
 20
1.0279191429736987
 10
19.997731556529207
 20
1.0128743309519437
 10
20.01074465764504
 20
0.9973659209463552
 10
20.023208595827427
 20
0.9814128075656374
 10
20.035108185687616
 20
0.9650344272210561
 10
20.046428929408343
 20
0.9482507344461654
 10
20.057157034407222
 20
0.9310821775852811
 10
20.067279430140847
 20
0.913549673880325
 10
20.076783784029253
 20
0.8956745839863867
 10
20.085658516481256
 20
0.8774786859470552
 10
20.093892815002413
 20
0.8589841486612283
 10
20.101476647368376
 20
0.8402135048737236
 10
20.108400773847602
 20
0.8211896237226004
 10
20.11465675845856
 20
0.8019356828766367
 10
20.120236979247657
 20
0.7824751402969117
 10
20.125134637575435
 20
0.7628317056568914
 10
20.129343766399643
 20
0.7430293114558456
 10
20.13285923754518
 20
0.7230920838607835
 10
20.135676767951967
 20
0.7030443133124351
 10
20.137792924893212
 20
0.6829104249310913
 10
20.139205130157652
 20
0.6627149487583569
 10
20.139911663190706
 20
0.6424824898710739
 10
20.139911663190706
 20
0.622237698403825
 10
20.139205130157652
 20
0.6020052395165423
 10
20.137792924893212
 20
0.581809763343808
 10
20.135676767951967
 20
0.5616758749624641
 10
20.13285923754518
 20
0.5416281044141157
 10
20.129343766399643
 20
0.5216908768190536
 10
20.125134637575435
 20
0.5018884826180079
 10
20.120236979247657
 20
0.4822450479779875
 10
20.11465675845856
 20
0.4627845053982622
 10
20.108400773847602
 20
0.44353056455229867
 10
20.101476647368376
 20
0.4245066834011753
 10
20.093892815002413
 20
0.4057360396136709
 10
20.085658516481256
 20
0.38724150232784393
 10
20.076783784029253
 20
0.3690456042885125
 10
20.067279430140847
 20
0.35117051439457414
 10
20.057157034407226
 20
0.3336380106896181
 10
20.046428929408343
 20
0.31646945382873387
 10
20.035108185687616
 20
0.29968576105384276
 10
20.023208595827427
 20
0.2833073807092615
 10
20.01074465764504
 20
0.2673542673285437
 10
19.997731556529207
 20
0.25184585732295545
 10
19.98418514693912
 20
0.2368010453012005
 10
19.970121933088198
 20
0.22223816104925204
 10
19.955559048836246
 20
0.20817494719833068
 10
19.940514236814494
 20
0.19462853760824178
 10
19.925005826808906
 20
0.18161543649240663
 10
19.909052713428185
 20
0.16915149831001974
 10
19.892674333083605
 20
0.15725190844983444
 10
19.875890640308715
 20
0.14593116472910356
 10
19.85872208344783
 20
0.13520305973022456
 10
19.841189579742874
 20
0.1250806639966
 10
19.823314489848936
 20
0.11557631010819625
 10
19.805118591809602
 20
0.10670157765619248
 10
19.786624054523777
 20
0.09846727913503417
 10
19.767853410736272
 20
0.09088344676907267
 10
19.748829529585148
 20
0.08395932028984576
 10
19.729575588739188
 20
0.0777033356788891
 10
19.710115046159462
 20
0.07212311488978995
 10
19.690471611519442
 20
0.06722545656201317
 10
19.670669217318395
 20
0.06301632773780452
 10
19.650731989723333
 20
0.05950085659226978
 10
19.630684219174984
 20
0.056683326185482774
 10
19.61055033079364
 20
0.05456716924423721
 10
19.590354854620905
 20
0.0531549639797968
 10
19.570122395733623
 20
0.052448430946742675
 10
19.549877604266374
 20
0.052448430946742675
 10
19.529645145379092
 20
0.0531549639797968
 10
19.509449669206358
 20
0.05456716924423721
 10
19.489315780825013
 20
0.056683326185482774
 10
19.469268010276664
 20
0.05950085659226967
 10
19.449330782681603
 20
0.06301632773780452
210
0.0
220
-1.0
230
0.0
  0
LWPOLYLINE
  5
3B
330
17
100
AcDbEntity
  8
ISLAND
100
AcDbPolyline
 90
106
 70
1
 10
9.989528388480565
 20
0.06722545656201317
 10
7.87905208300937
 20
0.6323600941374495
 10
9.969884953840541
 20
1.1925970733851092
 10
9.989528388480565
 20
1.197494731712886
 10
10.009330782681609
 20
1.2017038605370947
 10
10.029268010276674
 20
1.2052193316826294
 10
10.049315780825019
 20
1.2080368620894162
 10
10.069449669206364
 20
1.210153019030662
 10
10.089645145379095
 20
1.2115652242951023
 10
10.10987760426638
 20
1.2122717573281565
 10
10.130122395733629
 20
1.2122717573281565
 10
10.150354854620915
 20
1.2115652242951023
 10
10.170550330793645
 20
1.210153019030662
 10
10.19068421917499
 20
1.2080368620894162
 10
10.210731989723335
 20
1.2052193316826294
 10
10.2306692173184
 20
1.2017038605370947
 10
10.250471611519444
 20
1.197494731712886
 10
10.270115046159468
 20
1.1925970733851092
 10
10.28957558873919
 20
1.18701685259601
 10
10.308829529585154
 20
1.1807608679850534
 10
10.327853410736282
 20
1.1738367415058266
 10
10.346624054523787
 20
1.1662529091398648
 10
10.365118591809612
 20
1.1580186106187065
 10
10.383314489848942
 20
1.149143878166703
 10
10.401189579742883
 20
1.139639524278299
 10
10.418722083447832
 20
1.1295171285446748
 10
10.43589064030872
 20
1.1187890235457956
 10
10.452674333083614
 20
1.1074682798250648
 10
10.46905271342819
 20
1.0955686899648793
 10
10.485005826808909
 20
1.0831047517824928
 10
10.500514236814496
 20
1.0700916506666573
 10
10.515559048836252
 20
1.0565452410765683
 10
10.530121933088203
 20
1.0424820272256472
 10
10.544185146939121
 20
1.0279191429736987
 10
10.557731556529212
 20
1.0128743309519437
 10
10.57074465764505
 20
0.9973659209463552
 10
10.583208595827436
 20
0.9814128075656374
 10
10.595108185687621
 20
0.9650344272210561
 10
10.606428929408352
 20
0.9482507344461654
 10
10.617157034407228
 20
0.9310821775852811
 10
10.627279430140852
 20
0.913549673880325
 10
10.636783784029255
 20
0.8956745839863867
 10
10.645658516481262
 20
0.8774786859470552
 10
10.653892815002422
 20
0.8589841486612283
 10
10.661476647368382
 20
0.8402135048737236
 10
10.668400773847608
 20
0.8211896237226004
 10
10.674656758458568
 20
0.8019356828766367
 10
10.680236979247667
 20
0.7824751402969117
 10
10.685134637575437
 20
0.7628317056568914
 10
10.689343766399652
 20
0.7430293114558456
 10
10.692859237545186
 20
0.7230920838607835
 10
10.695676767951973
 20
0.7030443133124351
 10
10.697792924893214
 20
0.6829104249310913
 10
10.699205130157658
 20
0.6627149487583569
 10
10.699911663190711
 20
0.6424824898710739
 10
10.699911663190711
 20
0.622237698403825
 10
10.699205130157658
 20
0.6020052395165423
 10
10.697792924893214
 20
0.581809763343808
 10
10.695676767951973
 20
0.5616758749624641
 10
10.692859237545186
 20
0.5416281044141157
 10
10.689343766399652
 20
0.5216908768190536
 10
10.685134637575437
 20
0.5018884826180079
 10
10.680236979247667
 20
0.4822450479779875
 10
10.674656758458568
 20
0.4627845053982622
 10
10.668400773847608
 20
0.44353056455229867
 10
10.661476647368382
 20
0.4245066834011753
 10
10.653892815002422
 20
0.4057360396136709
 10
10.645658516481262
 20
0.38724150232784393
 10
10.636783784029255
 20
0.3690456042885125
 10
10.627279430140852
 20
0.35117051439457414
 10
10.617157034407228
 20
0.3336380106896181
 10
10.606428929408352
 20
0.31646945382873387
 10
10.595108185687621
 20
0.29968576105384276
 10
10.583208595827436
 20
0.2833073807092615
 10
10.57074465764505
 20
0.2673542673285437
 10
10.557731556529212
 20
0.25184585732295545
 10
10.544185146939121
 20
0.2368010453012005
 10
10.530121933088203
 20
0.22223816104925204
 10
10.515559048836252
 20
0.20817494719833068
 10
10.500514236814496
 20
0.19462853760824178
 10
10.485005826808909
 20
0.18161543649240663
 10
10.46905271342819
 20
0.16915149831001974
 10
10.452674333083614
 20
0.15725190844983444
 10
10.43589064030872
 20
0.14593116472910356
 10
10.41872208344784
 20
0.13520305973022456
 10
10.401189579742876
 20
0.1250806639966
 10
10.383314489848942
 20
0.11557631010819625
 10
10.365118591809612
 20
0.10670157765619248
 10
10.346624054523787
 20
0.09846727913503417
 10
10.327853410736282
 20
0.09088344676907267
 10
10.308829529585154
 20
0.08395932028984576
 10
10.28957558873919
 20
0.0777033356788891
 10
10.270115046159468
 20
0.07212311488978995
 10
10.250471611519444
 20
0.06722545656201317
 10
10.2306692173184
 20
0.06301632773780452
 10
10.210731989723335
 20
0.05950085659226978
 10
10.19068421917499
 20
0.056683326185482774
 10
10.170550330793645
 20
0.05456716924423721
 10
10.150354854620915
 20
0.0531549639797968
 10
10.130122395733629
 20
0.052448430946742675
 10
10.10987760426638
 20
0.052448430946742675
 10
10.089645145379095
 20
0.0531549639797968
 10
10.069449669206364
 20
0.05456716924423721
 10
10.049315780825019
 20
0.056683326185482774
 10
10.029268010276674
 20
0.05950085659226967
 10
10.009330782681609
 20
0.06301632773780452
210
0.0
220
-1.0
230
0.0
  0
TEXT
  5
3C
330
17
100
AcDbEntity
  8
OUTER
100
AcDbText
 10
0.0
 20
-2.2
 30
0.0
 40
0.5
  1
TVM-Reverse  Xia et al. 2025 ATE 258 124611 Fig.3/4  unit mm  [Y-up: XZ plane]
 11
0.0
 21
-2.2
 31
0.0
210
0.0
220
-1.0
230
0.0
100
AcDbText
  0
ENDSEC
  0
SECTION
  2
OBJECTS
  0
DICTIONARY
  5
A
330
0
100
AcDbDictionary
281
1
  3
ACAD_COLOR
350
B
  3
ACAD_GROUP
350
C
  3
ACAD_LAYOUT
350
D
  3
ACAD_MATERIAL
350
E
  3
ACAD_MLEADERSTYLE
350
F
  3
ACAD_MLINESTYLE
350
10
  3
ACAD_PLOTSETTINGS
350
11
  3
ACAD_PLOTSTYLENAME
350
12
  3
ACAD_SCALELIST
350
14
  3
ACAD_TABLESTYLE
350
15
  3
ACAD_VISUALSTYLE
350
16
  3
EZDXF_META
350
2D
  0
DICTIONARY
  5
B
330
A
100
AcDbDictionary
281
1
  0
DICTIONARY
  5
C
330
A
100
AcDbDictionary
281
1
  0
DICTIONARY
  5
D
330
A
100
AcDbDictionary
281
1
  3
Model
350
1A
  3
Layout1
350
1E
  0
DICTIONARY
  5
E
330
A
100
AcDbDictionary
281
1
  3
ByBlock
350
1F
  3
ByLayer
350
20
  3
Global
350
21
  0
DICTIONARY
  5
F
330
A
100
AcDbDictionary
281
1
  3
Standard
350
2C
  0
DICTIONARY
  5
10
330
A
100
AcDbDictionary
281
1
  3
Standard
350
22
  0
DICTIONARY
  5
11
330
A
100
AcDbDictionary
281
1
  0
ACDBDICTIONARYWDFLT
  5
12
330
A
100
AcDbDictionary
281
1
  3
Normal
350
13
100
AcDbDictionaryWithDefault
340
13
  0
ACDBPLACEHOLDER
  5
13
330
12
  0
DICTIONARY
  5
14
330
A
100
AcDbDictionary
281
1
  0
DICTIONARY
  5
15
330
A
100
AcDbDictionary
281
1
  0
DICTIONARY
  5
16
330
A
100
AcDbDictionary
281
1
  0
LAYOUT
  5
1A
330
D
100
AcDbPlotSettings
  1

  4
A3
  6

 40
7.5
 41
20.0
 42
7.5
 43
20.0
 44
420.0
 45
297.0
 46
0.0
 47
0.0
 48
0.0
 49
0.0
140
0.0
141
0.0
142
1.0
143
1.0
 70
1024
 72
1
 73
0
 74
5
  7

 75
16
 76
0
 77
2
 78
300
147
1.0
148
0.0
149
0.0
100
AcDbLayout
  1
Model
 70
1
 71
0
 10
0.0
 20
0.0
 11
420.0
 21
297.0
 12
0.0
 22
0.0
 32
0.0
 14
1e+20
 24
1e+20
 34
1e+20
 15
-1e+20
 25
-1e+20
 35
-1e+20
146
0.0
 13
0.0
 23
0.0
 33
0.0
 16
1.0
 26
0.0
 36
0.0
 17
0.0
 27
1.0
 37
0.0
 76
1
330
17
  0
LAYOUT
  5
1E
330
D
100
AcDbPlotSettings
  1

  4
A3
  6

 40
7.5
 41
20.0
 42
7.5
 43
20.0
 44
420.0
 45
297.0
 46
0.0
 47
0.0
 48
0.0
 49
0.0
140
0.0
141
0.0
142
1.0
143
1.0
 70
0
 72
1
 73
0
 74
5
  7

 75
16
 76
0
 77
2
 78
300
147
1.0
148
0.0
149
0.0
100
AcDbLayout
  1
Layout1
 70
1
 71
1
 10
0.0
 20
0.0
 11
420.0
 21
297.0
 12
0.0
 22
0.0
 32
0.0
 14
1e+20
 24
1e+20
 34
1e+20
 15
-1e+20
 25
-1e+20
 35
-1e+20
146
0.0
 13
0.0
 23
0.0
 33
0.0
 16
1.0
 26
0.0
 36
0.0
 17
0.0
 27
1.0
 37
0.0
 76
1
330
1B
  0
MATERIAL
  5
1F
102
{ACAD_REACTORS
330
E
102
}
330
E
100
AcDbMaterial
  1
ByBlock
  2

 70
0
 40
1.0
 71
1
 41
1.0
 91
-1023410177
 42
1.0
 72
1
  3

 73
1
 74
1
 75
1
 44
0.5
 73
0
 45
1.0
 46
1.0
 77
1
  4

 78
1
 79
1
170
1
 48
1.0
171
1
  6

172
1
173
1
174
1
140
1.0
141
1.0
175
1
  7

176
1
177
1
178
1
143
1.0
179
1
  8

270
1
271
1
272
1
145
1.0
146
1.0
273
1
  9

274
1
275
1
276
1
 42
1.0
 72
1
  3

 73
1
 74
1
 75
1
 94
63
  0
MATERIAL
  5
20
102
{ACAD_REACTORS
330
E
102
}
330
E
100
AcDbMaterial
  1
ByLayer
  2

 70
0
 40
1.0
 71
1
 41
1.0
 91
-1023410177
 42
1.0
 72
1
  3

 73
1
 74
1
 75
1
 44
0.5
 73
0
 45
1.0
 46
1.0
 77
1
  4

 78
1
 79
1
170
1
 48
1.0
171
1
  6

172
1
173
1
174
1
140
1.0
141
1.0
175
1
  7

176
1
177
1
178
1
143
1.0
179
1
  8

270
1
271
1
272
1
145
1.0
146
1.0
273
1
  9

274
1
275
1
276
1
 42
1.0
 72
1
  3

 73
1
 74
1
 75
1
 94
63
  0
MATERIAL
  5
21
102
{ACAD_REACTORS
330
E
102
}
330
E
100
AcDbMaterial
  1
Global
  2

 70
0
 40
1.0
 71
1
 41
1.0
 91
-1023410177
 42
1.0
 72
1
  3

 73
1
 74
1
 75
1
 44
0.5
 73
0
 45
1.0
 46
1.0
 77
1
  4

 78
1
 79
1
170
1
 48
1.0
171
1
  6

172
1
173
1
174
1
140
1.0
141
1.0
175
1
  7

176
1
177
1
178
1
143
1.0
179
1
  8

270
1
271
1
272
1
145
1.0
146
1.0
273
1
  9

274
1
275
1
276
1
 42
1.0
 72
1
  3

 73
1
 74
1
 75
1
 94
63
  0
MLINESTYLE
  5
22
102
{ACAD_REACTORS
330
10
102
}
330
10
100
AcDbMlineStyle
  2
Standard
 70
0
  3

 62
256
 51
90.0
 52
90.0
 71
2
 49
0.5
 62
256
  6
BYLAYER
 49
-0.5
 62
256
  6
BYLAYER
  0
MLEADERSTYLE
  5
2C
102
{ACAD_REACTORS
330
F
102
}
330
F
100
AcDbMLeaderStyle
179
2
170
2
171
1
172
0
 90
2
 40
0.0
 41
0.0
173
1
 91
-1056964608
 92
-2
290
1
 42
2.0
291
1
 43
8.0
  3
Standard
 44
4.0
300

342
29
174
1
175
1
176
0
178
1
 93
-1056964608
 45
4.0
292
0
297
0
 46
4.0
 94
-1056964608
 47
1.0
 49
1.0
140
1.0
294
1
141
0.0
177
0
142
1.0
295
0
296
0
143
3.75
271
0
272
9
273
9
  0
DICTIONARY
  5
2D
330
A
100
AcDbDictionary
280
1
281
1
  3
CREATED_BY_EZDXF
350
2E
  3
WRITTEN_BY_EZDXF
350
3F
  0
DICTIONARYVAR
  5
2E
330
2D
100
DictionaryVariables
280
0
  1
1.4.4 @ 2026-10-10T03:18:57.261035+00:00
  0
DICTIONARYVAR
  5
3F
330
2D
100
DictionaryVariables
280
0
  1
1.4.4 @ 2026-10-10T03:18:57.267355+00:00
  0
ENDSEC
  0
EOF
