  0
SECTION
  2
HEADER
  9
$ACADVER
  1
AC1024
  9
$ACADMAINTVER
 70
6
  9
$DWGCODEPAGE
  3
ANSI_1252
  9
$LASTSAVEDBY
  1
ezdxf
  9
$INSBASE
 10
0.0
 20
0.0
 30
0.0
  9
$EXTMIN
 10
1e+20
 20
1e+20
 30
1e+20
  9
$EXTMAX
 10
-1e+20
 20
-1e+20
 30
-1e+20
  9
$LIMMIN
 10
0.0
 20
0.0
  9
$LIMMAX
 10
420.0
 20
297.0
  9
$ORTHOMODE
 70
0
  9
$REGENMODE
 70
1
  9
$FILLMODE
 70
1
  9
$QTEXTMODE
 70
0
  9
$MIRRTEXT
 70
1
  9
$LTSCALE
 40
1.0
  9
$ATTMODE
 70
1
  9
$TEXTSIZE
 40
2.5
  9
$TRACEWID
 40
1.0
  9
$TEXTSTYLE
  7
Standard
  9
$CLAYER
  8
0
  9
$CELTYPE
  6
ByLayer
  9
$CECOLOR
 62
256
  9
$CELTSCALE
 40
1.0
  9
$DISPSILH
 70
0
  9
$DIMSCALE
 40
1.0
  9
$DIMASZ
 40
2.5
  9
$DIMEXO
 40
0.625
  9
$DIMDLI
 40
3.75
  9
$DIMRND
 40
0.0
  9
$DIMDLE
 40
0.0
  9
$DIMEXE
 40
1.25
  9
$DIMTP
 40
0.0
  9
$DIMTM
 40
0.0
  9
$DIMTXT
 40
2.5
  9
$DIMCEN
 40
2.5
  9
$DIMTSZ
 40
0.0
  9
$DIMTOL
 70
0
  9
$DIMLIM
 70
0
  9
$DIMTIH
 70
0
  9
$DIMTOH
 70
0
  9
$DIMSE1
 70
0
  9
$DIMSE2
 70
0
  9
$DIMTAD
 70
1
  9
$DIMZIN
 70
8
  9
$DIMBLK
  1

  9
$DIMASO
 70
1
  9
$DIMSHO
 70
1
  9
$DIMPOST
  1

  9
$DIMAPOST
  1

  9
$DIMALT
 70
0
  9
$DIMALTD
 70
3
  9
$DIMALTF
 40
0.03937007874
  9
$DIMLFAC
 40
1.0
  9
$DIMTOFL
 70
1
  9
$DIMTVP
 40
0.0
  9
$DIMTIX
 70
0
  9
$DIMSOXD
 70
0
  9
$DIMSAH
 70
0
  9
$DIMBLK1
  1

  9
$DIMBLK2
  1

  9
$DIMSTYLE
  2
ISO-25
  9
$DIMCLRD
 70
0
  9
$DIMCLRE
 70
0
  9
$DIMCLRT
 70
0
  9
$DIMTFAC
 40
1.0
  9
$DIMGAP
 40
0.625
  9
$DIMJUST
 70
0
  9
$DIMSD1
 70
0
  9
$DIMSD2
 70
0
  9
$DIMTOLJ
 70
0
  9
$DIMTZIN
 70
8
  9
$DIMALTZ
 70
0
  9
$DIMALTTZ
 70
0
  9
$DIMUPT
 70
0
  9
$DIMDEC
 70
2
  9
$DIMTDEC
 70
2
  9
$DIMALTU
 70
2
  9
$DIMALTTD
 70
3
  9
$DIMTXSTY
  7
Standard
  9
$DIMAUNIT
 70
0
  9
$DIMADEC
 70
0
  9
$DIMALTRND
 40
0.0
  9
$DIMAZIN
 70
0
  9
$DIMDSEP
 70
44
  9
$DIMATFIT
 70
3
  9
$DIMFRAC
 70
0
  9
$DIMLDRBLK
  1

  9
$DIMLUNIT
 70
2
  9
$DIMLWD
 70
-2
  9
$DIMLWE
 70
-2
  9
$DIMTMOVE
 70
0
  9
$DIMFXL
 40
1.0
  9
$DIMFXLON
 70
0
  9
$DIMJOGANG
 40
0.785398163397
  9
$DIMTFILL
 70
0
  9
$DIMTFILLCLR
 70
0
  9
$DIMARCSYM
 70
0
  9
$DIMLTYPE
  6

  9
$DIMLTEX1
  6

  9
$DIMLTEX2
  6

  9
$DIMTXTDIRECTION
 70
0
  9
$LUNITS
 70
2
  9
$LUPREC
 70
4
  9
$SKETCHINC
 40
1.0
  9
$FILLETRAD
 40
10.0
  9
$AUNITS
 70
0
  9
$AUPREC
 70
2
  9
$MENU
  1
.
  9
$ELEVATION
 40
0.0
  9
$PELEVATION
 40
0.0
  9
$THICKNESS
 40
0.0
  9
$LIMCHECK
 70
0
  9
$CHAMFERA
 40
0.0
  9
$CHAMFERB
 40
0.0
  9
$CHAMFERC
 40
0.0
  9
$CHAMFERD
 40
0.0
  9
$SKPOLY
 70
0
  9
$TDCREATE
 40
2461324.513148148
  9
$TDUCREATE
 40
2458532.153996898
  9
$TDUPDATE
 40
2461324.513148148
  9
$TDUUPDATE
 40
2458532.1544311
  9
$TDINDWG
 40
0.0
  9
$TDUSRTIMER
 40
0.0
  9
$USRTIMER
 70
1
  9
$ANGBASE
 50
0.0
  9
$ANGDIR
 70
0
  9
$PDMODE
 70
0
  9
$PDSIZE
 40
0.0
  9
$PLINEWID
 40
0.0
  9
$SPLFRAME
 70
0
  9
$SPLINETYPE
 70
6
  9
$SPLINESEGS
 70
8
  9
$HANDSEED
  5
40
  9
$SURFTAB1
 70
6
  9
$SURFTAB2
 70
6
  9
$SURFTYPE
 70
6
  9
$SURFU
 70
6
  9
$SURFV
 70
6
  9
$UCSBASE
  2

  9
$UCSNAME
  2

  9
$UCSORG
 10
0.0
 20
0.0
 30
0.0
  9
$UCSXDIR
 10
1.0
 20
0.0
 30
0.0
  9
$UCSYDIR
 10
0.0
 20
1.0
 30
0.0
  9
$UCSORTHOREF
  2

  9
$UCSORTHOVIEW
 70
0
  9
$UCSORGTOP
 10
0.0
 20
0.0
 30
0.0
  9
$UCSORGBOTTOM
 10
0.0
 20
0.0
 30
0.0
  9
$UCSORGLEFT
 10
0.0
 20
0.0
 30
0.0
  9
$UCSORGRIGHT
 10
0.0
 20
0.0
 30
0.0
  9
$UCSORGFRONT
 10
0.0
 20
0.0
 30
0.0
  9
$UCSORGBACK
 10
0.0
 20
0.0
 30
0.0
  9
$PUCSBASE
  2

  9
$PUCSNAME
  2

  9
$PUCSORG
 10
0.0
 20
0.0
 30
0.0
  9
$PUCSXDIR
 10
1.0
 20
0.0
 30
0.0
  9
$PUCSYDIR
 10
0.0
 20
1.0
 30
0.0
  9
$PUCSORTHOREF
  2

  9
$PUCSORTHOVIEW
 70
0
  9
$PUCSORGTOP
 10
0.0
 20
0.0
 30
0.0
  9
$PUCSORGBOTTOM
 10
0.0
 20
0.0
 30
0.0
  9
$PUCSORGLEFT
 10
0.0
 20
0.0
 30
0.0
  9
$PUCSORGRIGHT
 10
0.0
 20
0.0
 30
0.0
  9
$PUCSORGFRONT
 10
0.0
 20
0.0
 30
0.0
  9
$PUCSORGBACK
 10
0.0
 20
0.0
 30
0.0
  9
$USERI1
 70
0
  9
$USERI2
 70
0
  9
$USERI3
 70
0
  9
$USERI4
 70
0
  9
$USERI5
 70
0
  9
$USERR1
 40
0.0
  9
$USERR2
 40
0.0
  9
$USERR3
 40
0.0
  9
$USERR4
 40
0.0
  9
$USERR5
 40
0.0
  9
$WORLDVIEW
 70
1
  9
$SHADEDGE
 70
3
  9
$SHADEDIF
 70
70
  9
$TILEMODE
 70
1
  9
$MAXACTVP
 70
64
  9
$PINSBASE
 10
0.0
 20
0.0
 30
0.0
  9
$PLIMCHECK
 70
0
  9
$PEXTMIN
 10
1e+20
 20
1e+20
 30
1e+20
  9
$PEXTMAX
 10
-1e+20
 20
-1e+20
 30
-1e+20
  9
$PLIMMIN
 10
0.0
 20
0.0
  9
$PLIMMAX
 10
420.0
 20
297.0
  9
$UNITMODE
 70
0
  9
$VISRETAIN
 70
1
  9
$PLINEGEN
 70
0
  9
$PSLTSCALE
 70
1
  9
$TREEDEPTH
 70
3020
  9
$CMLSTYLE
  2
Standard
  9
$CMLJUST
 70
0
  9
$CMLSCALE
 40
20.0
  9
$PROXYGRAPHICS
 70
1
  9
$MEASUREMENT
 70
1
  9
$CELWEIGHT
370
-1
  9
$ENDCAPS
280
0
  9
$JOINSTYLE
280
0
  9
$LWDISPLAY
290
0
  9
$INSUNITS
 70
4
  9
$HYPERLINKBASE
  1

  9
$STYLESHEET
  1

  9
$XEDIT
290
1
  9
$CEPSNTYPE
380
0
  9
$PSTYLEMODE
290
1
  9
$FINGERPRINTGUID
  2
{0EDD79B0-1811-47D8-9DF5-2E89E0B5CA1F}
  9
$VERSIONGUID
  2
{C786622C-49DA-4567-BD8D-62543564426E}
  9
$EXTNAMES
290
1
  9
$PSVPSCALE
 40
0.0
  9
$OLESTARTUP
290
0
  9
$SORTENTS
280
127
  9
$INDEXCTL
280
0
  9
$HIDETEXT
280
1
  9
$XCLIPFRAME
280
1
  9
$HALOGAP
280
0
  9
$OBSCOLOR
 70
257
  9
$OBSLTYPE
280
0
  9
$INTERSECTIONDISPLAY
280
0
  9
$INTERSECTIONCOLOR
 70
257
  9
$DIMASSOC
280
2
  9
$PROJECTNAME
  1

  9
$CAMERADISPLAY
290
0
  9
$LENSLENGTH
 40
50.0
  9
$CAMERAHEIGHT
 40
0.0
  9
$STEPSPERSEC
 40
24.0
  9
$STEPSIZE
 40
100.0
  9
$3DDWFPREC
 40
2.0
  9
$PSOLWIDTH
 40
0.005
  9
$PSOLHEIGHT
 40
0.08
  9
$LOFTANG1
 40
1.570796326795
  9
$LOFTANG2
 40
1.570796326795
  9
$LOFTMAG1
 40
0.0
  9
$LOFTMAG2
 40
0.0
  9
$LOFTPARAM
 70
7
  9
$LOFTNORMALS
280
1
  9
$LATITUDE
 40
37.795
  9
$LONGITUDE
 40
-122.394
  9
$NORTHDIRECTION
 40
0.0
  9
$TIMEZONE
 70
-8000
  9
$LIGHTGLYPHDISPLAY
280
1
  9
$TILEMODELIGHTSYNCH
280
1
  9
$CMATERIAL
347
20
  9
$SOLIDHIST
280
0
  9
$SHOWHIST
280
1
  9
$DWFFRAME
280
2
  9
$DGNFRAME
280
2
  9
$REALWORLDSCALE
290
1
  9
$INTERFERECOLOR
 62
256
  9
$CSHADOW
280
0
  9
$SHADOWPLANELOCATION
 40
0.0
  0
ENDSEC
  0
SECTION
  2
CLASSES
  0
CLASS
  1
ACDBDICTIONARYWDFLT
  2
AcDbDictionaryWithDefault
  3
ObjectDBX Classes
 90
0
 91
0
280
0
281
0
  0
CLASS
  1
SUN
  2
AcDbSun
  3
SCENEOE
 90
1153
 91
0
280
0
281
0
  0
CLASS
  1
VISUALSTYLE
  2
AcDbVisualStyle
  3
ObjectDBX Classes
 90
4095
 91
0
280
0
281
0
  0
CLASS
  1
MATERIAL
  2
AcDbMaterial
  3
ObjectDBX Classes
 90
1153
 91
0
280
0
281
0
  0
CLASS
  1
SCALE
  2
AcDbScale
  3
ObjectDBX Classes
 90
1153
 91
0
280
0
281
0
  0
CLASS
  1
TABLESTYLE
  2
AcDbTableStyle
  3
ObjectDBX Classes
 90
4095
 91
0
280
0
281
0
  0
CLASS
  1
MLEADERSTYLE
  2
AcDbMLeaderStyle
  3
ACDB_MLEADERSTYLE_CLASS
 90
4095
 91
0
280
0
281
0
  0
CLASS
  1
DICTIONARYVAR
  2
AcDbDictionaryVar
  3
ObjectDBX Classes
 90
0
 91
0
280
0
281
0
  0
CLASS
  1
CELLSTYLEMAP
  2
AcDbCellStyleMap
  3
ObjectDBX Classes
 90
1152
 91
0
280
0
281
0
  0
CLASS
  1
MENTALRAYRENDERSETTINGS
  2
AcDbMentalRayRenderSettings
  3
SCENEOE
 90
1024
 91
0
280
0
281
0
  0
CLASS
  1
ACDBDETAILVIEWSTYLE
  2
AcDbDetailViewStyle
  3
ObjectDBX Classes
 90
1025
 91
0
280
0
281
0
  0
CLASS
  1
ACDBSECTIONVIEWSTYLE
  2
AcDbSectionViewStyle
  3
ObjectDBX Classes
 90
1025
 91
0
280
0
281
0
  0
CLASS
  1
RASTERVARIABLES
  2
AcDbRasterVariables
  3
ISM
 90
0
 91
0
280
0
281
0
  0
CLASS
  1
LAYOUT
  2
AcDbLayout
  3
ObjectDBX Classes
 90
0
 91
0
280
0
281
0
  0
CLASS
  1
ACDBPLACEHOLDER
  2
AcDbPlaceHolder
  3
ObjectDBX Classes
 90
0
 91
0
280
0
281
0
  0
ENDSEC
  0
SECTION
  2
TABLES
  0
TABLE
  2
VPORT
  5
8
330
0
100
AcDbSymbolTable
 70
1
  0
VPORT
  5
23
330
8
100
AcDbSymbolTableRecord
100
AcDbViewportTableRecord
  2
*Active
 70
0
 10
0.0
 20
0.0
 11
1.0
 21
1.0
 12
0.0
 22
0.0
 13
0.0
 23
0.0
 14
0.5
 24
0.5
 15
0.5
 25
0.5
 16
0.0
 26
0.0
 36
1.0
 17
0.0
 27
0.0
 37
0.0
 40
1000.0
 41
1.34
 42
50.0
 43
0.0
 44
0.0
 50
0.0
 51
0.0
 71
0
 72
1000
 73
1
 74
3
 75
0
 76
0
 77
0
 78
0
281
0
 65
0
146
0.0
  0
ENDTAB
  0
TABLE
  2
LTYPE
  5
2
330
0
100
AcDbSymbolTable
 70
3
  0
LTYPE
  5
24
330
2
100
AcDbSymbolTableRecord
100
AcDbLinetypeTableRecord
  2
ByBlock
 70
0
  3

 72
65
 73
0
 40
0.0
  0
LTYPE
  5
25
330
2
100
AcDbSymbolTableRecord
100
AcDbLinetypeTableRecord
  2
ByLayer
 70
0
  3

 72
65
 73
0
 40
0.0
  0
LTYPE
  5
26
330
2
100
AcDbSymbolTableRecord
100
AcDbLinetypeTableRecord
  2
Continuous
 70
0
  3

 72
65
 73
0
 40
0.0
  0
ENDTAB
  0
TABLE
  2
LAYER
  5
1
330
0
100
AcDbSymbolTable
 70
4
  0
LAYER
  5
27
330
1
100
AcDbSymbolTableRecord
100
AcDbLayerTableRecord
  2
0
 70
0
 62
7
  6
Continuous
370
-3
390
13
347
21
  0
LAYER
  5
28
330
1
100
AcDbSymbolTableRecord
100
AcDbLayerTableRecord
  2
Defpoints
 70
0
 62
7
  6
Continuous
290
0
370
-3
390
13
347
21
  0
LAYER
  5
2F
330
1
100
AcDbSymbolTableRecord
100
AcDbLayerTableRecord
  2
OUTER
 70
0
 62
5
  6
Continuous
370
-3
390
13
347
21
  0
LAYER
  5
30
330
1
100
AcDbSymbolTableRecord
100
AcDbLayerTableRecord
  2
ISLAND
 70
0
 62
1
  6
Continuous
370
-3
390
13
347
21
  0
ENDTAB
  0
TABLE
  2
STYLE
  5
5
330
0
100
AcDbSymbolTable
 70
1
  0
STYLE
  5
29
330
5
100
AcDbSymbolTableRecord
100
AcDbTextStyleTableRecord
  2
Standard
 70
0
 40
0.0
 41
1.0
 50
0.0
 71
0
 42
2.5
  3
txt
  4

  0
ENDTAB
  0
TABLE
  2
VIEW
  5
7
330
0
100
AcDbSymbolTable
 70
0
  0
ENDTAB
  0
TABLE
  2
UCS
  5
6
330
0
100
AcDbSymbolTable
 70
0
  0
ENDTAB
  0
TABLE
  2
APPID
  5
3
330
0
100
AcDbSymbolTable
 70
3
  0
APPID
  5
2A
330
3
100
AcDbSymbolTableRecord
100
AcDbRegAppTableRecord
  2
ACAD
 70
0
  0
APPID
  5
3D
330
3
100
AcDbSymbolTableRecord
100
AcDbRegAppTableRecord
  2
HATCHBACKGROUNDCOLOR
 70
0
  0
APPID
  5
3E
330
3
100
AcDbSymbolTableRecord
100
AcDbRegAppTableRecord
  2
EZDXF
 70
0
  0
ENDTAB
  0
TABLE
  2
DIMSTYLE
  5
4
330
0
100
AcDbSymbolTable
 70
1
100
AcDbDimStyleTable
  0
DIMSTYLE
105
2B
330
4
100
AcDbSymbolTableRecord
100
AcDbDimStyleTableRecord
  2
Standard
 70
0
 40
1.0
 41
2.5
 42
0.625
 43
3.75
 44
1.25
 45
0.0
 46
0.0
 47
0.0
 48
0.0
 49
2.5
140
2.5
141
2.5
142
0.0
143
0.03937007874
144
1.0
145
0.0
146
1.0
147
0.625
148
0.0
 69
0
 70
0
 71
0
 72
0
 73
0
 74
0
 75
0
 76
0
 77
1
 78
8
 79
3
170
0
171
3
172
1
173
0
174
0
175
0
176
0
177
0
178
0
179
2
271
2
272
2
273
2
274
3
275
0
276
0
277
2
278
44
279
0
280
0
281
0
282
0
283
0
284
8
285
0
286
0
288
0
289
3
290
0
371
-2
372
-2
  0
ENDTAB
  0
TABLE
  2
BLOCK_RECORD
  5
9
330
0
100
AcDbSymbolTable
 70
2
  0
BLOCK_RECORD
  5
17
330
9
100
AcDbSymbolTableRecord
100
AcDbBlockTableRecord
  2
*Model_Space
340
1A
 70
0
280
1
281
0
  0
BLOCK_RECORD
  5
1B
330
9
100
AcDbSymbolTableRecord
100
AcDbBlockTableRecord
  2
*Paper_Space
340
1E
 70
0
280
1
281
0
  0
ENDTAB
  0
ENDSEC
  0
SECTION
  2
BLOCKS
  0
BLOCK
  5
18
330
17
100
AcDbEntity
  8
0
100
AcDbBlockBegin
  2
*Model_Space
 70
0
 10
0.0
 20
0.0
 30
0.0
  3
*Model_Space
  1

  0
ENDBLK
  5
19
330
17
100
AcDbEntity
  8
0
100
AcDbBlockEnd
  0
BLOCK
  5
1C
330
1B
100
AcDbEntity
  8
0
100
AcDbBlockBegin
  2
*Paper_Space
 70
0
 10
0.0
 20
0.0
 30
0.0
  3
*Paper_Space
  1

  0
ENDBLK
  5
1D
330
1B
100
AcDbEntity
  8
0
100
AcDbBlockEnd
  0
ENDSEC
  0
SECTION
  2
ENTITIES
  0
LWPOLYLINE
  5
31
330
17
100
AcDbEntity
  8
OUTER
100
AcDbPolyline
 90
828
 70
1
 10
0.66
 20
0.3593059114498377
 10
1.6308501844403214
 20
0.09916738855744711
 10
1.6054265481830265
 20
0.08151255745046848
 10
1.5806395200478527
 20
0.06297455383127426
 10
1.5565197654789227
 20
0.043576312119878446
 10
1.5330971243982305
 20
0.023341830985829093
 10
1.510400574288972
 20
0.0022961436580870576
 10
1.4884581943458528
 20
-0.019534713045005536
 10
1.4672971307367155
 20
-0.04212373092735744
 10
1.4469435630184706
 20
-0.06544296382850534
 10
1.4274226717488747
 20
-0.08946356219740015
 10
1.4087586073342289
 20
-0.11415580878383147
 10
1.3909744601515364
 20
-0.13948915540332618
 10
1.374092231982081
 20
-0.1654322607300523
 10
1.3581328087917712
 20
-0.1919530290709544
 10
1.3431159348919235
 20
-0.21901865007316312
 10
1.3290601885124467
 20
-0.24659563931555484
 10
1.3159829588176604
 20
-0.27464987973423227
 10
1.3039004243931656
 20
-0.30314666383068883
 10
1.2928275332303976
 20
-0.332050736610431
 10
1.282777984233613
 20
-0.36132633919894125
 10
1.2737642102721962
 20
-0.39093725308101557
 10
1.2657973627992478
 20
-0.4208468449087547
 10
1.2588872980554875
 20
-0.45101811182276086
 10
1.2530425648755368
 20
-0.48141372723048564
 10
1.2482703941116688
 20
-0.5119960869850839
 10
1.2445766896881107
 20
-0.542727355907641
 10
1.2419660212969603
 20
-0.573569514595233
 10
1.2404416187447613
 20
-0.6044844064568914
 10
1.240005367956726
 20
-0.6354337849192947
 10
1.2406578086435482
 20
-0.666379360743786
 10
1.242398133633698
 20
-0.6972828493961667
 10
1.245224189872019
 20
-0.728106018410676
 10
1.2491324810833953
 20
-0.7588107346895511
 10
1.2541181720981924
 20
-0.7893590116796556
 10
1.2601750948341217
 20
-0.8197130563678038
 10
1.2672957559271265
 20
-0.849835316036656
 10
1.2754713460018472
 20
-0.8796885247233163
 10
1.2846917505702038
 20
-0.9092357493231829
 10
1.294945562544605
 20
-0.9384404352819946
 10
1.306220096350303
 20
-0.967266451819548
 10
1.318501403619445
 20
-0.9956781366291485
 10
1.3317742904473895
 20
-1.023640339997477
 10
1.3460223361899524
 20
-1.0511184682903023
 10
1.3612279137783219
 20
-1.0780785267502395
 10
1.3773722115265083
 20
-1.1044871615535963
 10
1.3944352564043516
 20
-1.1303117010742894
 10
1.4123959387472964
 20
-1.155520196303775
 10
1.4312320383723578
 20
-1.1800814603769842
 10
1.4509202520679763
 20
-1.2039651071553723
 10
1.4714362224237492
 20
-1.2271415888193398
 10
1.4927545679643675
 20
-1.2495822324235228
 10
1.5148489145504862
 20
-1.2712592753697276
 10
1.5376919280076748
 20
-1.2921458997536215
 10
1.5612553479430789
 20
-1.312216265542689
 10
1.5855100227079633
 20
-1.3314455425444076
 10
1.6104259454628767
 20
-1.3498099411250957
 10
1.6359722913008201
 20
-1.3672867416414176
 10
1.662117455382498
 20
-1.3838543225481548
 10
1.6888290920364621
 20
-1.3994921871474464
 10
1.7160741547757834
 20
-1.4141809889464219
 10
1.743818937181746
 20
-1.4279025555918516
 10
1.7720291146039733
 20
-1.4406399113521968
 10
1.8006697866254116
 20
-1.4523772981192562
 10
1.8297055202396222
 20
-1.4631001949034181
 10
1.8591003936869688
 20
-1.472795335798403
 10
1.888818040895478
 20
-1.4814507263932737
 10
1.918821696471371
 20
-1.4890556586114012
 10
1.949074241183633
 20
-1.4956007239580398
 10
1.9795382478863215
 20
-1.5010778251601078
 10
2.0101760278218244
 20
-1.5054801861837883
 10
2.040949677247769
 20
-1.5088023606175458
 10
2.071821124329891
 20
-1.5110402384101902
 10
2.102752176242885
 20
-1.5121910509556575
 10
2.1337045664209113
 20
-1.5122533745182096
 10
2.164640001899344
 20
-1.5112271319938175
 10
2.195520210689185
 20
-1.5091135930055528
 10
2.22630698912552
 20
-1.505915372332863
 10
2.256962249131441
 20
-1.5016364266766815
 10
2.287448065338982
 20
-1.4962820497643636
 10
2.317726722008752
 20
-1.4898588658005196
 10
2.347760759690218
 20
-1.4823748212718297
 10
9.66050341276408
 20
0.47706866707593715
 10
11.070850184440319
 20
0.09916738855744711
 10
11.045426548183025
 20
0.08151255745046815
 10
11.020639520047851
 20
0.06297455383127415
 10
10.99651976547892
 20
0.043576312119878224
 10
10.97309712439823
 20
0.02334183098582876
 10
10.95040057428897
 20
0.0022961436580867245
 10
10.92845819434585
 20
-0.01953471304500609
 10
10.907297130736714
 20
-0.04212373092735777
 10
10.88694356301847
 20
-0.06544296382850556
 10
10.867422671748873
 20
-0.0894635621974007
 10
10.848758607334227
 20
-0.11415580878383169
 10
10.830974460151534
 20
-0.13948915540332651
 10
10.81409223198208
 20
-0.16543226073005274
 10
10.79813280879177
 20
-0.19195302907095468
 10
10.783115934891923
 20
-0.21901865007316346
 10
10.769060188512444
 20
-0.24659563931555523
 10
10.75598295881766
 20
-0.27464987973423227
 10
10.743900424393164
 20
-0.3031466638306892
 10
10.732827533230395
 20
-0.3320507366104314
 10
10.72277798423361
 20
-0.36132633919894164
 10
10.713764210272195
 20
-0.3909372530810167
 10
10.705797362799247
 20
-0.42084684490875507
 10
10.698887298055485
 20
-0.4510181118227612
 10
10.693042564875535
 20
-0.48141372723048637
 10
10.688270394111667
 20
-0.5119960869850843
 10
10.68457668968811
 20
-0.5427273559076413
 10
10.681966021296958
 20
-0.5735695145952334
 10
10.68044161874476
 20
-0.6044844064568914
 10
10.680005367956724
 20
-0.6354337849192951
 10
10.680657808643547
 20
-0.6663793607437865
 10
10.682398133633697
 20
-0.6972828493961667
 10
10.685224189872018
 20
-0.7281060184106763
 10
10.689132481083394
 20
-0.7588107346895514
 10
10.694118172098191
 20
-0.7893590116796556
 10
10.70017509483412
 20
-0.819713056367805
 10
10.707295755927126
 20
-0.8498353160366563
 10
10.715471346001845
 20
-0.8796885247233166
 10
10.724691750570203
 20
-0.9092357493231836
 10
10.734945562544603
 20
-0.9384404352819946
 10
10.746220096350301
 20
-0.9672664518195484
 10
10.758501403619444
 20
-0.9956781366291488
 10
10.771774290447388
 20
-1.023640339997477
 10
10.786022336189951
 20
-1.0511184682903028
 10
10.801227913778321
 20
-1.07807852675024
 10
10.817372211526507
 20
-1.1044871615535963
 10
10.834435256404351
 20
-1.13031170107429
 10
10.852395938747296
 20
-1.1555201963037756
 10
10.871232038372357
 20
-1.1800814603769845
 10
10.890920252067975
 20
-1.203965107155373
 10
10.911436222423749
 20
-1.22714158881934
 10
10.932754567964366
 20
-1.249582232423523
 10
10.954848914550485
 20
-1.271259275369728
 10
10.977691928007674
 20
-1.2921458997536215
 10
11.001255347943077
 20
-1.312216265542689
 10
11.025510022707962
 20
-1.331445542544408
 10
11.050425945462875
 20
-1.3498099411250957
 10
11.07597229130082
 20
-1.367286741641418
 10
11.102117455382498
 20
-1.3838543225481552
 10
11.128829092036462
 20
-1.3994921871474464
 10
11.156074154775784
 20
-1.414180988946422
 10
11.183818937181744
 20
-1.4279025555918516
 10
11.212029114603972
 20
-1.440639911352197
 10
11.24066978662541
 20
-1.4523772981192564
 10
11.26970552023962
 20
-1.4631001949034181
 10
11.299100393686969
 20
-1.4727953357984034
 10
11.328818040895477
 20
-1.4814507263932737
 10
11.358821696471372
 20
-1.4890556586114017
 10
11.389074241183632
 20
-1.4956007239580398
 10
11.41953824788632
 20
-1.5010778251601078
 10
11.450176027821824
 20
-1.5054801861837885
 10
11.480949677247768
 20
-1.5088023606175458
 10
11.51182112432989
 20
-1.5110402384101902
 10
11.542752176242885
 20
-1.5121910509556575
 10
11.57370456642091
 20
-1.5122533745182096
 10
11.604640001899343
 20
-1.5112271319938175
 10
11.635520210689185
 20
-1.5091135930055528
 10
11.66630698912552
 20
-1.505915372332863
 10
11.69696224913144
 20
-1.5016364266766815
 10
11.727448065338981
 20
-1.4962820497643636
 10
11.757726722008751
 20
-1.4898588658005192
 10
11.787760759690217
 20
-1.4823748212718297
 10
19.100503412764077
 20
0.47706866707593715
 10
20.510850184440322
 20
0.09916738855744711
 10
20.485426548183028
 20
0.08151255745046881
 10
20.460639520047852
 20
0.06297455383127482
 10
20.436519765478923
 20
0.043576312119879
 10
20.41309712439823
 20
0.023341830985829204
 10
20.39040057428897
 20
0.0022961436580872796
 10
20.368458194345852
 20
-0.01953471304500498
 10
20.347297130736717
 20
-0.04212373092735722
 10
20.32694356301847
 20
-0.06544296382850467
 10
20.307422671748874
 20
-0.08946356219739982
 10
20.28875860733423
 20
-0.1141558087838308
 10
20.270974460151535
 20
-0.1394891554033259
 10
20.25409223198208
 20
-0.16543226073005202
 10
20.23813280879177
 20
-0.1919530290709533
 10
20.223115934891922
 20
-0.2190186500731628
 10
20.209060188512446
 20
-0.24659563931555417
 10
20.19598295881766
 20
-0.2746498797342316
 10
20.183900424393165
 20
-0.30314666383068845
 10
20.172827533230397
 20
-0.33205073661043066
 10
20.162777984233614
 20
-0.36132633919894086
 10
20.153764210272197
 20
-0.39093725308101557
 10
20.145797362799247
 20
-0.42084684490875435
 10
20.138887298055486
 20
-0.4510181118227601
 10
20.133042564875538
 20
-0.48141372723048526
 10
20.12827039411167
 20
-0.5119960869850831
 10
20.124576689688112
 20
-0.5427273559076405
 10
20.12196602129696
 20
-0.5735695145952326
 10
20.12044161874476
 20
-0.6044844064568903
 10
20.120005367956725
 20
-0.6354337849192944
 10
20.120657808643546
 20
-0.6663793607437857
 10
20.1223981336337
 20
-0.6972828493961659
 10
20.125224189872018
 20
-0.7281060184106756
 10
20.129132481083396
 20
-0.7588107346895507
 10
20.13411817209819
 20
-0.7893590116796549
 10
20.14017509483412
 20
-0.8197130563678038
 10
20.147295755927125
 20
-0.8498353160366555
 10
20.155471346001846
 20
-0.8796885247233158
 10
20.164691750570203
 20
-0.9092357493231829
 10
20.174945562544604
 20
-0.9384404352819942
 10
20.186220096350304
 20
-0.9672664518195476
 10
20.198501403619446
 20
-0.9956781366291485
 10
20.211774290447387
 20
-1.0236403399974758
 10
20.226022336189953
 20
-1.051118468290302
 10
20.24122791377832
 20
-1.0780785267502395
 10
20.25737221152651
 20
-1.1044871615535956
 10
20.274435256404352
 20
-1.1303117010742894
 10
20.292395938747298
 20
-1.1555201963037747
 10
20.311232038372356
 20
-1.180081460376984
 10
20.330920252067976
 20
-1.2039651071553723
 10
20.35143622242375
 20
-1.2271415888193395
 10
20.372754567964368
 20
-1.2495822324235226
 10
20.394848914550487
 20
-1.2712592753697276
 10
20.417691928007674
 20
-1.2921458997536213
 10
20.441255347943077
 20
-1.3122162655426883
 10
20.465510022707964
 20
-1.3314455425444076
 10
20.490425945462874
 20
-1.349809941125095
 10
20.51597229130082
 20
-1.3672867416414176
 10
20.5421174553825
 20
-1.3838543225481548
 10
20.568829092036463
 20
-1.399492187147446
 10
20.596074154775785
 20
-1.4141809889464219
 10
20.623818937181746
 20
-1.4279025555918516
 10
20.652029114603973
 20
-1.4406399113521964
 10
20.680669786625412
 20
-1.4523772981192562
 10
20.709705520239623
 20
-1.4631001949034181
 10
20.739100393686968
 20
-1.472795335798403
 10
20.76881804089548
 20
-1.4814507263932737
 10
20.79882169647137
 20
-1.4890556586114012
 10
20.829074241183633
 20
-1.4956007239580396
 10
20.85953824788632
 20
-1.5010778251601078
 10
20.890176027821823
 20
-1.5054801861837883
 10
20.92094967724777
 20
-1.5088023606175458
 10
20.95182112432989
 20
-1.5110402384101902
 10
20.982752176242887
 20
-1.5121910509556575
 10
21.01370456642091
 20
-1.5122533745182096
 10
21.044640001899342
 20
-1.5112271319938175
 10
21.075520210689184
 20
-1.5091135930055528
 10
21.10630698912552
 20
-1.505915372332863
 10
21.13696224913144
 20
-1.5016364266766815
 10
21.16744806533898
 20
-1.4962820497643636
 10
21.197726722008753
 20
-1.4898588658005196
 10
21.227760759690216
 20
-1.4823748212718297
 10
28.540503412764078
 20
0.47706866707593715
 10
29.950850184440323
 20
0.09916738855744711
 10
29.92542654818303
 20
0.08151255745046881
 10
29.900639520047854
 20
0.06297455383127482
 10
29.876519765478925
 20
0.043576312119879
 10
29.853097124398232
 20
0.023341830985829204
 10
29.830400574288973
 20
0.0022961436580872796
 10
29.808458194345853
 20
-0.01953471304500498
 10
29.787297130736718
 20
-0.04212373092735722
 10
29.766943563018472
 20
-0.06544296382850467
 10
29.747422671748875
 20
-0.08946356219739982
 10
29.728758607334232
 20
-0.1141558087838308
 10
29.710974460151537
 20
-0.1394891554033259
 10
29.694092231982083
 20
-0.16543226073005202
 10
29.678132808791773
 20
-0.1919530290709533
 10
29.663115934891923
 20
-0.2190186500731628
 10
29.649060188512447
 20
-0.24659563931555417
 10
29.63598295881766
 20
-0.2746498797342316
 10
29.623900424393167
 20
-0.30314666383068845
 10
29.612827533230398
 20
-0.33205073661043066
 10
29.602777984233615
 20
-0.36132633919894086
 10
29.593764210272198
 20
-0.39093725308101557
 10
29.585797362799248
 20
-0.42084684490875435
 10
29.578887298055488
 20
-0.4510181118227601
 10
29.57304256487554
 20
-0.48141372723048526
 10
29.56827039411167
 20
-0.5119960869850831
 10
29.564576689688113
 20
-0.5427273559076405
 10
29.56196602129696
 20
-0.5735695145952326
 10
29.56044161874476
 20
-0.6044844064568903
 10
29.560005367956727
 20
-0.6354337849192944
 10
29.560657808643548
 20
-0.6663793607437857
 10
29.5623981336337
 20
-0.6972828493961659
 10
29.56522418987202
 20
-0.7281060184106756
 10
29.569132481083397
 20
-0.7588107346895507
 10
29.574118172098192
 20
-0.7893590116796549
 10
29.58017509483412
 20
-0.8197130563678038
 10
29.587295755927126
 20
-0.8498353160366555
 10
29.595471346001847
 20
-0.8796885247233158
 10
29.604691750570204
 20
-0.9092357493231829
 10
29.614945562544605
 20
-0.9384404352819942
 10
29.626220096350306
 20
-0.9672664518195476
 10
29.638501403619447
 20
-0.9956781366291485
 10
29.65177429044739
 20
-1.0236403399974758
 10
29.666022336189954
 20
-1.051118468290302
 10
29.681227913778322
 20
-1.0780785267502395
 10
29.69737221152651
 20
-1.1044871615535956
 10
29.714435256404354
 20
-1.1303117010742894
 10
29.7323959387473
 20
-1.1555201963037747
 10
29.751232038372358
 20
-1.180081460376984
 10
29.770920252067977
 20
-1.2039651071553723
 10
29.79143622242375
 20
-1.2271415888193395
 10
29.81275456796437
 20
-1.2495822324235226
 10
29.834848914550488
 20
-1.2712592753697276
 10
29.857691928007675
 20
-1.2921458997536213
 10
29.88125534794308
 20
-1.3122162655426883
 10
29.905510022707965
 20
-1.3314455425444076
 10
29.930425945462876
 20
-1.349809941125095
 10
29.95597229130082
 20
-1.3672867416414176
 10
29.9821174553825
 20
-1.3838543225481548
 10
30.008829092036464
 20
-1.399492187147446
 10
30.036074154775786
 20
-1.4141809889464219
 10
30.063818937181747
 20
-1.4279025555918516
 10
30.092029114603974
 20
-1.4406399113521964
 10
30.120669786625413
 20
-1.4523772981192562
 10
30.149705520239625
 20
-1.4631001949034181
 10
30.17910039368697
 20
-1.472795335798403
 10
30.20881804089548
 20
-1.4814507263932737
 10
30.238821696471373
 20
-1.4890556586114012
 10
30.269074241183635
 20
-1.4956007239580396
 10
30.29953824788632
 20
-1.5010778251601078
 10
30.330176027821825
 20
-1.5054801861837883
 10
30.36094967724777
 20
-1.5088023606175458
 10
30.39182112432989
 20
-1.5110402384101902
 10
30.422752176242888
 20
-1.5121910509556575
 10
30.45370456642091
 20
-1.5122533745182096
 10
30.484640001899344
 20
-1.5112271319938175
 10
30.515520210689186
 20
-1.5091135930055528
 10
30.546306989125522
 20
-1.505915372332863
 10
30.57696224913144
 20
-1.5016364266766815
 10
30.607448065338982
 20
-1.4962820497643636
 10
30.637726722008754
 20
-1.4898588658005196
 10
30.667760759690218
 20
-1.4823748212718297
 10
37.98050341276409
 20
0.4770686670759367
 10
39.39085018444032
 20
0.09916738855744711
 10
39.365426548183024
 20
0.08151255745046881
 10
39.34063952004785
 20
0.06297455383127482
 10
39.316519765478915
 20
0.043576312119879
 10
39.29309712439822
 20
0.023341830985829204
 10
39.27040057428897
 20
0.0022961436580872796
 10
39.24845819434585
 20
-0.01953471304500498
 10
39.22729713073671
 20
-0.04212373092735722
 10
39.20694356301847
 20
-0.06544296382850467
 10
39.18742267174887
 20
-0.08946356219739982
 10
39.168758607334226
 20
-0.1141558087838308
 10
39.15097446015153
 20
-0.1394891554033259
 10
39.13409223198207
 20
-0.16543226073005202
 10
39.11813280879177
 20
-0.1919530290709533
 10
39.10311593489192
 20
-0.2190186500731628
 10
39.08906018851244
 20
-0.24659563931555417
 10
39.075982958817654
 20
-0.2746498797342316
 10
39.06390042439316
 20
-0.30314666383068845
 10
39.05282753323039
 20
-0.33205073661043066
 10
39.04277798423361
 20
-0.36132633919894086
 10
39.03376421027219
 20
-0.39093725308101557
 10
39.025797362799246
 20
-0.42084684490875435
 10
39.01888729805548
 20
-0.4510181118227601
 10
39.01304256487553
 20
-0.48141372723048526
 10
39.00827039411166
 20
-0.5119960869850831
 10
39.00457668968811
 20
-0.5427273559076405
 10
39.00196602129696
 20
-0.5735695145952326
 10
39.00044161874476
 20
-0.6044844064568903
 10
39.000005367956724
 20
-0.6354337849192944
 10
39.000657808643545
 20
-0.6663793607437857
 10
39.00239813363369
 20
-0.6972828493961659
 10
39.00522418987202
 20
-0.7281060184106756
 10
39.00913248108339
 20
-0.7588107346895507
 10
39.014118172098186
 20
-0.7893590116796549
 10
39.020175094834116
 20
-0.8197130563678038
 10
39.02729575592712
 20
-0.8498353160366555
 10
39.03547134600184
 20
-0.8796885247233158
 10
39.0446917505702
 20
-0.9092357493231829
 10
39.0549455625446
 20
-0.9384404352819942
 10
39.0662200963503
 20
-0.9672664518195476
 10
39.07850140361944
 20
-0.9956781366291485
 10
39.09177429044738
 20
-1.0236403399974758
 10
39.106022336189945
 20
-1.051118468290302
 10
39.12122791377832
 20
-1.0780785267502395
 10
39.137372211526504
 20
-1.1044871615535956
 10
39.15443525640435
 20
-1.1303117010742894
 10
39.17239593874729
 20
-1.1555201963037747
 10
39.191232038372355
 20
-1.180081460376984
 10
39.21092025206797
 20
-1.2039651071553723
 10
39.231436222423746
 20
-1.2271415888193395
 10
39.25275456796436
 20
-1.2495822324235226
 10
39.27484891455048
 20
-1.2712592753697276
 10
39.29769192800767
 20
-1.2921458997536213
 10
39.32125534794307
 20
-1.3122162655426883
 10
39.345510022707955
 20
-1.3314455425444076
 10
39.37042594546287
 20
-1.349809941125095
 10
39.395972291300815
 20
-1.3672867416414176
 10
39.42211745538249
 20
-1.3838543225481548
 10
39.448829092036455
 20
-1.399492187147446
 10
39.47607415477578
 20
-1.4141809889464219
 10
39.50381893718174
 20
-1.4279025555918516
 10
39.532029114603965
 20
-1.4406399113521964
 10
39.560669786625404
 20
-1.4523772981192562
 10
39.58970552023962
 20
-1.4631001949034181
 10
39.61910039368696
 20
-1.472795335798403
 10
39.64881804089547
 20
-1.4814507263932737
 10
39.67882169647137
 20
-1.4890556586114012
 10
39.70907424118363
 20
-1.4956007239580396
 10
39.739538247886316
 20
-1.5010778251601078
 10
39.77017602782182
 20
-1.5054801861837883
 10
39.800949677247765
 20
-1.5088023606175458
 10
39.831821124329885
 20
-1.5110402384101902
 10
39.86275217624288
 20
-1.5121910509556575
 10
39.89370456642091
 20
-1.5122533745182096
 10
39.92464000189934
 20
-1.5112271319938175
 10
39.95552021068918
 20
-1.5091135930055528
 10
39.98630698912552
 20
-1.505915372332863
 10
40.01696224913144
 20
-1.5016364266766815
 10
40.047448065338976
 20
-1.4962820497643636
 10
40.07772672200875
 20
-1.4898588658005196
 10
40.107760759690215
 20
-1.4823748212718297
 10
47.420503412764084
 20
0.4770686670759367
 10
49.200947916990636
 20
-0.0
 10
50.0
 20
-0.0
 10
50.0
 20
0.31058285412302417
 10
49.200947916990636
 20
0.31058285412302417
 10
44.827760759690214
 20
1.4823748212718297
 10
44.79772672200875
 20
1.4898588658005196
 10
44.767448065338975
 20
1.4962820497643636
 10
44.73696224913144
 20
1.5016364266766815
 10
44.706306989125515
 20
1.505915372332863
 10
44.67552021068918
 20
1.5091135930055528
 10
44.64464000189934
 20
1.5112271319938175
 10
44.61370456642091
 20
1.5122533745182096
 10
44.58275217624288
 20
1.5121910509556575
 10
44.551821124329884
 20
1.5110402384101902
 10
44.52094967724776
 20
1.5088023606175458
 10
44.49017602782182
 20
1.5054801861837885
 10
44.459538247886314
 20
1.5010778251601078
 10
44.42907424118363
 20
1.4956007239580398
 10
44.398821696471366
 20
1.4890556586114014
 10
44.36881804089547
 20
1.4814507263932737
 10
44.33910039368696
 20
1.4727953357984032
 10
44.30970552023962
 20
1.4631001949034181
 10
44.28066978662541
 20
1.4523772981192564
 10
44.25202911460397
 20
1.4406399113521968
 10
44.22381893718174
 20
1.4279025555918516
 10
44.19607415477578
 20
1.414180988946422
 10
44.168829092036454
 20
1.3994921871474464
 10
44.14211745538249
 20
1.3838543225481548
 10
44.115972291300814
 20
1.3672867416414178
 10
44.09042594546287
 20
1.3498099411250954
 10
44.065510022707954
 20
1.3314455425444078
 10
44.04125534794307
 20
1.3122162655426888
 10
44.01769192800767
 20
1.2921458997536215
 10
43.99484891455048
 20
1.2712592753697276
 10
43.97275456796436
 20
1.2495822324235228
 10
43.951436222423744
 20
1.22714158881934
 10
43.93092025206797
 20
1.2039651071553723
 10
43.911232038372354
 20
1.1800814603769845
 10
43.89239593874729
 20
1.1555201963037751
 10
43.87443525640435
 20
1.1303117010742891
 10
43.8573722115265
 20
1.1044871615535965
 10
43.84122791377832
 20
1.0780785267502393
 10
43.82602233618994
 20
1.0511184682903023
 10
43.81177429044738
 20
1.0236403399974767
 10
43.79850140361944
 20
0.9956781366291487
 10
43.7862200963503
 20
0.9672664518195482
 10
43.7749455625446
 20
0.9384404352819948
 10
43.7646917505702
 20
0.9092357493231831
 10
43.75547134600184
 20
0.879688524723316
 10
43.74729575592712
 20
0.8498353160366562
 10
43.740175094834115
 20
0.819713056367804
 10
43.734118172098185
 20
0.7893590116796555
 10
43.72913248108339
 20
0.7588107346895513
 10
43.725224189872016
 20
0.7281060184106755
 10
43.72239813363369
 20
0.6972828493961665
 10
43.720657808643544
 20
0.6663793607437858
 10
43.72000536795672
 20
0.6354337849192946
 10
43.72044161874476
 20
0.6044844064568913
 10
43.72196602129696
 20
0.5735695145952332
 10
43.72457668968811
 20
0.5427273559076408
 10
43.72827039411166
 20
0.5119960869850837
 10
43.73304256487553
 20
0.48141372723048587
 10
43.73888729805548
 20
0.45101811182276064
 10
43.745797362799244
 20
0.4208468449087549
 10
43.75376421027219
 20
0.3909372530810158
 10
43.76277798423361
 20
0.3613263391989414
 10
43.77282753323039
 20
0.33205073661043116
 10
43.78390042439316
 20
0.30314666383068833
 10
43.79598295881765
 20
0.27464987973423216
 10
43.80906018851244
 20
0.24659563931555473
 10
43.823115934891916
 20
0.21901865007316296
 10
43.83813280879176
 20
0.1919530290709539
 10
43.85409223198207
 20
0.16543226073005252
 10
43.87097446015153
 20
0.1394891554033264
 10
43.888758607334225
 20
0.11415580878383091
 10
43.90742267174887
 20
0.08946356219740026
 10
43.92694356301846
 20
0.06544296382850512
 10
43.94729713073671
 20
0.04212373092735722
 10
43.96845819434585
 20
0.019534713045005425
 10
43.99040057428897
 20
-0.0022961436580868355
 10
44.01309712439822
 20
-0.023341830985829204
 10
44.036519765478914
 20
-0.04357631211987856
 10
44.06063952004785
 20
-0.0629745538312747
 10
44.08542654818302
 20
-0.08151255745046859
 10
44.11085018444032
 20
-0.09916738855744733
 10
42.70050341276408
 20
-0.4770686670759367
 10
35.38776075969022
 20
1.4823748212718297
 10
35.35772672200875
 20
1.4898588658005196
 10
35.32744806533898
 20
1.4962820497643636
 10
35.29696224913144
 20
1.5016364266766815
 10
35.26630698912552
 20
1.505915372332863
 10
35.23552021068918
 20
1.5091135930055528
 10
35.20464000189934
 20
1.5112271319938175
 10
35.17370456642091
 20
1.5122533745182096
 10
35.14275217624288
 20
1.5121910509556575
 10
35.111821124329886
 20
1.5110402384101902
 10
35.080949677247766
 20
1.5088023606175458
 10
35.05017602782182
 20
1.5054801861837885
 10
35.01953824788632
 20
1.5010778251601078
 10
34.98907424118363
 20
1.4956007239580398
 10
34.95882169647137
 20
1.4890556586114014
 10
34.92881804089547
 20
1.4814507263932737
 10
34.899100393686965
 20
1.4727953357984032
 10
34.86970552023962
 20
1.4631001949034181
 10
34.84066978662541
 20
1.4523772981192564
 10
34.81202911460397
 20
1.4406399113521968
 10
34.78381893718174
 20
1.4279025555918516
 10
34.75607415477578
 20
1.414180988946422
 10
34.728829092036456
 20
1.3994921871474464
 10
34.70211745538249
 20
1.3838543225481548
 10
34.675972291300816
 20
1.3672867416414178
 10
34.65042594546287
 20
1.3498099411250954
 10
34.62551002270796
 20
1.3314455425444078
 10
34.601255347943074
 20
1.3122162655426888
 10
34.577691928007674
 20
1.2921458997536215
 10
34.55484891455048
 20
1.2712592753697276
 10
34.53275456796436
 20
1.2495822324235228
 10
34.51143622242375
 20
1.22714158881934
 10
34.49092025206797
 20
1.2039651071553723
 10
34.47123203837236
 20
1.1800814603769845
 10
34.452395938747294
 20
1.1555201963037751
 10
34.43443525640435
 20
1.1303117010742891
 10
34.417372211526505
 20
1.1044871615535965
 10
34.40122791377832
 20
1.0780785267502393
 10
34.386022336189946
 20
1.0511184682903023
 10
34.371774290447384
 20
1.0236403399974767
 10
34.35850140361944
 20
0.9956781366291487
 10
34.3462200963503
 20
0.9672664518195482
 10
34.334945562544604
 20
0.9384404352819948
 10
34.3246917505702
 20
0.9092357493231831
 10
34.31547134600184
 20
0.879688524723316
 10
34.30729575592712
 20
0.8498353160366562
 10
34.30017509483412
 20
0.819713056367804
 10
34.29411817209819
 20
0.7893590116796555
 10
34.28913248108339
 20
0.7588107346895513
 10
34.28522418987202
 20
0.7281060184106755
 10
34.28239813363369
 20
0.6972828493961665
 10
34.28065780864355
 20
0.6663793607437858
 10
34.280005367956726
 20
0.6354337849192946
 10
34.28044161874476
 20
0.6044844064568913
 10
34.28196602129696
 20
0.5735695145952332
 10
34.28457668968811
 20
0.5427273559076408
 10
34.28827039411166
 20
0.5119960869850837
 10
34.293042564875535
 20
0.48141372723048587
 10
34.29888729805548
 20
0.45101811182276064
 10
34.30579736279925
 20
0.4208468449087549
 10
34.31376421027219
 20
0.3909372530810158
 10
34.32277798423361
 20
0.3613263391989414
 10
34.33282753323039
 20
0.33205073661043116
 10
34.34390042439316
 20
0.30314666383068833
 10
34.355982958817656
 20
0.27464987973423216
 10
34.36906018851244
 20
0.24659563931555473
 10
34.38311593489192
 20
0.21901865007316296
 10
34.398132808791765
 20
0.1919530290709539
 10
34.414092231982075
 20
0.16543226073005252
 10
34.43097446015153
 20
0.1394891554033264
 10
34.44875860733423
 20
0.11415580878383091
 10
34.46742267174887
 20
0.08946356219740026
 10
34.486943563018464
 20
0.06544296382850512
 10
34.50729713073671
 20
0.04212373092735722
 10
34.52845819434585
 20
0.019534713045005425
 10
34.55040057428897
 20
-0.0022961436580868355
 10
34.573097124398224
 20
-0.023341830985829204
 10
34.59651976547892
 20
-0.04357631211987856
 10
34.62063952004785
 20
-0.0629745538312747
 10
34.645426548183025
 20
-0.08151255745046859
 10
34.67085018444032
 20
-0.09916738855744733
 10
33.26050341276408
 20
-0.47706866707593576
 10
25.94776075969022
 20
1.4823748212718297
 10
25.91772672200875
 20
1.4898588658005196
 10
25.887448065338983
 20
1.4962820497643636
 10
25.85696224913144
 20
1.5016364266766815
 10
25.82630698912552
 20
1.505915372332863
 10
25.795520210689183
 20
1.5091135930055528
 10
25.76464000189934
 20
1.5112271319938175
 10
25.73370456642091
 20
1.5122533745182096
 10
25.702752176242885
 20
1.5121910509556575
 10
25.67182112432989
 20
1.5110402384101902
 10
25.640949677247768
 20
1.5088023606175458
 10
25.610176027821826
 20
1.5054801861837885
 10
25.57953824788632
 20
1.5010778251601078
 10
25.549074241183632
 20
1.4956007239580398
 10
25.51882169647137
 20
1.4890556586114014
 10
25.488818040895477
 20
1.4814507263932737
 10
25.459100393686967
 20
1.4727953357984032
 10
25.429705520239622
 20
1.4631001949034181
 10
25.40066978662541
 20
1.4523772981192564
 10
25.372029114603972
 20
1.4406399113521968
 10
25.343818937181744
 20
1.4279025555918516
 10
25.316074154775784
 20
1.414180988946422
 10
25.288829092036462
 20
1.3994921871474464
 10
25.262117455382498
 20
1.3838543225481548
 10
25.23597229130082
 20
1.3672867416414178
 10
25.210425945462877
 20
1.3498099411250954
 10
25.185510022707962
 20
1.3314455425444078
 10
25.161255347943076
 20
1.3122162655426888
 10
25.137691928007673
 20
1.2921458997536215
 10
25.114848914550485
 20
1.2712592753697276
 10
25.092754567964366
 20
1.2495822324235228
 10
25.07143622242375
 20
1.22714158881934
 10
25.050920252067975
 20
1.2039651071553723
 10
25.031232038372355
 20
1.1800814603769845
 10
25.012395938747296
 20
1.1555201963037751
 10
24.99443525640435
 20
1.1303117010742891
 10
24.977372211526507
 20
1.1044871615535965
 10
24.96122791377832
 20
1.0780785267502393
 10
24.94602233618995
 20
1.0511184682903023
 10
24.93177429044739
 20
1.0236403399974767
 10
24.918501403619445
 20
0.9956781366291487
 10
24.906220096350303
 20
0.9672664518195482
 10
24.894945562544603
 20
0.9384404352819948
 10
24.8846917505702
 20
0.9092357493231831
 10
24.875471346001845
 20
0.879688524723316
 10
24.867295755927124
 20
0.8498353160366562
 10
24.86017509483412
 20
0.819713056367804
 10
24.85411817209819
 20
0.7893590116796555
 10
24.849132481083394
 20
0.7588107346895513
 10
24.845224189872017
 20
0.7281060184106755
 10
24.842398133633697
 20
0.6972828493961665
 10
24.840657808643545
 20
0.6663793607437858
 10
24.840005367956724
 20
0.6354337849192946
 10
24.84044161874476
 20
0.6044844064568913
 10
24.841966021296958
 20
0.5735695145952332
 10
24.84457668968811
 20
0.5427273559076408
 10
24.84827039411167
 20
0.5119960869850837
 10
24.853042564875537
 20
0.48141372723048587
 10
24.858887298055485
 20
0.45101811182276064
 10
24.865797362799245
 20
0.4208468449087549
 10
24.873764210272196
 20
0.3909372530810158
 10
24.882777984233613
 20
0.3613263391989414
 10
24.892827533230395
 20
0.33205073661043116
 10
24.903900424393164
 20
0.30314666383068833
 10
24.915982958817658
 20
0.27464987973423216
 10
24.929060188512445
 20
0.24659563931555473
 10
24.94311593489192
 20
0.21901865007316296
 10
24.95813280879177
 20
0.1919530290709539
 10
24.97409223198208
 20
0.16543226073005252
 10
24.990974460151534
 20
0.1394891554033264
 10
25.00875860733423
 20
0.11415580878383091
 10
25.027422671748873
 20
0.08946356219740026
 10
25.04694356301847
 20
0.06544296382850512
 10
25.067297130736716
 20
0.04212373092735722
 10
25.08845819434585
 20
0.019534713045005425
 10
25.11040057428897
 20
-0.0022961436580868355
 10
25.13309712439823
 20
-0.023341830985829204
 10
25.156519765478922
 20
-0.04357631211987856
 10
25.18063952004785
 20
-0.0629745538312747
 10
25.205426548183027
 20
-0.08151255745046859
 10
25.23085018444032
 20
-0.09916738855744733
 10
23.82050341276408
 20
-0.47706866707593715
 10
16.50776075969022
 20
1.4823748212718297
 10
16.477726722008754
 20
1.4898588658005196
 10
16.447448065338985
 20
1.4962820497643636
 10
16.41696224913144
 20
1.5016364266766815
 10
16.386306989125522
 20
1.505915372332863
 10
16.355520210689185
 20
1.5091135930055528
 10
16.324640001899343
 20
1.5112271319938175
 10
16.293704566420914
 20
1.5122533745182096
 10
16.262752176242888
 20
1.5121910509556575
 10
16.231821124329894
 20
1.5110402384101902
 10
16.20094967724777
 20
1.5088023606175458
 10
16.170176027821828
 20
1.5054801861837885
 10
16.13953824788632
 20
1.5010778251601078
 10
16.109074241183635
 20
1.4956007239580398
 10
16.078821696471373
 20
1.4890556586114014
 10
16.04881804089548
 20
1.4814507263932737
 10
16.01910039368697
 20
1.4727953357984032
 10
15.989705520239623
 20
1.4631001949034181
 10
15.960669786625413
 20
1.4523772981192564
 10
15.932029114603974
 20
1.4406399113521968
 10
15.903818937181747
 20
1.4279025555918516
 10
15.876074154775784
 20
1.414180988946422
 10
15.848829092036464
 20
1.3994921871474464
 10
15.822117455382498
 20
1.3838543225481548
 10
15.79597229130082
 20
1.3672867416414178
 10
15.770425945462877
 20
1.3498099411250954
 10
15.745510022707965
 20
1.3314455425444078
 10
15.72125534794308
 20
1.3122162655426888
 10
15.697691928007677
 20
1.2921458997536215
 10
15.674848914550488
 20
1.2712592753697276
 10
15.652754567964369
 20
1.2495822324235228
 10
15.631436222423751
 20
1.22714158881934
 10
15.610920252067977
 20
1.2039651071553723
 10
15.59123203837236
 20
1.1800814603769845
 10
15.572395938747297
 20
1.1555201963037751
 10
15.554435256404354
 20
1.1303117010742891
 10
15.53737221152651
 20
1.1044871615535965
 10
15.521227913778322
 20
1.0780785267502393
 10
15.506022336189954
 20
1.0511184682903023
 10
15.49177429044739
 20
1.0236403399974767
 10
15.478501403619447
 20
0.9956781366291487
 10
15.466220096350304
 20
0.9672664518195482
 10
15.454945562544605
 20
0.9384404352819948
 10
15.444691750570204
 20
0.9092357493231831
 10
15.435471346001847
 20
0.879688524723316
 10
15.427295755927128
 20
0.8498353160366562
 10
15.420175094834123
 20
0.819713056367804
 10
15.414118172098194
 20
0.7893590116796555
 10
15.409132481083397
 20
0.7588107346895513
 10
15.40522418987202
 20
0.7281060184106755
 10
15.4023981336337
 20
0.6972828493961665
 10
15.40065780864355
 20
0.6663793607437858
 10
15.400005367956727
 20
0.6354337849192946
 10
15.400441618744763
 20
0.6044844064568913
 10
15.40196602129696
 20
0.5735695145952332
 10
15.404576689688112
 20
0.5427273559076408
 10
15.40827039411167
 20
0.5119960869850837
 10
15.413042564875537
 20
0.48141372723048587
 10
15.418887298055488
 20
0.45101811182276064
 10
15.42579736279925
 20
0.4208468449087549
 10
15.433764210272198
 20
0.3909372530810158
 10
15.442777984233613
 20
0.3613263391989414
 10
15.452827533230398
 20
0.33205073661043116
 10
15.463900424393167
 20
0.30314666383068833
 10
15.475982958817662
 20
0.27464987973423216
 10
15.489060188512449
 20
0.24659563931555473
 10
15.503115934891925
 20
0.21901865007316296
 10
15.518132808791773
 20
0.1919530290709539
 10
15.534092231982083
 20
0.16543226073005252
 10
15.550974460151537
 20
0.1394891554033264
 10
15.56875860733423
 20
0.11415580878383091
 10
15.587422671748875
 20
0.08946356219740026
 10
15.606943563018472
 20
0.06544296382850512
 10
15.627297130736716
 20
0.04212373092735722
 10
15.648458194345855
 20
0.019534713045005425
 10
15.670400574288973
 20
-0.0022961436580868355
 10
15.693097124398232
 20
-0.023341830985829204
 10
15.716519765478925
 20
-0.04357631211987856
 10
15.740639520047853
 20
-0.0629745538312747
 10
15.765426548183028
 20
-0.08151255745046859
 10
15.790850184440323
 20
-0.09916738855744733
 10
14.380503412764078
 20
-0.47706866707593737
 10
7.067760759690218
 20
1.4823748212718297
 10
7.037726722008752
 20
1.4898588658005196
 10
7.007448065338982
 20
1.4962820497643636
 10
6.976962249131441
 20
1.5016364266766815
 10
6.94630698912552
 20
1.505915372332863
 10
6.915520210689186
 20
1.5091135930055528
 10
6.884640001899344
 20
1.5112271319938175
 10
6.853704566420911
 20
1.5122533745182096
 10
6.8227521762428855
 20
1.5121910509556575
 10
6.791821124329892
 20
1.5110402384101902
 10
6.760949677247768
 20
1.5088023606175458
 10
6.730176027821825
 20
1.5054801861837885
 10
6.699538247886322
 20
1.5010778251601078
 10
6.669074241183633
 20
1.4956007239580398
 10
6.638821696471371
 20
1.4890556586114014
 10
6.6088180408954775
 20
1.4814507263932737
 10
6.579100393686969
 20
1.4727953357984032
 10
6.549705520239622
 20
1.4631001949034181
 10
6.520669786625412
 20
1.4523772981192564
 10
6.492029114603974
 20
1.440639911352197
 10
6.463818937181746
 20
1.4279025555918516
 10
6.436074154775784
 20
1.414180988946422
 10
6.408829092036462
 20
1.3994921871474464
 10
6.382117455382498
 20
1.3838543225481552
 10
6.35597229130082
 20
1.3672867416414178
 10
6.330425945462876
 20
1.3498099411250954
 10
6.3055100227079635
 20
1.331445542544408
 10
6.281255347943079
 20
1.312216265542689
 10
6.257691928007675
 20
1.2921458997536215
 10
6.234848914550486
 20
1.271259275369728
 10
6.212754567964367
 20
1.2495822324235228
 10
6.191436222423749
 20
1.22714158881934
 10
6.170920252067976
 20
1.2039651071553725
 10
6.151232038372358
 20
1.180081460376985
 10
6.132395938747297
 20
1.1555201963037751
 10
6.114435256404352
 20
1.1303117010742898
 10
6.097372211526508
 20
1.1044871615535965
 10
6.081227913778322
 20
1.0780785267502393
 10
6.066022336189953
 20
1.051118468290303
 10
6.051774290447389
 20
1.0236403399974767
 10
6.038501403619445
 20
0.9956781366291491
 10
6.026220096350303
 20
0.9672664518195486
 10
6.014945562544605
 20
0.9384404352819948
 10
6.0046917505702035
 20
0.9092357493231834
 10
5.995471346001847
 20
0.8796885247233164
 10
5.987295755927127
 20
0.8498353160366562
 10
5.980175094834122
 20
0.8197130563678043
 10
5.974118172098192
 20
0.7893590116796558
 10
5.9691324810833954
 20
0.7588107346895513
 10
5.965224189872019
 20
0.7281060184106762
 10
5.962398133633698
 20
0.6972828493961669
 10
5.960657808643548
 20
0.6663793607437858
 10
5.960005367956725
 20
0.6354337849192954
 10
5.9604416187447615
 20
0.6044844064568913
 10
5.96196602129696
 20
0.5735695145952336
 10
5.96457668968811
 20
0.5427273559076415
 10
5.968270394111668
 20
0.5119960869850837
 10
5.973042564875536
 20
0.48141372723048625
 10
5.978887298055487
 20
0.451018111822761
 10
5.985797362799247
 20
0.4208468449087549
 10
5.993764210272196
 20
0.3909372530810161
 10
6.002777984233613
 20
0.3613263391989418
 10
6.012827533230397
 20
0.33205073661043116
 10
6.023900424393165
 20
0.3031466638306894
 10
6.03598295881766
 20
0.2746498797342325
 10
6.049060188512446
 20
0.24659563931555506
 10
6.063115934891923
 20
0.21901865007316335
 10
6.078132808791771
 20
0.19195302907095418
 10
6.0940922319820805
 20
0.1654322607300529
 10
6.110974460151536
 20
0.13948915540332668
 10
6.128758607334229
 20
0.11415580878383125
 10
6.147422671748874
 20
0.08946356219740059
 10
6.16694356301847
 20
0.06544296382850545
 10
6.187297130736715
 20
0.04212373092735755
 10
6.2084581943458526
 20
0.019534713045005758
 10
6.230400574288971
 20
-0.0022961436580866135
 10
6.25309712439823
 20
-0.02334183098582865
 10
6.276519765478922
 20
-0.04357631211987856
 10
6.300639520047852
 20
-0.06297455383127426
 10
6.325426548183026
 20
-0.08151255745046804
 10
6.350850184440321
 20
-0.09916738855744689
 10
4.9405034127640794
 20
-0.4770686670759371
 10
0.66
 20
0.6698887655728626
 10
0.0
 20
0.6698887655728626
 10
0.0
 20
0.3593059114498377
210
0.0
220
-1.0
230
0.0
  0
LWPOLYLINE
  5
32
330
17
100
AcDbEntity
  8
ISLAND
100
AcDbPolyline
 90
107
 70
1
 10
6.970471611519441
 20
1.197494731712886
 10
6.990115046159461
 20
1.1925970733851092
 10
9.080947916990638
 20
0.6323600941374495
 10
6.990115046159461
 20
0.07212311488978995
 10
6.970471611519441
 20
0.06722545656201317
 10
6.950669217318396
 20
0.06301632773780452
 10
6.930731989723334
 20
0.05950085659226967
 10
6.9106842191749855
 20
0.056683326185482774
 10
6.8905503307936415
 20
0.05456716924423721
 10
6.870354854620907
 20
0.0531549639797968
 10
6.850122395733624
 20
0.052448430946742675
 10
6.829877604266375
 20
0.052448430946742675
 10
6.8096451453790925
 20
0.0531549639797968
 10
6.789449669206358
 20
0.05456716924423721
 10
6.769315780825014
 20
0.056683326185482774
 10
6.749268010276666
 20
0.05950085659226967
 10
6.729330782681604
 20
0.06301632773780452
 10
6.7095283884805585
 20
0.06722545656201317
 10
6.689884953840537
 20
0.07212311488978995
 10
6.670424411260813
 20
0.07770333567888899
 10
6.651170470414849
 20
0.08395932028984576
 10
6.6321465892637255
 20
0.09088344676907256
 10
6.613375945476221
 20
0.09846727913503417
 10
6.594881408190394
 20
0.10670157765619259
 10
6.576685510151063
 20
0.11557631010819625
 10
6.5588104202571245
 20
0.1250806639966
 10
6.541277916552168
 20
0.1352030597302244
 10
6.524109359691284
 20
0.1459311647291036
 10
6.507325666916393
 20
0.1572519084498344
 10
6.490947286571812
 20
0.1691514983100198
 10
6.474994173191094
 20
0.18161543649240636
 10
6.459485763185506
 20
0.19462853760824173
 10
6.444440951163751
 20
0.20817494719833063
 10
6.429878066911803
 20
0.22223816104925198
 10
6.415814853060881
 20
0.23680104530120044
 10
6.402268443470792
 20
0.25184585732295534
 10
6.389255342354957
 20
0.2673542673285439
 10
6.37679140417257
 20
0.28330738070926165
 10
6.364891814312385
 20
0.2996857610538429
 10
6.353571070591654
 20
0.3164694538287337
 10
6.342842965592775
 20
0.333638010689618
 10
6.33272056985915
 20
0.351170514394574
 10
6.323216215970747
 20
0.36904560428851235
 10
6.314341483518743
 20
0.3872415023278438
 10
6.306107184997584
 20
0.4057360396136708
 10
6.298523352631623
 20
0.4245066834011754
 10
6.291599226152396
 20
0.4435305645522987
 10
6.285343241541439
 20
0.4627845053982623
 10
6.27976302075234
 20
0.4822450479779874
 10
6.274865362424563
 20
0.5018884826180077
 10
6.270656233600355
 20
0.5216908768190535
 10
6.2671407624548205
 20
0.5416281044141156
 10
6.264323232048033
 20
0.561675874962464
 10
6.2622070751067875
 20
0.5818097633438077
 10
6.260794869842347
 20
0.6020052395165422
 10
6.260088336809293
 20
0.6222376984038251
 10
6.260088336809293
 20
0.642482489871074
 10
6.260794869842347
 20
0.6627149487583568
 10
6.2622070751067875
 20
0.6829104249310911
 10
6.264323232048033
 20
0.703044313312435
 10
6.26714076245482
 20
0.7230920838607834
 10
6.270656233600355
 20
0.7430293114558455
 10
6.274865362424563
 20
0.7628317056568912
 10
6.27976302075234
 20
0.7824751402969116
 10
6.285343241541439
 20
0.8019356828766369
 10
6.291599226152396
 20
0.8211896237226004
 10
6.298523352631623
 20
0.8402135048737238
 10
6.306107184997584
 20
0.8589841486612282
 10
6.314341483518743
 20
0.8774786859470551
 10
6.323216215970747
 20
0.8956745839863866
 10
6.33272056985915
 20
0.9135496738803249
 10
6.342842965592775
 20
0.9310821775852809
 10
6.353571070591654
 20
0.9482507344461653
 10
6.364891814312385
 20
0.9650344272210563
 10
6.37679140417257
 20
0.9814128075656376
 10
6.389255342354957
 20
0.9973659209463553
 10
6.402268443470792
 20
1.0128743309519437
 10
6.415814853060881
 20
1.0279191429736985
 10
6.429878066911802
 20
1.042482027225647
 10
6.444440951163751
 20
1.0565452410765683
 10
6.459485763185506
 20
1.0700916506666573
 10
6.474994173191094
 20
1.0831047517824923
 10
6.490947286571812
 20
1.0955686899648793
 10
6.507325666916393
 20
1.1074682798250646
 10
6.524109359691284
 20
1.1187890235457956
 10
6.541277916552168
 20
1.1295171285446746
 10
6.5588104202571245
 20
1.139639524278299
 10
6.576685510151063
 20
1.149143878166703
 10
6.594881408190394
 20
1.1580186106187065
 10
6.613375945476221
 20
1.1662529091398648
 10
6.6321465892637255
 20
1.1738367415058264
 10
6.651170470414849
 20
1.1807608679850534
 10
6.670424411260813
 20
1.18701685259601
 10
6.689884953840538
 20
1.1925970733851092
 10
6.709528388480558
 20
1.197494731712886
 10
6.729330782681604
 20
1.2017038605370947
 10
6.749268010276666
 20
1.2052193316826294
 10
6.769315780825014
 20
1.2080368620894162
 10
6.789449669206358
 20
1.210153019030662
 10
6.8096451453790925
 20
1.2115652242951023
 10
6.829877604266375
 20
1.2122717573281565
 10
6.850122395733624
 20
1.2122717573281565
 10
6.870354854620907
 20
1.2115652242951023
 10
6.8905503307936415
 20
1.210153019030662
 10
6.9106842191749855
 20
1.2080368620894162
 10
6.930731989723333
 20
1.2052193316826294
 10
6.950669217318396
 20
1.2017038605370947
210
0.0
220
-1.0
230
0.0
  0
LWPOLYLINE
  5
33
330
17
100
AcDbEntity
  8
ISLAND
100
AcDbPolyline
 90
107
 70
1
 10
16.410471611519444
 20
1.197494731712886
 10
16.430115046159464
 20
1.1925970733851092
 10
18.52094791699064
 20
0.6323600941374495
 10
16.430115046159464
 20
0.07212311488978995
 10
16.410471611519444
 20
0.06722545656201317
 10
16.390669217318397
 20
0.06301632773780452
 10
16.370731989723335
 20
0.05950085659226967
 10
16.350684219174987
 20
0.056683326185482774
 10
16.330550330793642
 20
0.05456716924423721
 10
16.310354854620908
 20
0.0531549639797968
 10
16.290122395733626
 20
0.052448430946742675
 10
16.269877604266377
 20
0.052448430946742675
 10
16.249645145379095
 20
0.0531549639797968
 10
16.22944966920636
 20
0.05456716924423721
 10
16.209315780825015
 20
0.056683326185482774
 10
16.189268010276667
 20
0.05950085659226967
 10
16.169330782681605
 20
0.06301632773780452
 10
16.149528388480558
 20
0.06722545656201317
 10
16.129884953840538
 20
0.07212311488978995
 10
16.110424411260812
 20
0.07770333567888899
 10
16.091170470414852
 20
0.08395932028984576
 10
16.072146589263728
 20
0.09088344676907256
 10
16.053375945476223
 20
0.09846727913503417
 10
16.034881408190394
 20
0.10670157765619259
 10
16.016685510151063
 20
0.11557631010819625
 10
15.998810420257126
 20
0.1250806639966
 10
15.98127791655217
 20
0.1352030597302244
 10
15.964109359691285
 20
0.1459311647291036
 10
15.947325666916395
 20
0.1572519084498344
 10
15.930947286571813
 20
0.1691514983100198
 10
15.914994173191095
 20
0.18161543649240636
 10
15.899485763185506
 20
0.19462853760824173
 10
15.884440951163752
 20
0.20817494719833063
 10
15.869878066911804
 20
0.22223816104925198
 10
15.855814853060883
 20
0.23680104530120044
 10
15.842268443470793
 20
0.25184585732295534
 10
15.829255342354958
 20
0.2673542673285439
 10
15.816791404172571
 20
0.28330738070926165
 10
15.804891814312386
 20
0.2996857610538429
 10
15.793571070591655
 20
0.3164694538287337
 10
15.782842965592776
 20
0.333638010689618
 10
15.772720569859151
 20
0.351170514394574
 10
15.763216215970747
 20
0.36904560428851235
 10
15.754341483518743
 20
0.3872415023278438
 10
15.746107184997586
 20
0.4057360396136708
 10
15.738523352631624
 20
0.4245066834011754
 10
15.731599226152397
 20
0.4435305645522987
 10
15.72534324154144
 20
0.4627845053982623
 10
15.719763020752342
 20
0.4822450479779874
 10
15.714865362424565
 20
0.5018884826180077
 10
15.710656233600357
 20
0.5216908768190535
 10
15.707140762454822
 20
0.5416281044141156
 10
15.704323232048035
 20
0.561675874962464
 10
15.702207075106788
 20
0.5818097633438077
 10
15.700794869842348
 20
0.6020052395165422
 10
15.700088336809294
 20
0.6222376984038251
 10
15.700088336809294
 20
0.642482489871074
 10
15.700794869842348
 20
0.6627149487583568
 10
15.702207075106788
 20
0.6829104249310911
 10
15.704323232048035
 20
0.703044313312435
 10
15.707140762454822
 20
0.7230920838607834
 10
15.710656233600357
 20
0.7430293114558455
 10
15.714865362424565
 20
0.7628317056568912
 10
15.719763020752342
 20
0.7824751402969116
 10
15.72534324154144
 20
0.8019356828766369
 10
15.731599226152397
 20
0.8211896237226004
 10
15.738523352631624
 20
0.8402135048737238
 10
15.746107184997586
 20
0.8589841486612282
 10
15.754341483518743
 20
0.8774786859470551
 10
15.763216215970747
 20
0.8956745839863866
 10
15.772720569859151
 20
0.9135496738803249
 10
15.782842965592776
 20
0.9310821775852809
 10
15.793571070591655
 20
0.9482507344461653
 10
15.804891814312386
 20
0.9650344272210563
 10
15.816791404172571
 20
0.9814128075656376
 10
15.829255342354958
 20
0.9973659209463553
 10
15.842268443470793
 20
1.0128743309519437
 10
15.855814853060883
 20
1.0279191429736985
 10
15.869878066911804
 20
1.042482027225647
 10
15.884440951163752
 20
1.0565452410765683
 10
15.899485763185506
 20
1.0700916506666573
 10
15.914994173191095
 20
1.0831047517824923
 10
15.930947286571813
 20
1.0955686899648793
 10
15.947325666916393
 20
1.1074682798250646
 10
15.964109359691285
 20
1.1187890235457956
 10
15.98127791655217
 20
1.1295171285446746
 10
15.998810420257126
 20
1.139639524278299
 10
16.016685510151063
 20
1.149143878166703
 10
16.034881408190394
 20
1.1580186106187065
 10
16.053375945476223
 20
1.1662529091398648
 10
16.072146589263728
 20
1.1738367415058264
 10
16.091170470414852
 20
1.1807608679850534
 10
16.110424411260812
 20
1.18701685259601
 10
16.129884953840538
 20
1.1925970733851092
 10
16.149528388480558
 20
1.197494731712886
 10
16.169330782681605
 20
1.2017038605370947
 10
16.189268010276667
 20
1.2052193316826294
 10
16.209315780825015
 20
1.2080368620894162
 10
16.22944966920636
 20
1.210153019030662
 10
16.249645145379095
 20
1.2115652242951023
 10
16.269877604266377
 20
1.2122717573281565
 10
16.290122395733626
 20
1.2122717573281565
 10
16.310354854620908
 20
1.2115652242951023
 10
16.330550330793642
 20
1.210153019030662
 10
16.350684219174987
 20
1.2080368620894162
 10
16.370731989723335
 20
1.2052193316826294
 10
16.390669217318397
 20
1.2017038605370947
210
0.0
220
-1.0
230
0.0
  0
LWPOLYLINE
  5
34
330
17
100
AcDbEntity
  8
ISLAND
100
AcDbPolyline
 90
107
 70
1
 10
25.850471611519442
 20
1.197494731712886
 10
25.870115046159462
 20
1.1925970733851092
 10
27.960947916990637
 20
0.6323600941374495
 10
25.870115046159462
 20
0.07212311488978995
 10
25.850471611519442
 20
0.06722545656201317
 10
25.830669217318395
 20
0.06301632773780452
 10
25.810731989723333
 20
0.05950085659226967
 10
25.790684219174985
 20
0.056683326185482774
 10
25.77055033079364
 20
0.05456716924423721
 10
25.750354854620905
 20
0.0531549639797968
 10
25.730122395733623
 20
0.052448430946742675
 10
25.709877604266374
 20
0.052448430946742675
 10
25.689645145379092
 20
0.0531549639797968
 10
25.669449669206358
 20
0.05456716924423721
 10
25.649315780825013
 20
0.056683326185482774
 10
25.629268010276665
 20
0.05950085659226967
 10
25.609330782681603
 20
0.06301632773780452
 10
25.589528388480556
 20
0.06722545656201317
 10
25.569884953840536
 20
0.07212311488978995
 10
25.55042441126081
 20
0.07770333567888899
 10
25.53117047041485
 20
0.08395932028984576
 10
25.512146589263725
 20
0.09088344676907256
 10
25.49337594547622
 20
0.09846727913503417
 10
25.47488140819039
 20
0.10670157765619259
 10
25.45668551015106
 20
0.11557631010819625
 10
25.438810420257123
 20
0.1250806639966
 10
25.421277916552167
 20
0.1352030597302244
 10
25.404109359691283
 20
0.1459311647291036
 10
25.387325666916393
 20
0.1572519084498344
 10
25.37094728657181
 20
0.1691514983100198
 10
25.354994173191095
 20
0.18161543649240636
 10
25.339485763185504
 20
0.19462853760824173
 10
25.32444095116375
 20
0.20817494719833063
 10
25.3098780669118
 20
0.22223816104925198
 10
25.29581485306088
 20
0.23680104530120044
 10
25.28226844347079
 20
0.25184585732295534
 10
25.269255342354956
 20
0.2673542673285439
 10
25.25679140417257
 20
0.28330738070926165
 10
25.244891814312382
 20
0.2996857610538429
 10
25.233571070591655
 20
0.3164694538287337
 10
25.222842965592775
 20
0.333638010689618
 10
25.21272056985915
 20
0.351170514394574
 10
25.203216215970745
 20
0.36904560428851235
 10
25.19434148351874
 20
0.3872415023278438
 10
25.186107184997585
 20
0.4057360396136708
 10
25.178523352631622
 20
0.4245066834011754
 10
25.171599226152395
 20
0.4435305645522987
 10
25.16534324154144
 20
0.4627845053982623
 10
25.15976302075234
 20
0.4822450479779874
 10
25.154865362424562
 20
0.5018884826180077
 10
25.150656233600355
 20
0.5216908768190535
 10
25.147140762454818
 20
0.5416281044141156
 10
25.14432323204803
 20
0.561675874962464
 10
25.142207075106786
 20
0.5818097633438077
 10
25.140794869842345
 20
0.6020052395165422
 10
25.140088336809292
 20
0.6222376984038251
 10
25.140088336809292
 20
0.642482489871074
 10
25.140794869842345
 20
0.6627149487583568
 10
25.142207075106786
 20
0.6829104249310911
 10
25.14432323204803
 20
0.703044313312435
 10
25.147140762454818
 20
0.7230920838607834
 10
25.150656233600355
 20
0.7430293114558455
 10
25.154865362424562
 20
0.7628317056568912
 10
25.15976302075234
 20
0.7824751402969116
 10
25.16534324154144
 20
0.8019356828766369
 10
25.171599226152395
 20
0.8211896237226004
 10
25.178523352631622
 20
0.8402135048737238
 10
25.186107184997585
 20
0.8589841486612282
 10
25.19434148351874
 20
0.8774786859470551
 10
25.203216215970745
 20
0.8956745839863866
 10
25.21272056985915
 20
0.9135496738803249
 10
25.222842965592775
 20
0.9310821775852809
 10
25.23357107059165
 20
0.9482507344461653
 10
25.244891814312382
 20
0.9650344272210563
 10
25.25679140417257
 20
0.9814128075656376
 10
25.269255342354956
 20
0.9973659209463553
 10
25.28226844347079
 20
1.0128743309519437
 10
25.29581485306088
 20
1.0279191429736985
 10
25.3098780669118
 20
1.042482027225647
 10
25.32444095116375
 20
1.0565452410765683
 10
25.339485763185504
 20
1.0700916506666573
 10
25.35499417319109
 20
1.0831047517824923
 10
25.370947286571813
 20
1.0955686899648793
 10
25.387325666916393
 20
1.1074682798250646
 10
25.404109359691283
 20
1.1187890235457956
 10
25.421277916552167
 20
1.1295171285446746
 10
25.438810420257123
 20
1.139639524278299
 10
25.45668551015106
 20
1.149143878166703
 10
25.47488140819039
 20
1.1580186106187065
 10
25.49337594547622
 20
1.1662529091398648
 10
25.512146589263725
 20
1.1738367415058264
 10
25.53117047041485
 20
1.1807608679850534
 10
25.55042441126081
 20
1.18701685259601
 10
25.569884953840536
 20
1.1925970733851092
 10
25.589528388480556
 20
1.197494731712886
 10
25.609330782681603
 20
1.2017038605370947
 10
25.629268010276665
 20
1.2052193316826294
 10
25.649315780825013
 20
1.2080368620894162
 10
25.669449669206358
 20
1.210153019030662
 10
25.689645145379092
 20
1.2115652242951023
 10
25.709877604266374
 20
1.2122717573281565
 10
25.730122395733623
 20
1.2122717573281565
 10
25.750354854620905
 20
1.2115652242951023
 10
25.77055033079364
 20
1.210153019030662
 10
25.790684219174985
 20
1.2080368620894162
 10
25.810731989723333
 20
1.2052193316826294
 10
25.830669217318395
 20
1.2017038605370947
210
0.0
220
-1.0
230
0.0
  0
LWPOLYLINE
  5
35
330
17
100
AcDbEntity
  8
ISLAND
100
AcDbPolyline
 90
107
 70
1
 10
35.27066921731839
 20
1.2017038605370947
 10
35.290471611519436
 20
1.197494731712886
 10
35.31011504615946
 20
1.1925970733851092
 10
37.40094791699063
 20
0.6323600941374495
 10
35.31011504615946
 20
0.07212311488978995
 10
35.290471611519436
 20
0.06722545656201317
 10
35.27066921731839
 20
0.06301632773780452
 10
35.25073198972333
 20
0.05950085659226967
 10
35.23068421917498
 20
0.056683326185482774
 10
35.21055033079364
 20
0.05456716924423721
 10
35.19035485462091
 20
0.0531549639797968
 10
35.17012239573362
 20
0.052448430946742675
 10
35.14987760426637
 20
0.052448430946742675
 10
35.12964514537909
 20
0.0531549639797968
 10
35.109449669206356
 20
0.05456716924423721
 10
35.08931578082501
 20
0.056683326185482774
 10
35.069268010276666
 20
0.05950085659226967
 10
35.0493307826816
 20
0.06301632773780452
 10
35.02952838848056
 20
0.06722545656201317
 10
35.00988495384053
 20
0.07212311488978995
 10
34.99042441126081
 20
0.07770333567888899
 10
34.97117047041485
 20
0.08395932028984576
 10
34.95214658926372
 20
0.09088344676907256
 10
34.933375945476214
 20
0.09846727913503417
 10
34.91488140819039
 20
0.10670157765619259
 10
34.89668551015106
 20
0.11557631010819625
 10
34.87881042025712
 20
0.1250806639966
 10
34.86127791655217
 20
0.1352030597302244
 10
34.84410935969128
 20
0.1459311647291036
 10
34.82732566691639
 20
0.1572519084498344
 10
34.81094728657181
 20
0.1691514983100198
 10
34.79499417319109
 20
0.18161543649240636
 10
34.779485763185505
 20
0.19462853760824173
 10
34.76444095116375
 20
0.20817494719833063
 10
34.7498780669118
 20
0.22223816104925198
 10
34.73581485306088
 20
0.23680104530120044
 10
34.72226844347079
 20
0.25184585732295534
 10
34.70925534235495
 20
0.2673542673285439
 10
34.696791404172565
 20
0.28330738070926165
 10
34.68489181431238
 20
0.2996857610538429
 10
34.67357107059165
 20
0.3164694538287337
 10
34.66284296559277
 20
0.333638010689618
 10
34.65272056985915
 20
0.351170514394574
 10
34.643216215970746
 20
0.36904560428851235
 10
34.63434148351874
 20
0.3872415023278438
 10
34.62610718499758
 20
0.4057360396136708
 10
34.61852335263162
 20
0.4245066834011754
 10
34.61159922615239
 20
0.4435305645522987
 10
34.60534324154143
 20
0.4627845053982623
 10
34.599763020752334
 20
0.4822450479779874
 10
34.594865362424564
 20
0.5018884826180077
 10
34.59065623360035
 20
0.5216908768190535
 10
34.587140762454816
 20
0.5416281044141156
 10
34.58432323204803
 20
0.561675874962464
 10
34.58220707510679
 20
0.5818097633438077
 10
34.58079486984234
 20
0.6020052395165422
 10
34.58008833680929
 20
0.6222376984038251
 10
34.58008833680929
 20
0.642482489871074
 10
34.58079486984234
 20
0.6627149487583568
 10
34.58220707510679
 20
0.6829104249310911
 10
34.58432323204803
 20
0.703044313312435
 10
34.587140762454816
 20
0.7230920838607834
 10
34.59065623360035
 20
0.7430293114558455
 10
34.594865362424564
 20
0.7628317056568912
 10
34.599763020752334
 20
0.7824751402969116
 10
34.60534324154143
 20
0.8019356828766369
 10
34.61159922615239
 20
0.8211896237226004
 10
34.61852335263162
 20
0.8402135048737238
 10
34.62610718499758
 20
0.8589841486612282
 10
34.63434148351874
 20
0.8774786859470551
 10
34.643216215970746
 20
0.8956745839863866
 10
34.65272056985915
 20
0.9135496738803249
 10
34.66284296559277
 20
0.9310821775852809
 10
34.67357107059165
 20
0.9482507344461653
 10
34.68489181431238
 20
0.9650344272210563
 10
34.696791404172565
 20
0.9814128075656376
 10
34.70925534235495
 20
0.9973659209463553
 10
34.72226844347079
 20
1.0128743309519437
 10
34.73581485306088
 20
1.0279191429736985
 10
34.7498780669118
 20
1.042482027225647
 10
34.76444095116375
 20
1.0565452410765683
 10
34.779485763185505
 20
1.0700916506666573
 10
34.79499417319109
 20
1.0831047517824923
 10
34.81094728657181
 20
1.0955686899648793
 10
34.82732566691639
 20
1.1074682798250646
 10
34.84410935969128
 20
1.1187890235457956
 10
34.86127791655216
 20
1.1295171285446746
 10
34.878810420257125
 20
1.139639524278299
 10
34.89668551015106
 20
1.149143878166703
 10
34.91488140819039
 20
1.1580186106187065
 10
34.933375945476214
 20
1.1662529091398648
 10
34.95214658926372
 20
1.1738367415058264
 10
34.97117047041485
 20
1.1807608679850534
 10
34.99042441126081
 20
1.18701685259601
 10
35.00988495384053
 20
1.1925970733851092
 10
35.02952838848056
 20
1.197494731712886
 10
35.0493307826816
 20
1.2017038605370947
 10
35.069268010276666
 20
1.2052193316826294
 10
35.08931578082501
 20
1.2080368620894162
 10
35.109449669206356
 20
1.210153019030662
 10
35.12964514537909
 20
1.2115652242951023
 10
35.14987760426637
 20
1.2122717573281565
 10
35.17012239573362
 20
1.2122717573281565
 10
35.19035485462091
 20
1.2115652242951023
 10
35.21055033079364
 20
1.210153019030662
 10
35.23068421917498
 20
1.2080368620894162
 10
35.25073198972333
 20
1.2052193316826294
210
0.0
220
-1.0
230
0.0
  0
LWPOLYLINE
  5
36
330
17
100
AcDbEntity
  8
ISLAND
100
AcDbPolyline
 90
107
 70
1
 10
44.71066921731839
 20
1.2017038605370947
 10
44.730471611519434
 20
1.197494731712886
 10
44.75011504615946
 20
1.1925970733851092
 10
46.84094791699063
 20
0.6323600941374495
 10
44.75011504615946
 20
0.07212311488978995
 10
44.730471611519434
 20
0.06722545656201317
 10
44.71066921731839
 20
0.06301632773780452
 10
44.690731989723325
 20
0.05950085659226967
 10
44.67068421917498
 20
0.056683326185482774
 10
44.650550330793635
 20
0.05456716924423721
 10
44.630354854620904
 20
0.0531549639797968
 10
44.61012239573362
 20
0.052448430946742675
 10
44.58987760426637
 20
0.052448430946742675
 10
44.569645145379084
 20
0.0531549639797968
 10
44.54944966920635
 20
0.05456716924423721
 10
44.52931578082501
 20
0.056683326185482774
 10
44.509268010276664
 20
0.05950085659226967
 10
44.4893307826816
 20
0.06301632773780452
 10
44.469528388480555
 20
0.06722545656201317
 10
44.44988495384053
 20
0.07212311488978995
 10
44.43042441126081
 20
0.07770333567888899
 10
44.411170470414845
 20
0.08395932028984576
 10
44.39214658926372
 20
0.09088344676907256
 10
44.37337594547621
 20
0.09846727913503417
 10
44.35488140819039
 20
0.10670157765619259
 10
44.33668551015106
 20
0.11557631010819625
 10
44.318810420257115
 20
0.1250806639966
 10
44.301277916552166
 20
0.1352030597302244
 10
44.28410935969128
 20
0.1459311647291036
 10
44.267325666916385
 20
0.1572519084498344
 10
44.25094728657181
 20
0.1691514983100198
 10
44.23499417319109
 20
0.18161543649240636
 10
44.2194857631855
 20
0.19462853760824173
 10
44.20444095116375
 20
0.20817494719833063
 10
44.189878066911795
 20
0.22223816104925198
 10
44.17581485306088
 20
0.23680104530120044
 10
44.162268443470786
 20
0.25184585732295534
 10
44.14925534235495
 20
0.2673542673285439
 10
44.13679140417256
 20
0.28330738070926165
 10
44.12489181431238
 20
0.2996857610538429
 10
44.11357107059165
 20
0.3164694538287337
 10
44.10284296559277
 20
0.333638010689618
 10
44.09272056985915
 20
0.351170514394574
 10
44.083216215970744
 20
0.36904560428851235
 10
44.07434148351874
 20
0.3872415023278438
 10
44.06610718499758
 20
0.4057360396136708
 10
44.05852335263162
 20
0.4245066834011754
 10
44.05159922615239
 20
0.4435305645522987
 10
44.04534324154143
 20
0.4627845053982623
 10
44.03976302075233
 20
0.4822450479779874
 10
44.03486536242456
 20
0.5018884826180077
 10
44.03065623360035
 20
0.5216908768190535
 10
44.02714076245481
 20
0.5416281044141156
 10
44.024323232048026
 20
0.561675874962464
 10
44.022207075106785
 20
0.5818097633438077
 10
44.02079486984234
 20
0.6020052395165422
 10
44.02008833680929
 20
0.6222376984038251
 10
44.02008833680929
 20
0.642482489871074
 10
44.02079486984234
 20
0.6627149487583568
 10
44.022207075106785
 20
0.6829104249310911
 10
44.024323232048026
 20
0.703044313312435
 10
44.02714076245481
 20
0.7230920838607834
 10
44.03065623360035
 20
0.7430293114558455
 10
44.03486536242456
 20
0.7628317056568912
 10
44.03976302075233
 20
0.7824751402969116
 10
44.04534324154143
 20
0.8019356828766369
 10
44.05159922615239
 20
0.8211896237226004
 10
44.05852335263162
 20
0.8402135048737238
 10
44.06610718499758
 20
0.8589841486612282
 10
44.07434148351874
 20
0.8774786859470551
 10
44.083216215970744
 20
0.8956745839863866
 10
44.09272056985915
 20
0.9135496738803249
 10
44.10284296559277
 20
0.9310821775852809
 10
44.11357107059165
 20
0.9482507344461653
 10
44.12489181431238
 20
0.9650344272210563
 10
44.13679140417256
 20
0.9814128075656376
 10
44.14925534235495
 20
0.9973659209463553
 10
44.162268443470786
 20
1.0128743309519437
 10
44.17581485306088
 20
1.0279191429736985
 10
44.189878066911795
 20
1.042482027225647
 10
44.20444095116375
 20
1.0565452410765683
 10
44.2194857631855
 20
1.0700916506666573
 10
44.23499417319109
 20
1.0831047517824923
 10
44.25094728657181
 20
1.0955686899648793
 10
44.267325666916385
 20
1.1074682798250646
 10
44.28410935969128
 20
1.1187890235457956
 10
44.30127791655216
 20
1.1295171285446746
 10
44.31881042025712
 20
1.139639524278299
 10
44.33668551015106
 20
1.149143878166703
 10
44.35488140819039
 20
1.1580186106187065
 10
44.37337594547621
 20
1.1662529091398648
 10
44.39214658926372
 20
1.1738367415058264
 10
44.411170470414845
 20
1.1807608679850534
 10
44.43042441126081
 20
1.18701685259601
 10
44.44988495384053
 20
1.1925970733851092
 10
44.469528388480555
 20
1.197494731712886
 10
44.4893307826816
 20
1.2017038605370947
 10
44.509268010276664
 20
1.2052193316826294
 10
44.52931578082501
 20
1.2080368620894162
 10
44.54944966920635
 20
1.210153019030662
 10
44.569645145379084
 20
1.2115652242951023
 10
44.58987760426637
 20
1.2122717573281565
 10
44.61012239573362
 20
1.2122717573281565
 10
44.630354854620904
 20
1.2115652242951023
 10
44.650550330793635
 20
1.210153019030662
 10
44.67068421917498
 20
1.2080368620894162
 10
44.690731989723325
 20
1.2052193316826294
210
0.0
220
-1.0
230
0.0
  0
LWPOLYLINE
  5
37
330
17
100
AcDbEntity
  8
ISLAND
100
AcDbPolyline
 90
106
 70
1
 10
4.360947916990638
 20
-0.6323600941374495
 10
2.270115046159462
 20
-1.1925970733851092
 10
2.250471611519442
 20
-1.197494731712886
 10
2.230669217318396
 20
-1.2017038605370947
 10
2.210731989723334
 20
-1.2052193316826294
 10
2.190684219174986
 20
-1.2080368620894162
 10
2.170550330793642
 20
-1.210153019030662
 10
2.1503548546209075
 20
-1.2115652242951023
 10
2.1301223957336246
 20
-1.2122717573281565
 10
2.1098776042663756
 20
-1.2122717573281565
 10
2.0896451453790927
 20
-1.2115652242951023
 10
2.0694496692063584
 20
-1.210153019030662
 10
2.0493157808250144
 20
-1.2080368620894162
 10
2.0292680102766663
 20
-1.2052193316826294
 10
2.0093307826816043
 20
-1.2017038605370947
 10
1.9895283884805584
 20
-1.197494731712886
 10
1.969884953840538
 20
-1.1925970733851092
 10
1.950424411260813
 20
-1.18701685259601
 10
1.9311704704148493
 20
-1.1807608679850534
 10
1.912146589263726
 20
-1.1738367415058266
 10
1.8933759454762213
 20
-1.1662529091398648
 10
1.8748814081903946
 20
-1.1580186106187065
 10
1.856685510151063
 20
-1.149143878166703
 10
1.8388104202571247
 20
-1.139639524278299
 10
1.8212779165521686
 20
-1.1295171285446748
 10
1.8041093596912845
 20
-1.1187890235457956
 10
1.7873256669163933
 20
-1.1074682798250648
 10
1.770947286571812
 20
-1.0955686899648793
 10
1.7549941731910945
 20
-1.0831047517824928
 10
1.739485763185506
 20
-1.0700916506666573
 10
1.724440951163751
 20
-1.0565452410765683
 10
1.7098780669118026
 20
-1.0424820272256472
 10
1.6958148530608812
 20
-1.0279191429736987
 10
1.6822684434707924
 20
-1.0128743309519437
 10
1.669255342354957
 20
-0.9973659209463552
 10
1.6567914041725702
 20
-0.9814128075656374
 10
1.644891814312385
 20
-0.9650344272210561
 10
1.6335710705916542
 20
-0.9482507344461654
 10
1.622842965592775
 20
-0.9310821775852811
 10
1.6127205698591505
 20
-0.913549673880325
 10
1.6032162159707468
 20
-0.8956745839863867
 10
1.5943414835187433
 20
-0.8774786859470552
 10
1.5861071849975847
 20
-0.8589841486612283
 10
1.5785233526316231
 20
-0.8402135048737236
 10
1.5715992261523963
 20
-0.8211896237226004
 10
1.5653432415414397
 20
-0.8019356828766367
 10
1.5597630207523405
 20
-0.7824751402969117
 10
1.5548653624245636
 20
-0.7628317056568914
 10
1.550656233600355
 20
-0.7430293114558456
 10
1.5471407624548204
 20
-0.7230920838607835
 10
1.5443232320480333
 20
-0.7030443133124351
 10
1.5422070751067878
 20
-0.6829104249310913
 10
1.5407948698423475
 20
-0.6627149487583569
 10
1.5400883368092932
 20
-0.6424824898710739
 10
1.5400883368092932
 20
-0.622237698403825
 10
1.5407948698423475
 20
-0.6020052395165423
 10
1.5422070751067878
 20
-0.581809763343808
 10
1.5443232320480333
 20
-0.5616758749624641
 10
1.5471407624548204
 20
-0.5416281044141157
 10
1.550656233600355
 20
-0.5216908768190536
 10
1.5548653624245636
 20
-0.5018884826180079
 10
1.5597630207523405
 20
-0.4822450479779875
 10
1.5653432415414397
 20
-0.4627845053982622
 10
1.5715992261523963
 20
-0.44353056455229867
 10
1.5785233526316231
 20
-0.4245066834011753
 10
1.5861071849975847
 20
-0.4057360396136709
 10
1.5943414835187433
 20
-0.38724150232784393
 10
1.6032162159707468
 20
-0.3690456042885125
 10
1.6127205698591505
 20
-0.35117051439457414
 10
1.622842965592775
 20
-0.3336380106896181
 10
1.6335710705916542
 20
-0.31646945382873387
 10
1.644891814312385
 20
-0.29968576105384276
 10
1.6567914041725702
 20
-0.2833073807092615
 10
1.669255342354957
 20
-0.2673542673285437
 10
1.6822684434707922
 20
-0.25184585732295545
 10
1.6958148530608812
 20
-0.2368010453012005
 10
1.7098780669118026
 20
-0.22223816104925204
 10
1.7244409511637508
 20
-0.20817494719833068
 10
1.7394857631855059
 20
-0.19462853760824178
 10
1.7549941731910943
 20
-0.18161543649240663
 10
1.770947286571812
 20
-0.16915149831001974
 10
1.7873256669163933
 20
-0.15725190844983444
 10
1.8041093596912845
 20
-0.14593116472910356
 10
1.8212779165521686
 20
-0.13520305973022456
 10
1.8388104202571247
 20
-0.1250806639966
 10
1.8566855101510629
 20
-0.11557631010819625
 10
1.8748814081903946
 20
-0.10670157765619248
 10
1.8933759454762213
 20
-0.09846727913503417
 10
1.9121465892637257
 20
-0.09088344676907267
 10
1.9311704704148493
 20
-0.08395932028984576
 10
1.9504244112608127
 20
-0.0777033356788891
 10
1.969884953840538
 20
-0.07212311488978995
 10
1.9895283884805584
 20
-0.06722545656201317
 10
2.0093307826816043
 20
-0.06301632773780452
 10
2.0292680102766663
 20
-0.05950085659226978
 10
2.049315780825015
 20
-0.056683326185482774
 10
2.0694496692063584
 20
-0.05456716924423721
 10
2.0896451453790923
 20
-0.0531549639797968
 10
2.1098776042663756
 20
-0.052448430946742675
 10
2.130122395733624
 20
-0.052448430946742675
 10
2.1503548546209075
 20
-0.0531549639797968
 10
2.170550330793642
 20
-0.05456716924423721
 10
2.190684219174986
 20
-0.056683326185482774
 10
2.210731989723334
 20
-0.05950085659226967
 10
2.2306692173183964
 20
-0.06301632773780452
 10
2.250471611519442
 20
-0.06722545656201317
210
0.0
220
-1.0
230
0.0
  0
LWPOLYLINE
  5
38
330
17
100
AcDbEntity
  8
ISLAND
100
AcDbPolyline
 90
106
 70
1
 10
13.800947916990637
 20
-0.6323600941374495
 10
11.71011504615946
 20
-1.1925970733851092
 10
11.69047161151944
 20
-1.197494731712886
 10
11.670669217318395
 20
-1.2017038605370947
 10
11.650731989723333
 20
-1.2052193316826294
 10
11.630684219174984
 20
-1.2080368620894162
 10
11.610550330793641
 20
-1.210153019030662
 10
11.590354854620907
 20
-1.2115652242951023
 10
11.570122395733623
 20
-1.2122717573281565
 10
11.549877604266374
 20
-1.2122717573281565
 10
11.52964514537909
 20
-1.2115652242951023
 10
11.509449669206356
 20
-1.210153019030662
 10
11.489315780825013
 20
-1.2080368620894162
 10
11.469268010276664
 20
-1.2052193316826294
 10
11.449330782681603
 20
-1.2017038605370947
 10
11.429528388480557
 20
-1.197494731712886
 10
11.409884953840537
 20
-1.1925970733851092
 10
11.390424411260812
 20
-1.18701685259601
 10
11.371170470414848
 20
-1.1807608679850534
 10
11.352146589263725
 20
-1.1738367415058266
 10
11.33337594547622
 20
-1.1662529091398648
 10
11.314881408190393
 20
-1.1580186106187065
 10
11.296685510151061
 20
-1.149143878166703
 10
11.278810420257123
 20
-1.139639524278299
 10
11.261277916552167
 20
-1.1295171285446748
 10
11.244109359691283
 20
-1.1187890235457956
 10
11.227325666916393
 20
-1.1074682798250648
 10
11.21094728657181
 20
-1.0955686899648793
 10
11.194994173191093
 20
-1.0831047517824928
 10
11.179485763185504
 20
-1.0700916506666573
 10
11.16444095116375
 20
-1.0565452410765683
 10
11.149878066911802
 20
-1.0424820272256472
 10
11.13581485306088
 20
-1.0279191429736987
 10
11.12226844347079
 20
-1.0128743309519437
 10
11.109255342354956
 20
-0.9973659209463552
 10
11.096791404172569
 20
-0.9814128075656374
 10
11.084891814312384
 20
-0.9650344272210561
 10
11.073571070591653
 20
-0.9482507344461654
 10
11.062842965592774
 20
-0.9310821775852811
 10
11.052720569859149
 20
-0.913549673880325
 10
11.043216215970745
 20
-0.8956745839863867
 10
11.034341483518741
 20
-0.8774786859470552
 10
11.026107184997583
 20
-0.8589841486612283
 10
11.018523352631622
 20
-0.8402135048737236
 10
11.011599226152395
 20
-0.8211896237226004
 10
11.005343241541437
 20
-0.8019356828766367
 10
10.99976302075234
 20
-0.7824751402969117
 10
10.994865362424562
 20
-0.7628317056568914
 10
10.990656233600355
 20
-0.7430293114558456
 10
10.98714076245482
 20
-0.7230920838607835
 10
10.984323232048032
 20
-0.7030443133124351
 10
10.982207075106786
 20
-0.6829104249310913
 10
10.980794869842345
 20
-0.6627149487583569
 10
10.980088336809292
 20
-0.6424824898710739
 10
10.980088336809292
 20
-0.622237698403825
 10
10.980794869842345
 20
-0.6020052395165423
 10
10.982207075106786
 20
-0.581809763343808
 10
10.984323232048032
 20
-0.5616758749624641
 10
10.98714076245482
 20
-0.5416281044141157
 10
10.990656233600355
 20
-0.5216908768190536
 10
10.994865362424562
 20
-0.5018884826180079
 10
10.99976302075234
 20
-0.4822450479779875
 10
11.005343241541437
 20
-0.4627845053982622
 10
11.011599226152395
 20
-0.44353056455229867
 10
11.018523352631622
 20
-0.4245066834011753
 10
11.026107184997583
 20
-0.4057360396136709
 10
11.034341483518741
 20
-0.38724150232784393
 10
11.043216215970745
 20
-0.3690456042885125
 10
11.052720569859149
 20
-0.35117051439457414
 10
11.062842965592774
 20
-0.3336380106896181
 10
11.073571070591653
 20
-0.31646945382873387
 10
11.084891814312384
 20
-0.29968576105384276
 10
11.096791404172569
 20
-0.2833073807092615
 10
11.109255342354956
 20
-0.2673542673285437
 10
11.12226844347079
 20
-0.25184585732295545
 10
11.13581485306088
 20
-0.2368010453012005
 10
11.149878066911802
 20
-0.22223816104925204
 10
11.16444095116375
 20
-0.20817494719833068
 10
11.179485763185504
 20
-0.19462853760824178
 10
11.194994173191093
 20
-0.18161543649240663
 10
11.21094728657181
 20
-0.16915149831001974
 10
11.227325666916391
 20
-0.15725190844983444
 10
11.244109359691283
 20
-0.14593116472910356
 10
11.261277916552167
 20
-0.13520305973022456
 10
11.278810420257123
 20
-0.1250806639966
 10
11.296685510151061
 20
-0.11557631010819625
 10
11.314881408190393
 20
-0.10670157765619248
 10
11.33337594547622
 20
-0.09846727913503417
 10
11.352146589263725
 20
-0.09088344676907267
 10
11.371170470414848
 20
-0.08395932028984576
 10
11.390424411260812
 20
-0.0777033356788891
 10
11.409884953840537
 20
-0.07212311488978995
 10
11.429528388480557
 20
-0.06722545656201317
 10
11.449330782681603
 20
-0.06301632773780452
 10
11.469268010276664
 20
-0.05950085659226978
 10
11.489315780825013
 20
-0.056683326185482774
 10
11.509449669206356
 20
-0.05456716924423721
 10
11.52964514537909
 20
-0.0531549639797968
 10
11.549877604266374
 20
-0.052448430946742675
 10
11.570122395733623
 20
-0.052448430946742675
 10
11.590354854620907
 20
-0.0531549639797968
 10
11.61055033079364
 20
-0.05456716924423721
 10
11.630684219174984
 20
-0.056683326185482774
 10
11.650731989723333
 20
-0.05950085659226967
 10
11.670669217318395
 20
-0.06301632773780452
 10
11.69047161151944
 20
-0.06722545656201317
210
0.0
220
-1.0
230
0.0
  0
LWPOLYLINE
  5
39
330
17
100
AcDbEntity
  8
ISLAND
100
AcDbPolyline
 90
106
 70
1
 10
23.24094791699064
 20
-0.6323600941374495
 10
21.150115046159463
 20
-1.1925970733851092
 10
21.130471611519443
 20
-1.197494731712886
 10
21.110669217318396
 20
-1.2017038605370947
 10
21.090731989723334
 20
-1.2052193316826294
 10
21.070684219174986
 20
-1.2080368620894162
 10
21.05055033079364
 20
-1.210153019030662
 10
21.030354854620906
 20
-1.2115652242951023
 10
21.010122395733625
 20
-1.2122717573281565
 10
20.989877604266375
 20
-1.2122717573281565
 10
20.969645145379094
 20
-1.2115652242951023
 10
20.94944966920636
 20
-1.210153019030662
 10
20.929315780825014
 20
-1.2080368620894162
 10
20.909268010276666
 20
-1.2052193316826294
 10
20.889330782681604
 20
-1.2017038605370947
 10
20.869528388480557
 20
-1.197494731712886
 10
20.849884953840537
 20
-1.1925970733851092
 10
20.83042441126081
 20
-1.18701685259601
 10
20.81117047041485
 20
-1.1807608679850534
 10
20.792146589263726
 20
-1.1738367415058266
 10
20.77337594547622
 20
-1.1662529091398648
 10
20.754881408190393
 20
-1.1580186106187065
 10
20.736685510151062
 20
-1.149143878166703
 10
20.718810420257125
 20
-1.139639524278299
 10
20.70127791655217
 20
-1.1295171285446748
 10
20.684109359691284
 20
-1.1187890235457956
 10
20.667325666916394
 20
-1.1074682798250648
 10
20.65094728657181
 20
-1.0955686899648793
 10
20.634994173191096
 20
-1.0831047517824928
 10
20.619485763185505
 20
-1.0700916506666573
 10
20.604440951163753
 20
-1.0565452410765683
 10
20.5898780669118
 20
-1.0424820272256472
 10
20.57581485306088
 20
-1.0279191429736987
 10
20.562268443470792
 20
-1.0128743309519437
 10
20.549255342354957
 20
-0.9973659209463552
 10
20.536791404172572
 20
-0.9814128075656374
 10
20.524891814312383
 20
-0.9650344272210561
 10
20.513571070591656
 20
-0.9482507344461654
 10
20.502842965592777
 20
-0.9310821775852811
 10
20.492720569859152
 20
-0.913549673880325
 10
20.483216215970746
 20
-0.8956745839863867
 10
20.474341483518742
 20
-0.8774786859470552
 10
20.466107184997586
 20
-0.8589841486612283
 10
20.458523352631623
 20
-0.8402135048737236
 10
20.451599226152396
 20
-0.8211896237226004
 10
20.44534324154144
 20
-0.8019356828766367
 10
20.43976302075234
 20
-0.7824751402969117
 10
20.434865362424564
 20
-0.7628317056568914
 10
20.430656233600356
 20
-0.7430293114558456
 10
20.42714076245482
 20
-0.7230920838607835
 10
20.42432323204803
 20
-0.7030443133124351
 10
20.422207075106787
 20
-0.6829104249310913
 10
20.420794869842346
 20
-0.6627149487583569
 10
20.420088336809293
 20
-0.6424824898710739
 10
20.420088336809293
 20
-0.622237698403825
 10
20.420794869842346
 20
-0.6020052395165423
 10
20.422207075106787
 20
-0.581809763343808
 10
20.42432323204803
 20
-0.5616758749624641
 10
20.42714076245482
 20
-0.5416281044141157
 10
20.430656233600356
 20
-0.5216908768190536
 10
20.434865362424564
 20
-0.5018884826180079
 10
20.43976302075234
 20
-0.4822450479779875
 10
20.44534324154144
 20
-0.4627845053982622
 10
20.451599226152396
 20
-0.44353056455229867
 10
20.458523352631623
 20
-0.4245066834011753
 10
20.466107184997586
 20
-0.4057360396136709
 10
20.474341483518742
 20
-0.38724150232784393
 10
20.483216215970746
 20
-0.3690456042885125
 10
20.492720569859152
 20
-0.35117051439457414
 10
20.502842965592777
 20
-0.3336380106896181
 10
20.513571070591652
 20
-0.31646945382873387
 10
20.524891814312383
 20
-0.29968576105384276
 10
20.536791404172572
 20
-0.2833073807092615
 10
20.549255342354957
 20
-0.2673542673285437
 10
20.562268443470792
 20
-0.25184585732295545
 10
20.57581485306088
 20
-0.2368010453012005
 10
20.5898780669118
 20
-0.22223816104925204
 10
20.604440951163753
 20
-0.20817494719833068
 10
20.619485763185505
 20
-0.19462853760824178
 10
20.634994173191092
 20
-0.18161543649240663
 10
20.650947286571814
 20
-0.16915149831001974
 10
20.667325666916394
 20
-0.15725190844983444
 10
20.684109359691284
 20
-0.14593116472910356
 10
20.70127791655217
 20
-0.13520305973022456
 10
20.718810420257125
 20
-0.1250806639966
 10
20.736685510151062
 20
-0.11557631010819625
 10
20.754881408190393
 20
-0.10670157765619248
 10
20.77337594547622
 20
-0.09846727913503417
 10
20.792146589263726
 20
-0.09088344676907267
 10
20.81117047041485
 20
-0.08395932028984576
 10
20.83042441126081
 20
-0.0777033356788891
 10
20.849884953840537
 20
-0.07212311488978995
 10
20.869528388480557
 20
-0.06722545656201317
 10
20.889330782681604
 20
-0.06301632773780452
 10
20.909268010276666
 20
-0.05950085659226978
 10
20.929315780825014
 20
-0.056683326185482774
 10
20.94944966920636
 20
-0.05456716924423721
 10
20.969645145379094
 20
-0.0531549639797968
 10
20.989877604266375
 20
-0.052448430946742675
 10
21.010122395733625
 20
-0.052448430946742675
 10
21.030354854620906
 20
-0.0531549639797968
 10
21.05055033079364
 20
-0.05456716924423721
 10
21.070684219174986
 20
-0.056683326185482774
 10
21.090731989723334
 20
-0.05950085659226967
 10
21.110669217318396
 20
-0.06301632773780452
 10
21.130471611519443
 20
-0.06722545656201317
210
0.0
220
-1.0
230
0.0
  0
LWPOLYLINE
  5
3A
330
17
100
AcDbEntity
  8
ISLAND
100
AcDbPolyline
 90
106
 70
1
 10
30.570471611519444
 20
-0.06722545656201317
 10
32.68094791699064
 20
-0.6323600941374495
 10
30.590115046159465
 20
-1.1925970733851092
 10
30.570471611519444
 20
-1.197494731712886
 10
30.550669217318397
 20
-1.2017038605370947
 10
30.530731989723336
 20
-1.2052193316826294
 10
30.510684219174987
 20
-1.2080368620894162
 10
30.490550330793642
 20
-1.210153019030662
 10
30.470354854620908
 20
-1.2115652242951023
 10
30.450122395733626
 20
-1.2122717573281565
 10
30.429877604266377
 20
-1.2122717573281565
 10
30.409645145379095
 20
-1.2115652242951023
 10
30.38944966920636
 20
-1.210153019030662
 10
30.369315780825016
 20
-1.2080368620894162
 10
30.349268010276667
 20
-1.2052193316826294
 10
30.329330782681605
 20
-1.2017038605370947
 10
30.309528388480558
 20
-1.197494731712886
 10
30.289884953840538
 20
-1.1925970733851092
 10
30.270424411260812
 20
-1.18701685259601
 10
30.251170470414852
 20
-1.1807608679850534
 10
30.232146589263728
 20
-1.1738367415058266
 10
30.213375945476223
 20
-1.1662529091398648
 10
30.194881408190394
 20
-1.1580186106187065
 10
30.176685510151064
 20
-1.149143878166703
 10
30.158810420257126
 20
-1.139639524278299
 10
30.14127791655217
 20
-1.1295171285446748
 10
30.124109359691285
 20
-1.1187890235457956
 10
30.107325666916395
 20
-1.1074682798250648
 10
30.09094728657181
 20
-1.0955686899648793
 10
30.074994173191097
 20
-1.0831047517824928
 10
30.059485763185506
 20
-1.0700916506666573
 10
30.044440951163754
 20
-1.0565452410765683
 10
30.029878066911802
 20
-1.0424820272256472
 10
30.01581485306088
 20
-1.0279191429736987
 10
30.002268443470793
 20
-1.0128743309519437
 10
29.98925534235496
 20
-0.9973659209463552
 10
29.976791404172573
 20
-0.9814128075656374
 10
29.964891814312384
 20
-0.9650344272210561
 10
29.953571070591657
 20
-0.9482507344461654
 10
29.942842965592778
 20
-0.9310821775852811
 10
29.932720569859153
 20
-0.913549673880325
 10
29.923216215970747
 20
-0.8956745839863867
 10
29.914341483518744
 20
-0.8774786859470552
 10
29.906107184997587
 20
-0.8589841486612283
 10
29.898523352631624
 20
-0.8402135048737236
 10
29.891599226152398
 20
-0.8211896237226004
 10
29.88534324154144
 20
-0.8019356828766367
 10
29.879763020752343
 20
-0.7824751402969117
 10
29.874865362424565
 20
-0.7628317056568914
 10
29.870656233600357
 20
-0.7430293114558456
 10
29.86714076245482
 20
-0.7230920838607835
 10
29.864323232048033
 20
-0.7030443133124351
 10
29.862207075106788
 20
-0.6829104249310913
 10
29.860794869842348
 20
-0.6627149487583569
 10
29.860088336809294
 20
-0.6424824898710739
 10
29.860088336809294
 20
-0.622237698403825
 10
29.860794869842348
 20
-0.6020052395165423
 10
29.862207075106788
 20
-0.581809763343808
 10
29.864323232048033
 20
-0.5616758749624641
 10
29.86714076245482
 20
-0.5416281044141157
 10
29.870656233600357
 20
-0.5216908768190536
 10
29.874865362424565
 20
-0.5018884826180079
 10
29.879763020752343
 20
-0.4822450479779875
 10
29.88534324154144
 20
-0.4627845053982622
 10
29.891599226152398
 20
-0.44353056455229867
 10
29.898523352631624
 20
-0.4245066834011753
 10
29.906107184997587
 20
-0.4057360396136709
 10
29.914341483518744
 20
-0.38724150232784393
 10
29.923216215970747
 20
-0.3690456042885125
 10
29.932720569859153
 20
-0.35117051439457414
 10
29.942842965592774
 20
-0.3336380106896181
 10
29.953571070591657
 20
-0.31646945382873387
 10
29.964891814312384
 20
-0.29968576105384276
 10
29.976791404172573
 20
-0.2833073807092615
 10
29.98925534235496
 20
-0.2673542673285437
 10
30.002268443470793
 20
-0.25184585732295545
 10
30.01581485306088
 20
-0.2368010453012005
 10
30.029878066911802
 20
-0.22223816104925204
 10
30.044440951163754
 20
-0.20817494719833068
 10
30.059485763185506
 20
-0.19462853760824178
 10
30.074994173191094
 20
-0.18161543649240663
 10
30.090947286571815
 20
-0.16915149831001974
 10
30.107325666916395
 20
-0.15725190844983444
 10
30.124109359691285
 20
-0.14593116472910356
 10
30.14127791655217
 20
-0.13520305973022456
 10
30.158810420257126
 20
-0.1250806639966
 10
30.176685510151064
 20
-0.11557631010819625
 10
30.194881408190398
 20
-0.10670157765619248
 10
30.213375945476223
 20
-0.09846727913503417
 10
30.232146589263728
 20
-0.09088344676907267
 10
30.251170470414852
 20
-0.08395932028984576
 10
30.270424411260812
 20
-0.0777033356788891
 10
30.289884953840538
 20
-0.07212311488978995
 10
30.309528388480558
 20
-0.06722545656201317
 10
30.329330782681605
 20
-0.06301632773780452
 10
30.349268010276667
 20
-0.05950085659226978
 10
30.369315780825016
 20
-0.056683326185482774
 10
30.38944966920636
 20
-0.05456716924423721
 10
30.409645145379095
 20
-0.0531549639797968
 10
30.429877604266377
 20
-0.052448430946742675
 10
30.450122395733626
 20
-0.052448430946742675
 10
30.470354854620908
 20
-0.0531549639797968
 10
30.490550330793642
 20
-0.05456716924423721
 10
30.510684219174987
 20
-0.056683326185482774
 10
30.530731989723336
 20
-0.05950085659226967
 10
30.550669217318397
 20
-0.06301632773780452
210
0.0
220
-1.0
230
0.0
  0
LWPOLYLINE
  5
3B
330
17
100
AcDbEntity
  8
ISLAND
100
AcDbPolyline
 90
106
 70
1
 10
40.010471611519435
 20
-0.06722545656201317
 10
42.12094791699063
 20
-0.6323600941374495
 10
40.03011504615946
 20
-1.1925970733851092
 10
40.010471611519435
 20
-1.197494731712886
 10
39.99066921731839
 20
-1.2017038605370947
 10
39.970731989723326
 20
-1.2052193316826294
 10
39.95068421917498
 20
-1.2080368620894162
 10
39.930550330793636
 20
-1.210153019030662
 10
39.910354854620905
 20
-1.2115652242951023
 10
39.89012239573362
 20
-1.2122717573281565
 10
39.86987760426637
 20
-1.2122717573281565
 10
39.849645145379085
 20
-1.2115652242951023
 10
39.829449669206355
 20
-1.210153019030662
 10
39.80931578082501
 20
-1.2080368620894162
 10
39.789268010276665
 20
-1.2052193316826294
 10
39.7693307826816
 20
-1.2017038605370947
 10
39.749528388480556
 20
-1.197494731712886
 10
39.72988495384053
 20
-1.1925970733851092
 10
39.71042441126081
 20
-1.18701685259601
 10
39.691170470414846
 20
-1.1807608679850534
 10
39.67214658926372
 20
-1.1738367415058266
 10
39.65337594547621
 20
-1.1662529091398648
 10
39.63488140819039
 20
-1.1580186106187065
 10
39.61668551015106
 20
-1.149143878166703
 10
39.59881042025712
 20
-1.139639524278299
 10
39.58127791655217
 20
-1.1295171285446748
 10
39.56410935969128
 20
-1.1187890235457956
 10
39.547325666916386
 20
-1.1074682798250648
 10
39.53094728657181
 20
-1.0955686899648793
 10
39.51499417319109
 20
-1.0831047517824928
 10
39.499485763185504
 20
-1.0700916506666573
 10
39.48444095116375
 20
-1.0565452410765683
 10
39.4698780669118
 20
-1.0424820272256472
 10
39.45581485306088
 20
-1.0279191429736987
 10
39.44226844347079
 20
-1.0128743309519437
 10
39.42925534235495
 20
-0.9973659209463552
 10
39.416791404172564
 20
-0.9814128075656374
 10
39.40489181431238
 20
-0.9650344272210561
 10
39.39357107059165
 20
-0.9482507344461654
 10
39.38284296559277
 20
-0.9310821775852811
 10
39.37272056985915
 20
-0.913549673880325
 10
39.363216215970745
 20
-0.8956745839863867
 10
39.35434148351874
 20
-0.8774786859470552
 10
39.34610718499758
 20
-0.8589841486612283
 10
39.33852335263162
 20
-0.8402135048737236
 10
39.33159922615239
 20
-0.8211896237226004
 10
39.32534324154143
 20
-0.8019356828766367
 10
39.31976302075233
 20
-0.7824751402969117
 10
39.31486536242456
 20
-0.7628317056568914
 10
39.31065623360035
 20
-0.7430293114558456
 10
39.307140762454814
 20
-0.7230920838607835
 10
39.30432323204803
 20
-0.7030443133124351
 10
39.302207075106786
 20
-0.6829104249310913
 10
39.30079486984234
 20
-0.6627149487583569
 10
39.30008833680929
 20
-0.6424824898710739
 10
39.30008833680929
 20
-0.622237698403825
 10
39.30079486984234
 20
-0.6020052395165423
 10
39.302207075106786
 20
-0.581809763343808
 10
39.30432323204803
 20
-0.5616758749624641
 10
39.307140762454814
 20
-0.5416281044141157
 10
39.31065623360035
 20
-0.5216908768190536
 10
39.31486536242456
 20
-0.5018884826180079
 10
39.31976302075233
 20
-0.4822450479779875
 10
39.32534324154143
 20
-0.4627845053982622
 10
39.33159922615239
 20
-0.44353056455229867
 10
39.33852335263162
 20
-0.4245066834011753
 10
39.34610718499758
 20
-0.4057360396136709
 10
39.35434148351874
 20
-0.38724150232784393
 10
39.363216215970745
 20
-0.3690456042885125
 10
39.37272056985915
 20
-0.35117051439457414
 10
39.38284296559277
 20
-0.3336380106896181
 10
39.39357107059165
 20
-0.31646945382873387
 10
39.40489181431238
 20
-0.29968576105384276
 10
39.416791404172564
 20
-0.2833073807092615
 10
39.42925534235495
 20
-0.2673542673285437
 10
39.44226844347079
 20
-0.25184585732295545
 10
39.45581485306088
 20
-0.2368010453012005
 10
39.4698780669118
 20
-0.22223816104925204
 10
39.48444095116375
 20
-0.20817494719833068
 10
39.499485763185504
 20
-0.19462853760824178
 10
39.51499417319109
 20
-0.18161543649240663
 10
39.53094728657181
 20
-0.16915149831001974
 10
39.547325666916386
 20
-0.15725190844983444
 10
39.56410935969128
 20
-0.14593116472910356
 10
39.58127791655216
 20
-0.13520305973022456
 10
39.598810420257124
 20
-0.1250806639966
 10
39.61668551015106
 20
-0.11557631010819625
 10
39.63488140819039
 20
-0.10670157765619248
 10
39.65337594547621
 20
-0.09846727913503417
 10
39.67214658926372
 20
-0.09088344676907267
 10
39.691170470414846
 20
-0.08395932028984576
 10
39.71042441126081
 20
-0.0777033356788891
 10
39.72988495384053
 20
-0.07212311488978995
 10
39.749528388480556
 20
-0.06722545656201317
 10
39.7693307826816
 20
-0.06301632773780452
 10
39.789268010276665
 20
-0.05950085659226978
 10
39.80931578082501
 20
-0.056683326185482774
 10
39.829449669206355
 20
-0.05456716924423721
 10
39.849645145379085
 20
-0.0531549639797968
 10
39.86987760426637
 20
-0.052448430946742675
 10
39.89012239573362
 20
-0.052448430946742675
 10
39.910354854620905
 20
-0.0531549639797968
 10
39.930550330793636
 20
-0.05456716924423721
 10
39.95068421917498
 20
-0.056683326185482774
 10
39.970731989723326
 20
-0.05950085659226967
 10
39.99066921731839
 20
-0.06301632773780452
210
0.0
220
-1.0
230
0.0
  0
TEXT
  5
3C
330
17
100
AcDbEntity
  8
OUTER
100
AcDbText
 10
0.0
 20
-2.2
 30
0.0
 40
0.5
  1
TVM-Forward  Xia et al. 2025 ATE 258 124611 Fig.3/4  unit mm  [Y-up: XZ plane]
 11
0.0
 21
-2.2
 31
0.0
210
0.0
220
-1.0
230
0.0
100
AcDbText
  0
ENDSEC
  0
SECTION
  2
OBJECTS
  0
DICTIONARY
  5
A
330
0
100
AcDbDictionary
281
1
  3
ACAD_COLOR
350
B
  3
ACAD_GROUP
350
C
  3
ACAD_LAYOUT
350
D
  3
ACAD_MATERIAL
350
E
  3
ACAD_MLEADERSTYLE
350
F
  3
ACAD_MLINESTYLE
350
10
  3
ACAD_PLOTSETTINGS
350
11
  3
ACAD_PLOTSTYLENAME
350
12
  3
ACAD_SCALELIST
350
14
  3
ACAD_TABLESTYLE
350
15
  3
ACAD_VISUALSTYLE
350
16
  3
EZDXF_META
350
2D
  0
DICTIONARY
  5
B
330
A
100
AcDbDictionary
281
1
  0
DICTIONARY
  5
C
330
A
100
AcDbDictionary
281
1
  0
DICTIONARY
  5
D
330
A
100
AcDbDictionary
281
1
  3
Model
350
1A
  3
Layout1
350
1E
  0
DICTIONARY
  5
E
330
A
100
AcDbDictionary
281
1
  3
ByBlock
350
1F
  3
ByLayer
350
20
  3
Global
350
21
  0
DICTIONARY
  5
F
330
A
100
AcDbDictionary
281
1
  3
Standard
350
2C
  0
DICTIONARY
  5
10
330
A
100
AcDbDictionary
281
1
  3
Standard
350
22
  0
DICTIONARY
  5
11
330
A
100
AcDbDictionary
281
1
  0
ACDBDICTIONARYWDFLT
  5
12
330
A
100
AcDbDictionary
281
1
  3
Normal
350
13
100
AcDbDictionaryWithDefault
340
13
  0
ACDBPLACEHOLDER
  5
13
330
12
  0
DICTIONARY
  5
14
330
A
100
AcDbDictionary
281
1
  0
DICTIONARY
  5
15
330
A
100
AcDbDictionary
281
1
  0
DICTIONARY
  5
16
330
A
100
AcDbDictionary
281
1
  0
LAYOUT
  5
1A
330
D
100
AcDbPlotSettings
  1

  4
A3
  6

 40
7.5
 41
20.0
 42
7.5
 43
20.0
 44
420.0
 45
297.0
 46
0.0
 47
0.0
 48
0.0
 49
0.0
140
0.0
141
0.0
142
1.0
143
1.0
 70
1024
 72
1
 73
0
 74
5
  7

 75
16
 76
0
 77
2
 78
300
147
1.0
148
0.0
149
0.0
100
AcDbLayout
  1
Model
 70
1
 71
0
 10
0.0
 20
0.0
 11
420.0
 21
297.0
 12
0.0
 22
0.0
 32
0.0
 14
1e+20
 24
1e+20
 34
1e+20
 15
-1e+20
 25
-1e+20
 35
-1e+20
146
0.0
 13
0.0
 23
0.0
 33
0.0
 16
1.0
 26
0.0
 36
0.0
 17
0.0
 27
1.0
 37
0.0
 76
1
330
17
  0
LAYOUT
  5
1E
330
D
100
AcDbPlotSettings
  1

  4
A3
  6

 40
7.5
 41
20.0
 42
7.5
 43
20.0
 44
420.0
 45
297.0
 46
0.0
 47
0.0
 48
0.0
 49
0.0
140
0.0
141
0.0
142
1.0
143
1.0
 70
0
 72
1
 73
0
 74
5
  7

 75
16
 76
0
 77
2
 78
300
147
1.0
148
0.0
149
0.0
100
AcDbLayout
  1
Layout1
 70
1
 71
1
 10
0.0
 20
0.0
 11
420.0
 21
297.0
 12
0.0
 22
0.0
 32
0.0
 14
1e+20
 24
1e+20
 34
1e+20
 15
-1e+20
 25
-1e+20
 35
-1e+20
146
0.0
 13
0.0
 23
0.0
 33
0.0
 16
1.0
 26
0.0
 36
0.0
 17
0.0
 27
1.0
 37
0.0
 76
1
330
1B
  0
MATERIAL
  5
1F
102
{ACAD_REACTORS
330
E
102
}
330
E
100
AcDbMaterial
  1
ByBlock
  2

 70
0
 40
1.0
 71
1
 41
1.0
 91
-1023410177
 42
1.0
 72
1
  3

 73
1
 74
1
 75
1
 44
0.5
 73
0
 45
1.0
 46
1.0
 77
1
  4

 78
1
 79
1
170
1
 48
1.0
171
1
  6

172
1
173
1
174
1
140
1.0
141
1.0
175
1
  7

176
1
177
1
178
1
143
1.0
179
1
  8

270
1
271
1
272
1
145
1.0
146
1.0
273
1
  9

274
1
275
1
276
1
 42
1.0
 72
1
  3

 73
1
 74
1
 75
1
 94
63
  0
MATERIAL
  5
20
102
{ACAD_REACTORS
330
E
102
}
330
E
100
AcDbMaterial
  1
ByLayer
  2

 70
0
 40
1.0
 71
1
 41
1.0
 91
-1023410177
 42
1.0
 72
1
  3

 73
1
 74
1
 75
1
 44
0.5
 73
0
 45
1.0
 46
1.0
 77
1
  4

 78
1
 79
1
170
1
 48
1.0
171
1
  6

172
1
173
1
174
1
140
1.0
141
1.0
175
1
  7

176
1
177
1
178
1
143
1.0
179
1
  8

270
1
271
1
272
1
145
1.0
146
1.0
273
1
  9

274
1
275
1
276
1
 42
1.0
 72
1
  3

 73
1
 74
1
 75
1
 94
63
  0
MATERIAL
  5
21
102
{ACAD_REACTORS
330
E
102
}
330
E
100
AcDbMaterial
  1
Global
  2

 70
0
 40
1.0
 71
1
 41
1.0
 91
-1023410177
 42
1.0
 72
1
  3

 73
1
 74
1
 75
1
 44
0.5
 73
0
 45
1.0
 46
1.0
 77
1
  4

 78
1
 79
1
170
1
 48
1.0
171
1
  6

172
1
173
1
174
1
140
1.0
141
1.0
175
1
  7

176
1
177
1
178
1
143
1.0
179
1
  8

270
1
271
1
272
1
145
1.0
146
1.0
273
1
  9

274
1
275
1
276
1
 42
1.0
 72
1
  3

 73
1
 74
1
 75
1
 94
63
  0
MLINESTYLE
  5
22
102
{ACAD_REACTORS
330
10
102
}
330
10
100
AcDbMlineStyle
  2
Standard
 70
0
  3

 62
256
 51
90.0
 52
90.0
 71
2
 49
0.5
 62
256
  6
BYLAYER
 49
-0.5
 62
256
  6
BYLAYER
  0
MLEADERSTYLE
  5
2C
102
{ACAD_REACTORS
330
F
102
}
330
F
100
AcDbMLeaderStyle
179
2
170
2
171
1
172
0
 90
2
 40
0.0
 41
0.0
173
1
 91
-1056964608
 92
-2
290
1
 42
2.0
291
1
 43
8.0
  3
Standard
 44
4.0
300

342
29
174
1
175
1
176
0
178
1
 93
-1056964608
 45
4.0
292
0
297
0
 46
4.0
 94
-1056964608
 47
1.0
 49
1.0
140
1.0
294
1
141
0.0
177
0
142
1.0
295
0
296
0
143
3.75
271
0
272
9
273
9
  0
DICTIONARY
  5
2D
330
A
100
AcDbDictionary
280
1
281
1
  3
CREATED_BY_EZDXF
350
2E
  3
WRITTEN_BY_EZDXF
350
3F
  0
DICTIONARYVAR
  5
2E
330
2D
100
DictionaryVariables
280
0
  1
1.4.4 @ 2026-10-10T03:18:56.215323+00:00
  0
DICTIONARYVAR
  5
3F
330
2D
100
DictionaryVariables
280
0
  1
1.4.4 @ 2026-10-10T03:18:56.222459+00:00
  0
ENDSEC
  0
EOF
